<svg xmlns="http://www.w3.org/2000/svg" xmlns:xlink="http://www.w3.org/1999/xlink" xmlns:lucid="lucid" width="2521" height="2403"><g transform="translate(0 0)" lucid:page-tab-id="ryX4SQfmrvC."><path d="M0 0h2534.6v2402.88H0z" fill="#21252c"/><path d="M20 81.44v-34a6 6 0 0 1 6-6h2428a6 6 0 0 1 6 6v34zM20 121.44v-40h580v40M600 121.44v-40h480v40M1080 121.44v-40h440v40M1520 121.44v-40h940v40" stroke="#a9a9a9" stroke-width="2" fill="#f5fbff"/><path d="M600 2361.44H26a6 6 0 0 1-6-6v-2234h580zM600 121.44h480v2240H600zM1080 121.44h440v2240h-440zM2460 121.44v2234a6 6 0 0 1-6 6h-934v-2240z" stroke="#a9a9a9" stroke-width="2" fill="none"/><use xlink:href="#a" transform="matrix(1,0,0,1,20,41.43924427525326) translate(1079.9772135416665 26.776258680555557)"/><use xlink:href="#b" transform="matrix(1,0,0,1,20,41.43924427525326) translate(1186.6612413194443 26.776258680555557)"/><use xlink:href="#c" transform="matrix(1,0,0,1,20,41.43924427525326) translate(1253.3387586805554 26.776258680555557)"/><use xlink:href="#d" transform="matrix(1,0,0,1,20,81.43924427525326) translate(263.32899305555554 26.776258680555557)"/><use xlink:href="#e" transform="matrix(1,0,0,1,600,81.43924427525326) translate(173.32248263888886 26.776258680555557)"/><use xlink:href="#f" transform="matrix(1,0,0,1,1080,81.43924427525326) translate(186.66124131944446 26.776258680555557)"/><use xlink:href="#g" transform="matrix(1,0,0,1,1520,81.43924427525326) translate(376.6514756944444 26.776258680555557)"/><path d="M304.25 180c0 11.05-8.95 20-20 20s-20-8.95-20-20 8.95-20 20-20 20 8.95 20 20z" stroke="#a9a9a9" stroke-width="2"/><path d="M820 682.5v35.88" stroke="#bdf139" stroke-width="3" fill="none"/><path d="M821.48 682.54h-2.96V681h2.96z" stroke="#bdf139" stroke-width=".05" fill="#bdf139"/><path d="M820 734.15l-4.63-14.27h9.26z" stroke="#bdf139" stroke-width="3" fill="#bdf139"/><path d="M284.25 202.5v46.88" stroke="#bdf139" stroke-width="3" fill="none"/><path d="M284.2 201l1.53-.05v1.6h-2.96v-1.73z" stroke="#bdf139" stroke-width=".05" fill="#bdf139"/><path d="M284.25 265.15l-4.63-14.27h9.26z" stroke="#bdf139" stroke-width="3" fill="#bdf139"/><path d="M244.25 292.5v30.88" stroke="#bdf139" stroke-width="3" fill="none"/><path d="M245.72 292.54h-2.94V291h2.94z" stroke="#bdf139" stroke-width=".05" fill="#bdf139"/><path d="M244.25 339.15l-4.63-14.27h9.26z" stroke="#bdf139" stroke-width="3" fill="#bdf139"/><path d="M756 740c-8.84 0-16 7.16-16 16v48c0 8.84 7.16 16 16 16h128c8.84 0 16-7.16 16-16v-48c0-8.84-7.16-16-16-16z" stroke="#a9a9a9" stroke-width="2" fill="#f5fbff"/><use xlink:href="#h" transform="matrix(1,0,0,1,747.9999999999999,748.0000000000001) translate(5.3224826388888715 27.06293402777778)"/><use xlink:href="#i" transform="matrix(1,0,0,1,747.9999999999999,748.0000000000001) translate(45.32899305555556 50.48958333333333)"/><path d="M1199.54 980c-8.84 0-16 7.16-16 16v48c0 8.84 7.16 16 16 16h228c8.84 0 16-7.16 16-16v-48c0-8.84-7.16-16-16-16z" stroke="#a9a9a9" stroke-width="2" fill="#f5fbff"/><use xlink:href="#j" transform="matrix(1,0,0,1,1191.5386150855984,988) translate(21.983723958333314 38.77625868055556)"/><use xlink:href="#k" transform="matrix(1,0,0,1,1191.5386150855984,988) translate(88.66124131944443 38.77625868055556)"/><path d="M1313.54 1062.5v31.5a6 6 0 0 1-6 6h-438.3a6 6 0 0 0-6 6v33.38" stroke="#bdf139" stroke-width="3" fill="none"/><path d="M1315 1062.54h-2.94V1061h2.95z" stroke="#bdf139" stroke-width=".05" fill="#bdf139"/><path d="M863.23 1155.15l-4.63-14.27h9.27z" stroke="#bdf139" stroke-width="3" fill="#bdf139"/><path d="M306 1311c-8.84 0-16 7.16-16 16v48c0 8.84 7.16 16 16 16h208c8.84 0 16-7.16 16-16v-48c0-8.84-7.16-16-16-16z" stroke="#a9a9a9" stroke-width="2" fill="#f5fbff"/><use xlink:href="#l" transform="matrix(1,0,0,1,298,1319) translate(25.319227430555543 27.06293402777778)"/><use xlink:href="#m" transform="matrix(1,0,0,1,298,1319) translate(145.33875868055557 27.06293402777778)"/><use xlink:href="#n" transform="matrix(1,0,0,1,298,1319) translate(51.990234374999986 50.48958333333333)"/><path d="M820 822.5V864a6 6 0 0 0 6 6h345.92" stroke="#bdf139" stroke-width="3" fill="none"/><path d="M821.48 822.54h-2.96V821h2.96z" stroke="#bdf139" stroke-width=".05" fill="#bdf139"/><path d="M1187.68 870l-14.26 4.63v-9.26z" stroke="#bdf139" stroke-width="3" fill="#bdf139"/><path d="M1209.54 830c-8.84 0-16 7.16-16 16v48c0 8.84 7.16 16 16 16h208c8.84 0 16-7.16 16-16v-48c0-8.84-7.16-16-16-16z" stroke="#a9a9a9" stroke-width="2" fill="#f5fbff"/><use xlink:href="#o" transform="matrix(1,0,0,1,1201.5386150855982,838) translate(45.32248263888887 27.06293402777778)"/><use xlink:href="#k" transform="matrix(1,0,0,1,1201.5386150855982,838) translate(45.32248263888887 50.48958333333333)"/><path d="M1313.54 912.5v45.88" stroke="#bdf139" stroke-width="3" fill="none"/><path d="M1315 912.54h-2.94V911h2.95z" stroke="#bdf139" stroke-width=".05" fill="#bdf139"/><path d="M1313.54 974.14l-4.64-14.26h9.27z" stroke="#bdf139" stroke-width="3" fill="#bdf139"/><path d="M1950.34 1504.24a6 6 0 0 1 8.48 0l11.52 11.52a6 6 0 0 1 0 8.48l-11.52 11.52a6 6 0 0 1-8.48 0l-11.52-11.52a6 6 0 0 1 0-8.48z" stroke="#a9a9a9" stroke-width="2" fill="#f5fbff"/><path d="M1974.6 1520h213.98a6 6 0 0 1 6 6v92.38" stroke="#bdf139" stroke-width="3" fill="none"/><path d="M1974.64 1521.47h-1.72l.1-.37.08-1.1-.1-1.1-.08-.38h1.72z" stroke="#bdf139" stroke-width=".05" fill="#bdf139"/><path d="M2194.58 1634.15l-4.63-14.27h9.27z" stroke="#bdf139" stroke-width="3" fill="#bdf139"/><use xlink:href="#p" transform="matrix(1,0,0,1,2066.608327194278,1492.5733506944446) translate(0 18.489583333333332)"/><path d="M2100.58 1640c-8.84 0-16 7.16-16 16v48c0 8.84 7.16 16 16 16h188c8.84 0 16-7.16 16-16v-48c0-8.84-7.16-16-16-16z" stroke="#a9a9a9" stroke-width="2" fill="#f5fbff"/><use xlink:href="#q" transform="matrix(1,0,0,1,2092.58030366747,1648) translate(8.651475694444429 27.06293402777778)"/><use xlink:href="#r" transform="matrix(1,0,0,1,2092.58030366747,1648) translate(102 27.06293402777778)"/><use xlink:href="#s" transform="matrix(1,0,0,1,2092.58030366747,1648) translate(61.99348958333333 50.48958333333333)"/><path d="M1834.58 1546a6 6 0 0 1 6-6h228a6 6 0 0 1 6 6v28a6 6 0 0 1-6 6h-228a6 6 0 0 1-6-6z" stroke="#000" stroke-opacity="0" stroke-width="2" fill="#fff" fill-opacity="0"/><use xlink:href="#t" transform="matrix(1,0,0,1,1839.5803036674702,1545) translate(14.983723958333314 22.239583333333332)"/><use xlink:href="#u" transform="matrix(1,0,0,1,1839.5803036674702,1545) translate(54.99023437499998 22.239583333333332)"/><path d="M1934.56 1520h-292.94" stroke="#bdf139" stroke-width="3" fill="none"/><path d="M1936.15 1518.9l-.1 1.1.1 1.1.1.38h-1.73v-2.95h1.72z" stroke="#bdf139" stroke-width=".05" fill="#bdf139"/><path d="M1625.85 1520l14.27-4.63v9.27z" stroke="#bdf139" stroke-width="3" fill="#bdf139"/><use xlink:href="#v" transform="matrix(1,0,0,1,1782.5651299265446,1492.5733506944446) translate(0 18.489583333333332)"/><path d="M410 1393.5v40.5a6 6 0 0 0 6 6h1532.58a6 6 0 0 1 6 6v34.86" stroke="#bdf139" stroke-width="3" fill="none"/><path d="M411.48 1393.54h-2.96V1392h2.96z" stroke="#bdf139" stroke-width=".05" fill="#bdf139"/><path d="M1954.58 1496.63l-4.63-14.27h9.27z" stroke="#bdf139" stroke-width="3" fill="#bdf139"/><path d="M1600 1506a6 6 0 0 1 6-6h8a6 6 0 0 1 6 6v391.58a6 6 0 0 1-6 6h-8a6 6 0 0 1-6-6z" stroke="#a9a9a9" stroke-width="2"/><path d="M2194.58 1722.5v103.6" stroke="#bdf139" stroke-width="3" fill="none"/><path d="M2196.05 1722.54h-2.95V1721h2.95z" stroke="#bdf139" stroke-width=".05" fill="#bdf139"/><path d="M2194.58 1841.88l-4.63-14.27h9.27z" stroke="#bdf139" stroke-width="3" fill="#bdf139"/><path d="M2194.58 1885.27v199.84" stroke="#bdf139" stroke-width="3" fill="none"/><path d="M2193.5 1883.68l1.08.1 1.1-.1.38-.1v1.73h-2.95v-1.7z" stroke="#bdf139" stroke-width=".05" fill="#bdf139"/><path d="M2194.58 2100.88l-4.63-14.27h9.27z" stroke="#bdf139" stroke-width="3" fill="#bdf139"/><use xlink:href="#p" transform="matrix(1,0,0,1,2202.58030366747,1922.5125056822199) translate(0 18.489583333333332)"/><path d="M2190.34 2108.5a6 6 0 0 1 8.48 0l11.52 11.5a6 6 0 0 1 0 8.5l-11.52 11.5a6 6 0 0 1-8.48 0l-11.52-11.5a6 6 0 0 1 0-8.5z" stroke="#a9a9a9" stroke-width="2" fill="#f5fbff"/><path d="M2194.58 2144.27V2274a6 6 0 0 1-6 6H989.12" stroke="#bdf139" stroke-width="3" fill="none"/><path d="M2193.5 2142.68l1.08.1 1.1-.1.38-.1v1.73h-2.95v-1.7z" stroke="#bdf139" stroke-width=".05" fill="#bdf139"/><path d="M973.35 2280l14.27-4.64v9.28z" stroke="#bdf139" stroke-width="3" fill="#bdf139"/><use xlink:href="#t" transform="matrix(1,0,0,1,1871.2990319243036,2229.1467013888887) translate(0.0049999999999954525 18.489583333333332)"/><use xlink:href="#w" transform="matrix(1,0,0,1,1871.2990319243036,2229.1467013888887) translate(40.01151041666666 18.489583333333332)"/><use xlink:href="#x" transform="matrix(1,0,0,1,1871.2990319243036,2229.1467013888887) translate(26.67600694444444 41.916232638888886)"/><path d="M2174.56 2124.25H989.12" stroke="#bdf139" stroke-width="3" fill="none"/><path d="M2176.15 2123.15l-.1 1.1.1 1.1.1.38h-1.73v-2.95h1.72z" stroke="#bdf139" stroke-width=".05" fill="#bdf139"/><path d="M973.35 2124.25l14.27-4.64v9.3z" stroke="#bdf139" stroke-width="3" fill="#bdf139"/><use xlink:href="#t" transform="matrix(1,0,0,1,1875.872128859259,2073.3967013888905) translate(20.008255208333352 18.489583333333332)"/><use xlink:href="#y" transform="matrix(1,0,0,1,1875.872128859259,2073.3967013888905) translate(60.01476562500002 18.489583333333332)"/><use xlink:href="#x" transform="matrix(1,0,0,1,1875.872128859259,2073.3967013888905) translate(0.0049999999999954525 41.916232638888886)"/><path d="M728.5 2084.25c-8.84 0-16 7.16-16 16v48c0 8.84 7.16 16 16 16h223c8.84 0 16-7.16 16-16v-48c0-8.84-7.16-16-16-16z" stroke="#a9a9a9" stroke-width="2" fill="#f5fbff"/><use xlink:href="#z" transform="matrix(1,0,0,1,720.5,2092.250000000002) translate(26.15147569444443 27.06293402777778)"/><use xlink:href="#A" transform="matrix(1,0,0,1,720.5,2092.250000000002) translate(119.5 27.06293402777778)"/><use xlink:href="#i" transform="matrix(1,0,0,1,720.5,2092.250000000002) translate(92.82899305555556 50.48958333333333)"/><path d="M1597.5 1701.8H246a6 6 0 0 1-6-6V1106a6 6 0 0 1 6-6h531.23a6 6 0 0 1 6 6v33.38" stroke="#bdf139" stroke-width="3" fill="none"/><path d="M1599 1703.27h-1.54v-2.95h1.54z" stroke="#bdf139" stroke-width=".05" fill="#bdf139"/><path d="M783.23 1155.15l-4.63-14.27h9.27z" stroke="#bdf139" stroke-width="3" fill="#bdf139"/><path d="M710 2124.25H166a6 6 0 0 1-6-6V586a6 6 0 0 1 6-6h608a6 6 0 0 1 6 6v53.38" stroke="#bdf139" stroke-width="3" fill="none"/><path d="M711.5 2125.72h-1.54v-2.94h1.54z" stroke="#bdf139" stroke-width=".05" fill="#bdf139"/><path d="M780 655.15l-4.63-14.27h9.26z" stroke="#bdf139" stroke-width="3" fill="#bdf139"/><path d="M740 666a6 6 0 0 1 6-6h148a6 6 0 0 1 6 6v8a6 6 0 0 1-6 6H746a6 6 0 0 1-6-6z" stroke="#a9a9a9" stroke-width="2"/><path d="M728.5 2240c-8.84 0-16 7.16-16 16v48c0 8.84 7.16 16 16 16h223c8.84 0 16-7.16 16-16v-48c0-8.84-7.16-16-16-16z" stroke="#a9a9a9" stroke-width="2" fill="#f5fbff"/><use xlink:href="#z" transform="matrix(1,0,0,1,720.5,2248) translate(26.15147569444443 27.06293402777778)"/><use xlink:href="#A" transform="matrix(1,0,0,1,720.5,2248) translate(119.5 27.06293402777778)"/><use xlink:href="#B" transform="matrix(1,0,0,1,720.5,2248) translate(46.15473090277776 50.48958333333333)"/><path d="M759.23 1230c-8.84 0-16 7.16-16 16v48c0 8.84 7.16 16 16 16h128c8.84 0 16-7.16 16-16v-48c0-8.84-7.16-16-16-16z" stroke="#a9a9a9" stroke-width="2" fill="#f5fbff"/><use xlink:href="#C" transform="matrix(1,0,0,1,751.2306924086818,1238) translate(5.322482638888886 27.06293402777778)"/><use xlink:href="#D" transform="matrix(1,0,0,1,751.2306924086818,1238) translate(85.33550347222223 27.06293402777778)"/><use xlink:href="#E" transform="matrix(1,0,0,1,751.2306924086818,1238) translate(-1.3452690972222427 50.48958333333333)"/><path d="M823.23 1312.5v32.5a6 6 0 0 1-6 6h-265.6" stroke="#bdf139" stroke-width="3" fill="none"/><path d="M824.7 1312.54h-2.94V1311h2.95z" stroke="#bdf139" stroke-width=".05" fill="#bdf139"/><path d="M535.85 1351l14.27-4.63v9.27z" stroke="#bdf139" stroke-width="3" fill="#bdf139"/><path d="M743.23 1166a6 6 0 0 1 6-6h148a6 6 0 0 1 6 6v8a6 6 0 0 1-6 6h-148a6 6 0 0 1-6-6z" stroke="#a9a9a9" stroke-width="2"/><path d="M823.23 1182.5v25.88" stroke="#bdf139" stroke-width="3" fill="none"/><path d="M824.7 1182.54h-2.94V1181h2.95z" stroke="#bdf139" stroke-width=".05" fill="#bdf139"/><path d="M823.23 1224.15l-4.63-14.27h9.27z" stroke="#bdf139" stroke-width="3" fill="#bdf139"/><path d="M170.25 345c-8.84 0-16 7.16-16 16v48c0 8.84 7.16 16 16 16h148c8.84 0 16-7.16 16-16v-48c0-8.84-7.16-16-16-16z" stroke="#a9a9a9" stroke-width="2" fill="#f5fbff"/><use xlink:href="#F" transform="matrix(1,0,0,1,162.25,353) translate(48.66124131944444 27.06293402777778)"/><use xlink:href="#B" transform="matrix(1,0,0,1,162.25,353) translate(8.654730902777757 50.48958333333333)"/><path d="M745.02 460c-8.84 0-16 7.16-16 16v48c0 8.84 7.16 16 16 16h228c8.84 0 16-7.16 16-16v-48c0-8.84-7.16-16-16-16z" stroke="#a9a9a9" stroke-width="2" fill="#f5fbff"/><use xlink:href="#G" transform="matrix(1,0,0,1,737.0208442424158,468) translate(48.65473090277777 27.06293402777778)"/><use xlink:href="#H" transform="matrix(1,0,0,1,737.0208442424158,468) translate(101.99674479166666 27.06293402777778)"/><use xlink:href="#i" transform="matrix(1,0,0,1,737.0208442424158,468) translate(95.32899305555556 50.48958333333333)"/><path d="M860 542.5v96.88" stroke="#bdf139" stroke-width="3" fill="none"/><path d="M861.48 542.54h-2.96V541h2.96z" stroke="#bdf139" stroke-width=".05" fill="#bdf139"/><path d="M860 655.14l-4.63-14.26h9.26z" stroke="#bdf139" stroke-width="3" fill="#bdf139"/><path d="M2190.34 1849.5a6 6 0 0 1 8.48 0l11.52 11.5a6 6 0 0 1 0 8.5l-11.52 11.5a6 6 0 0 1-8.48 0l-11.52-11.5a6 6 0 0 1 0-8.5z" stroke="#a9a9a9" stroke-width="2" fill="#f5fbff"/><path d="M2174.56 1865.25h-532.94" stroke="#bdf139" stroke-width="3" fill="none"/><path d="M2176.15 1864.15l-.1 1.1.1 1.1.1.38h-1.73v-2.95h1.72z" stroke="#bdf139" stroke-width=".05" fill="#bdf139"/><path d="M1625.86 1865.25l14.26-4.63v9.27z" stroke="#bdf139" stroke-width="3" fill="#bdf139"/><g><use xlink:href="#v" transform="matrix(1,0,0,1,1938.5147646494513,1869.2500000000007) translate(0 18.489583333333332)"/></g><path d="M2194.58 1832.92a6 6 0 0 1 6-6h228a6 6 0 0 1 6 6v64.66a6 6 0 0 1-6 6h-228a6 6 0 0 1-6-6z" stroke="#000" stroke-opacity="0" stroke-width="2" fill="#fff" fill-opacity="0"/><g><use xlink:href="#t" transform="matrix(1,0,0,1,2199.58030366747,1831.9166666666667) translate(28.319227430555543 28.958333333333332)"/><use xlink:href="#I" transform="matrix(1,0,0,1,2199.58030366747,1831.9166666666667) translate(68.3257378472222 28.958333333333332)"/><use xlink:href="#J" transform="matrix(1,0,0,1,2199.58030366747,1831.9166666666667) translate(74.99348958333333 52.384982638888886)"/></g><path d="M710 2280H76a6 6 0 0 1-6-6V216a6 6 0 0 1 6-6h122.25a6 6 0 0 1 6 6v33.38" stroke="#bdf139" stroke-width="3" fill="none"/><path d="M711.5 2281.47h-1.54v-2.94h1.54z" stroke="#bdf139" stroke-width=".05" fill="#bdf139"/><path d="M204.25 265.15l-4.63-14.27h9.26z" stroke="#bdf139" stroke-width="3" fill="#bdf139"/><path d="M164.25 276a6 6 0 0 1 6-6h148a6 6 0 0 1 6 6v8a6 6 0 0 1-6 6h-148a6 6 0 0 1-6-6z" stroke="#a9a9a9" stroke-width="2"/><path d="M244.25 427.5v33.36" stroke="#bdf139" stroke-width="3" fill="none"/><path d="M245.72 427.54h-2.94V426h2.94z" stroke="#bdf139" stroke-width=".05" fill="#bdf139"/><path d="M244.25 476.63l-4.63-14.27h9.26z" stroke="#bdf139" stroke-width="3" fill="#bdf139"/><path d="M240 484.24a6 6 0 0 1 8.5 0l11.5 11.52a6 6 0 0 1 0 8.48l-11.5 11.52a6 6 0 0 1-8.5 0l-11.5-11.52a6 6 0 0 1 0-8.48z" stroke="#a9a9a9" stroke-width="2" fill="#f5fbff"/><path d="M264.27 500H707.4" stroke="#bdf139" stroke-width="3" fill="none"/><path d="M264.3 501.48h-1.7l.08-.38.1-1.1-.1-1.1-.1-.38h1.73z" stroke="#bdf139" stroke-width=".05" fill="#bdf139"/><path d="M723.17 500l-14.27 4.63v-9.26z" stroke="#bdf139" stroke-width="3" fill="#bdf139"/><path d="M264.25 506a6 6 0 0 1 6-6H594a6 6 0 0 1 6 6v28a6 6 0 0 1-6 6H270.25a6 6 0 0 1-6-6z" stroke="#000" stroke-opacity="0" stroke-width="2" fill="#fff" fill-opacity="0"/><g><use xlink:href="#K" transform="matrix(1,0,0,1,269.25,505) translate(9.641710069444429 22.239583333333332)"/><use xlink:href="#L" transform="matrix(1,0,0,1,269.25,505) translate(36.31271701388887 22.239583333333332)"/><use xlink:href="#M" transform="matrix(1,0,0,1,269.25,505) translate(76.31922743055554 22.239583333333332)"/><use xlink:href="#N" transform="matrix(1,0,0,1,269.25,505) translate(142.99674479166666 22.239583333333332)"/><use xlink:href="#O" transform="matrix(1,0,0,1,269.25,505) translate(303.02278645833337 22.239583333333332)"/></g><defs><path fill="#5f6572" d="M655-135c108 0 195-33 260-74v-336H622v-160h479v572C981-54 839 20 639 20c-388 0-526-306-526-701 0-406 129-689 529-689 261 0 392 137 461 331l-171 56c-47-131-122-231-288-231-281 0-330 245-330 533 0 179 28 314 84 407s142 139 257 139" id="P"/><path fill="#5f6572" d="M617-1102c355 0 481 238 477 599H322c5 222 84 388 301 388 144 0 244-59 284-166l158 45C1002-72 854 20 623 20c-342 0-490-220-490-568 0-346 151-554 484-554zm291 461c-18-192-90-328-289-328-194 0-287 128-295 328h584" id="Q"/><path fill="#5f6572" d="M706-1102c241 0 344 136 343 381V0H868v-695c1-168-57-273-220-268-190 6-283 138-283 336V0H185c-3-360 6-732-6-1082h170c4 54 7 126 8 185h3c63-121 164-204 346-205" id="R"/><path fill="#5f6572" d="M839-1102c70 0 148 7 206 17v167c-112-18-268-36-363 15-129 69-208 203-208 395V0H294c-10-367 32-789-52-1082h171c21 75 41 161 48 250h5c67-152 152-270 373-270" id="S"/><path fill="#5f6572" d="M745-142h380V0H143v-142h422v-798H246v-142h499v940zM545-1292v-192h200v192H545" id="T"/><path fill="#5f6572" d="M631 20c-350 0-501-215-501-562 0-355 162-560 502-560 250 0 399 118 446 323l-192 14c-23-124-109-196-262-196-242 0-305 171-305 415 1 245 61 427 304 427 151 0 248-77 267-215l190 12C1039-107 883 20 631 20" id="U"/><g id="a"><use transform="matrix(0.010850694444444444,0,0,0.010850694444444444,0,0)" xlink:href="#P"/><use transform="matrix(0.010850694444444444,0,0,0.010850694444444444,13.335503472222221,0)" xlink:href="#Q"/><use transform="matrix(0.010850694444444444,0,0,0.010850694444444444,26.671006944444443,0)" xlink:href="#R"/><use transform="matrix(0.010850694444444444,0,0,0.010850694444444444,40.006510416666664,0)" xlink:href="#Q"/><use transform="matrix(0.010850694444444444,0,0,0.010850694444444444,53.342013888888886,0)" xlink:href="#S"/><use transform="matrix(0.010850694444444444,0,0,0.010850694444444444,66.67751736111111,0)" xlink:href="#T"/><use transform="matrix(0.010850694444444444,0,0,0.010850694444444444,80.01302083333334,0)" xlink:href="#U"/></g><path fill="#5f6572" d="M285-1169c8 382 2 780 4 1169H129v-1349h237c86 239 188 461 253 720 69-258 169-481 255-720h225V0H937c2-390-5-788 6-1169-75 255-170 488-259 729H547c-90-240-185-475-262-729" id="V"/><path fill="#5f6572" d="M528 20c-247 0-343-132-343-381v-721h180v686c-4 177 45 284 224 277 194-8 279-136 279-336v-627h181c3 360-6 732 6 1082H885c-4-54-7-126-8-185h-3C809-64 714 20 528 20" id="W"/><g id="b"><use transform="matrix(0.010850694444444444,0,0,0.010850694444444444,0,0)" xlink:href="#V"/><use transform="matrix(0.010850694444444444,0,0,0.010850694444444444,13.335503472222221,0)" xlink:href="#Q"/><use transform="matrix(0.010850694444444444,0,0,0.010850694444444444,26.671006944444443,0)" xlink:href="#R"/><use transform="matrix(0.010850694444444444,0,0,0.010850694444444444,40.006510416666664,0)" xlink:href="#W"/></g><path fill="#5f6572" d="M802-711c201 25 350 118 350 331C1152-95 921 0 634 0H162v-1349c401 9 908-74 908 327 0 184-111 275-268 311zm-224-69c174-2 300-51 300-218 0-163-124-198-302-198H353v416h225zM353-153c281-2 612 44 606-244-5-271-329-233-606-234v478" id="X"/><path fill="#5f6572" d="M648-963c-190 6-283 138-283 336V0H185v-1484h181c-2 197 6 404-9 587h3c62-120 159-205 339-205 242 0 351 135 350 381V0H868v-695c1-168-57-273-220-268" id="Y"/><path fill="#5f6572" d="M1000-272c3 95 12 159 101 161 21 0 41-3 59-7V-6c-44 10-86 16-139 16-141 2-191-84-197-217h-6C748-76 648 20 446 20c-207 0-318-120-318-322 0-266 194-348 454-354l236-4c12-191-40-305-222-305-140 0-220 47-232 172l-188-17c33-204 181-292 423-292 255 0 401 118 401 364v466zm-683-27c0 109 63 184 175 182 166-3 259-96 306-217 24-65 20-120 20-200-232 7-501-28-501 235" id="Z"/><path fill="#5f6572" d="M715 0H502L69-1082h202c94 253 197 500 285 758 19 57 36 126 52 183 96-335 234-626 350-941h201" id="aa"/><path fill="#5f6572" d="M615-1102c343 0 484 203 482 560-1 347-147 562-488 562-336 0-475-219-479-562-4-349 156-560 485-560zm-8 989c240 0 301-180 301-429 0-245-55-427-290-427-236 0-299 181-299 427 0 243 61 429 288 429" id="ab"/><g id="c"><use transform="matrix(0.010850694444444444,0,0,0.010850694444444444,0,0)" xlink:href="#X"/><use transform="matrix(0.010850694444444444,0,0,0.010850694444444444,13.335503472222221,0)" xlink:href="#Q"/><use transform="matrix(0.010850694444444444,0,0,0.010850694444444444,26.671006944444443,0)" xlink:href="#Y"/><use transform="matrix(0.010850694444444444,0,0,0.010850694444444444,40.006510416666664,0)" xlink:href="#Z"/><use transform="matrix(0.010850694444444444,0,0,0.010850694444444444,53.342013888888886,0)" xlink:href="#aa"/><use transform="matrix(0.010850694444444444,0,0,0.010850694444444444,66.67751736111111,0)" xlink:href="#T"/><use transform="matrix(0.010850694444444444,0,0,0.010850694444444444,80.01302083333334,0)" xlink:href="#ab"/><use transform="matrix(0.010850694444444444,0,0,0.010850694444444444,93.34852430555557,0)" xlink:href="#S"/></g><path fill="#5f6572" d="M604-135c236 0 291-142 291-376v-838h190v859c5 340-142 510-480 510-326 0-463-164-463-492v-877h191v851c-3 222 46 363 271 363" id="ac"/><path fill="#5f6572" d="M873-819c-18-114-119-146-250-146-163 0-245 50-245 151 0 151 170 148 294 185 182 54 388 94 388 320 0 240-189 325-439 329-245 4-410-69-454-268l159-31c24 133 136 168 295 165 144-2 270-31 270-171 0-164-195-160-331-202-167-52-350-87-350-299 0-218 173-315 413-313 220 2 373 77 412 260" id="ad"/><g id="d"><use transform="matrix(0.010850694444444444,0,0,0.010850694444444444,0,0)" xlink:href="#ac"/><use transform="matrix(0.010850694444444444,0,0,0.010850694444444444,13.335503472222221,0)" xlink:href="#ad"/><use transform="matrix(0.010850694444444444,0,0,0.010850694444444444,26.671006944444443,0)" xlink:href="#Q"/><use transform="matrix(0.010850694444444444,0,0,0.010850694444444444,40.006510416666664,0)" xlink:href="#S"/></g><path fill="#5f6572" d="M1034 0L896-382H333L196 0H0l510-1349h217L1228 0h-194zM847-531c-77-225-157-447-231-674-69 231-154 451-232 674h463" id="ae"/><path fill="#5f6572" d="M865-914c-3-187-2-380-2-570h180v1261c0 76 1 155 6 223H877c-8-49-9-116-10-174h-5C801-44 708 26 530 26c-135 0-234-46-297-139s-95-232-95-419c0-377 131-566 392-566 176 0 271 63 335 184zm-286-51c-222 0-255 197-255 427 0 229 31 425 253 425 237 0 286-195 286-441 0-238-52-411-284-411" id="af"/><path fill="#5f6572" d="M736-142h380V0H134v-142h422v-1200H267v-142h469v1342" id="ag"/><g id="e"><use transform="matrix(0.010850694444444444,0,0,0.010850694444444444,0,0)" xlink:href="#ae"/><use transform="matrix(0.010850694444444444,0,0,0.010850694444444444,13.335503472222221,0)" xlink:href="#V"/><use transform="matrix(0.010850694444444444,0,0,0.010850694444444444,26.671006944444443,0)" xlink:href="#Q"/><use transform="matrix(0.010850694444444444,0,0,0.010850694444444444,40.006510416666664,0)" xlink:href="#R"/><use transform="matrix(0.010850694444444444,0,0,0.010850694444444444,53.342013888888886,0)" xlink:href="#W"/><use transform="matrix(0.010850694444444444,0,0,0.010850694444444444,66.67751736111111,0)" xlink:href="#V"/><use transform="matrix(0.010850694444444444,0,0,0.010850694444444444,80.01302083333334,0)" xlink:href="#ab"/><use transform="matrix(0.010850694444444444,0,0,0.010850694444444444,93.34852430555557,0)" xlink:href="#af"/><use transform="matrix(0.010850694444444444,0,0,0.010850694444444444,106.6840277777778,0)" xlink:href="#Q"/><use transform="matrix(0.010850694444444444,0,0,0.010850694444444444,120.01953125000003,0)" xlink:href="#ag"/></g><g id="f"><use transform="matrix(0.010850694444444444,0,0,0.010850694444444444,0,0)" xlink:href="#ae"/><use transform="matrix(0.010850694444444444,0,0,0.010850694444444444,13.335503472222221,0)" xlink:href="#V"/><use transform="matrix(0.010850694444444444,0,0,0.010850694444444444,26.671006944444443,0)" xlink:href="#Q"/><use transform="matrix(0.010850694444444444,0,0,0.010850694444444444,40.006510416666664,0)" xlink:href="#R"/><use transform="matrix(0.010850694444444444,0,0,0.010850694444444444,53.342013888888886,0)" xlink:href="#W"/></g><path fill="#5f6572" d="M650-1214c-281 0-336 244-336 533 0 295 60 546 347 546 188 0 263-142 322-282l159 65C1058-155 935 20 659 20c-401 0-546-295-546-701 0-407 135-689 536-689 264 0 391 146 466 335l-168 65c-47-129-127-244-297-244" id="ah"/><path fill="#5f6572" d="M904-1102c199 0 220 177 220 381V0H956v-686c-3-114 0-215-60-264-70-33-125-4-158 71-26 56-39 140-39 252V0H531v-686c-3-114-1-215-61-264-78-41-136 24-157 84-24 69-39 159-39 259V0H105c-3-360 6-732-6-1082h149c6 50 3 123 8 175 36-100 83-195 216-195 135 0 166 79 196 196 42-105 93-196 236-196" id="ai"/><path fill="#5f6572" d="M698-1104c312 3 392 244 392 558 0 315-82 566-392 566-169 0-277-65-331-184h-5c8 188 2 394 4 589H185V-858c0-76-1-156-6-224h175c6 52 9 120 10 178h4c58-122 150-202 330-200zm-49 991c225 0 255-203 255-433 0-225-32-419-253-419-236 0-285 192-285 441 0 237 53 411 283 411" id="aj"/><path fill="#5f6572" d="M682 16c-209 0-323-80-324-285v-671H190v-142h170l58-282h120v282h432v142H538v652c2 114 60 155 182 155 106 0 209-16 297-34v137C921-4 806 16 682 16" id="ak"/><g id="g"><use transform="matrix(0.010850694444444444,0,0,0.010850694444444444,0,0)" xlink:href="#ae"/><use transform="matrix(0.010850694444444444,0,0,0.010850694444444444,13.335503472222221,0)" xlink:href="#V"/><use transform="matrix(0.010850694444444444,0,0,0.010850694444444444,26.671006944444443,0)" xlink:href="#Q"/><use transform="matrix(0.010850694444444444,0,0,0.010850694444444444,40.006510416666664,0)" xlink:href="#R"/><use transform="matrix(0.010850694444444444,0,0,0.010850694444444444,53.342013888888886,0)" xlink:href="#W"/><use transform="matrix(0.010850694444444444,0,0,0.010850694444444444,66.67751736111111,0)" xlink:href="#ah"/><use transform="matrix(0.010850694444444444,0,0,0.010850694444444444,80.01302083333334,0)" xlink:href="#ab"/><use transform="matrix(0.010850694444444444,0,0,0.010850694444444444,93.34852430555557,0)" xlink:href="#ai"/><use transform="matrix(0.010850694444444444,0,0,0.010850694444444444,106.6840277777778,0)" xlink:href="#aj"/><use transform="matrix(0.010850694444444444,0,0,0.010850694444444444,120.01953125000003,0)" xlink:href="#ab"/><use transform="matrix(0.010850694444444444,0,0,0.010850694444444444,133.35503472222226,0)" xlink:href="#R"/><use transform="matrix(0.010850694444444444,0,0,0.010850694444444444,146.69053819444449,0)" xlink:href="#Q"/><use transform="matrix(0.010850694444444444,0,0,0.010850694444444444,160.0260416666667,0)" xlink:href="#R"/><use transform="matrix(0.010850694444444444,0,0,0.010850694444444444,173.36154513888894,0)" xlink:href="#ak"/></g><path fill="#5f6572" d="M202-1349h823v156H709v1037h316V0H202v-156h316v-1037H202v-156" id="al"/><path fill="#5f6572" d="M147 0v-137l681-806H187v-139h844v137L349-139h719V0H147" id="am"/><g id="h"><use transform="matrix(0.010850694444444444,0,0,0.010850694444444444,0,0)" xlink:href="#al"/><use transform="matrix(0.010850694444444444,0,0,0.010850694444444444,13.335503472222221,0)" xlink:href="#R"/><use transform="matrix(0.010850694444444444,0,0,0.010850694444444444,26.671006944444443,0)" xlink:href="#T"/><use transform="matrix(0.010850694444444444,0,0,0.010850694444444444,40.006510416666664,0)" xlink:href="#ak"/><use transform="matrix(0.010850694444444444,0,0,0.010850694444444444,53.342013888888886,0)" xlink:href="#T"/><use transform="matrix(0.010850694444444444,0,0,0.010850694444444444,66.67751736111111,0)" xlink:href="#Z"/><use transform="matrix(0.010850694444444444,0,0,0.010850694444444444,80.01302083333334,0)" xlink:href="#ag"/><use transform="matrix(0.010850694444444444,0,0,0.010850694444444444,93.34852430555557,0)" xlink:href="#T"/><use transform="matrix(0.010850694444444444,0,0,0.010850694444444444,106.6840277777778,0)" xlink:href="#am"/><use transform="matrix(0.010850694444444444,0,0,0.010850694444444444,120.01953125000003,0)" xlink:href="#Q"/></g><g id="i"><use transform="matrix(0.010850694444444444,0,0,0.010850694444444444,0,0)" xlink:href="#V"/><use transform="matrix(0.010850694444444444,0,0,0.010850694444444444,13.335503472222221,0)" xlink:href="#Q"/><use transform="matrix(0.010850694444444444,0,0,0.010850694444444444,26.671006944444443,0)" xlink:href="#R"/><use transform="matrix(0.010850694444444444,0,0,0.010850694444444444,40.006510416666664,0)" xlink:href="#W"/></g><path fill="#5f6572" d="M614-1226c-167 1-283 53-283 213 0 183 186 193 334 234 230 63 463 120 463 409 0 286-219 387-518 390C309 23 131-98 79-338l185-37c34 165 149 248 351 246 184-2 324-58 324-238 0-203-207-221-372-266-210-57-422-111-422-377 0-267 201-356 470-360 279-5 430 101 480 324l-188 33c-28-141-121-215-293-213" id="an"/><path fill="#5f6572" d="M1018 0H814c-67-224-138-444-200-673C552-442 476-224 407 0H204L21-1082h178c43 310 105 601 126 933 54-225 128-425 193-638h193c63 212 134 415 185 638 22-336 90-622 136-933h176" id="ao"/><g id="j"><use transform="matrix(0.010850694444444444,0,0,0.010850694444444444,0,0)" xlink:href="#an"/><use transform="matrix(0.010850694444444444,0,0,0.010850694444444444,13.335503472222221,0)" xlink:href="#Y"/><use transform="matrix(0.010850694444444444,0,0,0.010850694444444444,26.671006944444443,0)" xlink:href="#ab"/><use transform="matrix(0.010850694444444444,0,0,0.010850694444444444,40.006510416666664,0)" xlink:href="#ao"/></g><g id="k"><use transform="matrix(0.010850694444444444,0,0,0.010850694444444444,0,0)" xlink:href="#ah"/><use transform="matrix(0.010850694444444444,0,0,0.010850694444444444,13.335503472222221,0)" xlink:href="#ab"/><use transform="matrix(0.010850694444444444,0,0,0.010850694444444444,26.671006944444443,0)" xlink:href="#ai"/><use transform="matrix(0.010850694444444444,0,0,0.010850694444444444,40.006510416666664,0)" xlink:href="#aj"/><use transform="matrix(0.010850694444444444,0,0,0.010850694444444444,53.342013888888886,0)" xlink:href="#ab"/><use transform="matrix(0.010850694444444444,0,0,0.010850694444444444,66.67751736111111,0)" xlink:href="#R"/><use transform="matrix(0.010850694444444444,0,0,0.010850694444444444,80.01302083333334,0)" xlink:href="#Q"/><use transform="matrix(0.010850694444444444,0,0,0.010850694444444444,93.34852430555557,0)" xlink:href="#R"/><use transform="matrix(0.010850694444444444,0,0,0.010850694444444444,106.6840277777778,0)" xlink:href="#ak"/><use transform="matrix(0.010850694444444444,0,0,0.010850694444444444,120.01953125000003,0)" xlink:href="#ad"/></g><g id="l"><use transform="matrix(0.010850694444444444,0,0,0.010850694444444444,0,0)" xlink:href="#al"/><use transform="matrix(0.010850694444444444,0,0,0.010850694444444444,13.335503472222221,0)" xlink:href="#R"/><use transform="matrix(0.010850694444444444,0,0,0.010850694444444444,26.671006944444443,0)" xlink:href="#ak"/><use transform="matrix(0.010850694444444444,0,0,0.010850694444444444,40.006510416666664,0)" xlink:href="#Q"/><use transform="matrix(0.010850694444444444,0,0,0.010850694444444444,53.342013888888886,0)" xlink:href="#S"/><use transform="matrix(0.010850694444444444,0,0,0.010850694444444444,66.67751736111111,0)" xlink:href="#Z"/><use transform="matrix(0.010850694444444444,0,0,0.010850694444444444,80.01302083333334,0)" xlink:href="#U"/><use transform="matrix(0.010850694444444444,0,0,0.010850694444444444,93.34852430555557,0)" xlink:href="#ak"/></g><g id="m"><use transform="matrix(0.010850694444444444,0,0,0.010850694444444444,0,0)" xlink:href="#ao"/><use transform="matrix(0.010850694444444444,0,0,0.010850694444444444,13.335503472222221,0)" xlink:href="#T"/><use transform="matrix(0.010850694444444444,0,0,0.010850694444444444,26.671006944444443,0)" xlink:href="#ak"/><use transform="matrix(0.010850694444444444,0,0,0.010850694444444444,40.006510416666664,0)" xlink:href="#Y"/></g><g id="n"><use transform="matrix(0.010850694444444444,0,0,0.010850694444444444,0,0)" xlink:href="#ah"/><use transform="matrix(0.010850694444444444,0,0,0.010850694444444444,13.335503472222221,0)" xlink:href="#ab"/><use transform="matrix(0.010850694444444444,0,0,0.010850694444444444,26.671006944444443,0)" xlink:href="#ai"/><use transform="matrix(0.010850694444444444,0,0,0.010850694444444444,40.006510416666664,0)" xlink:href="#aj"/><use transform="matrix(0.010850694444444444,0,0,0.010850694444444444,53.342013888888886,0)" xlink:href="#ab"/><use transform="matrix(0.010850694444444444,0,0,0.010850694444444444,66.67751736111111,0)" xlink:href="#R"/><use transform="matrix(0.010850694444444444,0,0,0.010850694444444444,80.01302083333334,0)" xlink:href="#Q"/><use transform="matrix(0.010850694444444444,0,0,0.010850694444444444,93.34852430555557,0)" xlink:href="#R"/><use transform="matrix(0.010850694444444444,0,0,0.010850694444444444,106.6840277777778,0)" xlink:href="#ak"/></g><g id="o"><use transform="matrix(0.010850694444444444,0,0,0.010850694444444444,0,0)" xlink:href="#al"/><use transform="matrix(0.010850694444444444,0,0,0.010850694444444444,13.335503472222221,0)" xlink:href="#R"/><use transform="matrix(0.010850694444444444,0,0,0.010850694444444444,26.671006944444443,0)" xlink:href="#T"/><use transform="matrix(0.010850694444444444,0,0,0.010850694444444444,40.006510416666664,0)" xlink:href="#ak"/><use transform="matrix(0.010850694444444444,0,0,0.010850694444444444,53.342013888888886,0)" xlink:href="#T"/><use transform="matrix(0.010850694444444444,0,0,0.010850694444444444,66.67751736111111,0)" xlink:href="#Z"/><use transform="matrix(0.010850694444444444,0,0,0.010850694444444444,80.01302083333334,0)" xlink:href="#ag"/><use transform="matrix(0.010850694444444444,0,0,0.010850694444444444,93.34852430555557,0)" xlink:href="#T"/><use transform="matrix(0.010850694444444444,0,0,0.010850694444444444,106.6840277777778,0)" xlink:href="#am"/><use transform="matrix(0.010850694444444444,0,0,0.010850694444444444,120.01953125000003,0)" xlink:href="#Q"/></g><path fill="#fff" d="M708-584V0H520v-584L36-1349h205l374 611 372-611h205" id="ap"/><path fill="#fff" d="M617-1102c355 0 481 238 477 599H322c5 222 84 388 301 388 144 0 244-59 284-166l158 45C1002-72 854 20 623 20c-342 0-490-220-490-568 0-346 151-554 484-554zm291 461c-18-192-90-328-289-328-194 0-287 128-295 328h584" id="aq"/><path fill="#fff" d="M873-819c-18-114-119-146-250-146-163 0-245 50-245 151 0 151 170 148 294 185 182 54 388 94 388 320 0 240-189 325-439 329-245 4-410-69-454-268l159-31c24 133 136 168 295 165 144-2 270-31 270-171 0-164-195-160-331-202-167-52-350-87-350-299 0-218 173-315 413-313 220 2 373 77 412 260" id="ar"/><g id="p"><use transform="matrix(0.010850694444444444,0,0,0.010850694444444444,0,0)" xlink:href="#ap"/><use transform="matrix(0.010850694444444444,0,0,0.010850694444444444,13.335503472222221,0)" xlink:href="#aq"/><use transform="matrix(0.010850694444444444,0,0,0.010850694444444444,26.671006944444443,0)" xlink:href="#ar"/></g><path fill="#5f6572" d="M875 0v-623H353V0H162v-1349h191v566h522v-566h191V0H875" id="as"/><g id="q"><use transform="matrix(0.010850694444444444,0,0,0.010850694444444444,0,0)" xlink:href="#as"/><use transform="matrix(0.010850694444444444,0,0,0.010850694444444444,13.335503472222221,0)" xlink:href="#Z"/><use transform="matrix(0.010850694444444444,0,0,0.010850694444444444,26.671006944444443,0)" xlink:href="#R"/><use transform="matrix(0.010850694444444444,0,0,0.010850694444444444,40.006510416666664,0)" xlink:href="#af"/><use transform="matrix(0.010850694444444444,0,0,0.010850694444444444,53.342013888888886,0)" xlink:href="#ag"/><use transform="matrix(0.010850694444444444,0,0,0.010850694444444444,66.67751736111111,0)" xlink:href="#Q"/></g><path fill="#5f6572" d="M473-1349c438-1 655 221 652 661C1122-268 945-8 532 0H162v-1349h311zm42 1193c308-4 416-205 418-532 2-330-131-509-459-505H353v1037h162" id="at"/><path fill="#5f6572" d="M839-1335c-182-6-269 67-259 253h491v142H580V0H400v-940H138v-142h262c-15-293 132-408 418-402 94 2 200 7 281 21v145c-75-10-177-14-260-17" id="au"/><g id="r"><use transform="matrix(0.010850694444444444,0,0,0.010850694444444444,0,0)" xlink:href="#at"/><use transform="matrix(0.010850694444444444,0,0,0.010850694444444444,13.335503472222221,0)" xlink:href="#Q"/><use transform="matrix(0.010850694444444444,0,0,0.010850694444444444,26.671006944444443,0)" xlink:href="#au"/><use transform="matrix(0.010850694444444444,0,0,0.010850694444444444,40.006510416666664,0)" xlink:href="#T"/><use transform="matrix(0.010850694444444444,0,0,0.010850694444444444,53.342013888888886,0)" xlink:href="#R"/><use transform="matrix(0.010850694444444444,0,0,0.010850694444444444,66.67751736111111,0)" xlink:href="#Q"/><use transform="matrix(0.010850694444444444,0,0,0.010850694444444444,80.01302083333334,0)" xlink:href="#af"/></g><g id="s"><use transform="matrix(0.010850694444444444,0,0,0.010850694444444444,0,0)" xlink:href="#ae"/><use transform="matrix(0.010850694444444444,0,0,0.010850694444444444,13.335503472222221,0)" xlink:href="#U"/><use transform="matrix(0.010850694444444444,0,0,0.010850694444444444,26.671006944444443,0)" xlink:href="#ak"/><use transform="matrix(0.010850694444444444,0,0,0.010850694444444444,40.006510416666664,0)" xlink:href="#T"/><use transform="matrix(0.010850694444444444,0,0,0.010850694444444444,53.342013888888886,0)" xlink:href="#ab"/><use transform="matrix(0.010850694444444444,0,0,0.010850694444444444,66.67751736111111,0)" xlink:href="#R"/></g><path fill="#fff" d="M202-1349h823v156H709v1037h316V0H202v-156h316v-1037H202v-156" id="av"/><g id="t"><use transform="matrix(0.010850694444444444,0,0,0.010850694444444444,0,0)" xlink:href="#av"/><use transform="matrix(0.010850694444444444,0,0,0.010850694444444444,13.335503472222221,0)" xlink:href="#ar"/></g><path fill="#fff" d="M706-1102c241 0 344 136 343 381V0H868v-695c1-168-57-273-220-268-190 6-283 138-283 336V0H185c-3-360 6-732-6-1082h170c4 54 7 126 8 185h3c63-121 164-204 346-205" id="aw"/><path fill="#fff" d="M682 16c-209 0-323-80-324-285v-671H190v-142h170l58-282h120v282h432v142H538v652c2 114 60 155 182 155 106 0 209-16 297-34v137C921-4 806 16 682 16" id="ax"/><path fill="#fff" d="M839-1102c70 0 148 7 206 17v167c-112-18-268-36-363 15-129 69-208 203-208 395V0H294c-10-367 32-789-52-1082h171c21 75 41 161 48 250h5c67-152 152-270 373-270" id="ay"/><path fill="#fff" d="M1000-272c3 95 12 159 101 161 21 0 41-3 59-7V-6c-44 10-86 16-139 16-141 2-191-84-197-217h-6C748-76 648 20 446 20c-207 0-318-120-318-322 0-266 194-348 454-354l236-4c12-191-40-305-222-305-140 0-220 47-232 172l-188-17c33-204 181-292 423-292 255 0 401 118 401 364v466zm-683-27c0 109 63 184 175 182 166-3 259-96 306-217 24-65 20-120 20-200-232 7-501-28-501 235" id="az"/><path fill="#fff" d="M631 20c-350 0-501-215-501-562 0-355 162-560 502-560 250 0 399 118 446 323l-192 14c-23-124-109-196-262-196-242 0-305 171-305 415 1 245 61 427 304 427 151 0 248-77 267-215l190 12C1039-107 883 20 631 20" id="aA"/><path fill="#fff" d="M365-904c58-129 161-200 334-200 130 0 228 46 293 138s98 233 98 420c0 189-34 331-102 425S824 20 698 20c-170 0-275-64-336-184 0 55-3 116-9 164H179c5-68 6-147 6-223v-1261h180c-2 193 4 394-4 580h4zm283 791c221 0 256-197 256-427 0-229-34-425-254-425-236 0-285 195-285 441 0 237 53 411 283 411" id="aB"/><path fill="#fff" d="M736-142h380V0H134v-142h422v-1200H267v-142h469v1342" id="aC"/><g id="u"><use transform="matrix(0.010850694444444444,0,0,0.010850694444444444,0,0)" xlink:href="#av"/><use transform="matrix(0.010850694444444444,0,0,0.010850694444444444,13.335503472222221,0)" xlink:href="#aw"/><use transform="matrix(0.010850694444444444,0,0,0.010850694444444444,26.671006944444443,0)" xlink:href="#ax"/><use transform="matrix(0.010850694444444444,0,0,0.010850694444444444,40.006510416666664,0)" xlink:href="#aq"/><use transform="matrix(0.010850694444444444,0,0,0.010850694444444444,53.342013888888886,0)" xlink:href="#ay"/><use transform="matrix(0.010850694444444444,0,0,0.010850694444444444,66.67751736111111,0)" xlink:href="#az"/><use transform="matrix(0.010850694444444444,0,0,0.010850694444444444,80.01302083333334,0)" xlink:href="#aA"/><use transform="matrix(0.010850694444444444,0,0,0.010850694444444444,93.34852430555557,0)" xlink:href="#ax"/><use transform="matrix(0.010850694444444444,0,0,0.010850694444444444,106.6840277777778,0)" xlink:href="#az"/><use transform="matrix(0.010850694444444444,0,0,0.010850694444444444,120.01953125000003,0)" xlink:href="#aB"/><use transform="matrix(0.010850694444444444,0,0,0.010850694444444444,133.35503472222226,0)" xlink:href="#aC"/><use transform="matrix(0.010850694444444444,0,0,0.010850694444444444,146.69053819444449,0)" xlink:href="#aq"/></g><path fill="#fff" d="M912-211c-10-84-18-177-18-274v-864h172V0H836L316-1130c7 79 16 167 16 254V0H162v-1349h222" id="aD"/><path fill="#fff" d="M615-1102c343 0 484 203 482 560-1 347-147 562-488 562-336 0-475-219-479-562-4-349 156-560 485-560zm-8 989c240 0 301-180 301-429 0-245-55-427-290-427-236 0-299 181-299 427 0 243 61 429 288 429" id="aE"/><g id="v"><use transform="matrix(0.010850694444444444,0,0,0.010850694444444444,0,0)" xlink:href="#aD"/><use transform="matrix(0.010850694444444444,0,0,0.010850694444444444,13.335503472222221,0)" xlink:href="#aE"/></g><path fill="#fff" d="M162 0v-1349h919v156H353v422h668v154H353v461h769V0H162" id="aF"/><path fill="#fff" d="M715 0H502L69-1082h202c94 253 197 500 285 758 19 57 36 126 52 183 96-335 234-626 350-941h201" id="aG"/><path fill="#fff" d="M745-142h380V0H143v-142h422v-798H246v-142h499v940zM545-1292v-192h200v192H545" id="aH"/><path fill="#fff" d="M904-1102c199 0 220 177 220 381V0H956v-686c-3-114 0-215-60-264-70-33-125-4-158 71-26 56-39 140-39 252V0H531v-686c-3-114-1-215-61-264-78-41-136 24-157 84-24 69-39 159-39 259V0H105c-3-360 6-732-6-1082h149c6 50 3 123 8 175 36-100 83-195 216-195 135 0 166 79 196 196 42-105 93-196 236-196" id="aI"/><g id="w"><use transform="matrix(0.010850694444444444,0,0,0.010850694444444444,0,0)" xlink:href="#aF"/><use transform="matrix(0.010850694444444444,0,0,0.010850694444444444,13.335503472222221,0)" xlink:href="#aw"/><use transform="matrix(0.010850694444444444,0,0,0.010850694444444444,26.671006944444443,0)" xlink:href="#aG"/><use transform="matrix(0.010850694444444444,0,0,0.010850694444444444,40.006510416666664,0)" xlink:href="#aH"/><use transform="matrix(0.010850694444444444,0,0,0.010850694444444444,53.342013888888886,0)" xlink:href="#ay"/><use transform="matrix(0.010850694444444444,0,0,0.010850694444444444,66.67751736111111,0)" xlink:href="#aE"/><use transform="matrix(0.010850694444444444,0,0,0.010850694444444444,80.01302083333334,0)" xlink:href="#aw"/><use transform="matrix(0.010850694444444444,0,0,0.010850694444444444,93.34852430555557,0)" xlink:href="#aI"/><use transform="matrix(0.010850694444444444,0,0,0.010850694444444444,106.6840277777778,0)" xlink:href="#aq"/><use transform="matrix(0.010850694444444444,0,0,0.010850694444444444,120.01953125000003,0)" xlink:href="#aw"/><use transform="matrix(0.010850694444444444,0,0,0.010850694444444444,133.35503472222226,0)" xlink:href="#ax"/></g><path fill="#fff" d="M1048-32c-2 300-135 456-433 456-222-1-358-88-400-267l184-25c22 99 100 157 222 156 184-2 248-125 248-315 0-64 3-133-2-194C807-100 706-13 524-12c-306 0-381-228-381-537 0-318 85-550 400-550 164 0 271 83 325 202h3c1-60 3-134 12-185h171c-13 339-4 702-6 1050zM585-145c210-8 284-178 284-406 0-192-52-331-177-392-33-16-69-22-104-22-223 2-259 184-259 414 0 229 31 415 256 406" id="aJ"/><g id="x"><use transform="matrix(0.010850694444444444,0,0,0.010850694444444444,0,0)" xlink:href="#aD"/><use transform="matrix(0.010850694444444444,0,0,0.010850694444444444,13.335503472222221,0)" xlink:href="#az"/><use transform="matrix(0.010850694444444444,0,0,0.010850694444444444,26.671006944444443,0)" xlink:href="#aG"/><use transform="matrix(0.010850694444444444,0,0,0.010850694444444444,40.006510416666664,0)" xlink:href="#aH"/><use transform="matrix(0.010850694444444444,0,0,0.010850694444444444,53.342013888888886,0)" xlink:href="#aJ"/><use transform="matrix(0.010850694444444444,0,0,0.010850694444444444,66.67751736111111,0)" xlink:href="#az"/><use transform="matrix(0.010850694444444444,0,0,0.010850694444444444,80.01302083333334,0)" xlink:href="#ax"/><use transform="matrix(0.010850694444444444,0,0,0.010850694444444444,93.34852430555557,0)" xlink:href="#aH"/><use transform="matrix(0.010850694444444444,0,0,0.010850694444444444,106.6840277777778,0)" xlink:href="#aE"/><use transform="matrix(0.010850694444444444,0,0,0.010850694444444444,120.01953125000003,0)" xlink:href="#aw"/></g><path fill="#fff" d="M285-1169c8 382 2 780 4 1169H129v-1349h237c86 239 188 461 253 720 69-258 169-481 255-720h225V0H937c2-390-5-788 6-1169-75 255-170 488-259 729H547c-90-240-185-475-262-729" id="aK"/><path fill="#fff" d="M528 20c-247 0-343-132-343-381v-721h180v686c-4 177 45 284 224 277 194-8 279-136 279-336v-627h181c3 360-6 732 6 1082H885c-4-54-7-126-8-185h-3C809-64 714 20 528 20" id="aL"/><g id="y"><use transform="matrix(0.010850694444444444,0,0,0.010850694444444444,0,0)" xlink:href="#aK"/><use transform="matrix(0.010850694444444444,0,0,0.010850694444444444,13.335503472222221,0)" xlink:href="#aq"/><use transform="matrix(0.010850694444444444,0,0,0.010850694444444444,26.671006944444443,0)" xlink:href="#aw"/><use transform="matrix(0.010850694444444444,0,0,0.010850694444444444,40.006510416666664,0)" xlink:href="#aL"/></g><path fill="#5f6572" d="M1048-32c-2 300-135 456-433 456-222-1-358-88-400-267l184-25c22 99 100 157 222 156 184-2 248-125 248-315 0-64 3-133-2-194C807-100 706-13 524-12c-306 0-381-228-381-537 0-318 85-550 400-550 164 0 271 83 325 202h3c1-60 3-134 12-185h171c-13 339-4 702-6 1050zM585-145c210-8 284-178 284-406 0-192-52-331-177-392-33-16-69-22-104-22-223 2-259 184-259 414 0 229 31 415 256 406" id="aM"/><g id="z"><use transform="matrix(0.010850694444444444,0,0,0.010850694444444444,0,0)" xlink:href="#ah"/><use transform="matrix(0.010850694444444444,0,0,0.010850694444444444,13.335503472222221,0)" xlink:href="#Y"/><use transform="matrix(0.010850694444444444,0,0,0.010850694444444444,26.671006944444443,0)" xlink:href="#Z"/><use transform="matrix(0.010850694444444444,0,0,0.010850694444444444,40.006510416666664,0)" xlink:href="#R"/><use transform="matrix(0.010850694444444444,0,0,0.010850694444444444,53.342013888888886,0)" xlink:href="#aM"/><use transform="matrix(0.010850694444444444,0,0,0.010850694444444444,66.67751736111111,0)" xlink:href="#Q"/></g><g id="A"><use transform="matrix(0.010850694444444444,0,0,0.010850694444444444,0,0)" xlink:href="#ah"/><use transform="matrix(0.010850694444444444,0,0,0.010850694444444444,13.335503472222221,0)" xlink:href="#W"/><use transform="matrix(0.010850694444444444,0,0,0.010850694444444444,26.671006944444443,0)" xlink:href="#S"/><use transform="matrix(0.010850694444444444,0,0,0.010850694444444444,40.006510416666664,0)" xlink:href="#S"/><use transform="matrix(0.010850694444444444,0,0,0.010850694444444444,53.342013888888886,0)" xlink:href="#Q"/><use transform="matrix(0.010850694444444444,0,0,0.010850694444444444,66.67751736111111,0)" xlink:href="#R"/><use transform="matrix(0.010850694444444444,0,0,0.010850694444444444,80.01302083333334,0)" xlink:href="#ak"/></g><path fill="#5f6572" d="M162 0v-1349h919v156H353v422h668v154H353v461h769V0H162" id="aN"/><g id="B"><use transform="matrix(0.010850694444444444,0,0,0.010850694444444444,0,0)" xlink:href="#aN"/><use transform="matrix(0.010850694444444444,0,0,0.010850694444444444,13.335503472222221,0)" xlink:href="#R"/><use transform="matrix(0.010850694444444444,0,0,0.010850694444444444,26.671006944444443,0)" xlink:href="#aa"/><use transform="matrix(0.010850694444444444,0,0,0.010850694444444444,40.006510416666664,0)" xlink:href="#T"/><use transform="matrix(0.010850694444444444,0,0,0.010850694444444444,53.342013888888886,0)" xlink:href="#S"/><use transform="matrix(0.010850694444444444,0,0,0.010850694444444444,66.67751736111111,0)" xlink:href="#ab"/><use transform="matrix(0.010850694444444444,0,0,0.010850694444444444,80.01302083333334,0)" xlink:href="#R"/><use transform="matrix(0.010850694444444444,0,0,0.010850694444444444,93.34852430555557,0)" xlink:href="#ai"/><use transform="matrix(0.010850694444444444,0,0,0.010850694444444444,106.6840277777778,0)" xlink:href="#Q"/><use transform="matrix(0.010850694444444444,0,0,0.010850694444444444,120.01953125000003,0)" xlink:href="#R"/><use transform="matrix(0.010850694444444444,0,0,0.010850694444444444,133.35503472222226,0)" xlink:href="#ak"/></g><g id="C"><use transform="matrix(0.010850694444444444,0,0,0.010850694444444444,0,0)" xlink:href="#ae"/><use transform="matrix(0.010850694444444444,0,0,0.010850694444444444,13.335503472222221,0)" xlink:href="#ao"/><use transform="matrix(0.010850694444444444,0,0,0.010850694444444444,26.671006944444443,0)" xlink:href="#Z"/><use transform="matrix(0.010850694444444444,0,0,0.010850694444444444,40.006510416666664,0)" xlink:href="#T"/><use transform="matrix(0.010850694444444444,0,0,0.010850694444444444,53.342013888888886,0)" xlink:href="#ak"/></g><g id="D"><use transform="matrix(0.010850694444444444,0,0,0.010850694444444444,0,0)" xlink:href="#ac"/><use transform="matrix(0.010850694444444444,0,0,0.010850694444444444,13.335503472222221,0)" xlink:href="#ad"/><use transform="matrix(0.010850694444444444,0,0,0.010850694444444444,26.671006944444443,0)" xlink:href="#Q"/><use transform="matrix(0.010850694444444444,0,0,0.010850694444444444,40.006510416666664,0)" xlink:href="#S"/></g><g id="E"><use transform="matrix(0.010850694444444444,0,0,0.010850694444444444,0,0)" xlink:href="#al"/><use transform="matrix(0.010850694444444444,0,0,0.010850694444444444,13.335503472222221,0)" xlink:href="#R"/><use transform="matrix(0.010850694444444444,0,0,0.010850694444444444,26.671006944444443,0)" xlink:href="#ak"/><use transform="matrix(0.010850694444444444,0,0,0.010850694444444444,40.006510416666664,0)" xlink:href="#Q"/><use transform="matrix(0.010850694444444444,0,0,0.010850694444444444,53.342013888888886,0)" xlink:href="#S"/><use transform="matrix(0.010850694444444444,0,0,0.010850694444444444,66.67751736111111,0)" xlink:href="#Z"/><use transform="matrix(0.010850694444444444,0,0,0.010850694444444444,80.01302083333334,0)" xlink:href="#U"/><use transform="matrix(0.010850694444444444,0,0,0.010850694444444444,93.34852430555557,0)" xlink:href="#ak"/><use transform="matrix(0.010850694444444444,0,0,0.010850694444444444,106.6840277777778,0)" xlink:href="#T"/><use transform="matrix(0.010850694444444444,0,0,0.010850694444444444,120.01953125000003,0)" xlink:href="#ab"/><use transform="matrix(0.010850694444444444,0,0,0.010850694444444444,133.35503472222226,0)" xlink:href="#R"/></g><g id="F"><use transform="matrix(0.010850694444444444,0,0,0.010850694444444444,0,0)" xlink:href="#aN"/><use transform="matrix(0.010850694444444444,0,0,0.010850694444444444,13.335503472222221,0)" xlink:href="#R"/><use transform="matrix(0.010850694444444444,0,0,0.010850694444444444,26.671006944444443,0)" xlink:href="#ak"/><use transform="matrix(0.010850694444444444,0,0,0.010850694444444444,40.006510416666664,0)" xlink:href="#Q"/><use transform="matrix(0.010850694444444444,0,0,0.010850694444444444,53.342013888888886,0)" xlink:href="#S"/></g><g id="G"><use transform="matrix(0.010850694444444444,0,0,0.010850694444444444,0,0)" xlink:href="#an"/><use transform="matrix(0.010850694444444444,0,0,0.010850694444444444,13.335503472222221,0)" xlink:href="#Q"/><use transform="matrix(0.010850694444444444,0,0,0.010850694444444444,26.671006944444443,0)" xlink:href="#ak"/></g><g id="H"><use transform="matrix(0.010850694444444444,0,0,0.010850694444444444,0,0)" xlink:href="#at"/><use transform="matrix(0.010850694444444444,0,0,0.010850694444444444,13.335503472222221,0)" xlink:href="#Q"/><use transform="matrix(0.010850694444444444,0,0,0.010850694444444444,26.671006944444443,0)" xlink:href="#au"/><use transform="matrix(0.010850694444444444,0,0,0.010850694444444444,40.006510416666664,0)" xlink:href="#Z"/><use transform="matrix(0.010850694444444444,0,0,0.010850694444444444,53.342013888888886,0)" xlink:href="#W"/><use transform="matrix(0.010850694444444444,0,0,0.010850694444444444,66.67751736111111,0)" xlink:href="#ag"/><use transform="matrix(0.010850694444444444,0,0,0.010850694444444444,80.01302083333334,0)" xlink:href="#ak"/></g><g id="I"><use transform="matrix(0.010850694444444444,0,0,0.010850694444444444,0,0)" xlink:href="#aD"/><use transform="matrix(0.010850694444444444,0,0,0.010850694444444444,13.335503472222221,0)" xlink:href="#az"/><use transform="matrix(0.010850694444444444,0,0,0.010850694444444444,26.671006944444443,0)" xlink:href="#aG"/><use transform="matrix(0.010850694444444444,0,0,0.010850694444444444,40.006510416666664,0)" xlink:href="#aH"/><use transform="matrix(0.010850694444444444,0,0,0.010850694444444444,53.342013888888886,0)" xlink:href="#aJ"/><use transform="matrix(0.010850694444444444,0,0,0.010850694444444444,66.67751736111111,0)" xlink:href="#az"/><use transform="matrix(0.010850694444444444,0,0,0.010850694444444444,80.01302083333334,0)" xlink:href="#ax"/><use transform="matrix(0.010850694444444444,0,0,0.010850694444444444,93.34852430555557,0)" xlink:href="#aH"/><use transform="matrix(0.010850694444444444,0,0,0.010850694444444444,106.6840277777778,0)" xlink:href="#aE"/><use transform="matrix(0.010850694444444444,0,0,0.010850694444444444,120.01953125000003,0)" xlink:href="#aw"/></g><path fill="#fff" d="M1034 0L896-382H333L196 0H0l510-1349h217L1228 0h-194zM847-531c-77-225-157-447-231-674-69 231-154 451-232 674h463" id="aO"/><g id="J"><use transform="matrix(0.010850694444444444,0,0,0.010850694444444444,0,0)" xlink:href="#aO"/><use transform="matrix(0.010850694444444444,0,0,0.010850694444444444,13.335503472222221,0)" xlink:href="#aA"/><use transform="matrix(0.010850694444444444,0,0,0.010850694444444444,26.671006944444443,0)" xlink:href="#ax"/><use transform="matrix(0.010850694444444444,0,0,0.010850694444444444,40.006510416666664,0)" xlink:href="#aH"/><use transform="matrix(0.010850694444444444,0,0,0.010850694444444444,53.342013888888886,0)" xlink:href="#aE"/><use transform="matrix(0.010850694444444444,0,0,0.010850694444444444,66.67751736111111,0)" xlink:href="#aw"/></g><path fill="#fff" d="M410 425v-1909h547v139H590V286h367v139H410" id="aP"/><use transform="matrix(0.010850694444444444,0,0,0.010850694444444444,0,0)" xlink:href="#aP" id="K"/><g id="L"><use transform="matrix(0.010850694444444444,0,0,0.010850694444444444,0,0)" xlink:href="#av"/><use transform="matrix(0.010850694444444444,0,0,0.010850694444444444,13.335503472222221,0)" xlink:href="#ar"/></g><g id="M"><use transform="matrix(0.010850694444444444,0,0,0.010850694444444444,0,0)" xlink:href="#aK"/><use transform="matrix(0.010850694444444444,0,0,0.010850694444444444,13.335503472222221,0)" xlink:href="#aq"/><use transform="matrix(0.010850694444444444,0,0,0.010850694444444444,26.671006944444443,0)" xlink:href="#aw"/><use transform="matrix(0.010850694444444444,0,0,0.010850694444444444,40.006510416666664,0)" xlink:href="#aL"/></g><g id="N"><use transform="matrix(0.010850694444444444,0,0,0.010850694444444444,0,0)" xlink:href="#aF"/><use transform="matrix(0.010850694444444444,0,0,0.010850694444444444,13.335503472222221,0)" xlink:href="#aw"/><use transform="matrix(0.010850694444444444,0,0,0.010850694444444444,26.671006944444443,0)" xlink:href="#aG"/><use transform="matrix(0.010850694444444444,0,0,0.010850694444444444,40.006510416666664,0)" xlink:href="#aH"/><use transform="matrix(0.010850694444444444,0,0,0.010850694444444444,53.342013888888886,0)" xlink:href="#ay"/><use transform="matrix(0.010850694444444444,0,0,0.010850694444444444,66.67751736111111,0)" xlink:href="#aE"/><use transform="matrix(0.010850694444444444,0,0,0.010850694444444444,80.01302083333334,0)" xlink:href="#aw"/><use transform="matrix(0.010850694444444444,0,0,0.010850694444444444,93.34852430555557,0)" xlink:href="#aI"/><use transform="matrix(0.010850694444444444,0,0,0.010850694444444444,106.6840277777778,0)" xlink:href="#aq"/><use transform="matrix(0.010850694444444444,0,0,0.010850694444444444,120.01953125000003,0)" xlink:href="#aw"/><use transform="matrix(0.010850694444444444,0,0,0.010850694444444444,133.35503472222226,0)" xlink:href="#ax"/></g><path fill="#fff" d="M270 425V286h367v-1631H270v-139h547V425H270" id="aQ"/><use transform="matrix(0.010850694444444444,0,0,0.010850694444444444,0,0)" xlink:href="#aQ" id="O"/></defs></g></svg>