<svg xmlns="http://www.w3.org/2000/svg" xmlns:xlink="http://www.w3.org/1999/xlink" xmlns:lucid="lucid" width="960" height="1330"><g transform="translate(0 0)" lucid:page-tab-id="g6E4lsBZH88-"><path d="M0 0h960.3v1329.98H0z" fill="#21252c"/><path d="M20 60V26a6 6 0 0 1 6-6h908a6 6 0 0 1 6 6v34zM20 100V60h580v40M600 100V60h340v40" stroke="#a9a9a9" stroke-width="2" fill="#f5fbff"/><path d="M600 1300H26a6 6 0 0 1-6-6V100h580zM940 100v1194a6 6 0 0 1-6 6H600V100z" stroke="#a9a9a9" stroke-width="2" fill="none"/><use xlink:href="#a" transform="matrix(1,0,0,1,20,20) translate(213.29318576388886 26.776258680555557)"/><use xlink:href="#b" transform="matrix(1,0,0,1,20,20) translate(279.970703125 26.776258680555557)"/><use xlink:href="#c" transform="matrix(1,0,0,1,20,20) translate(306.6417100694444 26.776258680555557)"/><use xlink:href="#d" transform="matrix(1,0,0,1,20,20) translate(373.31922743055554 26.776258680555557)"/><use xlink:href="#e" transform="matrix(1,0,0,1,20,20) translate(480.0032552083333 26.776258680555557)"/><use xlink:href="#b" transform="matrix(1,0,0,1,20,20) translate(586.6872829861111 26.776258680555557)"/><use xlink:href="#f" transform="matrix(1,0,0,1,20,20) translate(613.3582899305557 26.776258680555557)"/><use xlink:href="#g" transform="matrix(1,0,0,1,20,60) translate(229.990234375 26.776258680555557)"/><use xlink:href="#h" transform="matrix(1,0,0,1,600,60) translate(23.309461805555543 26.776258680555557)"/><use xlink:href="#b" transform="matrix(1,0,0,1,600,60) translate(196.67100694444449 26.776258680555557)"/><use xlink:href="#i" transform="matrix(1,0,0,1,600,60) translate(223.3420138888889 26.776258680555557)"/><path d="M326 257.12c-8.84 0-16 7.17-16 16v48c0 8.84 7.16 16 16 16h128c8.84 0 16-7.16 16-16v-48c0-8.83-7.16-16-16-16z" stroke="#a9a9a9" stroke-width="2" fill="#f5fbff"/><use xlink:href="#j" transform="matrix(1,0,0,1,318,265.1215114494935) translate(5.322482638888886 38.77625868055556)"/><use xlink:href="#k" transform="matrix(1,0,0,1,318,265.1215114494935) translate(85.33550347222223 38.77625868055556)"/><path d="M410 157.12c0 11.05-8.95 20-20 20s-20-8.95-20-20c0-11.04 8.95-20 20-20s20 8.96 20 20z" stroke="#a9a9a9" stroke-width="2"/><path d="M390 179.62v55.88" stroke="#bdf139" stroke-width="3" fill="none"/><path d="M389.95 178.12l1.53-.05v1.6h-2.96v-1.72z" stroke="#bdf139" stroke-width=".05" fill="#bdf139"/><path d="M390 251.27L385.37 237h9.26z" stroke="#bdf139" stroke-width="3" fill="#bdf139"/><path d="M390 459.62V520.86" stroke="#bdf139" stroke-width="3" fill="none"/><path d="M391.48 459.66h-2.96v-1.54h2.96z" stroke="#bdf139" stroke-width=".05" fill="#bdf139"/><path d="M390 536.63l-4.63-14.27h9.26z" stroke="#bdf139" stroke-width="3" fill="#bdf139"/><path d="M390 339.62v75.88" stroke="#bdf139" stroke-width="3" fill="none"/><path d="M391.48 339.66h-2.96v-1.54h2.96z" stroke="#bdf139" stroke-width=".05" fill="#bdf139"/><path d="M390 431.27L385.37 417h9.26z" stroke="#bdf139" stroke-width="3" fill="#bdf139"/><path d="M410.02 874.4h248.36" stroke="#bdf139" stroke-width="3" fill="none"/><path d="M410.06 875.87h-1.72l.1-.38.08-1.1-.1-1.1-.08-.38h1.72z" stroke="#bdf139" stroke-width=".05" fill="#bdf139"/><path d="M674.15 874.4l-14.27 4.63v-9.27z" stroke="#bdf139" stroke-width="3" fill="#bdf139"/><use xlink:href="#l" transform="matrix(1,0,0,1,502.1566041729232,846.965793446977) translate(0 18.489583333333332)"/><path d="M390 775.9v59.36" stroke="#bdf139" stroke-width="3" fill="none"/><path d="M391.48 775.93h-2.96v-1.54h2.96z" stroke="#bdf139" stroke-width=".05" fill="#bdf139"/><path d="M390 851.02l-4.63-14.26h9.26z" stroke="#bdf139" stroke-width="3" fill="#bdf139"/><path d="M390 580.02v91.75" stroke="#bdf139" stroke-width="3" fill="none"/><path d="M388.9 578.43l1.1.1 1.1-.1.38-.1v1.73h-2.96v-1.72z" stroke="#bdf139" stroke-width=".05" fill="#bdf139"/><path d="M390 687.54l-4.63-14.27h9.26z" stroke="#bdf139" stroke-width="3" fill="#bdf139"/><use xlink:href="#l" transform="matrix(1,0,0,1,398,623.7417868515208) translate(0 18.489583333333332)"/><path d="M698 829.4c-9.94 0-18 8.05-18 18v54c0 9.93 8.06 18 18 18h144c9.94 0 18-8.07 18-18v-54c0-9.95-8.06-18-18-18z" stroke="#a9a9a9" stroke-width="2" fill="#f5fbff"/><use xlink:href="#m" transform="matrix(1,0,0,1,688,837.3924427525326) translate(55.32899305555556 43.77625868055556)"/><path d="M385.76 858.63a6 6 0 0 1 8.48 0l11.52 11.52a6 6 0 0 1 0 8.5l-11.52 11.5a6 6 0 0 1-8.48 0l-11.52-11.5a6 6 0 0 1 0-8.5z" stroke="#a9a9a9" stroke-width="2" fill="#f5fbff"/><path d="M268 443.12a6 6 0 0 1 6-6h148a6 6 0 0 1 6 6v8a6 6 0 0 1-6 6H274a6 6 0 0 1-6-6z" stroke="#a9a9a9" stroke-width="2"/><path d="M390 894.4v119.37" stroke="#bdf139" stroke-width="3" fill="none"/><path d="M388.9 892.82l1.1.1 1.1-.1.38-.1v1.73h-2.96v-1.72z" stroke="#bdf139" stroke-width=".05" fill="#bdf139"/><path d="M390 1029.54l-4.63-14.27h9.26z" stroke="#bdf139" stroke-width="3" fill="#bdf139"/><use xlink:href="#n" transform="matrix(1,0,0,1,355.32899305555554,941.3662794421074) translate(0 18.489583333333332)"/><path d="M390 1055.9v36.87" stroke="#bdf139" stroke-width="3" fill="none"/><path d="M391.48 1055.93h-2.96v-.54h2.96z" stroke="#bdf139" stroke-width=".05" fill="#bdf139"/><path d="M390 1108.54l-4.63-14.27h9.26z" stroke="#bdf139" stroke-width="3" fill="#bdf139"/><path d="M326 693.4c-8.84 0-16 7.16-16 16v48c0 8.83 7.16 16 16 16h128c8.84 0 16-7.17 16-16v-48c0-8.84-7.16-16-16-16z" stroke="#a9a9a9" stroke-width="2" fill="#f5fbff"/><use xlink:href="#o" transform="matrix(1,0,0,1,318,701.3924427525326) translate(25.325737847222214 27.06293402777778)"/><use xlink:href="#p" transform="matrix(1,0,0,1,318,701.3924427525326) translate(45.32899305555556 50.48958333333333)"/><path d="M130 852.06a6 6 0 0 1 6-6h228a6 6 0 0 1 6 6v44.67a6 6 0 0 1-6 6H136a6 6 0 0 1-6-6z" stroke="#000" stroke-opacity="0" stroke-width="2" fill="#fff" fill-opacity="0"/><use xlink:href="#q" transform="matrix(1,0,0,1,135,851.0591094191992) translate(14.983723958333314 30.239583333333332)"/><use xlink:href="#r" transform="matrix(1,0,0,1,135,851.0591094191992) translate(41.65473090277776 30.239583333333332)"/><use xlink:href="#s" transform="matrix(1,0,0,1,135,851.0591094191992) translate(135.00325520833331 30.239583333333332)"/><use xlink:href="#t" transform="matrix(1,0,0,1,135,851.0591094191992) translate(201.68077256944446 30.239583333333332)"/><path d="M770 921.9v26.5a6 6 0 0 1-6 6H476a6 6 0 0 0-6 6v53.37" stroke="#bdf139" stroke-width="3" fill="none"/><path d="M771.48 921.93h-2.96v-1.54h2.96z" stroke="#bdf139" stroke-width=".05" fill="#bdf139"/><path d="M470 1029.54l-4.63-14.27h9.26z" stroke="#bdf139" stroke-width="3" fill="#bdf139"/><path d="M316 1114.4c-8.84 0-16 7.16-16 16v48c0 8.83 7.16 16 16 16h148c8.84 0 16-7.17 16-16v-48c0-8.84-7.16-16-16-16z" stroke="#a9a9a9" stroke-width="2" fill="#f5fbff"/><use xlink:href="#u" transform="matrix(1,0,0,1,308,1122.3924427525326) translate(41.99348958333333 27.06293402777778)"/><use xlink:href="#v" transform="matrix(1,0,0,1,308,1122.3924427525326) translate(1.9869791666666572 50.48958333333333)"/><use xlink:href="#w" transform="matrix(1,0,0,1,308,1122.3924427525326) translate(68.66449652777777 50.48958333333333)"/><path d="M350 1040.4a6 6 0 0 1 6-6h148a6 6 0 0 1 6 6v8a6 6 0 0 1-6 6H356a6 6 0 0 1-6-6z" stroke="#a9a9a9" stroke-width="2"/><path d="M390 1196.9v51.5a6 6 0 0 1-6 6H106a6 6 0 0 1-6-6V386a6 6 0 0 1 6-6h196a6 6 0 0 1 6 6v30.5" stroke="#bdf139" stroke-width="3" fill="none"/><path d="M391.48 1196.93h-2.96v-1.54h2.96z" stroke="#bdf139" stroke-width=".05" fill="#bdf139"/><path d="M308 432.27L303.37 418h9.26z" stroke="#bdf139" stroke-width="3" fill="#bdf139"/><path d="M580 560c0 11.05-8.95 20-20 20s-20-8.95-20-20 8.95-20 20-20 20 8.95 20 20z" stroke="#a9a9a9" stroke-width="2" fill="#f5fbff"/><path d="M545.86 545.86l28.28 28.28m0-28.28l-28.28 28.28" stroke="#a9a9a9" stroke-width="2" fill="none"/><path d="M385.76 544.24a6 6 0 0 1 8.48 0l11.52 11.52a6 6 0 0 1 0 8.48l-11.52 11.52a6 6 0 0 1-8.48 0l-11.52-11.52a6 6 0 0 1 0-8.48z" stroke="#a9a9a9" stroke-width="2" fill="#f5fbff"/><path d="M410.02 560h108.36" stroke="#bdf139" stroke-width="3" fill="none"/><path d="M410.06 561.48h-1.72l.1-.38.08-1.1-.1-1.1-.08-.38h1.72z" stroke="#bdf139" stroke-width=".05" fill="#bdf139"/><path d="M534.14 560l-14.26 4.63v-9.26z" stroke="#bdf139" stroke-width="3" fill="#bdf139"/><g><use xlink:href="#n" transform="matrix(1,0,0,1,460.42307480189874,532.5733506944443) translate(0 18.489583333333332)"/></g><path d="M160 537.67a6 6 0 0 1 6-6h198a6 6 0 0 1 6 6v44.66a6 6 0 0 1-6 6H166a6 6 0 0 1-6-6z" stroke="#000" stroke-opacity="0" stroke-width="2" fill="#fff" fill-opacity="0"/><g><use xlink:href="#q" transform="matrix(1,0,0,1,165,536.6666666666667) translate(6.651475694444429 30.239583333333332)"/><use xlink:href="#x" transform="matrix(1,0,0,1,165,536.6666666666667) translate(33.32248263888887 30.239583333333332)"/><use xlink:href="#y" transform="matrix(1,0,0,1,165,536.6666666666667) translate(73.32899305555554 30.239583333333332)"/><use xlink:href="#t" transform="matrix(1,0,0,1,165,536.6666666666667) translate(180.01302083333334 30.239583333333332)"/></g><defs><path fill="#5f6572" d="M655-135c108 0 195-33 260-74v-336H622v-160h479v572C981-54 839 20 639 20c-388 0-526-306-526-701 0-406 129-689 529-689 261 0 392 137 461 331l-171 56c-47-131-122-231-288-231-281 0-330 245-330 533 0 179 28 314 84 407s142 139 257 139" id="z"/><path fill="#5f6572" d="M1000-272c3 95 12 159 101 161 21 0 41-3 59-7V-6c-44 10-86 16-139 16-141 2-191-84-197-217h-6C748-76 648 20 446 20c-207 0-318-120-318-322 0-266 194-348 454-354l236-4c12-191-40-305-222-305-140 0-220 47-232 172l-188-17c33-204 181-292 423-292 255 0 401 118 401 364v466zm-683-27c0 109 63 184 175 182 166-3 259-96 306-217 24-65 20-120 20-200-232 7-501-28-501 235" id="A"/><path fill="#5f6572" d="M904-1102c199 0 220 177 220 381V0H956v-686c-3-114 0-215-60-264-70-33-125-4-158 71-26 56-39 140-39 252V0H531v-686c-3-114-1-215-61-264-78-41-136 24-157 84-24 69-39 159-39 259V0H105c-3-360 6-732-6-1082h149c6 50 3 123 8 175 36-100 83-195 216-195 135 0 166 79 196 196 42-105 93-196 236-196" id="B"/><path fill="#5f6572" d="M617-1102c355 0 481 238 477 599H322c5 222 84 388 301 388 144 0 244-59 284-166l158 45C1002-72 854 20 623 20c-342 0-490-220-490-568 0-346 151-554 484-554zm291 461c-18-192-90-328-289-328-194 0-287 128-295 328h584" id="C"/><g id="a"><use transform="matrix(0.010850694444444444,0,0,0.010850694444444444,0,0)" xlink:href="#z"/><use transform="matrix(0.010850694444444444,0,0,0.010850694444444444,13.335503472222221,0)" xlink:href="#A"/><use transform="matrix(0.010850694444444444,0,0,0.010850694444444444,26.671006944444443,0)" xlink:href="#B"/><use transform="matrix(0.010850694444444444,0,0,0.010850694444444444,40.006510416666664,0)" xlink:href="#C"/></g><path fill="#5f6572" d="M114 20l821-1504h178L296 20H114" id="D"/><use transform="matrix(0.010850694444444444,0,0,0.010850694444444444,0,0)" xlink:href="#D" id="b"/><path fill="#5f6572" d="M285-1169c8 382 2 780 4 1169H129v-1349h237c86 239 188 461 253 720 69-258 169-481 255-720h225V0H937c2-390-5-788 6-1169-75 255-170 488-259 729H547c-90-240-185-475-262-729" id="E"/><path fill="#5f6572" d="M706-1102c241 0 344 136 343 381V0H868v-695c1-168-57-273-220-268-190 6-283 138-283 336V0H185c-3-360 6-732-6-1082h170c4 54 7 126 8 185h3c63-121 164-204 346-205" id="F"/><path fill="#5f6572" d="M528 20c-247 0-343-132-343-381v-721h180v686c-4 177 45 284 224 277 194-8 279-136 279-336v-627h181c3 360-6 732 6 1082H885c-4-54-7-126-8-185h-3C809-64 714 20 528 20" id="G"/><g id="c"><use transform="matrix(0.010850694444444444,0,0,0.010850694444444444,0,0)" xlink:href="#E"/><use transform="matrix(0.010850694444444444,0,0,0.010850694444444444,13.335503472222221,0)" xlink:href="#C"/><use transform="matrix(0.010850694444444444,0,0,0.010850694444444444,26.671006944444443,0)" xlink:href="#F"/><use transform="matrix(0.010850694444444444,0,0,0.010850694444444444,40.006510416666664,0)" xlink:href="#G"/></g><path fill="#5f6572" d="M709-1193V0H519v-1193H76v-156h1076v156H709" id="H"/><path fill="#5f6572" d="M648-963c-190 6-283 138-283 336V0H185v-1484h181c-2 197 6 404-9 587h3c62-120 159-205 339-205 242 0 351 135 350 381V0H868v-695c1-168-57-273-220-268" id="I"/><path fill="#5f6572" d="M839-1102c70 0 148 7 206 17v167c-112-18-268-36-363 15-129 69-208 203-208 395V0H294c-10-367 32-789-52-1082h171c21 75 41 161 48 250h5c67-152 152-270 373-270" id="J"/><path fill="#5f6572" d="M865-914c-3-187-2-380-2-570h180v1261c0 76 1 155 6 223H877c-8-49-9-116-10-174h-5C801-44 708 26 530 26c-135 0-234-46-297-139s-95-232-95-419c0-377 131-566 392-566 176 0 271 63 335 184zm-286-51c-222 0-255 197-255 427 0 229 31 425 253 425 237 0 286-195 286-441 0-238-52-411-284-411" id="K"/><path fill="#5f6572" d="M873-819c-18-114-119-146-250-146-163 0-245 50-245 151 0 151 170 148 294 185 182 54 388 94 388 320 0 240-189 325-439 329-245 4-410-69-454-268l159-31c24 133 136 168 295 165 144-2 270-31 270-171 0-164-195-160-331-202-167-52-350-87-350-299 0-218 173-315 413-313 220 2 373 77 412 260" id="L"/><g id="d"><use transform="matrix(0.010850694444444444,0,0,0.010850694444444444,0,0)" xlink:href="#H"/><use transform="matrix(0.010850694444444444,0,0,0.010850694444444444,13.335503472222221,0)" xlink:href="#I"/><use transform="matrix(0.010850694444444444,0,0,0.010850694444444444,26.671006944444443,0)" xlink:href="#J"/><use transform="matrix(0.010850694444444444,0,0,0.010850694444444444,40.006510416666664,0)" xlink:href="#C"/><use transform="matrix(0.010850694444444444,0,0,0.010850694444444444,53.342013888888886,0)" xlink:href="#A"/><use transform="matrix(0.010850694444444444,0,0,0.010850694444444444,66.67751736111111,0)" xlink:href="#K"/><use transform="matrix(0.010850694444444444,0,0,0.010850694444444444,80.01302083333334,0)" xlink:href="#L"/></g><path fill="#5f6572" d="M891-1484c-201 251-362 514-362 954 0 441 161 704 362 955H701C500 176 342-90 342-532c0-440 159-704 359-952h190" id="M"/><path fill="#5f6572" d="M604-135c236 0 291-142 291-376v-838h190v859c5 340-142 510-480 510-326 0-463-164-463-492v-877h191v851c-3 222 46 363 271 363" id="N"/><path fill="#5f6572" d="M698-1104c312 3 392 244 392 558 0 315-82 566-392 566-169 0-277-65-331-184h-5c8 188 2 394 4 589H185V-858c0-76-1-156-6-224h175c6 52 9 120 10 178h4c58-122 150-202 330-200zm-49 991c225 0 255-203 255-433 0-225-32-419-253-419-236 0-285 192-285 441 0 237 53 411 283 411" id="O"/><path fill="#5f6572" d="M682 16c-209 0-323-80-324-285v-671H190v-142h170l58-282h120v282h432v142H538v652c2 114 60 155 182 155 106 0 209-16 297-34v137C921-4 806 16 682 16" id="P"/><g id="e"><use transform="matrix(0.010850694444444444,0,0,0.010850694444444444,0,0)" xlink:href="#M"/><use transform="matrix(0.010850694444444444,0,0,0.010850694444444444,13.335503472222221,0)" xlink:href="#N"/><use transform="matrix(0.010850694444444444,0,0,0.010850694444444444,26.671006944444443,0)" xlink:href="#O"/><use transform="matrix(0.010850694444444444,0,0,0.010850694444444444,40.006510416666664,0)" xlink:href="#K"/><use transform="matrix(0.010850694444444444,0,0,0.010850694444444444,53.342013888888886,0)" xlink:href="#A"/><use transform="matrix(0.010850694444444444,0,0,0.010850694444444444,66.67751736111111,0)" xlink:href="#P"/><use transform="matrix(0.010850694444444444,0,0,0.010850694444444444,80.01302083333334,0)" xlink:href="#C"/></g><path fill="#5f6572" d="M1121-976c0 225-142 341-344 379L1177 0H957L591-575H353V0H162v-1349h482c281 3 477 100 477 373zM633-726c181-1 296-73 296-247 0-149-101-223-304-223H353v470h280" id="Q"/><path fill="#5f6572" d="M528-1484c201 248 357 511 357 952 0 442-156 709-357 957H336C537 174 700-89 700-530c0-440-163-703-364-954h192" id="R"/><g id="f"><use transform="matrix(0.010850694444444444,0,0,0.010850694444444444,0,0)" xlink:href="#Q"/><use transform="matrix(0.010850694444444444,0,0,0.010850694444444444,13.335503472222221,0)" xlink:href="#C"/><use transform="matrix(0.010850694444444444,0,0,0.010850694444444444,26.671006944444443,0)" xlink:href="#F"/><use transform="matrix(0.010850694444444444,0,0,0.010850694444444444,40.006510416666664,0)" xlink:href="#K"/><use transform="matrix(0.010850694444444444,0,0,0.010850694444444444,53.342013888888886,0)" xlink:href="#C"/><use transform="matrix(0.010850694444444444,0,0,0.010850694444444444,66.67751736111111,0)" xlink:href="#J"/><use transform="matrix(0.010850694444444444,0,0,0.010850694444444444,80.01302083333334,0)" xlink:href="#R"/></g><path fill="#5f6572" d="M1034 0L896-382H333L196 0H0l510-1349h217L1228 0h-194zM847-531c-77-225-157-447-231-674-69 231-154 451-232 674h463" id="S"/><path fill="#5f6572" d="M365-904c58-129 161-200 334-200 130 0 228 46 293 138s98 233 98 420c0 189-34 331-102 425S824 20 698 20c-170 0-275-64-336-184 0 55-3 116-9 164H179c5-68 6-147 6-223v-1261h180c-2 193 4 394-4 580h4zm283 791c221 0 256-197 256-427 0-229-34-425-254-425-236 0-285 195-285 441 0 237 53 411 283 411" id="T"/><path fill="#5f6572" d="M736-142h380V0H134v-142h422v-1200H267v-142h469v1342" id="U"/><g id="g"><use transform="matrix(0.010850694444444444,0,0,0.010850694444444444,0,0)" xlink:href="#S"/><use transform="matrix(0.010850694444444444,0,0,0.010850694444444444,13.335503472222221,0)" xlink:href="#Q"/><use transform="matrix(0.010850694444444444,0,0,0.010850694444444444,26.671006944444443,0)" xlink:href="#G"/><use transform="matrix(0.010850694444444444,0,0,0.010850694444444444,40.006510416666664,0)" xlink:href="#F"/><use transform="matrix(0.010850694444444444,0,0,0.010850694444444444,53.342013888888886,0)" xlink:href="#F"/><use transform="matrix(0.010850694444444444,0,0,0.010850694444444444,66.67751736111111,0)" xlink:href="#A"/><use transform="matrix(0.010850694444444444,0,0,0.010850694444444444,80.01302083333334,0)" xlink:href="#T"/><use transform="matrix(0.010850694444444444,0,0,0.010850694444444444,93.34852430555557,0)" xlink:href="#U"/><use transform="matrix(0.010850694444444444,0,0,0.010850694444444444,106.6840277777778,0)" xlink:href="#C"/></g><path fill="#5f6572" d="M162 0v-1349h919v156H353v422h668v154H353v461h769V0H162" id="V"/><path fill="#5f6572" d="M715 0H502L69-1082h202c94 253 197 500 285 758 19 57 36 126 52 183 96-335 234-626 350-941h201" id="W"/><path fill="#5f6572" d="M745-142h380V0H143v-142h422v-798H246v-142h499v940zM545-1292v-192h200v192H545" id="X"/><path fill="#5f6572" d="M615-1102c343 0 484 203 482 560-1 347-147 562-488 562-336 0-475-219-479-562-4-349 156-560 485-560zm-8 989c240 0 301-180 301-429 0-245-55-427-290-427-236 0-299 181-299 427 0 243 61 429 288 429" id="Y"/><g id="h"><use transform="matrix(0.010850694444444444,0,0,0.010850694444444444,0,0)" xlink:href="#S"/><use transform="matrix(0.010850694444444444,0,0,0.010850694444444444,13.335503472222221,0)" xlink:href="#V"/><use transform="matrix(0.010850694444444444,0,0,0.010850694444444444,26.671006944444443,0)" xlink:href="#F"/><use transform="matrix(0.010850694444444444,0,0,0.010850694444444444,40.006510416666664,0)" xlink:href="#W"/><use transform="matrix(0.010850694444444444,0,0,0.010850694444444444,53.342013888888886,0)" xlink:href="#X"/><use transform="matrix(0.010850694444444444,0,0,0.010850694444444444,66.67751736111111,0)" xlink:href="#J"/><use transform="matrix(0.010850694444444444,0,0,0.010850694444444444,80.01302083333334,0)" xlink:href="#Y"/><use transform="matrix(0.010850694444444444,0,0,0.010850694444444444,93.34852430555557,0)" xlink:href="#F"/><use transform="matrix(0.010850694444444444,0,0,0.010850694444444444,106.6840277777778,0)" xlink:href="#B"/><use transform="matrix(0.010850694444444444,0,0,0.010850694444444444,120.01953125000003,0)" xlink:href="#C"/><use transform="matrix(0.010850694444444444,0,0,0.010850694444444444,133.35503472222226,0)" xlink:href="#F"/><use transform="matrix(0.010850694444444444,0,0,0.010850694444444444,146.69053819444449,0)" xlink:href="#P"/></g><path fill="#5f6572" d="M650-1214c-281 0-336 244-336 533 0 295 60 546 347 546 188 0 263-142 322-282l159 65C1058-155 935 20 659 20c-401 0-546-295-546-701 0-407 135-689 536-689 264 0 391 146 466 335l-168 65c-47-129-127-244-297-244" id="Z"/><g id="i"><use transform="matrix(0.010850694444444444,0,0,0.010850694444444444,0,0)" xlink:href="#S"/><use transform="matrix(0.010850694444444444,0,0,0.010850694444444444,13.335503472222221,0)" xlink:href="#Z"/><use transform="matrix(0.010850694444444444,0,0,0.010850694444444444,26.671006944444443,0)" xlink:href="#A"/><use transform="matrix(0.010850694444444444,0,0,0.010850694444444444,40.006510416666664,0)" xlink:href="#F"/><use transform="matrix(0.010850694444444444,0,0,0.010850694444444444,53.342013888888886,0)" xlink:href="#W"/><use transform="matrix(0.010850694444444444,0,0,0.010850694444444444,66.67751736111111,0)" xlink:href="#A"/><use transform="matrix(0.010850694444444444,0,0,0.010850694444444444,80.01302083333334,0)" xlink:href="#L"/></g><path fill="#5f6572" d="M614-1226c-167 1-283 53-283 213 0 183 186 193 334 234 230 63 463 120 463 409 0 286-219 387-518 390C309 23 131-98 79-338l185-37c34 165 149 248 351 246 184-2 324-58 324-238 0-203-207-221-372-266-210-57-422-111-422-377 0-267 201-356 470-360 279-5 430 101 480 324l-188 33c-28-141-121-215-293-213" id="aa"/><g id="j"><use transform="matrix(0.010850694444444444,0,0,0.010850694444444444,0,0)" xlink:href="#aa"/><use transform="matrix(0.010850694444444444,0,0,0.010850694444444444,13.335503472222221,0)" xlink:href="#P"/><use transform="matrix(0.010850694444444444,0,0,0.010850694444444444,26.671006944444443,0)" xlink:href="#A"/><use transform="matrix(0.010850694444444444,0,0,0.010850694444444444,40.006510416666664,0)" xlink:href="#J"/><use transform="matrix(0.010850694444444444,0,0,0.010850694444444444,53.342013888888886,0)" xlink:href="#P"/></g><path fill="#5f6572" d="M237 0v-1349h191v1193h672V0H237" id="ab"/><g id="k"><use transform="matrix(0.010850694444444444,0,0,0.010850694444444444,0,0)" xlink:href="#ab"/><use transform="matrix(0.010850694444444444,0,0,0.010850694444444444,13.335503472222221,0)" xlink:href="#Y"/><use transform="matrix(0.010850694444444444,0,0,0.010850694444444444,26.671006944444443,0)" xlink:href="#Y"/><use transform="matrix(0.010850694444444444,0,0,0.010850694444444444,40.006510416666664,0)" xlink:href="#O"/></g><path fill="#fff" d="M708-584V0H520v-584L36-1349h205l374 611 372-611h205" id="ac"/><path fill="#fff" d="M617-1102c355 0 481 238 477 599H322c5 222 84 388 301 388 144 0 244-59 284-166l158 45C1002-72 854 20 623 20c-342 0-490-220-490-568 0-346 151-554 484-554zm291 461c-18-192-90-328-289-328-194 0-287 128-295 328h584" id="ad"/><path fill="#fff" d="M873-819c-18-114-119-146-250-146-163 0-245 50-245 151 0 151 170 148 294 185 182 54 388 94 388 320 0 240-189 325-439 329-245 4-410-69-454-268l159-31c24 133 136 168 295 165 144-2 270-31 270-171 0-164-195-160-331-202-167-52-350-87-350-299 0-218 173-315 413-313 220 2 373 77 412 260" id="ae"/><g id="l"><use transform="matrix(0.010850694444444444,0,0,0.010850694444444444,0,0)" xlink:href="#ac"/><use transform="matrix(0.010850694444444444,0,0,0.010850694444444444,13.335503472222221,0)" xlink:href="#ad"/><use transform="matrix(0.010850694444444444,0,0,0.010850694444444444,26.671006944444443,0)" xlink:href="#ae"/></g><path fill="#5f6572" d="M631 20c-350 0-501-215-501-562 0-355 162-560 502-560 250 0 399 118 446 323l-192 14c-23-124-109-196-262-196-242 0-305 171-305 415 1 245 61 427 304 427 151 0 248-77 267-215l190 12C1039-107 883 20 631 20" id="af"/><path fill="#5f6572" d="M914 0L548-499l-132 98V0H236v-1484h180v927l475-525h211L663-617 1125 0H914" id="ag"/><g id="m"><use transform="matrix(0.010850694444444444,0,0,0.010850694444444444,0,0)" xlink:href="#H"/><use transform="matrix(0.010850694444444444,0,0,0.010850694444444444,13.335503472222221,0)" xlink:href="#X"/><use transform="matrix(0.010850694444444444,0,0,0.010850694444444444,26.671006944444443,0)" xlink:href="#af"/><use transform="matrix(0.010850694444444444,0,0,0.010850694444444444,40.006510416666664,0)" xlink:href="#ag"/></g><path fill="#fff" d="M912-211c-10-84-18-177-18-274v-864h172V0H836L316-1130c7 79 16 167 16 254V0H162v-1349h222" id="ah"/><path fill="#fff" d="M615-1102c343 0 484 203 482 560-1 347-147 562-488 562-336 0-475-219-479-562-4-349 156-560 485-560zm-8 989c240 0 301-180 301-429 0-245-55-427-290-427-236 0-299 181-299 427 0 243 61 429 288 429" id="ai"/><g id="n"><use transform="matrix(0.010850694444444444,0,0,0.010850694444444444,0,0)" xlink:href="#ah"/><use transform="matrix(0.010850694444444444,0,0,0.010850694444444444,13.335503472222221,0)" xlink:href="#ai"/></g><path fill="#5f6572" d="M932 0L611-444 288 0H94l415-556-397-526h199l300 421 298-421h201L713-558 1133 0H932" id="aj"/><g id="o"><use transform="matrix(0.010850694444444444,0,0,0.010850694444444444,0,0)" xlink:href="#V"/><use transform="matrix(0.010850694444444444,0,0,0.010850694444444444,13.335503472222221,0)" xlink:href="#aj"/><use transform="matrix(0.010850694444444444,0,0,0.010850694444444444,26.671006944444443,0)" xlink:href="#C"/><use transform="matrix(0.010850694444444444,0,0,0.010850694444444444,40.006510416666664,0)" xlink:href="#af"/><use transform="matrix(0.010850694444444444,0,0,0.010850694444444444,53.342013888888886,0)" xlink:href="#G"/><use transform="matrix(0.010850694444444444,0,0,0.010850694444444444,66.67751736111111,0)" xlink:href="#P"/><use transform="matrix(0.010850694444444444,0,0,0.010850694444444444,80.01302083333334,0)" xlink:href="#C"/></g><g id="p"><use transform="matrix(0.010850694444444444,0,0,0.010850694444444444,0,0)" xlink:href="#ab"/><use transform="matrix(0.010850694444444444,0,0,0.010850694444444444,13.335503472222221,0)" xlink:href="#Y"/><use transform="matrix(0.010850694444444444,0,0,0.010850694444444444,26.671006944444443,0)" xlink:href="#Y"/><use transform="matrix(0.010850694444444444,0,0,0.010850694444444444,40.006510416666664,0)" xlink:href="#O"/></g><path fill="#fff" d="M410 425v-1909h547v139H590V286h367v139H410" id="ak"/><use transform="matrix(0.010850694444444444,0,0,0.010850694444444444,0,0)" xlink:href="#ak" id="q"/><path fill="#fff" d="M614-1226c-167 1-283 53-283 213 0 183 186 193 334 234 230 63 463 120 463 409 0 286-219 387-518 390C309 23 131-98 79-338l185-37c34 165 149 248 351 246 184-2 324-58 324-238 0-203-207-221-372-266-210-57-422-111-422-377 0-267 201-356 470-360 279-5 430 101 480 324l-188 33c-28-141-121-215-293-213" id="al"/><path fill="#fff" d="M648-963c-190 6-283 138-283 336V0H185v-1484h181c-2 197 6 404-9 587h3c62-120 159-205 339-205 242 0 351 135 350 381V0H868v-695c1-168-57-273-220-268" id="am"/><path fill="#fff" d="M528 20c-247 0-343-132-343-381v-721h180v686c-4 177 45 284 224 277 194-8 279-136 279-336v-627h181c3 360-6 732 6 1082H885c-4-54-7-126-8-185h-3C809-64 714 20 528 20" id="an"/><path fill="#fff" d="M736-142h380V0H134v-142h422v-1200H267v-142h469v1342" id="ao"/><path fill="#fff" d="M865-914c-3-187-2-380-2-570h180v1261c0 76 1 155 6 223H877c-8-49-9-116-10-174h-5C801-44 708 26 530 26c-135 0-234-46-297-139s-95-232-95-419c0-377 131-566 392-566 176 0 271 63 335 184zm-286-51c-222 0-255 197-255 427 0 229 31 425 253 425 237 0 286-195 286-441 0-238-52-411-284-411" id="ap"/><g id="r"><use transform="matrix(0.010850694444444444,0,0,0.010850694444444444,0,0)" xlink:href="#al"/><use transform="matrix(0.010850694444444444,0,0,0.010850694444444444,13.335503472222221,0)" xlink:href="#am"/><use transform="matrix(0.010850694444444444,0,0,0.010850694444444444,26.671006944444443,0)" xlink:href="#ai"/><use transform="matrix(0.010850694444444444,0,0,0.010850694444444444,40.006510416666664,0)" xlink:href="#an"/><use transform="matrix(0.010850694444444444,0,0,0.010850694444444444,53.342013888888886,0)" xlink:href="#ao"/><use transform="matrix(0.010850694444444444,0,0,0.010850694444444444,66.67751736111111,0)" xlink:href="#ap"/></g><path fill="#fff" d="M709-1193V0H519v-1193H76v-156h1076v156H709" id="aq"/><path fill="#fff" d="M745-142h380V0H143v-142h422v-798H246v-142h499v940zM545-1292v-192h200v192H545" id="ar"/><path fill="#fff" d="M631 20c-350 0-501-215-501-562 0-355 162-560 502-560 250 0 399 118 446 323l-192 14c-23-124-109-196-262-196-242 0-305 171-305 415 1 245 61 427 304 427 151 0 248-77 267-215l190 12C1039-107 883 20 631 20" id="as"/><path fill="#fff" d="M914 0L548-499l-132 98V0H236v-1484h180v927l475-525h211L663-617 1125 0H914" id="at"/><g id="s"><use transform="matrix(0.010850694444444444,0,0,0.010850694444444444,0,0)" xlink:href="#aq"/><use transform="matrix(0.010850694444444444,0,0,0.010850694444444444,13.335503472222221,0)" xlink:href="#ar"/><use transform="matrix(0.010850694444444444,0,0,0.010850694444444444,26.671006944444443,0)" xlink:href="#as"/><use transform="matrix(0.010850694444444444,0,0,0.010850694444444444,40.006510416666664,0)" xlink:href="#at"/></g><path fill="#fff" d="M270 425V286h367v-1631H270v-139h547V425H270" id="au"/><use transform="matrix(0.010850694444444444,0,0,0.010850694444444444,0,0)" xlink:href="#au" id="t"/><g id="u"><use transform="matrix(0.010850694444444444,0,0,0.010850694444444444,0,0)" xlink:href="#N"/><use transform="matrix(0.010850694444444444,0,0,0.010850694444444444,13.335503472222221,0)" xlink:href="#O"/><use transform="matrix(0.010850694444444444,0,0,0.010850694444444444,26.671006944444443,0)" xlink:href="#K"/><use transform="matrix(0.010850694444444444,0,0,0.010850694444444444,40.006510416666664,0)" xlink:href="#A"/><use transform="matrix(0.010850694444444444,0,0,0.010850694444444444,53.342013888888886,0)" xlink:href="#P"/><use transform="matrix(0.010850694444444444,0,0,0.010850694444444444,66.67751736111111,0)" xlink:href="#C"/></g><g id="v"><use transform="matrix(0.010850694444444444,0,0,0.010850694444444444,0,0)" xlink:href="#ab"/><use transform="matrix(0.010850694444444444,0,0,0.010850694444444444,13.335503472222221,0)" xlink:href="#Y"/><use transform="matrix(0.010850694444444444,0,0,0.010850694444444444,26.671006944444443,0)" xlink:href="#Y"/><use transform="matrix(0.010850694444444444,0,0,0.010850694444444444,40.006510416666664,0)" xlink:href="#O"/></g><path fill="#5f6572" d="M1048-32c-2 300-135 456-433 456-222-1-358-88-400-267l184-25c22 99 100 157 222 156 184-2 248-125 248-315 0-64 3-133-2-194C807-100 706-13 524-12c-306 0-381-228-381-537 0-318 85-550 400-550 164 0 271 83 325 202h3c1-60 3-134 12-185h171c-13 339-4 702-6 1050zM585-145c210-8 284-178 284-406 0-192-52-331-177-392-33-16-69-22-104-22-223 2-259 184-259 414 0 229 31 415 256 406" id="av"/><g id="w"><use transform="matrix(0.010850694444444444,0,0,0.010850694444444444,0,0)" xlink:href="#H"/><use transform="matrix(0.010850694444444444,0,0,0.010850694444444444,13.335503472222221,0)" xlink:href="#X"/><use transform="matrix(0.010850694444444444,0,0,0.010850694444444444,26.671006944444443,0)" xlink:href="#B"/><use transform="matrix(0.010850694444444444,0,0,0.010850694444444444,40.006510416666664,0)" xlink:href="#X"/><use transform="matrix(0.010850694444444444,0,0,0.010850694444444444,53.342013888888886,0)" xlink:href="#F"/><use transform="matrix(0.010850694444444444,0,0,0.010850694444444444,66.67751736111111,0)" xlink:href="#av"/><use transform="matrix(0.010850694444444444,0,0,0.010850694444444444,80.01302083333334,0)" xlink:href="#L"/></g><path fill="#fff" d="M202-1349h823v156H709v1037h316V0H202v-156h316v-1037H202v-156" id="aw"/><g id="x"><use transform="matrix(0.010850694444444444,0,0,0.010850694444444444,0,0)" xlink:href="#aw"/><use transform="matrix(0.010850694444444444,0,0,0.010850694444444444,13.335503472222221,0)" xlink:href="#ae"/></g><path fill="#fff" d="M1121-976c0 225-142 341-344 379L1177 0H957L591-575H353V0H162v-1349h482c281 3 477 100 477 373zM633-726c181-1 296-73 296-247 0-149-101-223-304-223H353v470h280" id="ax"/><path fill="#fff" d="M706-1102c241 0 344 136 343 381V0H868v-695c1-168-57-273-220-268-190 6-283 138-283 336V0H185c-3-360 6-732-6-1082h170c4 54 7 126 8 185h3c63-121 164-204 346-205" id="ay"/><path fill="#fff" d="M1048-32c-2 300-135 456-433 456-222-1-358-88-400-267l184-25c22 99 100 157 222 156 184-2 248-125 248-315 0-64 3-133-2-194C807-100 706-13 524-12c-306 0-381-228-381-537 0-318 85-550 400-550 164 0 271 83 325 202h3c1-60 3-134 12-185h171c-13 339-4 702-6 1050zM585-145c210-8 284-178 284-406 0-192-52-331-177-392-33-16-69-22-104-22-223 2-259 184-259 414 0 229 31 415 256 406" id="az"/><g id="y"><use transform="matrix(0.010850694444444444,0,0,0.010850694444444444,0,0)" xlink:href="#ax"/><use transform="matrix(0.010850694444444444,0,0,0.010850694444444444,13.335503472222221,0)" xlink:href="#an"/><use transform="matrix(0.010850694444444444,0,0,0.010850694444444444,26.671006944444443,0)" xlink:href="#ay"/><use transform="matrix(0.010850694444444444,0,0,0.010850694444444444,40.006510416666664,0)" xlink:href="#ay"/><use transform="matrix(0.010850694444444444,0,0,0.010850694444444444,53.342013888888886,0)" xlink:href="#ar"/><use transform="matrix(0.010850694444444444,0,0,0.010850694444444444,66.67751736111111,0)" xlink:href="#ay"/><use transform="matrix(0.010850694444444444,0,0,0.010850694444444444,80.01302083333334,0)" xlink:href="#az"/></g></defs></g></svg>