<svg xmlns="http://www.w3.org/2000/svg" xmlns:xlink="http://www.w3.org/1999/xlink" xmlns:lucid="lucid" width="3165" height="2233"><g transform="translate(0 0)" lucid:page-tab-id="cFqcXGz1_Naq"><path d="M0 0h3165.33v3127.52H0z" fill="#21252c"/><path d="M1810.15 1116.4a19.82 19.82 0 0 0 11 3.34H2294a6 6 0 0 1 6 6V2114a6 6 0 0 1-6 6H996.15a6 6 0 0 1-6-6V1099.74a6 6 0 0 1 6-6h774a19.82 19.82 0 0 1 11 3.33zm-820 3.34h825" stroke="#a9a9a9" stroke-width="2" fill="#f5fbff"/><use xlink:href="#a" transform="matrix(1,0,0,1,998.1458807833592,1093.7366253386494) translate(0 19.776258680555557)"/><use xlink:href="#b" transform="matrix(1,0,0,1,1002.1458807833592,1127.7366253386494) translate(0 499.27625868055554)"/><path d="M2568.53 222.73a20.24 20.24 0 0 0 11.03 3.27h484.3a6 6 0 0 1 6 6v822a6 6 0 0 1-6 6h-1328.3a6 6 0 0 1-6-6V206a6 6 0 0 1 6-6h792a20.24 20.24 0 0 1 11.03 3.27zM1729.56 226h844" stroke="#a9a9a9" stroke-width="2" fill="#f5fbff"/><use xlink:href="#c" transform="matrix(1,0,0,1,1737.5623576499197,200) translate(0 19.776258680555557)"/><path d="M1317.5 209.75a12.2 12.2 0 0 0 9.65 4.76h229.33a6 6 0 0 1 6 6v411.6a6 6 0 0 1-6 6H916.15a6 6 0 0 1-6-6V194.5a6 6 0 0 1 6-6h379a12.2 12.2 0 0 1 9.65 4.77zm-407.35 4.76h411" stroke="#a9a9a9" stroke-width="2" fill="#f5fbff"/><use xlink:href="#c" transform="matrix(1,0,0,1,918.1458807833592,188.51094790572623) translate(0 19.776258680555557)"/><path d="M60 66a6 6 0 0 1 6-6h728a6 6 0 0 1 6 6v448a6 6 0 0 1-6 6H66a6 6 0 0 1-6-6z" stroke="#a9a9a9" stroke-width="2" fill="#f5fbff"/><path d="M790 70h-15v20h15z" stroke="#a9a9a9" fill="#f5fbff"/><path d="M780 73.33h-10v3.34h10zm0 10h-10v3.34h10z" stroke="#a9a9a9" fill="#f5fbff"/><use xlink:href="#d" transform="matrix(1,0,0,1,60,60) translate(269.82422743055554 23.499583333333334)"/><use xlink:href="#e" transform="matrix(1,0,0,1,60,60) translate(288.3274826388889 46.92623263888889)"/><use xlink:href="#f" transform="matrix(1,0,0,1,60,60) translate(341.6694965277778 46.92623263888889)"/><path d="M120 126a6 6 0 0 1 6-6h168a6 6 0 0 1 6 6v108a6 6 0 0 1-6 6H126a6 6 0 0 1-6-6z" stroke="#a9a9a9" stroke-width="2" fill="#f5fbff"/><path d="M100 146a6 6 0 0 1 6-6h28a6 6 0 0 1 6 6v8a6 6 0 0 1-6 6h-28a6 6 0 0 1-6-6zM100 206a6 6 0 0 1 6-6h28a6 6 0 0 1 6 6v8a6 6 0 0 1-6 6h-28a6 6 0 0 1-6-6z" stroke="#a9a9a9" stroke-width="2" fill="#f5fbff"/><use xlink:href="#g" transform="matrix(1,0,0,1,140,132) translate(-16.68077256944447 43.06293402777778)"/><use xlink:href="#h" transform="matrix(1,0,0,1,140,132) translate(36.66124131944444 66.48958333333333)"/><path d="M560 126a6 6 0 0 1 6-6h188a6 6 0 0 1 6 6v108a6 6 0 0 1-6 6H566a6 6 0 0 1-6-6z" stroke="#a9a9a9" stroke-width="2" fill="#f5fbff"/><path d="M540 146a6 6 0 0 1 6-6h28a6 6 0 0 1 6 6v8a6 6 0 0 1-6 6h-28a6 6 0 0 1-6-6zM540 206a6 6 0 0 1 6-6h28a6 6 0 0 1 6 6v8a6 6 0 0 1-6 6h-28a6 6 0 0 1-6-6z" stroke="#a9a9a9" stroke-width="2" fill="#f5fbff"/><use xlink:href="#g" transform="matrix(1,0,0,1,584,132) translate(-9.680772569444471 43.06293402777778)"/><use xlink:href="#i" transform="matrix(1,0,0,1,584,132) translate(50.32899305555556 66.48958333333333)"/><path d="M320 386a6 6 0 0 1 6-6h208a6 6 0 0 1 6 6v108a6 6 0 0 1-6 6H326a6 6 0 0 1-6-6z" stroke="#a9a9a9" stroke-width="2" fill="#f5fbff"/><path d="M300 406a6 6 0 0 1 6-6h28a6 6 0 0 1 6 6v8a6 6 0 0 1-6 6h-28a6 6 0 0 1-6-6zM300 466a6 6 0 0 1 6-6h28a6 6 0 0 1 6 6v8a6 6 0 0 1-6 6h-28a6 6 0 0 1-6-6z" stroke="#a9a9a9" stroke-width="2" fill="#f5fbff"/><use xlink:href="#g" transform="matrix(1,0,0,1,348,392) translate(-2.6807725694444713 43.06293402777778)"/><use xlink:href="#j" transform="matrix(1,0,0,1,348,392) translate(17.32248263888887 66.48958333333333)"/><path d="M395 180h10m40 0c0 11.05-8.95 20-20 20s-20-8.95-20-20 8.95-20 20-20 20 8.95 20 20z" stroke="#a9a9a9" stroke-width="2" fill="#f5fbff"/><path d="M395 179.2h10v1.6h-10z" fill="none"/><path d="M394 180h-92" stroke="#a9a9a9" stroke-width="2" fill="none"/><path d="M395 180.97h-1.03v-1.94H395zM302.03 180.97H301v-1.94h1.03z" stroke="#a9a9a9" stroke-width=".05" fill="#a9a9a9"/><path d="M447 180h111" stroke="#979ea8" stroke-width="2" fill="none"/><path d="M447.03 180.97h-1.14l.1-.93-.03-1h1.06zM559 180.97h-1.03v-1.94H559z" stroke="#979ea8" stroke-width=".05" fill="#979ea8"/><path d="M200 310v-11M200 265v-5" stroke="#a9a9a9" stroke-width="2" fill="none"/><path d="M186 285c0-7.73 6.27-14 14-14s14 6.27 14 14-6.27 14-14 14-14-6.27-14-14z" stroke="#a9a9a9" stroke-width="2" fill="#f5fbff"/><path d="M220 285c0-11.05-8.95-20-20-20s-20 8.95-20 20" stroke="#a9a9a9" stroke-width="2" fill="none"/><path d="M200 310a.8.8 0 0 1-.8-.8v-9.4a.8.8 0 0 1 .8-.8.8.8 0 0 1 .8.8v9.4a.8.8 0 0 1-.8.8z" fill="none"/><path d="M420 378v-32a6 6 0 0 0-6-6H206a6 6 0 0 1-6-6v-23" stroke="#979ea8" stroke-width="2" fill="none"/><path d="M420.98 379h-1.96v-1.03h1.96zM200.97 311.03h-1.94V310h1.94z" stroke="#979ea8" stroke-width=".05" fill="#979ea8"/><path d="M200 259v-17" stroke="#979ea8" stroke-width="2" fill="none"/><path d="M200.97 260h-1.95v-1.03h1.95zM200.97 242.03h-1.95V241h1.95z" stroke="#979ea8" stroke-width=".05" fill="#979ea8"/><path d="M1789.85 1147.74a6 6 0 0 1 6-6h248a6 6 0 0 1 6 6v108a6 6 0 0 1-6 6h-248a6 6 0 0 1-6-6z" stroke="#a9a9a9" stroke-width="2" fill="#f5fbff"/><path d="M1769.85 1167.74a6 6 0 0 1 6-6h28a6 6 0 0 1 6 6v8a6 6 0 0 1-6 6h-28a6 6 0 0 1-6-6zM1769.85 1227.74a6 6 0 0 1 6-6h28a6 6 0 0 1 6 6v8a6 6 0 0 1-6 6h-28a6 6 0 0 1-6-6z" stroke="#a9a9a9" stroke-width="2" fill="#f5fbff"/><use xlink:href="#g" transform="matrix(1,0,0,1,1825.8541192166383,1153.744348989257) translate(11.319227430555529 43.06293402777778)"/><use xlink:href="#k" transform="matrix(1,0,0,1,1825.8541192166383,1153.744348989257) translate(24.654730902777757 66.48958333333333)"/><path d="M1825.92 301.47a6 6 0 0 1 6-6h248a6 6 0 0 1 6 6v108a6 6 0 0 1-6 6h-248a6 6 0 0 1-6-6z" stroke="#a9a9a9" stroke-width="2" fill="#f5fbff"/><path d="M1805.92 321.47a6 6 0 0 1 6-6h28a6 6 0 0 1 6 6v8a6 6 0 0 1-6 6h-28a6 6 0 0 1-6-6zM1805.92 381.47a6 6 0 0 1 6-6h28a6 6 0 0 1 6 6v8a6 6 0 0 1-6 6h-28a6 6 0 0 1-6-6z" stroke="#a9a9a9" stroke-width="2" fill="#f5fbff"/><use xlink:href="#g" transform="matrix(1,0,0,1,1861.9184346272943,307.46794906407786) translate(11.319227430555529 43.06293402777778)"/><use xlink:href="#l" transform="matrix(1,0,0,1,1861.9184346272943,307.46794906407786) translate(57.99348958333333 66.48958333333333)"/><path d="M1110.15 301.47a6 6 0 0 1 6-6h248a6 6 0 0 1 6 6v108a6 6 0 0 1-6 6h-248a6 6 0 0 1-6-6z" stroke="#a9a9a9" stroke-width="2" fill="#f5fbff"/><path d="M1090.15 321.47a6 6 0 0 1 6-6h28a6 6 0 0 1 6 6v8a6 6 0 0 1-6 6h-28a6 6 0 0 1-6-6zM1090.15 381.47a6 6 0 0 1 6-6h28a6 6 0 0 1 6 6v8a6 6 0 0 1-6 6h-28a6 6 0 0 1-6-6z" stroke="#a9a9a9" stroke-width="2" fill="#f5fbff"/><use xlink:href="#g" transform="matrix(1,0,0,1,1146.1458807833592,307.46794906407786) translate(11.319227430555529 43.06293402777778)"/><use xlink:href="#m" transform="matrix(1,0,0,1,1146.1458807833592,307.46794906407786) translate(31.32248263888887 66.48958333333333)"/><path d="M1150.15 1177.95a6 6 0 0 1 6-6h248a6 6 0 0 1 6 6v108a6 6 0 0 1-6 6h-248a6 6 0 0 1-6-6z" stroke="#a9a9a9" stroke-width="2" fill="#f5fbff"/><path d="M1130.15 1197.95a6 6 0 0 1 6-6h28a6 6 0 0 1 6 6v8a6 6 0 0 1-6 6h-28a6 6 0 0 1-6-6zM1130.15 1257.95a6 6 0 0 1 6-6h28a6 6 0 0 1 6 6v8a6 6 0 0 1-6 6h-28a6 6 0 0 1-6-6z" stroke="#a9a9a9" stroke-width="2" fill="#f5fbff"/><use xlink:href="#g" transform="matrix(1,0,0,1,1186.1458807833592,1183.9485188822514) translate(11.319227430555529 43.06293402777778)"/><use xlink:href="#n" transform="matrix(1,0,0,1,1186.1458807833592,1183.9485188822514) translate(44.6579861111111 66.48958333333333)"/><path d="M2256.06 306a6 6 0 0 1 6-6h248a6 6 0 0 1 6 6v108a6 6 0 0 1-6 6h-248a6 6 0 0 1-6-6z" stroke="#a9a9a9" stroke-width="2" fill="#f5fbff"/><path d="M2236.06 326a6 6 0 0 1 6-6h28a6 6 0 0 1 6 6v8a6 6 0 0 1-6 6h-28a6 6 0 0 1-6-6zM2236.06 386a6 6 0 0 1 6-6h28a6 6 0 0 1 6 6v8a6 6 0 0 1-6 6h-28a6 6 0 0 1-6-6z" stroke="#a9a9a9" stroke-width="2" fill="#f5fbff"/><use xlink:href="#g" transform="matrix(1,0,0,1,2292.0643154106533,312) translate(11.319227430555529 43.06293402777778)"/><use xlink:href="#o" transform="matrix(1,0,0,1,2292.0643154106533,312) translate(71.32899305555556 66.48958333333333)"/><path d="M1649.85 1780.78a6 6 0 0 1 6-6h248a6 6 0 0 1 6 6v108a6 6 0 0 1-6 6h-248a6 6 0 0 1-6-6z" stroke="#a9a9a9" stroke-width="2" fill="#f5fbff"/><path d="M1629.85 1800.78a6 6 0 0 1 6-6h28a6 6 0 0 1 6 6v8a6 6 0 0 1-6 6h-28a6 6 0 0 1-6-6zM1629.85 1860.78a6 6 0 0 1 6-6h28a6 6 0 0 1 6 6v8a6 6 0 0 1-6 6h-28a6 6 0 0 1-6-6z" stroke="#a9a9a9" stroke-width="2" fill="#f5fbff"/><use xlink:href="#g" transform="matrix(1,0,0,1,1685.8541192166385,1786.7757073597422) translate(11.319227430555529 43.06293402777778)"/><use xlink:href="#p" transform="matrix(1,0,0,1,1685.8541192166385,1786.7757073597422) translate(64.66124131944444 66.48958333333333)"/><path d="M2707.48 306.9a6 6 0 0 1 6-6h308.58a6 6 0 0 1 6 6v108a6 6 0 0 1-6 6h-308.58a6 6 0 0 1-6-6z" stroke="#a9a9a9" stroke-width="2" fill="#f5fbff"/><path d="M2687.48 326.9a6 6 0 0 1 6-6h28a6 6 0 0 1 6 6v8a6 6 0 0 1-6 6h-28a6 6 0 0 1-6-6zM2687.48 386.9a6 6 0 0 1 6-6h28a6 6 0 0 1 6 6v8a6 6 0 0 1-6 6h-28a6 6 0 0 1-6-6z" stroke="#a9a9a9" stroke-width="2" fill="#f5fbff"/><use xlink:href="#g" transform="matrix(1,0,0,1,2755.593581382434,312.90092368199134) translate(32.81922743055553 43.06293402777778)"/><use xlink:href="#q" transform="matrix(1,0,0,1,2755.593581382434,312.90092368199134) translate(6.148220486111086 66.48958333333333)"/><use xlink:href="#r" transform="matrix(1,0,0,1,2755.593581382434,312.90092368199134) translate(72.8257378472222 66.48958333333333)"/><path d="M1145.15 1480.36a6 6 0 0 1 6-6h248a6 6 0 0 1 6 6v108a6 6 0 0 1-6 6h-248a6 6 0 0 1-6-6z" stroke="#a9a9a9" stroke-width="2" fill="#f5fbff"/><path d="M1125.15 1500.36a6 6 0 0 1 6-6h28a6 6 0 0 1 6 6v8a6 6 0 0 1-6 6h-28a6 6 0 0 1-6-6zM1125.15 1560.36a6 6 0 0 1 6-6h28a6 6 0 0 1 6 6v8a6 6 0 0 1-6 6h-28a6 6 0 0 1-6-6z" stroke="#a9a9a9" stroke-width="2" fill="#f5fbff"/><use xlink:href="#g" transform="matrix(1,0,0,1,1181.1458807833594,1486.3632334172185) translate(11.319227430555529 43.06293402777778)"/><use xlink:href="#s" transform="matrix(1,0,0,1,1181.1458807833594,1486.3632334172185) translate(57.99348958333333 66.48958333333333)"/><path d="M1540.15 1231.95h-11M1495.15 1231.95h-5" stroke="#979ea8" stroke-width="2" fill="none"/><path d="M1515.15 1245.95c-7.74 0-14-6.27-14-14s6.26-14 14-14c7.73 0 14 6.27 14 14s-6.27 14-14 14z" stroke="#979ea8" stroke-width="2" fill="#f5fbff"/><path d="M1515.15 1211.95c-11.05 0-20 8.95-20 20 0 11.04 8.95 20 20 20" stroke="#979ea8" stroke-width="2" fill="none"/><path d="M1540.15 1231.95a.8.8 0 0 1-.8.8h-9.4a.8.8 0 0 1-.8-.8.8.8 0 0 1 .8-.8h9.4a.8.8 0 0 1 .8.8z" fill="none"/><path d="M1412.15 1231.95h77" stroke="#979ea8" stroke-width="2" fill="none"/><path d="M1412.17 1232.92h-1.02v-1.95h1.02zM1490.15 1232.92h-1.03v-1.95h1.03z" stroke="#979ea8" stroke-width=".05" fill="#979ea8"/><path d="M1823.92 355.47h-148.2a6 6 0 0 0-6 6v371.76" stroke="#979ea8" stroke-width="2" fill="none"/><path d="M1824.92 356.44h-1.03v-1.95h1.02zM1670.68 734.23h-1.95v-1.02h1.95z" stroke="#979ea8" stroke-width=".05" fill="#979ea8"/><path d="M1372.15 355.47h241.56a6 6 0 0 1 6 6v371.76" stroke="#979ea8" stroke-width="2" fill="none"/><path d="M1372.17 356.44h-1.02v-1.95h1.02zM1620.68 734.23h-1.95v-1.02h1.95z" stroke="#979ea8" stroke-width=".05" fill="#979ea8"/><path d="M1541.15 1231.95h226.7" stroke="#979ea8" stroke-width="2" fill="none"/><path d="M1541.17 1232.93h-1.02v-1.95h1.02zM1768.85 1232.93h-1.02v-1.95h1.02z" stroke="#979ea8" stroke-width=".05" fill="#979ea8"/><path d="M2094.85 1201.74h11M2139.85 1201.74h5" stroke="#979ea8" stroke-width="2" fill="none"/><path d="M2119.85 1187.74c7.74 0 14 6.27 14 14 0 7.74-6.26 14-14 14-7.73 0-14-6.26-14-14 0-7.73 6.27-14 14-14z" stroke="#979ea8" stroke-width="2" fill="#f5fbff"/><path d="M2119.85 1221.74c11.05 0 20-8.95 20-20 0-11.04-8.95-20-20-20" stroke="#979ea8" stroke-width="2" fill="none"/><path d="M2094.85 1201.74a.8.8 0 0 1 .8-.8h9.4a.8.8 0 0 1 .8.8.8.8 0 0 1-.8.8h-9.4a.8.8 0 0 1-.8-.8z" fill="none"/><path d="M2145.85 1201.74h48.1a6 6 0 0 0 6-6V366a6 6 0 0 1 6-6h48.1" stroke="#979ea8" stroke-width="2" fill="none"/><path d="M2145.88 1202.72h-1.03v-1.95h1.03zM2255.06 360.97h-1.02v-1.95h1.02z" stroke="#979ea8" stroke-width=".05" fill="#979ea8"/><path d="M2051.85 1201.74h42" stroke="#979ea8" stroke-width="2" fill="none"/><path d="M2051.88 1202.72h-1.03v-1.95h1.03zM2094.85 1202.72h-1.02v-1.95h1.02z" stroke="#979ea8" stroke-width=".05" fill="#979ea8"/><path d="M2576.77 360h11M2621.77 360h5" stroke="#979ea8" stroke-width="2" fill="none"/><path d="M2601.77 346c7.73 0 14 6.27 14 14s-6.27 14-14 14-14-6.27-14-14 6.27-14 14-14z" stroke="#979ea8" stroke-width="2" fill="#f5fbff"/><path d="M2601.77 380c11.05 0 20-8.95 20-20s-8.95-20-20-20" stroke="#979ea8" stroke-width="2" fill="none"/><path d="M2576.77 360a.8.8 0 0 1 .8-.8h9.4a.8.8 0 0 1 .8.8.8.8 0 0 1-.8.8h-9.4a.8.8 0 0 1-.8-.8z" fill="none"/><path d="M2627.77 360H2705.48" stroke="#979ea8" stroke-width="2" fill="none"/><path d="M2627.8 360.97h-1.03v-1.95h1.03zM2706.48 360.97h-1.03v-1.95h1.03z" stroke="#979ea8" stroke-width=".05" fill="#979ea8"/><path d="M2518.06 360h28.7a.15.15 0 0 1 .16.15.15.15 0 0 0 .14.14h28.7" stroke="#979ea8" stroke-width="2" fill="none"/><path d="M2518.1 360.98h-1.04v-1.96h1.03zM2576.77 361h3v.27h-4.03v-1.95h1.03z" stroke="#979ea8" stroke-width=".05" fill="#979ea8"/><path d="M1679.85 1384.1a6 6 0 0 1 6-6h188a6 6 0 0 1 6 6v108a6 6 0 0 1-6 6h-188a6 6 0 0 1-6-6z" stroke="#a9a9a9" stroke-width="2" fill="#f5fbff"/><path d="M1659.85 1404.1a6 6 0 0 1 6-6h28a6 6 0 0 1 6 6v8a6 6 0 0 1-6 6h-28a6 6 0 0 1-6-6zM1659.85 1464.1a6 6 0 0 1 6-6h28a6 6 0 0 1 6 6v8a6 6 0 0 1-6 6h-28a6 6 0 0 1-6-6z" stroke="#a9a9a9" stroke-width="2" fill="#f5fbff"/><use xlink:href="#g" transform="matrix(1,0,0,1,1703.8541192166385,1390.1091366392375) translate(-9.680772569444471 43.06293402777778)"/><use xlink:href="#t" transform="matrix(1,0,0,1,1703.8541192166385,1390.1091366392375) translate(50.32899305555556 66.48958333333333)"/><path d="M1959.85 1383.14a6 6 0 0 1 6-6h188a6 6 0 0 1 6 6v108a6 6 0 0 1-6 6h-188a6 6 0 0 1-6-6z" stroke="#a9a9a9" stroke-width="2" fill="#f5fbff"/><path d="M1939.85 1403.14a6 6 0 0 1 6-6h28a6 6 0 0 1 6 6v8a6 6 0 0 1-6 6h-28a6 6 0 0 1-6-6zM1939.85 1463.14a6 6 0 0 1 6-6h28a6 6 0 0 1 6 6v8a6 6 0 0 1-6 6h-28a6 6 0 0 1-6-6z" stroke="#a9a9a9" stroke-width="2" fill="#f5fbff"/><use xlink:href="#g" transform="matrix(1,0,0,1,1983.8541192166408,1389.143003861705) translate(-9.680772569444471 43.06293402777778)"/><use xlink:href="#o" transform="matrix(1,0,0,1,1983.8541192166408,1389.143003861705) translate(50.32899305555556 66.48958333333333)"/><path d="M1769.85 1374.1v-48.17a6 6 0 0 1 6-6h128a6 6 0 0 0 6-6v-24.2" stroke="#979ea8" stroke-width="6" fill="none"/><path d="M1772.83 1377.1h-5.95v-3.07h5.95z" stroke="#979ea8" stroke-width=".05" fill="#979ea8"/><path d="M1909.85 1272.45l4.64 14.27h-9.28z" stroke="#979ea8" stroke-width="6" fill="#979ea8"/><path d="M2049.85 1373.14v-47.7a6 6 0 0 0-6-6h-128a6 6 0 0 1-6-6v-23.72" stroke="#979ea8" stroke-width="6" fill="none"/><path d="M2052.83 1376.14h-5.95v-3.07h5.95z" stroke="#979ea8" stroke-width=".05" fill="#979ea8"/><path d="M1909.85 1272.45l4.64 14.27h-9.28z" stroke="#979ea8" stroke-width="6" fill="#979ea8"/><path d="M1769.85 1575.63v11M1769.85 1620.63v5" stroke="#979ea8" stroke-width="2" fill="none"/><path d="M1783.85 1600.63c0 7.73-6.26 14-14 14-7.73 0-14-6.27-14-14 0-7.74 6.27-14 14-14 7.74 0 14 6.26 14 14z" stroke="#979ea8" stroke-width="2" fill="#f5fbff"/><path d="M1749.85 1600.63c0 11.04 8.96 20 20 20 11.05 0 20-8.96 20-20" stroke="#979ea8" stroke-width="2" fill="none"/><path d="M1769.85 1575.63a.8.8 0 0 1 .8.8v9.4a.8.8 0 0 1-.8.8.8.8 0 0 1-.8-.8v-9.4a.8.8 0 0 1 .8-.8z" fill="none"/><path d="M1769.85 1772.78V1626.63" stroke="#979ea8" stroke-width="2" fill="none"/><path d="M1770.83 1773.78h-1.95v-1.03h1.95zM1770.83 1626.65h-1.95v-1.03h1.95z" stroke="#979ea8" stroke-width=".05" fill="#979ea8"/><path d="M1769.86 1574.63v-74.52" stroke="#979ea8" stroke-width="2" fill="none"/><path d="M1770.83 1575.63h-1.95v-1.03h1.95zM1770.83 1500.13h-1.95v-1.02h1.95z" stroke="#979ea8" stroke-width=".05" fill="#979ea8"/><path d="M1540.15 1534.36h-11M1495.15 1534.36h-5" stroke="#979ea8" stroke-width="2" fill="none"/><path d="M1515.15 1548.36c-7.74 0-14-6.26-14-14 0-7.73 6.26-14 14-14 7.73 0 14 6.27 14 14 0 7.74-6.27 14-14 14z" stroke="#979ea8" stroke-width="2" fill="#f5fbff"/><path d="M1515.15 1514.36c-11.05 0-20 8.96-20 20 0 11.05 8.95 20 20 20" stroke="#979ea8" stroke-width="2" fill="none"/><path d="M1540.15 1534.36a.8.8 0 0 1-.8.8h-9.4a.8.8 0 0 1-.8-.8.8.8 0 0 1 .8-.8h9.4a.8.8 0 0 1 .8.8z" fill="none"/><path d="M1407.15 1534.37h82" stroke="#979ea8" stroke-width="2" fill="none"/><path d="M1407.17 1535.34h-1.02v-1.95h1.02zM1490.15 1535.34h-1.03v-1.95h1.03z" stroke="#979ea8" stroke-width=".05" fill="#979ea8"/><path d="M1541.15 1534.37h47.35a6 6 0 0 1 6 6v288.4a6 6 0 0 0 6 6h47.35" stroke="#979ea8" stroke-width="2" fill="none"/><path d="M1541.17 1535.34h-1.02v-1.95h1.02zM1648.85 1835.75h-1.02v-1.95h1.02z" stroke="#979ea8" stroke-width=".05" fill="#979ea8"/><path d="M1745.92 499.1a6 6 0 0 1 6-6h168a6 6 0 0 1 6 6v28.4a6 6 0 0 1-6 6h-168a6 6 0 0 1-6-6z" stroke="#a9a9a9" stroke-width="2" fill="#f5fbff"/><use xlink:href="#u" transform="matrix(1,0,0,1,1745.9184346272943,493.09047974467217) translate(16.659730902777774 26.177083333333332)"/><use xlink:href="#v" transform="matrix(1,0,0,1,1745.9184346272943,493.09047974467217) translate(83.3372482638889 26.177083333333332)"/><path d="M1965.92 499.1a6 6 0 0 1 6-6h168a6 6 0 0 1 6 6v28.4a6 6 0 0 1-6 6h-168a6 6 0 0 1-6-6z" stroke="#a9a9a9" stroke-width="2" fill="#f5fbff"/><use xlink:href="#w" transform="matrix(1,0,0,1,1965.9184346272941,493.09047974467217) translate(16.659730902777774 26.177083333333332)"/><use xlink:href="#v" transform="matrix(1,0,0,1,1965.9184346272941,493.09047974467217) translate(83.3372482638889 26.177083333333332)"/><path d="M1835.92 489.1v-28.82a6 6 0 0 1 6-6h98a6 6 0 0 0 6-6v-4.84" stroke="#979ea8" stroke-width="6" fill="none"/><path d="M1838.9 492.1h-5.96V489h5.95z" stroke="#979ea8" stroke-width=".05" fill="#979ea8"/><path d="M1945.92 426.18l4.63 14.26h-9.27z" stroke="#979ea8" stroke-width="6" fill="#979ea8"/><path d="M2055.92 489.1v-28.82a6 6 0 0 0-6-6h-98a6 6 0 0 1-6-6v-4.84" stroke="#979ea8" stroke-width="6" fill="none"/><path d="M2058.9 492.1h-5.96V489h5.95z" stroke="#979ea8" stroke-width=".05" fill="#979ea8"/><path d="M1945.92 426.18l4.63 14.26h-9.27z" stroke="#979ea8" stroke-width="6" fill="#979ea8"/><path d="M1849.85 1585.87a6 6 0 0 1 6-6h168a6 6 0 0 1 6 6v28.42a6 6 0 0 1-6 6h-168a6 6 0 0 1-6-6z" stroke="#a9a9a9" stroke-width="2" fill="#f5fbff"/><use xlink:href="#x" transform="matrix(1,0,0,1,1849.854119216641,1579.8694740655558) translate(23.32748263888889 26.177083333333332)"/><use xlink:href="#y" transform="matrix(1,0,0,1,1849.854119216641,1579.8694740655558) translate(103.34050347222224 26.177083333333332)"/><path d="M2069.85 1585.87a6 6 0 0 1 6-6h168a6 6 0 0 1 6 6v28.42a6 6 0 0 1-6 6h-168a6 6 0 0 1-6-6z" stroke="#a9a9a9" stroke-width="2" fill="#f5fbff"/><use xlink:href="#z" transform="matrix(1,0,0,1,2069.854119216641,1579.8694740655558) translate(29.995234374999995 26.177083333333332)"/><use xlink:href="#y" transform="matrix(1,0,0,1,2069.854119216641,1579.8694740655558) translate(96.67275173611111 26.177083333333332)"/><path d="M1939.85 1575.87v-20a6 6 0 0 1 6-6h98a6 6 0 0 0 6-6v-18.75" stroke="#979ea8" stroke-width="6" fill="none"/><path d="M1942.83 1578.87h-5.95v-3.08h5.95z" stroke="#979ea8" stroke-width=".05" fill="#979ea8"/><path d="M2049.85 1507.85l4.64 14.27h-9.28z" stroke="#979ea8" stroke-width="6" fill="#979ea8"/><path d="M2159.85 1575.87v-20a6 6 0 0 0-6-6h-98a6 6 0 0 1-6-6v-18.75" stroke="#979ea8" stroke-width="6" fill="none"/><path d="M2162.83 1578.87h-5.95v-3.08h5.95z" stroke="#979ea8" stroke-width=".05" fill="#979ea8"/><path d="M2049.85 1507.85l4.64 14.27h-9.28z" stroke="#979ea8" stroke-width="6" fill="#979ea8"/><path d="M1569.85 2003.08a6 6 0 0 1 6-6h168a6 6 0 0 1 6 6v28.42a6 6 0 0 1-6 6h-168a6 6 0 0 1-6-6z" stroke="#a9a9a9" stroke-width="2" fill="#f5fbff"/><use xlink:href="#A" transform="matrix(1,0,0,1,1569.8541192166383,1997.081709402539) translate(43.33073784722222 26.177083333333332)"/><use xlink:href="#B" transform="matrix(1,0,0,1,1569.8541192166383,1997.081709402539) translate(123.34375868055557 26.177083333333332)"/><path d="M1789.85 2003.08a6 6 0 0 1 6-6h168a6 6 0 0 1 6 6v28.42a6 6 0 0 1-6 6h-168a6 6 0 0 1-6-6z" stroke="#a9a9a9" stroke-width="2" fill="#f5fbff"/><use xlink:href="#A" transform="matrix(1,0,0,1,1789.854119216638,1997.081709402539) translate(43.33073784722222 26.177083333333332)"/><use xlink:href="#C" transform="matrix(1,0,0,1,1789.854119216638,1997.081709402539) translate(123.34375868055557 26.177083333333332)"/><path d="M1659.85 1993.08v-30a6 6 0 0 1 6-6h98a6 6 0 0 0 6-6v-28.33" stroke="#979ea8" stroke-width="6" fill="none"/><path d="M1662.83 1996.08h-5.95V1993h5.95z" stroke="#979ea8" stroke-width=".05" fill="#979ea8"/><path d="M1769.85 1905.48l4.64 14.27h-9.28z" stroke="#979ea8" stroke-width="6" fill="#979ea8"/><path d="M1879.85 1993.08v-30a6 6 0 0 0-6-6h-98a6 6 0 0 1-6-6v-28.33" stroke="#979ea8" stroke-width="6" fill="none"/><path d="M1882.83 1996.08h-5.95V1993h5.95z" stroke="#979ea8" stroke-width=".05" fill="#979ea8"/><path d="M1769.85 1905.48l4.64 14.27h-9.28z" stroke="#979ea8" stroke-width="6" fill="#979ea8"/><path d="M1225.15 1645.85a6 6 0 0 1 6-6h168a6 6 0 0 1 6 6v28.42a6 6 0 0 1-6 6h-168a6 6 0 0 1-6-6z" stroke="#a9a9a9" stroke-width="2" fill="#f5fbff"/><use xlink:href="#D" transform="matrix(1,0,0,1,1225.1458807833594,1639.850812194137) translate(49.998489583333324 26.177083333333332)"/><path d="M1225.15 1704.5a6 6 0 0 1 6-6h168a6 6 0 0 1 6 6v28.43a6 6 0 0 1-6 6h-168a6 6 0 0 1-6-6z" stroke="#a9a9a9" stroke-width="2" fill="#f5fbff"/><use xlink:href="#E" transform="matrix(1,0,0,1,1225.1458807833594,1698.510942928873) translate(56.66624131944444 26.177083333333332)"/><path d="M1221.15 1660.06h-48.68a6 6 0 0 1-6-6v-31.72" stroke="#979ea8" stroke-width="6" fill="none"/><path d="M1224.15 1663.04h-3.08v-5.95h3.08z" stroke="#979ea8" stroke-width=".05" fill="#979ea8"/><path d="M1166.47 1605.07l4.64 14.27h-9.26z" stroke="#979ea8" stroke-width="6" fill="#979ea8"/><path d="M1221.15 1718.72h-48.68a6 6 0 0 1-6-6v-90.38" stroke="#979ea8" stroke-width="6" fill="none"/><path d="M1224.15 1721.7h-3.08v-5.95h3.08z" stroke="#979ea8" stroke-width=".05" fill="#979ea8"/><path d="M1166.47 1605.07l4.64 14.27h-9.26z" stroke="#979ea8" stroke-width="6" fill="#979ea8"/><path d="M1223.8 1762.13a6 6 0 0 1 6-6h168a6 6 0 0 1 6 6v28.42a6 6 0 0 1-6 6h-168a6 6 0 0 1-6-6z" stroke="#a9a9a9" stroke-width="2" fill="#f5fbff"/><use xlink:href="#F" transform="matrix(1,0,0,1,1223.813729582049,1756.1288968413526) translate(49.998489583333324 26.177083333333332)"/><path d="M1223.8 1820.8a6 6 0 0 1 6-6h168a6 6 0 0 1 6 6v28.4a6 6 0 0 1-6 6h-168a6 6 0 0 1-6-6z" stroke="#a9a9a9" stroke-width="2" fill="#f5fbff"/><use xlink:href="#G" transform="matrix(1,0,0,1,1223.813729582049,1814.7890275760885) translate(36.662986111111096 26.177083333333332)"/><path d="M1219.8 1776.34h-47.33a6 6 0 0 1-6-6v-148" stroke="#979ea8" stroke-width="6" fill="none"/><path d="M1222.8 1779.3h-3.06v-5.94h3.07z" stroke="#979ea8" stroke-width=".05" fill="#979ea8"/><path d="M1166.47 1605.07l4.64 14.27h-9.26z" stroke="#979ea8" stroke-width="6" fill="#979ea8"/><path d="M1219.8 1835h-47.33a6 6 0 0 1-6-6v-206.66" stroke="#979ea8" stroke-width="6" fill="none"/><path d="M1222.8 1837.97h-3.06v-5.95h3.07z" stroke="#979ea8" stroke-width=".05" fill="#979ea8"/><path d="M1166.47 1605.07l4.64 14.27h-9.26z" stroke="#979ea8" stroke-width="6" fill="#979ea8"/><path d="M1223.8 1876.5a6 6 0 0 1 6-6h168a6 6 0 0 1 6 6v28.43a6 6 0 0 1-6 6h-168a6 6 0 0 1-6-6z" stroke="#a9a9a9" stroke-width="2" fill="#f5fbff"/><use xlink:href="#H" transform="matrix(1,0,0,1,1223.813729582049,1870.509197246132) translate(70.00174479166667 26.177083333333332)"/><path d="M1223.8 1935.17a6 6 0 0 1 6-6h168a6 6 0 0 1 6 6v28.42a6 6 0 0 1-6 6h-168a6 6 0 0 1-6-6z" stroke="#a9a9a9" stroke-width="2" fill="#f5fbff"/><use xlink:href="#I" transform="matrix(1,0,0,1,1223.813729582049,1929.1693279808676) translate(63.33399305555556 26.177083333333332)"/><path d="M1219.8 1890.72h-47.33a6 6 0 0 1-6-6v-262.38" stroke="#979ea8" stroke-width="6" fill="none"/><path d="M1222.8 1893.7h-3.06v-5.96h3.07z" stroke="#979ea8" stroke-width=".05" fill="#979ea8"/><path d="M1166.47 1605.07l4.64 14.27h-9.26z" stroke="#979ea8" stroke-width="6" fill="#979ea8"/><path d="M1219.8 1949.38h-47.33a6 6 0 0 1-6-6v-321.04" stroke="#979ea8" stroke-width="6" fill="none"/><path d="M1222.8 1952.36h-3.06v-5.95h3.07z" stroke="#979ea8" stroke-width=".05" fill="#979ea8"/><path d="M1166.47 1605.07l4.64 14.27h-9.26z" stroke="#979ea8" stroke-width="6" fill="#979ea8"/><path d="M1223.8 2002.13a6 6 0 0 1 6-6h168a6 6 0 0 1 6 6v28.42a6 6 0 0 1-6 6h-168a6 6 0 0 1-6-6z" stroke="#a9a9a9" stroke-width="2" fill="#f5fbff"/><use xlink:href="#J" transform="matrix(1,0,0,1,1223.813729582049,1996.1288968413526) translate(16.65973090277776 26.177083333333332)"/><use xlink:href="#K" transform="matrix(1,0,0,1,1223.813729582049,1996.1288968413526) translate(123.34375868055557 26.177083333333332)"/><path d="M1219.8 2016.34h-47.33a6 6 0 0 1-6-6v-388" stroke="#979ea8" stroke-width="6" fill="none"/><path d="M1222.8 2019.3h-3.06v-5.94h3.07z" stroke="#979ea8" stroke-width=".05" fill="#979ea8"/><path d="M1166.47 1605.07l4.64 14.27h-9.26z" stroke="#979ea8" stroke-width="6" fill="#979ea8"/><path d="M990.15 505.77a6 6 0 0 1 6-6h208a6 6 0 0 1 6 6v28.43a6 6 0 0 1-6 6h-208a6 6 0 0 1-6-6z" stroke="#a9a9a9" stroke-width="2" fill="#f5fbff"/><use xlink:href="#u" transform="matrix(1,0,0,1,990.1458807833592,499.7746485947845) translate(9.988723958333319 26.177083333333332)"/><use xlink:href="#L" transform="matrix(1,0,0,1,990.1458807833592,499.7746485947845) translate(76.66624131944444 26.177083333333332)"/><path d="M1250.15 505.77a6 6 0 0 1 6-6h208a6 6 0 0 1 6 6v28.43a6 6 0 0 1-6 6h-208a6 6 0 0 1-6-6z" stroke="#a9a9a9" stroke-width="2" fill="#f5fbff"/><use xlink:href="#w" transform="matrix(1,0,0,1,1250.1458807833592,499.7746485947845) translate(9.988723958333319 26.177083333333332)"/><use xlink:href="#L" transform="matrix(1,0,0,1,1250.1458807833592,499.7746485947845) translate(76.66624131944444 26.177083333333332)"/><path d="M1100.15 495.77v-32.15a6 6 0 0 1 6-6h118a6 6 0 0 0 6-6v-8.18" stroke="#979ea8" stroke-width="6" fill="none"/><path d="M1103.12 498.77h-5.95v-3.07h5.95z" stroke="#979ea8" stroke-width=".05" fill="#979ea8"/><path d="M1230.15 426.18l4.63 14.26h-9.27z" stroke="#979ea8" stroke-width="6" fill="#979ea8"/><path d="M1360.15 495.77v-32.15a6 6 0 0 0-6-6h-118a6 6 0 0 1-6-6v-8.18" stroke="#979ea8" stroke-width="6" fill="none"/><path d="M1363.12 498.77h-5.95v-3.07h5.95z" stroke="#979ea8" stroke-width=".05" fill="#979ea8"/><path d="M1230.15 426.18l4.63 14.26h-9.27z" stroke="#979ea8" stroke-width="6" fill="#979ea8"/><path d="M1030.15 1389.84a6 6 0 0 1 6-6h208a6 6 0 0 1 6 6v28.42a6 6 0 0 1-6 6h-208a6 6 0 0 1-6-6z" stroke="#a9a9a9" stroke-width="2" fill="#f5fbff"/><use xlink:href="#M" transform="matrix(1,0,0,1,1030.1458807833592,1383.839695297407) translate(63.33073784722221 26.177083333333332)"/><path d="M1290.15 1389.84a6 6 0 0 1 6-6h208a6 6 0 0 1 6 6v28.42a6 6 0 0 1-6 6h-208a6 6 0 0 1-6-6z" stroke="#a9a9a9" stroke-width="2" fill="#f5fbff"/><use xlink:href="#N" transform="matrix(1,0,0,1,1290.1458807833592,1383.839695297407) translate(63.33073784722221 26.177083333333332)"/><path d="M1140.15 1379.84v-35.95a6 6 0 0 1 6-6h118a6 6 0 0 0 6-6v-11.98" stroke="#979ea8" stroke-width="6" fill="none"/><path d="M1143.12 1382.84h-5.95v-3.08h5.95z" stroke="#979ea8" stroke-width=".05" fill="#979ea8"/><path d="M1270.15 1302.66l4.63 14.26h-9.27z" stroke="#979ea8" stroke-width="6" fill="#979ea8"/><path d="M1400.15 1379.84v-35.95a6 6 0 0 0-6-6h-118a6 6 0 0 1-6-6v-11.98" stroke="#979ea8" stroke-width="6" fill="none"/><path d="M1403.12 1382.84h-5.95v-3.08h5.95z" stroke="#979ea8" stroke-width=".05" fill="#979ea8"/><path d="M1270.15 1302.66l4.63 14.26h-9.27z" stroke="#979ea8" stroke-width="6" fill="#979ea8"/><path d="M2336.36 469.15a6 6 0 0 1 6-6h188.04a6 6 0 0 1 6 6v28.42a6 6 0 0 1-6 6h-188.04a6 6 0 0 1-6-6z" stroke="#a9a9a9" stroke-width="2" fill="#f5fbff"/><use xlink:href="#z" transform="matrix(1,0,0,1,2336.3609534049992,463.15226436272064) translate(39.995234374999995 26.177083333333332)"/><use xlink:href="#y" transform="matrix(1,0,0,1,2336.3609534049992,463.15226436272064) translate(106.67275173611111 26.177083333333332)"/><path d="M2336.36 527.8a6 6 0 0 1 6-6h188.04a6 6 0 0 1 6 6v28.43a6 6 0 0 1-6 6h-188.04a6 6 0 0 1-6-6z" stroke="#a9a9a9" stroke-width="2" fill="#f5fbff"/><use xlink:href="#O" transform="matrix(1,0,0,1,2336.3609534049992,521.8123950974566) translate(73.33399305555557 26.177083333333332)"/><path d="M2332.36 483.36h-48.96a6 6 0 0 1-6-6v-31.73" stroke="#979ea8" stroke-width="6" fill="none"/><path d="M2335.36 486.34h-3.08v-5.95h3.08z" stroke="#979ea8" stroke-width=".05" fill="#979ea8"/><path d="M2277.4 428.37l4.63 14.26h-9.27z" stroke="#979ea8" stroke-width="6" fill="#979ea8"/><path d="M2334.88 585.43a6 6 0 0 1 6-6h188.04a6 6 0 0 1 6 6v28.42a6 6 0 0 1-6 6h-188.04a6 6 0 0 1-6-6z" stroke="#a9a9a9" stroke-width="2" fill="#f5fbff"/><use xlink:href="#P" transform="matrix(1,0,0,1,2334.880483206516,579.4303490099362) translate(53.33073784722221 26.177083333333332)"/><path d="M2334.88 644.1a6 6 0 0 1 6-6h188.04a6 6 0 0 1 6 6v28.4a6 6 0 0 1-6 6h-188.04a6 6 0 0 1-6-6z" stroke="#a9a9a9" stroke-width="2" fill="#f5fbff"/><use xlink:href="#Q" transform="matrix(1,0,0,1,2334.880483206516,638.0904797446722) translate(46.66298611111112 26.177083333333332)"/><use xlink:href="#R" transform="matrix(1,0,0,1,2334.880483206516,638.0904797446722) translate(100.005 26.177083333333332)"/><path d="M2330.88 599.64h-47.48a6 6 0 0 1-6-6v-148" stroke="#979ea8" stroke-width="6" fill="none"/><path d="M2333.88 602.62h-3.08v-5.95h3.08z" stroke="#979ea8" stroke-width=".05" fill="#979ea8"/><path d="M2277.4 428.37l4.63 14.26h-9.27z" stroke="#979ea8" stroke-width="6" fill="#979ea8"/><path d="M2330.88 658.3h-47.48a6 6 0 0 1-6-6V445.63" stroke="#979ea8" stroke-width="6" fill="none"/><path d="M2333.88 661.28h-3.08v-5.95h3.08z" stroke="#979ea8" stroke-width=".05" fill="#979ea8"/><path d="M2277.4 428.37l4.63 14.26h-9.27z" stroke="#979ea8" stroke-width="6" fill="#979ea8"/><path d="M2334.88 699.8a6 6 0 0 1 6-6h188.04a6 6 0 0 1 6 6v28.43a6 6 0 0 1-6 6h-188.04a6 6 0 0 1-6-6z" stroke="#a9a9a9" stroke-width="2" fill="#f5fbff"/><use xlink:href="#S" transform="matrix(1,0,0,1,2334.880483206516,693.8106494147157) translate(46.662986111111096 26.177083333333332)"/><path d="M2330.88 714.02h-47.48a6 6 0 0 1-6-6v-262.4" stroke="#979ea8" stroke-width="6" fill="none"/><path d="M2333.88 717h-3.08v-5.95h3.08z" stroke="#979ea8" stroke-width=".05" fill="#979ea8"/><path d="M2277.4 428.37l4.63 14.26h-9.27z" stroke="#979ea8" stroke-width="6" fill="#979ea8"/><path d="M2813.82 470.5a6 6 0 0 1 6-6h168a6 6 0 0 1 6 6v28.4a6 6 0 0 1-6 6h-168a6 6 0 0 1-6-6z" stroke="#a9a9a9" stroke-width="2" fill="#f5fbff"/><use xlink:href="#T" transform="matrix(1,0,0,1,2813.8178939472077,464.4921336279849) translate(49.998489583333324 26.177083333333332)"/><path d="M2813.82 529.15a6 6 0 0 1 6-6h168a6 6 0 0 1 6 6v28.42a6 6 0 0 1-6 6h-168a6 6 0 0 1-6-6z" stroke="#a9a9a9" stroke-width="2" fill="#f5fbff"/><use xlink:href="#U" transform="matrix(1,0,0,1,2813.8178939472077,523.1522643627206) translate(49.998489583333324 26.177083333333332)"/><path d="M2809.82 484.7h-48.67a6 6 0 0 1-6-6v-31.73" stroke="#979ea8" stroke-width="6" fill="none"/><path d="M2812.82 487.68h-3.08v-5.95h3.08z" stroke="#979ea8" stroke-width=".05" fill="#979ea8"/><path d="M2755.15 429.7l4.63 14.27h-9.27z" stroke="#979ea8" stroke-width="6" fill="#979ea8"/><path d="M2809.82 543.36h-48.67a6 6 0 0 1-6-6v-90.4" stroke="#979ea8" stroke-width="6" fill="none"/><path d="M2812.82 546.34h-3.08v-5.95h3.08z" stroke="#979ea8" stroke-width=".05" fill="#979ea8"/><path d="M2755.15 429.7l4.63 14.27h-9.27z" stroke="#979ea8" stroke-width="6" fill="#979ea8"/><path d="M2812.5 586.77a6 6 0 0 1 6-6h168a6 6 0 0 1 6 6v28.42a6 6 0 0 1-6 6h-168a6 6 0 0 1-6-6z" stroke="#a9a9a9" stroke-width="2" fill="#f5fbff"/><use xlink:href="#V" transform="matrix(1,0,0,1,2812.485742745898,580.7702182752005) translate(56.66624131944444 26.177083333333332)"/><path d="M2812.5 645.43a6 6 0 0 1 6-6h168a6 6 0 0 1 6 6v28.42a6 6 0 0 1-6 6h-168a6 6 0 0 1-6-6z" stroke="#a9a9a9" stroke-width="2" fill="#f5fbff"/><use xlink:href="#W" transform="matrix(1,0,0,1,2812.485742745898,639.4303490099362) translate(63.33399305555556 26.177083333333332)"/><path d="M2808.5 600.98h-47.35a6 6 0 0 1-6-6v-148" stroke="#979ea8" stroke-width="6" fill="none"/><path d="M2811.5 603.96h-3.1V598h3.1z" stroke="#979ea8" stroke-width=".05" fill="#979ea8"/><path d="M2755.15 429.7l4.63 14.27h-9.27z" stroke="#979ea8" stroke-width="6" fill="#979ea8"/><path d="M2808.5 659.64h-47.35a6 6 0 0 1-6-6V446.97" stroke="#979ea8" stroke-width="6" fill="none"/><path d="M2811.5 662.62h-3.1v-5.95h3.1z" stroke="#979ea8" stroke-width=".05" fill="#979ea8"/><path d="M2755.15 429.7l4.63 14.27h-9.27z" stroke="#979ea8" stroke-width="6" fill="#979ea8"/><path d="M2334.88 755.53a6 6 0 0 1 6-6h188.04a6 6 0 0 1 6 6v28.42a6 6 0 0 1-6 6h-188.04a6 6 0 0 1-6-6z" stroke="#a9a9a9" stroke-width="2" fill="#f5fbff"/><g><use xlink:href="#X" transform="matrix(1,0,0,1,2334.880483206516,749.5308190847591) translate(73.33399305555557 26.177083333333332)"/></g><path d="M2334.88 814.2a6 6 0 0 1 6-6h188.04a6 6 0 0 1 6 6v28.4a6 6 0 0 1-6 6h-188.04a6 6 0 0 1-6-6z" stroke="#a9a9a9" stroke-width="2" fill="#f5fbff"/><g><use xlink:href="#x" transform="matrix(1,0,0,1,2334.880483206516,808.1909498194948) translate(33.32748263888889 26.177083333333332)"/><use xlink:href="#y" transform="matrix(1,0,0,1,2334.880483206516,808.1909498194948) translate(113.34050347222224 26.177083333333332)"/></g><path d="M2330.88 769.74h-48.5a6 6 0 0 1-6-6V447.97" stroke="#979ea8" stroke-width="6" fill="none"/><path d="M2333.88 772.72h-3.08v-5.95h3.08z" stroke="#979ea8" stroke-width=".05" fill="#979ea8"/><path d="M2276.4 430.7l4.63 14.27h-9.27z" stroke="#979ea8" stroke-width="6" fill="#979ea8"/><path d="M2330.88 828.4h-48.5a6 6 0 0 1-6-6V447.97" stroke="#979ea8" stroke-width="6" fill="none"/><path d="M2333.88 831.38h-3.08v-5.95h3.08z" stroke="#979ea8" stroke-width=".05" fill="#979ea8"/><path d="M2276.4 430.7l4.63 14.27h-9.27z" stroke="#979ea8" stroke-width="6" fill="#979ea8"/><path d="M2333.4 871.8a6 6 0 0 1 6-6h191a6 6 0 0 1 6 6v28.43a6 6 0 0 1-6 6h-191a6 6 0 0 1-6-6z" stroke="#a9a9a9" stroke-width="2" fill="#f5fbff"/><g><use xlink:href="#x" transform="matrix(1,0,0,1,2333.4000130080326,865.8089037319744) translate(14.824227430555547 26.177083333333332)"/><use xlink:href="#Y" transform="matrix(1,0,0,1,2333.4000130080326,865.8089037319744) translate(94.8372482638889 26.177083333333332)"/></g><path d="M2333.4 930.47a6 6 0 0 1 6-6h188.04a6 6 0 0 1 6 6v28.42a6 6 0 0 1-6 6H2339.4a6 6 0 0 1-6-6z" stroke="#a9a9a9" stroke-width="2" fill="#f5fbff"/><g><use xlink:href="#x" transform="matrix(1,0,0,1,2333.400013008032,924.4690344667104) translate(33.32748263888889 26.177083333333332)"/><use xlink:href="#Z" transform="matrix(1,0,0,1,2333.400013008032,924.4690344667104) translate(113.34050347222224 26.177083333333332)"/></g><path d="M2329.4 886.02h-47a6 6 0 0 1-6-6V447.97" stroke="#979ea8" stroke-width="6" fill="none"/><path d="M2332.4 889h-3.08v-5.96h3.08z" stroke="#979ea8" stroke-width=".05" fill="#979ea8"/><path d="M2276.4 430.7l4.63 14.27h-9.27z" stroke="#979ea8" stroke-width="6" fill="#979ea8"/><path d="M2329.4 944.68h-47a6 6 0 0 1-6-6v-490.7" stroke="#979ea8" stroke-width="6" fill="none"/><path d="M2332.4 947.65h-3.08v-5.95h3.08z" stroke="#979ea8" stroke-width=".05" fill="#979ea8"/><path d="M2276.4 430.7l4.63 14.27h-9.27z" stroke="#979ea8" stroke-width="6" fill="#979ea8"/><path d="M2333.4 986.2a6 6 0 0 1 6-6h188.04a6 6 0 0 1 6 6v28.4a6 6 0 0 1-6 6H2339.4a6 6 0 0 1-6-6z" stroke="#a9a9a9" stroke-width="2" fill="#f5fbff"/><g><use xlink:href="#x" transform="matrix(1,0,0,1,2333.400013008032,980.1892041367539) translate(33.32748263888889 26.177083333333332)"/><use xlink:href="#aa" transform="matrix(1,0,0,1,2333.400013008032,980.1892041367539) translate(113.34050347222224 26.177083333333332)"/></g><path d="M2329.4 1000.4h-47a6 6 0 0 1-6-6V447.97" stroke="#979ea8" stroke-width="6" fill="none"/><path d="M2332.4 1003.37h-3.08v-5.95h3.08z" stroke="#979ea8" stroke-width=".05" fill="#979ea8"/><path d="M2276.4 430.7l4.63 14.27h-9.27z" stroke="#979ea8" stroke-width="6" fill="#979ea8"/><path d="M2812.5 704.1a6 6 0 0 1 6-6h168a6 6 0 0 1 6 6v28.4a6 6 0 0 1-6 6h-168a6 6 0 0 1-6-6z" stroke="#a9a9a9" stroke-width="2" fill="#f5fbff"/><g><use xlink:href="#W" transform="matrix(1,0,0,1,2812.485742745898,698.0904797446719) translate(63.33399305555556 26.177083333333332)"/></g><path d="M2808.5 718.3h-47.8a6 6 0 0 1-6-6V448.88" stroke="#979ea8" stroke-width="6" fill="none"/><path d="M2811.5 721.28h-3.1v-5.95h3.1z" stroke="#979ea8" stroke-width=".05" fill="#979ea8"/><path d="M2754.7 431.6l4.65 14.27h-9.27z" stroke="#979ea8" stroke-width="6" fill="#979ea8"/><path d="M1669.7 785.23v380.3a6 6 0 0 0 6 6h92.15" stroke="#979ea8" stroke-width="2" fill="none"/><path d="M1670.68 785.26h-1.95v-1.03h1.95zM1768.85 1172.5h-1.02v-1.94h1.02z" stroke="#979ea8" stroke-width=".05" fill="#979ea8"/><path d="M2332.36 542.02h-49.97a6 6 0 0 1-6-6v-88.05" stroke="#979ea8" stroke-width="6" fill="none"/><path d="M2335.36 545h-3.08v-5.95h3.08z" stroke="#979ea8" stroke-width=".05" fill="#979ea8"/><path d="M2276.4 430.7l4.63 14.27h-9.27z" stroke="#979ea8" stroke-width="6" fill="#979ea8"/><g><path d="M1619.7 734.23v11M1619.7 779.23v5" stroke="#979ea8" stroke-width="2" fill="none"/><path d="M1633.7 759.23c0 7.73-6.26 14-14 14-7.72 0-14-6.27-14-14s6.28-14 14-14c7.74 0 14 6.27 14 14z" stroke="#979ea8" stroke-width="2" fill="#f5fbff"/><path d="M1599.7 759.23c0 11.05 8.96 20 20 20 11.05 0 20-8.95 20-20" stroke="#979ea8" stroke-width="2" fill="none"/><path d="M1619.7 734.23a.8.8 0 0 1 .8.8v9.4a.8.8 0 0 1-.8.8.8.8 0 0 1-.8-.8v-9.4a.8.8 0 0 1 .8-.8z" fill="none"/></g><path d="M1619.7 785.23v410.52a6 6 0 0 0 6 6h162.15" stroke="#979ea8" stroke-width="2" fill="none"/><path d="M1620.68 785.26h-1.95v-1.03h1.95zM1788.85 1202.72h-1.02v-1.95h1.02z" stroke="#979ea8" stroke-width=".05" fill="#979ea8"/><g><path d="M1669.7 784.23v-11M1669.7 739.23v-5" stroke="#a9a9a9" stroke-width="2" fill="none"/><path d="M1655.7 759.23c0-7.73 6.28-14 14-14 7.74 0 14 6.27 14 14s-6.26 14-14 14c-7.72 0-14-6.27-14-14z" stroke="#a9a9a9" stroke-width="2" fill="#f5fbff"/><path d="M1689.7 759.23c0-11.04-8.95-20-20-20-11.04 0-20 8.96-20 20" stroke="#a9a9a9" stroke-width="2" fill="none"/><path d="M1669.7 784.23a.8.8 0 0 1-.8-.8v-9.4a.8.8 0 0 1 .8-.8.8.8 0 0 1 .8.8v9.4a.8.8 0 0 1-.8.8z" fill="none"/></g><defs><path fill="#5f6572" d="M285-1169c8 382 2 780 4 1169H129v-1349h237c86 239 188 461 253 720 69-258 169-481 255-720h225V0H937c2-390-5-788 6-1169-75 255-170 488-259 729H547c-90-240-185-475-262-729" id="ab"/><path fill="#5f6572" d="M615-1102c343 0 484 203 482 560-1 347-147 562-488 562-336 0-475-219-479-562-4-349 156-560 485-560zm-8 989c240 0 301-180 301-429 0-245-55-427-290-427-236 0-299 181-299 427 0 243 61 429 288 429" id="ac"/><path fill="#5f6572" d="M865-914c-3-187-2-380-2-570h180v1261c0 76 1 155 6 223H877c-8-49-9-116-10-174h-5C801-44 708 26 530 26c-135 0-234-46-297-139s-95-232-95-419c0-377 131-566 392-566 176 0 271 63 335 184zm-286-51c-222 0-255 197-255 427 0 229 31 425 253 425 237 0 286-195 286-441 0-238-52-411-284-411" id="ad"/><path fill="#5f6572" d="M617-1102c355 0 481 238 477 599H322c5 222 84 388 301 388 144 0 244-59 284-166l158 45C1002-72 854 20 623 20c-342 0-490-220-490-568 0-346 151-554 484-554zm291 461c-18-192-90-328-289-328-194 0-287 128-295 328h584" id="ae"/><path fill="#5f6572" d="M736-142h380V0H134v-142h422v-1200H267v-142h469v1342" id="af"/><path fill="#5f6572" d="M873-819c-18-114-119-146-250-146-163 0-245 50-245 151 0 151 170 148 294 185 182 54 388 94 388 320 0 240-189 325-439 329-245 4-410-69-454-268l159-31c24 133 136 168 295 165 144-2 270-31 270-171 0-164-195-160-331-202-167-52-350-87-350-299 0-218 173-315 413-313 220 2 373 77 412 260" id="ag"/><g id="a"><use transform="matrix(0.010850694444444444,0,0,0.010850694444444444,0,0)" xlink:href="#ab"/><use transform="matrix(0.010850694444444444,0,0,0.010850694444444444,13.335503472222221,0)" xlink:href="#ac"/><use transform="matrix(0.010850694444444444,0,0,0.010850694444444444,26.671006944444443,0)" xlink:href="#ad"/><use transform="matrix(0.010850694444444444,0,0,0.010850694444444444,40.006510416666664,0)" xlink:href="#ae"/><use transform="matrix(0.010850694444444444,0,0,0.010850694444444444,53.342013888888886,0)" xlink:href="#af"/><use transform="matrix(0.010850694444444444,0,0,0.010850694444444444,66.67751736111111,0)" xlink:href="#ag"/></g><path fill="#5f6572" d="M1034 0L896-382H333L196 0H0l510-1349h217L1228 0h-194zM847-531c-77-225-157-447-231-674-69 231-154 451-232 674h463" id="ah"/><path fill="#5f6572" d="M682 16c-209 0-323-80-324-285v-671H190v-142h170l58-282h120v282h432v142H538v652c2 114 60 155 182 155 106 0 209-16 297-34v137C921-4 806 16 682 16" id="ai"/><path fill="#5f6572" d="M839-1102c70 0 148 7 206 17v167c-112-18-268-36-363 15-129 69-208 203-208 395V0H294c-10-367 32-789-52-1082h171c21 75 41 161 48 250h5c67-152 152-270 373-270" id="aj"/><path fill="#5f6572" d="M745-142h380V0H143v-142h422v-798H246v-142h499v940zM545-1292v-192h200v192H545" id="ak"/><path fill="#5f6572" d="M365-904c58-129 161-200 334-200 130 0 228 46 293 138s98 233 98 420c0 189-34 331-102 425S824 20 698 20c-170 0-275-64-336-184 0 55-3 116-9 164H179c5-68 6-147 6-223v-1261h180c-2 193 4 394-4 580h4zm283 791c221 0 256-197 256-427 0-229-34-425-254-425-236 0-285 195-285 441 0 237 53 411 283 411" id="al"/><path fill="#5f6572" d="M528 20c-247 0-343-132-343-381v-721h180v686c-4 177 45 284 224 277 194-8 279-136 279-336v-627h181c3 360-6 732 6 1082H885c-4-54-7-126-8-185h-3C809-64 714 20 528 20" id="am"/><g id="b"><use transform="matrix(0.010850694444444444,0,0,0.010850694444444444,0,0)" xlink:href="#ah"/><use transform="matrix(0.010850694444444444,0,0,0.010850694444444444,13.335503472222221,0)" xlink:href="#ai"/><use transform="matrix(0.010850694444444444,0,0,0.010850694444444444,26.671006944444443,0)" xlink:href="#ai"/><use transform="matrix(0.010850694444444444,0,0,0.010850694444444444,40.006510416666664,0)" xlink:href="#aj"/><use transform="matrix(0.010850694444444444,0,0,0.010850694444444444,53.342013888888886,0)" xlink:href="#ak"/><use transform="matrix(0.010850694444444444,0,0,0.010850694444444444,66.67751736111111,0)" xlink:href="#al"/><use transform="matrix(0.010850694444444444,0,0,0.010850694444444444,80.01302083333334,0)" xlink:href="#am"/><use transform="matrix(0.010850694444444444,0,0,0.010850694444444444,93.34852430555557,0)" xlink:href="#ai"/><use transform="matrix(0.010850694444444444,0,0,0.010850694444444444,106.6840277777778,0)" xlink:href="#ae"/><use transform="matrix(0.010850694444444444,0,0,0.010850694444444444,120.01953125000003,0)" xlink:href="#ag"/></g><path fill="#5f6572" d="M650-1214c-281 0-336 244-336 533 0 295 60 546 347 546 188 0 263-142 322-282l159 65C1058-155 935 20 659 20c-401 0-546-295-546-701 0-407 135-689 536-689 264 0 391 146 466 335l-168 65c-47-129-127-244-297-244" id="an"/><path fill="#5f6572" d="M706-1102c241 0 344 136 343 381V0H868v-695c1-168-57-273-220-268-190 6-283 138-283 336V0H185c-3-360 6-732-6-1082h170c4 54 7 126 8 185h3c63-121 164-204 346-205" id="ao"/><g id="c"><use transform="matrix(0.010850694444444444,0,0,0.010850694444444444,0,0)" xlink:href="#an"/><use transform="matrix(0.010850694444444444,0,0,0.010850694444444444,13.335503472222221,0)" xlink:href="#ac"/><use transform="matrix(0.010850694444444444,0,0,0.010850694444444444,26.671006944444443,0)" xlink:href="#ao"/><use transform="matrix(0.010850694444444444,0,0,0.010850694444444444,40.006510416666664,0)" xlink:href="#ai"/><use transform="matrix(0.010850694444444444,0,0,0.010850694444444444,53.342013888888886,0)" xlink:href="#aj"/><use transform="matrix(0.010850694444444444,0,0,0.010850694444444444,66.67751736111111,0)" xlink:href="#ac"/><use transform="matrix(0.010850694444444444,0,0,0.010850694444444444,80.01302083333334,0)" xlink:href="#af"/><use transform="matrix(0.010850694444444444,0,0,0.010850694444444444,93.34852430555557,0)" xlink:href="#ag"/></g><path fill="#5f6572" d="M116-571v-205l995-418v154L253-674l858 367v153" id="ap"/><path fill="#5f6572" d="M904-1102c199 0 220 177 220 381V0H956v-686c-3-114 0-215-60-264-70-33-125-4-158 71-26 56-39 140-39 252V0H531v-686c-3-114-1-215-61-264-78-41-136 24-157 84-24 69-39 159-39 259V0H105c-3-360 6-732-6-1082h149c6 50 3 123 8 175 36-100 83-195 216-195 135 0 166 79 196 196 42-105 93-196 236-196" id="aq"/><path fill="#5f6572" d="M698-1104c312 3 392 244 392 558 0 315-82 566-392 566-169 0-277-65-331-184h-5c8 188 2 394 4 589H185V-858c0-76-1-156-6-224h175c6 52 9 120 10 178h4c58-122 150-202 330-200zm-49 991c225 0 255-203 255-433 0-225-32-419-253-419-236 0-285 192-285 441 0 237 53 411 283 411" id="ar"/><path fill="#5f6572" d="M116-154v-153l858-367-858-366v-154l995 418v205" id="as"/><g id="d"><use transform="matrix(0.010850694444444444,0,0,0.010850694444444444,0,0)" xlink:href="#ap"/><use transform="matrix(0.010850694444444444,0,0,0.010850694444444444,13.335503472222221,0)" xlink:href="#ap"/><use transform="matrix(0.010850694444444444,0,0,0.010850694444444444,26.671006944444443,0)" xlink:href="#an"/><use transform="matrix(0.010850694444444444,0,0,0.010850694444444444,40.006510416666664,0)" xlink:href="#ac"/><use transform="matrix(0.010850694444444444,0,0,0.010850694444444444,53.342013888888886,0)" xlink:href="#aq"/><use transform="matrix(0.010850694444444444,0,0,0.010850694444444444,66.67751736111111,0)" xlink:href="#ar"/><use transform="matrix(0.010850694444444444,0,0,0.010850694444444444,80.01302083333334,0)" xlink:href="#ac"/><use transform="matrix(0.010850694444444444,0,0,0.010850694444444444,93.34852430555557,0)" xlink:href="#ao"/><use transform="matrix(0.010850694444444444,0,0,0.010850694444444444,106.6840277777778,0)" xlink:href="#ae"/><use transform="matrix(0.010850694444444444,0,0,0.010850694444444444,120.01953125000003,0)" xlink:href="#ao"/><use transform="matrix(0.010850694444444444,0,0,0.010850694444444444,133.35503472222226,0)" xlink:href="#ai"/><use transform="matrix(0.010850694444444444,0,0,0.010850694444444444,146.69053819444449,0)" xlink:href="#as"/><use transform="matrix(0.010850694444444444,0,0,0.010850694444444444,160.0260416666667,0)" xlink:href="#as"/></g><path fill="#5f6572" d="M713 0H515L10-1349h201C345-955 498-579 615-168c116-411 269-787 402-1181h201" id="at"/><g id="e"><use transform="matrix(0.010850694444444444,0,0,0.010850694444444444,0,0)" xlink:href="#ab"/><use transform="matrix(0.010850694444444444,0,0,0.010850694444444444,13.335503472222221,0)" xlink:href="#at"/><use transform="matrix(0.010850694444444444,0,0,0.010850694444444444,26.671006944444443,0)" xlink:href="#an"/></g><path fill="#5f6572" d="M614-1226c-167 1-283 53-283 213 0 183 186 193 334 234 230 63 463 120 463 409 0 286-219 387-518 390C309 23 131-98 79-338l185-37c34 165 149 248 351 246 184-2 324-58 324-238 0-203-207-221-372-266-210-57-422-111-422-377 0-267 201-356 470-360 279-5 430 101 480 324l-188 33c-28-141-121-215-293-213" id="au"/><path fill="#5f6572" d="M168 279c222 39 310-114 368-290L66-1082h192c120 299 249 590 362 896 115-301 235-597 351-896h190L705 0c-65 164-130 320-275 396-67 36-177 35-262 18V279" id="av"/><g id="f"><use transform="matrix(0.010850694444444444,0,0,0.010850694444444444,0,0)" xlink:href="#au"/><use transform="matrix(0.010850694444444444,0,0,0.010850694444444444,13.335503472222221,0)" xlink:href="#av"/><use transform="matrix(0.010850694444444444,0,0,0.010850694444444444,26.671006944444443,0)" xlink:href="#ag"/><use transform="matrix(0.010850694444444444,0,0,0.010850694444444444,40.006510416666664,0)" xlink:href="#ai"/><use transform="matrix(0.010850694444444444,0,0,0.010850694444444444,53.342013888888886,0)" xlink:href="#ae"/><use transform="matrix(0.010850694444444444,0,0,0.010850694444444444,66.67751736111111,0)" xlink:href="#aq"/></g><path fill="#5f6572" d="M631 20c-350 0-501-215-501-562 0-355 162-560 502-560 250 0 399 118 446 323l-192 14c-23-124-109-196-262-196-242 0-305 171-305 415 1 245 61 427 304 427 151 0 248-77 267-215l190 12C1039-107 883 20 631 20" id="aw"/><g id="g"><use transform="matrix(0.010850694444444444,0,0,0.010850694444444444,0,0)" xlink:href="#ap"/><use transform="matrix(0.010850694444444444,0,0,0.010850694444444444,13.335503472222221,0)" xlink:href="#ap"/><use transform="matrix(0.010850694444444444,0,0,0.010850694444444444,26.671006944444443,0)" xlink:href="#aw"/><use transform="matrix(0.010850694444444444,0,0,0.010850694444444444,40.006510416666664,0)" xlink:href="#ac"/><use transform="matrix(0.010850694444444444,0,0,0.010850694444444444,53.342013888888886,0)" xlink:href="#aq"/><use transform="matrix(0.010850694444444444,0,0,0.010850694444444444,66.67751736111111,0)" xlink:href="#ar"/><use transform="matrix(0.010850694444444444,0,0,0.010850694444444444,80.01302083333334,0)" xlink:href="#ac"/><use transform="matrix(0.010850694444444444,0,0,0.010850694444444444,93.34852430555557,0)" xlink:href="#ao"/><use transform="matrix(0.010850694444444444,0,0,0.010850694444444444,106.6840277777778,0)" xlink:href="#ae"/><use transform="matrix(0.010850694444444444,0,0,0.010850694444444444,120.01953125000003,0)" xlink:href="#ao"/><use transform="matrix(0.010850694444444444,0,0,0.010850694444444444,133.35503472222226,0)" xlink:href="#ai"/><use transform="matrix(0.010850694444444444,0,0,0.010850694444444444,146.69053819444449,0)" xlink:href="#as"/><use transform="matrix(0.010850694444444444,0,0,0.010850694444444444,160.0260416666667,0)" xlink:href="#as"/></g><g id="h"><use transform="matrix(0.010850694444444444,0,0,0.010850694444444444,0,0)" xlink:href="#aq"/><use transform="matrix(0.010850694444444444,0,0,0.010850694444444444,13.335503472222221,0)" xlink:href="#ac"/><use transform="matrix(0.010850694444444444,0,0,0.010850694444444444,26.671006944444443,0)" xlink:href="#ad"/><use transform="matrix(0.010850694444444444,0,0,0.010850694444444444,40.006510416666664,0)" xlink:href="#ae"/><use transform="matrix(0.010850694444444444,0,0,0.010850694444444444,53.342013888888886,0)" xlink:href="#af"/></g><path fill="#5f6572" d="M715 0H502L69-1082h202c94 253 197 500 285 758 19 57 36 126 52 183 96-335 234-626 350-941h201" id="ax"/><path fill="#5f6572" d="M1018 0H814c-67-224-138-444-200-673C552-442 476-224 407 0H204L21-1082h178c43 310 105 601 126 933 54-225 128-425 193-638h193c63 212 134 415 185 638 22-336 90-622 136-933h176" id="ay"/><g id="i"><use transform="matrix(0.010850694444444444,0,0,0.010850694444444444,0,0)" xlink:href="#ax"/><use transform="matrix(0.010850694444444444,0,0,0.010850694444444444,13.335503472222221,0)" xlink:href="#ak"/><use transform="matrix(0.010850694444444444,0,0,0.010850694444444444,26.671006944444443,0)" xlink:href="#ae"/><use transform="matrix(0.010850694444444444,0,0,0.010850694444444444,40.006510416666664,0)" xlink:href="#ay"/></g><g id="j"><use transform="matrix(0.010850694444444444,0,0,0.010850694444444444,0,0)" xlink:href="#aw"/><use transform="matrix(0.010850694444444444,0,0,0.010850694444444444,13.335503472222221,0)" xlink:href="#ac"/><use transform="matrix(0.010850694444444444,0,0,0.010850694444444444,26.671006944444443,0)" xlink:href="#ao"/><use transform="matrix(0.010850694444444444,0,0,0.010850694444444444,40.006510416666664,0)" xlink:href="#ai"/><use transform="matrix(0.010850694444444444,0,0,0.010850694444444444,53.342013888888886,0)" xlink:href="#aj"/><use transform="matrix(0.010850694444444444,0,0,0.010850694444444444,66.67751736111111,0)" xlink:href="#ac"/><use transform="matrix(0.010850694444444444,0,0,0.010850694444444444,80.01302083333334,0)" xlink:href="#af"/><use transform="matrix(0.010850694444444444,0,0,0.010850694444444444,93.34852430555557,0)" xlink:href="#af"/><use transform="matrix(0.010850694444444444,0,0,0.010850694444444444,106.6840277777778,0)" xlink:href="#ae"/><use transform="matrix(0.010850694444444444,0,0,0.010850694444444444,120.01953125000003,0)" xlink:href="#aj"/></g><path fill="#5f6572" d="M162 0v-1349h919v156H353v422h668v154H353v461h769V0H162" id="az"/><g id="k"><use transform="matrix(0.010850694444444444,0,0,0.010850694444444444,0,0)" xlink:href="#az"/><use transform="matrix(0.010850694444444444,0,0,0.010850694444444444,13.335503472222221,0)" xlink:href="#ao"/><use transform="matrix(0.010850694444444444,0,0,0.010850694444444444,26.671006944444443,0)" xlink:href="#ax"/><use transform="matrix(0.010850694444444444,0,0,0.010850694444444444,40.006510416666664,0)" xlink:href="#ak"/><use transform="matrix(0.010850694444444444,0,0,0.010850694444444444,53.342013888888886,0)" xlink:href="#aj"/><use transform="matrix(0.010850694444444444,0,0,0.010850694444444444,66.67751736111111,0)" xlink:href="#ac"/><use transform="matrix(0.010850694444444444,0,0,0.010850694444444444,80.01302083333334,0)" xlink:href="#ao"/><use transform="matrix(0.010850694444444444,0,0,0.010850694444444444,93.34852430555557,0)" xlink:href="#aq"/><use transform="matrix(0.010850694444444444,0,0,0.010850694444444444,106.6840277777778,0)" xlink:href="#ae"/><use transform="matrix(0.010850694444444444,0,0,0.010850694444444444,120.01953125000003,0)" xlink:href="#ao"/><use transform="matrix(0.010850694444444444,0,0,0.010850694444444444,133.35503472222226,0)" xlink:href="#ai"/></g><path fill="#5f6572" d="M1000-272c3 95 12 159 101 161 21 0 41-3 59-7V-6c-44 10-86 16-139 16-141 2-191-84-197-217h-6C748-76 648 20 446 20c-207 0-318-120-318-322 0-266 194-348 454-354l236-4c12-191-40-305-222-305-140 0-220 47-232 172l-188-17c33-204 181-292 423-292 255 0 401 118 401 364v466zm-683-27c0 109 63 184 175 182 166-3 259-96 306-217 24-65 20-120 20-200-232 7-501-28-501 235" id="aA"/><g id="l"><use transform="matrix(0.010850694444444444,0,0,0.010850694444444444,0,0)" xlink:href="#an"/><use transform="matrix(0.010850694444444444,0,0,0.010850694444444444,13.335503472222221,0)" xlink:href="#aA"/><use transform="matrix(0.010850694444444444,0,0,0.010850694444444444,26.671006944444443,0)" xlink:href="#ao"/><use transform="matrix(0.010850694444444444,0,0,0.010850694444444444,40.006510416666664,0)" xlink:href="#ax"/><use transform="matrix(0.010850694444444444,0,0,0.010850694444444444,53.342013888888886,0)" xlink:href="#aA"/><use transform="matrix(0.010850694444444444,0,0,0.010850694444444444,66.67751736111111,0)" xlink:href="#ag"/></g><g id="m"><use transform="matrix(0.010850694444444444,0,0,0.010850694444444444,0,0)" xlink:href="#an"/><use transform="matrix(0.010850694444444444,0,0,0.010850694444444444,13.335503472222221,0)" xlink:href="#ac"/><use transform="matrix(0.010850694444444444,0,0,0.010850694444444444,26.671006944444443,0)" xlink:href="#ao"/><use transform="matrix(0.010850694444444444,0,0,0.010850694444444444,40.006510416666664,0)" xlink:href="#ai"/><use transform="matrix(0.010850694444444444,0,0,0.010850694444444444,53.342013888888886,0)" xlink:href="#aj"/><use transform="matrix(0.010850694444444444,0,0,0.010850694444444444,66.67751736111111,0)" xlink:href="#ac"/><use transform="matrix(0.010850694444444444,0,0,0.010850694444444444,80.01302083333334,0)" xlink:href="#af"/><use transform="matrix(0.010850694444444444,0,0,0.010850694444444444,93.34852430555557,0)" xlink:href="#af"/><use transform="matrix(0.010850694444444444,0,0,0.010850694444444444,106.6840277777778,0)" xlink:href="#ae"/><use transform="matrix(0.010850694444444444,0,0,0.010850694444444444,120.01953125000003,0)" xlink:href="#aj"/></g><path fill="#5f6572" d="M1121-976c0 225-142 341-344 379L1177 0H957L591-575H353V0H162v-1349h482c281 3 477 100 477 373zM633-726c181-1 296-73 296-247 0-149-101-223-304-223H353v470h280" id="aB"/><g id="n"><use transform="matrix(0.010850694444444444,0,0,0.010850694444444444,0,0)" xlink:href="#aB"/><use transform="matrix(0.010850694444444444,0,0,0.010850694444444444,13.335503472222221,0)" xlink:href="#am"/><use transform="matrix(0.010850694444444444,0,0,0.010850694444444444,26.671006944444443,0)" xlink:href="#ao"/><use transform="matrix(0.010850694444444444,0,0,0.010850694444444444,40.006510416666664,0)" xlink:href="#ao"/><use transform="matrix(0.010850694444444444,0,0,0.010850694444444444,53.342013888888886,0)" xlink:href="#aA"/><use transform="matrix(0.010850694444444444,0,0,0.010850694444444444,66.67751736111111,0)" xlink:href="#al"/><use transform="matrix(0.010850694444444444,0,0,0.010850694444444444,80.01302083333334,0)" xlink:href="#af"/><use transform="matrix(0.010850694444444444,0,0,0.010850694444444444,93.34852430555557,0)" xlink:href="#ae"/></g><g id="o"><use transform="matrix(0.010850694444444444,0,0,0.010850694444444444,0,0)" xlink:href="#ab"/><use transform="matrix(0.010850694444444444,0,0,0.010850694444444444,13.335503472222221,0)" xlink:href="#ae"/><use transform="matrix(0.010850694444444444,0,0,0.010850694444444444,26.671006944444443,0)" xlink:href="#ao"/><use transform="matrix(0.010850694444444444,0,0,0.010850694444444444,40.006510416666664,0)" xlink:href="#am"/></g><path fill="#5f6572" d="M237 0v-1349h191v1193h672V0H237" id="aC"/><g id="p"><use transform="matrix(0.010850694444444444,0,0,0.010850694444444444,0,0)" xlink:href="#aC"/><use transform="matrix(0.010850694444444444,0,0,0.010850694444444444,13.335503472222221,0)" xlink:href="#ae"/><use transform="matrix(0.010850694444444444,0,0,0.010850694444444444,26.671006944444443,0)" xlink:href="#ax"/><use transform="matrix(0.010850694444444444,0,0,0.010850694444444444,40.006510416666664,0)" xlink:href="#ae"/><use transform="matrix(0.010850694444444444,0,0,0.010850694444444444,53.342013888888886,0)" xlink:href="#af"/></g><g id="q"><use transform="matrix(0.010850694444444444,0,0,0.010850694444444444,0,0)" xlink:href="#ab"/><use transform="matrix(0.010850694444444444,0,0,0.010850694444444444,13.335503472222221,0)" xlink:href="#ae"/><use transform="matrix(0.010850694444444444,0,0,0.010850694444444444,26.671006944444443,0)" xlink:href="#ao"/><use transform="matrix(0.010850694444444444,0,0,0.010850694444444444,40.006510416666664,0)" xlink:href="#am"/></g><path fill="#5f6572" d="M202-1349h823v156H709v1037h316V0H202v-156h316v-1037H202v-156" id="aD"/><g id="r"><use transform="matrix(0.010850694444444444,0,0,0.010850694444444444,0,0)" xlink:href="#aD"/><use transform="matrix(0.010850694444444444,0,0,0.010850694444444444,13.335503472222221,0)" xlink:href="#ao"/><use transform="matrix(0.010850694444444444,0,0,0.010850694444444444,26.671006944444443,0)" xlink:href="#ai"/><use transform="matrix(0.010850694444444444,0,0,0.010850694444444444,40.006510416666664,0)" xlink:href="#ae"/><use transform="matrix(0.010850694444444444,0,0,0.010850694444444444,53.342013888888886,0)" xlink:href="#aj"/><use transform="matrix(0.010850694444444444,0,0,0.010850694444444444,66.67751736111111,0)" xlink:href="#aA"/><use transform="matrix(0.010850694444444444,0,0,0.010850694444444444,80.01302083333334,0)" xlink:href="#aw"/><use transform="matrix(0.010850694444444444,0,0,0.010850694444444444,93.34852430555557,0)" xlink:href="#ai"/><use transform="matrix(0.010850694444444444,0,0,0.010850694444444444,106.6840277777778,0)" xlink:href="#ak"/><use transform="matrix(0.010850694444444444,0,0,0.010850694444444444,120.01953125000003,0)" xlink:href="#al"/><use transform="matrix(0.010850694444444444,0,0,0.010850694444444444,133.35503472222226,0)" xlink:href="#af"/><use transform="matrix(0.010850694444444444,0,0,0.010850694444444444,146.69053819444449,0)" xlink:href="#ae"/></g><g id="s"><use transform="matrix(0.010850694444444444,0,0,0.010850694444444444,0,0)" xlink:href="#az"/><use transform="matrix(0.010850694444444444,0,0,0.010850694444444444,13.335503472222221,0)" xlink:href="#ao"/><use transform="matrix(0.010850694444444444,0,0,0.010850694444444444,26.671006944444443,0)" xlink:href="#ai"/><use transform="matrix(0.010850694444444444,0,0,0.010850694444444444,40.006510416666664,0)" xlink:href="#ak"/><use transform="matrix(0.010850694444444444,0,0,0.010850694444444444,53.342013888888886,0)" xlink:href="#ai"/><use transform="matrix(0.010850694444444444,0,0,0.010850694444444444,66.67751736111111,0)" xlink:href="#av"/></g><path fill="#5f6572" d="M655-135c108 0 195-33 260-74v-336H622v-160h479v572C981-54 839 20 639 20c-388 0-526-306-526-701 0-406 129-689 529-689 261 0 392 137 461 331l-171 56c-47-131-122-231-288-231-281 0-330 245-330 533 0 179 28 314 84 407s142 139 257 139" id="aE"/><g id="t"><use transform="matrix(0.010850694444444444,0,0,0.010850694444444444,0,0)" xlink:href="#aE"/><use transform="matrix(0.010850694444444444,0,0,0.010850694444444444,13.335503472222221,0)" xlink:href="#aA"/><use transform="matrix(0.010850694444444444,0,0,0.010850694444444444,26.671006944444443,0)" xlink:href="#aq"/><use transform="matrix(0.010850694444444444,0,0,0.010850694444444444,40.006510416666664,0)" xlink:href="#ae"/></g><g id="u"><use transform="matrix(0.010850694444444444,0,0,0.010850694444444444,0,0)" xlink:href="#aE"/><use transform="matrix(0.010850694444444444,0,0,0.010850694444444444,13.335503472222221,0)" xlink:href="#aA"/><use transform="matrix(0.010850694444444444,0,0,0.010850694444444444,26.671006944444443,0)" xlink:href="#aq"/><use transform="matrix(0.010850694444444444,0,0,0.010850694444444444,40.006510416666664,0)" xlink:href="#ae"/></g><g id="v"><use transform="matrix(0.010850694444444444,0,0,0.010850694444444444,0,0)" xlink:href="#an"/><use transform="matrix(0.010850694444444444,0,0,0.010850694444444444,13.335503472222221,0)" xlink:href="#aA"/><use transform="matrix(0.010850694444444444,0,0,0.010850694444444444,26.671006944444443,0)" xlink:href="#ao"/><use transform="matrix(0.010850694444444444,0,0,0.010850694444444444,40.006510416666664,0)" xlink:href="#ax"/><use transform="matrix(0.010850694444444444,0,0,0.010850694444444444,53.342013888888886,0)" xlink:href="#aA"/><use transform="matrix(0.010850694444444444,0,0,0.010850694444444444,66.67751736111111,0)" xlink:href="#ag"/></g><g id="w"><use transform="matrix(0.010850694444444444,0,0,0.010850694444444444,0,0)" xlink:href="#ab"/><use transform="matrix(0.010850694444444444,0,0,0.010850694444444444,13.335503472222221,0)" xlink:href="#ae"/><use transform="matrix(0.010850694444444444,0,0,0.010850694444444444,26.671006944444443,0)" xlink:href="#ao"/><use transform="matrix(0.010850694444444444,0,0,0.010850694444444444,40.006510416666664,0)" xlink:href="#am"/></g><path fill="#5f6572" d="M622-1349c296 4 497 117 497 404 0 282-193 424-485 431H353V0H162v-1349h460zm-15 684c195-3 320-88 320-277 0-184-129-255-328-254H353v531h254" id="aF"/><g id="x"><use transform="matrix(0.010850694444444444,0,0,0.010850694444444444,0,0)" xlink:href="#aF"/><use transform="matrix(0.010850694444444444,0,0,0.010850694444444444,13.335503472222221,0)" xlink:href="#aA"/><use transform="matrix(0.010850694444444444,0,0,0.010850694444444444,26.671006944444443,0)" xlink:href="#am"/><use transform="matrix(0.010850694444444444,0,0,0.010850694444444444,40.006510416666664,0)" xlink:href="#ag"/><use transform="matrix(0.010850694444444444,0,0,0.010850694444444444,53.342013888888886,0)" xlink:href="#ae"/></g><g id="y"><use transform="matrix(0.010850694444444444,0,0,0.010850694444444444,0,0)" xlink:href="#ab"/><use transform="matrix(0.010850694444444444,0,0,0.010850694444444444,13.335503472222221,0)" xlink:href="#ae"/><use transform="matrix(0.010850694444444444,0,0,0.010850694444444444,26.671006944444443,0)" xlink:href="#ao"/><use transform="matrix(0.010850694444444444,0,0,0.010850694444444444,40.006510416666664,0)" xlink:href="#am"/></g><g id="z"><use transform="matrix(0.010850694444444444,0,0,0.010850694444444444,0,0)" xlink:href="#ab"/><use transform="matrix(0.010850694444444444,0,0,0.010850694444444444,13.335503472222221,0)" xlink:href="#aA"/><use transform="matrix(0.010850694444444444,0,0,0.010850694444444444,26.671006944444443,0)" xlink:href="#ak"/><use transform="matrix(0.010850694444444444,0,0,0.010850694444444444,40.006510416666664,0)" xlink:href="#ao"/></g><g id="A"><use transform="matrix(0.010850694444444444,0,0,0.010850694444444444,0,0)" xlink:href="#aC"/><use transform="matrix(0.010850694444444444,0,0,0.010850694444444444,13.335503472222221,0)" xlink:href="#ae"/><use transform="matrix(0.010850694444444444,0,0,0.010850694444444444,26.671006944444443,0)" xlink:href="#ax"/><use transform="matrix(0.010850694444444444,0,0,0.010850694444444444,40.006510416666664,0)" xlink:href="#ae"/><use transform="matrix(0.010850694444444444,0,0,0.010850694444444444,53.342013888888886,0)" xlink:href="#af"/></g><path fill="#5f6572" d="M148-1120c216-7 379-89 463-229h166v1204h353V0H157v-145h439v-1021c-79 124-254 184-448 194v-148" id="aG"/><use transform="matrix(0.010850694444444444,0,0,0.010850694444444444,0,0)" xlink:href="#aG" id="B"/><path fill="#5f6572" d="M611-1370c266 0 451 106 451 368 0 147-77 243-154 327-132 144-316 255-451 395-42 44-75 87-96 134h723V0H144v-117c124-264 387-411 582-603 73-72 151-147 151-271 0-161-104-231-266-231-163 0-249 90-268 238l-184-17c35-233 185-369 452-369" id="aH"/><use transform="matrix(0.010850694444444444,0,0,0.010850694444444444,0,0)" xlink:href="#aH" id="C"/><g id="D"><use transform="matrix(0.010850694444444444,0,0,0.010850694444444444,0,0)" xlink:href="#aF"/><use transform="matrix(0.010850694444444444,0,0,0.010850694444444444,13.335503472222221,0)" xlink:href="#af"/><use transform="matrix(0.010850694444444444,0,0,0.010850694444444444,26.671006944444443,0)" xlink:href="#aA"/><use transform="matrix(0.010850694444444444,0,0,0.010850694444444444,40.006510416666664,0)" xlink:href="#av"/><use transform="matrix(0.010850694444444444,0,0,0.010850694444444444,53.342013888888886,0)" xlink:href="#ae"/><use transform="matrix(0.010850694444444444,0,0,0.010850694444444444,66.67751736111111,0)" xlink:href="#aj"/></g><path fill="#5f6572" d="M914 0L548-499l-132 98V0H236v-1484h180v927l475-525h211L663-617 1125 0H914" id="aI"/><g id="E"><use transform="matrix(0.010850694444444444,0,0,0.010850694444444444,0,0)" xlink:href="#au"/><use transform="matrix(0.010850694444444444,0,0,0.010850694444444444,13.335503472222221,0)" xlink:href="#ar"/><use transform="matrix(0.010850694444444444,0,0,0.010850694444444444,26.671006944444443,0)" xlink:href="#ak"/><use transform="matrix(0.010850694444444444,0,0,0.010850694444444444,40.006510416666664,0)" xlink:href="#aI"/><use transform="matrix(0.010850694444444444,0,0,0.010850694444444444,53.342013888888886,0)" xlink:href="#ae"/></g><path fill="#5f6572" d="M1048-32c-2 300-135 456-433 456-222-1-358-88-400-267l184-25c22 99 100 157 222 156 184-2 248-125 248-315 0-64 3-133-2-194C807-100 706-13 524-12c-306 0-381-228-381-537 0-318 85-550 400-550 164 0 271 83 325 202h3c1-60 3-134 12-185h171c-13 339-4 702-6 1050zM585-145c210-8 284-178 284-406 0-192-52-331-177-392-33-16-69-22-104-22-223 2-259 184-259 414 0 229 31 415 256 406" id="aJ"/><g id="F"><use transform="matrix(0.010850694444444444,0,0,0.010850694444444444,0,0)" xlink:href="#au"/><use transform="matrix(0.010850694444444444,0,0,0.010850694444444444,13.335503472222221,0)" xlink:href="#ar"/><use transform="matrix(0.010850694444444444,0,0,0.010850694444444444,26.671006944444443,0)" xlink:href="#aj"/><use transform="matrix(0.010850694444444444,0,0,0.010850694444444444,40.006510416666664,0)" xlink:href="#ak"/><use transform="matrix(0.010850694444444444,0,0,0.010850694444444444,53.342013888888886,0)" xlink:href="#ao"/><use transform="matrix(0.010850694444444444,0,0,0.010850694444444444,66.67751736111111,0)" xlink:href="#aJ"/></g><path fill="#5f6572" d="M839-1335c-182-6-269 67-259 253h491v142H580V0H400v-940H138v-142h262c-15-293 132-408 418-402 94 2 200 7 281 21v145c-75-10-177-14-260-17" id="aK"/><g id="G"><use transform="matrix(0.010850694444444444,0,0,0.010850694444444444,0,0)" xlink:href="#aF"/><use transform="matrix(0.010850694444444444,0,0,0.010850694444444444,13.335503472222221,0)" xlink:href="#af"/><use transform="matrix(0.010850694444444444,0,0,0.010850694444444444,26.671006944444443,0)" xlink:href="#aA"/><use transform="matrix(0.010850694444444444,0,0,0.010850694444444444,40.006510416666664,0)" xlink:href="#ai"/><use transform="matrix(0.010850694444444444,0,0,0.010850694444444444,53.342013888888886,0)" xlink:href="#aK"/><use transform="matrix(0.010850694444444444,0,0,0.010850694444444444,66.67751736111111,0)" xlink:href="#ac"/><use transform="matrix(0.010850694444444444,0,0,0.010850694444444444,80.01302083333334,0)" xlink:href="#aj"/><use transform="matrix(0.010850694444444444,0,0,0.010850694444444444,93.34852430555557,0)" xlink:href="#aq"/></g><path fill="#5f6572" d="M1003 0L516-638 353-469V0H162v-1349h191v673l572-673h225L646-777 1227 0h-224" id="aL"/><g id="H"><use transform="matrix(0.010850694444444444,0,0,0.010850694444444444,0,0)" xlink:href="#aL"/><use transform="matrix(0.010850694444444444,0,0,0.010850694444444444,13.335503472222221,0)" xlink:href="#ae"/><use transform="matrix(0.010850694444444444,0,0,0.010850694444444444,26.671006944444443,0)" xlink:href="#av"/></g><path fill="#5f6572" d="M473-1349c438-1 655 221 652 661C1122-268 945-8 532 0H162v-1349h311zm42 1193c308-4 416-205 418-532 2-330-131-509-459-505H353v1037h162" id="aM"/><g id="I"><use transform="matrix(0.010850694444444444,0,0,0.010850694444444444,0,0)" xlink:href="#aM"/><use transform="matrix(0.010850694444444444,0,0,0.010850694444444444,13.335503472222221,0)" xlink:href="#ac"/><use transform="matrix(0.010850694444444444,0,0,0.010850694444444444,26.671006944444443,0)" xlink:href="#ac"/><use transform="matrix(0.010850694444444444,0,0,0.010850694444444444,40.006510416666664,0)" xlink:href="#aj"/></g><path fill="#5f6572" d="M709-1193V0H519v-1193H76v-156h1076v156H709" id="aN"/><g id="J"><use transform="matrix(0.010850694444444444,0,0,0.010850694444444444,0,0)" xlink:href="#aN"/><use transform="matrix(0.010850694444444444,0,0,0.010850694444444444,13.335503472222221,0)" xlink:href="#aj"/><use transform="matrix(0.010850694444444444,0,0,0.010850694444444444,26.671006944444443,0)" xlink:href="#ak"/><use transform="matrix(0.010850694444444444,0,0,0.010850694444444444,40.006510416666664,0)" xlink:href="#aJ"/><use transform="matrix(0.010850694444444444,0,0,0.010850694444444444,53.342013888888886,0)" xlink:href="#aJ"/><use transform="matrix(0.010850694444444444,0,0,0.010850694444444444,66.67751736111111,0)" xlink:href="#ae"/><use transform="matrix(0.010850694444444444,0,0,0.010850694444444444,80.01302083333334,0)" xlink:href="#aj"/></g><path fill="#5f6572" d="M802-711c201 25 350 118 350 331C1152-95 921 0 634 0H162v-1349c401 9 908-74 908 327 0 184-111 275-268 311zm-224-69c174-2 300-51 300-218 0-163-124-198-302-198H353v416h225zM353-153c281-2 612 44 606-244-5-271-329-233-606-234v478" id="aO"/><path fill="#5f6572" d="M932 0L611-444 288 0H94l415-556-397-526h199l300 421 298-421h201L713-558 1133 0H932" id="aP"/><g id="K"><use transform="matrix(0.010850694444444444,0,0,0.010850694444444444,0,0)" xlink:href="#aO"/><use transform="matrix(0.010850694444444444,0,0,0.010850694444444444,13.335503472222221,0)" xlink:href="#ac"/><use transform="matrix(0.010850694444444444,0,0,0.010850694444444444,26.671006944444443,0)" xlink:href="#aP"/></g><g id="L"><use transform="matrix(0.010850694444444444,0,0,0.010850694444444444,0,0)" xlink:href="#an"/><use transform="matrix(0.010850694444444444,0,0,0.010850694444444444,13.335503472222221,0)" xlink:href="#ac"/><use transform="matrix(0.010850694444444444,0,0,0.010850694444444444,26.671006944444443,0)" xlink:href="#ao"/><use transform="matrix(0.010850694444444444,0,0,0.010850694444444444,40.006510416666664,0)" xlink:href="#ai"/><use transform="matrix(0.010850694444444444,0,0,0.010850694444444444,53.342013888888886,0)" xlink:href="#aj"/><use transform="matrix(0.010850694444444444,0,0,0.010850694444444444,66.67751736111111,0)" xlink:href="#ac"/><use transform="matrix(0.010850694444444444,0,0,0.010850694444444444,80.01302083333334,0)" xlink:href="#af"/><use transform="matrix(0.010850694444444444,0,0,0.010850694444444444,93.34852430555557,0)" xlink:href="#af"/><use transform="matrix(0.010850694444444444,0,0,0.010850694444444444,106.6840277777778,0)" xlink:href="#ae"/><use transform="matrix(0.010850694444444444,0,0,0.010850694444444444,120.01953125000003,0)" xlink:href="#aj"/></g><path fill="#5f6572" d="M604-135c236 0 291-142 291-376v-838h190v859c5 340-142 510-480 510-326 0-463-164-463-492v-877h191v851c-3 222 46 363 271 363" id="aQ"/><g id="M"><use transform="matrix(0.010850694444444444,0,0,0.010850694444444444,0,0)" xlink:href="#aQ"/><use transform="matrix(0.010850694444444444,0,0,0.010850694444444444,13.335503472222221,0)" xlink:href="#ar"/><use transform="matrix(0.010850694444444444,0,0,0.010850694444444444,26.671006944444443,0)" xlink:href="#ad"/><use transform="matrix(0.010850694444444444,0,0,0.010850694444444444,40.006510416666664,0)" xlink:href="#aA"/><use transform="matrix(0.010850694444444444,0,0,0.010850694444444444,53.342013888888886,0)" xlink:href="#ai"/><use transform="matrix(0.010850694444444444,0,0,0.010850694444444444,66.67751736111111,0)" xlink:href="#ae"/><use transform="matrix(0.010850694444444444,0,0,0.010850694444444444,80.01302083333334,0)" xlink:href="#ag"/></g><g id="N"><use transform="matrix(0.010850694444444444,0,0,0.010850694444444444,0,0)" xlink:href="#aB"/><use transform="matrix(0.010850694444444444,0,0,0.010850694444444444,13.335503472222221,0)" xlink:href="#ae"/><use transform="matrix(0.010850694444444444,0,0,0.010850694444444444,26.671006944444443,0)" xlink:href="#ao"/><use transform="matrix(0.010850694444444444,0,0,0.010850694444444444,40.006510416666664,0)" xlink:href="#ad"/><use transform="matrix(0.010850694444444444,0,0,0.010850694444444444,53.342013888888886,0)" xlink:href="#ae"/><use transform="matrix(0.010850694444444444,0,0,0.010850694444444444,66.67751736111111,0)" xlink:href="#aj"/><use transform="matrix(0.010850694444444444,0,0,0.010850694444444444,80.01302083333334,0)" xlink:href="#ag"/></g><path fill="#5f6572" d="M875 0v-623H353V0H162v-1349h191v566h522v-566h191V0H875" id="aR"/><g id="O"><use transform="matrix(0.010850694444444444,0,0,0.010850694444444444,0,0)" xlink:href="#aR"/><use transform="matrix(0.010850694444444444,0,0,0.010850694444444444,13.335503472222221,0)" xlink:href="#ae"/><use transform="matrix(0.010850694444444444,0,0,0.010850694444444444,26.671006944444443,0)" xlink:href="#af"/><use transform="matrix(0.010850694444444444,0,0,0.010850694444444444,40.006510416666664,0)" xlink:href="#ar"/></g><path fill="#5f6572" d="M102-681c0-398 126-689 513-689 165 0 291 58 379 174s132 287 132 515c-1 318-88 554-298 657-123 61-317 58-438-3-206-104-288-341-288-654zm749 406c94-160 97-656-5-807-57-85-130-132-231-132-104 0-178 47-234 132-101 153-99 655 1 809 57 89 130 138 232 138 109 0 184-49 237-140" id="aS"/><g id="P"><use transform="matrix(0.010850694444444444,0,0,0.010850694444444444,0,0)" xlink:href="#aS"/><use transform="matrix(0.010850694444444444,0,0,0.010850694444444444,13.335503472222221,0)" xlink:href="#ar"/><use transform="matrix(0.010850694444444444,0,0,0.010850694444444444,26.671006944444443,0)" xlink:href="#ai"/><use transform="matrix(0.010850694444444444,0,0,0.010850694444444444,40.006510416666664,0)" xlink:href="#ak"/><use transform="matrix(0.010850694444444444,0,0,0.010850694444444444,53.342013888888886,0)" xlink:href="#ac"/><use transform="matrix(0.010850694444444444,0,0,0.010850694444444444,66.67751736111111,0)" xlink:href="#ao"/><use transform="matrix(0.010850694444444444,0,0,0.010850694444444444,80.01302083333334,0)" xlink:href="#ag"/></g><path fill="#5f6572" d="M912-211c-10-84-18-177-18-274v-864h172V0H836L316-1130c7 79 16 167 16 254V0H162v-1349h222" id="aT"/><g id="Q"><use transform="matrix(0.010850694444444444,0,0,0.010850694444444444,0,0)" xlink:href="#aT"/><use transform="matrix(0.010850694444444444,0,0,0.010850694444444444,13.335503472222221,0)" xlink:href="#ae"/><use transform="matrix(0.010850694444444444,0,0,0.010850694444444444,26.671006944444443,0)" xlink:href="#ay"/></g><g id="R"><use transform="matrix(0.010850694444444444,0,0,0.010850694444444444,0,0)" xlink:href="#aE"/><use transform="matrix(0.010850694444444444,0,0,0.010850694444444444,13.335503472222221,0)" xlink:href="#aA"/><use transform="matrix(0.010850694444444444,0,0,0.010850694444444444,26.671006944444443,0)" xlink:href="#aq"/><use transform="matrix(0.010850694444444444,0,0,0.010850694444444444,40.006510416666664,0)" xlink:href="#ae"/></g><g id="S"><use transform="matrix(0.010850694444444444,0,0,0.010850694444444444,0,0)" xlink:href="#an"/><use transform="matrix(0.010850694444444444,0,0,0.010850694444444444,13.335503472222221,0)" xlink:href="#ac"/><use transform="matrix(0.010850694444444444,0,0,0.010850694444444444,26.671006944444443,0)" xlink:href="#ao"/><use transform="matrix(0.010850694444444444,0,0,0.010850694444444444,40.006510416666664,0)" xlink:href="#ai"/><use transform="matrix(0.010850694444444444,0,0,0.010850694444444444,53.342013888888886,0)" xlink:href="#ak"/><use transform="matrix(0.010850694444444444,0,0,0.010850694444444444,66.67751736111111,0)" xlink:href="#ao"/><use transform="matrix(0.010850694444444444,0,0,0.010850694444444444,80.01302083333334,0)" xlink:href="#am"/><use transform="matrix(0.010850694444444444,0,0,0.010850694444444444,93.34852430555557,0)" xlink:href="#ae"/></g><g id="T"><use transform="matrix(0.010850694444444444,0,0,0.010850694444444444,0,0)" xlink:href="#aO"/><use transform="matrix(0.010850694444444444,0,0,0.010850694444444444,13.335503472222221,0)" xlink:href="#am"/><use transform="matrix(0.010850694444444444,0,0,0.010850694444444444,26.671006944444443,0)" xlink:href="#ai"/><use transform="matrix(0.010850694444444444,0,0,0.010850694444444444,40.006510416666664,0)" xlink:href="#ai"/><use transform="matrix(0.010850694444444444,0,0,0.010850694444444444,53.342013888888886,0)" xlink:href="#ac"/><use transform="matrix(0.010850694444444444,0,0,0.010850694444444444,66.67751736111111,0)" xlink:href="#ao"/></g><g id="U"><use transform="matrix(0.010850694444444444,0,0,0.010850694444444444,0,0)" xlink:href="#au"/><use transform="matrix(0.010850694444444444,0,0,0.010850694444444444,13.335503472222221,0)" xlink:href="#af"/><use transform="matrix(0.010850694444444444,0,0,0.010850694444444444,26.671006944444443,0)" xlink:href="#ak"/><use transform="matrix(0.010850694444444444,0,0,0.010850694444444444,40.006510416666664,0)" xlink:href="#ad"/><use transform="matrix(0.010850694444444444,0,0,0.010850694444444444,53.342013888888886,0)" xlink:href="#ae"/><use transform="matrix(0.010850694444444444,0,0,0.010850694444444444,66.67751736111111,0)" xlink:href="#aj"/></g><g id="V"><use transform="matrix(0.010850694444444444,0,0,0.010850694444444444,0,0)" xlink:href="#aD"/><use transform="matrix(0.010850694444444444,0,0,0.010850694444444444,13.335503472222221,0)" xlink:href="#aq"/><use transform="matrix(0.010850694444444444,0,0,0.010850694444444444,26.671006944444443,0)" xlink:href="#aA"/><use transform="matrix(0.010850694444444444,0,0,0.010850694444444444,40.006510416666664,0)" xlink:href="#aJ"/><use transform="matrix(0.010850694444444444,0,0,0.010850694444444444,53.342013888888886,0)" xlink:href="#ae"/></g><g id="W"><use transform="matrix(0.010850694444444444,0,0,0.010850694444444444,0,0)" xlink:href="#aN"/><use transform="matrix(0.010850694444444444,0,0,0.010850694444444444,13.335503472222221,0)" xlink:href="#ae"/><use transform="matrix(0.010850694444444444,0,0,0.010850694444444444,26.671006944444443,0)" xlink:href="#aP"/><use transform="matrix(0.010850694444444444,0,0,0.010850694444444444,40.006510416666664,0)" xlink:href="#ai"/></g><g id="X"><use transform="matrix(0.010850694444444444,0,0,0.010850694444444444,0,0)" xlink:href="#az"/><use transform="matrix(0.010850694444444444,0,0,0.010850694444444444,13.335503472222221,0)" xlink:href="#aP"/><use transform="matrix(0.010850694444444444,0,0,0.010850694444444444,26.671006944444443,0)" xlink:href="#ak"/><use transform="matrix(0.010850694444444444,0,0,0.010850694444444444,40.006510416666664,0)" xlink:href="#ai"/></g><g id="Y"><use transform="matrix(0.010850694444444444,0,0,0.010850694444444444,0,0)" xlink:href="#aS"/><use transform="matrix(0.010850694444444444,0,0,0.010850694444444444,13.335503472222221,0)" xlink:href="#ar"/><use transform="matrix(0.010850694444444444,0,0,0.010850694444444444,26.671006944444443,0)" xlink:href="#ai"/><use transform="matrix(0.010850694444444444,0,0,0.010850694444444444,40.006510416666664,0)" xlink:href="#ak"/><use transform="matrix(0.010850694444444444,0,0,0.010850694444444444,53.342013888888886,0)" xlink:href="#ac"/><use transform="matrix(0.010850694444444444,0,0,0.010850694444444444,66.67751736111111,0)" xlink:href="#ao"/><use transform="matrix(0.010850694444444444,0,0,0.010850694444444444,80.01302083333334,0)" xlink:href="#ag"/></g><g id="Z"><use transform="matrix(0.010850694444444444,0,0,0.010850694444444444,0,0)" xlink:href="#aR"/><use transform="matrix(0.010850694444444444,0,0,0.010850694444444444,13.335503472222221,0)" xlink:href="#ae"/><use transform="matrix(0.010850694444444444,0,0,0.010850694444444444,26.671006944444443,0)" xlink:href="#af"/><use transform="matrix(0.010850694444444444,0,0,0.010850694444444444,40.006510416666664,0)" xlink:href="#ar"/></g><g id="aa"><use transform="matrix(0.010850694444444444,0,0,0.010850694444444444,0,0)" xlink:href="#az"/><use transform="matrix(0.010850694444444444,0,0,0.010850694444444444,13.335503472222221,0)" xlink:href="#aP"/><use transform="matrix(0.010850694444444444,0,0,0.010850694444444444,26.671006944444443,0)" xlink:href="#ak"/><use transform="matrix(0.010850694444444444,0,0,0.010850694444444444,40.006510416666664,0)" xlink:href="#ai"/></g></defs></g></svg>