<svg xmlns="http://www.w3.org/2000/svg" xmlns:xlink="http://www.w3.org/1999/xlink" xmlns:lucid="lucid" width="1706" height="809"><g transform="translate(0 0)" lucid:page-tab-id="pzoccp1dm1Uy"><path d="M0 0h1705.97v812.1H0z" fill="#21252c"/><path d="M60.95 166a6 6 0 0 1 6-6h228a6 6 0 0 1 6 6v49a6 6 0 0 1-6 6h-228a6 6 0 0 1-6-6z" stroke="#a9a9a9" fill="#f5fbff"/><use xlink:href="#a" transform="matrix(1,0,0,1,68.94914034118024,168) translate(18.651475694444414 29.28168402777778)"/><path d="M60.95 266a6 6 0 0 1 6-6h228a6 6 0 0 1 6 6v49a6 6 0 0 1-6 6h-228a6 6 0 0 1-6-6z" stroke="#a9a9a9" fill="#f5fbff"/><use xlink:href="#b" transform="matrix(1,0,0,1,68.94914034118024,268) translate(5.315972222222186 29.28168402777778)"/><path d="M541.9 216a6 6 0 0 1 6-6h228a6 6 0 0 1 6 6v49a6 6 0 0 1-6 6h-228a6 6 0 0 1-6-6z" stroke="#a9a9a9" fill="#f5fbff"/><use xlink:href="#c" transform="matrix(1,0,0,1,549.8982806823606,218) translate(51.990234374999986 29.28168402777778)"/><path d="M1270.44 496.67a6 6 0 0 1 6-6h228a6 6 0 0 1 6 6v89a6 6 0 0 1-6 6h-228a6 6 0 0 1-6-6z" stroke="#a9a9a9" fill="#f5fbff"/><use xlink:href="#a" transform="matrix(1,0,0,1,1278.4380542067693,498.6687459292184) translate(18.651475694444414 49.28168402777778)"/><path d="M1270.44 166a6 6 0 0 1 6-6h228a6 6 0 0 1 6 6v89a6 6 0 0 1-6 6h-228a6 6 0 0 1-6-6z" stroke="#a9a9a9" fill="#f5fbff"/><use xlink:href="#b" transform="matrix(1,0,0,1,1278.4380542067693,168) translate(5.315972222222186 49.28168402777778)"/><path d="M401.9 366a6 6 0 0 1 6-6h228a6 6 0 0 1 6 6v49a6 6 0 0 1-6 6h-228a6 6 0 0 1-6-6z" stroke="#a9a9a9" fill="#f5fbff"/><use xlink:href="#d" transform="matrix(1,0,0,1,409.8982806823605,368) translate(31.986979166666643 29.28168402777778)"/><path d="M681.9 366a6 6 0 0 1 6-6h228a6 6 0 0 1 6 6v49a6 6 0 0 1-6 6h-228a6 6 0 0 1-6-6z" stroke="#a9a9a9" fill="#f5fbff"/><use xlink:href="#e" transform="matrix(1,0,0,1,689.8982806823606,368) translate(31.986979166666643 29.28168402777778)"/><path d="M1130.44 694a6 6 0 0 1 6-6h228a6 6 0 0 1 6 6v49a6 6 0 0 1-6 6h-228a6 6 0 0 1-6-6z" stroke="#a9a9a9" fill="#f5fbff"/><use xlink:href="#f" transform="matrix(1,0,0,1,1138.4380542067693,695.9948304564575) translate(11.9837239583333 29.28168402777778)"/><path d="M1410.44 694a6 6 0 0 1 6-6h228a6 6 0 0 1 6 6v49a6 6 0 0 1-6 6h-228a6 6 0 0 1-6-6z" stroke="#a9a9a9" fill="#f5fbff"/><use xlink:href="#g" transform="matrix(1,0,0,1,1418.4380542067693,695.9948304564575) translate(11.9837239583333 29.28168402777778)"/><path d="M421.9 46a6 6 0 0 1 6-6h748a6 6 0 0 1 6 6v64.67a6 6 0 0 1-6 6h-748a6 6 0 0 1-6-6z" stroke="#000" stroke-opacity="0" stroke-width="2" fill="#fff" fill-opacity="0"/><use xlink:href="#h" transform="matrix(1,0,0,1,426.8982806823606,45) translate(4.939778645833542 44.484374999999986)"/><use xlink:href="#i" transform="matrix(1,0,0,1,426.8982806823606,45) translate(204.97233072916677 44.484374999999986)"/><use xlink:href="#j" transform="matrix(1,0,0,1,426.8982806823606,45) translate(385.0016276041667 44.484374999999986)"/><use xlink:href="#k" transform="matrix(1,0,0,1,426.8982806823606,45) translate(565.0309244791665 44.484374999999986)"/><path d="M521.9 359v-37.5a6 6 0 0 1 6-6h128a6 6 0 0 0 6-6v-21.62" stroke="#bdf139" fill="none"/><path d="M522.37 359.5h-.95v-.5h.95z" stroke="#bdf139" stroke-width=".05" fill="#bdf139"/><path d="M661.9 273.12l4.63 14.26h-9.27z" stroke="#bdf139" fill="#fff"/><path d="M801.9 359v-37.5a6 6 0 0 0-6-6h-128a6 6 0 0 1-6-6v-21.62" stroke="#bdf139" fill="none"/><path d="M802.37 359.5h-.95v-.5h.95z" stroke="#bdf139" stroke-width=".05" fill="#bdf139"/><path d="M661.9 273.12l4.63 14.26h-9.27z" stroke="#bdf139" fill="#fff"/><path d="M812.77 240.5H985.4a6 6 0 0 1 6 6v269.47a6 6 0 0 0 6 6h242.16" stroke="#bdf139" fill="none"/><path d="M783.1 240.5l14.86-14.85 15.14 14.85-15.14 14.85zM1269.23 521.97l-14.85 14.85-15.15-14.85 15.15-14.85z" stroke="#bdf139" fill="#bdf139"/><use xlink:href="#l" transform="matrix(1,0,0,1,1217.8330826293616,494.5466728660247) translate(0 18.489583333333332)"/><path d="M812.77 240.5H985.4a6 6 0 0 0 6-6v-31.56a6 6 0 0 1 6-6h242.16" stroke="#bdf139" fill="none"/><path d="M783.1 240.5l14.86-14.85 15.14 14.85-15.14 14.85zM1269.23 196.94l-14.85 14.85-15.15-14.86 15.15-14.84z" stroke="#bdf139" fill="#bdf139"/><use xlink:href="#l" transform="matrix(1,0,0,1,1220.292509856646,169.51854677878765) translate(0 18.489583333333332)"/><use xlink:href="#l" transform="matrix(1,0,0,1,823.8238090094003,213.07335069444446) translate(0 18.489583333333332)"/><path d="M331.82 190.5h83.6a6 6 0 0 1 6 6v38a6 6 0 0 0 6 6h83.6" stroke="#bdf139" fill="none"/><path d="M302.16 190.5L317 175.65l15.16 14.85L317 205.35zM540.7 240.5l-14.86 14.85-15.15-14.85 15.14-14.85z" stroke="#bdf139" fill="#bdf139"/><use xlink:href="#l" transform="matrix(1,0,0,1,339.2870209185835,163.07335069444446) translate(0 18.489583333333332)"/><path d="M331.82 290.5h83.6a6 6 0 0 0 6-6v-38a6 6 0 0 1 6-6h83.6" stroke="#bdf139" fill="none"/><path d="M302.16 290.5L317 275.65l15.16 14.85L317 305.35zM540.7 240.5l-14.86 14.85-15.15-14.85 15.14-14.85z" stroke="#bdf139" fill="#bdf139"/><use xlink:href="#l" transform="matrix(1,0,0,1,339.2870209185835,263.07335069444446) translate(0 18.489583333333332)"/><use xlink:href="#l" transform="matrix(1,0,0,1,493.03363727042404,213.07335069444446) translate(0 18.489583333333332)"/><path d="M1269.03 569.47h-222.6a6 6 0 0 1-6-6V504.5a6 6 0 0 0-6-6H330.88" stroke="#bdf139" fill="none"/><path d="M1251.74 579.65l17.22-10.18-17.22-10.2" stroke="#bdf139" fill="none"/><path d="M301.2 498.5l14.86-14.85 15.15 14.85-15.14 14.84z" stroke="#bdf139" fill="#bdf139"/><use xlink:href="#l" transform="matrix(1,0,0,1,1219.6488236207765,573.4656756649259) translate(0 18.489583333333332)"/><path d="M1250.44 687v-41.17a6 6 0 0 1 6-6h128a6 6 0 0 0 6-6v-25.28" stroke="#bdf139" fill="none"/><path d="M1250.9 687.5h-.94v-.52h.95z" stroke="#bdf139" stroke-width=".05" fill="#bdf139"/><path d="M1390.44 593.8l4.63 14.25h-9.27z" stroke="#bdf139" fill="#bdf139"/><path d="M1530.44 687v-41.17a6 6 0 0 0-6-6h-128a6 6 0 0 1-6-6v-25.28" stroke="#bdf139" fill="none"/><path d="M1530.9 687.5h-.94v-.52h.95z" stroke="#bdf139" stroke-width=".05" fill="#bdf139"/><path d="M1390.44 593.8l4.63 14.25h-9.27z" stroke="#bdf139" fill="#bdf139"/><path d="M330.88 498.5h703.56a6 6 0 0 0 6-6V242.78a6 6 0 0 1 6-6h222.6" stroke="#bdf139" fill="none"/><path d="M301.2 498.5l14.86-14.85 15.15 14.85-15.14 14.84z" stroke="#bdf139" fill="#bdf139"/><path d="M1251.74 246.96l17.22-10.2-17.22-10.17" stroke="#bdf139" fill="none"/><use xlink:href="#l" transform="matrix(1,0,0,1,1219.4895743314785,240.77528588301993) translate(0 18.489583333333332)"/><use xlink:href="#l" transform="matrix(1,0,0,1,340.1956665533339,471.068181150902) translate(0 18.489583333333332)"/><path d="M1410.44 366a6 6 0 0 1 6-6h228a6 6 0 0 1 6 6v49a6 6 0 0 1-6 6h-228a6 6 0 0 1-6-6z" stroke="#a9a9a9" fill="#f5fbff"/><use xlink:href="#m" transform="matrix(1,0,0,1,1418.4380542067688,368) translate(-1.3517795138889284 29.28168402777778)"/><path d="M1130.44 366a6 6 0 0 1 6-6h228a6 6 0 0 1 6 6v49a6 6 0 0 1-6 6h-228a6 6 0 0 1-6-6z" stroke="#a9a9a9" fill="#f5fbff"/><use xlink:href="#n" transform="matrix(1,0,0,1,1138.4380542067693,368) translate(-1.3517795138889284 29.28168402777778)"/><path d="M1250.44 359v-42.5a6 6 0 0 1 6-6h128a6 6 0 0 0 6-6v-26.62" stroke="#bdf139" fill="none"/><path d="M1250.9 359.5h-.94v-.5h.95z" stroke="#bdf139" stroke-width=".05" fill="#bdf139"/><path d="M1390.44 263.12l4.63 14.26h-9.27z" stroke="#bdf139" fill="#bdf139"/><path d="M1530.44 359v-42.5a6 6 0 0 0-6-6h-128a6 6 0 0 1-6-6v-26.62" stroke="#bdf139" fill="none"/><path d="M1530.9 359.5h-.94v-.5h.95z" stroke="#bdf139" stroke-width=".05" fill="#bdf139"/><path d="M1390.44 263.12l4.63 14.26h-9.27z" stroke="#bdf139" fill="#bdf139"/><path d="M60 474a6 6 0 0 1 6-6h228a6 6 0 0 1 6 6v49a6 6 0 0 1-6 6H66a6 6 0 0 1-6-6z" stroke="#a9a9a9" fill="#f5fbff"/><g><use xlink:href="#o" transform="matrix(1,0,0,1,68.00000000000004,475.9948304564575) translate(31.986979166666643 29.28168402777778)"/></g><defs><path fill="#5f6572" d="M1229 0H935l-92-330H387L295 0H0l443-1349h344zM615-1167c-46 213-110 412-166 615h332c-56-204-119-401-166-615" id="p"/><path fill="#5f6572" d="M881 0L558-557 431-415V0H136v-1349h295v599l436-599h343L750-770 1229 0H881" id="q"/><path fill="#5f6572" d="M1113-274C1038-96 884 20 626 20c-352 0-526-209-526-566 0-358 185-556 530-556 358 0 496 251 499 615H395c5 180 68 319 245 319 102 0 186-45 208-129zM857-663c-6-177-128-307-315-247-94 30-141 121-145 247h460" id="r"/><path fill="#5f6572" d="M143 212c82 12 185 12 233-31 50-45 83-117 110-192L38-1082h297c100 284 211 557 291 861 72-305 176-578 270-861h294L742 57c-80 192-156 368-417 368-60 0-131-4-182-13V212" id="s"/><path fill="#5f6572" d="M872-915c-35-112-84-223-220-223-91 0-156 41-204 116-89 137-87 550 2 688 51 79 116 122 209 122 150 0 197-126 240-244l273 52C1094-168 961 20 656 20 239 20 80-262 80-681c0-418 154-689 568-689 289 0 425 167 496 389" id="t"/><path fill="#5f6572" d="M616-1102c361 0 521 202 521 560 0 354-171 562-527 562C259 20 92-192 92-542c0-351 169-560 524-560zm-9 930c200-2 236-165 236-370 0-199-27-367-223-367-195 0-233 146-233 367 0 129 18 223 55 282s92 88 165 88" id="u"/><path fill="#5f6572" d="M768-1103c247 0 336 167 336 416V0H824v-619c-3-164-24-273-171-273-164 0-229 142-229 312V0H143c-4-359 9-736-8-1082h268c7 63 12 146 13 215h4c67-145 160-236 348-236" id="v"/><path fill="#5f6572" d="M711 13c-250 0-386-99-385-349l2-556H161v-190h181l88-282h176v282h385v190H606v530c-10 130 45 186 174 184 91-2 176-11 255-27v186C933-1 833 13 711 13" id="w"/><path fill="#5f6572" d="M875-1102c70 0 148 7 206 17v237c-110-17-267-37-359 15-123 69-192 207-192 395V0H250c-10-367 32-789-52-1082h271c19 69 36 149 46 228h4c52-151 151-250 356-248" id="x"/><path fill="#5f6572" d="M794-190h353V0H118v-190h395v-1104H223v-190h571v1294" id="y"/><g id="a"><use transform="matrix(0.010850694444444444,0,0,0.010850694444444444,0,0)" xlink:href="#p"/><use transform="matrix(0.010850694444444444,0,0,0.010850694444444444,13.335503472222221,0)" xlink:href="#q"/><use transform="matrix(0.010850694444444444,0,0,0.010850694444444444,26.671006944444443,0)" xlink:href="#r"/><use transform="matrix(0.010850694444444444,0,0,0.010850694444444444,40.006510416666664,0)" xlink:href="#s"/><use transform="matrix(0.010850694444444444,0,0,0.010850694444444444,53.342013888888886,0)" xlink:href="#t"/><use transform="matrix(0.010850694444444444,0,0,0.010850694444444444,66.67751736111111,0)" xlink:href="#u"/><use transform="matrix(0.010850694444444444,0,0,0.010850694444444444,80.01302083333334,0)" xlink:href="#v"/><use transform="matrix(0.010850694444444444,0,0,0.010850694444444444,93.34852430555557,0)" xlink:href="#w"/><use transform="matrix(0.010850694444444444,0,0,0.010850694444444444,106.6840277777778,0)" xlink:href="#x"/><use transform="matrix(0.010850694444444444,0,0,0.010850694444444444,120.01953125000003,0)" xlink:href="#u"/><use transform="matrix(0.010850694444444444,0,0,0.010850694444444444,133.35503472222226,0)" xlink:href="#y"/><use transform="matrix(0.010850694444444444,0,0,0.010850694444444444,146.69053819444449,0)" xlink:href="#y"/><use transform="matrix(0.010850694444444444,0,0,0.010850694444444444,160.0260416666667,0)" xlink:href="#r"/><use transform="matrix(0.010850694444444444,0,0,0.010850694444444444,173.36154513888894,0)" xlink:href="#x"/></g><path fill="#5f6572" d="M305-1169c27 366 9 780 14 1169H99v-1349h347c49 189 108 371 150 564 12 56 15 107 23 166 33-270 117-487 176-730h335V0H908c5-390-13-801 16-1169-52 285-130 541-199 809H507c-70-267-148-525-202-809" id="z"/><path fill="#5f6572" d="M471 20c-247 0-336-169-336-415v-687h281v607c4 148 31 285 172 285 152 0 207-150 207-312v-580h281c4 359-9 736 8 1082H816c-7-63-11-146-12-215h-5C736-76 644 20 471 20" id="A"/><path fill="#5f6572" d="M622-916c-112 2-200 14-200 111 0 90 89 101 168 121 234 58 514 77 514 368C1104-4 751 54 434 5 267-21 161-112 121-270l247-37c24 111 113 145 252 141 114-3 226-12 226-124 0-101-103-113-192-134-225-54-490-76-490-351 0-247 201-328 458-328 245 0 413 88 457 292l-249 26c-16-98-92-133-208-131" id="B"/><g id="b"><use transform="matrix(0.010850694444444444,0,0,0.010850694444444444,0,0)" xlink:href="#p"/><use transform="matrix(0.010850694444444444,0,0,0.010850694444444444,13.335503472222221,0)" xlink:href="#z"/><use transform="matrix(0.010850694444444444,0,0,0.010850694444444444,26.671006944444443,0)" xlink:href="#u"/><use transform="matrix(0.010850694444444444,0,0,0.010850694444444444,40.006510416666664,0)" xlink:href="#A"/><use transform="matrix(0.010850694444444444,0,0,0.010850694444444444,53.342013888888886,0)" xlink:href="#B"/><use transform="matrix(0.010850694444444444,0,0,0.010850694444444444,66.67751736111111,0)" xlink:href="#r"/><use transform="matrix(0.010850694444444444,0,0,0.010850694444444444,80.01302083333334,0)" xlink:href="#t"/><use transform="matrix(0.010850694444444444,0,0,0.010850694444444444,93.34852430555557,0)" xlink:href="#u"/><use transform="matrix(0.010850694444444444,0,0,0.010850694444444444,106.6840277777778,0)" xlink:href="#v"/><use transform="matrix(0.010850694444444444,0,0,0.010850694444444444,120.01953125000003,0)" xlink:href="#w"/><use transform="matrix(0.010850694444444444,0,0,0.010850694444444444,133.35503472222226,0)" xlink:href="#x"/><use transform="matrix(0.010850694444444444,0,0,0.010850694444444444,146.69053819444449,0)" xlink:href="#u"/><use transform="matrix(0.010850694444444444,0,0,0.010850694444444444,160.0260416666667,0)" xlink:href="#y"/><use transform="matrix(0.010850694444444444,0,0,0.010850694444444444,173.36154513888894,0)" xlink:href="#y"/><use transform="matrix(0.010850694444444444,0,0,0.010850694444444444,186.69704861111117,0)" xlink:href="#r"/><use transform="matrix(0.010850694444444444,0,0,0.010850694444444444,200.0325520833334,0)" xlink:href="#x"/></g><g id="c"><use transform="matrix(0.010850694444444444,0,0,0.010850694444444444,0,0)" xlink:href="#p"/><use transform="matrix(0.010850694444444444,0,0,0.010850694444444444,13.335503472222221,0)" xlink:href="#t"/><use transform="matrix(0.010850694444444444,0,0,0.010850694444444444,26.671006944444443,0)" xlink:href="#u"/><use transform="matrix(0.010850694444444444,0,0,0.010850694444444444,40.006510416666664,0)" xlink:href="#v"/><use transform="matrix(0.010850694444444444,0,0,0.010850694444444444,53.342013888888886,0)" xlink:href="#w"/><use transform="matrix(0.010850694444444444,0,0,0.010850694444444444,66.67751736111111,0)" xlink:href="#x"/><use transform="matrix(0.010850694444444444,0,0,0.010850694444444444,80.01302083333334,0)" xlink:href="#u"/><use transform="matrix(0.010850694444444444,0,0,0.010850694444444444,93.34852430555557,0)" xlink:href="#y"/><use transform="matrix(0.010850694444444444,0,0,0.010850694444444444,106.6840277777778,0)" xlink:href="#B"/></g><path fill="#5f6572" d="M650-216c90 0 157-35 208-74v-235H584v-218h544v558C1004-84 858 20 635 20 235 20 80-276 80-681c0-416 146-689 558-689 277 0 398 160 462 375l-274 54c-31-108-73-197-185-197-231 0-262 217-262 457 0 149 22 263 67 344s113 121 204 121" id="C"/><path fill="#5f6572" d="M775-193C708-75 621 20 439 20 226 20 106-93 106-306c0-251 170-341 417-346l223-4c4-143-12-264-148-264-103 0-141 58-150 153l-293-14c37-219 194-321 455-321 263 0 418 130 417 390v392c1 84 5 161 89 160 21 0 42-2 62-6v152c-57 15-108 27-180 26-145 0-202-73-217-205h-6zm-256 17c168 0 234-139 227-325-166 4-347-25-347 173 0 94 33 152 120 152" id="D"/><path fill="#5f6572" d="M934-1102c199 0 220 177 220 381V0H926c-2-260 10-533-4-785-4-72-14-138-83-138-34 0-61 27-81 81s-29 134-29 241V0H501c-2-260 9-533-5-785-4-72-13-138-82-138-46 0-65 47-80 93-21 67-30 155-30 248V0H75c-3-360 6-732-6-1082h209c6 50 3 123 8 175 36-100 83-195 216-195 135 0 166 79 196 196 42-105 93-196 236-196" id="E"/><g id="d"><use transform="matrix(0.010850694444444444,0,0,0.010850694444444444,0,0)" xlink:href="#C"/><use transform="matrix(0.010850694444444444,0,0,0.010850694444444444,13.335503472222221,0)" xlink:href="#D"/><use transform="matrix(0.010850694444444444,0,0,0.010850694444444444,26.671006944444443,0)" xlink:href="#E"/><use transform="matrix(0.010850694444444444,0,0,0.010850694444444444,40.006510416666664,0)" xlink:href="#r"/><use transform="matrix(0.010850694444444444,0,0,0.010850694444444444,53.342013888888886,0)" xlink:href="#t"/><use transform="matrix(0.010850694444444444,0,0,0.010850694444444444,66.67751736111111,0)" xlink:href="#u"/><use transform="matrix(0.010850694444444444,0,0,0.010850694444444444,80.01302083333334,0)" xlink:href="#v"/><use transform="matrix(0.010850694444444444,0,0,0.010850694444444444,93.34852430555557,0)" xlink:href="#w"/><use transform="matrix(0.010850694444444444,0,0,0.010850694444444444,106.6840277777778,0)" xlink:href="#x"/><use transform="matrix(0.010850694444444444,0,0,0.010850694444444444,120.01953125000003,0)" xlink:href="#u"/><use transform="matrix(0.010850694444444444,0,0,0.010850694444444444,133.35503472222226,0)" xlink:href="#y"/><use transform="matrix(0.010850694444444444,0,0,0.010850694444444444,146.69053819444449,0)" xlink:href="#B"/></g><g id="e"><use transform="matrix(0.010850694444444444,0,0,0.010850694444444444,0,0)" xlink:href="#z"/><use transform="matrix(0.010850694444444444,0,0,0.010850694444444444,13.335503472222221,0)" xlink:href="#r"/><use transform="matrix(0.010850694444444444,0,0,0.010850694444444444,26.671006944444443,0)" xlink:href="#v"/><use transform="matrix(0.010850694444444444,0,0,0.010850694444444444,40.006510416666664,0)" xlink:href="#A"/><use transform="matrix(0.010850694444444444,0,0,0.010850694444444444,53.342013888888886,0)" xlink:href="#t"/><use transform="matrix(0.010850694444444444,0,0,0.010850694444444444,66.67751736111111,0)" xlink:href="#u"/><use transform="matrix(0.010850694444444444,0,0,0.010850694444444444,80.01302083333334,0)" xlink:href="#v"/><use transform="matrix(0.010850694444444444,0,0,0.010850694444444444,93.34852430555557,0)" xlink:href="#w"/><use transform="matrix(0.010850694444444444,0,0,0.010850694444444444,106.6840277777778,0)" xlink:href="#x"/><use transform="matrix(0.010850694444444444,0,0,0.010850694444444444,120.01953125000003,0)" xlink:href="#u"/><use transform="matrix(0.010850694444444444,0,0,0.010850694444444444,133.35503472222226,0)" xlink:href="#y"/><use transform="matrix(0.010850694444444444,0,0,0.010850694444444444,146.69053819444449,0)" xlink:href="#B"/></g><g id="f"><use transform="matrix(0.010850694444444444,0,0,0.010850694444444444,0,0)" xlink:href="#C"/><use transform="matrix(0.010850694444444444,0,0,0.010850694444444444,13.335503472222221,0)" xlink:href="#D"/><use transform="matrix(0.010850694444444444,0,0,0.010850694444444444,26.671006944444443,0)" xlink:href="#E"/><use transform="matrix(0.010850694444444444,0,0,0.010850694444444444,40.006510416666664,0)" xlink:href="#r"/><use transform="matrix(0.010850694444444444,0,0,0.010850694444444444,53.342013888888886,0)" xlink:href="#q"/><use transform="matrix(0.010850694444444444,0,0,0.010850694444444444,66.67751736111111,0)" xlink:href="#r"/><use transform="matrix(0.010850694444444444,0,0,0.010850694444444444,80.01302083333334,0)" xlink:href="#s"/><use transform="matrix(0.010850694444444444,0,0,0.010850694444444444,93.34852430555557,0)" xlink:href="#t"/><use transform="matrix(0.010850694444444444,0,0,0.010850694444444444,106.6840277777778,0)" xlink:href="#u"/><use transform="matrix(0.010850694444444444,0,0,0.010850694444444444,120.01953125000003,0)" xlink:href="#v"/><use transform="matrix(0.010850694444444444,0,0,0.010850694444444444,133.35503472222226,0)" xlink:href="#w"/><use transform="matrix(0.010850694444444444,0,0,0.010850694444444444,146.69053819444449,0)" xlink:href="#x"/><use transform="matrix(0.010850694444444444,0,0,0.010850694444444444,160.0260416666667,0)" xlink:href="#u"/><use transform="matrix(0.010850694444444444,0,0,0.010850694444444444,173.36154513888894,0)" xlink:href="#y"/><use transform="matrix(0.010850694444444444,0,0,0.010850694444444444,186.69704861111117,0)" xlink:href="#B"/></g><g id="g"><use transform="matrix(0.010850694444444444,0,0,0.010850694444444444,0,0)" xlink:href="#z"/><use transform="matrix(0.010850694444444444,0,0,0.010850694444444444,13.335503472222221,0)" xlink:href="#r"/><use transform="matrix(0.010850694444444444,0,0,0.010850694444444444,26.671006944444443,0)" xlink:href="#v"/><use transform="matrix(0.010850694444444444,0,0,0.010850694444444444,40.006510416666664,0)" xlink:href="#A"/><use transform="matrix(0.010850694444444444,0,0,0.010850694444444444,53.342013888888886,0)" xlink:href="#q"/><use transform="matrix(0.010850694444444444,0,0,0.010850694444444444,66.67751736111111,0)" xlink:href="#r"/><use transform="matrix(0.010850694444444444,0,0,0.010850694444444444,80.01302083333334,0)" xlink:href="#s"/><use transform="matrix(0.010850694444444444,0,0,0.010850694444444444,93.34852430555557,0)" xlink:href="#t"/><use transform="matrix(0.010850694444444444,0,0,0.010850694444444444,106.6840277777778,0)" xlink:href="#u"/><use transform="matrix(0.010850694444444444,0,0,0.010850694444444444,120.01953125000003,0)" xlink:href="#v"/><use transform="matrix(0.010850694444444444,0,0,0.010850694444444444,133.35503472222226,0)" xlink:href="#w"/><use transform="matrix(0.010850694444444444,0,0,0.010850694444444444,146.69053819444449,0)" xlink:href="#x"/><use transform="matrix(0.010850694444444444,0,0,0.010850694444444444,160.0260416666667,0)" xlink:href="#u"/><use transform="matrix(0.010850694444444444,0,0,0.010850694444444444,173.36154513888894,0)" xlink:href="#y"/><use transform="matrix(0.010850694444444444,0,0,0.010850694444444444,186.69704861111117,0)" xlink:href="#B"/></g><path fill="#fff" d="M650-1214c-281 0-336 244-336 533 0 295 60 546 347 546 188 0 263-142 322-282l159 65C1058-155 935 20 659 20c-401 0-546-295-546-701 0-407 135-689 536-689 264 0 391 146 466 335l-168 65c-47-129-127-244-297-244" id="F"/><path fill="#fff" d="M102-681c0-398 126-689 513-689 165 0 291 58 379 174s132 287 132 515c-1 318-88 554-298 657-123 61-317 58-438-3-206-104-288-341-288-654zm749 406c94-160 97-656-5-807-57-85-130-132-231-132-104 0-178 47-234 132-101 153-99 655 1 809 57 89 130 138 232 138 109 0 184-49 237-140" id="G"/><path fill="#fff" d="M285-1169c8 382 2 780 4 1169H129v-1349h237c86 239 188 461 253 720 69-258 169-481 255-720h225V0H937c2-390-5-788 6-1169-75 255-170 488-259 729H547c-90-240-185-475-262-729" id="H"/><path fill="#fff" d="M622-1349c296 4 497 117 497 404 0 282-193 424-485 431H353V0H162v-1349h460zm-15 684c195-3 320-88 320-277 0-184-129-255-328-254H353v531h254" id="I"/><path fill="#fff" d="M912-211c-10-84-18-177-18-274v-864h172V0H836L316-1130c7 79 16 167 16 254V0H162v-1349h222" id="J"/><path fill="#fff" d="M162 0v-1349h919v156H353v422h668v154H353v461h769V0H162" id="K"/><path fill="#fff" d="M709-1193V0H519v-1193H76v-156h1076v156H709" id="L"/><g id="h"><use transform="matrix(0.01627604166666666,0,0,0.01627604166666666,0,0)" xlink:href="#F"/><use transform="matrix(0.01627604166666666,0,0,0.01627604166666666,20.003255208333325,0)" xlink:href="#G"/><use transform="matrix(0.01627604166666666,0,0,0.01627604166666666,40.00651041666665,0)" xlink:href="#H"/><use transform="matrix(0.01627604166666666,0,0,0.01627604166666666,60.00976562499997,0)" xlink:href="#I"/><use transform="matrix(0.01627604166666666,0,0,0.01627604166666666,80.0130208333333,0)" xlink:href="#G"/><use transform="matrix(0.01627604166666666,0,0,0.01627604166666666,100.01627604166663,0)" xlink:href="#J"/><use transform="matrix(0.01627604166666666,0,0,0.01627604166666666,120.01953124999996,0)" xlink:href="#K"/><use transform="matrix(0.01627604166666666,0,0,0.01627604166666666,140.0227864583333,0)" xlink:href="#J"/><use transform="matrix(0.01627604166666666,0,0,0.01627604166666666,160.0260416666666,0)" xlink:href="#L"/></g><path fill="#fff" d="M473-1349c438-1 655 221 652 661C1122-268 945-8 532 0H162v-1349h311zm42 1193c308-4 416-205 418-532 2-330-131-509-459-505H353v1037h162" id="M"/><path fill="#fff" d="M202-1349h823v156H709v1037h316V0H202v-156h316v-1037H202v-156" id="N"/><path fill="#fff" d="M1034 0L896-382H333L196 0H0l510-1349h217L1228 0h-194zM847-531c-77-225-157-447-231-674-69 231-154 451-232 674h463" id="O"/><path fill="#fff" d="M655-135c108 0 195-33 260-74v-336H622v-160h479v572C981-54 839 20 639 20c-388 0-526-306-526-701 0-406 129-689 529-689 261 0 392 137 461 331l-171 56c-47-131-122-231-288-231-281 0-330 245-330 533 0 179 28 314 84 407s142 139 257 139" id="P"/><path fill="#fff" d="M1121-976c0 225-142 341-344 379L1177 0H957L591-575H353V0H162v-1349h482c281 3 477 100 477 373zM633-726c181-1 296-73 296-247 0-149-101-223-304-223H353v470h280" id="Q"/><path fill="#fff" d="M496 0v-299h235V0H496zm0-783v-299h235v299H496" id="R"/><g id="i"><use transform="matrix(0.01627604166666666,0,0,0.01627604166666666,0,0)" xlink:href="#M"/><use transform="matrix(0.01627604166666666,0,0,0.01627604166666666,20.003255208333325,0)" xlink:href="#N"/><use transform="matrix(0.01627604166666666,0,0,0.01627604166666666,40.00651041666665,0)" xlink:href="#O"/><use transform="matrix(0.01627604166666666,0,0,0.01627604166666666,60.00976562499997,0)" xlink:href="#P"/><use transform="matrix(0.01627604166666666,0,0,0.01627604166666666,80.0130208333333,0)" xlink:href="#Q"/><use transform="matrix(0.01627604166666666,0,0,0.01627604166666666,100.01627604166663,0)" xlink:href="#O"/><use transform="matrix(0.01627604166666666,0,0,0.01627604166666666,120.01953124999996,0)" xlink:href="#H"/><use transform="matrix(0.01627604166666666,0,0,0.01627604166666666,140.0227864583333,0)" xlink:href="#R"/></g><path fill="#fff" d="M615-1102c343 0 484 203 482 560-1 347-147 562-488 562-336 0-475-219-479-562-4-349 156-560 485-560zm-8 989c240 0 301-180 301-429 0-245-55-427-290-427-236 0-299 181-299 427 0 243 61 429 288 429" id="S"/><path fill="#fff" d="M706-1102c241 0 344 136 343 381V0H868v-695c1-168-57-273-220-268-190 6-283 138-283 336V0H185c-3-360 6-732-6-1082h170c4 54 7 126 8 185h3c63-121 164-204 346-205" id="T"/><path fill="#fff" d="M682 16c-209 0-323-80-324-285v-671H190v-142h170l58-282h120v282h432v142H538v652c2 114 60 155 182 155 106 0 209-16 297-34v137C921-4 806 16 682 16" id="U"/><path fill="#fff" d="M839-1102c70 0 148 7 206 17v167c-112-18-268-36-363 15-129 69-208 203-208 395V0H294c-10-367 32-789-52-1082h171c21 75 41 161 48 250h5c67-152 152-270 373-270" id="V"/><path fill="#fff" d="M736-142h380V0H134v-142h422v-1200H267v-142h469v1342" id="W"/><path fill="#fff" d="M873-819c-18-114-119-146-250-146-163 0-245 50-245 151 0 151 170 148 294 185 182 54 388 94 388 320 0 240-189 325-439 329-245 4-410-69-454-268l159-31c24 133 136 168 295 165 144-2 270-31 270-171 0-164-195-160-331-202-167-52-350-87-350-299 0-218 173-315 413-313 220 2 373 77 412 260" id="X"/><g id="j"><use transform="matrix(0.01627604166666666,0,0,0.01627604166666666,0,0)" xlink:href="#F"/><use transform="matrix(0.01627604166666666,0,0,0.01627604166666666,20.003255208333325,0)" xlink:href="#S"/><use transform="matrix(0.01627604166666666,0,0,0.01627604166666666,40.00651041666665,0)" xlink:href="#T"/><use transform="matrix(0.01627604166666666,0,0,0.01627604166666666,60.00976562499997,0)" xlink:href="#U"/><use transform="matrix(0.01627604166666666,0,0,0.01627604166666666,80.0130208333333,0)" xlink:href="#V"/><use transform="matrix(0.01627604166666666,0,0,0.01627604166666666,100.01627604166663,0)" xlink:href="#S"/><use transform="matrix(0.01627604166666666,0,0,0.01627604166666666,120.01953124999996,0)" xlink:href="#W"/><use transform="matrix(0.01627604166666666,0,0,0.01627604166666666,140.0227864583333,0)" xlink:href="#X"/></g><path fill="#fff" d="M614-1226c-167 1-283 53-283 213 0 183 186 193 334 234 230 63 463 120 463 409 0 286-219 387-518 390C309 23 131-98 79-338l185-37c34 165 149 248 351 246 184-2 324-58 324-238 0-203-207-221-372-266-210-57-422-111-422-377 0-267 201-356 470-360 279-5 430 101 480 324l-188 33c-28-141-121-215-293-213" id="Y"/><path fill="#fff" d="M528 20c-247 0-343-132-343-381v-721h180v686c-4 177 45 284 224 277 194-8 279-136 279-336v-627h181c3 360-6 732 6 1082H885c-4-54-7-126-8-185h-3C809-64 714 20 528 20" id="Z"/><path fill="#fff" d="M365-904c58-129 161-200 334-200 130 0 228 46 293 138s98 233 98 420c0 189-34 331-102 425S824 20 698 20c-170 0-275-64-336-184 0 55-3 116-9 164H179c5-68 6-147 6-223v-1261h180c-2 193 4 394-4 580h4zm283 791c221 0 256-197 256-427 0-229-34-425-254-425-236 0-285 195-285 441 0 237 53 411 283 411" id="aa"/><path fill="#fff" d="M168 279c222 39 310-114 368-290L66-1082h192c120 299 249 590 362 896 115-301 235-597 351-896h190L705 0c-65 164-130 320-275 396-67 36-177 35-262 18V279" id="ab"/><path fill="#fff" d="M617-1102c355 0 481 238 477 599H322c5 222 84 388 301 388 144 0 244-59 284-166l158 45C1002-72 854 20 623 20c-342 0-490-220-490-568 0-346 151-554 484-554zm291 461c-18-192-90-328-289-328-194 0-287 128-295 328h584" id="ac"/><path fill="#fff" d="M904-1102c199 0 220 177 220 381V0H956v-686c-3-114 0-215-60-264-70-33-125-4-158 71-26 56-39 140-39 252V0H531v-686c-3-114-1-215-61-264-78-41-136 24-157 84-24 69-39 159-39 259V0H105c-3-360 6-732-6-1082h149c6 50 3 123 8 175 36-100 83-195 216-195 135 0 166 79 196 196 42-105 93-196 236-196" id="ad"/><g id="k"><use transform="matrix(0.01627604166666666,0,0,0.01627604166666666,0,0)" xlink:href="#Y"/><use transform="matrix(0.01627604166666666,0,0,0.01627604166666666,20.003255208333325,0)" xlink:href="#Z"/><use transform="matrix(0.01627604166666666,0,0,0.01627604166666666,40.00651041666665,0)" xlink:href="#aa"/><use transform="matrix(0.01627604166666666,0,0,0.01627604166666666,60.00976562499997,0)" xlink:href="#X"/><use transform="matrix(0.01627604166666666,0,0,0.01627604166666666,80.0130208333333,0)" xlink:href="#ab"/><use transform="matrix(0.01627604166666666,0,0,0.01627604166666666,100.01627604166663,0)" xlink:href="#X"/><use transform="matrix(0.01627604166666666,0,0,0.01627604166666666,120.01953124999996,0)" xlink:href="#U"/><use transform="matrix(0.01627604166666666,0,0,0.01627604166666666,140.0227864583333,0)" xlink:href="#ac"/><use transform="matrix(0.01627604166666666,0,0,0.01627604166666666,160.0260416666666,0)" xlink:href="#ad"/></g><path fill="#fff" d="M148-1120c216-7 379-89 463-229h166v1204h353V0H157v-145h439v-1021c-79 124-254 184-448 194v-148" id="ae"/><use transform="matrix(0.010850694444444444,0,0,0.010850694444444444,0,0)" xlink:href="#ae" id="l"/><g id="m"><use transform="matrix(0.010850694444444444,0,0,0.010850694444444444,0,0)" xlink:href="#z"/><use transform="matrix(0.010850694444444444,0,0,0.010850694444444444,13.335503472222221,0)" xlink:href="#r"/><use transform="matrix(0.010850694444444444,0,0,0.010850694444444444,26.671006944444443,0)" xlink:href="#v"/><use transform="matrix(0.010850694444444444,0,0,0.010850694444444444,40.006510416666664,0)" xlink:href="#A"/><use transform="matrix(0.010850694444444444,0,0,0.010850694444444444,53.342013888888886,0)" xlink:href="#z"/><use transform="matrix(0.010850694444444444,0,0,0.010850694444444444,66.67751736111111,0)" xlink:href="#u"/><use transform="matrix(0.010850694444444444,0,0,0.010850694444444444,80.01302083333334,0)" xlink:href="#A"/><use transform="matrix(0.010850694444444444,0,0,0.010850694444444444,93.34852430555557,0)" xlink:href="#B"/><use transform="matrix(0.010850694444444444,0,0,0.010850694444444444,106.6840277777778,0)" xlink:href="#r"/><use transform="matrix(0.010850694444444444,0,0,0.010850694444444444,120.01953125000003,0)" xlink:href="#t"/><use transform="matrix(0.010850694444444444,0,0,0.010850694444444444,133.35503472222226,0)" xlink:href="#u"/><use transform="matrix(0.010850694444444444,0,0,0.010850694444444444,146.69053819444449,0)" xlink:href="#v"/><use transform="matrix(0.010850694444444444,0,0,0.010850694444444444,160.0260416666667,0)" xlink:href="#w"/><use transform="matrix(0.010850694444444444,0,0,0.010850694444444444,173.36154513888894,0)" xlink:href="#x"/><use transform="matrix(0.010850694444444444,0,0,0.010850694444444444,186.69704861111117,0)" xlink:href="#u"/><use transform="matrix(0.010850694444444444,0,0,0.010850694444444444,200.0325520833334,0)" xlink:href="#y"/><use transform="matrix(0.010850694444444444,0,0,0.010850694444444444,213.36805555555563,0)" xlink:href="#B"/></g><g id="n"><use transform="matrix(0.010850694444444444,0,0,0.010850694444444444,0,0)" xlink:href="#C"/><use transform="matrix(0.010850694444444444,0,0,0.010850694444444444,13.335503472222221,0)" xlink:href="#D"/><use transform="matrix(0.010850694444444444,0,0,0.010850694444444444,26.671006944444443,0)" xlink:href="#E"/><use transform="matrix(0.010850694444444444,0,0,0.010850694444444444,40.006510416666664,0)" xlink:href="#r"/><use transform="matrix(0.010850694444444444,0,0,0.010850694444444444,53.342013888888886,0)" xlink:href="#z"/><use transform="matrix(0.010850694444444444,0,0,0.010850694444444444,66.67751736111111,0)" xlink:href="#u"/><use transform="matrix(0.010850694444444444,0,0,0.010850694444444444,80.01302083333334,0)" xlink:href="#A"/><use transform="matrix(0.010850694444444444,0,0,0.010850694444444444,93.34852430555557,0)" xlink:href="#B"/><use transform="matrix(0.010850694444444444,0,0,0.010850694444444444,106.6840277777778,0)" xlink:href="#r"/><use transform="matrix(0.010850694444444444,0,0,0.010850694444444444,120.01953125000003,0)" xlink:href="#t"/><use transform="matrix(0.010850694444444444,0,0,0.010850694444444444,133.35503472222226,0)" xlink:href="#u"/><use transform="matrix(0.010850694444444444,0,0,0.010850694444444444,146.69053819444449,0)" xlink:href="#v"/><use transform="matrix(0.010850694444444444,0,0,0.010850694444444444,160.0260416666667,0)" xlink:href="#w"/><use transform="matrix(0.010850694444444444,0,0,0.010850694444444444,173.36154513888894,0)" xlink:href="#x"/><use transform="matrix(0.010850694444444444,0,0,0.010850694444444444,186.69704861111117,0)" xlink:href="#u"/><use transform="matrix(0.010850694444444444,0,0,0.010850694444444444,200.0325520833334,0)" xlink:href="#y"/><use transform="matrix(0.010850694444444444,0,0,0.010850694444444444,213.36805555555563,0)" xlink:href="#B"/></g><path fill="#5f6572" d="M137 0v-1349h968v228H432v324h612v228H432v341h714V0H137" id="af"/><path fill="#5f6572" d="M774 0H438L31-1082h297c94 290 200 568 280 872 83-304 194-581 291-872h294" id="ag"/><path fill="#5f6572" d="M794-190h353V0H118v-190h395v-702H223v-190h571v892zM513-1277v-207h281v207H513" id="ah"/><g id="o"><use transform="matrix(0.010850694444444444,0,0,0.010850694444444444,0,0)" xlink:href="#p"/><use transform="matrix(0.010850694444444444,0,0,0.010850694444444444,13.335503472222221,0)" xlink:href="#af"/><use transform="matrix(0.010850694444444444,0,0,0.010850694444444444,26.671006944444443,0)" xlink:href="#v"/><use transform="matrix(0.010850694444444444,0,0,0.010850694444444444,40.006510416666664,0)" xlink:href="#ag"/><use transform="matrix(0.010850694444444444,0,0,0.010850694444444444,53.342013888888886,0)" xlink:href="#ah"/><use transform="matrix(0.010850694444444444,0,0,0.010850694444444444,66.67751736111111,0)" xlink:href="#x"/><use transform="matrix(0.010850694444444444,0,0,0.010850694444444444,80.01302083333334,0)" xlink:href="#u"/><use transform="matrix(0.010850694444444444,0,0,0.010850694444444444,93.34852430555557,0)" xlink:href="#v"/><use transform="matrix(0.010850694444444444,0,0,0.010850694444444444,106.6840277777778,0)" xlink:href="#E"/><use transform="matrix(0.010850694444444444,0,0,0.010850694444444444,120.01953125000003,0)" xlink:href="#r"/><use transform="matrix(0.010850694444444444,0,0,0.010850694444444444,133.35503472222226,0)" xlink:href="#v"/><use transform="matrix(0.010850694444444444,0,0,0.010850694444444444,146.69053819444449,0)" xlink:href="#w"/></g></defs></g></svg>