<svg xmlns="http://www.w3.org/2000/svg" xmlns:xlink="http://www.w3.org/1999/xlink" xmlns:lucid="lucid" width="1124" height="1243"><g transform="translate(-19 -19)" lucid:page-tab-id="3_0c.D5HXFb9"><path d="M0 0h1263.73v1348.8H0z" fill="#21252c"/><path d="M682.07 86a6 6 0 0 1 6-6h268a6 6 0 0 1 6 6v69a6 6 0 0 1-6 6h-268a6 6 0 0 1-6-6z" stroke="#a9a9a9" stroke-width="2" fill="#f5fbff"/><use xlink:href="#a" transform="matrix(1,0,0,1,690.0658618010332,88) translate(51.98697916666664 39.28168402777778)"/><path d="M80 346a6 6 0 0 1 6-6h308a6 6 0 0 1 6 6v73a6 6 0 0 1-6 6H86a6 6 0 0 1-6-6z" stroke="#a9a9a9" stroke-width="2" fill="#f5fbff"/><use xlink:href="#b" transform="matrix(1,0,0,1,88,348) translate(45.315972222222186 39.48355034722222)"/><path d="M475.56 606a6 6 0 0 1 6-6h308a6 6 0 0 1 6 6v69a6 6 0 0 1-6 6h-308a6 6 0 0 1-6-6z" stroke="#a9a9a9" stroke-width="2" fill="#f5fbff"/><use xlink:href="#c" transform="matrix(1,0,0,1,483.55594661436703,608) translate(51.9837239583333 39.28168402777778)"/><path d="M662.07 886a6 6 0 0 1 6-6h308a6 6 0 0 1 6 6v69a6 6 0 0 1-6 6h-308a6 6 0 0 1-6-6z" stroke="#a9a9a9" stroke-width="2" fill="#f5fbff"/><use xlink:href="#d" transform="matrix(1,0,0,1,670.065861801033,888) translate(25.312717013888843 39.28168402777778)"/><path d="M80 1126a6 6 0 0 1 6-6h308a6 6 0 0 1 6 6v69a6 6 0 0 1-6 6H86a6 6 0 0 1-6-6z" stroke="#a9a9a9" stroke-width="2" fill="#f5fbff"/><use xlink:href="#e" transform="matrix(1,0,0,1,88.00000000000006,1128) translate(118.66124131944444 39.28168402777778)"/><path d="M240 1088.25V427.82" stroke="#bdf139" stroke-width="2" fill="none"/><path d="M240 1117.6l-14.85-14.86L240 1087.6l14.85 15.14z" stroke="#bdf139" stroke-width="2" fill="#bdf139"/><path d="M250.18 445.18L240 427.96l-10.18 17.22" stroke="#bdf139" stroke-width="2" fill="none"/><use xlink:href="#f" transform="matrix(1,0,0,1,248.00000000000006,1031.6763921259626) translate(0 18.489583333333332)"/><use xlink:href="#f" transform="matrix(1,0,0,1,248.00000000000006,457.83699063734997) translate(0 18.489583333333332)"/><path d="M822.07 877.18V192.75M811.9 859.82l10.17 17.22 10.18-17.22" stroke="#bdf139" stroke-width="2" fill="none"/><path d="M822.07 163.4l14.84 14.86-14.83 15.15-14.85-15.14z" stroke="#bdf139" stroke-width="2" fill="#bdf139"/><use xlink:href="#g" transform="matrix(1,0,0,1,830.0658618010332,202.23340708120332) translate(0 18.489583333333332)"/><use xlink:href="#f" transform="matrix(1,0,0,1,830.0658618010332,822.7847249664339) translate(0 18.489583333333332)"/><path d="M880 848.25V330.02a.02.02 0 0 1 .04-.02.02.02 0 0 0 .02-.02V163.82" stroke="#bdf139" stroke-width="2" fill="none"/><path d="M880 877.6l-14.83-14.86 14.85-15.15 14.84 15.14z" stroke="#bdf139" stroke-width="2" fill="#bdf139"/><path d="M890.24 181.18l-10.18-17.22-10.18 17.22" stroke="#bdf139" stroke-width="2" fill="none"/><use xlink:href="#f" transform="matrix(1,0,0,1,888.0571078284428,196.4060620091116) translate(0 18.489583333333332)"/><use xlink:href="#f" transform="matrix(1,0,0,1,888.015014967692,818.0315520342042) translate(0 18.489583333333332)"/><path d="M924.74 163.82v9.9m0 9.9v19.82m0 9.9v19.82m0 9.9v19.82m0 9.9v19.82m0 9.9v19.8m0 9.92v19.8m0 9.92v19.8m0 9.92v19.8m0 9.9v19.83m0 9.9v19.8m0 9.9v19.82m0 9.9v9.94l-.02.02-.02.02h-.06v.02h-.02v9.94m0 9.92v19.8m0 9.92v19.8m0 9.9v19.83m0 9.9v19.8m0 9.92v19.8m0 9.92v19.8m0 9.92v19.8m0 9.9v19.82m0 9.9v19.8m0 9.92v19.8m0 9.92v19.8m0 9.92v9.9M934.92 181.18l-10.18-17.22-10.18 17.22M914.43 859.82l10.18 17.22 10.2-17.22M361.5 1088.25v-10.38m0-10.37v-20.75m0-10.38V1026l.1-.94.2-.9.37-.88.5-.8.6-.72.72-.6.8-.5.86-.37.9-.23.95-.07h10.1m10.1 0h20.17m10.1 0h20.17m10.1 0h20.17m10.1 0h20.18m10.1 0h20.17m10.1 0h20.18m10.1 0h20.16m10.1 0h20.16m10.1 0h20.18m10.1 0h20.17m10.1 0h20.18m10.1 0h20.17m10.1 0h20.17m10.1 0h20.17m10.08 0h20.18m10.1 0h20.17m10.1 0h20.17m10.1 0h20.17m10.1 0h20.17m10.1 0H983m10.1 0h20.18m10.1 0h20.17m10.1 0h20.17m10.1 0H1094l.94-.07.9-.22.88-.35.8-.5.72-.6.6-.72.5-.8.37-.88.23-.9.07-.95v-10.1m0-10.12v-20.22m0-10.12v-20.22m0-10.1v-20.23m0-10.12v-20.22m0-10.12v-20.22m0-10.1v-20.23m0-10.12v-20.22m0-10.12v-20.22m0-10.1v-20.23m0-10.12v-20.22m0-10.12v-20.22m0-10.1v-20.23m0-10.12v-20.22m0-10.12v-20.22m0-10.1v-20.23m0-10.12v-20.22m0-10.12v-20.22m0-10.1v-20.23m0-10.12v-20.22m0-10.12v-20.22m0-10.1v-20.23m0-10.12v-20.22m0-10.12v-20.22m0-10.1V286l-.07-.94-.22-.9-.35-.88-.5-.8-.6-.72-.72-.6-.8-.5-.88-.37-.9-.23-.95-.07h-9.6m-9.6 0h-19.2m-9.6 0h-19.2m-9.6 0H998m-9.6 0h-19.2m-9.6 0h-19.2m-9.6 0h-9.6l-.95-.07-.9-.22-.88-.35-.8-.5-.72-.6-.6-.72-.5-.8-.36-.88-.23-.9-.08-.95v-11m0-11v-22m0-11v-11l.07-.94.22-.9.35-.88.5-.8.6-.72.72-.6.8-.5.87-.37.9-.23.95-.07h9.4m9.4 0h9.4l.93-.07.92-.22.87-.35.8-.5.72-.6.6-.72.5-.8.36-.88.22-.9.07-.95v-10.73m0-10.73v-10.72" stroke="#bdf139" stroke-width="2" fill="none"/><path d="M361.5 1117.6l-14.85-14.87 14.85-15.14 14.85 15.14z" stroke="#bdf139" stroke-width="2" fill="#bdf139"/><path d="M965.57 181.18l-10.18-17.22-10.2 17.22" stroke="#bdf139" stroke-width="2" fill="none"/><path d="M240 336v-30a6 6 0 0 1 6-6h465.73a6 6 0 0 0 6-6V188.97" stroke="#bdf139" stroke-width="6" fill="none"/><path d="M242.97 339h-5.94v-3.08h5.94z" stroke="#bdf139" stroke-width=".05" fill="#bdf139"/><path d="M717.73 171.7l4.64 14.27h-9.27z" stroke="#bdf139" stroke-width="6" fill="#bdf139"/><path d="M762.68 596.5V186.86" stroke="#bdf139" stroke-width="5" fill="none"/><path d="M765.15 599h-4.95v-2.56h4.95z" stroke="#bdf139" stroke-width=".05" fill="#bdf139"/><path d="M762.68 170.1l4.64 14.26h-9.27z" stroke="#bdf139" stroke-width="5" fill="#bdf139"/><path d="M562.93 598v-8.83m0-8.84v-17.66m0-8.84v-17.66m0-8.84v-8.83l-.07-.94-.22-.9-.36-.88-.5-.8-.6-.72-.72-.6-.8-.5-.88-.37-.9-.23-.95-.07h-10.5m-10.53 0h-21.03m-10.5 0h-21.04m-10.52 0H451.8m-10.5 0h-21.04m-10.52 0H388.7m-10.52 0h-10.52l-.94-.07-.9-.22-.88-.35-.8-.5-.72-.6-.6-.72-.5-.8-.36-.88-.22-.9-.08-.95v-8.74m0-8.75v-17.47m0-8.74v-17.5m0-8.74v-8.74" stroke="#bdf139" stroke-width="2" fill="none"/><path d="M563.9 599h-1.94v-1.03h1.94z" stroke="#bdf139" stroke-width=".05" fill="#bdf139"/><path d="M371.85 445.18l-10.2-17.22-10.17 17.22M782.46 878v-10.8m0-10.8v-21.6m0-10.8v-21.6m0-10.8V770m0-10.8v-21.6m0-10.8V716l-.08-.94-.22-.9-.36-.88-.5-.8-.6-.72-.72-.6-.8-.5-.87-.37-.9-.23-.94-.07h-9.83m-9.82 0h-19.63m-9.82 0H707.7m-9.82 0h-19.64m-9.82 0h-19.64m-9.83 0H619.3m-9.8 0h-19.65m-9.83 0h-19.64m-9.82 0h-19.64m-9.83 0h-19.65m-9.82 0h-19.65m-9.82 0h-19.64m-9.82 0h-19.65m-9.82 0H383.6m-9.83 0h-19.65m-9.82 0h-9.82l-.94-.07-.9-.22-.88-.35-.8-.5-.72-.6-.6-.72-.5-.8-.37-.88-.2-.9-.1-.95v-10.23m0-10.23v-20.46m0-10.23V632.4m0-10.23V601.7m0-10.22v-20.46m0-10.23v-20.46m0-10.23v-20.45m0-10.23v-20.46m0-10.23v-20.45m0-10.23v-10.23" stroke="#bdf139" stroke-width="2" fill="none"/><path d="M783.43 879h-1.95v-1.03h1.95z" stroke="#bdf139" stroke-width=".05" fill="#bdf139"/><path d="M338.66 445.18l-10.18-17.22-10.18 17.22M742.83 877.18v-10.1m0-10.1v-20.2m0-10.1v-20.2m0-10.1V776.2m0-10.1V756l-.08-.94-.22-.9-.36-.88-.5-.8-.6-.72-.72-.6-.8-.5-.87-.37-.92-.23-.93-.07H727m-9.82 0h-19.64m-9.82 0h-19.65m-9.82 0H638.6m-9.8 0h-19.66m-9.82 0h-19.64m-9.82 0H550.2m-9.8 0h-19.65m-9.82 0h-19.65m-9.82 0h-19.64m-9.82 0h-19.65m-9.82 0H402.9m-9.83 0h-19.65m-9.82 0h-19.64m-9.83 0H314.5m-9.83 0h-9.82l-.94-.07-.9-.22-.88-.35-.8-.5-.72-.6-.6-.72-.5-.8-.36-.88-.22-.9-.07-.95v-9.6m0-9.6v-19.22m0-9.6v-19.22m0-9.6v-19.22m0-9.6V619.1m0-9.6V590.3m0-9.6v-19.22m0-9.6v-19.2m0-9.62v-19.2m0-9.62v-19.2m0-9.62v-19.2m0-9.6V427M732.64 859.82l10.2 17.22L753 859.82" stroke="#bdf139" stroke-width="2" fill="none"/><path d="M289.82 427.03h-1.95V426h1.95z" stroke="#bdf139" stroke-width=".05" fill="#bdf139"/><path d="M145.52 1117.18v-10.44m0-10.44v-20.9m0-10.44v-20.88m0-10.44v-20.9m0-10.44v-20.88m0-10.44v-20.9m0-10.44v-20.88m0-10.44v-20.9m0-10.43v-20.9m0-10.45v-20.88m0-10.44v-20.9m0-10.43V772.52l.02-.02h.06v-.02h.02V762m0-10.44v-20.88m0-10.45v-20.88m0-10.45v-20.88m0-10.45v-20.9m0-10.43v-20.88m0-10.45v-20.88m0-10.44V542.7m0-10.45v-20.88m0-10.45v-20.88m0-10.45v-20.9m0-10.44v-10.44M135.34 1099.82l10.18 17.22 10.18-17.22M155.8 445.18l-10.18-17.22-10.18 17.22" stroke="#bdf139" stroke-width="2" fill="none"/><defs><path fill="#5f6572" d="M1229 0H935l-92-330H387L295 0H0l443-1349h344zM615-1167c-46 213-110 412-166 615h332c-56-204-119-401-166-615" id="h"/><path fill="#5f6572" d="M137 0v-1349h968v228H432v324h612v228H432v341h714V0H137" id="i"/><path fill="#5f6572" d="M768-1103c247 0 336 167 336 416V0H824v-619c-3-164-24-273-171-273-164 0-229 142-229 312V0H143c-4-359 9-736-8-1082h268c7 63 12 146 13 215h4c67-145 160-236 348-236" id="j"/><path fill="#5f6572" d="M774 0H438L31-1082h297c94 290 200 568 280 872 83-304 194-581 291-872h294" id="k"/><path fill="#5f6572" d="M794-190h353V0H118v-190h395v-702H223v-190h571v892zM513-1277v-207h281v207H513" id="l"/><path fill="#5f6572" d="M875-1102c70 0 148 7 206 17v237c-110-17-267-37-359 15-123 69-192 207-192 395V0H250c-10-367 32-789-52-1082h271c19 69 36 149 46 228h4c52-151 151-250 356-248" id="m"/><path fill="#5f6572" d="M616-1102c361 0 521 202 521 560 0 354-171 562-527 562C259 20 92-192 92-542c0-351 169-560 524-560zm-9 930c200-2 236-165 236-370 0-199-27-367-223-367-195 0-233 146-233 367 0 129 18 223 55 282s92 88 165 88" id="n"/><path fill="#5f6572" d="M934-1102c199 0 220 177 220 381V0H926c-2-260 10-533-4-785-4-72-14-138-83-138-34 0-61 27-81 81s-29 134-29 241V0H501c-2-260 9-533-5-785-4-72-13-138-82-138-46 0-65 47-80 93-21 67-30 155-30 248V0H75c-3-360 6-732-6-1082h209c6 50 3 123 8 175 36-100 83-195 216-195 135 0 166 79 196 196 42-105 93-196 236-196" id="o"/><path fill="#5f6572" d="M1113-274C1038-96 884 20 626 20c-352 0-526-209-526-566 0-358 185-556 530-556 358 0 496 251 499 615H395c5 180 68 319 245 319 102 0 186-45 208-129zM857-663c-6-177-128-307-315-247-94 30-141 121-145 247h460" id="p"/><path fill="#5f6572" d="M711 13c-250 0-386-99-385-349l2-556H161v-190h181l88-282h176v282h385v190H606v530c-10 130 45 186 174 184 91-2 176-11 255-27v186C933-1 833 13 711 13" id="q"/><g id="a"><use transform="matrix(0.010850694444444444,0,0,0.010850694444444444,0,0)" xlink:href="#h"/><use transform="matrix(0.010850694444444444,0,0,0.010850694444444444,13.335503472222221,0)" xlink:href="#i"/><use transform="matrix(0.010850694444444444,0,0,0.010850694444444444,26.671006944444443,0)" xlink:href="#j"/><use transform="matrix(0.010850694444444444,0,0,0.010850694444444444,40.006510416666664,0)" xlink:href="#k"/><use transform="matrix(0.010850694444444444,0,0,0.010850694444444444,53.342013888888886,0)" xlink:href="#l"/><use transform="matrix(0.010850694444444444,0,0,0.010850694444444444,66.67751736111111,0)" xlink:href="#m"/><use transform="matrix(0.010850694444444444,0,0,0.010850694444444444,80.01302083333334,0)" xlink:href="#n"/><use transform="matrix(0.010850694444444444,0,0,0.010850694444444444,93.34852430555557,0)" xlink:href="#j"/><use transform="matrix(0.010850694444444444,0,0,0.010850694444444444,106.6840277777778,0)" xlink:href="#o"/><use transform="matrix(0.010850694444444444,0,0,0.010850694444444444,120.01953125000003,0)" xlink:href="#p"/><use transform="matrix(0.010850694444444444,0,0,0.010850694444444444,133.35503472222226,0)" xlink:href="#j"/><use transform="matrix(0.010850694444444444,0,0,0.010850694444444444,146.69053819444449,0)" xlink:href="#q"/></g><path fill="#5f6572" d="M305-1169c27 366 9 780 14 1169H99v-1349h347c49 189 108 371 150 564 12 56 15 107 23 166 33-270 117-487 176-730h335V0H908c5-390-13-801 16-1169-52 285-130 541-199 809H507c-70-267-148-525-202-809" id="r"/><path fill="#5f6572" d="M471 20c-247 0-336-169-336-415v-687h281v607c4 148 31 285 172 285 152 0 207-150 207-312v-580h281c4 359-9 736 8 1082H816c-7-63-11-146-12-215h-5C736-76 644 20 471 20" id="s"/><g id="b"><use transform="matrix(0.010850694444444444,0,0,0.010850694444444444,0,0)" xlink:href="#h"/><use transform="matrix(0.010850694444444444,0,0,0.010850694444444444,13.335503472222221,0)" xlink:href="#r"/><use transform="matrix(0.010850694444444444,0,0,0.010850694444444444,26.671006944444443,0)" xlink:href="#p"/><use transform="matrix(0.010850694444444444,0,0,0.010850694444444444,40.006510416666664,0)" xlink:href="#j"/><use transform="matrix(0.010850694444444444,0,0,0.010850694444444444,53.342013888888886,0)" xlink:href="#s"/><use transform="matrix(0.010850694444444444,0,0,0.010850694444444444,66.67751736111111,0)" xlink:href="#i"/><use transform="matrix(0.010850694444444444,0,0,0.010850694444444444,80.01302083333334,0)" xlink:href="#j"/><use transform="matrix(0.010850694444444444,0,0,0.010850694444444444,93.34852430555557,0)" xlink:href="#k"/><use transform="matrix(0.010850694444444444,0,0,0.010850694444444444,106.6840277777778,0)" xlink:href="#l"/><use transform="matrix(0.010850694444444444,0,0,0.010850694444444444,120.01953125000003,0)" xlink:href="#m"/><use transform="matrix(0.010850694444444444,0,0,0.010850694444444444,133.35503472222226,0)" xlink:href="#n"/><use transform="matrix(0.010850694444444444,0,0,0.010850694444444444,146.69053819444449,0)" xlink:href="#j"/><use transform="matrix(0.010850694444444444,0,0,0.010850694444444444,160.0260416666667,0)" xlink:href="#o"/><use transform="matrix(0.010850694444444444,0,0,0.010850694444444444,173.36154513888894,0)" xlink:href="#p"/><use transform="matrix(0.010850694444444444,0,0,0.010850694444444444,186.69704861111117,0)" xlink:href="#j"/><use transform="matrix(0.010850694444444444,0,0,0.010850694444444444,200.0325520833334,0)" xlink:href="#q"/></g><path fill="#5f6572" d="M650-216c90 0 157-35 208-74v-235H584v-218h544v558C1004-84 858 20 635 20 235 20 80-276 80-681c0-416 146-689 558-689 277 0 398 160 462 375l-274 54c-31-108-73-197-185-197-231 0-262 217-262 457 0 149 22 263 67 344s113 121 204 121" id="t"/><path fill="#5f6572" d="M775-193C708-75 621 20 439 20 226 20 106-93 106-306c0-251 170-341 417-346l223-4c4-143-12-264-148-264-103 0-141 58-150 153l-293-14c37-219 194-321 455-321 263 0 418 130 417 390v392c1 84 5 161 89 160 21 0 42-2 62-6v152c-57 15-108 27-180 26-145 0-202-73-217-205h-6zm-256 17c168 0 234-139 227-325-166 4-347-25-347 173 0 94 33 152 120 152" id="u"/><g id="c"><use transform="matrix(0.010850694444444444,0,0,0.010850694444444444,0,0)" xlink:href="#t"/><use transform="matrix(0.010850694444444444,0,0,0.010850694444444444,13.335503472222221,0)" xlink:href="#u"/><use transform="matrix(0.010850694444444444,0,0,0.010850694444444444,26.671006944444443,0)" xlink:href="#o"/><use transform="matrix(0.010850694444444444,0,0,0.010850694444444444,40.006510416666664,0)" xlink:href="#p"/><use transform="matrix(0.010850694444444444,0,0,0.010850694444444444,53.342013888888886,0)" xlink:href="#i"/><use transform="matrix(0.010850694444444444,0,0,0.010850694444444444,66.67751736111111,0)" xlink:href="#j"/><use transform="matrix(0.010850694444444444,0,0,0.010850694444444444,80.01302083333334,0)" xlink:href="#k"/><use transform="matrix(0.010850694444444444,0,0,0.010850694444444444,93.34852430555557,0)" xlink:href="#l"/><use transform="matrix(0.010850694444444444,0,0,0.010850694444444444,106.6840277777778,0)" xlink:href="#m"/><use transform="matrix(0.010850694444444444,0,0,0.010850694444444444,120.01953125000003,0)" xlink:href="#n"/><use transform="matrix(0.010850694444444444,0,0,0.010850694444444444,133.35503472222226,0)" xlink:href="#j"/><use transform="matrix(0.010850694444444444,0,0,0.010850694444444444,146.69053819444449,0)" xlink:href="#o"/><use transform="matrix(0.010850694444444444,0,0,0.010850694444444444,160.0260416666667,0)" xlink:href="#p"/><use transform="matrix(0.010850694444444444,0,0,0.010850694444444444,173.36154513888894,0)" xlink:href="#j"/><use transform="matrix(0.010850694444444444,0,0,0.010850694444444444,186.69704861111117,0)" xlink:href="#q"/></g><path fill="#5f6572" d="M622-916c-112 2-200 14-200 111 0 90 89 101 168 121 234 58 514 77 514 368C1104-4 751 54 434 5 267-21 161-112 121-270l247-37c24 111 113 145 252 141 114-3 226-12 226-124 0-101-103-113-192-134-225-54-490-76-490-351 0-247 201-328 458-328 245 0 413 88 457 292l-249 26c-16-98-92-133-208-131" id="v"/><path fill="#5f6572" d="M796 0v-574H433V0H138v-1349h295v531h363v-531h295V0H796" id="w"/><path fill="#5f6572" d="M802-909c-3-189-2-383-2-575h281v1248c-1 83 4 168 8 236H817c-9-50-14-117-15-176h-4C735-49 651 20 482 20 191 20 97-238 97-539c0-243 66-432 221-519 50-28 108-42 175-42 162 2 253 78 309 191zm-70 658c91-113 93-462 2-584-46-61-145-100-224-53-96 56-119 190-120 349 0 123 17 214 52 275 46 82 130 115 222 74 25-12 46-33 68-61" id="x"/><path fill="#5f6572" d="M794-190h353V0H118v-190h395v-1104H223v-190h571v1294" id="y"/><g id="d"><use transform="matrix(0.010850694444444444,0,0,0.010850694444444444,0,0)" xlink:href="#i"/><use transform="matrix(0.010850694444444444,0,0,0.010850694444444444,13.335503472222221,0)" xlink:href="#j"/><use transform="matrix(0.010850694444444444,0,0,0.010850694444444444,26.671006944444443,0)" xlink:href="#k"/><use transform="matrix(0.010850694444444444,0,0,0.010850694444444444,40.006510416666664,0)" xlink:href="#l"/><use transform="matrix(0.010850694444444444,0,0,0.010850694444444444,53.342013888888886,0)" xlink:href="#m"/><use transform="matrix(0.010850694444444444,0,0,0.010850694444444444,66.67751736111111,0)" xlink:href="#n"/><use transform="matrix(0.010850694444444444,0,0,0.010850694444444444,80.01302083333334,0)" xlink:href="#j"/><use transform="matrix(0.010850694444444444,0,0,0.010850694444444444,93.34852430555557,0)" xlink:href="#o"/><use transform="matrix(0.010850694444444444,0,0,0.010850694444444444,106.6840277777778,0)" xlink:href="#p"/><use transform="matrix(0.010850694444444444,0,0,0.010850694444444444,120.01953125000003,0)" xlink:href="#j"/><use transform="matrix(0.010850694444444444,0,0,0.010850694444444444,133.35503472222226,0)" xlink:href="#q"/><use transform="matrix(0.010850694444444444,0,0,0.010850694444444444,146.69053819444449,0)" xlink:href="#v"/><use transform="matrix(0.010850694444444444,0,0,0.010850694444444444,160.0260416666667,0)" xlink:href="#w"/><use transform="matrix(0.010850694444444444,0,0,0.010850694444444444,173.36154513888894,0)" xlink:href="#u"/><use transform="matrix(0.010850694444444444,0,0,0.010850694444444444,186.69704861111117,0)" xlink:href="#j"/><use transform="matrix(0.010850694444444444,0,0,0.010850694444444444,200.0325520833334,0)" xlink:href="#x"/><use transform="matrix(0.010850694444444444,0,0,0.010850694444444444,213.36805555555563,0)" xlink:href="#y"/><use transform="matrix(0.010850694444444444,0,0,0.010850694444444444,226.70355902777786,0)" xlink:href="#p"/><use transform="matrix(0.010850694444444444,0,0,0.010850694444444444,240.03906250000006,0)" xlink:href="#m"/></g><g id="e"><use transform="matrix(0.010850694444444444,0,0,0.010850694444444444,0,0)" xlink:href="#h"/><use transform="matrix(0.010850694444444444,0,0,0.010850694444444444,13.335503472222221,0)" xlink:href="#r"/><use transform="matrix(0.010850694444444444,0,0,0.010850694444444444,26.671006944444443,0)" xlink:href="#p"/><use transform="matrix(0.010850694444444444,0,0,0.010850694444444444,40.006510416666664,0)" xlink:href="#j"/><use transform="matrix(0.010850694444444444,0,0,0.010850694444444444,53.342013888888886,0)" xlink:href="#s"/></g><path fill="#fff" d="M148-1120c216-7 379-89 463-229h166v1204h353V0H157v-145h439v-1021c-79 124-254 184-448 194v-148" id="z"/><use transform="matrix(0.010850694444444444,0,0,0.010850694444444444,0,0)" xlink:href="#z" id="f"/><path fill="#fff" d="M671-1188l264-103 45 132-282 73 185 250-119 72-150-258-156 256-119-72 189-248-280-73 45-134 267 107-12-297h136" id="A"/><use transform="matrix(0.010850694444444444,0,0,0.010850694444444444,0,0)" xlink:href="#A" id="g"/></defs></g></svg>