<svg xmlns="http://www.w3.org/2000/svg" xmlns:xlink="http://www.w3.org/1999/xlink" xmlns:lucid="lucid" width="1484" height="1859"><g transform="translate(0 0)" lucid:page-tab-id="Ms2cEcHFBDHp"><path d="M0 0h1483.77v1876.78H0z" fill="#21252c"/><path d="M730 46a6 6 0 0 1 6-6h248a6 6 0 0 1 6 6v49a6 6 0 0 1-6 6H736a6 6 0 0 1-6-6z" stroke="#a9a9a9" stroke-width="2" fill="#f5fbff"/><use xlink:href="#a" transform="matrix(1,0,0,1,737.9999999999999,48) translate(28.651475694444414 29.28168402777778)"/><path d="M556.66 246a6 6 0 0 1 6-6H844a6 6 0 0 1 6 6v49a6 6 0 0 1-6 6H562.66a6 6 0 0 1-6-6z" stroke="#a9a9a9" stroke-width="2" fill="#f5fbff"/><use xlink:href="#b" transform="matrix(1,0,0,1,564.6640853725651,248) translate(105.66124131944444 29.28168402777778)"/><path d="M1173.87 526a6 6 0 0 1 6-6h248a6 6 0 0 1 6 6v49a6 6 0 0 1-6 6h-248a6 6 0 0 1-6-6z" stroke="#a9a9a9" stroke-width="2" fill="#f5fbff"/><use xlink:href="#c" transform="matrix(1,0,0,1,1181.8647954544872,528) translate(15.315972222222186 29.28168402777778)"/><path d="M970 786a6 6 0 0 1 6-6h288.67a6 6 0 0 1 6 6v49a6 6 0 0 1-6 6H976a6 6 0 0 1-6-6z" stroke="#a9a9a9" stroke-width="2" fill="#f5fbff"/><use xlink:href="#d" transform="matrix(1,0,0,1,978,788) translate(15.812717013888843 29.28168402777778)"/><path d="M538 786a6 6 0 0 1 6-6h248a6 6 0 0 1 6 6v49a6 6 0 0 1-6 6H544a6 6 0 0 1-6-6z" stroke="#a9a9a9" stroke-width="2" fill="#f5fbff"/><use xlink:href="#e" transform="matrix(1,0,0,1,546.0005358258907,788) translate(55.32248263888887 29.28168402777778)"/><path d="M421.33 546a6 6 0 0 1 6-6h248a6 6 0 0 1 6 6v49a6 6 0 0 1-6 6h-248a6 6 0 0 1-6-6z" stroke="#a9a9a9" stroke-width="2" fill="#f5fbff"/><use xlink:href="#f" transform="matrix(1,0,0,1,429.3338691592239,548) translate(75.32573784722221 29.28168402777778)"/><path d="M130 786a6 6 0 0 1 6-6h248a6 6 0 0 1 6 6v49a6 6 0 0 1-6 6H136a6 6 0 0 1-6-6z" stroke="#a9a9a9" stroke-width="2" fill="#f5fbff"/><use xlink:href="#g" transform="matrix(1,0,0,1,138,788) translate(75.32573784722221 29.28168402777778)"/><path d="M425.06 1206a6 6 0 0 1 6-6h391.82a6 6 0 0 1 6 6v49a6 6 0 0 1-6 6H431.06a6 6 0 0 1-6-6z" stroke="#a9a9a9" stroke-width="2" fill="#f5fbff"/><use xlink:href="#h" transform="matrix(1,0,0,1,433.05890956170947,1208) translate(67.31271701388884 29.28168402777778)"/><path d="M470 1506a6 6 0 0 1 6-6h288a6 6 0 0 1 6 6v49a6 6 0 0 1-6 6H476a6 6 0 0 1-6-6z" stroke="#a9a9a9" stroke-width="2" fill="#f5fbff"/><use xlink:href="#i" transform="matrix(1,0,0,1,478,1508) translate(61.98697916666664 29.28168402777778)"/><path d="M770 1742.67a6 6 0 0 1 6-6h311.33a6 6 0 0 1 6 6v49a6 6 0 0 1-6 6H776a6 6 0 0 1-6-6z" stroke="#a9a9a9" stroke-width="2" fill="#f5fbff"/><use xlink:href="#j" transform="matrix(1,0,0,1,778,1744.6666666666667) translate(20.644965277777743 29.28168402777778)"/><path d="M230 1742.67a6 6 0 0 1 6-6h304.67a6 6 0 0 1 6 6v49a6 6 0 0 1-6 6H236a6 6 0 0 1-6-6z" stroke="#a9a9a9" stroke-width="2" fill="#f5fbff"/><use xlink:href="#k" transform="matrix(1,0,0,1,238,1744.6666666666667) translate(17.144965277777743 29.28168402777778)"/><path d="M291.2 1732.67v-437.84a6 6 0 0 0-6-6H166.7a6 6 0 0 1-6-6V868.97" stroke="#bdf139" stroke-width="6" fill="none"/><path d="M294.17 1735.67h-5.95v-3.08h5.95z" stroke="#bdf139" stroke-width=".05" fill="#bdf139"/><path d="M160.7 851.7l4.63 14.27h-9.27z" stroke="#bdf139" stroke-width="6" fill="#bdf139"/><path d="M501.98 1734.67v-8.87m0-8.87v-17.75m0-8.87v-17.73m0-8.87v-8.87l.07-.93.22-.92.36-.87.5-.8.6-.7.72-.62.8-.5.87-.35.92-.22.94-.07h6.88m6.88 0h6.88l.93-.07.92-.22.87-.36.8-.5.72-.6.6-.72.5-.8.36-.87.22-.93.08-.94v-8.78m0-8.78v-17.56m0-8.76v-17.56m0-8.78v-8.78" stroke="#bdf139" stroke-width="2" fill="none"/><path d="M502.95 1735.67H501v-1.03h1.95z" stroke="#bdf139" stroke-width=".05" fill="#bdf139"/><path d="M544.8 1581.18l-10.18-17.22-10.2 17.22M819.16 1734.67v-8.87m0-8.87v-17.75m0-8.87v-17.73m0-8.87v-8.87l-.07-.93-.23-.92-.36-.87-.48-.8-.6-.7-.73-.62-.8-.5-.88-.35-.92-.22-.94-.07h-10.44m-10.44 0H771.4m-10.43 0H740.1m-10.45 0H719.2l-.93-.07-.92-.22-.87-.36-.8-.5-.7-.6-.63-.72-.5-.8-.35-.87-.22-.93-.07-.94v-8.78m0-8.78v-17.56m0-8.76v-17.56m0-8.78v-8.78" stroke="#bdf139" stroke-width="2" fill="none"/><path d="M820.14 1735.67h-1.95v-1.03h1.94z" stroke="#bdf139" stroke-width=".05" fill="#bdf139"/><path d="M723.4 1581.18l-10.2-17.22-10.17 17.22M880.6 1734.67v-10.27m0-10.26v-20.52m0-10.27v-20.52m0-10.26v-20.53m0-10.26v-20.53m0-10.26v-20.54m0-10.26v-20.52m0-10.27v-20.5m0-10.27v-20.53m0-10.26v-20.53m0-10.25v-20.52m0-10.27V1396l-.06-.94-.22-.9-.36-.88-.5-.8-.6-.72-.72-.6-.8-.5-.87-.37-.92-.23-.93-.07h-11.1m-11.08 0h-22.18m-11.1 0H808.1l-.95-.07-.92-.22-.87-.35-.8-.5-.72-.6-.6-.72-.5-.8-.36-.88-.22-.9-.07-.95v-10.02m0-10v-20.04m0-10.02v-20.03m0-10.02v-20.03m0-10.02v-10" stroke="#bdf139" stroke-width="2" fill="none"/><path d="M881.6 1735.67h-1.96v-1.03h1.95z" stroke="#bdf139" stroke-width=".05" fill="#bdf139"/><path d="M812.27 1281.18l-10.18-17.22-10.2 17.22" stroke="#bdf139" stroke-width="2" fill="none"/><path d="M1030 1732.67V1666a6 6 0 0 1 6-6h370.85a6 6 0 0 0 6-6V608.97" stroke="#bdf139" stroke-width="6" fill="none"/><path d="M1032.97 1735.67h-5.95v-3.08h5.95z" stroke="#bdf139" stroke-width=".05" fill="#bdf139"/><path d="M1412.85 591.7l4.63 14.27h-9.27z" stroke="#bdf139" stroke-width="6" fill="#bdf139"/><path d="M654.12 1468.25V1263.83" stroke="#bdf139" stroke-width="2" fill="none"/><path d="M654.12 1497.6l-14.85-14.86 14.85-15.15 14.85 15.14z" stroke="#bdf139" stroke-width="2" fill="#bdf139"/><path d="M664.32 1281.18l-10.2-17.22-10.17 17.22" stroke="#bdf139" stroke-width="2" fill="none"/><use xlink:href="#l" transform="matrix(1,0,0,1,632.7888968371724,1432.5055061995338) translate(0 18.489583333333332)"/><use xlink:href="#l" transform="matrix(1,0,0,1,632.7984142765264,1295.790183064604) translate(0 18.489583333333332)"/><path d="M612.9 1498v-9.8m0-9.78v-19.6m0-9.78v-19.58m0-9.8v-19.58m0-9.8v-19.5m0-9.73v-19.44m0-9.72v-19.45m0-9.72v-19.43m0-9.73v-9.72" stroke="#bdf139" stroke-width="2" fill="none"/><path d="M613.87 1499h-1.95v-1.03h1.95z" stroke="#bdf139" stroke-width=".05" fill="#bdf139"/><path d="M623.07 1281.18l-10.18-17.22-10.2 17.22M570.37 1292.75v87.73a.02.02 0 0 1-.02.02.02.02 0 0 0-.02.02v116.66" stroke="#bdf139" stroke-width="2" fill="none"/><path d="M570.37 1263.4l14.85 14.86-14.85 15.15-14.85-15.14z" stroke="#bdf139" stroke-width="2" fill="#bdf139"/><path d="M560.15 1479.82l10.18 17.22 10.18-17.22" stroke="#bdf139" stroke-width="2" fill="none"/><use xlink:href="#m" transform="matrix(1,0,0,1,578.3309084303271,1431.1570519572451) translate(0 18.489583333333332)"/><use xlink:href="#l" transform="matrix(1,0,0,1,578.3660514457457,1298.429038071913) translate(0 18.489583333333332)"/><path d="M538 1263v9.8m0 9.78v19.57m0 9.8v19.56m0 9.8v19.58m0 9.78v9.8h-.02v.02h-.02v.02h-.04v.02h-.02v9.75m0 9.72v19.43m0 9.72v19.43m0 9.72v19.44m0 9.72v9.72" stroke="#bdf139" stroke-width="2" fill="none"/><path d="M538.96 1263.03H537V1262h1.96z" stroke="#bdf139" stroke-width=".05" fill="#bdf139"/><path d="M527.7 1479.82l10.2 17.22 10.17-17.22M454.35 1168.25V1076a6 6 0 0 0-6-6H217.32a6 6 0 0 1-6-6V843.82" stroke="#bdf139" stroke-width="2" fill="none"/><path d="M454.35 1197.6l-14.85-14.86 14.85-15.15 14.85 15.14z" stroke="#bdf139" stroke-width="2" fill="#bdf139"/><path d="M221.5 861.18l-10.18-17.22-10.18 17.22" stroke="#bdf139" stroke-width="2" fill="none"/><use xlink:href="#l" transform="matrix(1,0,0,1,433.01668768453504,1135.0174248598928) translate(0 18.489583333333332)"/><use xlink:href="#m" transform="matrix(1,0,0,1,189.985989983111,875.8594465117176) translate(0 18.489583333333332)"/><path d="M494.44 1198v-9.56m0-9.55v-19.12m0-9.56v-19.1m0-9.56v-19.12m0-9.55v-19.12m0-9.56v-19.1m0-9.56V1026l-.08-.94-.22-.9-.36-.88-.5-.8-.6-.72-.72-.6-.8-.5-.87-.37-.93-.23-.93-.07h-10.6m-10.6 0h-21.17m-10.6 0H414.3m-10.6 0h-21.2m-10.58 0h-21.18m-10.6 0h-21.18m-10.6 0H287.2m-10.6 0H266l-.94-.07-.9-.22-.88-.35-.8-.5-.72-.6-.6-.72-.5-.8-.37-.88-.23-.9-.07-.95v-9.46m0-9.45v-18.92m0-9.45v-18.9m0-9.47v-18.9m0-9.46v-18.9m0-9.46v-18.9m0-9.47v-9.45" stroke="#bdf139" stroke-width="2" fill="none"/><path d="M495.4 1199h-1.94v-1.03h1.95z" stroke="#bdf139" stroke-width=".05" fill="#bdf139"/><path d="M270.18 861.18L260 843.96l-10.18 17.22M562.28 1168.25v-147.7a.05.05 0 0 1 .05-.05.05.05 0 0 0 .06-.05V843.82" stroke="#bdf139" stroke-width="2" fill="none"/><path d="M562.28 1197.6l-14.85-14.86 14.85-15.15 14.85 15.14z" stroke="#bdf139" stroke-width="2" fill="#bdf139"/><path d="M572.57 861.18l-10.18-17.22-10.2 17.22" stroke="#bdf139" stroke-width="2" fill="none"/><use xlink:href="#l" transform="matrix(1,0,0,1,540.9454424805642,1128.4083351090164) translate(0 18.489583333333332)"/><use xlink:href="#l" transform="matrix(1,0,0,1,541.0508298283928,874.4973141177338) translate(0 18.489583333333332)"/><path d="M600.75 1198v-9.86m0-9.86v-19.72m0-9.86v-19.72m0-9.86v-19.72m0-9.87v-19.72m0-9.85v-19.72m0-9.86v-9.86h.02v-9.83m0-9.8v-19.64m0-9.82V951.8m0-9.8v-19.64m0-9.82V892.9m0-9.82v-19.63m0-9.82v-9.8" stroke="#bdf139" stroke-width="2" fill="none"/><path d="M601.72 1199h-1.95v-1.03h1.95z" stroke="#bdf139" stroke-width=".05" fill="#bdf139"/><path d="M610.95 861.18l-10.18-17.22-10.18 17.22M635.3 843v9.86m0 9.86v19.72m0 9.86v19.73m0 9.86v19.7m0 9.87v19.72m0 9.85v19.72m0 9.86v19.68m0 9.82v19.63m0 9.8v19.64m0 9.83v19.63m0 9.8v19.65m0 9.82v19.63m0 9.82v9.8" stroke="#bdf139" stroke-width="2" fill="none"/><path d="M636.27 843.03h-1.95V842h1.95z" stroke="#bdf139" stroke-width=".05" fill="#bdf139"/><path d="M625.13 1179.82l10.18 17.22 10.2-17.22M671 872.75v147.74h.02v176.68" stroke="#bdf139" stroke-width="2" fill="none"/><path d="M671 843.4l14.85 14.86L671 873.4l-14.84-15.14z" stroke="#bdf139" stroke-width="2" fill="#bdf139"/><path d="M660.84 1179.82l10.18 17.22 10.18-17.22" stroke="#bdf139" stroke-width="2" fill="none"/><use xlink:href="#l" transform="matrix(1,0,0,1,679.0049427326821,879.8434071863098) translate(0 18.489583333333332)"/><use xlink:href="#l" transform="matrix(1,0,0,1,649.6846723095347,1140.397782629951) translate(0 18.489583333333332)"/><path d="M521.87 1198v-9.9m0-9.93v-19.83m0-9.9v-19.84m0-9.92v-19.83m0-9.9v-19.84m0-9.9v-19.83m0-9.92v-19.83m0-9.9v-19.84m0-9.9v-19.84m0-9.92V920.4m0-9.92V900.52h.02v-.02h.06v-.02h.02v-9.94m0-9.88V860.9m0-9.9v-19.77m0-9.9v-19.77m0-9.88V771.9m0-9.88v-19.78m0-9.9V712.6m0-9.9v-19.76m0-9.9v-19.76m0-9.9V623.6m0-9.9v-9.88" stroke="#bdf139" stroke-width="2" fill="none"/><path d="M522.84 1199h-1.95v-1.03h1.94z" stroke="#bdf139" stroke-width=".05" fill="#bdf139"/><path d="M532.17 621.18L522 603.96l-10.2 17.22" stroke="#bdf139" stroke-width="2" fill="none"/><path d="M613.94 776v-85.43a.07.07 0 0 1 .07-.07.07.07 0 0 0 .1-.07v-61.46" stroke="#bdf139" stroke-width="6" fill="none"/><path d="M616.92 779h-5.95v-3.08h5.95z" stroke="#bdf139" stroke-width=".05" fill="#bdf139"/><path d="M614.1 611.7l4.62 14.27h-9.27z" stroke="#bdf139" stroke-width="6" fill="#bdf139"/><path d="M1374.1 585v849a6 6 0 0 1-6 6H753.27a6 6 0 0 0-6 6v26.03" stroke="#bdf139" stroke-width="6" fill="none"/><path d="M1377.07 585.08h-5.95V582h5.95z" stroke="#bdf139" stroke-width=".05" fill="#bdf139"/><path d="M747.28 1489.3l-4.63-14.27h9.27z" stroke="#bdf139" stroke-width="6" fill="#bdf139"/><path d="M583.78 303v13.67m0 13.66V344l-.07.94-.2.9-.37.88-.5.8-.6.72-.72.6-.8.5-.86.37-.92.23-.94.07h-10.24m-10.25 0h-20.5m-10.24 0h-20.5m-10.24 0h-20.5m-10.24 0h-20.5m-10.23 0h-20.5m-10.24 0h-20.48m-10.25 0h-20.5m-10.23 0h-20.5m-10.24 0h-20.5m-10.24 0h-20.5m-10.23 0h-20.5m-10.24 0h-20.5m-10.24 0h-20.5m-10.24 0h-20.5M127 350h-20.5m-10.23 0H86l-.94.07-.9.22-.88.35-.8.5-.72.6-.6.72-.5.8-.37.88-.23.9-.07.95v9.98m0 9.98v19.96m0 9.98v19.96m0 9.98v19.96m0 9.98v19.97m0 9.98v19.96m0 9.97v19.96m0 9.98v19.97m0 9.98v19.96m0 10v19.95m0 9.98v19.96m0 9.97v19.96m0 9.98v19.98m0 9.98v19.96m0 9.98v19.96m0 9.98v19.96m0 9.98v19.96m0 9.98v19.96m0 9.98v19.96m0 9.98v19.96m0 9.98v19.96m0 9.98v19.97m0 9.98v19.96m0 9.97v19.96m0 9.98v19.97m0 9.98v19.96m0 10v19.95m0 9.98v19.96m0 9.97v19.96m0 9.98v19.98m0 9.98v19.96m0 9.98v19.96m0 9.98v19.96m0 9.98v19.96m0 9.98v9.98l.07.94.22.9.35.88.5.8.6.72.72.6.8.5.88.37.9.23.95.07h10.15m10.15 0h20.3m10.14 0h20.3m10.15 0h20.28m10.15 0h20.3m10.14 0h20.3m10.15 0h20.3m10.14 0h20.3m10.15 0h20.3m10.15 0h20.3m10.15 0h20.3m10.14 0h20.3m10.15 0h20.28m10.15 0h20.3m10.14 0h20.3m10.15 0h10.15l.94.07.92.22.87.35.8.5.7.6.62.72.5.8.35.88.22.9.07.95v11.17m0 11.16v22.34m0 11.16V1453l-.08.94-.23.9-.36.88-.48.8-.6.72-.73.6-.8.5-.88.37-.9.23-.95.07h-9.4m-9.4 0h-9.38l-.95.07-.9.22-.88.35-.8.5-.72.6-.6.72-.5.8-.36.88-.24.9-.07.95v10.73m0 10.72v10.73" stroke="#bdf139" stroke-width="2" fill="none"/><path d="M584.76 303.03h-1.95V302h1.96z" stroke="#bdf139" stroke-width=".05" fill="#bdf139"/><path d="M498.3 1479.82l10.2 17.22 10.17-17.22M752.7 103v13.67m-.02 13.66V144l-.08.94-.22.9-.37.88-.48.8-.6.72-.73.6-.8.5-.88.37-.9.23-.95.07H736.5m-10.14 0h-20.3m-10.17 0h-20.32m-10.15 0h-20.3m-10.16 0h-20.3m-10.17 0h-20.3m-10.16 0h-20.3m-10.17 0h-20.3m-10.16 0h-20.3m-10.15 0h-20.3m-10.17 0h-20.3m-10.16 0h-20.3m-10.16 0h-20.3m-10.17 0h-20.32m-10.15 0h-20.3m-10.17 0h-20.3m-10.16 0h-20.3m-10.16 0h-20.3m-10.17 0h-20.3M178 150h-20.3m-10.15 0h-20.3m-10.17 0h-20.3m-10.16 0h-20.3m-10.16 0H46l-.94.07-.9.22-.88.35-.8.5-.72.6-.6.72-.5.8-.37.88-.23.9-.07.95v10.06m0 10.07v20.12m0 10.07v20.12m0 10.07v20.13m0 10.07v20.13m0 10.06V317m0 10.06v20.13m0 10.07v20.13m0 10.06v20.13m0 10.05v20.13m0 10.06v20.13m0 10.06v20.13m0 10.06v20.13m0 10.06v20.14m0 10.06v20.13m0 10.06v20.12m0 10.06v20.13m0 10.07v20.13m0 10.07v20.12m0 10.06v20.12m0 10.07v20.12m0 10.07v20.12m0 10.07v20.12m0 10.07v20.12m0 10.07v20.13m0 10.07v20.13m0 10.06V951m0 10.06v20.13m0 10.07v20.13m0 10.06v20.13m0 10.05v20.13m0 10.06v20.13m0 10.06v20.13m0 10.06v20.13m0 10.06v20.14m0 10.06v20.13m0 10.06v20.12m0 10.06v20.13m0 10.08v20.12m0 10.07v20.12m0 10.06v20.12m0 10.07v20.12m0 10.07V1424l.07.94.22.9.35.88.5.8.6.72.72.6.8.5.88.37.9.23.95.07h10m9.97 0h19.97m10 0h19.96m10 0h19.96m10 0h19.96m10 0h19.96m9.98 0h19.98m9.98 0h19.97m9.98 0h19.97m10 0h19.96m10 0h19.97m10 0h19.96m10 0h19.96m9.97 0h19.98m9.98 0h19.97m10 0h19.96m10 0h9.98l.93.07.92.22.86.35.8.5.72.6.6.72.5.8.36.88.22.9.08.95v17l-.08.94-.22.9-.36.88-.5.8-.6.72-.72.6-.8.5-.87.37-.93.23-.93.07h-9.4m-9.42 0h-9.4l-.95.07-.9.22-.88.35-.8.5-.73.6-.6.72-.5.8-.36.88-.2.9-.1.95v10.73m0 10.72v10.73" stroke="#bdf139" stroke-width="2" fill="none"/><path d="M753.68 103.03h-1.95V102h1.95z" stroke="#bdf139" stroke-width=".05" fill="#bdf139"/><path d="M480.93 1479.82l10.18 17.22 10.2-17.22M770.16 843v10.33m0 10.34V874l.08.94.22.9.36.88.5.8.6.72.72.6.8.5.87.37.93.23.93.07h11.3m11.32 0h22.6m11.3 0H844l.94.07.9.22.88.35.8.5.72.6.6.72.5.8.37.88.23.9.07.95v9.96m0 9.95v19.92m0 9.96v19.9m0 9.96v19.92m0 9.95v19.92m0 9.96v19.9m0 9.96v19.92m0 9.95v19.92m0 9.96v19.9m0 9.96v19.92m0 9.95v19.92m0 9.96v19.9m0 9.96v19.92m0 9.95v19.92m0 9.96v19.9m0 9.96v9.96l-.07.94-.22.9-.35.88-.5.8-.6.72-.72.6-.8.5-.88.37-.9.23-.95.07h-10.37m-10.37 0h-20.74m-10.37 0H771.4m-10.36 0H740.3m-10.37 0H709.2m-10.38 0h-20.74m-10.37 0h-10.36l-.94.07-.92.22-.87.35-.8.5-.7.6-.62.72-.5.8-.35.88-.22.9-.06.95v8.92m0 8.9v17.85m0 8.9v17.85m0 8.9v17.85m0 8.9v8.93l.07.94.23.9.36.88.48.8.6.72.73.6.8.5.88.37.92.23.94.07h9.33m9.34 0h9.34l.94.07.92.22.87.35.8.5.7.6.63.72.5.8.35.88.22.9.07.95v10.73m0 10.72v10.73" stroke="#bdf139" stroke-width="2" fill="none"/><path d="M771.14 843.03h-1.95V842h1.94z" stroke="#bdf139" stroke-width=".05" fill="#bdf139"/><path d="M681.16 1479.82l10.18 17.22 10.18-17.22M883.35 103v10.12m0 10.12v20.25m0 10.1v20.26m0 10.12v20.24m0 10.12v20.25m0 10.1v20.26m0 10.12v20.24m0 10.12v20.25m0 10.1v20.26m0 10.12v20.24m0 10.12v20.25m0 10.1v20.26m0 10.12v20.24m0 10.12v20.25m0 10.1v20.26m0 10.12v20.24m0 10.12V599m0 10.1v20.26m0 10.12v20.24m0 10.12v20.25m0 10.1v20.26m0 10.12v20.24m0 10.12v20.25m0 10.1v20.26m0 10.12v20.24m0 10.12v20.25m0 10.1v20.26m0 10.12v20.24m0 10.12v20.25m0 10.1v20.26m0 10.12V1014l-.07.94-.22.9-.36.88-.5.8-.6.72-.72.6-.8.5-.87.37-.9.23-.95.07h-9.87m-9.86 0h-19.74m-9.87 0H808.3m-9.87 0H778.7m-9.87 0H749.1m-9.87 0h-9.86l-.94.07-.9.22-.88.35-.8.5-.72.6-.6.72-.5.8-.37.88-.22.9-.06.95v9.5m0 9.52v19.02m0 9.5v19.03m0 9.5v19.03m0 9.5v19.03m0 9.5v19.03m0 9.5v9.52" stroke="#bdf139" stroke-width="2" fill="none"/><path d="M884.33 103.03h-1.95V102h1.95z" stroke="#bdf139" stroke-width=".05" fill="#bdf139"/><path d="M713.16 1179.82l10.18 17.22 10.18-17.22M783.33 238v-11.25m0-11.25V193m0-11.25V159.38m0-11.1v-22.24m0-11.1V103.8" stroke="#bdf139" stroke-width="2" fill="none"/><path d="M784.3 239h-1.94v-1.03h1.94z" stroke="#bdf139" stroke-width=".05" fill="#bdf139"/><path d="M793.52 121.18l-10.18-17.22-10.18 17.22M813.97 208.25V170.5h.02V103.8" stroke="#bdf139" stroke-width="2" fill="none"/><path d="M813.97 237.6l-14.85-14.86 14.85-15.15 14.85 15.14z" stroke="#bdf139" stroke-width="2" fill="#bdf139"/><path d="M824.17 121.18L814 103.96l-10.2 17.22M924.75 103v9.6m0 9.6v19.18m0 9.6v19.2m0 9.58v19.2m0 9.6v19.18m0 9.6v19.18m0 9.6v19.2m0 9.58v9.6l.07.94.22.9.36.88.5.8.6.72.72.6.8.5.87.37.9.23.95.07h10.2m10.2 0h20.4m10.2 0h20.38m10.2 0h20.4m10.2 0h20.4m10.2 0h20.38m10.2 0h20.4m10.2 0h20.4m10.2 0h20.4m10.2 0h20.38m10.2 0h20.4m10.2 0h20.4m10.2 0h10.18l.94.07.92.22.87.35.8.5.7.6.62.72.5.8.35.88.22.9.07.95v9.56m0 9.55v19.13m0 9.55v19.1m0 9.57v19.1m0 9.57v19.1m0 9.57v19.1m0 9.56v19.1m0 9.57v9.55" stroke="#bdf139" stroke-width="2" fill="none"/><path d="M925.72 103.03h-1.95V102h1.95z" stroke="#bdf139" stroke-width=".05" fill="#bdf139"/><path d="M1293.68 499.82l10.18 17.22 10.2-17.22M964.84 132.75V264a6 6 0 0 0 6 6h363.84a6 6 0 0 1 6 6v241.18" stroke="#bdf139" stroke-width="2" fill="none"/><path d="M964.84 103.4l14.85 14.86-14.86 15.15L950 118.27z" stroke="#bdf139" stroke-width="2" fill="#bdf139"/><path d="M1330.5 499.82l10.18 17.22 10.18-17.22" stroke="#bdf139" stroke-width="2" fill="none"/><use xlink:href="#l" transform="matrix(1,0,0,1,972.8398415968583,139.06760283749225) translate(0 18.489583333333332)"/><use xlink:href="#l" transform="matrix(1,0,0,1,1348.6776372329102,466.9988582144375) translate(0 18.489583333333332)"/><path d="M1212.66 776v-95.5h.03v-71.53" stroke="#bdf139" stroke-width="6" fill="none"/><path d="M1215.63 779h-5.95v-3.08h5.95z" stroke="#bdf139" stroke-width=".05" fill="#bdf139"/><path d="M1212.7 591.7l4.62 14.27h-9.27z" stroke="#bdf139" stroke-width="6" fill="#bdf139"/><path d="M825.66 1198.6v-8.77m0-8.77v-17.53m0-8.76V1146l.07-.94.22-.9.36-.88.5-.8.6-.72.73-.6.8-.5.87-.37.92-.23.94-.07h9.78m9.8 0h19.56m9.78 0h19.57m9.8 0h19.56m9.8 0h19.56m9.8 0h19.56m9.78 0h19.57m9.8 0h19.56m9.78 0h19.58m9.8 0h19.56m9.78 0H1135m9.78 0h19.57m9.78 0h19.57m9.8 0h19.56m9.78 0h19.57m9.8 0h19.57m9.78 0h19.57m9.8 0h9.77l.93-.07.92-.22.87-.35.8-.5.72-.6.6-.72.5-.8.36-.88.22-.9.07-.95v-10.2m0-10.18v-20.37m0-10.2v-20.37m0-10.2v-20.37m0-10.17v-20.38m0-10.2V971m0-10.2v-20.36m0-10.2v-20.37m0-10.2V879.3m0-10.2v-20.38m0-10.2v-20.37m0-10.18V787.6m0-10.2v-20.38m0-10.18v-20.38m0-10.2V695.9m0-10.2v-20.37m0-10.2v-20.37m0-10.2V604.2m0-10.2v-10.18" stroke="#bdf139" stroke-width="2" fill="none"/><path d="M826.63 1200.1l-.57-.34-1-.42-.38-.1v-.67h1.95z" stroke="#bdf139" stroke-width=".05" fill="#bdf139"/><path d="M1346.87 601.18l-10.18-17.22-10.2 17.22M773.93 1198v-10.22m0-10.22v-20.45m0-10.2v-20.46m0-10.22V1106l.07-.94.22-.9.37-.88.48-.8.6-.72.72-.6.8-.5.88-.37.9-.23.95-.07h9.67m9.67 0h19.34m9.68 0h19.34m9.67 0h19.33m9.67 0h19.34m9.68 0h19.33m9.68 0h19.34m9.67 0h19.34m9.67 0h9.67l.94-.07.9-.22.88-.35.8-.5.72-.6.6-.72.5-.8.36-.88.22-.9.08-.95v-10.42m0-10.43v-20.85m0-10.42v-20.85m0-10.42v-20.84m0-10.43v-20.85m0-10.42V927.2m0-10.4v-20.86m0-10.43v-20.83m0-10.43v-10.42" stroke="#bdf139" stroke-width="2" fill="none"/><path d="M774.9 1199h-1.94v-1.03h1.95z" stroke="#bdf139" stroke-width=".05" fill="#bdf139"/><path d="M1028.2 861.18l-10.18-17.22-10.18 17.22M1303.87 583v9.83m0 9.84v19.66m0 9.84v19.66m0 9.84v19.66m0 9.84v19.66m0 9.84v19.66m0 9.84v19.66m0 9.84v19.66m0 9.84v19.66m0 9.84v19.66m0 9.84v19.66m0 9.84v19.66m0 9.84v19.66m0 9.84v19.66m0 9.84v19.66m0 9.84v19.66m0 9.84v19.66m0 9.84v19.66m0 9.84v9.83l-.08.94-.23.9-.36.88-.48.8-.6.72-.73.6-.8.5-.88.37-.92.23-.93.07h-10.28m-10.28 0h-20.55m-10.27 0h-20.55m-10.27 0h-20.55m-10.28 0h-20.54m-10.26 0h-20.55m-10.3 0h-20.53m-10.28 0h-20.55m-10.28 0h-20.54m-10.28 0h-20.55m-10.27 0h-20.55m-10.27 0h-20.54m-10.27 0h-20.56m-10.27 0h-20.55m-10.27 0H856.1m-10.27 0h-20.55m-10.27 0h-10.27l-.94.07-.92.22-.87.35-.8.5-.7.6-.62.72-.5.8-.35.88-.22.9-.07.95v11.86m0 11.87v23.72m0 11.87v11.86" stroke="#bdf139" stroke-width="2" fill="none"/><path d="M1304.84 583.03h-1.95V582h1.94z" stroke="#bdf139" stroke-width=".05" fill="#bdf139"/><path d="M788.55 1179.82l10.18 17.22 10.18-17.22M990.05 843v10.05m0 10.05v20.1m0 10.04v20.1m0 10.04v20.1m0 10.04v20.1m0 10.05v20.1m0 10.04v20.1m0 10.05V1054l-.07.94-.22.9-.36.88-.5.8-.6.72-.72.6-.8.5-.87.37-.9.23-.95.07h-9.44m-9.44 0h-18.9m-9.44 0h-18.9m-9.44 0h-18.9m-9.45 0h-18.9m-9.44 0h-18.9m-9.45 0h-18.9m-9.44 0h-18.88m-9.45 0h-9.45l-.94.07-.9.22-.88.35-.8.5-.72.6-.6.72-.5.8-.37.88-.2.9-.08.95v10.93m0 10.93v21.87m0 10.93v21.86m0 10.93v21.87m0 10.93v10.93" stroke="#bdf139" stroke-width="2" fill="none"/><path d="M991.03 843.03h-1.95V842h1.95z" stroke="#bdf139" stroke-width=".05" fill="#bdf139"/><path d="M741.14 1179.82l10.18 17.22 10.18-17.22M776.76 332.75V434a6 6 0 0 0 6 6h403.72a6 6 0 0 1 6 6v71.18" stroke="#bdf139" stroke-width="2" fill="none"/><path d="M776.76 303.4l14.85 14.86-14.84 15.15-14.85-15.14z" stroke="#bdf139" stroke-width="2" fill="#bdf139"/><path d="M1182.3 499.82l10.18 17.22 10.18-17.22" stroke="#bdf139" stroke-width="2" fill="none"/><use xlink:href="#l" transform="matrix(1,0,0,1,784.758312463824,343.87679516246436) translate(0 18.489583333333332)"/><use xlink:href="#l" transform="matrix(1,0,0,1,1171.1409416268837,470.8615068355606) translate(0 18.489583333333332)"/><path d="M803.48 303v10.1m0 10.12v20.22m0 10.12v20.22m0 10.1V394l.07.94.22.9.36.88.5.8.6.72.72.6.8.5.88.37.9.23.95.07h10.06m10.06 0h20.1m10.07 0h20.12m10.04 0h20.12m10.06 0h20.1m10.07 0h20.1m10.07 0h20.1m10.07 0h20.12m10.05 0h20.13m10.06 0h20.1m10.06 0h20.12m10.05 0h20.12m10.06 0h20.12m10.06 0h20.12m10.06 0h10.05l.95.07.92.22.87.35.8.5.72.6.6.72.5.8.36.88.22.9.07.95v9.26m0 9.27v18.53m0 9.27v18.53m0 9.26v18.53m0 9.27v9.26" stroke="#bdf139" stroke-width="2" fill="none"/><path d="M804.46 303.03h-1.96V302h1.96z" stroke="#bdf139" stroke-width=".05" fill="#bdf139"/><path d="M1227.73 499.82l10.18 17.22 10.2-17.22M1060.6 778v-9.73m0-9.74v-19.46m0-9.74v-19.46m0-9.74v-19.46m0-9.74v-19.46m0-9.74v-19.46m0-9.74v-19.46m0-9.74v-19.46m0-9.74v-19.46m0-9.74v-19.46m0-9.74V486l-.07-.94-.22-.9-.35-.88-.5-.8-.6-.72-.72-.6-.8-.5-.88-.37-.9-.23-.95-.07h-10.08m-10.1 0h-20.16m-10.1 0H984m-10.08 0h-20.17m-10.1 0H923.5m-10.1 0h-20.16m-10.1 0H863m-10.1 0h-20.16m-10.08 0h-20.17m-10.1 0h-20.16m-10.08 0h-10.08l-.94-.07-.92-.22-.86-.35-.8-.5-.72-.6-.62-.72-.5-.8-.35-.88-.22-.9-.06-.95v-9.45m0-9.46v-18.92m0-9.45v-18.9m0-9.47v-18.9m0-9.46v-18.9m0-9.46v-18.9m0-9.47v-9.45" stroke="#bdf139" stroke-width="2" fill="none"/><path d="M1061.58 779h-1.95v-1.03h1.95z" stroke="#bdf139" stroke-width=".05" fill="#bdf139"/><path d="M756.22 321.18l-10.18-17.22-10.18 17.22M1267.3 518v-9.47m0-9.46v-18.94m0-9.46v-18.94m0-9.46v-18.94m0-9.46v-18.94m0-9.46V376l-.08-.94-.22-.9-.36-.88-.5-.8-.6-.72-.72-.6-.8-.5-.87-.37-.9-.23-.95-.07h-10.06m-10.06 0h-20.1m-10.07 0h-20.1m-10.06 0h-20.12m-10.05 0h-20.12m-10.06 0h-20.12m-10.06 0h-20.1m-10.07 0h-20.1m-10.07 0h-20.12m-10.05 0h-20.1m-10.06 0h-20.12m-10.06 0h-20.1m-10.07 0h-20.12m-10.06 0h-20.1m-10.07 0H838.9l-.95-.07-.9-.22-.88-.35-.8-.5-.72-.6-.6-.72-.5-.8-.37-.88-.2-.9-.1-.95v-10.03m0-10.03v-20.06m0-10.03v-10.03" stroke="#bdf139" stroke-width="2" fill="none"/><path d="M1268.27 519h-1.95v-1.03h1.95z" stroke="#bdf139" stroke-width=".05" fill="#bdf139"/><path d="M843.07 321.18l-10.18-17.22-10.2 17.22M703.33 303v9.57m0 9.57v19.15m0 9.56V370m0 9.57v19.14m0 9.6v19.13m0 9.57v19.14m0 9.57v19.16m0 9.57V504l.08.94.23.9.36.88.48.8.6.72.72.6.8.5.88.37.9.23.95.07h11.63m11.63 0h23.25m11.63 0h23.26m11.63 0H814l.94.07.9.22.88.35.8.5.72.6.6.72.5.8.37.88.23.9.07.95v10.18m0 10.18v20.35m0 10.2v20.34m0 10.18v20.36m0 10.18v20.35m0 10.2v20.34m0 10.18v20.36m0 10.18v20.35m0 10.2v20.34m0 10.18v20.36m0 10.18v20.35m0 10.2v20.34m0 10.18v20.36m0 10.18v20.35m0 10.2v20.34m0 10.18V974l-.07.94-.22.9-.35.88-.5.8-.6.72-.72.6-.8.5-.88.37-.9.23-.95.07h-10.1m-10.08 0h-20.18m-10.08 0h-20.18m-10.1 0h-20.17m-10.08 0h-20.17m-10.1 0h-10.08l-.94.07-.9.22-.88.35-.8.5-.72.6-.6.72-.5.8-.37.88-.22.9-.07.95v9.28m0 9.28v18.55m0 9.3v18.54m0 9.28v18.56m0 9.28v18.55m0 9.3v18.54m0 9.28v9.28l.07.94.22.9.36.88.5.8.6.72.72.6.8.5.88.37.9.23.95.07H672m9.35 0h9.34l.92.07.92.22.87.35.8.5.73.6.6.72.5.8.36.88.2.9.1.95v10.73m0 10.72v10.73" stroke="#bdf139" stroke-width="2" fill="none"/><path d="M704.3 303.03h-1.94V302h1.95z" stroke="#bdf139" stroke-width=".05" fill="#bdf139"/><path d="M686.5 1179.82l10.2 17.22 10.17-17.22" stroke="#bdf139" stroke-width="2" fill="none"/><defs><path fill="#5f6572" d="M1229 0H935l-92-330H387L295 0H0l443-1349h344zM615-1167c-46 213-110 412-166 615h332c-56-204-119-401-166-615" id="n"/><path fill="#5f6572" d="M305-1169c27 366 9 780 14 1169H99v-1349h347c49 189 108 371 150 564 12 56 15 107 23 166 33-270 117-487 176-730h335V0H908c5-390-13-801 16-1169-52 285-130 541-199 809H507c-70-267-148-525-202-809" id="o"/><path fill="#5f6572" d="M1113-274C1038-96 884 20 626 20c-352 0-526-209-526-566 0-358 185-556 530-556 358 0 496 251 499 615H395c5 180 68 319 245 319 102 0 186-45 208-129zM857-663c-6-177-128-307-315-247-94 30-141 121-145 247h460" id="p"/><path fill="#5f6572" d="M768-1103c247 0 336 167 336 416V0H824v-619c-3-164-24-273-171-273-164 0-229 142-229 312V0H143c-4-359 9-736-8-1082h268c7 63 12 146 13 215h4c67-145 160-236 348-236" id="q"/><path fill="#5f6572" d="M471 20c-247 0-336-169-336-415v-687h281v607c4 148 31 285 172 285 152 0 207-150 207-312v-580h281c4 359-9 736 8 1082H816c-7-63-11-146-12-215h-5C736-76 644 20 471 20" id="r"/><path fill="#5f6572" d="M872-915c-35-112-84-223-220-223-91 0-156 41-204 116-89 137-87 550 2 688 51 79 116 122 209 122 150 0 197-126 240-244l273 52C1094-168 961 20 656 20 239 20 80-262 80-681c0-418 154-689 568-689 289 0 425 167 496 389" id="s"/><path fill="#5f6572" d="M616-1102c361 0 521 202 521 560 0 354-171 562-527 562C259 20 92-192 92-542c0-351 169-560 524-560zm-9 930c200-2 236-165 236-370 0-199-27-367-223-367-195 0-233 146-233 367 0 129 18 223 55 282s92 88 165 88" id="t"/><path fill="#5f6572" d="M934-1102c199 0 220 177 220 381V0H926c-2-260 10-533-4-785-4-72-14-138-83-138-34 0-61 27-81 81s-29 134-29 241V0H501c-2-260 9-533-5-785-4-72-13-138-82-138-46 0-65 47-80 93-21 67-30 155-30 248V0H75c-3-360 6-732-6-1082h209c6 50 3 123 8 175 36-100 83-195 216-195 135 0 166 79 196 196 42-105 93-196 236-196" id="u"/><path fill="#5f6572" d="M427-171c3 195 2 397 2 596H148V-846c1-83-4-168-8-236h272c10 49 14 118 15 176h4c59-114 151-197 316-197 291 0 385 259 385 560 0 243-65 433-220 521-50 28-109 42-176 42-162-2-253-78-309-191zm69-661c-91 113-92 463-1 586 46 62 145 101 225 54 96-57 118-191 119-351 0-123-18-215-53-276-46-82-128-115-220-74-25 12-48 33-70 61" id="v"/><path fill="#5f6572" d="M711 13c-250 0-386-99-385-349l2-556H161v-190h181l88-282h176v282h385v190H606v530c-10 130 45 186 174 184 91-2 176-11 255-27v186C933-1 833 13 711 13" id="w"/><g id="a"><use transform="matrix(0.010850694444444444,0,0,0.010850694444444444,0,0)" xlink:href="#n"/><use transform="matrix(0.010850694444444444,0,0,0.010850694444444444,13.335503472222221,0)" xlink:href="#o"/><use transform="matrix(0.010850694444444444,0,0,0.010850694444444444,26.671006944444443,0)" xlink:href="#p"/><use transform="matrix(0.010850694444444444,0,0,0.010850694444444444,40.006510416666664,0)" xlink:href="#q"/><use transform="matrix(0.010850694444444444,0,0,0.010850694444444444,53.342013888888886,0)" xlink:href="#r"/><use transform="matrix(0.010850694444444444,0,0,0.010850694444444444,66.67751736111111,0)" xlink:href="#s"/><use transform="matrix(0.010850694444444444,0,0,0.010850694444444444,80.01302083333334,0)" xlink:href="#t"/><use transform="matrix(0.010850694444444444,0,0,0.010850694444444444,93.34852430555557,0)" xlink:href="#u"/><use transform="matrix(0.010850694444444444,0,0,0.010850694444444444,106.6840277777778,0)" xlink:href="#v"/><use transform="matrix(0.010850694444444444,0,0,0.010850694444444444,120.01953125000003,0)" xlink:href="#t"/><use transform="matrix(0.010850694444444444,0,0,0.010850694444444444,133.35503472222226,0)" xlink:href="#q"/><use transform="matrix(0.010850694444444444,0,0,0.010850694444444444,146.69053819444449,0)" xlink:href="#p"/><use transform="matrix(0.010850694444444444,0,0,0.010850694444444444,160.0260416666667,0)" xlink:href="#q"/><use transform="matrix(0.010850694444444444,0,0,0.010850694444444444,173.36154513888894,0)" xlink:href="#w"/></g><g id="b"><use transform="matrix(0.010850694444444444,0,0,0.010850694444444444,0,0)" xlink:href="#n"/><use transform="matrix(0.010850694444444444,0,0,0.010850694444444444,13.335503472222221,0)" xlink:href="#o"/><use transform="matrix(0.010850694444444444,0,0,0.010850694444444444,26.671006944444443,0)" xlink:href="#p"/><use transform="matrix(0.010850694444444444,0,0,0.010850694444444444,40.006510416666664,0)" xlink:href="#q"/><use transform="matrix(0.010850694444444444,0,0,0.010850694444444444,53.342013888888886,0)" xlink:href="#r"/></g><path fill="#5f6572" d="M137 0v-1349h968v228H432v324h612v228H432v341h714V0H137" id="x"/><path fill="#5f6572" d="M774 0H438L31-1082h297c94 290 200 568 280 872 83-304 194-581 291-872h294" id="y"/><path fill="#5f6572" d="M794-190h353V0H118v-190h395v-702H223v-190h571v892zM513-1277v-207h281v207H513" id="z"/><path fill="#5f6572" d="M875-1102c70 0 148 7 206 17v237c-110-17-267-37-359 15-123 69-192 207-192 395V0H250c-10-367 32-789-52-1082h271c19 69 36 149 46 228h4c52-151 151-250 356-248" id="A"/><g id="c"><use transform="matrix(0.010850694444444444,0,0,0.010850694444444444,0,0)" xlink:href="#n"/><use transform="matrix(0.010850694444444444,0,0,0.010850694444444444,13.335503472222221,0)" xlink:href="#o"/><use transform="matrix(0.010850694444444444,0,0,0.010850694444444444,26.671006944444443,0)" xlink:href="#p"/><use transform="matrix(0.010850694444444444,0,0,0.010850694444444444,40.006510416666664,0)" xlink:href="#q"/><use transform="matrix(0.010850694444444444,0,0,0.010850694444444444,53.342013888888886,0)" xlink:href="#r"/><use transform="matrix(0.010850694444444444,0,0,0.010850694444444444,66.67751736111111,0)" xlink:href="#x"/><use transform="matrix(0.010850694444444444,0,0,0.010850694444444444,80.01302083333334,0)" xlink:href="#q"/><use transform="matrix(0.010850694444444444,0,0,0.010850694444444444,93.34852430555557,0)" xlink:href="#y"/><use transform="matrix(0.010850694444444444,0,0,0.010850694444444444,106.6840277777778,0)" xlink:href="#z"/><use transform="matrix(0.010850694444444444,0,0,0.010850694444444444,120.01953125000003,0)" xlink:href="#A"/><use transform="matrix(0.010850694444444444,0,0,0.010850694444444444,133.35503472222226,0)" xlink:href="#t"/><use transform="matrix(0.010850694444444444,0,0,0.010850694444444444,146.69053819444449,0)" xlink:href="#q"/><use transform="matrix(0.010850694444444444,0,0,0.010850694444444444,160.0260416666667,0)" xlink:href="#u"/><use transform="matrix(0.010850694444444444,0,0,0.010850694444444444,173.36154513888894,0)" xlink:href="#p"/><use transform="matrix(0.010850694444444444,0,0,0.010850694444444444,186.69704861111117,0)" xlink:href="#q"/><use transform="matrix(0.010850694444444444,0,0,0.010850694444444444,200.0325520833334,0)" xlink:href="#w"/></g><path fill="#5f6572" d="M775-193C708-75 621 20 439 20 226 20 106-93 106-306c0-251 170-341 417-346l223-4c4-143-12-264-148-264-103 0-141 58-150 153l-293-14c37-219 194-321 455-321 263 0 418 130 417 390v392c1 84 5 161 89 160 21 0 42-2 62-6v152c-57 15-108 27-180 26-145 0-202-73-217-205h-6zm-256 17c168 0 234-139 227-325-166 4-347-25-347 173 0 94 33 152 120 152" id="B"/><g id="d"><use transform="matrix(0.010850694444444444,0,0,0.010850694444444444,0,0)" xlink:href="#o"/><use transform="matrix(0.010850694444444444,0,0,0.010850694444444444,13.335503472222221,0)" xlink:href="#B"/><use transform="matrix(0.010850694444444444,0,0,0.010850694444444444,26.671006944444443,0)" xlink:href="#z"/><use transform="matrix(0.010850694444444444,0,0,0.010850694444444444,40.006510416666664,0)" xlink:href="#q"/><use transform="matrix(0.010850694444444444,0,0,0.010850694444444444,53.342013888888886,0)" xlink:href="#o"/><use transform="matrix(0.010850694444444444,0,0,0.010850694444444444,66.67751736111111,0)" xlink:href="#p"/><use transform="matrix(0.010850694444444444,0,0,0.010850694444444444,80.01302083333334,0)" xlink:href="#q"/><use transform="matrix(0.010850694444444444,0,0,0.010850694444444444,93.34852430555557,0)" xlink:href="#r"/><use transform="matrix(0.010850694444444444,0,0,0.010850694444444444,106.6840277777778,0)" xlink:href="#x"/><use transform="matrix(0.010850694444444444,0,0,0.010850694444444444,120.01953125000003,0)" xlink:href="#q"/><use transform="matrix(0.010850694444444444,0,0,0.010850694444444444,133.35503472222226,0)" xlink:href="#y"/><use transform="matrix(0.010850694444444444,0,0,0.010850694444444444,146.69053819444449,0)" xlink:href="#z"/><use transform="matrix(0.010850694444444444,0,0,0.010850694444444444,160.0260416666667,0)" xlink:href="#A"/><use transform="matrix(0.010850694444444444,0,0,0.010850694444444444,173.36154513888894,0)" xlink:href="#t"/><use transform="matrix(0.010850694444444444,0,0,0.010850694444444444,186.69704861111117,0)" xlink:href="#q"/><use transform="matrix(0.010850694444444444,0,0,0.010850694444444444,200.0325520833334,0)" xlink:href="#u"/><use transform="matrix(0.010850694444444444,0,0,0.010850694444444444,213.36805555555563,0)" xlink:href="#p"/><use transform="matrix(0.010850694444444444,0,0,0.010850694444444444,226.70355902777786,0)" xlink:href="#q"/><use transform="matrix(0.010850694444444444,0,0,0.010850694444444444,240.03906250000006,0)" xlink:href="#w"/></g><path fill="#5f6572" d="M1018 0H770c-49-215-106-420-154-636C567-419 511-214 459 0H211L0-1349h259c35 320 94 617 105 961 37-206 100-393 154-583h195c54 191 118 375 154 583 14-339 68-641 102-961h259" id="C"/><path fill="#5f6572" d="M802-909c-3-189-2-383-2-575h281v1248c-1 83 4 168 8 236H817c-9-50-14-117-15-176h-4C735-49 651 20 482 20 191 20 97-238 97-539c0-243 66-432 221-519 50-28 108-42 175-42 162 2 253 78 309 191zm-70 658c91-113 93-462 2-584-46-61-145-100-224-53-96 56-119 190-120 349 0 123 17 214 52 275 46 82 130 115 222 74 25-12 46-33 68-61" id="D"/><path fill="#5f6572" d="M1028 0H784c-56-191-119-378-170-573C562-377 495-191 437 0H194L11-1082h228c32 239 67 472 95 714 4 40 7 80 7 119 53-195 119-378 177-568h193c56 190 120 371 169 568-1-79 11-158 21-226l91-607h226" id="E"/><g id="e"><use transform="matrix(0.010850694444444444,0,0,0.010850694444444444,0,0)" xlink:href="#o"/><use transform="matrix(0.010850694444444444,0,0,0.010850694444444444,13.335503472222221,0)" xlink:href="#B"/><use transform="matrix(0.010850694444444444,0,0,0.010850694444444444,26.671006944444443,0)" xlink:href="#z"/><use transform="matrix(0.010850694444444444,0,0,0.010850694444444444,40.006510416666664,0)" xlink:href="#q"/><use transform="matrix(0.010850694444444444,0,0,0.010850694444444444,53.342013888888886,0)" xlink:href="#C"/><use transform="matrix(0.010850694444444444,0,0,0.010850694444444444,66.67751736111111,0)" xlink:href="#z"/><use transform="matrix(0.010850694444444444,0,0,0.010850694444444444,80.01302083333334,0)" xlink:href="#q"/><use transform="matrix(0.010850694444444444,0,0,0.010850694444444444,93.34852430555557,0)" xlink:href="#D"/><use transform="matrix(0.010850694444444444,0,0,0.010850694444444444,106.6840277777778,0)" xlink:href="#t"/><use transform="matrix(0.010850694444444444,0,0,0.010850694444444444,120.01953125000003,0)" xlink:href="#E"/></g><g id="f"><use transform="matrix(0.010850694444444444,0,0,0.010850694444444444,0,0)" xlink:href="#n"/><use transform="matrix(0.010850694444444444,0,0,0.010850694444444444,13.335503472222221,0)" xlink:href="#C"/><use transform="matrix(0.010850694444444444,0,0,0.010850694444444444,26.671006944444443,0)" xlink:href="#z"/><use transform="matrix(0.010850694444444444,0,0,0.010850694444444444,40.006510416666664,0)" xlink:href="#q"/><use transform="matrix(0.010850694444444444,0,0,0.010850694444444444,53.342013888888886,0)" xlink:href="#D"/><use transform="matrix(0.010850694444444444,0,0,0.010850694444444444,66.67751736111111,0)" xlink:href="#t"/><use transform="matrix(0.010850694444444444,0,0,0.010850694444444444,80.01302083333334,0)" xlink:href="#E"/></g><path fill="#5f6572" d="M622-916c-112 2-200 14-200 111 0 90 89 101 168 121 234 58 514 77 514 368C1104-4 751 54 434 5 267-21 161-112 121-270l247-37c24 111 113 145 252 141 114-3 226-12 226-124 0-101-103-113-192-134-225-54-490-76-490-351 0-247 201-328 458-328 245 0 413 88 457 292l-249 26c-16-98-92-133-208-131" id="F"/><g id="g"><use transform="matrix(0.010850694444444444,0,0,0.010850694444444444,0,0)" xlink:href="#n"/><use transform="matrix(0.010850694444444444,0,0,0.010850694444444444,13.335503472222221,0)" xlink:href="#s"/><use transform="matrix(0.010850694444444444,0,0,0.010850694444444444,26.671006944444443,0)" xlink:href="#B"/><use transform="matrix(0.010850694444444444,0,0,0.010850694444444444,40.006510416666664,0)" xlink:href="#q"/><use transform="matrix(0.010850694444444444,0,0,0.010850694444444444,53.342013888888886,0)" xlink:href="#y"/><use transform="matrix(0.010850694444444444,0,0,0.010850694444444444,66.67751736111111,0)" xlink:href="#B"/><use transform="matrix(0.010850694444444444,0,0,0.010850694444444444,80.01302083333334,0)" xlink:href="#F"/></g><path fill="#5f6572" d="M796 0v-574H433V0H138v-1349h295v531h363v-531h295V0H796" id="G"/><path fill="#5f6572" d="M794-190h353V0H118v-190h395v-1104H223v-190h571v1294" id="H"/><g id="h"><use transform="matrix(0.010850694444444444,0,0,0.010850694444444444,0,0)" xlink:href="#x"/><use transform="matrix(0.010850694444444444,0,0,0.010850694444444444,13.335503472222221,0)" xlink:href="#q"/><use transform="matrix(0.010850694444444444,0,0,0.010850694444444444,26.671006944444443,0)" xlink:href="#y"/><use transform="matrix(0.010850694444444444,0,0,0.010850694444444444,40.006510416666664,0)" xlink:href="#z"/><use transform="matrix(0.010850694444444444,0,0,0.010850694444444444,53.342013888888886,0)" xlink:href="#A"/><use transform="matrix(0.010850694444444444,0,0,0.010850694444444444,66.67751736111111,0)" xlink:href="#t"/><use transform="matrix(0.010850694444444444,0,0,0.010850694444444444,80.01302083333334,0)" xlink:href="#q"/><use transform="matrix(0.010850694444444444,0,0,0.010850694444444444,93.34852430555557,0)" xlink:href="#u"/><use transform="matrix(0.010850694444444444,0,0,0.010850694444444444,106.6840277777778,0)" xlink:href="#p"/><use transform="matrix(0.010850694444444444,0,0,0.010850694444444444,120.01953125000003,0)" xlink:href="#q"/><use transform="matrix(0.010850694444444444,0,0,0.010850694444444444,133.35503472222226,0)" xlink:href="#w"/><use transform="matrix(0.010850694444444444,0,0,0.010850694444444444,146.69053819444449,0)" xlink:href="#F"/><use transform="matrix(0.010850694444444444,0,0,0.010850694444444444,160.0260416666667,0)" xlink:href="#G"/><use transform="matrix(0.010850694444444444,0,0,0.010850694444444444,173.36154513888894,0)" xlink:href="#B"/><use transform="matrix(0.010850694444444444,0,0,0.010850694444444444,186.69704861111117,0)" xlink:href="#q"/><use transform="matrix(0.010850694444444444,0,0,0.010850694444444444,200.0325520833334,0)" xlink:href="#D"/><use transform="matrix(0.010850694444444444,0,0,0.010850694444444444,213.36805555555563,0)" xlink:href="#H"/><use transform="matrix(0.010850694444444444,0,0,0.010850694444444444,226.70355902777786,0)" xlink:href="#p"/><use transform="matrix(0.010850694444444444,0,0,0.010850694444444444,240.03906250000006,0)" xlink:href="#A"/></g><g id="i"><use transform="matrix(0.010850694444444444,0,0,0.010850694444444444,0,0)" xlink:href="#n"/><use transform="matrix(0.010850694444444444,0,0,0.010850694444444444,13.335503472222221,0)" xlink:href="#x"/><use transform="matrix(0.010850694444444444,0,0,0.010850694444444444,26.671006944444443,0)" xlink:href="#q"/><use transform="matrix(0.010850694444444444,0,0,0.010850694444444444,40.006510416666664,0)" xlink:href="#y"/><use transform="matrix(0.010850694444444444,0,0,0.010850694444444444,53.342013888888886,0)" xlink:href="#z"/><use transform="matrix(0.010850694444444444,0,0,0.010850694444444444,66.67751736111111,0)" xlink:href="#A"/><use transform="matrix(0.010850694444444444,0,0,0.010850694444444444,80.01302083333334,0)" xlink:href="#t"/><use transform="matrix(0.010850694444444444,0,0,0.010850694444444444,93.34852430555557,0)" xlink:href="#q"/><use transform="matrix(0.010850694444444444,0,0,0.010850694444444444,106.6840277777778,0)" xlink:href="#u"/><use transform="matrix(0.010850694444444444,0,0,0.010850694444444444,120.01953125000003,0)" xlink:href="#p"/><use transform="matrix(0.010850694444444444,0,0,0.010850694444444444,133.35503472222226,0)" xlink:href="#q"/><use transform="matrix(0.010850694444444444,0,0,0.010850694444444444,146.69053819444449,0)" xlink:href="#w"/></g><path fill="#5f6572" d="M616-1349c316 3 526 118 526 426 0 301-201 442-514 447H431V0H136v-1349h480zm-25 646c164 1 254-62 254-215 0-157-99-200-262-202H431v417h160" id="I"/><g id="j"><use transform="matrix(0.010850694444444444,0,0,0.010850694444444444,0,0)" xlink:href="#I"/><use transform="matrix(0.010850694444444444,0,0,0.010850694444444444,13.335503472222221,0)" xlink:href="#B"/><use transform="matrix(0.010850694444444444,0,0,0.010850694444444444,26.671006944444443,0)" xlink:href="#r"/><use transform="matrix(0.010850694444444444,0,0,0.010850694444444444,40.006510416666664,0)" xlink:href="#F"/><use transform="matrix(0.010850694444444444,0,0,0.010850694444444444,53.342013888888886,0)" xlink:href="#p"/><use transform="matrix(0.010850694444444444,0,0,0.010850694444444444,66.67751736111111,0)" xlink:href="#o"/><use transform="matrix(0.010850694444444444,0,0,0.010850694444444444,80.01302083333334,0)" xlink:href="#p"/><use transform="matrix(0.010850694444444444,0,0,0.010850694444444444,93.34852430555557,0)" xlink:href="#q"/><use transform="matrix(0.010850694444444444,0,0,0.010850694444444444,106.6840277777778,0)" xlink:href="#r"/><use transform="matrix(0.010850694444444444,0,0,0.010850694444444444,120.01953125000003,0)" xlink:href="#x"/><use transform="matrix(0.010850694444444444,0,0,0.010850694444444444,133.35503472222226,0)" xlink:href="#q"/><use transform="matrix(0.010850694444444444,0,0,0.010850694444444444,146.69053819444449,0)" xlink:href="#y"/><use transform="matrix(0.010850694444444444,0,0,0.010850694444444444,160.0260416666667,0)" xlink:href="#z"/><use transform="matrix(0.010850694444444444,0,0,0.010850694444444444,173.36154513888894,0)" xlink:href="#A"/><use transform="matrix(0.010850694444444444,0,0,0.010850694444444444,186.69704861111117,0)" xlink:href="#t"/><use transform="matrix(0.010850694444444444,0,0,0.010850694444444444,200.0325520833334,0)" xlink:href="#q"/><use transform="matrix(0.010850694444444444,0,0,0.010850694444444444,213.36805555555563,0)" xlink:href="#u"/><use transform="matrix(0.010850694444444444,0,0,0.010850694444444444,226.70355902777786,0)" xlink:href="#p"/><use transform="matrix(0.010850694444444444,0,0,0.010850694444444444,240.03906250000006,0)" xlink:href="#q"/><use transform="matrix(0.010850694444444444,0,0,0.010850694444444444,253.37456597222234,0)" xlink:href="#w"/></g><path fill="#5f6572" d="M101-516v-322l1027-391v228L295-676l833 324v227" id="J"/><path fill="#5f6572" d="M762-1121V0H467v-1121H61v-228h1107v228H762" id="K"/><path fill="#5f6572" d="M101-125v-227l832-324-832-325v-228l1027 391v322" id="L"/><g id="k"><use transform="matrix(0.010850694444444444,0,0,0.010850694444444444,0,0)" xlink:href="#x"/><use transform="matrix(0.010850694444444444,0,0,0.010850694444444444,13.335503472222221,0)" xlink:href="#q"/><use transform="matrix(0.010850694444444444,0,0,0.010850694444444444,26.671006944444443,0)" xlink:href="#y"/><use transform="matrix(0.010850694444444444,0,0,0.010850694444444444,40.006510416666664,0)" xlink:href="#z"/><use transform="matrix(0.010850694444444444,0,0,0.010850694444444444,53.342013888888886,0)" xlink:href="#A"/><use transform="matrix(0.010850694444444444,0,0,0.010850694444444444,66.67751736111111,0)" xlink:href="#t"/><use transform="matrix(0.010850694444444444,0,0,0.010850694444444444,80.01302083333334,0)" xlink:href="#q"/><use transform="matrix(0.010850694444444444,0,0,0.010850694444444444,93.34852430555557,0)" xlink:href="#u"/><use transform="matrix(0.010850694444444444,0,0,0.010850694444444444,106.6840277777778,0)" xlink:href="#p"/><use transform="matrix(0.010850694444444444,0,0,0.010850694444444444,120.01953125000003,0)" xlink:href="#q"/><use transform="matrix(0.010850694444444444,0,0,0.010850694444444444,133.35503472222226,0)" xlink:href="#w"/><use transform="matrix(0.010850694444444444,0,0,0.010850694444444444,146.69053819444449,0)" xlink:href="#s"/><use transform="matrix(0.010850694444444444,0,0,0.010850694444444444,160.0260416666667,0)" xlink:href="#B"/><use transform="matrix(0.010850694444444444,0,0,0.010850694444444444,173.36154513888894,0)" xlink:href="#q"/><use transform="matrix(0.010850694444444444,0,0,0.010850694444444444,186.69704861111117,0)" xlink:href="#y"/><use transform="matrix(0.010850694444444444,0,0,0.010850694444444444,200.0325520833334,0)" xlink:href="#B"/><use transform="matrix(0.010850694444444444,0,0,0.010850694444444444,213.36805555555563,0)" xlink:href="#F"/><use transform="matrix(0.010850694444444444,0,0,0.010850694444444444,226.70355902777786,0)" xlink:href="#J"/><use transform="matrix(0.010850694444444444,0,0,0.010850694444444444,240.03906250000006,0)" xlink:href="#K"/><use transform="matrix(0.010850694444444444,0,0,0.010850694444444444,253.37456597222234,0)" xlink:href="#L"/></g><path fill="#fff" d="M148-1120c216-7 379-89 463-229h166v1204h353V0H157v-145h439v-1021c-79 124-254 184-448 194v-148" id="M"/><use transform="matrix(0.010850694444444444,0,0,0.010850694444444444,0,0)" xlink:href="#M" id="l"/><path fill="#fff" d="M671-1188l264-103 45 132-282 73 185 250-119 72-150-258-156 256-119-72 189-248-280-73 45-134 267 107-12-297h136" id="N"/><use transform="matrix(0.010850694444444444,0,0,0.010850694444444444,0,0)" xlink:href="#N" id="m"/></defs></g></svg>