<svg xmlns="http://www.w3.org/2000/svg" xmlns:xlink="http://www.w3.org/1999/xlink" xmlns:lucid="lucid" width="1456" height="1058"><g transform="translate(0 0)" lucid:page-tab-id="dV1cl42RHIRV"><path d="M0 0h1455.73v1058.12H0z" fill="#21252c"/><path d="M320 46a6 6 0 0 1 6-6h228a6 6 0 0 1 6 6v49a6 6 0 0 1-6 6H326a6 6 0 0 1-6-6z" stroke="#a9a9a9" stroke-width="2" fill="#f5fbff"/><use xlink:href="#a" transform="matrix(1,0,0,1,328,48) translate(5.315972222222186 29.28168402777778)"/><path d="M640 46a6 6 0 0 1 6-6h228a6 6 0 0 1 6 6v49a6 6 0 0 1-6 6H646a6 6 0 0 1-6-6z" stroke="#a9a9a9" stroke-width="2" fill="#f5fbff"/><use xlink:href="#b" transform="matrix(1,0,0,1,648,48) translate(18.651475694444414 29.28168402777778)"/><path d="M420 306a6 6 0 0 1 6-6h348a6 6 0 0 1 6 6v49a6 6 0 0 1-6 6H426a6 6 0 0 1-6-6z" stroke="#a9a9a9" stroke-width="2" fill="#f5fbff"/><use xlink:href="#c" transform="matrix(1,0,0,1,428,308) translate(111.99023437499999 29.28168402777778)"/><path d="M40 686a6 6 0 0 1 6-6h228a6 6 0 0 1 6 6v49a6 6 0 0 1-6 6H46a6 6 0 0 1-6-6z" stroke="#a9a9a9" stroke-width="2" fill="#f5fbff"/><use xlink:href="#d" transform="matrix(1,0,0,1,48,688) translate(-1.3517795138889284 29.28168402777778)"/><path d="M360 686a6 6 0 0 1 6-6h228a6 6 0 0 1 6 6v49a6 6 0 0 1-6 6H366a6 6 0 0 1-6-6z" stroke="#a9a9a9" stroke-width="2" fill="#f5fbff"/><use xlink:href="#e" transform="matrix(1,0,0,1,368,688) translate(-1.3517795138889284 29.28168402777778)"/><path d="M660 686a6 6 0 0 1 6-6h228a6 6 0 0 1 6 6v49a6 6 0 0 1-6 6H666a6 6 0 0 1-6-6z" stroke="#a9a9a9" stroke-width="2" fill="#f5fbff"/><use xlink:href="#f" transform="matrix(1,0,0,1,667.9999999999999,688) translate(31.986979166666643 29.28168402777778)"/><path d="M960 686a6 6 0 0 1 6-6h228a6 6 0 0 1 6 6v49a6 6 0 0 1-6 6H966a6 6 0 0 1-6-6z" stroke="#a9a9a9" stroke-width="2" fill="#f5fbff"/><use xlink:href="#g" transform="matrix(1,0,0,1,968,688) translate(31.986979166666643 29.28168402777778)"/><path d="M754 946a6 6 0 0 1 6-6h228a6 6 0 0 1 6 6v49a6 6 0 0 1-6 6H760a6 6 0 0 1-6-6z" stroke="#a9a9a9" stroke-width="2" fill="#f5fbff"/><use xlink:href="#h" transform="matrix(1,0,0,1,761.9980281939368,948) translate(11.9837239583333 29.28168402777778)"/><path d="M1160 946a6 6 0 0 1 6-6h228a6 6 0 0 1 6 6v49a6 6 0 0 1-6 6h-228a6 6 0 0 1-6-6z" stroke="#a9a9a9" stroke-width="2" fill="#f5fbff"/><use xlink:href="#i" transform="matrix(1,0,0,1,1168,948) translate(11.9837239583333 29.28168402777778)"/><path d="M430.36 298v-10.82m0-10.8v-21.65m0-10.8v-21.65m0-10.8V200.6l.02-.02v-.02l.03-.02h.03v-.02h.04l.02-.02h.06l.02-.02h.02l.02-.02.02-.02v-.02l.02-.02V189.62m0-10.72v-21.45m0-10.73v-21.45m0-10.73v-10.72" stroke="#bdf139" stroke-width="2" fill="none"/><path d="M431.34 299h-1.95v-1.03h1.94z" stroke="#bdf139" stroke-width=".05" fill="#bdf139"/><path d="M440.85 121.18l-10.2-17.22-10.16 17.22M464.8 268.25v-67.63a.12.12 0 0 1 .1-.12.12.12 0 0 0 .12-.12v-96.56" stroke="#bdf139" stroke-width="2" fill="none"/><path d="M464.8 297.6l-14.86-14.86 14.85-15.15 14.84 15.14z" stroke="#bdf139" stroke-width="2" fill="#bdf139"/><path d="M475.2 121.18l-10.18-17.22-10.18 17.22" stroke="#bdf139" stroke-width="2" fill="none"/><use xlink:href="#j" transform="matrix(1,0,0,1,443.4519052402625,240.47453706941826) translate(0 18.489583333333332)"/><use xlink:href="#j" transform="matrix(1,0,0,1,443.68875902468255,129.12141298858361) translate(0 18.489583333333332)"/><path d="M512.1 132.75v67.64a.1.1 0 0 1-.1.1.1.1 0 0 0-.1.1v96.58" stroke="#bdf139" stroke-width="2" fill="none"/><path d="M512.1 103.4l14.85 14.86-14.85 15.15-14.85-15.14z" stroke="#bdf139" stroke-width="2" fill="#bdf139"/><path d="M501.7 279.82l10.2 17.22 10.17-17.22" stroke="#bdf139" stroke-width="2" fill="none"/><use xlink:href="#j" transform="matrix(1,0,0,1,490.7632651020869,134.43894881827902) translate(0 18.489583333333332)"/><use xlink:href="#j" transform="matrix(1,0,0,1,490.55069702801546,241.81283156244245) translate(0 18.489583333333332)"/><path d="M541.5 103v10.82m0 10.82v21.64m0 10.82v21.64m0 10.82V200.44h-.02v.03h-.02l-.02.02H541.33v.02h-.03v.03h-.02v10.8m0 10.73v21.45m0 10.73v21.46m0 10.73v10.73" stroke="#bdf139" stroke-width="2" fill="none"/><path d="M542.48 103.03h-1.95V102h1.95z" stroke="#bdf139" stroke-width=".05" fill="#bdf139"/><path d="M531.1 279.82l10.17 17.22 10.18-17.22M668 268.25V200.5h.02V103.8" stroke="#bdf139" stroke-width="2" fill="none"/><path d="M668 297.6l-14.84-14.86L668 267.6l14.86 15.14z" stroke="#bdf139" stroke-width="2" fill="#bdf139"/><path d="M678.2 121.18l-10.17-17.22-10.18 17.22" stroke="#bdf139" stroke-width="2" fill="none"/><use xlink:href="#j" transform="matrix(1,0,0,1,646.6923081420006,125.11224732728743) translate(0 18.489583333333332)"/><use xlink:href="#j" transform="matrix(1,0,0,1,646.6779773190598,236.5288107836452) translate(0 18.489583333333332)"/><path d="M696 298v-10.83m0-10.84v-21.66m0-10.84v-21.66m0-10.84v-21.57m0-10.75v-21.47m0-10.74v-21.5m0-10.74v-10.74" stroke="#bdf139" stroke-width="2" fill="none"/><path d="M696.98 299h-1.95v-1.03h1.95z" stroke="#bdf139" stroke-width=".05" fill="#bdf139"/><path d="M706.18 121.18L696 103.96l-10.18 17.22M723 103v97.5h-.02v96.68" stroke="#bdf139" stroke-width="2" fill="none"/><path d="M723.97 103.03H722V102H724z" stroke="#bdf139" stroke-width=".05" fill="#bdf139"/><path d="M712.8 279.82l10.18 17.22 10.18-17.22" stroke="#bdf139" stroke-width="2" fill="none"/><use xlink:href="#j" transform="matrix(1,0,0,1,730.9895790582111,119.82324823864101) translate(0 18.489583333333332)"/><use xlink:href="#j" transform="matrix(1,0,0,1,730.9774468987272,248.4794432601533) translate(0 18.489583333333332)"/><path d="M762.67 103v10.83m0 10.83v21.66m0 10.83v21.65m0 10.83v10.85l-.02.02h-.04v10.78m0 10.73v21.5m0 10.73v21.47m0 10.74v10.74" stroke="#bdf139" stroke-width="2" fill="none"/><path d="M763.65 103.03h-1.95V102h1.95z" stroke="#bdf139" stroke-width=".05" fill="#bdf139"/><path d="M752.42 279.82l10.18 17.22 10.18-17.22M160 678v-10.1m0-10.12v-20.22m0-10.12v-20.22m0-10.1v-20.23m0-10.12v-20.22m0-10.12v-20.22m0-10.1V496l.07-.94.22-.9.35-.88.5-.8.6-.72.72-.6.8-.5.88-.37.9-.23.95-.07h10.34m10.33 0h20.67m10.34 0h20.67m10.33 0h20.67m10.34 0h20.66m10.33 0h20.66m10.34 0h20.67m10.33 0h20.68m10.33 0h20.68m10.34 0h10.33l.94-.07.9-.22.88-.35.8-.5.72-.6.6-.72.5-.8.36-.88.22-.9.07-.95v-10m0-10.03v-20.03m0-10.02V413.9m0-10.02v-20.03m0-10.02v-10" stroke="#bdf139" stroke-width="2" fill="none"/><path d="M160.97 679h-1.94v-1.03h1.94z" stroke="#bdf139" stroke-width=".05" fill="#bdf139"/><path d="M461.23 381.18l-10.18-17.22-10.18 17.22" stroke="#bdf139" stroke-width="2" fill="none"/><path d="M98.92 676V456a6 6 0 0 1 6-6h229.12a6 6 0 0 0 6-6V128.97" stroke="#bdf139" stroke-width="6" fill="none"/><path d="M101.9 679h-5.95v-3.08h5.95z" stroke="#bdf139" stroke-width=".05" fill="#bdf139"/><path d="M340.04 111.7l4.63 14.27h-9.27z" stroke="#bdf139" stroke-width="6" fill="#bdf139"/><path d="M480 676v-90a6 6 0 0 0-6-6h-83a6 6 0 0 1-6-6V128.97" stroke="#bdf139" stroke-width="6" fill="none"/><path d="M482.98 679h-5.96v-3.08h5.96z" stroke="#bdf139" stroke-width=".05" fill="#bdf139"/><path d="M385 111.7l4.63 14.27h-9.27z" stroke="#bdf139" stroke-width="6" fill="#bdf139"/><path d="M529 678v-10.5m0-10.5v-21m0-10.5v-21m0-10.5v-21m0-10.5v-21m0-10.5v-20.95m0-10.45v-20.9m0-10.43v-20.9m0-10.44v-20.9m0-10.43v-20.9m0-10.44v-10.44" stroke="#bdf139" stroke-width="2" fill="none"/><path d="M529.98 679h-1.95v-1.03h1.95z" stroke="#bdf139" stroke-width=".05" fill="#bdf139"/><path d="M539.17 381.18L529 363.96l-10.2 17.22" stroke="#bdf139" stroke-width="2" fill="none"/><path d="M874 936v-70a6 6 0 0 1 6-6h364a6 6 0 0 0 6-6V276a6 6 0 0 0-6-6H796a6 6 0 0 1-6-6V148a6 6 0 0 1 6-6h28.1a6 6 0 0 0 6-6v-7.03" stroke="#bdf139" stroke-width="6" fill="none"/><path d="M876.97 939h-5.95v-3.08h5.95z" stroke="#bdf139" stroke-width=".05" fill="#bdf139"/><path d="M830.1 111.7l4.63 14.27h-9.27z" stroke="#bdf139" stroke-width="6" fill="#bdf139"/><path d="M1280 936V246a6 6 0 0 0-6-6H865.17a6 6 0 0 1-6-6V128.97" stroke="#bdf139" stroke-width="6" fill="none"/><path d="M1282.97 939h-5.94v-3.08h5.94z" stroke="#bdf139" stroke-width=".05" fill="#bdf139"/><path d="M859.17 111.7l4.63 14.27h-9.27z" stroke="#bdf139" stroke-width="6" fill="#bdf139"/><path d="M1080 676V526.5a6 6 0 0 0-6-6H768.18a6 6 0 0 1-6-6V388.97" stroke="#bdf139" stroke-width="6" fill="none"/><path d="M1082.97 679h-5.94v-3.08h5.94z" stroke="#bdf139" stroke-width=".05" fill="#bdf139"/><path d="M762.18 371.7l4.63 14.27h-9.26z" stroke="#bdf139" stroke-width="6" fill="#bdf139"/><path d="M780 676V576a6 6 0 0 0-6-6h-83.9a6 6 0 0 1-6-6V388.97" stroke="#bdf139" stroke-width="6" fill="none"/><path d="M782.98 679H777v-3.08H783z" stroke="#bdf139" stroke-width=".05" fill="#bdf139"/><path d="M684.1 371.7l4.64 14.27h-9.27z" stroke="#bdf139" stroke-width="6" fill="#bdf139"/><path d="M1224.93 938v-10.17m0-10.16v-20.34m0-10.16v-20.34m0-10.16v-20.34m0-10.16V816l-.07-.94-.22-.9-.36-.88-.5-.8-.6-.72-.72-.6-.8-.5-.87-.37-.93-.23-.93-.07h-11.08m-11.08 0h-22.16m-11.07 0h-22.16m-11.1 0h-22.14m-11.08 0H1086l-.94-.07-.9-.22-.88-.35-.8-.5-.72-.6-.6-.72-.5-.8-.37-.88-.23-.9-.07-.95v-10.03m0-10.03v-20.06m0-10.03v-10.03" stroke="#bdf139" stroke-width="2" fill="none"/><path d="M1225.9 939h-1.94v-1.03h1.95z" stroke="#bdf139" stroke-width=".05" fill="#bdf139"/><path d="M1090.18 761.18L1080 743.96l-10.18 17.22M1193.87 938v-11m0-11v-11l.07-.94.22-.9.36-.88.5-.8.6-.72.72-.6.8-.5.87-.37.93-.23.94-.07h9.38m9.37 0h9.38l.94-.07.92-.22.87-.35.8-.5.7-.6.63-.72.5-.8.35-.88.23-.9.07-.95v-9.5m0-9.5v-19m0-9.5V836l-.07-.94-.22-.9-.35-.88-.5-.8-.6-.72-.72-.6-.8-.5-.87-.37-.92-.23-.94-.07h-9.73m-9.73 0h-19.47m-9.73 0h-19.47m-9.73 0h-19.47m-9.74 0h-19.46m-9.74 0h-19.46m-9.74 0h-19.46m-9.74 0h-19.46m-9.74 0h-19.46m-9.74 0h-19.46m-9.74 0H936l-.94-.07-.9-.22-.88-.35-.8-.5-.72-.6-.6-.72-.5-.8-.37-.88-.23-.9-.07-.95v-10.3m0-10.3v-20.58m0-10.3v-20.6m0-10.3v-20.58m0-10.3v-20.6m0-10.3v-20.58m0-10.3v-20.6m0-10.3V597.5m0-10.3v-20.6m0-10.28V546l-.07-.94-.22-.9-.35-.88-.5-.8-.6-.72-.72-.6-.8-.5-.88-.37-.9-.23-.95-.07h-9.83m-9.84 0h-19.66m-9.84 0h-19.66m-9.84 0h-19.66m-9.84 0h-19.66m-9.84 0h-19.66m-9.84 0h-19.67m-9.83 0h-19.67m-9.83 0H688l-.94-.07-.92-.22-.87-.35-.8-.5-.7-.6-.63-.72-.5-.8-.35-.88-.23-.9-.07-.95v-10.5m0-10.5v-21m0-10.5v-21m0-10.5v-21m0-10.5V408l.07-.94.22-.9.35-.88.5-.8.6-.72.72-.6.8-.5.87-.37.92-.23.94-.07h9.4m9.4 0h9.38l.94-.07.9-.22.88-.35.8-.5.72-.6.62-.72.5-.8.35-.88.2-.9.08-.95v-10.73m0-10.72V363.8" stroke="#bdf139" stroke-width="2" fill="none"/><path d="M1194.84 939h-1.95v-1.03h1.94z" stroke="#bdf139" stroke-width=".05" fill="#bdf139"/><path d="M732.36 381.18l-10.18-17.22L712 381.18M839.96 938v-8.66m0-8.66v-17.32m0-8.66v-17.32m0-8.66v-8.7h.02l.02-.02h.04l.02-.02v-.02h.02v-9.69m0-9.68v-19.36m0-9.68V792.2m0-9.67v-19.36m0-9.67v-9.68" stroke="#bdf139" stroke-width="2" fill="none"/><path d="M840.94 939H839v-1.03h1.94z" stroke="#bdf139" stroke-width=".05" fill="#bdf139"/><path d="M850.26 761.18l-10.18-17.22-10.2 17.22M799.9 938v-12m0-12v-24m0-12v-12l-.08-.94-.22-.9-.36-.88-.5-.8-.6-.72-.72-.6-.8-.5-.87-.37-.92-.23-.94-.07h-10.66m-10.66 0h-21.32m-10.66 0h-21.3m-10.67 0H687.3m-10.65 0h-21.3m-10.67 0h-10.66l-.94-.07-.9-.22-.88-.35-.8-.5-.72-.6-.6-.72-.5-.8-.36-.88-.23-.9-.08-.95v-10.2m0-10.22v-20.43m0-10.2V782.5m0-10.2v-20.42m0-10.2v-20.44m0-10.2V690.6m0-10.2v-20.43m0-10.2v-20.44m0-10.2V598.7m0-10.22v-20.42m0-10.2V537.4m0-10.2v-20.43m0-10.22v-20.43m0-10.2V445.5m0-10.2v-20.42m0-10.2v-20.44m0-10.2V363.8" stroke="#bdf139" stroke-width="2" fill="none"/><path d="M800.87 939h-1.95v-1.03h1.95z" stroke="#bdf139" stroke-width=".05" fill="#bdf139"/><path d="M638.2 381.18l-10.18-17.22-10.18 17.22" stroke="#bdf139" stroke-width="2" fill="none"/><defs><path fill="#5f6572" d="M1229 0H935l-92-330H387L295 0H0l443-1349h344zM615-1167c-46 213-110 412-166 615h332c-56-204-119-401-166-615" id="k"/><path fill="#5f6572" d="M305-1169c27 366 9 780 14 1169H99v-1349h347c49 189 108 371 150 564 12 56 15 107 23 166 33-270 117-487 176-730h335V0H908c5-390-13-801 16-1169-52 285-130 541-199 809H507c-70-267-148-525-202-809" id="l"/><path fill="#5f6572" d="M616-1102c361 0 521 202 521 560 0 354-171 562-527 562C259 20 92-192 92-542c0-351 169-560 524-560zm-9 930c200-2 236-165 236-370 0-199-27-367-223-367-195 0-233 146-233 367 0 129 18 223 55 282s92 88 165 88" id="m"/><path fill="#5f6572" d="M471 20c-247 0-336-169-336-415v-687h281v607c4 148 31 285 172 285 152 0 207-150 207-312v-580h281c4 359-9 736 8 1082H816c-7-63-11-146-12-215h-5C736-76 644 20 471 20" id="n"/><path fill="#5f6572" d="M622-916c-112 2-200 14-200 111 0 90 89 101 168 121 234 58 514 77 514 368C1104-4 751 54 434 5 267-21 161-112 121-270l247-37c24 111 113 145 252 141 114-3 226-12 226-124 0-101-103-113-192-134-225-54-490-76-490-351 0-247 201-328 458-328 245 0 413 88 457 292l-249 26c-16-98-92-133-208-131" id="o"/><path fill="#5f6572" d="M1113-274C1038-96 884 20 626 20c-352 0-526-209-526-566 0-358 185-556 530-556 358 0 496 251 499 615H395c5 180 68 319 245 319 102 0 186-45 208-129zM857-663c-6-177-128-307-315-247-94 30-141 121-145 247h460" id="p"/><path fill="#5f6572" d="M872-915c-35-112-84-223-220-223-91 0-156 41-204 116-89 137-87 550 2 688 51 79 116 122 209 122 150 0 197-126 240-244l273 52C1094-168 961 20 656 20 239 20 80-262 80-681c0-418 154-689 568-689 289 0 425 167 496 389" id="q"/><path fill="#5f6572" d="M768-1103c247 0 336 167 336 416V0H824v-619c-3-164-24-273-171-273-164 0-229 142-229 312V0H143c-4-359 9-736-8-1082h268c7 63 12 146 13 215h4c67-145 160-236 348-236" id="r"/><path fill="#5f6572" d="M711 13c-250 0-386-99-385-349l2-556H161v-190h181l88-282h176v282h385v190H606v530c-10 130 45 186 174 184 91-2 176-11 255-27v186C933-1 833 13 711 13" id="s"/><path fill="#5f6572" d="M875-1102c70 0 148 7 206 17v237c-110-17-267-37-359 15-123 69-192 207-192 395V0H250c-10-367 32-789-52-1082h271c19 69 36 149 46 228h4c52-151 151-250 356-248" id="t"/><path fill="#5f6572" d="M794-190h353V0H118v-190h395v-1104H223v-190h571v1294" id="u"/><g id="a"><use transform="matrix(0.010850694444444444,0,0,0.010850694444444444,0,0)" xlink:href="#k"/><use transform="matrix(0.010850694444444444,0,0,0.010850694444444444,13.335503472222221,0)" xlink:href="#l"/><use transform="matrix(0.010850694444444444,0,0,0.010850694444444444,26.671006944444443,0)" xlink:href="#m"/><use transform="matrix(0.010850694444444444,0,0,0.010850694444444444,40.006510416666664,0)" xlink:href="#n"/><use transform="matrix(0.010850694444444444,0,0,0.010850694444444444,53.342013888888886,0)" xlink:href="#o"/><use transform="matrix(0.010850694444444444,0,0,0.010850694444444444,66.67751736111111,0)" xlink:href="#p"/><use transform="matrix(0.010850694444444444,0,0,0.010850694444444444,80.01302083333334,0)" xlink:href="#q"/><use transform="matrix(0.010850694444444444,0,0,0.010850694444444444,93.34852430555557,0)" xlink:href="#m"/><use transform="matrix(0.010850694444444444,0,0,0.010850694444444444,106.6840277777778,0)" xlink:href="#r"/><use transform="matrix(0.010850694444444444,0,0,0.010850694444444444,120.01953125000003,0)" xlink:href="#s"/><use transform="matrix(0.010850694444444444,0,0,0.010850694444444444,133.35503472222226,0)" xlink:href="#t"/><use transform="matrix(0.010850694444444444,0,0,0.010850694444444444,146.69053819444449,0)" xlink:href="#m"/><use transform="matrix(0.010850694444444444,0,0,0.010850694444444444,160.0260416666667,0)" xlink:href="#u"/><use transform="matrix(0.010850694444444444,0,0,0.010850694444444444,173.36154513888894,0)" xlink:href="#u"/><use transform="matrix(0.010850694444444444,0,0,0.010850694444444444,186.69704861111117,0)" xlink:href="#p"/><use transform="matrix(0.010850694444444444,0,0,0.010850694444444444,200.0325520833334,0)" xlink:href="#t"/></g><path fill="#5f6572" d="M881 0L558-557 431-415V0H136v-1349h295v599l436-599h343L750-770 1229 0H881" id="v"/><path fill="#5f6572" d="M143 212c82 12 185 12 233-31 50-45 83-117 110-192L38-1082h297c100 284 211 557 291 861 72-305 176-578 270-861h294L742 57c-80 192-156 368-417 368-60 0-131-4-182-13V212" id="w"/><g id="b"><use transform="matrix(0.010850694444444444,0,0,0.010850694444444444,0,0)" xlink:href="#k"/><use transform="matrix(0.010850694444444444,0,0,0.010850694444444444,13.335503472222221,0)" xlink:href="#v"/><use transform="matrix(0.010850694444444444,0,0,0.010850694444444444,26.671006944444443,0)" xlink:href="#p"/><use transform="matrix(0.010850694444444444,0,0,0.010850694444444444,40.006510416666664,0)" xlink:href="#w"/><use transform="matrix(0.010850694444444444,0,0,0.010850694444444444,53.342013888888886,0)" xlink:href="#q"/><use transform="matrix(0.010850694444444444,0,0,0.010850694444444444,66.67751736111111,0)" xlink:href="#m"/><use transform="matrix(0.010850694444444444,0,0,0.010850694444444444,80.01302083333334,0)" xlink:href="#r"/><use transform="matrix(0.010850694444444444,0,0,0.010850694444444444,93.34852430555557,0)" xlink:href="#s"/><use transform="matrix(0.010850694444444444,0,0,0.010850694444444444,106.6840277777778,0)" xlink:href="#t"/><use transform="matrix(0.010850694444444444,0,0,0.010850694444444444,120.01953125000003,0)" xlink:href="#m"/><use transform="matrix(0.010850694444444444,0,0,0.010850694444444444,133.35503472222226,0)" xlink:href="#u"/><use transform="matrix(0.010850694444444444,0,0,0.010850694444444444,146.69053819444449,0)" xlink:href="#u"/><use transform="matrix(0.010850694444444444,0,0,0.010850694444444444,160.0260416666667,0)" xlink:href="#p"/><use transform="matrix(0.010850694444444444,0,0,0.010850694444444444,173.36154513888894,0)" xlink:href="#t"/></g><g id="c"><use transform="matrix(0.010850694444444444,0,0,0.010850694444444444,0,0)" xlink:href="#k"/><use transform="matrix(0.010850694444444444,0,0,0.010850694444444444,13.335503472222221,0)" xlink:href="#q"/><use transform="matrix(0.010850694444444444,0,0,0.010850694444444444,26.671006944444443,0)" xlink:href="#m"/><use transform="matrix(0.010850694444444444,0,0,0.010850694444444444,40.006510416666664,0)" xlink:href="#r"/><use transform="matrix(0.010850694444444444,0,0,0.010850694444444444,53.342013888888886,0)" xlink:href="#s"/><use transform="matrix(0.010850694444444444,0,0,0.010850694444444444,66.67751736111111,0)" xlink:href="#t"/><use transform="matrix(0.010850694444444444,0,0,0.010850694444444444,80.01302083333334,0)" xlink:href="#m"/><use transform="matrix(0.010850694444444444,0,0,0.010850694444444444,93.34852430555557,0)" xlink:href="#u"/><use transform="matrix(0.010850694444444444,0,0,0.010850694444444444,106.6840277777778,0)" xlink:href="#o"/></g><g id="d"><use transform="matrix(0.010850694444444444,0,0,0.010850694444444444,0,0)" xlink:href="#l"/><use transform="matrix(0.010850694444444444,0,0,0.010850694444444444,13.335503472222221,0)" xlink:href="#p"/><use transform="matrix(0.010850694444444444,0,0,0.010850694444444444,26.671006944444443,0)" xlink:href="#r"/><use transform="matrix(0.010850694444444444,0,0,0.010850694444444444,40.006510416666664,0)" xlink:href="#n"/><use transform="matrix(0.010850694444444444,0,0,0.010850694444444444,53.342013888888886,0)" xlink:href="#l"/><use transform="matrix(0.010850694444444444,0,0,0.010850694444444444,66.67751736111111,0)" xlink:href="#m"/><use transform="matrix(0.010850694444444444,0,0,0.010850694444444444,80.01302083333334,0)" xlink:href="#n"/><use transform="matrix(0.010850694444444444,0,0,0.010850694444444444,93.34852430555557,0)" xlink:href="#o"/><use transform="matrix(0.010850694444444444,0,0,0.010850694444444444,106.6840277777778,0)" xlink:href="#p"/><use transform="matrix(0.010850694444444444,0,0,0.010850694444444444,120.01953125000003,0)" xlink:href="#q"/><use transform="matrix(0.010850694444444444,0,0,0.010850694444444444,133.35503472222226,0)" xlink:href="#m"/><use transform="matrix(0.010850694444444444,0,0,0.010850694444444444,146.69053819444449,0)" xlink:href="#r"/><use transform="matrix(0.010850694444444444,0,0,0.010850694444444444,160.0260416666667,0)" xlink:href="#s"/><use transform="matrix(0.010850694444444444,0,0,0.010850694444444444,173.36154513888894,0)" xlink:href="#t"/><use transform="matrix(0.010850694444444444,0,0,0.010850694444444444,186.69704861111117,0)" xlink:href="#m"/><use transform="matrix(0.010850694444444444,0,0,0.010850694444444444,200.0325520833334,0)" xlink:href="#u"/><use transform="matrix(0.010850694444444444,0,0,0.010850694444444444,213.36805555555563,0)" xlink:href="#o"/></g><path fill="#5f6572" d="M650-216c90 0 157-35 208-74v-235H584v-218h544v558C1004-84 858 20 635 20 235 20 80-276 80-681c0-416 146-689 558-689 277 0 398 160 462 375l-274 54c-31-108-73-197-185-197-231 0-262 217-262 457 0 149 22 263 67 344s113 121 204 121" id="x"/><path fill="#5f6572" d="M775-193C708-75 621 20 439 20 226 20 106-93 106-306c0-251 170-341 417-346l223-4c4-143-12-264-148-264-103 0-141 58-150 153l-293-14c37-219 194-321 455-321 263 0 418 130 417 390v392c1 84 5 161 89 160 21 0 42-2 62-6v152c-57 15-108 27-180 26-145 0-202-73-217-205h-6zm-256 17c168 0 234-139 227-325-166 4-347-25-347 173 0 94 33 152 120 152" id="y"/><path fill="#5f6572" d="M934-1102c199 0 220 177 220 381V0H926c-2-260 10-533-4-785-4-72-14-138-83-138-34 0-61 27-81 81s-29 134-29 241V0H501c-2-260 9-533-5-785-4-72-13-138-82-138-46 0-65 47-80 93-21 67-30 155-30 248V0H75c-3-360 6-732-6-1082h209c6 50 3 123 8 175 36-100 83-195 216-195 135 0 166 79 196 196 42-105 93-196 236-196" id="z"/><g id="e"><use transform="matrix(0.010850694444444444,0,0,0.010850694444444444,0,0)" xlink:href="#x"/><use transform="matrix(0.010850694444444444,0,0,0.010850694444444444,13.335503472222221,0)" xlink:href="#y"/><use transform="matrix(0.010850694444444444,0,0,0.010850694444444444,26.671006944444443,0)" xlink:href="#z"/><use transform="matrix(0.010850694444444444,0,0,0.010850694444444444,40.006510416666664,0)" xlink:href="#p"/><use transform="matrix(0.010850694444444444,0,0,0.010850694444444444,53.342013888888886,0)" xlink:href="#l"/><use transform="matrix(0.010850694444444444,0,0,0.010850694444444444,66.67751736111111,0)" xlink:href="#m"/><use transform="matrix(0.010850694444444444,0,0,0.010850694444444444,80.01302083333334,0)" xlink:href="#n"/><use transform="matrix(0.010850694444444444,0,0,0.010850694444444444,93.34852430555557,0)" xlink:href="#o"/><use transform="matrix(0.010850694444444444,0,0,0.010850694444444444,106.6840277777778,0)" xlink:href="#p"/><use transform="matrix(0.010850694444444444,0,0,0.010850694444444444,120.01953125000003,0)" xlink:href="#q"/><use transform="matrix(0.010850694444444444,0,0,0.010850694444444444,133.35503472222226,0)" xlink:href="#m"/><use transform="matrix(0.010850694444444444,0,0,0.010850694444444444,146.69053819444449,0)" xlink:href="#r"/><use transform="matrix(0.010850694444444444,0,0,0.010850694444444444,160.0260416666667,0)" xlink:href="#s"/><use transform="matrix(0.010850694444444444,0,0,0.010850694444444444,173.36154513888894,0)" xlink:href="#t"/><use transform="matrix(0.010850694444444444,0,0,0.010850694444444444,186.69704861111117,0)" xlink:href="#m"/><use transform="matrix(0.010850694444444444,0,0,0.010850694444444444,200.0325520833334,0)" xlink:href="#u"/><use transform="matrix(0.010850694444444444,0,0,0.010850694444444444,213.36805555555563,0)" xlink:href="#o"/></g><g id="f"><use transform="matrix(0.010850694444444444,0,0,0.010850694444444444,0,0)" xlink:href="#l"/><use transform="matrix(0.010850694444444444,0,0,0.010850694444444444,13.335503472222221,0)" xlink:href="#p"/><use transform="matrix(0.010850694444444444,0,0,0.010850694444444444,26.671006944444443,0)" xlink:href="#r"/><use transform="matrix(0.010850694444444444,0,0,0.010850694444444444,40.006510416666664,0)" xlink:href="#n"/><use transform="matrix(0.010850694444444444,0,0,0.010850694444444444,53.342013888888886,0)" xlink:href="#q"/><use transform="matrix(0.010850694444444444,0,0,0.010850694444444444,66.67751736111111,0)" xlink:href="#m"/><use transform="matrix(0.010850694444444444,0,0,0.010850694444444444,80.01302083333334,0)" xlink:href="#r"/><use transform="matrix(0.010850694444444444,0,0,0.010850694444444444,93.34852430555557,0)" xlink:href="#s"/><use transform="matrix(0.010850694444444444,0,0,0.010850694444444444,106.6840277777778,0)" xlink:href="#t"/><use transform="matrix(0.010850694444444444,0,0,0.010850694444444444,120.01953125000003,0)" xlink:href="#m"/><use transform="matrix(0.010850694444444444,0,0,0.010850694444444444,133.35503472222226,0)" xlink:href="#u"/><use transform="matrix(0.010850694444444444,0,0,0.010850694444444444,146.69053819444449,0)" xlink:href="#o"/></g><g id="g"><use transform="matrix(0.010850694444444444,0,0,0.010850694444444444,0,0)" xlink:href="#x"/><use transform="matrix(0.010850694444444444,0,0,0.010850694444444444,13.335503472222221,0)" xlink:href="#y"/><use transform="matrix(0.010850694444444444,0,0,0.010850694444444444,26.671006944444443,0)" xlink:href="#z"/><use transform="matrix(0.010850694444444444,0,0,0.010850694444444444,40.006510416666664,0)" xlink:href="#p"/><use transform="matrix(0.010850694444444444,0,0,0.010850694444444444,53.342013888888886,0)" xlink:href="#q"/><use transform="matrix(0.010850694444444444,0,0,0.010850694444444444,66.67751736111111,0)" xlink:href="#m"/><use transform="matrix(0.010850694444444444,0,0,0.010850694444444444,80.01302083333334,0)" xlink:href="#r"/><use transform="matrix(0.010850694444444444,0,0,0.010850694444444444,93.34852430555557,0)" xlink:href="#s"/><use transform="matrix(0.010850694444444444,0,0,0.010850694444444444,106.6840277777778,0)" xlink:href="#t"/><use transform="matrix(0.010850694444444444,0,0,0.010850694444444444,120.01953125000003,0)" xlink:href="#m"/><use transform="matrix(0.010850694444444444,0,0,0.010850694444444444,133.35503472222226,0)" xlink:href="#u"/><use transform="matrix(0.010850694444444444,0,0,0.010850694444444444,146.69053819444449,0)" xlink:href="#o"/></g><g id="h"><use transform="matrix(0.010850694444444444,0,0,0.010850694444444444,0,0)" xlink:href="#l"/><use transform="matrix(0.010850694444444444,0,0,0.010850694444444444,13.335503472222221,0)" xlink:href="#p"/><use transform="matrix(0.010850694444444444,0,0,0.010850694444444444,26.671006944444443,0)" xlink:href="#r"/><use transform="matrix(0.010850694444444444,0,0,0.010850694444444444,40.006510416666664,0)" xlink:href="#n"/><use transform="matrix(0.010850694444444444,0,0,0.010850694444444444,53.342013888888886,0)" xlink:href="#v"/><use transform="matrix(0.010850694444444444,0,0,0.010850694444444444,66.67751736111111,0)" xlink:href="#p"/><use transform="matrix(0.010850694444444444,0,0,0.010850694444444444,80.01302083333334,0)" xlink:href="#w"/><use transform="matrix(0.010850694444444444,0,0,0.010850694444444444,93.34852430555557,0)" xlink:href="#q"/><use transform="matrix(0.010850694444444444,0,0,0.010850694444444444,106.6840277777778,0)" xlink:href="#m"/><use transform="matrix(0.010850694444444444,0,0,0.010850694444444444,120.01953125000003,0)" xlink:href="#r"/><use transform="matrix(0.010850694444444444,0,0,0.010850694444444444,133.35503472222226,0)" xlink:href="#s"/><use transform="matrix(0.010850694444444444,0,0,0.010850694444444444,146.69053819444449,0)" xlink:href="#t"/><use transform="matrix(0.010850694444444444,0,0,0.010850694444444444,160.0260416666667,0)" xlink:href="#m"/><use transform="matrix(0.010850694444444444,0,0,0.010850694444444444,173.36154513888894,0)" xlink:href="#u"/><use transform="matrix(0.010850694444444444,0,0,0.010850694444444444,186.69704861111117,0)" xlink:href="#o"/></g><g id="i"><use transform="matrix(0.010850694444444444,0,0,0.010850694444444444,0,0)" xlink:href="#x"/><use transform="matrix(0.010850694444444444,0,0,0.010850694444444444,13.335503472222221,0)" xlink:href="#y"/><use transform="matrix(0.010850694444444444,0,0,0.010850694444444444,26.671006944444443,0)" xlink:href="#z"/><use transform="matrix(0.010850694444444444,0,0,0.010850694444444444,40.006510416666664,0)" xlink:href="#p"/><use transform="matrix(0.010850694444444444,0,0,0.010850694444444444,53.342013888888886,0)" xlink:href="#v"/><use transform="matrix(0.010850694444444444,0,0,0.010850694444444444,66.67751736111111,0)" xlink:href="#p"/><use transform="matrix(0.010850694444444444,0,0,0.010850694444444444,80.01302083333334,0)" xlink:href="#w"/><use transform="matrix(0.010850694444444444,0,0,0.010850694444444444,93.34852430555557,0)" xlink:href="#q"/><use transform="matrix(0.010850694444444444,0,0,0.010850694444444444,106.6840277777778,0)" xlink:href="#m"/><use transform="matrix(0.010850694444444444,0,0,0.010850694444444444,120.01953125000003,0)" xlink:href="#r"/><use transform="matrix(0.010850694444444444,0,0,0.010850694444444444,133.35503472222226,0)" xlink:href="#s"/><use transform="matrix(0.010850694444444444,0,0,0.010850694444444444,146.69053819444449,0)" xlink:href="#t"/><use transform="matrix(0.010850694444444444,0,0,0.010850694444444444,160.0260416666667,0)" xlink:href="#m"/><use transform="matrix(0.010850694444444444,0,0,0.010850694444444444,173.36154513888894,0)" xlink:href="#u"/><use transform="matrix(0.010850694444444444,0,0,0.010850694444444444,186.69704861111117,0)" xlink:href="#o"/></g><path fill="#fff" d="M148-1120c216-7 379-89 463-229h166v1204h353V0H157v-145h439v-1021c-79 124-254 184-448 194v-148" id="A"/><use transform="matrix(0.010850694444444444,0,0,0.010850694444444444,0,0)" xlink:href="#A" id="j"/></defs></g></svg>