<svg xmlns="http://www.w3.org/2000/svg" xmlns:xlink="http://www.w3.org/1999/xlink" xmlns:lucid="lucid" width="1503" height="882"><g transform="translate(-38 0)" lucid:page-tab-id="081cNMWmwJ0I"><path d="M0 0h1577.06v904.8H0z" fill="#21252c"/><path d="M100 66a6 6 0 0 1 6-6h148a6 6 0 0 1 6 6v49a6 6 0 0 1-6 6H106a6 6 0 0 1-6-6z" stroke="#a9a9a9" stroke-width="2" fill="#f5fbff"/><use xlink:href="#a" transform="matrix(1,0,0,1,108,68) translate(38.66124131944444 29.28168402777778)"/><path d="M540 266a6 6 0 0 1 6-6h148a6 6 0 0 1 6 6v49a6 6 0 0 1-6 6H546a6 6 0 0 1-6-6z" stroke="#a9a9a9" stroke-width="2" fill="#f5fbff"/><use xlink:href="#b" transform="matrix(1,0,0,1,548,268) translate(18.6579861111111 29.28168402777778)"/><path d="M100 486a6 6 0 0 1 6-6h148a6 6 0 0 1 6 6v49a6 6 0 0 1-6 6H106a6 6 0 0 1-6-6z" stroke="#a9a9a9" stroke-width="2" fill="#f5fbff"/><use xlink:href="#c" transform="matrix(1,0,0,1,108,488) translate(5.3224826388888715 29.28168402777778)"/><path d="M380 486a6 6 0 0 1 6-6h148a6 6 0 0 1 6 6v49a6 6 0 0 1-6 6H386a6 6 0 0 1-6-6z" stroke="#a9a9a9" stroke-width="2" fill="#f5fbff"/><use xlink:href="#d" transform="matrix(1,0,0,1,388,488) translate(31.99348958333333 29.28168402777778)"/><path d="M700 486a6 6 0 0 1 6-6h248a6 6 0 0 1 6 6v49a6 6 0 0 1-6 6H706a6 6 0 0 1-6-6z" stroke="#a9a9a9" stroke-width="2" fill="#f5fbff"/><use xlink:href="#e" transform="matrix(1,0,0,1,708,488) translate(-4.687282986111157 29.28168402777778)"/><path d="M1040 486a6 6 0 0 1 6-6h188a6 6 0 0 1 6 6v49a6 6 0 0 1-6 6h-188a6 6 0 0 1-6-6z" stroke="#a9a9a9" stroke-width="2" fill="#f5fbff"/><use xlink:href="#f" transform="matrix(1,0,0,1,1048,488) translate(11.986979166666643 29.28168402777778)"/><path d="M1320 486a6 6 0 0 1 6-6h148a6 6 0 0 1 6 6v49a6 6 0 0 1-6 6h-148a6 6 0 0 1-6-6z" stroke="#a9a9a9" stroke-width="2" fill="#f5fbff"/><use xlink:href="#g" transform="matrix(1,0,0,1,1328,488) translate(18.6579861111111 29.28168402777778)"/><path d="M750 766a6 6 0 0 1 6-6h148a6 6 0 0 1 6 6v49a6 6 0 0 1-6 6H756a6 6 0 0 1-6-6z" stroke="#a9a9a9" stroke-width="2" fill="#f5fbff"/><use xlink:href="#h" transform="matrix(1,0,0,1,758,768) translate(31.99348958333333 29.28168402777778)"/><path d="M768.57 758v-10.67m0-10.66V726l-.08-.94-.23-.9-.36-.88-.48-.8-.6-.72-.73-.6-.8-.5-.88-.37-.92-.23-.93-.07h-10.12m-10.12 0H722.1m-10.1 0h-20.24m-10.12 0H661.4m-10.1 0h-20.23m-10.12 0h-20.23m-10.1 0h-20.24m-10.12 0h-20.23m-10.1 0h-20.24m-10.13 0h-20.23m-10.1 0h-20.25m-10.12 0h-20.23m-10.12 0H388.3m-10.1 0h-20.24m-10.12 0H327.6m-10.1 0h-20.23m-10.12 0h-20.23m-10.1 0h-20.24m-10.12 0h-20.23m-10.1 0H186l-.94-.07-.9-.22-.88-.35-.8-.5-.72-.6-.6-.72-.5-.8-.37-.88-.23-.9-.07-.95v-9.46m0-9.45v-18.92m0-9.45v-18.9m0-9.47v-18.9m0-9.46v-18.9m0-9.46v-18.9m0-9.47v-9.45" stroke="#bdf139" stroke-width="2" fill="none"/><path d="M769.54 759h-1.95v-1.03h1.94z" stroke="#bdf139" stroke-width=".05" fill="#bdf139"/><path d="M190.18 561.18L180 543.96l-10.18 17.22" stroke="#bdf139" stroke-width="2" fill="none"/><path d="M793.96 756v-90a6 6 0 0 0-6-6H466a6 6 0 0 1-6-6v-85.03" stroke="#bdf139" stroke-width="6" fill="none"/><path d="M796.93 759h-5.95v-3.08h5.95z" stroke="#bdf139" stroke-width=".05" fill="#bdf139"/><path d="M460 551.7l4.63 14.27h-9.26z" stroke="#bdf139" stroke-width="6" fill="#bdf139"/><path d="M830 758v-10.8m0-10.8v-21.6m0-10.8v-21.6m0-10.8V650m0-10.8v-21.6m0-10.8V596l.07-.94.22-.9.35-.88.5-.8.6-.72.72-.6.8-.5.88-.37.9-.23.95-.07h9.93m9.94 0h19.86m9.94 0h19.86m9.94 0h19.86m9.94 0h19.86m9.94 0h19.86m9.94 0h19.86m9.94 0h19.86m9.94 0h19.86m9.94 0h19.86m9.94 0h9.93l.94-.07.9-.22.88-.35.8-.5.72-.6.6-.72.5-.8.37-.88.23-.9.07-.95v-7.83m0-7.83v-7.84" stroke="#bdf139" stroke-width="2" fill="none"/><path d="M830.98 759H829v-1.03H831z" stroke="#bdf139" stroke-width=".05" fill="#bdf139"/><path d="M1140 545.24l4.63 14.26h-9.27z" stroke="#bdf139" stroke-width="2" fill="#bdf139"/><path d="M869.33 758v-11.28m0-11.28V712.9m0-11.3v-22.54m0-11.28V656.5l.08-.94.23-.9.36-.88.48-.8.6-.72.72-.6.8-.5.88-.37.9-.23.95-.07h10.17m10.17 0H916m10.18 0h20.34m10.17 0h20.33m10.17 0h20.34m10.17 0h20.35m10.17 0h20.34m10.17 0h20.34m10.17 0h20.34m10.17 0h20.34m10.16 0h20.34m10.17 0h20.34m10.18 0h20.34m10.17 0h20.33m10.17 0h20.34m10.17 0h20.35m10.17 0h20.34m10.17 0H1394l.94-.07.9-.22.88-.35.8-.5.72-.6.6-.72.5-.8.37-.88.23-.9.07-.95v-11.2m0-11.17v-22.38m0-11.18V566.2m0-11.2v-11.18" stroke="#bdf139" stroke-width="2" fill="none"/><path d="M870.3 759h-1.94v-1.03h1.95z" stroke="#bdf139" stroke-width=".05" fill="#bdf139"/><path d="M1410.18 561.18L1400 543.96l-10.18 17.22" stroke="#bdf139" stroke-width="2" fill="none"/><use xlink:href="#i" transform="matrix(1,0,0,1,1116.0943187658734,654.4999867122052) translate(0 18.489583333333332)"/><path d="M830 476v-70a6 6 0 0 0-6-6H626a6 6 0 0 1-6-6v-45.03" stroke="#bdf139" stroke-width="6" fill="none"/><path d="M832.98 479H827v-3.08H833z" stroke="#bdf139" stroke-width=".05" fill="#bdf139"/><path d="M620 331.7l4.63 14.27h-9.26z" stroke="#bdf139" stroke-width="6" fill="#bdf139"/><path d="M1140 476V376a6 6 0 0 0-6-6H655.36a6 6 0 0 1-6-6v-15.03" stroke="#bdf139" stroke-width="6" fill="none"/><path d="M1142.97 479h-5.94v-3.08h5.94z" stroke="#bdf139" stroke-width=".05" fill="#bdf139"/><path d="M649.36 331.7l4.64 14.27h-9.27z" stroke="#bdf139" stroke-width="6" fill="#bdf139"/><path d="M125.25 476V210.05a.05.05 0 0 1 .05-.05.05.05 0 0 0 .05-.05v-60.98" stroke="#bdf139" stroke-width="6" fill="none"/><path d="M128.22 479h-5.95v-3.08h5.95z" stroke="#bdf139" stroke-width=".05" fill="#bdf139"/><path d="M125.34 131.7l4.64 14.27h-9.27z" stroke="#bdf139" stroke-width="6" fill="#bdf139"/><path d="M620 256v-40a6 6 0 0 0-6-6H210.02a6 6 0 0 1-6-6v-55.03" stroke="#bdf139" stroke-width="6" fill="none"/><path d="M622.98 259H617v-3.08H623z" stroke="#bdf139" stroke-width=".05" fill="#bdf139"/><path d="M204.02 131.7l4.64 14.27h-9.27z" stroke="#bdf139" stroke-width="6" fill="#bdf139"/><path d="M1400 476V186a6 6 0 0 0-6-6H236.73a6 6 0 0 1-6-6v-25.03" stroke="#bdf139" stroke-width="6" fill="none"/><path d="M1402.97 479h-5.94v-3.08h5.94z" stroke="#bdf139" stroke-width=".05" fill="#bdf139"/><path d="M230.73 131.7l4.64 14.27h-9.27z" stroke="#bdf139" stroke-width="6" fill="#bdf139"/><path d="M429.3 478v-10.67m0-10.66V446l-.07-.94-.22-.9-.35-.88-.5-.8-.6-.72-.72-.6-.8-.5-.87-.37-.92-.23-.94-.07h-9.82m-9.83 0H384m-9.83 0h-19.65m-9.83 0h-19.66m-9.83 0h-19.64m-9.83 0h-19.65m-9.82 0H236.6m-9.82 0h-19.66m-9.82 0h-19.66m-9.82 0H158l-.95-.07-.9-.22-.88-.35-.8-.5-.72-.6-.6-.72-.5-.8-.36-.88-.23-.9-.08-.95v-10.34m0-10.34v-20.68m0-10.34v-20.68m0-10.33v-20.7m0-10.33V299.6m0-10.35v-20.68m0-10.34v-20.68m0-10.34v-20.67m0-10.34v-20.7m0-10.32V144.5m0-10.34v-10.34" stroke="#bdf139" stroke-width="2" fill="none"/><path d="M430.28 479h-1.95v-1.03h1.95z" stroke="#bdf139" stroke-width=".05" fill="#bdf139"/><path d="M162.17 141.18L152 123.96l-10.2 17.22M480 448.25V406a6 6 0 0 0-6-6H186a6 6 0 0 1-6-6V123.82" stroke="#bdf139" stroke-width="2" fill="none"/><path d="M480 477.6l-14.84-14.86L480 447.6l14.86 15.14z" stroke="#bdf139" stroke-width="2" fill="#bdf139"/><path d="M190.18 141.18L180 123.96l-10.18 17.22" stroke="#bdf139" stroke-width="2" fill="none"/><use xlink:href="#j" transform="matrix(1,0,0,1,458.67204264006364,413.69157090575214) translate(0 18.489583333333332)"/><use xlink:href="#k" transform="matrix(1,0,0,1,158.66449652777777,143.9283091112484) translate(0 18.489583333333332)"/><path d="M513.33 478v-11.92m0-11.9v-23.85m0-11.9V406.5l.07-.94.22-.9.36-.88.5-.8.6-.72.72-.6.8-.5.87-.37.92-.23.93-.07h8.44m8.45 0h16.9m8.44 0H570l.94-.07.92-.22.87-.35.8-.5.72-.6.6-.72.5-.8.36-.88.23-.9.07-.95v-11.78m0-11.78v-23.56m0-11.78v-11.78" stroke="#bdf139" stroke-width="2" fill="none"/><path d="M514.3 479h-1.95v-1.03h1.95z" stroke="#bdf139" stroke-width=".05" fill="#bdf139"/><path d="M586.18 341.18L576 323.96l-10.18 17.22" stroke="#bdf139" stroke-width="2" fill="none"/><defs><path fill="#5f6572" d="M1229 0H935l-92-330H387L295 0H0l443-1349h344zM615-1167c-46 213-110 412-166 615h332c-56-204-119-401-166-615" id="l"/><path fill="#5f6572" d="M616-1349c316 3 526 118 526 426 0 301-201 442-514 447H431V0H136v-1349h480zm-25 646c164 1 254-62 254-215 0-157-99-200-262-202H431v417h160" id="m"/><path fill="#5f6572" d="M875-1102c70 0 148 7 206 17v237c-110-17-267-37-359 15-123 69-192 207-192 395V0H250c-10-367 32-789-52-1082h271c19 69 36 149 46 228h4c52-151 151-250 356-248" id="n"/><path fill="#5f6572" d="M616-1102c361 0 521 202 521 560 0 354-171 562-527 562C259 20 92-192 92-542c0-351 169-560 524-560zm-9 930c200-2 236-165 236-370 0-199-27-367-223-367-195 0-233 146-233 367 0 129 18 223 55 282s92 88 165 88" id="o"/><path fill="#5f6572" d="M427-171c3 195 2 397 2 596H148V-846c1-83-4-168-8-236h272c10 49 14 118 15 176h4c59-114 151-197 316-197 291 0 385 259 385 560 0 243-65 433-220 521-50 28-109 42-176 42-162-2-253-78-309-191zm69-661c-91 113-92 463-1 586 46 62 145 101 225 54 96-57 118-191 119-351 0-123-18-215-53-276-46-82-128-115-220-74-25 12-48 33-70 61" id="p"/><g id="a"><use transform="matrix(0.010850694444444444,0,0,0.010850694444444444,0,0)" xlink:href="#l"/><use transform="matrix(0.010850694444444444,0,0,0.010850694444444444,13.335503472222221,0)" xlink:href="#m"/><use transform="matrix(0.010850694444444444,0,0,0.010850694444444444,26.671006944444443,0)" xlink:href="#n"/><use transform="matrix(0.010850694444444444,0,0,0.010850694444444444,40.006510416666664,0)" xlink:href="#o"/><use transform="matrix(0.010850694444444444,0,0,0.010850694444444444,53.342013888888886,0)" xlink:href="#p"/></g><path fill="#5f6572" d="M762-1121V0H467v-1121H61v-228h1107v228H762" id="q"/><path fill="#5f6572" d="M794-190h353V0H118v-190h395v-702H223v-190h571v892zM513-1277v-207h281v207H513" id="r"/><path fill="#5f6572" d="M1108-33c-3 314-178 467-492 467-243 0-400-94-447-291l281-33c17 79 82 141 174 141 176 0 212-155 205-347-2-40 5-80 0-115C773-85 665-12 501-12c-288 0-377-242-377-538 0-242 65-426 223-510 50-26 108-39 175-39 160 0 253 78 307 191h5c1-58 5-125 14-174h266c-12 335-3 703-6 1049zM811-384c25-82 27-259 1-342-30-99-77-180-190-180-172 0-205 171-205 356 0 116 18 202 54 258 48 76 129 107 221 70 62-25 96-86 119-162" id="s"/><path fill="#5f6572" d="M1113-274C1038-96 884 20 626 20c-352 0-526-209-526-566 0-358 185-556 530-556 358 0 496 251 499 615H395c5 180 68 319 245 319 102 0 186-45 208-129zM857-663c-6-177-128-307-315-247-94 30-141 121-145 247h460" id="t"/><g id="b"><use transform="matrix(0.010850694444444444,0,0,0.010850694444444444,0,0)" xlink:href="#l"/><use transform="matrix(0.010850694444444444,0,0,0.010850694444444444,13.335503472222221,0)" xlink:href="#q"/><use transform="matrix(0.010850694444444444,0,0,0.010850694444444444,26.671006944444443,0)" xlink:href="#n"/><use transform="matrix(0.010850694444444444,0,0,0.010850694444444444,40.006510416666664,0)" xlink:href="#r"/><use transform="matrix(0.010850694444444444,0,0,0.010850694444444444,53.342013888888886,0)" xlink:href="#s"/><use transform="matrix(0.010850694444444444,0,0,0.010850694444444444,66.67751736111111,0)" xlink:href="#s"/><use transform="matrix(0.010850694444444444,0,0,0.010850694444444444,80.01302083333334,0)" xlink:href="#t"/><use transform="matrix(0.010850694444444444,0,0,0.010850694444444444,93.34852430555557,0)" xlink:href="#n"/></g><path fill="#5f6572" d="M1157-949c0 209-118 316-279 368L1227 0H895L605-515H432V0H137v-1349h494c317-2 526 111 526 400zM608-744c158 1 248-51 252-193 5-207-223-184-428-183v376h176" id="u"/><path fill="#5f6572" d="M775-193C708-75 621 20 439 20 226 20 106-93 106-306c0-251 170-341 417-346l223-4c4-143-12-264-148-264-103 0-141 58-150 153l-293-14c37-219 194-321 455-321 263 0 418 130 417 390v392c1 84 5 161 89 160 21 0 42-2 62-6v152c-57 15-108 27-180 26-145 0-202-73-217-205h-6zm-256 17c168 0 234-139 227-325-166 4-347-25-347 173 0 94 33 152 120 152" id="v"/><path fill="#5f6572" d="M1109-360C1066-122 902 20 624 20c-347 0-514-209-514-555 0-353 168-567 518-567 270 0 425 136 473 361l-283 14c-16-106-75-183-196-182-75 0-130 31-165 93s-52 152-52 270c0 249 74 374 221 374 120 0 188-82 201-201" id="w"/><path fill="#5f6572" d="M711 13c-250 0-386-99-385-349l2-556H161v-190h181l88-282h176v282h385v190H606v530c-10 130 45 186 174 184 91-2 176-11 255-27v186C933-1 833 13 711 13" id="x"/><g id="c"><use transform="matrix(0.010850694444444444,0,0,0.010850694444444444,0,0)" xlink:href="#l"/><use transform="matrix(0.010850694444444444,0,0,0.010850694444444444,13.335503472222221,0)" xlink:href="#u"/><use transform="matrix(0.010850694444444444,0,0,0.010850694444444444,26.671006944444443,0)" xlink:href="#t"/><use transform="matrix(0.010850694444444444,0,0,0.010850694444444444,40.006510416666664,0)" xlink:href="#v"/><use transform="matrix(0.010850694444444444,0,0,0.010850694444444444,53.342013888888886,0)" xlink:href="#w"/><use transform="matrix(0.010850694444444444,0,0,0.010850694444444444,66.67751736111111,0)" xlink:href="#x"/><use transform="matrix(0.010850694444444444,0,0,0.010850694444444444,80.01302083333334,0)" xlink:href="#m"/><use transform="matrix(0.010850694444444444,0,0,0.010850694444444444,93.34852430555557,0)" xlink:href="#n"/><use transform="matrix(0.010850694444444444,0,0,0.010850694444444444,106.6840277777778,0)" xlink:href="#o"/><use transform="matrix(0.010850694444444444,0,0,0.010850694444444444,120.01953125000003,0)" xlink:href="#p"/></g><path fill="#5f6572" d="M211 0v-1349h295v1121h616V0H211" id="y"/><path fill="#5f6572" d="M774 0H438L31-1082h297c94 290 200 568 280 872 83-304 194-581 291-872h294" id="z"/><path fill="#5f6572" d="M794-190h353V0H118v-190h395v-1104H223v-190h571v1294" id="A"/><g id="d"><use transform="matrix(0.010850694444444444,0,0,0.010850694444444444,0,0)" xlink:href="#l"/><use transform="matrix(0.010850694444444444,0,0,0.010850694444444444,13.335503472222221,0)" xlink:href="#y"/><use transform="matrix(0.010850694444444444,0,0,0.010850694444444444,26.671006944444443,0)" xlink:href="#t"/><use transform="matrix(0.010850694444444444,0,0,0.010850694444444444,40.006510416666664,0)" xlink:href="#z"/><use transform="matrix(0.010850694444444444,0,0,0.010850694444444444,53.342013888888886,0)" xlink:href="#t"/><use transform="matrix(0.010850694444444444,0,0,0.010850694444444444,66.67751736111111,0)" xlink:href="#A"/></g><path fill="#5f6572" d="M872-915c-35-112-84-223-220-223-91 0-156 41-204 116-89 137-87 550 2 688 51 79 116 122 209 122 150 0 197-126 240-244l273 52C1094-168 961 20 656 20 239 20 80-262 80-681c0-418 154-689 568-689 289 0 425 167 496 389" id="B"/><path fill="#5f6572" d="M429-1484c1 190-1 388 0 572 54-116 155-191 317-191 300 0 386 257 386 563 0 241-73 429-226 518-49 28-106 42-169 42-162 0-251-81-306-196h-4c-1 59-5 127-15 176H140c4-67 9-153 8-236v-1248h281zm66 648c-93 114-92 466 1 585 35 45 77 79 142 79 64 0 112-31 148-92 69-115 68-440-2-561-39-68-131-111-221-70-25 11-46 32-68 59" id="C"/><g id="e"><use transform="matrix(0.010850694444444444,0,0,0.010850694444444444,0,0)" xlink:href="#l"/><use transform="matrix(0.010850694444444444,0,0,0.010850694444444444,13.335503472222221,0)" xlink:href="#B"/><use transform="matrix(0.010850694444444444,0,0,0.010850694444444444,26.671006944444443,0)" xlink:href="#o"/><use transform="matrix(0.010850694444444444,0,0,0.010850694444444444,40.006510416666664,0)" xlink:href="#A"/><use transform="matrix(0.010850694444444444,0,0,0.010850694444444444,53.342013888888886,0)" xlink:href="#A"/><use transform="matrix(0.010850694444444444,0,0,0.010850694444444444,66.67751736111111,0)" xlink:href="#t"/><use transform="matrix(0.010850694444444444,0,0,0.010850694444444444,80.01302083333334,0)" xlink:href="#w"/><use transform="matrix(0.010850694444444444,0,0,0.010850694444444444,93.34852430555557,0)" xlink:href="#x"/><use transform="matrix(0.010850694444444444,0,0,0.010850694444444444,106.6840277777778,0)" xlink:href="#r"/><use transform="matrix(0.010850694444444444,0,0,0.010850694444444444,120.01953125000003,0)" xlink:href="#C"/><use transform="matrix(0.010850694444444444,0,0,0.010850694444444444,133.35503472222226,0)" xlink:href="#A"/><use transform="matrix(0.010850694444444444,0,0,0.010850694444444444,146.69053819444449,0)" xlink:href="#t"/><use transform="matrix(0.010850694444444444,0,0,0.010850694444444444,160.0260416666667,0)" xlink:href="#q"/><use transform="matrix(0.010850694444444444,0,0,0.010850694444444444,173.36154513888894,0)" xlink:href="#n"/><use transform="matrix(0.010850694444444444,0,0,0.010850694444444444,186.69704861111117,0)" xlink:href="#r"/><use transform="matrix(0.010850694444444444,0,0,0.010850694444444444,200.0325520833334,0)" xlink:href="#s"/><use transform="matrix(0.010850694444444444,0,0,0.010850694444444444,213.36805555555563,0)" xlink:href="#s"/><use transform="matrix(0.010850694444444444,0,0,0.010850694444444444,226.70355902777786,0)" xlink:href="#t"/><use transform="matrix(0.010850694444444444,0,0,0.010850694444444444,240.03906250000006,0)" xlink:href="#n"/></g><g id="f"><use transform="matrix(0.010850694444444444,0,0,0.010850694444444444,0,0)" xlink:href="#l"/><use transform="matrix(0.010850694444444444,0,0,0.010850694444444444,13.335503472222221,0)" xlink:href="#m"/><use transform="matrix(0.010850694444444444,0,0,0.010850694444444444,26.671006944444443,0)" xlink:href="#n"/><use transform="matrix(0.010850694444444444,0,0,0.010850694444444444,40.006510416666664,0)" xlink:href="#o"/><use transform="matrix(0.010850694444444444,0,0,0.010850694444444444,53.342013888888886,0)" xlink:href="#p"/><use transform="matrix(0.010850694444444444,0,0,0.010850694444444444,66.67751736111111,0)" xlink:href="#q"/><use transform="matrix(0.010850694444444444,0,0,0.010850694444444444,80.01302083333334,0)" xlink:href="#n"/><use transform="matrix(0.010850694444444444,0,0,0.010850694444444444,93.34852430555557,0)" xlink:href="#r"/><use transform="matrix(0.010850694444444444,0,0,0.010850694444444444,106.6840277777778,0)" xlink:href="#s"/><use transform="matrix(0.010850694444444444,0,0,0.010850694444444444,120.01953125000003,0)" xlink:href="#s"/><use transform="matrix(0.010850694444444444,0,0,0.010850694444444444,133.35503472222226,0)" xlink:href="#t"/><use transform="matrix(0.010850694444444444,0,0,0.010850694444444444,146.69053819444449,0)" xlink:href="#n"/></g><path fill="#5f6572" d="M844-1321c-130 0-195 53-191 182v57h443v190H653V0H373v-892H117v-190h256v-83c5-247 162-348 422-349 120-1 232 13 327 28v184c-84-10-183-19-278-19" id="D"/><path fill="#5f6572" d="M934-1102c199 0 220 177 220 381V0H926c-2-260 10-533-4-785-4-72-14-138-83-138-34 0-61 27-81 81s-29 134-29 241V0H501c-2-260 9-533-5-785-4-72-13-138-82-138-46 0-65 47-80 93-21 67-30 155-30 248V0H75c-3-360 6-732-6-1082h209c6 50 3 123 8 175 36-100 83-195 216-195 135 0 166 79 196 196 42-105 93-196 236-196" id="E"/><g id="g"><use transform="matrix(0.010850694444444444,0,0,0.010850694444444444,0,0)" xlink:href="#m"/><use transform="matrix(0.010850694444444444,0,0,0.010850694444444444,13.335503472222221,0)" xlink:href="#A"/><use transform="matrix(0.010850694444444444,0,0,0.010850694444444444,26.671006944444443,0)" xlink:href="#v"/><use transform="matrix(0.010850694444444444,0,0,0.010850694444444444,40.006510416666664,0)" xlink:href="#x"/><use transform="matrix(0.010850694444444444,0,0,0.010850694444444444,53.342013888888886,0)" xlink:href="#D"/><use transform="matrix(0.010850694444444444,0,0,0.010850694444444444,66.67751736111111,0)" xlink:href="#o"/><use transform="matrix(0.010850694444444444,0,0,0.010850694444444444,80.01302083333334,0)" xlink:href="#n"/><use transform="matrix(0.010850694444444444,0,0,0.010850694444444444,93.34852430555557,0)" xlink:href="#E"/></g><path fill="#5f6572" d="M138-1120c207-4 339-93 415-229h266v1140h323V0H149v-209h389v-891c-70 121-216 187-400 194v-214" id="F"/><g id="h"><use transform="matrix(0.010850694444444444,0,0,0.010850694444444444,0,0)" xlink:href="#y"/><use transform="matrix(0.010850694444444444,0,0,0.010850694444444444,13.335503472222221,0)" xlink:href="#t"/><use transform="matrix(0.010850694444444444,0,0,0.010850694444444444,26.671006944444443,0)" xlink:href="#z"/><use transform="matrix(0.010850694444444444,0,0,0.010850694444444444,40.006510416666664,0)" xlink:href="#t"/><use transform="matrix(0.010850694444444444,0,0,0.010850694444444444,53.342013888888886,0)" xlink:href="#A"/><use transform="matrix(0.010850694444444444,0,0,0.010850694444444444,66.67751736111111,0)" xlink:href="#F"/></g><path fill="#fff" d="M116-571v-205l995-418v154L253-674l858 367v153" id="G"/><path fill="#fff" d="M631 20c-350 0-501-215-501-562 0-355 162-560 502-560 250 0 399 118 446 323l-192 14c-23-124-109-196-262-196-242 0-305 171-305 415 1 245 61 427 304 427 151 0 248-77 267-215l190 12C1039-107 883 20 631 20" id="H"/><path fill="#fff" d="M839-1102c70 0 148 7 206 17v167c-112-18-268-36-363 15-129 69-208 203-208 395V0H294c-10-367 32-789-52-1082h171c21 75 41 161 48 250h5c67-152 152-270 373-270" id="I"/><path fill="#fff" d="M617-1102c355 0 481 238 477 599H322c5 222 84 388 301 388 144 0 244-59 284-166l158 45C1002-72 854 20 623 20c-342 0-490-220-490-568 0-346 151-554 484-554zm291 461c-18-192-90-328-289-328-194 0-287 128-295 328h584" id="J"/><path fill="#fff" d="M1000-272c3 95 12 159 101 161 21 0 41-3 59-7V-6c-44 10-86 16-139 16-141 2-191-84-197-217h-6C748-76 648 20 446 20c-207 0-318-120-318-322 0-266 194-348 454-354l236-4c12-191-40-305-222-305-140 0-220 47-232 172l-188-17c33-204 181-292 423-292 255 0 401 118 401 364v466zm-683-27c0 109 63 184 175 182 166-3 259-96 306-217 24-65 20-120 20-200-232 7-501-28-501 235" id="K"/><path fill="#fff" d="M682 16c-209 0-323-80-324-285v-671H190v-142h170l58-282h120v282h432v142H538v652c2 114 60 155 182 155 106 0 209-16 297-34v137C921-4 806 16 682 16" id="L"/><path fill="#fff" d="M116-154v-153l858-367-858-366v-154l995 418v205" id="M"/><g id="i"><use transform="matrix(0.010850694444444444,0,0,0.010850694444444444,0,0)" xlink:href="#G"/><use transform="matrix(0.010850694444444444,0,0,0.010850694444444444,13.335503472222221,0)" xlink:href="#G"/><use transform="matrix(0.010850694444444444,0,0,0.010850694444444444,26.671006944444443,0)" xlink:href="#H"/><use transform="matrix(0.010850694444444444,0,0,0.010850694444444444,40.006510416666664,0)" xlink:href="#I"/><use transform="matrix(0.010850694444444444,0,0,0.010850694444444444,53.342013888888886,0)" xlink:href="#J"/><use transform="matrix(0.010850694444444444,0,0,0.010850694444444444,66.67751736111111,0)" xlink:href="#K"/><use transform="matrix(0.010850694444444444,0,0,0.010850694444444444,80.01302083333334,0)" xlink:href="#L"/><use transform="matrix(0.010850694444444444,0,0,0.010850694444444444,93.34852430555557,0)" xlink:href="#J"/><use transform="matrix(0.010850694444444444,0,0,0.010850694444444444,106.6840277777778,0)" xlink:href="#M"/><use transform="matrix(0.010850694444444444,0,0,0.010850694444444444,120.01953125000003,0)" xlink:href="#M"/></g><path fill="#fff" d="M148-1120c216-7 379-89 463-229h166v1204h353V0H157v-145h439v-1021c-79 124-254 184-448 194v-148" id="N"/><use transform="matrix(0.010850694444444444,0,0,0.010850694444444444,0,0)" xlink:href="#N" id="j"/><path fill="#fff" d="M671-1188l264-103 45 132-282 73 185 250-119 72-150-258-156 256-119-72 189-248-280-73 45-134 267 107-12-297h136" id="O"/><use transform="matrix(0.010850694444444444,0,0,0.010850694444444444,0,0)" xlink:href="#O" id="k"/></defs></g></svg>