<svg xmlns="http://www.w3.org/2000/svg" xmlns:xlink="http://www.w3.org/1999/xlink" xmlns:lucid="lucid" width="4041" height="2735"><g transform="translate(0 -26)" lucid:page-tab-id="DsL3E7JP71SF"><path d="M0 0h4093.82v2852.8H0z" fill="#21252c"/><path d="M100 2700H46a6 6 0 0 1-6-6V92.92a6 6 0 0 1 6-6h54zM101 86.92h121.68v380H101M101 466.92h121.68V2700H101" stroke="#a9a9a9" stroke-width="2" fill="#f5fbff"/><path d="M222.68 86.92H3974a6 6 0 0 1 6 6v374H222.68zM3980 466.92V2694a6 6 0 0 1-6 6H222.68V466.92z" stroke="#a9a9a9" stroke-width="2" fill="none"/><use xlink:href="#a" transform="matrix(-1.8369701987210297e-16,-1,1,-1.8369701987210297e-16,40.00000000000023,2700) translate(1193.648220486111 36.77625868055556)"/><use xlink:href="#b" transform="matrix(-1.8369701987210297e-16,-1,1,-1.8369701987210297e-16,40.00000000000023,2700) translate(1260.3257378472222 36.77625868055556)"/><use xlink:href="#c" transform="matrix(-1.8369701987210297e-16,-1,1,-1.8369701987210297e-16,40.00000000000023,2700) translate(1367.009765625 36.77625868055556)"/><use xlink:href="#d" transform="matrix(1,0,0,1,100,86.9212152720088) translate(34.82899305555556 185.06293402777777)"/><use xlink:href="#e" transform="matrix(1,0,0,1,100,86.9212152720088) translate(8.1579861111111 208.50043402777777)"/><use xlink:href="#f" transform="matrix(1,0,0,1,100,466.9212152720088) translate(29.49479166666667 1111.0755208333333)"/><use xlink:href="#g" transform="matrix(1,0,0,1,100,466.9212152720088) translate(13.492187500000014 1139.2005208333333)"/><path d="M1232.7 252.7c0 14.56-11.8 26.37-26.35 26.37S1180 267.26 1180 252.7c0-14.55 11.8-26.34 26.36-26.34 14.55 0 26.35 11.8 26.35 26.35z" stroke="#a9a9a9" stroke-width="2"/><path d="M1958.83 200c-11.64 0-21.08 9.44-21.08 21.08v63.26c0 11.64 9.44 21.08 21.08 21.08h168.67c11.65 0 21.1-9.44 21.1-21.08v-63.26c0-11.64-9.45-21.08-21.1-21.08z" stroke="#a9a9a9" stroke-width="2" fill="#f5fbff"/><use xlink:href="#h" transform="matrix(1,0,0,1,1945.7462041566248,208.00000000000003) translate(19.487304687500014 51.0986328125)"/><use xlink:href="#i" transform="matrix(1,0,0,1,1945.7462041566248,208.00000000000003) translate(79.4970703125 51.0986328125)"/><path d="M1235.2 252.7h680.93" stroke="#bdf139" stroke-width="3" fill="none"/><path d="M1235.25 254.2h-1.67l.13-1.46-.03-1.5h1.58z" stroke="#bdf139" stroke-width=".05" fill="#bdf139"/><path d="M1931.9 252.7l-14.27 4.65v-9.28z" stroke="#bdf139" stroke-width="3" fill="#bdf139"/><use xlink:href="#j" transform="matrix(1,0,0,1,1551.8894426329086,225.2831988607095) translate(0 18.489583333333332)"/><path d="M1905 640c-11.65 0-21.1 9.44-21.1 21.08v63.26c0 11.64 9.45 21.08 21.1 21.08h196.34c11.64 0 21.08-9.44 21.08-21.08v-63.26c0-11.64-9.44-21.08-21.08-21.08z" stroke="#a9a9a9" stroke-width="2" fill="#f5fbff"/><use xlink:href="#k" transform="matrix(1,0,0,1,1891.9094580686724,648) translate(51.490234375000014 51.0986328125)"/><use xlink:href="#l" transform="matrix(1,0,0,1,1891.9094580686724,648) translate(123.501953125 51.0986328125)"/><path d="M2043.17 307.92v231.46" stroke="#bdf139" stroke-width="3" fill="none"/><path d="M2044.64 307.96h-2.95v-1.54h2.94z" stroke="#bdf139" stroke-width=".05" fill="#bdf139"/><path d="M2043.17 555.15l-4.64-14.27h9.27z" stroke="#bdf139" stroke-width="3" fill="#bdf139"/><use xlink:href="#m" transform="matrix(1,0,0,1,2051.165900489155,382.32381212246554) translate(0 18.489583333333332)"/><use xlink:href="#n" transform="matrix(1,0,0,1,2051.165900489155,382.32381212246554) translate(66.67751736111111 18.489583333333332)"/><path d="M2003.17 582.5v35.88" stroke="#bdf139" stroke-width="3" fill="none"/><path d="M2004.64 582.54h-2.95V581h2.94z" stroke="#bdf139" stroke-width=".05" fill="#bdf139"/><path d="M2003.17 634.14l-4.64-14.26h9.27z" stroke="#bdf139" stroke-width="3" fill="#bdf139"/><path d="M2003.17 747.92V1014a6 6 0 0 0 6 6H2174a6 6 0 0 1 6 6v192.38" stroke="#ff8f8f" stroke-width="3" fill="none"/><path d="M2004.64 747.96h-2.95v-1.54h2.94z" stroke="#ff8f8f" stroke-width=".05" fill="#ff8f8f"/><path d="M2180 1234.15l-4.64-14.27h9.28z" stroke="#ff8f8f" stroke-width="3" fill="#ff8f8f"/><use xlink:href="#o" transform="matrix(1,0,0,1,2011.1659004891546,970.4017374712537) translate(0 18.489583333333332)"/><use xlink:href="#p" transform="matrix(1,0,0,1,2011.1659004891546,970.4017374712537) translate(93.34852430555557 18.489583333333332)"/><path d="M2821.08 1082.58c-11.64 0-21.08 9.44-21.08 21.08v63.26c0 11.64 9.44 21.08 21.08 21.08h168.68c11.64 0 21.08-9.44 21.08-21.08v-63.26c0-11.64-9.44-21.08-21.1-21.08z" stroke="#a9a9a9" stroke-width="2" fill="#f5fbff"/><use xlink:href="#q" transform="matrix(1,0,0,1,2807.999999902962,1090.5803036674702) translate(55.49316406250001 40.556640625)"/><use xlink:href="#r" transform="matrix(1,0,0,1,2807.999999902962,1090.5803036674702) translate(73.49609375 61.640625)"/><path d="M2060 747.92V884a6 6 0 0 0 6 6h793.42a6 6 0 0 1 6 6v63.38" stroke="#bdf139" stroke-width="3" fill="none"/><path d="M2061.47 747.96h-2.94v-1.54h2.94z" stroke="#bdf139" stroke-width=".05" fill="#bdf139"/><path d="M2865.42 975.15l-4.64-14.27h9.27z" stroke="#bdf139" stroke-width="3" fill="#bdf139"/><use xlink:href="#s" transform="matrix(1,0,0,1,2068,792.4332948450236) translate(0 18.489583333333332)"/><use xlink:href="#p" transform="matrix(1,0,0,1,2068,792.4332948450236) translate(106.6840277777778 18.489583333333332)"/><path d="M2905.42 1002.5V1060.96" stroke="#bdf139" stroke-width="3" fill="none"/><path d="M2906.9 1002.54h-2.95V1001h2.95z" stroke="#bdf139" stroke-width=".05" fill="#bdf139"/><path d="M2905.42 1076.72l-4.64-14.26h9.27z" stroke="#bdf139" stroke-width="3" fill="#bdf139"/><path d="M1454.73 1082.58c-11.64 0-21.1 9.44-21.1 21.08v63.26c0 11.64 9.45 21.08 21.1 21.08h168.67c11.64 0 21.08-9.44 21.08-21.08v-63.26c0-11.64-9.43-21.08-21.08-21.08z" stroke="#a9a9a9" stroke-width="2" fill="#f5fbff"/><use xlink:href="#t" transform="matrix(1,0,0,1,1441.6450759168672,1090.5803036674702) translate(43.49121093750001 51.0986328125)"/><use xlink:href="#l" transform="matrix(1,0,0,1,1441.6450759168672,1090.5803036674702) translate(103.5009765625 51.0986328125)"/><path d="M1942.67 747.92V884a6 6 0 0 1-6 6H1586a6 6 0 0 0-6 6v63.38" stroke="#bdf139" stroke-width="3" fill="none"/><path d="M1944.14 747.96h-2.95v-1.54h2.94z" stroke="#bdf139" stroke-width=".05" fill="#bdf139"/><path d="M1580 975.15l-4.63-14.27h9.27z" stroke="#bdf139" stroke-width="3" fill="#bdf139"/><use xlink:href="#u" transform="matrix(1,0,0,1,1761.3051215277778,799.607033456985) translate(0.0049999999999954525 18.489583333333332)"/><use xlink:href="#p" transform="matrix(1,0,0,1,1761.3051215277778,799.607033456985) translate(66.68251736111111 18.489583333333332)"/><path d="M1540 1002.5v38.32a.47.47 0 0 1-.47.47.47.47 0 0 0-.46.46v19.2" stroke="#bdf139" stroke-width="3" fill="none"/><path d="M1541.47 1002.54h-2.94V1001h2.94z" stroke="#bdf139" stroke-width=".05" fill="#bdf139"/><path d="M1539.07 1076.73l-4.64-14.27h9.27z" stroke="#bdf139" stroke-width="3" fill="#bdf139"/><path d="M2124.92 692.7h433.46" stroke="#ff8f8f" stroke-width="3" fill="none"/><path d="M2124.96 694.18h-1.54v-2.94h1.54z" stroke="#ff8f8f" stroke-width=".05" fill="#ff8f8f"/><path d="M2574.15 692.7l-14.27 4.64v-9.26z" stroke="#ff8f8f" stroke-width="3" fill="#ff8f8f"/><use xlink:href="#v" transform="matrix(1,0,0,1,2177.8496263954476,665.2831988607094) translate(0 18.48958333333333)"/><use xlink:href="#w" transform="matrix(1,0,0,1,2177.8496263954476,665.2831988607094) translate(66.6775173611111 18.48958333333333)"/><use xlink:href="#x" transform="matrix(1,0,0,1,2177.8496263954476,665.2831988607094) translate(106.68402777777776 18.48958333333333)"/><use xlink:href="#y" transform="matrix(1,0,0,1,2177.8496263954476,665.2831988607094) translate(173.36154513888886 18.48958333333333)"/><use xlink:href="#z" transform="matrix(1,0,0,1,2177.8496263954476,665.2831988607094) translate(240.03906249999994 18.48958333333333)"/><path d="M2451.08 1603.88c-11.64 0-21.08 9.43-21.08 21.08v63.25c0 11.66 9.44 21.1 21.08 21.1h168.68c11.64 0 21.08-9.44 21.08-21.1v-63.24c0-11.64-9.44-21.08-21.1-21.08z" stroke="#a9a9a9" stroke-width="2" fill="#f5fbff"/><use xlink:href="#A" transform="matrix(1,0,0,1,2438.0000000000005,1611.8757486554173) translate(55.49316406250001 40.556640625)"/><use xlink:href="#B" transform="matrix(1,0,0,1,2438.0000000000005,1611.8757486554173) translate(49.49218750000001 61.640625)"/><path d="M2821.08 1607.25c-11.64 0-21.08 9.44-21.08 21.1v63.24c0 11.63 9.44 21.07 21.08 21.07h168.68c11.64 0 21.08-9.44 21.08-21.08v-63.26c0-11.65-9.44-21.1-21.1-21.1z" stroke="#a9a9a9" stroke-width="2" fill="#f5fbff"/><use xlink:href="#C" transform="matrix(1,0,0,1,2808.0000000000005,1615.252263488349) translate(67.4951171875 40.556640625)"/><use xlink:href="#B" transform="matrix(1,0,0,1,2808.0000000000005,1615.252263488349) translate(49.49218750000001 61.640625)"/><path d="M3309.08 1603.88c-11.64 0-21.08 9.43-21.08 21.08v63.25c0 11.66 9.44 21.1 21.08 21.1h168.68c11.64 0 21.08-9.44 21.08-21.1v-63.24c0-11.64-9.44-21.08-21.1-21.08z" stroke="#a9a9a9" stroke-width="2" fill="#f5fbff"/><use xlink:href="#D" transform="matrix(1,0,0,1,3295.9999999999995,1611.8757486554173) translate(25.488281250000014 51.0986328125)"/><use xlink:href="#E" transform="matrix(1,0,0,1,3295.9999999999995,1611.8757486554173) translate(73.49609375 51.0986328125)"/><path d="M2844 1190.5v63.5a6 6 0 0 1-6 6h-256.58a6 6 0 0 0-6 6v193.38" stroke="#bdf139" stroke-width="3" fill="none"/><path d="M2845.47 1190.54h-2.94V1189h2.94z" stroke="#bdf139" stroke-width=".05" fill="#bdf139"/><path d="M2575.42 1475.15l-4.64-14.27h9.27z" stroke="#bdf139" stroke-width="3" fill="#bdf139"/><use xlink:href="#F" transform="matrix(1,0,0,1,2590.1822296003384,1232.5733506944446) translate(0 18.489583333333332)"/><use xlink:href="#G" transform="matrix(1,0,0,1,2590.1822296003384,1232.5733506944446) translate(40.006510416666664 18.489583333333332)"/><use xlink:href="#H" transform="matrix(1,0,0,1,2590.1822296003384,1232.5733506944446) translate(146.69053819444446 18.489583333333332)"/><path d="M3393.42 1502.5V1582.26" stroke="#bdf139" stroke-width="3" fill="none"/><path d="M3394.9 1502.54h-2.95V1501h2.95z" stroke="#bdf139" stroke-width=".05" fill="#bdf139"/><path d="M3393.42 1598.02l-4.64-14.26h9.27z" stroke="#bdf139" stroke-width="3" fill="#bdf139"/><path d="M2965.33 1190.5v73.5a6 6 0 0 0 6 6H3362a6 6 0 0 1 6 6v183.38" stroke="#bdf139" stroke-width="3" fill="none"/><path d="M2966.8 1190.54h-2.94V1189h2.95z" stroke="#bdf139" stroke-width=".05" fill="#bdf139"/><path d="M3368 1475.15l-4.64-14.27h9.28z" stroke="#bdf139" stroke-width="3" fill="#bdf139"/><use xlink:href="#F" transform="matrix(1,0,0,1,2995.4190031533317,1242.5733506944443) translate(0 18.489583333333332)"/><use xlink:href="#I" transform="matrix(1,0,0,1,2995.4190031533317,1242.5733506944443) translate(40.006510416666664 18.489583333333332)"/><use xlink:href="#J" transform="matrix(1,0,0,1,2995.4190031533317,1242.5733506944443) translate(93.34852430555554 18.489583333333332)"/><use xlink:href="#H" transform="matrix(1,0,0,1,2995.4190031533317,1242.5733506944443) translate(213.36805555555557 18.489583333333332)"/><path d="M2905.42 1190.5v267.88" stroke="#bdf139" stroke-width="3" fill="none"/><path d="M2906.9 1190.54h-2.95V1189h2.95z" stroke="#bdf139" stroke-width=".05" fill="#bdf139"/><path d="M2905.42 1474.14l-4.64-14.26h9.27z" stroke="#bdf139" stroke-width="3" fill="#bdf139"/><use xlink:href="#F" transform="matrix(1,0,0,1,2913.419696429569,1306.9533643067532) translate(0 18.489583333333332)"/><use xlink:href="#K" transform="matrix(1,0,0,1,2913.419696429569,1306.9533643067532) translate(40.006510416666664 18.489583333333332)"/><use xlink:href="#H" transform="matrix(1,0,0,1,2913.419696429569,1306.9533643067532) translate(120.01953125 18.489583333333332)"/><path d="M2905.42 1502.5v83.13" stroke="#bdf139" stroke-width="3" fill="none"/><path d="M2906.9 1502.54h-2.95V1501h2.95z" stroke="#bdf139" stroke-width=".05" fill="#bdf139"/><path d="M2905.42 1601.4l-4.64-14.27h9.27z" stroke="#bdf139" stroke-width="3" fill="#bdf139"/><path d="M2825.42 2326a6 6 0 0 1 6-6h148a6 6 0 0 1 6 6v8a6 6 0 0 1-6 6h-148a6 6 0 0 1-6-6z" stroke="#ff8f8f" stroke-width="2"/><path d="M2643.34 1631.73H2674a6 6 0 0 1 6 6V2194a6 6 0 0 0 6 6h173.42a6 6 0 0 1 6 6v93.38" stroke="#ff8f8f" stroke-width="3" fill="none"/><path d="M2643.38 1633.2h-1.54v-2.94h1.54z" stroke="#ff8f8f" stroke-width=".05" fill="#ff8f8f"/><path d="M2865.42 2315.15l-4.64-14.27h9.27z" stroke="#ff8f8f" stroke-width="3" fill="#ff8f8f"/><use xlink:href="#F" transform="matrix(1,0,0,1,2654.1524004440894,1606.785374870863) translate(0 18.489583333333332)"/><use xlink:href="#L" transform="matrix(1,0,0,1,2654.1524004440894,1606.785374870863) translate(40.006510416666664 18.489583333333332)"/><path d="M2797.5 1691.1H2736a6 6 0 0 0-6 6V2134a6 6 0 0 0 6 6h163.42a6 6 0 0 1 6 6v152.38" stroke="#ff8f8f" stroke-width="3" fill="none"/><path d="M2799 1691.65l.1.93h-1.64v-2.95h1.54z" stroke="#ff8f8f" stroke-width=".05" fill="#ff8f8f"/><path d="M2905.42 2314.15l-4.64-14.27h9.27z" stroke="#ff8f8f" stroke-width="3" fill="#ff8f8f"/><use xlink:href="#F" transform="matrix(1,0,0,1,2691.47583490234,1663.6745197786438) translate(0 18.489583333333332)"/><use xlink:href="#L" transform="matrix(1,0,0,1,2691.47583490234,1663.6745197786438) translate(40.006510416666664 18.489583333333332)"/><path d="M3285.5 1656.6H3216a6 6 0 0 0-6 6V2204a6 6 0 0 1-6 6h-252.58a6 6 0 0 0-6 6v83.38" stroke="#ff8f8f" stroke-width="3" fill="none"/><path d="M3287 1658.06h-1.54v-2.95h1.54z" stroke="#ff8f8f" stroke-width=".05" fill="#ff8f8f"/><path d="M2945.42 2315.15l-4.64-14.27h9.27z" stroke="#ff8f8f" stroke-width="3" fill="#ff8f8f"/><use xlink:href="#F" transform="matrix(1,0,0,1,3165.288246994349,1629.1589475161265) translate(0 18.489583333333332)"/><use xlink:href="#L" transform="matrix(1,0,0,1,3165.288246994349,1629.1589475161265) translate(40.006510416666664 18.489583333333332)"/><path d="M2905.42 2342.5v91.5a6 6 0 0 0 6 6H3704a6 6 0 0 0 6-6V896a6 6 0 0 0-6-6h-752.58a6 6 0 0 0-6 6v63.38" stroke="#ff8f8f" stroke-width="3" fill="none"/><path d="M2906.9 2342.54h-2.95V2341h2.95z" stroke="#ff8f8f" stroke-width=".05" fill="#ff8f8f"/><path d="M2945.42 975.15l-4.64-14.27h9.27z" stroke="#ff8f8f" stroke-width="3" fill="#ff8f8f"/><use xlink:href="#M" transform="matrix(1,0,0,1,3292.4141104016735,2412.573350694445) translate(0 18.489583333333332)"/><path d="M2180 1262.5V2614a6 6 0 0 1-6 6H326a6 6 0 0 1-6-6V526a6 6 0 0 1 6-6h1631.17a6 6 0 0 1 6 6v13.38" stroke="#ff8f8f" stroke-width="3" fill="none"/><path d="M2181.47 1262.54h-2.94V1261h2.94z" stroke="#ff8f8f" stroke-width=".05" fill="#ff8f8f"/><path d="M1963.17 555.15l-4.64-14.27h9.27z" stroke="#ff8f8f" stroke-width="3" fill="#ff8f8f"/><use xlink:href="#M" transform="matrix(1,0,0,1,1123.3371785168104,2592.5733506944443) translate(0 18.489583333333332)"/><path d="M1646.98 1135.3H2134a6 6 0 0 1 6 6v78.08" stroke="#ff8f8f" stroke-width="3" fill="none"/><path d="M1647.02 1136.77h-1.54v-2.95h1.54z" stroke="#ff8f8f" stroke-width=".05" fill="#ff8f8f"/><path d="M2140 1235.15l-4.64-14.27h9.28z" stroke="#ff8f8f" stroke-width="3" fill="#ff8f8f"/><use xlink:href="#F" transform="matrix(1,0,0,1,1793.1753131412102,1107.8635025281794) translate(0 18.489583333333332)"/><use xlink:href="#L" transform="matrix(1,0,0,1,1793.1753131412102,1107.8635025281794) translate(40.006510416666664 18.489583333333332)"/><path d="M2100 1246a6 6 0 0 1 6-6h148a6 6 0 0 1 6 6v8a6 6 0 0 1-6 6h-148a6 6 0 0 1-6-6z" stroke="#ff8f8f" stroke-width="2"/><path d="M2797.5 1135.3H2226a6 6 0 0 0-6 6v78.08" stroke="#ff8f8f" stroke-width="3" fill="none"/><path d="M2799 1136.77h-1.54v-2.95h1.54z" stroke="#ff8f8f" stroke-width=".05" fill="#ff8f8f"/><path d="M2220 1235.15l-4.64-14.27h9.28z" stroke="#ff8f8f" stroke-width="3" fill="#ff8f8f"/><use xlink:href="#F" transform="matrix(1,0,0,1,2561.4959089569297,1107.8635024599855) translate(0 18.489583333333332)"/><use xlink:href="#L" transform="matrix(1,0,0,1,2561.4959089569297,1107.8635024599855) translate(40.006510416666664 18.489583333333332)"/><path d="M2455.42 1711.8V1919.38" stroke="#bdf139" stroke-width="3" fill="none"/><path d="M2456.9 1711.83h-2.95v-1.53h2.95z" stroke="#bdf139" stroke-width=".05" fill="#bdf139"/><path d="M2455.42 1935.14l-4.64-14.26h9.27z" stroke="#bdf139" stroke-width="3" fill="#bdf139"/><use xlink:href="#N" transform="matrix(1,0,0,1,2380.7421790684575,1832.2866753472222) translate(0 18.489583333333332)"/><path d="M2985.42 1715.17v204.2" stroke="#bdf139" stroke-width="3" fill="none"/><path d="M2986.9 1715.2h-2.95v-1.53h2.95z" stroke="#bdf139" stroke-width=".05" fill="#bdf139"/><path d="M2985.42 1935.15l-4.64-14.27h9.27z" stroke="#bdf139" stroke-width="3" fill="#bdf139"/><use xlink:href="#O" transform="matrix(1,0,0,1,2993.4196964295684,1830.9533420138891) translate(0 18.489583333333332)"/><path d="M3473.42 1711.8v211.4" stroke="#bdf139" stroke-width="3" fill="none"/><path d="M3474.9 1711.83h-2.95v-1.53h2.95z" stroke="#bdf139" stroke-width=".05" fill="#bdf139"/><path d="M3473.42 1938.95l-4.64-14.26h9.27z" stroke="#bdf139" stroke-width="3" fill="#bdf139"/><use xlink:href="#O" transform="matrix(1,0,0,1,3481.4196964295675,1815.3385625893877) translate(0 18.489583333333332)"/><path d="M2455.42 1486a6 6 0 0 1 6-6h148a6 6 0 0 1 6 6v8a6 6 0 0 1-6 6h-148a6 6 0 0 1-6-6z" stroke="#a9a9a9" stroke-width="2"/><path d="M2535.42 1502.5V1582.26" stroke="#bdf139" stroke-width="3" fill="none"/><path d="M2536.9 1502.54h-2.95V1501h2.95z" stroke="#bdf139" stroke-width=".05" fill="#bdf139"/><path d="M2535.42 1598.02l-4.64-14.26h9.27z" stroke="#bdf139" stroke-width="3" fill="#bdf139"/><path d="M2825.42 1486a6 6 0 0 1 6-6h148a6 6 0 0 1 6 6v8a6 6 0 0 1-6 6h-148a6 6 0 0 1-6-6zM3328 1486a6 6 0 0 1 6-6h148a6 6 0 0 1 6 6v8a6 6 0 0 1-6 6h-148a6 6 0 0 1-6-6z" stroke="#a9a9a9" stroke-width="2"/><path d="M741.08 1511.23c-11.64 0-21.08 9.44-21.08 21.1v63.24c0 11.64 9.44 21.08 21.08 21.08h168.67c11.65 0 21.1-9.44 21.1-21.08v-63.25c0-11.65-9.45-21.1-21.1-21.1z" stroke="#a9a9a9" stroke-width="2" fill="#f5fbff"/><use xlink:href="#P" transform="matrix(1,0,0,1,728.0000000000001,1519.2333340103085) translate(49.49218750000001 40.556640625)"/><use xlink:href="#Q" transform="matrix(1,0,0,1,728.0000000000001,1519.2333340103085) translate(73.49609375 61.640625)"/><path d="M1221.08 1511.23c-11.64 0-21.08 9.44-21.08 21.1v63.24c0 11.64 9.44 21.08 21.08 21.08h168.68c11.64 0 21.08-9.44 21.08-21.08v-63.25c0-11.65-9.44-21.1-21.08-21.1z" stroke="#a9a9a9" stroke-width="2" fill="#f5fbff"/><use xlink:href="#R" transform="matrix(1,0,0,1,1208,1519.2333340103085) translate(43.49121093750001 40.556640625)"/><use xlink:href="#Q" transform="matrix(1,0,0,1,1208,1519.2333340103085) translate(73.49609375 61.640625)"/><path d="M1715.66 1511.23c-11.64 0-21.08 9.44-21.08 21.1v63.24c0 11.64 9.44 21.08 21.08 21.08h168.68c11.64 0 21.08-9.44 21.08-21.08v-63.25c0-11.65-9.44-21.1-21.08-21.1z" stroke="#a9a9a9" stroke-width="2" fill="#f5fbff"/><use xlink:href="#S" transform="matrix(1,0,0,1,1702.5803036674697,1519.2333340103085) translate(43.49121093750001 40.556640625)"/><use xlink:href="#Q" transform="matrix(1,0,0,1,1702.5803036674697,1519.2333340103085) translate(73.49609375 61.640625)"/><path d="M825.42 1434.5v55.12" stroke="#bdf139" stroke-width="3" fill="none"/><path d="M826.9 1434.54h-2.95V1433h2.94z" stroke="#bdf139" stroke-width=".05" fill="#bdf139"/><path d="M825.42 1505.38l-4.64-14.27h9.27z" stroke="#bdf139" stroke-width="3" fill="#bdf139"/><path d="M1483.7 1190.5v93.5a6 6 0 0 1-6 6H866a6 6 0 0 0-6 6v95.38" stroke="#bdf139" stroke-width="3" fill="none"/><path d="M1485.18 1190.54h-2.95V1189h2.95z" stroke="#bdf139" stroke-width=".05" fill="#bdf139"/><path d="M860 1407.15l-4.63-14.27h9.26z" stroke="#bdf139" stroke-width="3" fill="#bdf139"/><use xlink:href="#F" transform="matrix(1,0,0,1,1089.627558407464,1239.146701388889) translate(0.0049999999999954525 18.489583333333332)"/><use xlink:href="#T" transform="matrix(1,0,0,1,1089.627558407464,1239.146701388889) translate(40.01151041666666 18.489583333333332)"/><use xlink:href="#U" transform="matrix(1,0,0,1,1089.627558407464,1239.146701388889) translate(160.03104166666668 18.489583333333332)"/><use xlink:href="#V" transform="matrix(1,0,0,1,1089.627558407464,1239.146701388889) translate(53.34701388888888 41.916232638888886)"/><path d="M1598.67 1190.5v232.02a6 6 0 0 0 6 6H1794a6 6 0 0 1 6 6v55.1" stroke="#bdf139" stroke-width="3" fill="none"/><path d="M1600.14 1190.54h-2.95V1189h2.94z" stroke="#bdf139" stroke-width=".05" fill="#bdf139"/><path d="M1800 1505.38l-4.63-14.27h9.27z" stroke="#bdf139" stroke-width="3" fill="#bdf139"/><use xlink:href="#F" transform="matrix(1,0,0,1,1644.8007759524758,1377.6701872329322) translate(0.0049999999999954525 18.489583333333332)"/><use xlink:href="#W" transform="matrix(1,0,0,1,1644.8007759524758,1377.6701872329322) translate(40.01151041666666 18.489583333333332)"/><use xlink:href="#U" transform="matrix(1,0,0,1,1644.8007759524758,1377.6701872329322) translate(173.3665451388889 18.489583333333332)"/><use xlink:href="#V" transform="matrix(1,0,0,1,1644.8007759524758,1377.6701872329322) translate(60.014765624999995 41.916232638888886)"/><path d="M1539.07 1190.5V1416a6 6 0 0 1-6 6H1311.4a6 6 0 0 0-6 6v61.6" stroke="#bdf139" stroke-width="3" fill="none"/><path d="M1540.54 1190.54h-2.95V1189h2.94z" stroke="#bdf139" stroke-width=".05" fill="#bdf139"/><path d="M1305.42 1505.38l-4.64-14.27h9.28z" stroke="#bdf139" stroke-width="3" fill="#bdf139"/><use xlink:href="#F" transform="matrix(1,0,0,1,1243.5477507903588,1371.1467053792478) translate(0.0049999999999954525 18.489583333333332)"/><use xlink:href="#X" transform="matrix(1,0,0,1,1243.5477507903588,1371.1467053792478) translate(40.01151041666666 18.489583333333332)"/><use xlink:href="#U" transform="matrix(1,0,0,1,1243.5477507903588,1371.1467053792478) translate(173.3665451388889 18.489583333333332)"/><use xlink:href="#V" transform="matrix(1,0,0,1,1243.5477507903588,1371.1467053792478) translate(60.014765624999995 41.916232638888886)"/><path d="M1680 2348.45a6 6 0 0 1 6-6h148a6 6 0 0 1 6 6v8a6 6 0 0 1-6 6h-148a6 6 0 0 1-6-6z" stroke="#ff8f8f" stroke-width="2"/><path d="M892.33 1619.15v63.3a6 6 0 0 0 6 6H1104a6 6 0 0 1 6 6v498a6 6 0 0 0 6 6h598a6 6 0 0 1 6 6v117.38" stroke="#ff8f8f" stroke-width="3" fill="none"/><path d="M893.8 1619.2h-2.95v-1.55h2.95z" stroke="#ff8f8f" stroke-width=".05" fill="#ff8f8f"/><path d="M1720 2337.6l-4.63-14.27h9.27z" stroke="#ff8f8f" stroke-width="3" fill="#ff8f8f"/><use xlink:href="#F" transform="matrix(1,0,0,1,946.5394715921404,1661.0241139168147) translate(0 18.489583333333332)"/><use xlink:href="#L" transform="matrix(1,0,0,1,946.5394715921404,1661.0241139168147) translate(40.006510416666664 18.489583333333332)"/><path d="M1305.42 1619.15v493.3a6 6 0 0 0 6 6H1754a6 6 0 0 1 6 6v196.38" stroke="#ff8f8f" stroke-width="3" fill="none"/><path d="M1306.9 1619.2h-2.96v-1.55h2.95z" stroke="#ff8f8f" stroke-width=".05" fill="#ff8f8f"/><path d="M1760 2336.6l-4.63-14.27h9.27z" stroke="#ff8f8f" stroke-width="3" fill="#ff8f8f"/><use xlink:href="#F" transform="matrix(1,0,0,1,1313.41969633253,1644.3484111997145) translate(0 18.489583333333332)"/><use xlink:href="#L" transform="matrix(1,0,0,1,1313.41969633253,1644.3484111997145) translate(40.006510416666664 18.489583333333332)"/><path d="M1800 1619.15V2321.83" stroke="#ff8f8f" stroke-width="3" fill="none"/><path d="M1801.47 1619.2h-2.94v-1.55h2.94z" stroke="#ff8f8f" stroke-width=".05" fill="#ff8f8f"/><path d="M1800 2337.6l-4.63-14.27h9.27z" stroke="#ff8f8f" stroke-width="3" fill="#ff8f8f"/><use xlink:href="#F" transform="matrix(1,0,0,1,1807.9999999999998,1642.8906352842557) translate(0 18.489583333333332)"/><use xlink:href="#L" transform="matrix(1,0,0,1,1807.9999999999998,1642.8906352842557) translate(40.006510416666664 18.489583333333332)"/><path d="M1760 2364.95v121.1a6 6 0 0 1-6 6H406a6 6 0 0 1-6-6V896a6 6 0 0 1 6-6h1088a6 6 0 0 1 6 6v63.38" stroke="#ff8f8f" stroke-width="3" fill="none"/><path d="M1761.47 2365h-2.94v-1.55h2.94z" stroke="#ff8f8f" stroke-width=".05" fill="#ff8f8f"/><path d="M1500 975.15l-4.63-14.27h9.27z" stroke="#ff8f8f" stroke-width="3" fill="#ff8f8f"/><use xlink:href="#M" transform="matrix(1,0,0,1,1134.8269888547147,2464.6149999023505) translate(0 18.489583333333332)"/><path d="M2415.42 1946a6 6 0 0 1 6-6h148a6 6 0 0 1 6 6v8a6 6 0 0 1-6 6h-148a6 6 0 0 1-6-6z" stroke="#a9a9a9" stroke-width="2"/><path d="M2535.42 1711.8V1919.38" stroke="#bdf139" stroke-width="3" fill="none"/><path d="M2536.9 1711.83h-2.95v-1.53h2.95z" stroke="#bdf139" stroke-width=".05" fill="#bdf139"/><path d="M2535.42 1935.14l-4.64-14.26h9.27z" stroke="#bdf139" stroke-width="3" fill="#bdf139"/><use xlink:href="#O" transform="matrix(1,0,0,1,2543.4196964295693,1832.2866753472222) translate(0 18.489583333333332)"/><path d="M2495.42 1962.5v31.5a6 6 0 0 1-6 6H2316a6 6 0 0 1-6-6v-578a6 6 0 0 1 6-6h173.42a6 6 0 0 1 6 6v43.38" stroke="#ff8f8f" stroke-width="3" fill="none"/><path d="M2496.9 1962.54h-2.95V1961h2.95z" stroke="#ff8f8f" stroke-width=".05" fill="#ff8f8f"/><path d="M2495.42 1475.15l-4.64-14.27h9.27z" stroke="#ff8f8f" stroke-width="3" fill="#ff8f8f"/><use xlink:href="#Y" transform="matrix(1,0,0,1,2363.6375348580195,2003.9999999999998) translate(0 18.489583333333332)"/><path d="M2865.42 1946a6 6 0 0 1 6-6h148a6 6 0 0 1 6 6v8a6 6 0 0 1-6 6h-148a6 6 0 0 1-6-6zM3353.42 1949.8a6 6 0 0 1 6-6h148a6 6 0 0 1 6 6v8a6 6 0 0 1-6 6h-148a6 6 0 0 1-6-6z" stroke="#a9a9a9" stroke-width="2"/><path d="M3393.42 1711.8v211.4" stroke="#bdf139" stroke-width="3" fill="none"/><path d="M3394.9 1711.83h-2.95v-1.53h2.95z" stroke="#bdf139" stroke-width=".05" fill="#bdf139"/><path d="M3393.42 1938.95l-4.64-14.26h9.27z" stroke="#bdf139" stroke-width="3" fill="#bdf139"/><g><use xlink:href="#N" transform="matrix(1,0,0,1,3318.742179068457,1815.3385625893877) translate(0 18.489583333333332)"/></g><path d="M3433.42 1966.3v31.5a6 6 0 0 0 6 6H3604a6 6 0 0 0 6-6V1416a6 6 0 0 0-6-6h-150a6 6 0 0 0-6 6v43.38" stroke="#ff8f8f" stroke-width="3" fill="none"/><path d="M3434.9 1966.35h-2.95v-1.54h2.95z" stroke="#ff8f8f" stroke-width=".05" fill="#ff8f8f"/><path d="M3448 1475.15l-4.64-14.27h9.28z" stroke="#ff8f8f" stroke-width="3" fill="#ff8f8f"/><g><use xlink:href="#Y" transform="matrix(1,0,0,1,3504.203376196906,2007.808329828914) translate(0 18.489583333333332)"/></g><path d="M2945.42 1962.5v31.5a6 6 0 0 0 6 6H3104a6 6 0 0 0 6-6v-578a6 6 0 0 0-6-6h-152.58a6 6 0 0 0-6 6v43.38" stroke="#ff8f8f" stroke-width="3" fill="none"/><path d="M2946.9 1962.54h-2.95V1961h2.95z" stroke="#ff8f8f" stroke-width=".05" fill="#ff8f8f"/><path d="M2945.42 1475.15l-4.64-14.27h9.27z" stroke="#ff8f8f" stroke-width="3" fill="#ff8f8f"/><g><use xlink:href="#Y" transform="matrix(1,0,0,1,2980.4565977993066,2003.9999999999998) translate(0 18.489583333333332)"/></g><path d="M2905.42 1715.17v204.2" stroke="#bdf139" stroke-width="3" fill="none"/><path d="M2906.9 1715.2h-2.95v-1.53h2.95z" stroke="#bdf139" stroke-width=".05" fill="#bdf139"/><path d="M2905.42 1935.15l-4.64-14.27h9.27z" stroke="#bdf139" stroke-width="3" fill="#bdf139"/><g><use xlink:href="#N" transform="matrix(1,0,0,1,2830.742179068458,1829.6200086805557) translate(0 18.489583333333332)"/></g><path d="M831.08 1912.96c-11.64 0-21.08 9.44-21.08 21.08v63.25c0 11.64 9.44 21.08 21.08 21.08h168.67c11.65 0 21.1-9.44 21.1-21.1v-63.24c0-11.64-9.45-21.08-21.1-21.08z" stroke="#a9a9a9" stroke-width="2" fill="#f5fbff"/><g><use xlink:href="#Z" transform="matrix(1,0,0,1,818,1920.9583442681671) translate(19.487304687500014 51.0986328125)"/><use xlink:href="#aa" transform="matrix(1,0,0,1,818,1920.9583442681671) translate(79.4970703125 51.0986328125)"/></g><path d="M571.08 1912.96c-11.64 0-21.08 9.44-21.08 21.08v63.25c0 11.64 9.44 21.08 21.08 21.08h168.67c11.65 0 21.1-9.44 21.1-21.1v-63.24c0-11.64-9.45-21.08-21.1-21.08z" stroke="#a9a9a9" stroke-width="2" fill="#f5fbff"/><g><use xlink:href="#h" transform="matrix(1,0,0,1,558,1920.9583442681671) translate(19.487304687500014 51.0986328125)"/><use xlink:href="#aa" transform="matrix(1,0,0,1,558,1920.9583442681671) translate(79.4970703125 51.0986328125)"/></g><path d="M825.42 1619.15v203.3a6 6 0 0 0 6 6h130.84a6 6 0 0 1 6 6v56.9" stroke="#bdf139" stroke-width="3" fill="none"/><path d="M826.9 1619.2h-2.95v-1.55h2.94z" stroke="#bdf139" stroke-width=".05" fill="#bdf139"/><path d="M968.26 1907.1l-4.64-14.26h9.27z" stroke="#bdf139" stroke-width="3" fill="#bdf139"/><g><use xlink:href="#ab" transform="matrix(1,0,0,1,833.41969633253,1768.2887494927024) translate(0.0049999999999954525 18.489583333333332)"/><use xlink:href="#ac" transform="matrix(1,0,0,1,833.41969633253,1768.2887494927024) translate(66.68251736111111 18.489583333333332)"/><use xlink:href="#V" transform="matrix(1,0,0,1,833.41969633253,1768.2887494927024) translate(33.34375868055555 41.916232638888886)"/></g><path d="M756.23 1619.15v203.3a6 6 0 0 1-6 6H607.25a6 6 0 0 0-6 6v56.9" stroke="#bdf139" stroke-width="3" fill="none"/><path d="M757.7 1619.2h-2.95v-1.55h2.96z" stroke="#bdf139" stroke-width=".05" fill="#bdf139"/><path d="M601.25 1907.1l-4.63-14.26h9.27z" stroke="#bdf139" stroke-width="3" fill="#bdf139"/><g><use xlink:href="#m" transform="matrix(1,0,0,1,574.8684042606699,1769.8215090926992) translate(0.0049999999999954525 18.489583333333332)"/><use xlink:href="#ac" transform="matrix(1,0,0,1,574.8684042606699,1769.8215090926992) translate(66.68251736111111 18.489583333333332)"/><use xlink:href="#V" transform="matrix(1,0,0,1,574.8684042606699,1769.8215090926992) translate(33.34375868055555 41.916232638888886)"/></g><path d="M695.42 2178.96a6 6 0 0 1 6-6h148a6 6 0 0 1 6 6v8a6 6 0 0 1-6 6h-148a6 6 0 0 1-6-6z" stroke="#a9a9a9" stroke-width="2"/><path d="M655.42 2020.88v69.3a6 6 0 0 0 6 6h68a6 6 0 0 1 6 6v50.16" stroke="#bdf139" stroke-width="3" fill="none"/><path d="M656.9 2020.92h-2.95v-1.54h2.94z" stroke="#bdf139" stroke-width=".05" fill="#bdf139"/><path d="M735.42 2168.1l-4.64-14.26h9.27z" stroke="#bdf139" stroke-width="3" fill="#bdf139"/><g><use xlink:href="#F" transform="matrix(1,0,0,1,669.2603142090954,2068.7415429626117) translate(0 18.489583333333332)"/><use xlink:href="#L" transform="matrix(1,0,0,1,669.2603142090954,2068.7415429626117) translate(40.006510416666664 18.489583333333332)"/></g><path d="M915.42 2020.88v76.08a6 6 0 0 1-6 6h-88a6 6 0 0 0-6 6v43.38" stroke="#bdf139" stroke-width="3" fill="none"/><path d="M916.9 2020.92h-2.95v-1.54h2.94z" stroke="#bdf139" stroke-width=".05" fill="#bdf139"/><path d="M815.42 2168.1l-4.64-14.26h9.27z" stroke="#bdf139" stroke-width="3" fill="#bdf139"/><g><use xlink:href="#F" transform="matrix(1,0,0,1,814.071172124013,2067.9355681496986) translate(0 18.489583333333332)"/><use xlink:href="#L" transform="matrix(1,0,0,1,814.071172124013,2067.9355681496986) translate(40.006510416666664 18.489583333333332)"/></g><path d="M775.42 2195.46v71.5a6 6 0 0 1-6 6H486a6 6 0 0 1-6-6V1296a6 6 0 0 1 6-6h288a6 6 0 0 1 6 6v95.38" stroke="#ff8f8f" stroke-width="3" fill="none"/><path d="M776.9 2195.5h-2.95v-1.54h2.94z" stroke="#ff8f8f" stroke-width=".05" fill="#ff8f8f"/><path d="M780 1407.15l-4.63-14.27h9.26z" stroke="#ff8f8f" stroke-width="3" fill="#ff8f8f"/><g><use xlink:href="#M" transform="matrix(1,0,0,1,597.0895631580762,2245.5316949626117) translate(0 18.489583333333332)"/></g><path d="M740 1418a6 6 0 0 1 6-6h148a6 6 0 0 1 6 6v8a6 6 0 0 1-6 6H746a6 6 0 0 1-6-6zM1460 986a6 6 0 0 1 6-6h148a6 6 0 0 1 6 6v8a6 6 0 0 1-6 6h-148a6 6 0 0 1-6-6zM1923.17 566a6 6 0 0 1 6-6h148a6 6 0 0 1 6 6v8a6 6 0 0 1-6 6h-148a6 6 0 0 1-6-6zM2825.42 986a6 6 0 0 1 6-6h148a6 6 0 0 1 6 6v8a6 6 0 0 1-6 6h-148a6 6 0 0 1-6-6z" stroke="#a9a9a9" stroke-width="2"/><path d="M2596 652.7c-8.84 0-16 7.17-16 16v48c0 8.85 7.16 16 16 16h128c8.84 0 16-7.15 16-16v-48c0-8.83-7.16-16-16-16z" stroke="#a9a9a9" stroke-width="2" fill="#f5fbff"/><path d="M2598 682.7v20m-10 0v-10h20v10" stroke="#a9a9a9" stroke-width="2" fill="none"/><g><use xlink:href="#ad" transform="matrix(1,0,0,1,2618,660.709848166265) translate(12.574999999999996 24.799999999999997)"/><use xlink:href="#ae" transform="matrix(1,0,0,1,2618,660.709848166265) translate(56.475 24.799999999999997)"/><use xlink:href="#af" transform="matrix(1,0,0,1,2618,660.709848166265) translate(28.549999999999997 46.4)"/></g><defs><path fill="#5f6572" d="M655-135c108 0 195-33 260-74v-336H622v-160h479v572C981-54 839 20 639 20c-388 0-526-306-526-701 0-406 129-689 529-689 261 0 392 137 461 331l-171 56c-47-131-122-231-288-231-281 0-330 245-330 533 0 179 28 314 84 407s142 139 257 139" id="ag"/><path fill="#5f6572" d="M1000-272c3 95 12 159 101 161 21 0 41-3 59-7V-6c-44 10-86 16-139 16-141 2-191-84-197-217h-6C748-76 648 20 446 20c-207 0-318-120-318-322 0-266 194-348 454-354l236-4c12-191-40-305-222-305-140 0-220 47-232 172l-188-17c33-204 181-292 423-292 255 0 401 118 401 364v466zm-683-27c0 109 63 184 175 182 166-3 259-96 306-217 24-65 20-120 20-200-232 7-501-28-501 235" id="ah"/><path fill="#5f6572" d="M904-1102c199 0 220 177 220 381V0H956v-686c-3-114 0-215-60-264-70-33-125-4-158 71-26 56-39 140-39 252V0H531v-686c-3-114-1-215-61-264-78-41-136 24-157 84-24 69-39 159-39 259V0H105c-3-360 6-732-6-1082h149c6 50 3 123 8 175 36-100 83-195 216-195 135 0 166 79 196 196 42-105 93-196 236-196" id="ai"/><path fill="#5f6572" d="M617-1102c355 0 481 238 477 599H322c5 222 84 388 301 388 144 0 244-59 284-166l158 45C1002-72 854 20 623 20c-342 0-490-220-490-568 0-346 151-554 484-554zm291 461c-18-192-90-328-289-328-194 0-287 128-295 328h584" id="aj"/><g id="a"><use transform="matrix(0.010850694444444444,0,0,0.010850694444444444,0,0)" xlink:href="#ag"/><use transform="matrix(0.010850694444444444,0,0,0.010850694444444444,13.335503472222221,0)" xlink:href="#ah"/><use transform="matrix(0.010850694444444444,0,0,0.010850694444444444,26.671006944444443,0)" xlink:href="#ai"/><use transform="matrix(0.010850694444444444,0,0,0.010850694444444444,40.006510416666664,0)" xlink:href="#aj"/></g><path fill="#5f6572" d="M1121-976c0 225-142 341-344 379L1177 0H957L591-575H353V0H162v-1349h482c281 3 477 100 477 373zM633-726c181-1 296-73 296-247 0-149-101-223-304-223H353v470h280" id="ak"/><path fill="#5f6572" d="M528 20c-247 0-343-132-343-381v-721h180v686c-4 177 45 284 224 277 194-8 279-136 279-336v-627h181c3 360-6 732 6 1082H885c-4-54-7-126-8-185h-3C809-64 714 20 528 20" id="al"/><path fill="#5f6572" d="M706-1102c241 0 344 136 343 381V0H868v-695c1-168-57-273-220-268-190 6-283 138-283 336V0H185c-3-360 6-732-6-1082h170c4 54 7 126 8 185h3c63-121 164-204 346-205" id="am"/><path fill="#5f6572" d="M745-142h380V0H143v-142h422v-798H246v-142h499v940zM545-1292v-192h200v192H545" id="an"/><path fill="#5f6572" d="M1048-32c-2 300-135 456-433 456-222-1-358-88-400-267l184-25c22 99 100 157 222 156 184-2 248-125 248-315 0-64 3-133-2-194C807-100 706-13 524-12c-306 0-381-228-381-537 0-318 85-550 400-550 164 0 271 83 325 202h3c1-60 3-134 12-185h171c-13 339-4 702-6 1050zM585-145c210-8 284-178 284-406 0-192-52-331-177-392-33-16-69-22-104-22-223 2-259 184-259 414 0 229 31 415 256 406" id="ao"/><g id="b"><use transform="matrix(0.010850694444444444,0,0,0.010850694444444444,0,0)" xlink:href="#ak"/><use transform="matrix(0.010850694444444444,0,0,0.010850694444444444,13.335503472222221,0)" xlink:href="#al"/><use transform="matrix(0.010850694444444444,0,0,0.010850694444444444,26.671006944444443,0)" xlink:href="#am"/><use transform="matrix(0.010850694444444444,0,0,0.010850694444444444,40.006510416666664,0)" xlink:href="#am"/><use transform="matrix(0.010850694444444444,0,0,0.010850694444444444,53.342013888888886,0)" xlink:href="#an"/><use transform="matrix(0.010850694444444444,0,0,0.010850694444444444,66.67751736111111,0)" xlink:href="#am"/><use transform="matrix(0.010850694444444444,0,0,0.010850694444444444,80.01302083333334,0)" xlink:href="#ao"/></g><path fill="#5f6572" d="M237 0v-1349h191v1193h672V0H237" id="ap"/><path fill="#5f6572" d="M615-1102c343 0 484 203 482 560-1 347-147 562-488 562-336 0-475-219-479-562-4-349 156-560 485-560zm-8 989c240 0 301-180 301-429 0-245-55-427-290-427-236 0-299 181-299 427 0 243 61 429 288 429" id="aq"/><path fill="#5f6572" d="M698-1104c312 3 392 244 392 558 0 315-82 566-392 566-169 0-277-65-331-184h-5c8 188 2 394 4 589H185V-858c0-76-1-156-6-224h175c6 52 9 120 10 178h4c58-122 150-202 330-200zm-49 991c225 0 255-203 255-433 0-225-32-419-253-419-236 0-285 192-285 441 0 237 53 411 283 411" id="ar"/><g id="c"><use transform="matrix(0.010850694444444444,0,0,0.010850694444444444,0,0)" xlink:href="#ap"/><use transform="matrix(0.010850694444444444,0,0,0.010850694444444444,13.335503472222221,0)" xlink:href="#aq"/><use transform="matrix(0.010850694444444444,0,0,0.010850694444444444,26.671006944444443,0)" xlink:href="#aq"/><use transform="matrix(0.010850694444444444,0,0,0.010850694444444444,40.006510416666664,0)" xlink:href="#ar"/></g><path fill="#3a414a" d="M650-216c90 0 157-35 208-74v-235H584v-218h544v558C1004-84 858 20 635 20 235 20 80-276 80-681c0-416 146-689 558-689 277 0 398 160 462 375l-274 54c-31-108-73-197-185-197-231 0-262 217-262 457 0 149 22 263 67 344s113 121 204 121" id="as"/><path fill="#3a414a" d="M775-193C708-75 621 20 439 20 226 20 106-93 106-306c0-251 170-341 417-346l223-4c4-143-12-264-148-264-103 0-141 58-150 153l-293-14c37-219 194-321 455-321 263 0 418 130 417 390v392c1 84 5 161 89 160 21 0 42-2 62-6v152c-57 15-108 27-180 26-145 0-202-73-217-205h-6zm-256 17c168 0 234-139 227-325-166 4-347-25-347 173 0 94 33 152 120 152" id="at"/><path fill="#3a414a" d="M934-1102c199 0 220 177 220 381V0H926c-2-260 10-533-4-785-4-72-14-138-83-138-34 0-61 27-81 81s-29 134-29 241V0H501c-2-260 9-533-5-785-4-72-13-138-82-138-46 0-65 47-80 93-21 67-30 155-30 248V0H75c-3-360 6-732-6-1082h209c6 50 3 123 8 175 36-100 83-195 216-195 135 0 166 79 196 196 42-105 93-196 236-196" id="au"/><path fill="#3a414a" d="M1113-274C1038-96 884 20 626 20c-352 0-526-209-526-566 0-358 185-556 530-556 358 0 496 251 499 615H395c5 180 68 319 245 319 102 0 186-45 208-129zM857-663c-6-177-128-307-315-247-94 30-141 121-145 247h460" id="av"/><g id="d"><use transform="matrix(0.010850694444444444,0,0,0.010850694444444444,0,0)" xlink:href="#as"/><use transform="matrix(0.010850694444444444,0,0,0.010850694444444444,13.335503472222221,0)" xlink:href="#at"/><use transform="matrix(0.010850694444444444,0,0,0.010850694444444444,26.671006944444443,0)" xlink:href="#au"/><use transform="matrix(0.010850694444444444,0,0,0.010850694444444444,40.006510416666664,0)" xlink:href="#av"/></g><path fill="#3a414a" d="M1100-543c2 361-147 563-501 563-342 0-470-199-470-548v-821h295v818c3 172 13 322 183 320 173-2 198-150 198-330v-808h295v806" id="aw"/><path fill="#3a414a" d="M427-171c3 195 2 397 2 596H148V-846c1-83-4-168-8-236h272c10 49 14 118 15 176h4c59-114 151-197 316-197 291 0 385 259 385 560 0 243-65 433-220 521-50 28-109 42-176 42-162-2-253-78-309-191zm69-661c-91 113-92 463-1 586 46 62 145 101 225 54 96-57 118-191 119-351 0-123-18-215-53-276-46-82-128-115-220-74-25 12-48 33-70 61" id="ax"/><path fill="#3a414a" d="M802-909c-3-189-2-383-2-575h281v1248c-1 83 4 168 8 236H817c-9-50-14-117-15-176h-4C735-49 651 20 482 20 191 20 97-238 97-539c0-243 66-432 221-519 50-28 108-42 175-42 162 2 253 78 309 191zm-70 658c91-113 93-462 2-584-46-61-145-100-224-53-96 56-119 190-120 349 0 123 17 214 52 275 46 82 130 115 222 74 25-12 46-33 68-61" id="ay"/><path fill="#3a414a" d="M711 13c-250 0-386-99-385-349l2-556H161v-190h181l88-282h176v282h385v190H606v530c-10 130 45 186 174 184 91-2 176-11 255-27v186C933-1 833 13 711 13" id="az"/><path fill="#3a414a" d="M794-190h353V0H118v-190h395v-702H223v-190h571v892zM513-1277v-207h281v207H513" id="aA"/><path fill="#3a414a" d="M768-1103c247 0 336 167 336 416V0H824v-619c-3-164-24-273-171-273-164 0-229 142-229 312V0H143c-4-359 9-736-8-1082h268c7 63 12 146 13 215h4c67-145 160-236 348-236" id="aB"/><path fill="#3a414a" d="M1108-33c-3 314-178 467-492 467-243 0-400-94-447-291l281-33c17 79 82 141 174 141 176 0 212-155 205-347-2-40 5-80 0-115C773-85 665-12 501-12c-288 0-377-242-377-538 0-242 65-426 223-510 50-26 108-39 175-39 160 0 253 78 307 191h5c1-58 5-125 14-174h266c-12 335-3 703-6 1049zM811-384c25-82 27-259 1-342-30-99-77-180-190-180-172 0-205 171-205 356 0 116 18 202 54 258 48 76 129 107 221 70 62-25 96-86 119-162" id="aC"/><g id="e"><use transform="matrix(0.010850694444444444,0,0,0.010850694444444444,0,0)" xlink:href="#aw"/><use transform="matrix(0.010850694444444444,0,0,0.010850694444444444,13.335503472222221,0)" xlink:href="#ax"/><use transform="matrix(0.010850694444444444,0,0,0.010850694444444444,26.671006944444443,0)" xlink:href="#ay"/><use transform="matrix(0.010850694444444444,0,0,0.010850694444444444,40.006510416666664,0)" xlink:href="#at"/><use transform="matrix(0.010850694444444444,0,0,0.010850694444444444,53.342013888888886,0)" xlink:href="#az"/><use transform="matrix(0.010850694444444444,0,0,0.010850694444444444,66.67751736111111,0)" xlink:href="#aA"/><use transform="matrix(0.010850694444444444,0,0,0.010850694444444444,80.01302083333334,0)" xlink:href="#aB"/><use transform="matrix(0.010850694444444444,0,0,0.010850694444444444,93.34852430555557,0)" xlink:href="#aC"/></g><g id="f"><use transform="matrix(0.013020833333333332,0,0,0.013020833333333332,0,0)" xlink:href="#as"/><use transform="matrix(0.013020833333333332,0,0,0.013020833333333332,16.002604166666664,0)" xlink:href="#at"/><use transform="matrix(0.013020833333333332,0,0,0.013020833333333332,32.00520833333333,0)" xlink:href="#au"/><use transform="matrix(0.013020833333333332,0,0,0.013020833333333332,48.00781249999999,0)" xlink:href="#av"/></g><path fill="#3a414a" d="M616-1349c316 3 526 118 526 426 0 301-201 442-514 447H431V0H136v-1349h480zm-25 646c164 1 254-62 254-215 0-157-99-200-262-202H431v417h160" id="aD"/><path fill="#3a414a" d="M471 20c-247 0-336-169-336-415v-687h281v607c4 148 31 285 172 285 152 0 207-150 207-312v-580h281c4 359-9 736 8 1082H816c-7-63-11-146-12-215h-5C736-76 644 20 471 20" id="aE"/><path fill="#3a414a" d="M622-916c-112 2-200 14-200 111 0 90 89 101 168 121 234 58 514 77 514 368C1104-4 751 54 434 5 267-21 161-112 121-270l247-37c24 111 113 145 252 141 114-3 226-12 226-124 0-101-103-113-192-134-225-54-490-76-490-351 0-247 201-328 458-328 245 0 413 88 457 292l-249 26c-16-98-92-133-208-131" id="aF"/><g id="g"><use transform="matrix(0.013020833333333332,0,0,0.013020833333333332,0,0)" xlink:href="#aD"/><use transform="matrix(0.013020833333333332,0,0,0.013020833333333332,16.002604166666664,0)" xlink:href="#at"/><use transform="matrix(0.013020833333333332,0,0,0.013020833333333332,32.00520833333333,0)" xlink:href="#aE"/><use transform="matrix(0.013020833333333332,0,0,0.013020833333333332,48.00781249999999,0)" xlink:href="#aF"/><use transform="matrix(0.013020833333333332,0,0,0.013020833333333332,64.01041666666666,0)" xlink:href="#av"/><use transform="matrix(0.013020833333333332,0,0,0.013020833333333332,80.01302083333331,0)" xlink:href="#ay"/></g><path fill="#3a414a" d="M655-135c108 0 195-33 260-74v-336H622v-160h479v572C981-54 839 20 639 20c-388 0-526-306-526-701 0-406 129-689 529-689 261 0 392 137 461 331l-171 56c-47-131-122-231-288-231-281 0-330 245-330 533 0 179 28 314 84 407s142 139 257 139" id="aG"/><path fill="#3a414a" d="M1000-272c3 95 12 159 101 161 21 0 41-3 59-7V-6c-44 10-86 16-139 16-141 2-191-84-197-217h-6C748-76 648 20 446 20c-207 0-318-120-318-322 0-266 194-348 454-354l236-4c12-191-40-305-222-305-140 0-220 47-232 172l-188-17c33-204 181-292 423-292 255 0 401 118 401 364v466zm-683-27c0 109 63 184 175 182 166-3 259-96 306-217 24-65 20-120 20-200-232 7-501-28-501 235" id="aH"/><path fill="#3a414a" d="M904-1102c199 0 220 177 220 381V0H956v-686c-3-114 0-215-60-264-70-33-125-4-158 71-26 56-39 140-39 252V0H531v-686c-3-114-1-215-61-264-78-41-136 24-157 84-24 69-39 159-39 259V0H105c-3-360 6-732-6-1082h149c6 50 3 123 8 175 36-100 83-195 216-195 135 0 166 79 196 196 42-105 93-196 236-196" id="aI"/><path fill="#3a414a" d="M617-1102c355 0 481 238 477 599H322c5 222 84 388 301 388 144 0 244-59 284-166l158 45C1002-72 854 20 623 20c-342 0-490-220-490-568 0-346 151-554 484-554zm291 461c-18-192-90-328-289-328-194 0-287 128-295 328h584" id="aJ"/><g id="h"><use transform="matrix(0.009765624999999998,0,0,0.009765624999999998,0,0)" xlink:href="#aG"/><use transform="matrix(0.009765624999999998,0,0,0.009765624999999998,12.001953124999998,0)" xlink:href="#aH"/><use transform="matrix(0.009765624999999998,0,0,0.009765624999999998,24.003906249999996,0)" xlink:href="#aI"/><use transform="matrix(0.009765624999999998,0,0,0.009765624999999998,36.00585937499999,0)" xlink:href="#aJ"/></g><path fill="#3a414a" d="M604-135c236 0 291-142 291-376v-838h190v859c5 340-142 510-480 510-326 0-463-164-463-492v-877h191v851c-3 222 46 363 271 363" id="aK"/><path fill="#3a414a" d="M698-1104c312 3 392 244 392 558 0 315-82 566-392 566-169 0-277-65-331-184h-5c8 188 2 394 4 589H185V-858c0-76-1-156-6-224h175c6 52 9 120 10 178h4c58-122 150-202 330-200zm-49 991c225 0 255-203 255-433 0-225-32-419-253-419-236 0-285 192-285 441 0 237 53 411 283 411" id="aL"/><path fill="#3a414a" d="M865-914c-3-187-2-380-2-570h180v1261c0 76 1 155 6 223H877c-8-49-9-116-10-174h-5C801-44 708 26 530 26c-135 0-234-46-297-139s-95-232-95-419c0-377 131-566 392-566 176 0 271 63 335 184zm-286-51c-222 0-255 197-255 427 0 229 31 425 253 425 237 0 286-195 286-441 0-238-52-411-284-411" id="aM"/><path fill="#3a414a" d="M682 16c-209 0-323-80-324-285v-671H190v-142h170l58-282h120v282h432v142H538v652c2 114 60 155 182 155 106 0 209-16 297-34v137C921-4 806 16 682 16" id="aN"/><path fill="#3a414a" d="M745-142h380V0H143v-142h422v-798H246v-142h499v940zM545-1292v-192h200v192H545" id="aO"/><path fill="#3a414a" d="M706-1102c241 0 344 136 343 381V0H868v-695c1-168-57-273-220-268-190 6-283 138-283 336V0H185c-3-360 6-732-6-1082h170c4 54 7 126 8 185h3c63-121 164-204 346-205" id="aP"/><path fill="#3a414a" d="M1048-32c-2 300-135 456-433 456-222-1-358-88-400-267l184-25c22 99 100 157 222 156 184-2 248-125 248-315 0-64 3-133-2-194C807-100 706-13 524-12c-306 0-381-228-381-537 0-318 85-550 400-550 164 0 271 83 325 202h3c1-60 3-134 12-185h171c-13 339-4 702-6 1050zM585-145c210-8 284-178 284-406 0-192-52-331-177-392-33-16-69-22-104-22-223 2-259 184-259 414 0 229 31 415 256 406" id="aQ"/><g id="i"><use transform="matrix(0.009765624999999998,0,0,0.009765624999999998,0,0)" xlink:href="#aK"/><use transform="matrix(0.009765624999999998,0,0,0.009765624999999998,12.001953124999998,0)" xlink:href="#aL"/><use transform="matrix(0.009765624999999998,0,0,0.009765624999999998,24.003906249999996,0)" xlink:href="#aM"/><use transform="matrix(0.009765624999999998,0,0,0.009765624999999998,36.00585937499999,0)" xlink:href="#aH"/><use transform="matrix(0.009765624999999998,0,0,0.009765624999999998,48.00781249999999,0)" xlink:href="#aN"/><use transform="matrix(0.009765624999999998,0,0,0.009765624999999998,60.009765624999986,0)" xlink:href="#aO"/><use transform="matrix(0.009765624999999998,0,0,0.009765624999999998,72.01171874999999,0)" xlink:href="#aP"/><use transform="matrix(0.009765624999999998,0,0,0.009765624999999998,84.01367187499999,0)" xlink:href="#aQ"/></g><path fill="#fff" d="M614-1226c-167 1-283 53-283 213 0 183 186 193 334 234 230 63 463 120 463 409 0 286-219 387-518 390C309 23 131-98 79-338l185-37c34 165 149 248 351 246 184-2 324-58 324-238 0-203-207-221-372-266-210-57-422-111-422-377 0-267 201-356 470-360 279-5 430 101 480 324l-188 33c-28-141-121-215-293-213" id="aR"/><path fill="#fff" d="M682 16c-209 0-323-80-324-285v-671H190v-142h170l58-282h120v282h432v142H538v652c2 114 60 155 182 155 106 0 209-16 297-34v137C921-4 806 16 682 16" id="aS"/><path fill="#fff" d="M1000-272c3 95 12 159 101 161 21 0 41-3 59-7V-6c-44 10-86 16-139 16-141 2-191-84-197-217h-6C748-76 648 20 446 20c-207 0-318-120-318-322 0-266 194-348 454-354l236-4c12-191-40-305-222-305-140 0-220 47-232 172l-188-17c33-204 181-292 423-292 255 0 401 118 401 364v466zm-683-27c0 109 63 184 175 182 166-3 259-96 306-217 24-65 20-120 20-200-232 7-501-28-501 235" id="aT"/><path fill="#fff" d="M839-1102c70 0 148 7 206 17v167c-112-18-268-36-363 15-129 69-208 203-208 395V0H294c-10-367 32-789-52-1082h171c21 75 41 161 48 250h5c67-152 152-270 373-270" id="aU"/><g id="j"><use transform="matrix(0.010850694444444444,0,0,0.010850694444444444,0,0)" xlink:href="#aR"/><use transform="matrix(0.010850694444444444,0,0,0.010850694444444444,13.335503472222221,0)" xlink:href="#aS"/><use transform="matrix(0.010850694444444444,0,0,0.010850694444444444,26.671006944444443,0)" xlink:href="#aT"/><use transform="matrix(0.010850694444444444,0,0,0.010850694444444444,40.006510416666664,0)" xlink:href="#aU"/><use transform="matrix(0.010850694444444444,0,0,0.010850694444444444,53.342013888888886,0)" xlink:href="#aS"/></g><path fill="#3a414a" d="M622-1349c296 4 497 117 497 404 0 282-193 424-485 431H353V0H162v-1349h460zm-15 684c195-3 320-88 320-277 0-184-129-255-328-254H353v531h254" id="aV"/><path fill="#3a414a" d="M528 20c-247 0-343-132-343-381v-721h180v686c-4 177 45 284 224 277 194-8 279-136 279-336v-627h181c3 360-6 732 6 1082H885c-4-54-7-126-8-185h-3C809-64 714 20 528 20" id="aW"/><path fill="#3a414a" d="M873-819c-18-114-119-146-250-146-163 0-245 50-245 151 0 151 170 148 294 185 182 54 388 94 388 320 0 240-189 325-439 329-245 4-410-69-454-268l159-31c24 133 136 168 295 165 144-2 270-31 270-171 0-164-195-160-331-202-167-52-350-87-350-299 0-218 173-315 413-313 220 2 373 77 412 260" id="aX"/><g id="k"><use transform="matrix(0.009765624999999998,0,0,0.009765624999999998,0,0)" xlink:href="#aV"/><use transform="matrix(0.009765624999999998,0,0,0.009765624999999998,12.001953124999998,0)" xlink:href="#aH"/><use transform="matrix(0.009765624999999998,0,0,0.009765624999999998,24.003906249999996,0)" xlink:href="#aW"/><use transform="matrix(0.009765624999999998,0,0,0.009765624999999998,36.00585937499999,0)" xlink:href="#aX"/><use transform="matrix(0.009765624999999998,0,0,0.009765624999999998,48.00781249999999,0)" xlink:href="#aJ"/></g><path fill="#3a414a" d="M285-1169c8 382 2 780 4 1169H129v-1349h237c86 239 188 461 253 720 69-258 169-481 255-720h225V0H937c2-390-5-788 6-1169-75 255-170 488-259 729H547c-90-240-185-475-262-729" id="aY"/><g id="l"><use transform="matrix(0.009765624999999998,0,0,0.009765624999999998,0,0)" xlink:href="#aY"/><use transform="matrix(0.009765624999999998,0,0,0.009765624999999998,12.001953124999998,0)" xlink:href="#aJ"/><use transform="matrix(0.009765624999999998,0,0,0.009765624999999998,24.003906249999996,0)" xlink:href="#aP"/><use transform="matrix(0.009765624999999998,0,0,0.009765624999999998,36.00585937499999,0)" xlink:href="#aW"/></g><path fill="#fff" d="M655-135c108 0 195-33 260-74v-336H622v-160h479v572C981-54 839 20 639 20c-388 0-526-306-526-701 0-406 129-689 529-689 261 0 392 137 461 331l-171 56c-47-131-122-231-288-231-281 0-330 245-330 533 0 179 28 314 84 407s142 139 257 139" id="aZ"/><path fill="#fff" d="M904-1102c199 0 220 177 220 381V0H956v-686c-3-114 0-215-60-264-70-33-125-4-158 71-26 56-39 140-39 252V0H531v-686c-3-114-1-215-61-264-78-41-136 24-157 84-24 69-39 159-39 259V0H105c-3-360 6-732-6-1082h149c6 50 3 123 8 175 36-100 83-195 216-195 135 0 166 79 196 196 42-105 93-196 236-196" id="ba"/><path fill="#fff" d="M617-1102c355 0 481 238 477 599H322c5 222 84 388 301 388 144 0 244-59 284-166l158 45C1002-72 854 20 623 20c-342 0-490-220-490-568 0-346 151-554 484-554zm291 461c-18-192-90-328-289-328-194 0-287 128-295 328h584" id="bb"/><g id="m"><use transform="matrix(0.010850694444444444,0,0,0.010850694444444444,0,0)" xlink:href="#aZ"/><use transform="matrix(0.010850694444444444,0,0,0.010850694444444444,13.335503472222221,0)" xlink:href="#aT"/><use transform="matrix(0.010850694444444444,0,0,0.010850694444444444,26.671006944444443,0)" xlink:href="#ba"/><use transform="matrix(0.010850694444444444,0,0,0.010850694444444444,40.006510416666664,0)" xlink:href="#bb"/></g><path fill="#fff" d="M622-1349c296 4 497 117 497 404 0 282-193 424-485 431H353V0H162v-1349h460zm-15 684c195-3 320-88 320-277 0-184-129-255-328-254H353v531h254" id="bc"/><path fill="#fff" d="M528 20c-247 0-343-132-343-381v-721h180v686c-4 177 45 284 224 277 194-8 279-136 279-336v-627h181c3 360-6 732 6 1082H885c-4-54-7-126-8-185h-3C809-64 714 20 528 20" id="bd"/><path fill="#fff" d="M873-819c-18-114-119-146-250-146-163 0-245 50-245 151 0 151 170 148 294 185 182 54 388 94 388 320 0 240-189 325-439 329-245 4-410-69-454-268l159-31c24 133 136 168 295 165 144-2 270-31 270-171 0-164-195-160-331-202-167-52-350-87-350-299 0-218 173-315 413-313 220 2 373 77 412 260" id="be"/><path fill="#fff" d="M865-914c-3-187-2-380-2-570h180v1261c0 76 1 155 6 223H877c-8-49-9-116-10-174h-5C801-44 708 26 530 26c-135 0-234-46-297-139s-95-232-95-419c0-377 131-566 392-566 176 0 271 63 335 184zm-286-51c-222 0-255 197-255 427 0 229 31 425 253 425 237 0 286-195 286-441 0-238-52-411-284-411" id="bf"/><g id="n"><use transform="matrix(0.010850694444444444,0,0,0.010850694444444444,0,0)" xlink:href="#bc"/><use transform="matrix(0.010850694444444444,0,0,0.010850694444444444,13.335503472222221,0)" xlink:href="#aT"/><use transform="matrix(0.010850694444444444,0,0,0.010850694444444444,26.671006944444443,0)" xlink:href="#bd"/><use transform="matrix(0.010850694444444444,0,0,0.010850694444444444,40.006510416666664,0)" xlink:href="#be"/><use transform="matrix(0.010850694444444444,0,0,0.010850694444444444,53.342013888888886,0)" xlink:href="#bb"/><use transform="matrix(0.010850694444444444,0,0,0.010850694444444444,66.67751736111111,0)" xlink:href="#bf"/></g><path fill="#fff" d="M1121-976c0 225-142 341-344 379L1177 0H957L591-575H353V0H162v-1349h482c281 3 477 100 477 373zM633-726c181-1 296-73 296-247 0-149-101-223-304-223H353v470h280" id="bg"/><g id="o"><use transform="matrix(0.010850694444444444,0,0,0.010850694444444444,0,0)" xlink:href="#bg"/><use transform="matrix(0.010850694444444444,0,0,0.010850694444444444,13.335503472222221,0)" xlink:href="#bb"/><use transform="matrix(0.010850694444444444,0,0,0.010850694444444444,26.671006944444443,0)" xlink:href="#be"/><use transform="matrix(0.010850694444444444,0,0,0.010850694444444444,40.006510416666664,0)" xlink:href="#bd"/><use transform="matrix(0.010850694444444444,0,0,0.010850694444444444,53.342013888888886,0)" xlink:href="#ba"/><use transform="matrix(0.010850694444444444,0,0,0.010850694444444444,66.67751736111111,0)" xlink:href="#bb"/></g><path fill="#fff" d="M736-142h380V0H134v-142h422v-1200H267v-142h469v1342" id="bh"/><path fill="#fff" d="M631 20c-350 0-501-215-501-562 0-355 162-560 502-560 250 0 399 118 446 323l-192 14c-23-124-109-196-262-196-242 0-305 171-305 415 1 245 61 427 304 427 151 0 248-77 267-215l190 12C1039-107 883 20 631 20" id="bi"/><g id="p"><use transform="matrix(0.010850694444444444,0,0,0.010850694444444444,0,0)" xlink:href="#aR"/><use transform="matrix(0.010850694444444444,0,0,0.010850694444444444,13.335503472222221,0)" xlink:href="#bb"/><use transform="matrix(0.010850694444444444,0,0,0.010850694444444444,26.671006944444443,0)" xlink:href="#bh"/><use transform="matrix(0.010850694444444444,0,0,0.010850694444444444,40.006510416666664,0)" xlink:href="#bb"/><use transform="matrix(0.010850694444444444,0,0,0.010850694444444444,53.342013888888886,0)" xlink:href="#bi"/><use transform="matrix(0.010850694444444444,0,0,0.010850694444444444,66.67751736111111,0)" xlink:href="#aS"/><use transform="matrix(0.010850694444444444,0,0,0.010850694444444444,80.01302083333334,0)" xlink:href="#bb"/><use transform="matrix(0.010850694444444444,0,0,0.010850694444444444,93.34852430555557,0)" xlink:href="#bf"/></g><path fill="#3a414a" d="M102-681c0-398 126-689 513-689 165 0 291 58 379 174s132 287 132 515c-1 318-88 554-298 657-123 61-317 58-438-3-206-104-288-341-288-654zm749 406c94-160 97-656-5-807-57-85-130-132-231-132-104 0-178 47-234 132-101 153-99 655 1 809 57 89 130 138 232 138 109 0 184-49 237-140" id="bj"/><path fill="#3a414a" d="M615-1102c343 0 484 203 482 560-1 347-147 562-488 562-336 0-475-219-479-562-4-349 156-560 485-560zm-8 989c240 0 301-180 301-429 0-245-55-427-290-427-236 0-299 181-299 427 0 243 61 429 288 429" id="bk"/><g id="q"><use transform="matrix(0.009765624999999998,0,0,0.009765624999999998,0,0)" xlink:href="#bj"/><use transform="matrix(0.009765624999999998,0,0,0.009765624999999998,12.001953124999998,0)" xlink:href="#aL"/><use transform="matrix(0.009765624999999998,0,0,0.009765624999999998,24.003906249999996,0)" xlink:href="#aN"/><use transform="matrix(0.009765624999999998,0,0,0.009765624999999998,36.00585937499999,0)" xlink:href="#aO"/><use transform="matrix(0.009765624999999998,0,0,0.009765624999999998,48.00781249999999,0)" xlink:href="#bk"/><use transform="matrix(0.009765624999999998,0,0,0.009765624999999998,60.009765624999986,0)" xlink:href="#aP"/><use transform="matrix(0.009765624999999998,0,0,0.009765624999999998,72.01171874999999,0)" xlink:href="#aX"/></g><g id="r"><use transform="matrix(0.009765624999999998,0,0,0.009765624999999998,0,0)" xlink:href="#aY"/><use transform="matrix(0.009765624999999998,0,0,0.009765624999999998,12.001953124999998,0)" xlink:href="#aJ"/><use transform="matrix(0.009765624999999998,0,0,0.009765624999999998,24.003906249999996,0)" xlink:href="#aP"/><use transform="matrix(0.009765624999999998,0,0,0.009765624999999998,36.00585937499999,0)" xlink:href="#aW"/></g><path fill="#fff" d="M102-681c0-398 126-689 513-689 165 0 291 58 379 174s132 287 132 515c-1 318-88 554-298 657-123 61-317 58-438-3-206-104-288-341-288-654zm749 406c94-160 97-656-5-807-57-85-130-132-231-132-104 0-178 47-234 132-101 153-99 655 1 809 57 89 130 138 232 138 109 0 184-49 237-140" id="bl"/><path fill="#fff" d="M698-1104c312 3 392 244 392 558 0 315-82 566-392 566-169 0-277-65-331-184h-5c8 188 2 394 4 589H185V-858c0-76-1-156-6-224h175c6 52 9 120 10 178h4c58-122 150-202 330-200zm-49 991c225 0 255-203 255-433 0-225-32-419-253-419-236 0-285 192-285 441 0 237 53 411 283 411" id="bm"/><path fill="#fff" d="M745-142h380V0H143v-142h422v-798H246v-142h499v940zM545-1292v-192h200v192H545" id="bn"/><path fill="#fff" d="M615-1102c343 0 484 203 482 560-1 347-147 562-488 562-336 0-475-219-479-562-4-349 156-560 485-560zm-8 989c240 0 301-180 301-429 0-245-55-427-290-427-236 0-299 181-299 427 0 243 61 429 288 429" id="bo"/><path fill="#fff" d="M706-1102c241 0 344 136 343 381V0H868v-695c1-168-57-273-220-268-190 6-283 138-283 336V0H185c-3-360 6-732-6-1082h170c4 54 7 126 8 185h3c63-121 164-204 346-205" id="bp"/><g id="s"><use transform="matrix(0.010850694444444444,0,0,0.010850694444444444,0,0)" xlink:href="#bl"/><use transform="matrix(0.010850694444444444,0,0,0.010850694444444444,13.335503472222221,0)" xlink:href="#bm"/><use transform="matrix(0.010850694444444444,0,0,0.010850694444444444,26.671006944444443,0)" xlink:href="#aS"/><use transform="matrix(0.010850694444444444,0,0,0.010850694444444444,40.006510416666664,0)" xlink:href="#bn"/><use transform="matrix(0.010850694444444444,0,0,0.010850694444444444,53.342013888888886,0)" xlink:href="#bo"/><use transform="matrix(0.010850694444444444,0,0,0.010850694444444444,66.67751736111111,0)" xlink:href="#bp"/><use transform="matrix(0.010850694444444444,0,0,0.010850694444444444,80.01302083333334,0)" xlink:href="#be"/></g><path fill="#3a414a" d="M875 0v-623H353V0H162v-1349h191v566h522v-566h191V0H875" id="bq"/><path fill="#3a414a" d="M736-142h380V0H134v-142h422v-1200H267v-142h469v1342" id="br"/><g id="t"><use transform="matrix(0.009765624999999998,0,0,0.009765624999999998,0,0)" xlink:href="#bq"/><use transform="matrix(0.009765624999999998,0,0,0.009765624999999998,12.001953124999998,0)" xlink:href="#aJ"/><use transform="matrix(0.009765624999999998,0,0,0.009765624999999998,24.003906249999996,0)" xlink:href="#br"/><use transform="matrix(0.009765624999999998,0,0,0.009765624999999998,36.00585937499999,0)" xlink:href="#aL"/></g><path fill="#fff" d="M875 0v-623H353V0H162v-1349h191v566h522v-566h191V0H875" id="bs"/><g id="u"><use transform="matrix(0.010850694444444444,0,0,0.010850694444444444,0,0)" xlink:href="#bs"/><use transform="matrix(0.010850694444444444,0,0,0.010850694444444444,13.335503472222221,0)" xlink:href="#bb"/><use transform="matrix(0.010850694444444444,0,0,0.010850694444444444,26.671006944444443,0)" xlink:href="#bh"/><use transform="matrix(0.010850694444444444,0,0,0.010850694444444444,40.006510416666664,0)" xlink:href="#bm"/></g><path fill="#fff" d="M162 0v-1349h919v156H353v422h668v154H353v461h769V0H162" id="bt"/><path fill="#fff" d="M932 0L611-444 288 0H94l415-556-397-526h199l300 421 298-421h201L713-558 1133 0H932" id="bu"/><g id="v"><use transform="matrix(0.010850694444444442,0,0,0.010850694444444442,0,0)" xlink:href="#bt"/><use transform="matrix(0.010850694444444442,0,0,0.010850694444444442,13.33550347222222,0)" xlink:href="#bu"/><use transform="matrix(0.010850694444444442,0,0,0.010850694444444442,26.67100694444444,0)" xlink:href="#bn"/><use transform="matrix(0.010850694444444442,0,0,0.010850694444444442,40.00651041666666,0)" xlink:href="#aS"/></g><g id="w"><use transform="matrix(0.010850694444444442,0,0,0.010850694444444442,0,0)" xlink:href="#aS"/><use transform="matrix(0.010850694444444442,0,0,0.010850694444444442,13.33550347222222,0)" xlink:href="#bo"/></g><path fill="#fff" d="M285-1169c8 382 2 780 4 1169H129v-1349h237c86 239 188 461 253 720 69-258 169-481 255-720h225V0H937c2-390-5-788 6-1169-75 255-170 488-259 729H547c-90-240-185-475-262-729" id="bv"/><g id="x"><use transform="matrix(0.010850694444444442,0,0,0.010850694444444442,0,0)" xlink:href="#bv"/><use transform="matrix(0.010850694444444442,0,0,0.010850694444444442,13.33550347222222,0)" xlink:href="#aT"/><use transform="matrix(0.010850694444444442,0,0,0.010850694444444442,26.67100694444444,0)" xlink:href="#bn"/><use transform="matrix(0.010850694444444442,0,0,0.010850694444444442,40.00651041666666,0)" xlink:href="#bp"/></g><g id="y"><use transform="matrix(0.010850694444444442,0,0,0.010850694444444442,0,0)" xlink:href="#bv"/><use transform="matrix(0.010850694444444442,0,0,0.010850694444444442,13.33550347222222,0)" xlink:href="#bb"/><use transform="matrix(0.010850694444444442,0,0,0.010850694444444442,26.67100694444444,0)" xlink:href="#bp"/><use transform="matrix(0.010850694444444442,0,0,0.010850694444444442,40.00651041666666,0)" xlink:href="#bd"/></g><g id="z"><use transform="matrix(0.010850694444444442,0,0,0.010850694444444442,0,0)" xlink:href="#aR"/><use transform="matrix(0.010850694444444442,0,0,0.010850694444444442,13.33550347222222,0)" xlink:href="#bb"/><use transform="matrix(0.010850694444444442,0,0,0.010850694444444442,26.67100694444444,0)" xlink:href="#bh"/><use transform="matrix(0.010850694444444442,0,0,0.010850694444444442,40.00651041666666,0)" xlink:href="#bb"/><use transform="matrix(0.010850694444444442,0,0,0.010850694444444442,53.34201388888888,0)" xlink:href="#bi"/><use transform="matrix(0.010850694444444442,0,0,0.010850694444444442,66.6775173611111,0)" xlink:href="#aS"/><use transform="matrix(0.010850694444444442,0,0,0.010850694444444442,80.01302083333331,0)" xlink:href="#bb"/><use transform="matrix(0.010850694444444442,0,0,0.010850694444444442,93.34852430555554,0)" xlink:href="#bf"/></g><path fill="#3a414a" d="M473-1349c438-1 655 221 652 661C1122-268 945-8 532 0H162v-1349h311zm42 1193c308-4 416-205 418-532 2-330-131-509-459-505H353v1037h162" id="bw"/><path fill="#3a414a" d="M168 279c222 39 310-114 368-290L66-1082h192c120 299 249 590 362 896 115-301 235-597 351-896h190L705 0c-65 164-130 320-275 396-67 36-177 35-262 18V279" id="bx"/><g id="A"><use transform="matrix(0.009765624999999998,0,0,0.009765624999999998,0,0)" xlink:href="#bw"/><use transform="matrix(0.009765624999999998,0,0,0.009765624999999998,12.001953124999998,0)" xlink:href="#aO"/><use transform="matrix(0.009765624999999998,0,0,0.009765624999999998,24.003906249999996,0)" xlink:href="#aX"/><use transform="matrix(0.009765624999999998,0,0,0.009765624999999998,36.00585937499999,0)" xlink:href="#aL"/><use transform="matrix(0.009765624999999998,0,0,0.009765624999999998,48.00781249999999,0)" xlink:href="#br"/><use transform="matrix(0.009765624999999998,0,0,0.009765624999999998,60.009765624999986,0)" xlink:href="#aH"/><use transform="matrix(0.009765624999999998,0,0,0.009765624999999998,72.01171874999999,0)" xlink:href="#bx"/></g><path fill="#3a414a" d="M614-1226c-167 1-283 53-283 213 0 183 186 193 334 234 230 63 463 120 463 409 0 286-219 387-518 390C309 23 131-98 79-338l185-37c34 165 149 248 351 246 184-2 324-58 324-238 0-203-207-221-372-266-210-57-422-111-422-377 0-267 201-356 470-360 279-5 430 101 480 324l-188 33c-28-141-121-215-293-213" id="by"/><g id="B"><use transform="matrix(0.009765624999999998,0,0,0.009765624999999998,0,0)" xlink:href="#by"/><use transform="matrix(0.009765624999999998,0,0,0.009765624999999998,12.001953124999998,0)" xlink:href="#aJ"/><use transform="matrix(0.009765624999999998,0,0,0.009765624999999998,24.003906249999996,0)" xlink:href="#aN"/><use transform="matrix(0.009765624999999998,0,0,0.009765624999999998,36.00585937499999,0)" xlink:href="#aN"/><use transform="matrix(0.009765624999999998,0,0,0.009765624999999998,48.00781249999999,0)" xlink:href="#aO"/><use transform="matrix(0.009765624999999998,0,0,0.009765624999999998,60.009765624999986,0)" xlink:href="#aP"/><use transform="matrix(0.009765624999999998,0,0,0.009765624999999998,72.01171874999999,0)" xlink:href="#aQ"/><use transform="matrix(0.009765624999999998,0,0,0.009765624999999998,84.01367187499999,0)" xlink:href="#aX"/></g><path fill="#3a414a" d="M1034 0L896-382H333L196 0H0l510-1349h217L1228 0h-194zM847-531c-77-225-157-447-231-674-69 231-154 451-232 674h463" id="bz"/><g id="C"><use transform="matrix(0.009765624999999998,0,0,0.009765624999999998,0,0)" xlink:href="#bz"/><use transform="matrix(0.009765624999999998,0,0,0.009765624999999998,12.001953124999998,0)" xlink:href="#aW"/><use transform="matrix(0.009765624999999998,0,0,0.009765624999999998,24.003906249999996,0)" xlink:href="#aM"/><use transform="matrix(0.009765624999999998,0,0,0.009765624999999998,36.00585937499999,0)" xlink:href="#aO"/><use transform="matrix(0.009765624999999998,0,0,0.009765624999999998,48.00781249999999,0)" xlink:href="#bk"/></g><path fill="#3a414a" d="M1003 0L516-638 353-469V0H162v-1349h191v673l572-673h225L646-777 1227 0h-224" id="bA"/><g id="D"><use transform="matrix(0.009765624999999998,0,0,0.009765624999999998,0,0)" xlink:href="#bA"/><use transform="matrix(0.009765624999999998,0,0,0.009765624999999998,12.001953124999998,0)" xlink:href="#aJ"/><use transform="matrix(0.009765624999999998,0,0,0.009765624999999998,24.003906249999996,0)" xlink:href="#bx"/></g><path fill="#3a414a" d="M802-711c201 25 350 118 350 331C1152-95 921 0 634 0H162v-1349c401 9 908-74 908 327 0 184-111 275-268 311zm-224-69c174-2 300-51 300-218 0-163-124-198-302-198H353v416h225zM353-153c281-2 612 44 606-244-5-271-329-233-606-234v478" id="bB"/><g id="E"><use transform="matrix(0.009765624999999998,0,0,0.009765624999999998,0,0)" xlink:href="#bB"/><use transform="matrix(0.009765624999999998,0,0,0.009765624999999998,12.001953124999998,0)" xlink:href="#aO"/><use transform="matrix(0.009765624999999998,0,0,0.009765624999999998,24.003906249999996,0)" xlink:href="#aP"/><use transform="matrix(0.009765624999999998,0,0,0.009765624999999998,36.00585937499999,0)" xlink:href="#aM"/><use transform="matrix(0.009765624999999998,0,0,0.009765624999999998,48.00781249999999,0)" xlink:href="#aO"/><use transform="matrix(0.009765624999999998,0,0,0.009765624999999998,60.009765624999986,0)" xlink:href="#aP"/><use transform="matrix(0.009765624999999998,0,0,0.009765624999999998,72.01171874999999,0)" xlink:href="#aQ"/><use transform="matrix(0.009765624999999998,0,0,0.009765624999999998,84.01367187499999,0)" xlink:href="#aX"/></g><g id="F"><use transform="matrix(0.010850694444444444,0,0,0.010850694444444444,0,0)" xlink:href="#bl"/><use transform="matrix(0.010850694444444444,0,0,0.010850694444444444,13.335503472222221,0)" xlink:href="#bp"/></g><path fill="#fff" d="M473-1349c438-1 655 221 652 661C1122-268 945-8 532 0H162v-1349h311zm42 1193c308-4 416-205 418-532 2-330-131-509-459-505H353v1037h162" id="bC"/><path fill="#fff" d="M168 279c222 39 310-114 368-290L66-1082h192c120 299 249 590 362 896 115-301 235-597 351-896h190L705 0c-65 164-130 320-275 396-67 36-177 35-262 18V279" id="bD"/><g id="G"><use transform="matrix(0.010850694444444444,0,0,0.010850694444444444,0,0)" xlink:href="#bC"/><use transform="matrix(0.010850694444444444,0,0,0.010850694444444444,13.335503472222221,0)" xlink:href="#bn"/><use transform="matrix(0.010850694444444444,0,0,0.010850694444444444,26.671006944444443,0)" xlink:href="#be"/><use transform="matrix(0.010850694444444444,0,0,0.010850694444444444,40.006510416666664,0)" xlink:href="#bm"/><use transform="matrix(0.010850694444444444,0,0,0.010850694444444444,53.342013888888886,0)" xlink:href="#bh"/><use transform="matrix(0.010850694444444444,0,0,0.010850694444444444,66.67751736111111,0)" xlink:href="#aT"/><use transform="matrix(0.010850694444444444,0,0,0.010850694444444444,80.01302083333334,0)" xlink:href="#bD"/></g><path fill="#fff" d="M650-1214c-281 0-336 244-336 533 0 295 60 546 347 546 188 0 263-142 322-282l159 65C1058-155 935 20 659 20c-401 0-546-295-546-701 0-407 135-689 536-689 264 0 391 146 466 335l-168 65c-47-129-127-244-297-244" id="bE"/><path fill="#fff" d="M914 0L548-499l-132 98V0H236v-1484h180v927l475-525h211L663-617 1125 0H914" id="bF"/><g id="H"><use transform="matrix(0.010850694444444444,0,0,0.010850694444444444,0,0)" xlink:href="#bE"/><use transform="matrix(0.010850694444444444,0,0,0.010850694444444444,13.335503472222221,0)" xlink:href="#bh"/><use transform="matrix(0.010850694444444444,0,0,0.010850694444444444,26.671006944444443,0)" xlink:href="#bn"/><use transform="matrix(0.010850694444444444,0,0,0.010850694444444444,40.006510416666664,0)" xlink:href="#bi"/><use transform="matrix(0.010850694444444444,0,0,0.010850694444444444,53.342013888888886,0)" xlink:href="#bF"/><use transform="matrix(0.010850694444444444,0,0,0.010850694444444444,66.67751736111111,0)" xlink:href="#bb"/><use transform="matrix(0.010850694444444444,0,0,0.010850694444444444,80.01302083333334,0)" xlink:href="#bf"/></g><path fill="#fff" d="M1003 0L516-638 353-469V0H162v-1349h191v673l572-673h225L646-777 1227 0h-224" id="bG"/><g id="I"><use transform="matrix(0.010850694444444444,0,0,0.010850694444444444,0,0)" xlink:href="#bG"/><use transform="matrix(0.010850694444444444,0,0,0.010850694444444444,13.335503472222221,0)" xlink:href="#bb"/><use transform="matrix(0.010850694444444444,0,0,0.010850694444444444,26.671006944444443,0)" xlink:href="#bD"/></g><path fill="#fff" d="M802-711c201 25 350 118 350 331C1152-95 921 0 634 0H162v-1349c401 9 908-74 908 327 0 184-111 275-268 311zm-224-69c174-2 300-51 300-218 0-163-124-198-302-198H353v416h225zM353-153c281-2 612 44 606-244-5-271-329-233-606-234v478" id="bH"/><path fill="#fff" d="M1048-32c-2 300-135 456-433 456-222-1-358-88-400-267l184-25c22 99 100 157 222 156 184-2 248-125 248-315 0-64 3-133-2-194C807-100 706-13 524-12c-306 0-381-228-381-537 0-318 85-550 400-550 164 0 271 83 325 202h3c1-60 3-134 12-185h171c-13 339-4 702-6 1050zM585-145c210-8 284-178 284-406 0-192-52-331-177-392-33-16-69-22-104-22-223 2-259 184-259 414 0 229 31 415 256 406" id="bI"/><g id="J"><use transform="matrix(0.010850694444444444,0,0,0.010850694444444444,0,0)" xlink:href="#bH"/><use transform="matrix(0.010850694444444444,0,0,0.010850694444444444,13.335503472222221,0)" xlink:href="#bn"/><use transform="matrix(0.010850694444444444,0,0,0.010850694444444444,26.671006944444443,0)" xlink:href="#bp"/><use transform="matrix(0.010850694444444444,0,0,0.010850694444444444,40.006510416666664,0)" xlink:href="#bf"/><use transform="matrix(0.010850694444444444,0,0,0.010850694444444444,53.342013888888886,0)" xlink:href="#bn"/><use transform="matrix(0.010850694444444444,0,0,0.010850694444444444,66.67751736111111,0)" xlink:href="#bp"/><use transform="matrix(0.010850694444444444,0,0,0.010850694444444444,80.01302083333334,0)" xlink:href="#bI"/><use transform="matrix(0.010850694444444444,0,0,0.010850694444444444,93.34852430555557,0)" xlink:href="#be"/></g><path fill="#fff" d="M1034 0L896-382H333L196 0H0l510-1349h217L1228 0h-194zM847-531c-77-225-157-447-231-674-69 231-154 451-232 674h463" id="bJ"/><g id="K"><use transform="matrix(0.010850694444444444,0,0,0.010850694444444444,0,0)" xlink:href="#bJ"/><use transform="matrix(0.010850694444444444,0,0,0.010850694444444444,13.335503472222221,0)" xlink:href="#bd"/><use transform="matrix(0.010850694444444444,0,0,0.010850694444444444,26.671006944444443,0)" xlink:href="#bf"/><use transform="matrix(0.010850694444444444,0,0,0.010850694444444444,40.006510416666664,0)" xlink:href="#bn"/><use transform="matrix(0.010850694444444444,0,0,0.010850694444444444,53.342013888888886,0)" xlink:href="#bo"/></g><g id="L"><use transform="matrix(0.010850694444444444,0,0,0.010850694444444444,0,0)" xlink:href="#bH"/><use transform="matrix(0.010850694444444444,0,0,0.010850694444444444,13.335503472222221,0)" xlink:href="#aT"/><use transform="matrix(0.010850694444444444,0,0,0.010850694444444444,26.671006944444443,0)" xlink:href="#bi"/><use transform="matrix(0.010850694444444444,0,0,0.010850694444444444,40.006510416666664,0)" xlink:href="#bF"/></g><g id="M"><use transform="matrix(0.010850694444444444,0,0,0.010850694444444444,0,0)" xlink:href="#bH"/><use transform="matrix(0.010850694444444444,0,0,0.010850694444444444,13.335503472222221,0)" xlink:href="#aT"/><use transform="matrix(0.010850694444444444,0,0,0.010850694444444444,26.671006944444443,0)" xlink:href="#bi"/><use transform="matrix(0.010850694444444444,0,0,0.010850694444444444,40.006510416666664,0)" xlink:href="#bF"/></g><g id="N"><use transform="matrix(0.010850694444444444,0,0,0.010850694444444444,0,0)" xlink:href="#bJ"/><use transform="matrix(0.010850694444444444,0,0,0.010850694444444444,13.335503472222221,0)" xlink:href="#bm"/><use transform="matrix(0.010850694444444444,0,0,0.010850694444444444,26.671006944444443,0)" xlink:href="#bm"/><use transform="matrix(0.010850694444444444,0,0,0.010850694444444444,40.006510416666664,0)" xlink:href="#bh"/><use transform="matrix(0.010850694444444444,0,0,0.010850694444444444,53.342013888888886,0)" xlink:href="#bD"/></g><g id="O"><use transform="matrix(0.010850694444444444,0,0,0.010850694444444444,0,0)" xlink:href="#bg"/><use transform="matrix(0.010850694444444444,0,0,0.010850694444444444,13.335503472222221,0)" xlink:href="#bb"/><use transform="matrix(0.010850694444444444,0,0,0.010850694444444444,26.671006944444443,0)" xlink:href="#be"/><use transform="matrix(0.010850694444444444,0,0,0.010850694444444444,40.006510416666664,0)" xlink:href="#bb"/><use transform="matrix(0.010850694444444444,0,0,0.010850694444444444,53.342013888888886,0)" xlink:href="#aS"/></g><path fill="#3a414a" d="M650-1214c-281 0-336 244-336 533 0 295 60 546 347 546 188 0 263-142 322-282l159 65C1058-155 935 20 659 20c-401 0-546-295-546-701 0-407 135-689 536-689 264 0 391 146 466 335l-168 65c-47-129-127-244-297-244" id="bK"/><path fill="#3a414a" d="M839-1102c70 0 148 7 206 17v167c-112-18-268-36-363 15-129 69-208 203-208 395V0H294c-10-367 32-789-52-1082h171c21 75 41 161 48 250h5c67-152 152-270 373-270" id="bL"/><g id="P"><use transform="matrix(0.009765624999999998,0,0,0.009765624999999998,0,0)" xlink:href="#bK"/><use transform="matrix(0.009765624999999998,0,0,0.009765624999999998,12.001953124999998,0)" xlink:href="#bk"/><use transform="matrix(0.009765624999999998,0,0,0.009765624999999998,24.003906249999996,0)" xlink:href="#aP"/><use transform="matrix(0.009765624999999998,0,0,0.009765624999999998,36.00585937499999,0)" xlink:href="#aN"/><use transform="matrix(0.009765624999999998,0,0,0.009765624999999998,48.00781249999999,0)" xlink:href="#bL"/><use transform="matrix(0.009765624999999998,0,0,0.009765624999999998,60.009765624999986,0)" xlink:href="#bk"/><use transform="matrix(0.009765624999999998,0,0,0.009765624999999998,72.01171874999999,0)" xlink:href="#br"/><use transform="matrix(0.009765624999999998,0,0,0.009765624999999998,84.01367187499999,0)" xlink:href="#aX"/></g><g id="Q"><use transform="matrix(0.009765624999999998,0,0,0.009765624999999998,0,0)" xlink:href="#bq"/><use transform="matrix(0.009765624999999998,0,0,0.009765624999999998,12.001953124999998,0)" xlink:href="#aJ"/><use transform="matrix(0.009765624999999998,0,0,0.009765624999999998,24.003906249999996,0)" xlink:href="#br"/><use transform="matrix(0.009765624999999998,0,0,0.009765624999999998,36.00585937499999,0)" xlink:href="#aL"/></g><path fill="#3a414a" d="M365-904c58-129 161-200 334-200 130 0 228 46 293 138s98 233 98 420c0 189-34 331-102 425S824 20 698 20c-170 0-275-64-336-184 0 55-3 116-9 164H179c5-68 6-147 6-223v-1261h180c-2 193 4 394-4 580h4zm283 791c221 0 256-197 256-427 0-229-34-425-254-425-236 0-285 195-285 441 0 237 53 411 283 411" id="bM"/><path fill="#3a414a" d="M390 276c167 0 266-82 266-251v-965H249v-142h587V28c-4 270-165 397-431 397-107 0-208-16-288-43V242c80 18 173 34 273 34zm246-1568v-192h200v192H636" id="bN"/><path fill="#3a414a" d="M631 20c-350 0-501-215-501-562 0-355 162-560 502-560 250 0 399 118 446 323l-192 14c-23-124-109-196-262-196-242 0-305 171-305 415 1 245 61 427 304 427 151 0 248-77 267-215l190 12C1039-107 883 20 631 20" id="bO"/><path fill="#3a414a" d="M715 0H502L69-1082h202c94 253 197 500 285 758 19 57 36 126 52 183 96-335 234-626 350-941h201" id="bP"/><g id="R"><use transform="matrix(0.009765624999999998,0,0,0.009765624999999998,0,0)" xlink:href="#bj"/><use transform="matrix(0.009765624999999998,0,0,0.009765624999999998,12.001953124999998,0)" xlink:href="#bM"/><use transform="matrix(0.009765624999999998,0,0,0.009765624999999998,24.003906249999996,0)" xlink:href="#bN"/><use transform="matrix(0.009765624999999998,0,0,0.009765624999999998,36.00585937499999,0)" xlink:href="#aJ"/><use transform="matrix(0.009765624999999998,0,0,0.009765624999999998,48.00781249999999,0)" xlink:href="#bO"/><use transform="matrix(0.009765624999999998,0,0,0.009765624999999998,60.009765624999986,0)" xlink:href="#aN"/><use transform="matrix(0.009765624999999998,0,0,0.009765624999999998,72.01171874999999,0)" xlink:href="#aO"/><use transform="matrix(0.009765624999999998,0,0,0.009765624999999998,84.01367187499999,0)" xlink:href="#bP"/><use transform="matrix(0.009765624999999998,0,0,0.009765624999999998,96.01562499999999,0)" xlink:href="#aJ"/></g><g id="S"><use transform="matrix(0.009765624999999998,0,0,0.009765624999999998,0,0)" xlink:href="#bz"/><use transform="matrix(0.009765624999999998,0,0,0.009765624999999998,12.001953124999998,0)" xlink:href="#bM"/><use transform="matrix(0.009765624999999998,0,0,0.009765624999999998,24.003906249999996,0)" xlink:href="#aO"/><use transform="matrix(0.009765624999999998,0,0,0.009765624999999998,36.00585937499999,0)" xlink:href="#br"/><use transform="matrix(0.009765624999999998,0,0,0.009765624999999998,48.00781249999999,0)" xlink:href="#aO"/><use transform="matrix(0.009765624999999998,0,0,0.009765624999999998,60.009765624999986,0)" xlink:href="#aN"/><use transform="matrix(0.009765624999999998,0,0,0.009765624999999998,72.01171874999999,0)" xlink:href="#aO"/><use transform="matrix(0.009765624999999998,0,0,0.009765624999999998,84.01367187499999,0)" xlink:href="#aJ"/><use transform="matrix(0.009765624999999998,0,0,0.009765624999999998,96.01562499999999,0)" xlink:href="#aX"/></g><g id="T"><use transform="matrix(0.010850694444444444,0,0,0.010850694444444444,0,0)" xlink:href="#bE"/><use transform="matrix(0.010850694444444444,0,0,0.010850694444444444,13.335503472222221,0)" xlink:href="#bo"/><use transform="matrix(0.010850694444444444,0,0,0.010850694444444444,26.671006944444443,0)" xlink:href="#bp"/><use transform="matrix(0.010850694444444444,0,0,0.010850694444444444,40.006510416666664,0)" xlink:href="#aS"/><use transform="matrix(0.010850694444444444,0,0,0.010850694444444444,53.342013888888886,0)" xlink:href="#aU"/><use transform="matrix(0.010850694444444444,0,0,0.010850694444444444,66.67751736111111,0)" xlink:href="#bo"/><use transform="matrix(0.010850694444444444,0,0,0.010850694444444444,80.01302083333334,0)" xlink:href="#bh"/><use transform="matrix(0.010850694444444444,0,0,0.010850694444444444,93.34852430555557,0)" xlink:href="#be"/></g><g id="U"><use transform="matrix(0.010850694444444444,0,0,0.010850694444444444,0,0)" xlink:href="#bs"/><use transform="matrix(0.010850694444444444,0,0,0.010850694444444444,13.335503472222221,0)" xlink:href="#bb"/><use transform="matrix(0.010850694444444444,0,0,0.010850694444444444,26.671006944444443,0)" xlink:href="#bh"/><use transform="matrix(0.010850694444444444,0,0,0.010850694444444444,40.006510416666664,0)" xlink:href="#bm"/></g><g id="V"><use transform="matrix(0.010850694444444444,0,0,0.010850694444444444,0,0)" xlink:href="#aR"/><use transform="matrix(0.010850694444444444,0,0,0.010850694444444444,13.335503472222221,0)" xlink:href="#bb"/><use transform="matrix(0.010850694444444444,0,0,0.010850694444444444,26.671006944444443,0)" xlink:href="#bh"/><use transform="matrix(0.010850694444444444,0,0,0.010850694444444444,40.006510416666664,0)" xlink:href="#bb"/><use transform="matrix(0.010850694444444444,0,0,0.010850694444444444,53.342013888888886,0)" xlink:href="#bi"/><use transform="matrix(0.010850694444444444,0,0,0.010850694444444444,66.67751736111111,0)" xlink:href="#aS"/><use transform="matrix(0.010850694444444444,0,0,0.010850694444444444,80.01302083333334,0)" xlink:href="#bb"/><use transform="matrix(0.010850694444444444,0,0,0.010850694444444444,93.34852430555557,0)" xlink:href="#bf"/></g><path fill="#fff" d="M365-904c58-129 161-200 334-200 130 0 228 46 293 138s98 233 98 420c0 189-34 331-102 425S824 20 698 20c-170 0-275-64-336-184 0 55-3 116-9 164H179c5-68 6-147 6-223v-1261h180c-2 193 4 394-4 580h4zm283 791c221 0 256-197 256-427 0-229-34-425-254-425-236 0-285 195-285 441 0 237 53 411 283 411" id="bQ"/><g id="W"><use transform="matrix(0.010850694444444444,0,0,0.010850694444444444,0,0)" xlink:href="#bJ"/><use transform="matrix(0.010850694444444444,0,0,0.010850694444444444,13.335503472222221,0)" xlink:href="#bQ"/><use transform="matrix(0.010850694444444444,0,0,0.010850694444444444,26.671006944444443,0)" xlink:href="#bn"/><use transform="matrix(0.010850694444444444,0,0,0.010850694444444444,40.006510416666664,0)" xlink:href="#bh"/><use transform="matrix(0.010850694444444444,0,0,0.010850694444444444,53.342013888888886,0)" xlink:href="#bn"/><use transform="matrix(0.010850694444444444,0,0,0.010850694444444444,66.67751736111111,0)" xlink:href="#aS"/><use transform="matrix(0.010850694444444444,0,0,0.010850694444444444,80.01302083333334,0)" xlink:href="#bn"/><use transform="matrix(0.010850694444444444,0,0,0.010850694444444444,93.34852430555557,0)" xlink:href="#bb"/><use transform="matrix(0.010850694444444444,0,0,0.010850694444444444,106.6840277777778,0)" xlink:href="#be"/></g><path fill="#fff" d="M390 276c167 0 266-82 266-251v-965H249v-142h587V28c-4 270-165 397-431 397-107 0-208-16-288-43V242c80 18 173 34 273 34zm246-1568v-192h200v192H636" id="bR"/><path fill="#fff" d="M715 0H502L69-1082h202c94 253 197 500 285 758 19 57 36 126 52 183 96-335 234-626 350-941h201" id="bS"/><g id="X"><use transform="matrix(0.010850694444444444,0,0,0.010850694444444444,0,0)" xlink:href="#bl"/><use transform="matrix(0.010850694444444444,0,0,0.010850694444444444,13.335503472222221,0)" xlink:href="#bQ"/><use transform="matrix(0.010850694444444444,0,0,0.010850694444444444,26.671006944444443,0)" xlink:href="#bR"/><use transform="matrix(0.010850694444444444,0,0,0.010850694444444444,40.006510416666664,0)" xlink:href="#bb"/><use transform="matrix(0.010850694444444444,0,0,0.010850694444444444,53.342013888888886,0)" xlink:href="#bi"/><use transform="matrix(0.010850694444444444,0,0,0.010850694444444444,66.67751736111111,0)" xlink:href="#aS"/><use transform="matrix(0.010850694444444444,0,0,0.010850694444444444,80.01302083333334,0)" xlink:href="#bn"/><use transform="matrix(0.010850694444444444,0,0,0.010850694444444444,93.34852430555557,0)" xlink:href="#bS"/><use transform="matrix(0.010850694444444444,0,0,0.010850694444444444,106.6840277777778,0)" xlink:href="#bb"/></g><g id="Y"><use transform="matrix(0.010850694444444444,0,0,0.010850694444444444,0,0)" xlink:href="#bg"/><use transform="matrix(0.010850694444444444,0,0,0.010850694444444444,13.335503472222221,0)" xlink:href="#bb"/><use transform="matrix(0.010850694444444444,0,0,0.010850694444444444,26.671006944444443,0)" xlink:href="#bh"/><use transform="matrix(0.010850694444444444,0,0,0.010850694444444444,40.006510416666664,0)" xlink:href="#bo"/><use transform="matrix(0.010850694444444444,0,0,0.010850694444444444,53.342013888888886,0)" xlink:href="#aT"/><use transform="matrix(0.010850694444444444,0,0,0.010850694444444444,66.67751736111111,0)" xlink:href="#bf"/></g><g id="Z"><use transform="matrix(0.009765624999999998,0,0,0.009765624999999998,0,0)" xlink:href="#aY"/><use transform="matrix(0.009765624999999998,0,0,0.009765624999999998,12.001953124999998,0)" xlink:href="#aJ"/><use transform="matrix(0.009765624999999998,0,0,0.009765624999999998,24.003906249999996,0)" xlink:href="#aP"/><use transform="matrix(0.009765624999999998,0,0,0.009765624999999998,36.00585937499999,0)" xlink:href="#aW"/></g><g id="aa"><use transform="matrix(0.009765624999999998,0,0,0.009765624999999998,0,0)" xlink:href="#bK"/><use transform="matrix(0.009765624999999998,0,0,0.009765624999999998,12.001953124999998,0)" xlink:href="#bk"/><use transform="matrix(0.009765624999999998,0,0,0.009765624999999998,24.003906249999996,0)" xlink:href="#aP"/><use transform="matrix(0.009765624999999998,0,0,0.009765624999999998,36.00585937499999,0)" xlink:href="#aN"/><use transform="matrix(0.009765624999999998,0,0,0.009765624999999998,48.00781249999999,0)" xlink:href="#bL"/><use transform="matrix(0.009765624999999998,0,0,0.009765624999999998,60.009765624999986,0)" xlink:href="#bk"/><use transform="matrix(0.009765624999999998,0,0,0.009765624999999998,72.01171874999999,0)" xlink:href="#br"/><use transform="matrix(0.009765624999999998,0,0,0.009765624999999998,84.01367187499999,0)" xlink:href="#aX"/></g><g id="ab"><use transform="matrix(0.010850694444444444,0,0,0.010850694444444444,0,0)" xlink:href="#bv"/><use transform="matrix(0.010850694444444444,0,0,0.010850694444444444,13.335503472222221,0)" xlink:href="#bb"/><use transform="matrix(0.010850694444444444,0,0,0.010850694444444444,26.671006944444443,0)" xlink:href="#bp"/><use transform="matrix(0.010850694444444444,0,0,0.010850694444444444,40.006510416666664,0)" xlink:href="#bd"/></g><g id="ac"><use transform="matrix(0.010850694444444444,0,0,0.010850694444444444,0,0)" xlink:href="#bE"/><use transform="matrix(0.010850694444444444,0,0,0.010850694444444444,13.335503472222221,0)" xlink:href="#bo"/><use transform="matrix(0.010850694444444444,0,0,0.010850694444444444,26.671006944444443,0)" xlink:href="#bp"/><use transform="matrix(0.010850694444444444,0,0,0.010850694444444444,40.006510416666664,0)" xlink:href="#aS"/><use transform="matrix(0.010850694444444444,0,0,0.010850694444444444,53.342013888888886,0)" xlink:href="#aU"/><use transform="matrix(0.010850694444444444,0,0,0.010850694444444444,66.67751736111111,0)" xlink:href="#bo"/><use transform="matrix(0.010850694444444444,0,0,0.010850694444444444,80.01302083333334,0)" xlink:href="#bh"/><use transform="matrix(0.010850694444444444,0,0,0.010850694444444444,93.34852430555557,0)" xlink:href="#be"/></g><path d="M240 0l2-218c-23 76-54 145-80 218h-23L58-218 59 0H30v-248h44l77 211c21-75 51-140 76-211h43V0h-30" id="bT"/><path d="M141-36C126-15 110 5 73 4 37 3 15-17 15-53c-1-64 63-63 125-63 3-35-9-54-41-54-24 1-41 7-42 31l-33-3c5-37 33-52 76-52 45 0 72 20 72 64v82c-1 20 7 32 28 27v20c-31 9-61-2-59-35zM48-53c0 20 12 33 32 33 41-3 63-29 60-74-43 2-92-5-92 41" id="bU"/><path d="M24-231v-30h32v30H24zM24 0v-190h32V0H24" id="bV"/><path d="M117-194c89-4 53 116 60 194h-32v-121c0-31-8-49-39-48C34-167 62-67 57 0H25l-1-190h30c1 10-1 24 2 32 11-22 29-35 61-36" id="bW"/><g id="ad"><use transform="matrix(0.05,0,0,0.05,0,0)" xlink:href="#bT"/><use transform="matrix(0.05,0,0,0.05,14.950000000000001,0)" xlink:href="#bU"/><use transform="matrix(0.05,0,0,0.05,24.950000000000003,0)" xlink:href="#bV"/><use transform="matrix(0.05,0,0,0.05,28.900000000000002,0)" xlink:href="#bW"/></g><path d="M100-194c63 0 86 42 84 106H49c0 40 14 67 53 68 26 1 43-12 49-29l28 8c-11 28-37 45-77 45C44 4 14-33 15-96c1-61 26-98 85-98zm52 81c6-60-76-77-97-28-3 7-6 17-6 28h103" id="bX"/><path d="M84 4C-5 8 30-112 23-190h32v120c0 31 7 50 39 49 72-2 45-101 50-169h31l1 190h-30c-1-10 1-25-2-33-11 22-28 36-60 37" id="bY"/><g id="ae"><use transform="matrix(0.05,0,0,0.05,0,0)" xlink:href="#bT"/><use transform="matrix(0.05,0,0,0.05,14.950000000000001,0)" xlink:href="#bX"/><use transform="matrix(0.05,0,0,0.05,24.950000000000003,0)" xlink:href="#bW"/><use transform="matrix(0.05,0,0,0.05,34.95,0)" xlink:href="#bY"/></g><path d="M205 0l-28-72H64L36 0H1l101-248h38L239 0h-34zm-38-99l-47-123c-12 45-31 82-46 123h93" id="bZ"/><path d="M96-169c-40 0-48 33-48 73s9 75 48 75c24 0 41-14 43-38l32 2c-6 37-31 61-74 61-59 0-76-41-82-99-10-93 101-131 147-64 4 7 5 14 7 22l-32 3c-4-21-16-35-41-35" id="ca"/><path d="M59-47c-2 24 18 29 38 22v24C64 9 27 4 27-40v-127H5v-23h24l9-43h21v43h35v23H59v120" id="cb"/><path d="M108 0H70L1-190h34L89-25l56-165h34" id="cc"/><path d="M179-190L93 31C79 59 56 82 12 73V49c39 6 53-20 64-50L1-190h34L92-34l54-156h33" id="cd"/><g id="af"><use transform="matrix(0.05,0,0,0.05,0,0)" xlink:href="#bZ"/><use transform="matrix(0.05,0,0,0.05,12,0)" xlink:href="#ca"/><use transform="matrix(0.05,0,0,0.05,21,0)" xlink:href="#cb"/><use transform="matrix(0.05,0,0,0.05,26,0)" xlink:href="#bV"/><use transform="matrix(0.05,0,0,0.05,29.950000000000003,0)" xlink:href="#cc"/><use transform="matrix(0.05,0,0,0.05,38.95,0)" xlink:href="#bV"/><use transform="matrix(0.05,0,0,0.05,42.900000000000006,0)" xlink:href="#cb"/><use transform="matrix(0.05,0,0,0.05,47.900000000000006,0)" xlink:href="#cd"/></g></defs></g></svg>