<svg xmlns="http://www.w3.org/2000/svg" xmlns:xlink="http://www.w3.org/1999/xlink" xmlns:lucid="lucid" width="2196" height="834"><g transform="translate(1696 0)" lucid:page-tab-id="lYj57gzL.dpx"><path d="M-1696 0h3456v1360h-3456z" fill="#fff"/><g fill="none"><path d="M-846.8 330.5v439.75"/><path d="M-846.8 330.5v5.06m0 5.06v10.1m0 5.06v10.1m0 5.06v10.1m0 5.07v10.12m0 5.05v10.1m0 5.06v10.1m0 5.07v10.1m0 5.06v10.1m0 5.06v10.1m0 5.07v10.1m0 5.05v10.1m0 5.06v10.12m0 5.06v10.1m0 5.06v10.1m0 5.07V563m0 5.07v10.1m0 5.06v10.1m0 5.07v10.1m0 5.06v10.1m0 5.06v10.1m0 5.07V654m0 5.05v10.1m0 5.06v10.12m0 5.06v10.1m0 5.06v10.1m0 5.06v10.1m0 5.07v10.1m0 5.06v10.1m0 5.07v5.05" stroke="#3a414a" stroke-linecap="round"/></g><g fill="none"><path d="M-521.46 322.86V762.6"/><path d="M-521.46 322.86v5.05m0 5.07v10.1m0 5.06v10.1m0 5.06v10.1m0 5.06v10.1m0 5.06v10.1m0 5.06v10.1m0 5.07v10.1m0 5.06v10.12m0 5.05v10.1m0 5.07v10.1m0 5.06v10.1m0 5.06v10.1m0 5.07v10.1m0 5.06v10.1m0 5.06v10.1m0 5.06v10.1m0 5.06v10.1m0 5.07v10.1m0 5.06v10.12m0 5.05v10.1m0 5.07v10.1m0 5.06v10.1m0 5.06v10.1m0 5.07v10.1m0 5.06V707m0 5.05v10.1m0 5.07v10.1m0 5.06v10.1m0 5.07v5.05" stroke="#3a414a" stroke-linecap="round"/></g><g fill="none"><path d="M-137.98 333.37v439.75"/><path d="M-137.98 333.37v5.06m0 5.05v10.1m0 5.07v10.1m0 5.06v10.12m0 5.05v10.1m0 5.07v10.1m0 5.06v10.1m0 5.06v10.1m0 5.07v10.1m0 5.06v10.1m0 5.05v10.1m0 5.07v10.1m0 5.06v10.1m0 5.06v10.1m0 5.07v10.12m0 5.05v10.1m0 5.07v10.1m0 5.06v10.1m0 5.06v10.1m0 5.07v10.1m0 5.06v10.1m0 5.05v10.1m0 5.07v10.1m0 5.06v10.1m0 5.06v10.1m0 5.07v10.12m0 5.05v10.1m0 5.06v10.1m0 5.07V763m0 5.06v5.06" stroke="#3a414a" stroke-linecap="round"/></g><g fill="none"><path d="M321.3 333.37v439.75"/><path d="M321.3 333.37v5.06m0 5.05v10.1m0 5.07v10.1m0 5.06v10.12m0 5.05v10.1m0 5.07v10.1m0 5.06v10.1m0 5.06v10.1m0 5.07v10.1m0 5.06v10.1m0 5.05v10.1m0 5.07v10.1m0 5.06v10.1m0 5.06v10.1m0 5.07v10.12m0 5.05v10.1m0 5.07v10.1m0 5.06v10.1m0 5.06v10.1m0 5.07v10.1m0 5.06v10.1m0 5.05v10.1m0 5.07v10.1m0 5.06v10.1m0 5.06v10.1m0 5.07v10.12m0 5.05v10.1m0 5.06v10.1m0 5.07V763m0 5.06v5.06" stroke="#3a414a" stroke-linecap="round"/></g><g fill="none"><path d="M-1213.44 330.5v439.75"/><path d="M-1213.44 330.5v5.06m0 5.06v10.1m0 5.06v10.1m0 5.06v10.1m0 5.07v10.12m0 5.05v10.1m0 5.06v10.1m0 5.07v10.1m0 5.06v10.1m0 5.06v10.1m0 5.07v10.1m0 5.05v10.1m0 5.06v10.12m0 5.06v10.1m0 5.06v10.1m0 5.07V563m0 5.07v10.1m0 5.06v10.1m0 5.07v10.1m0 5.06v10.1m0 5.06v10.1m0 5.07V654m0 5.05v10.1m0 5.06v10.12m0 5.06v10.1m0 5.06v10.1m0 5.06v10.1m0 5.07v10.1m0 5.06v10.1m0 5.07v5.05" stroke="#3a414a" stroke-linecap="round"/></g><path d="M-106.62 508.48h399.6v18.94h-399.6z" fill="none"/><use xlink:href="#a" transform="matrix(1,0,0,1,-106.61694638524799,508.4834177259848) translate(3.9506172839506632 17.77777777777778)"/><use xlink:href="#b" transform="matrix(1,0,0,1,-106.61694638524799,508.4834177259848) translate(96.54320987654326 17.77777777777778)"/><path d="M-1595.44 363.52a6 6 0 0 1 6-6h8a6 6 0 0 1 6 6v308a6 6 0 0 1-6 6h-8a6 6 0 0 1-6-6z" stroke="#3a414a" fill="url(#c)"/><path d="M-1224.75 364.54a6 6 0 0 1 6-6h10.63a6 6 0 0 1 6 6v257.94a6 6 0 0 1-6 6h-10.63a6 6 0 0 1-6-6z" stroke="#3a414a" fill="#635dff"/><path d="M-858.12 364.54a6 6 0 0 1 6-6h10.63a6 6 0 0 1 6 6v137.94a6 6 0 0 1-6 6h-10.62a6 6 0 0 1-6-6zM-531.96 364.54a6 6 0 0 1 6-6h8.55a6 6 0 0 1 6 6v177.94a6 6 0 0 1-6 6h-8.56a6 6 0 0 1-6-6zM-147.04 364.54a6 6 0 0 1 6-6h14.54a6 6 0 0 1 6 6v197.94a6 6 0 0 1-6 6h-14.54a6 6 0 0 1-6-6z" stroke="#3a414a" fill="#1071e5"/><path d="M-1344.14 226a6 6 0 0 1 6-6h249.4a6 6 0 0 1 6 6v96.73a6 6 0 0 1-6 6h-249.4a6 6 0 0 1-6-6z" stroke="#3a414a" fill="#fff"/><use xlink:href="#d" transform="matrix(1,0,0,1,-1339.1384360299264,225) translate(44.05555555555557 54.90277777777778)"/><path d="M-979.6 226.02a6 6 0 0 1 6-6h253.58a6 6 0 0 1 6 6v96.68a6 6 0 0 1-6 6H-973.6a6 6 0 0 1-6-6z" stroke="#3a414a" fill="#fff"/><use xlink:href="#e" transform="matrix(1,0,0,1,-974.5958521619698,225.02230661487374) translate(47.87654320987656 54.90277777777778)"/><path d="M-245.16 226.07a6 6 0 0 1 6-6h220.2a6 6 0 0 1 6 6v96.68a6 6 0 0 1-6 6h-220.2a6 6 0 0 1-6-6z" stroke="#3a414a" fill="#fff"/><use xlink:href="#f" transform="matrix(1,0,0,1,-240.1632633543528,225.06691984462122) translate(9.833333333333357 54.90277777777778)"/><path d="M-640.5 232.4a6 6 0 0 1 6-6h259.52a6 6 0 0 1 6 6v90.3a6 6 0 0 1-6 6H-634.5a6 6 0 0 1-6-6z" stroke="#3a414a" fill="#fff"/><use xlink:href="#g" transform="matrix(1,0,0,1,-635.4999999999999,231.41536217042932) translate(38.530864197530875 49.74652777777778)"/><path d="M-1574.44 397.46h332.82" stroke="#3a414a" fill="none"/><path d="M-1574.43 397.94h-.5V397h.5z" stroke="#3a414a" stroke-width=".05" fill="#3a414a"/><path d="M-1226.87 397.46l-14.26 4.64v-9.28z" stroke="#3a414a" fill="#3a414a"/><path d="M-1201.12 449.4h326.1" stroke="#3a414a" fill="none"/><path d="M-1201.1 449.88h-.52v-.95h.5z" stroke="#3a414a" stroke-width=".05" fill="#3a414a"/><path d="M-860.24 449.4l-14.27 4.64v-9.27z" stroke="#3a414a" fill="#3a414a"/><path d="M-834.5 488.95h150.75a.02.02 0 0 1 .02 0 .02.02 0 0 0 .02.03h134.85" stroke="#3a414a" fill="none"/><path d="M-834.48 489.42h-.5v-.95h.5z" stroke="#3a414a" stroke-width=".05" fill="#3a414a"/><path d="M-534.08 488.98l-14.27 4.64v-9.27z" stroke="#3a414a" fill="#3a414a"/><path d="M-1632.48 364.54a6 6 0 0 1 6-6h387.7a6 6 0 0 1 6 6v28.5a6 6 0 0 1-6 6h-387.7a6 6 0 0 1-6-6z" stroke="#000" stroke-opacity="0" fill="#fff" fill-opacity="0"/><use xlink:href="#h" transform="matrix(1,0,0,1,-1627.4766884438354,363.5385102442396) translate(87.12962962962965 19.71527777777778)"/><use xlink:href="#i" transform="matrix(1,0,0,1,-1627.4766884438354,363.5385102442396) translate(168.5493827160494 19.71527777777778)"/><use xlink:href="#j" transform="matrix(1,0,0,1,-1627.4766884438354,363.5385102442396) translate(282.0061728395062 19.71527777777778)"/><use xlink:href="#k" transform="matrix(1,0,0,1,-1627.4766884438354,363.5385102442396) translate(295.5246913580247 19.71527777777778)"/><path d="M-1195.65 414.48a6 6 0 0 1 6-6h327.4a6 6 0 0 1 6 6v28.98a6 6 0 0 1-6 6h-327.4a6 6 0 0 1-6-6z" stroke="#000" stroke-opacity="0" fill="#fff" fill-opacity="0"/><use xlink:href="#l" transform="matrix(1,0,0,1,-1190.6492868016771,413.48341772598474) translate(62.87037037037037 19.71527777777778)"/><use xlink:href="#m" transform="matrix(1,0,0,1,-1190.6492868016771,413.48341772598474) translate(99.9074074074074 19.71527777777778)"/><use xlink:href="#n" transform="matrix(1,0,0,1,-1190.6492868016771,413.48341772598474) translate(182.56172839506172 19.71527777777778)"/><use xlink:href="#o" transform="matrix(1,0,0,1,-1190.6492868016771,413.48341772598474) translate(252.43827160493828 19.71527777777778)"/><path d="M-816.5 455.46a6 6 0 0 1 6-6h259.52a6 6 0 0 1 6 6v28a6 6 0 0 1-6 6H-810.5a6 6 0 0 1-6-6z" stroke="#000" stroke-opacity="0" fill="#fff" fill-opacity="0"/><use xlink:href="#p" transform="matrix(1,0,0,1,-811.4960217266872,454.4621214296885) translate(36.061728395061735 19.71527777777778)"/><use xlink:href="#q" transform="matrix(1,0,0,1,-811.4960217266872,454.4621214296885) translate(97.79012345679013 19.71527777777778)"/><use xlink:href="#k" transform="matrix(1,0,0,1,-811.4960217266872,454.4621214296885) translate(218.5925925925926 19.71527777777778)"/><a xlink:href="http://1.1.1.Game" target="_blank" transform="matrix(1,0,0,1,-811.4960217266872,454.4621214296885)"><path class="lucid-link lucid-hotspot lucid-overlay-hotspot" fill-opacity="0" d="M36.06 1.94h49.38V28.6H36.06z"/></a><path d="M-497.95 481.54a6 6 0 0 1 6-6h325.45a6 6 0 0 1 6 6v39.88a6 6 0 0 1-6 6h-325.45a6 6 0 0 1-6-6z" stroke="#000" stroke-opacity="0" fill="#fff" fill-opacity="0"/><use xlink:href="#r" transform="matrix(1,0,0,1,-492.9461318481595,480.5355854519697) translate(9.111111111111114 23.875)"/><use xlink:href="#s" transform="matrix(1,0,0,1,-492.9461318481595,480.5355854519697) translate(14.666666666666668 23.875)"/><use xlink:href="#t" transform="matrix(1,0,0,1,-492.9461318481595,480.5355854519697) translate(86.88888888888889 23.875)"/><use xlink:href="#u" transform="matrix(1,0,0,1,-492.9461318481595,480.5355854519697) translate(300.1111111111111 23.875)"/><use xlink:href="#v" transform="matrix(1,0,0,1,-492.9461318481595,480.5355854519697) translate(312.2777777777778 23.875)"/><path d="M-510.4 521h180.67a.5.5 0 0 0 .5-.5.5.5 0 0 1 .52-.52h164.78" stroke="#3a414a" fill="none"/><path d="M-510.4 521.48h-.5v-.95h.5z" stroke="#3a414a" stroke-width=".05" fill="#3a414a"/><path d="M-149.16 519.98l-14.26 4.63v-9.25z" stroke="#3a414a" fill="#3a414a"/><path d="M-1548.4 72.4c0 17.9-14.5 32.42-32.4 32.42s-32.42-14.5-32.42-32.4 14.5-32.42 32.4-32.42 32.42 14.5 32.42 32.4z" stroke="#3a414a" fill="#fff"/><path d="M-1580.8 104.82v84.76a17.75 17.75 0 0 0 3.63 10.77l75.56 98.94m-79.2-103.72l-79.2 103.7m0-162.04h158.38" stroke="#3a414a" fill="none"/><path d="M-1660 46a6 6 0 0 1 6-6h146.38a6 6 0 0 1 6 6v269.3a6 6 0 0 1-6 6H-1654a6 6 0 0 1-6-6z" fill="none"/><use xlink:href="#w" transform="matrix(1,0,0,1,-1740,299.2944444444445) translate(133.60493827160494 17.77777777777778)"/><path d="M207.36 227.32a6 6 0 0 1 6-6h220.2a6 6 0 0 1 6 6v96.7a6 6 0 0 1-6 6h-220.2a6 6 0 0 1-6-6z" stroke="#3a414a" fill="#fff"/><g><use xlink:href="#x" transform="matrix(1,0,0,1,212.36190388025614,226.3246214296887) translate(52.2716049382716 54.90277777777778)"/></g><path d="M-119.5 541.83h415.6" stroke="#3a414a" fill="none"/><path d="M-119.5 542.3h-.5v-.95h.5z" stroke="#3a414a" stroke-width=".05" fill="#3a414a"/><path d="M310.87 541.83l-14.27 4.63v-9.27z" stroke="#3a414a" fill="#3a414a"/><path d="M312.98 364.54a6 6 0 0 1 6-6h14.52a6 6 0 0 1 6 6v280.2a6 6 0 0 1-6 6h-14.52a6 6 0 0 1-6-6z" stroke="#3a414a" fill="#1071e5"/><path d="M311.98 602.42H301.9m-10.1 0h-20.17m-10.08 0h-20.18m-10.1 0h-20.16m-10.08 0h-20.17m-10.1 0H150.6m-10.1 0h-20.18m-10.08 0H90.06m-10.1 0H59.8m-10.1 0H29.55m-10.1 0H-.72m-10.08 0H-31m-10.08 0h-20.17m-10.1 0H-91.5m-10.1 0h-20.17m-10.1 0h-20.17m-10.08 0h-20.18m-10.08 0h-20.18m-10.1 0h-20.16m-10.1 0h-20.16m-10.1 0h-20.17m-10.08 0h-20.18m-10.1 0h-20.17m-10.1 0h-20.16m-10.1 0h-20.16m-10.08 0h-19.97m-9.87 0h-19.75m-9.88 0h-19.75m-9.88 0h-19.75m-9.87 0h-19.75m-9.88 0h-19.75m-9.88 0h-19.75m-9.88 0h-19.75m-9.88 0h-19.76m-9.88 0h-19.75m-9.86 0h-19.75m-9.9 0h-19.74m-9.88 0h-19.75m-9.87 0h-19.75m-9.87 0h-19.75m-9.88 0h-19.75m-9.87 0h-19.75m-9.88 0h-19.75m-9.88 0h-19.75m-9.87 0h-19.75m-9.88 0h-19.75m-9.88 0h-19.75m-9.88 0h-19.75m-9.88 0h-19.76m-9.88 0h-19.75m-9.86 0h-9.88" stroke="#3a414a" fill="none"/><path d="M312.48 602.9h-.5v-.96h.5z" stroke="#3a414a" stroke-width=".05" fill="#3a414a"/><path d="M-1200 602.42l14.26-4.64v9.27z" stroke="#3a414a" fill="#3a414a"/><path d="M-866.8 503.95a6 6 0 0 1 6-6h28a6 6 0 0 1 6 6v28a6 6 0 0 1-6 6h-28a6 6 0 0 1-6-6z" fill="none"/><path d="M-862.8 501.95l32 32m0-32l-32 32" stroke="#3a414a" stroke-width="8" fill="none"/><path d="M303.46 644.54a6 6 0 0 1 6-6h28a6 6 0 0 1 6 6v28a6 6 0 0 1-6 6h-28a6 6 0 0 1-6-6z" fill="none"/><path d="M307.46 642.54l32 32m0-32l-32 32" stroke="#3a414a" stroke-width="8" fill="none"/><defs><path fill="#3a414a" d="M27 0v-27h64v-190l-56 39v-29l58-41h29v221h61V0H27" id="y"/><path fill="#3a414a" d="M33 0v-38h34V0H33" id="z"/><g id="a"><use transform="matrix(0.06172839506172839,0,0,0.06172839506172839,0,0)" xlink:href="#y"/><use transform="matrix(0.06172839506172839,0,0,0.06172839506172839,12.345679012345679,0)" xlink:href="#z"/><use transform="matrix(0.06172839506172839,0,0,0.06172839506172839,18.51851851851852,0)" xlink:href="#y"/><use transform="matrix(0.06172839506172839,0,0,0.06172839506172839,30.864197530864196,0)" xlink:href="#z"/><use transform="matrix(0.06172839506172839,0,0,0.06172839506172839,37.03703703703704,0)" xlink:href="#y"/><use transform="matrix(0.06172839506172839,0,0,0.06172839506172839,49.382716049382715,0)" xlink:href="#z"/><use transform="matrix(0.06172839506172839,0,0,0.06172839506172839,55.55555555555556,0)" xlink:href="#y"/><use transform="matrix(0.06172839506172839,0,0,0.06172839506172839,67.90123456790124,0)" xlink:href="#z"/><use transform="matrix(0.06172839506172839,0,0,0.06172839506172839,74.07407407407408,0)" xlink:href="#y"/></g><path fill="#3a414a" d="M30-248c87 1 191-15 191 75 0 78-77 80-158 76V0H30v-248zm33 125c57 0 124 11 124-50 0-59-68-47-124-48v98" id="A"/><path fill="#3a414a" d="M114-163C36-179 61-72 57 0H25l-1-190h30c1 12-1 29 2 39 6-27 23-49 58-41v29" id="B"/><path fill="#3a414a" d="M100-194c63 0 86 42 84 106H49c0 40 14 67 53 68 26 1 43-12 49-29l28 8c-11 28-37 45-77 45C44 4 14-33 15-96c1-61 26-98 85-98zm52 81c6-60-76-77-97-28-3 7-6 17-6 28h103" id="C"/><path fill="#3a414a" d="M135-143c-3-34-86-38-87 0 15 53 115 12 119 90S17 21 10-45l28-5c4 36 97 45 98 0-10-56-113-15-118-90-4-57 82-63 122-42 12 7 21 19 24 35" id="D"/><path fill="#3a414a" d="M30 0v-248h187v28H63v79h144v27H63v87h162V0H30" id="E"/><path fill="#3a414a" d="M141 0L90-78 38 0H4l68-98-65-92h35l48 74 47-74h35l-64 92 68 98h-35" id="F"/><path fill="#3a414a" d="M24-231v-30h32v30H24zM24 0v-190h32V0H24" id="G"/><path fill="#3a414a" d="M59-47c-2 24 18 29 38 22v24C64 9 27 4 27-40v-127H5v-23h24l9-43h21v43h35v23H59v120" id="H"/><path fill="#3a414a" d="M127-220V0H93v-220H8v-28h204v28h-85" id="I"/><path fill="#3a414a" d="M100-194c62-1 85 37 85 99 1 63-27 99-86 99S16-35 15-95c0-66 28-99 85-99zM99-20c44 1 53-31 53-75 0-43-8-75-51-75s-53 32-53 75 10 74 51 75" id="J"/><path fill="#3a414a" d="M240 0l2-218c-23 76-54 145-80 218h-23L58-218 59 0H30v-248h44l77 211c21-75 51-140 76-211h43V0h-30" id="K"/><path fill="#3a414a" d="M141-36C126-15 110 5 73 4 37 3 15-17 15-53c-1-64 63-63 125-63 3-35-9-54-41-54-24 1-41 7-42 31l-33-3c5-37 33-52 76-52 45 0 72 20 72 64v82c-1 20 7 32 28 27v20c-31 9-61-2-59-35zM48-53c0 20 12 33 32 33 41-3 63-29 60-74-43 2-92-5-92 41" id="L"/><path fill="#3a414a" d="M117-194c89-4 53 116 60 194h-32v-121c0-31-8-49-39-48C34-167 62-67 57 0H25l-1-190h30c1 10-1 24 2 32 11-22 29-35 61-36" id="M"/><path fill="#3a414a" d="M84 4C-5 8 30-112 23-190h32v120c0 31 7 50 39 49 72-2 45-101 50-169h31l1 190h-30c-1-10 1-25-2-33-11 22-28 36-60 37" id="N"/><path fill="#3a414a" d="M160-131c35 5 61 23 61 61C221 17 115-2 30 0v-248c76 3 177-17 177 60 0 33-19 50-47 57zm-97-11c50-1 110 9 110-42 0-47-63-36-110-37v79zm0 115c55-2 124 14 124-45 0-56-70-42-124-44v89" id="O"/><path fill="#3a414a" d="M87 75C49 33 22-17 22-94c0-76 28-126 65-167h31c-38 41-64 92-64 168S80 34 118 75H87" id="P"/><path fill="#3a414a" d="M33-261c38 41 65 92 65 168S71 34 33 75H2C39 34 66-17 66-93S39-220 2-261h31" id="Q"/><g id="b"><use transform="matrix(0.06172839506172839,0,0,0.06172839506172839,0,0)" xlink:href="#A"/><use transform="matrix(0.06172839506172839,0,0,0.06172839506172839,14.814814814814813,0)" xlink:href="#B"/><use transform="matrix(0.06172839506172839,0,0,0.06172839506172839,22.160493827160494,0)" xlink:href="#C"/><use transform="matrix(0.06172839506172839,0,0,0.06172839506172839,34.50617283950617,0)" xlink:href="#D"/><use transform="matrix(0.06172839506172839,0,0,0.06172839506172839,45.61728395061728,0)" xlink:href="#D"/><use transform="matrix(0.06172839506172839,0,0,0.06172839506172839,56.72839506172839,0)" xlink:href="#E"/><use transform="matrix(0.06172839506172839,0,0,0.06172839506172839,71.5432098765432,0)" xlink:href="#F"/><use transform="matrix(0.06172839506172839,0,0,0.06172839506172839,82.65432098765432,0)" xlink:href="#G"/><use transform="matrix(0.06172839506172839,0,0,0.06172839506172839,87.53086419753086,0)" xlink:href="#H"/><use transform="matrix(0.06172839506172839,0,0,0.06172839506172839,93.7037037037037,0)" xlink:href="#I"/><use transform="matrix(0.06172839506172839,0,0,0.06172839506172839,104.75308641975307,0)" xlink:href="#J"/><use transform="matrix(0.06172839506172839,0,0,0.06172839506172839,117.09876543209876,0)" xlink:href="#K"/><use transform="matrix(0.06172839506172839,0,0,0.06172839506172839,135.55555555555554,0)" xlink:href="#L"/><use transform="matrix(0.06172839506172839,0,0,0.06172839506172839,147.9012345679012,0)" xlink:href="#G"/><use transform="matrix(0.06172839506172839,0,0,0.06172839506172839,152.77777777777774,0)" xlink:href="#M"/><use transform="matrix(0.06172839506172839,0,0,0.06172839506172839,165.1234567901234,0)" xlink:href="#K"/><use transform="matrix(0.06172839506172839,0,0,0.06172839506172839,183.5802469135802,0)" xlink:href="#C"/><use transform="matrix(0.06172839506172839,0,0,0.06172839506172839,195.92592592592587,0)" xlink:href="#M"/><use transform="matrix(0.06172839506172839,0,0,0.06172839506172839,208.27160493827154,0)" xlink:href="#N"/><use transform="matrix(0.06172839506172839,0,0,0.06172839506172839,220.6172839506172,0)" xlink:href="#O"/><use transform="matrix(0.06172839506172839,0,0,0.06172839506172839,235.43209876543202,0)" xlink:href="#N"/><use transform="matrix(0.06172839506172839,0,0,0.06172839506172839,247.7777777777777,0)" xlink:href="#H"/><use transform="matrix(0.06172839506172839,0,0,0.06172839506172839,253.95061728395055,0)" xlink:href="#H"/><use transform="matrix(0.06172839506172839,0,0,0.06172839506172839,260.1234567901234,0)" xlink:href="#J"/><use transform="matrix(0.06172839506172839,0,0,0.06172839506172839,272.46913580246905,0)" xlink:href="#M"/><use transform="matrix(0.06172839506172839,0,0,0.06172839506172839,284.8148148148147,0)" xlink:href="#P"/><use transform="matrix(0.06172839506172839,0,0,0.06172839506172839,292.1604938271604,0)" xlink:href="#Q"/></g><linearGradient gradientUnits="userSpaceOnUse" id="c" x1="-1595.44" y1="357.52" x2="-1595.44" y2="677.52"><stop offset="0%" stop-color="#909aa9"/><stop offset="50.01%" stop-color="#6b7686"/><stop offset="100%" stop-color="#4c535f"/></linearGradient><path fill="#3a414a" d="M85-194c31 0 48 13 60 33l-1-100h32l1 261h-30c-2-10 0-23-3-31C134-8 116 4 85 4 32 4 16-35 15-94c0-66 23-100 70-100zm9 24c-40 0-46 34-46 75 0 40 6 74 45 74 42 0 51-32 51-76 0-42-9-74-50-73" id="R"/><path fill="#3a414a" d="M24 0v-261h32V0H24" id="S"/><g id="d"><use transform="matrix(0.06172839506172839,0,0,0.06172839506172839,0,0)" xlink:href="#K"/><use transform="matrix(0.06172839506172839,0,0,0.06172839506172839,18.456790123456788,0)" xlink:href="#L"/><use transform="matrix(0.06172839506172839,0,0,0.06172839506172839,30.80246913580247,0)" xlink:href="#G"/><use transform="matrix(0.06172839506172839,0,0,0.06172839506172839,35.67901234567901,0)" xlink:href="#M"/><use transform="matrix(0.06172839506172839,0,0,0.06172839506172839,48.02469135802469,0)" xlink:href="#K"/><use transform="matrix(0.06172839506172839,0,0,0.06172839506172839,66.48148148148148,0)" xlink:href="#C"/><use transform="matrix(0.06172839506172839,0,0,0.06172839506172839,78.82716049382717,0)" xlink:href="#M"/><use transform="matrix(0.06172839506172839,0,0,0.06172839506172839,91.17283950617285,0)" xlink:href="#N"/><use transform="matrix(0.06172839506172839,0,0,0.06172839506172839,103.51851851851853,0)" xlink:href="#K"/><use transform="matrix(0.06172839506172839,0,0,0.06172839506172839,121.97530864197532,0)" xlink:href="#J"/><use transform="matrix(0.06172839506172839,0,0,0.06172839506172839,134.320987654321,0)" xlink:href="#R"/><use transform="matrix(0.06172839506172839,0,0,0.06172839506172839,146.66666666666666,0)" xlink:href="#C"/><use transform="matrix(0.06172839506172839,0,0,0.06172839506172839,159.01234567901233,0)" xlink:href="#S"/></g><path fill="#3a414a" d="M190 0L58-211 59 0H30v-248h39L202-35l-2-213h31V0h-41" id="T"/><path fill="#3a414a" d="M206 0h-36l-40-164L89 0H53L-1-190h32L70-26l43-164h34l41 164 42-164h31" id="U"/><path fill="#3a414a" d="M143 4C61 4 22-44 18-125c-5-107 100-154 193-111 17 8 29 25 37 43l-32 9c-13-25-37-40-76-40-61 0-88 39-88 99 0 61 29 100 91 101 35 0 62-11 79-27v-45h-74v-28h105v86C228-13 192 4 143 4" id="V"/><path fill="#3a414a" d="M210-169c-67 3-38 105-44 169h-31v-121c0-29-5-50-35-48C34-165 62-65 56 0H25l-1-190h30c1 10-1 24 2 32 10-44 99-50 107 0 11-21 27-35 58-36 85-2 47 119 55 194h-31v-121c0-29-5-49-35-48" id="W"/><g id="e"><use transform="matrix(0.06172839506172839,0,0,0.06172839506172839,0,0)" xlink:href="#T"/><use transform="matrix(0.06172839506172839,0,0,0.06172839506172839,15.987654320987653,0)" xlink:href="#C"/><use transform="matrix(0.06172839506172839,0,0,0.06172839506172839,28.333333333333332,0)" xlink:href="#U"/><use transform="matrix(0.06172839506172839,0,0,0.06172839506172839,44.32098765432099,0)" xlink:href="#V"/><use transform="matrix(0.06172839506172839,0,0,0.06172839506172839,61.60493827160494,0)" xlink:href="#L"/><use transform="matrix(0.06172839506172839,0,0,0.06172839506172839,73.95061728395062,0)" xlink:href="#W"/><use transform="matrix(0.06172839506172839,0,0,0.06172839506172839,92.4074074074074,0)" xlink:href="#C"/><use transform="matrix(0.06172839506172839,0,0,0.06172839506172839,104.75308641975309,0)" xlink:href="#K"/><use transform="matrix(0.06172839506172839,0,0,0.06172839506172839,123.20987654320987,0)" xlink:href="#C"/><use transform="matrix(0.06172839506172839,0,0,0.06172839506172839,135.55555555555554,0)" xlink:href="#M"/><use transform="matrix(0.06172839506172839,0,0,0.06172839506172839,147.9012345679012,0)" xlink:href="#N"/></g><path fill="#3a414a" d="M212-179c-10-28-35-45-73-45-59 0-87 40-87 99 0 60 29 101 89 101 43 0 62-24 78-52l27 14C228-24 195 4 139 4 59 4 22-46 18-125c-6-104 99-153 187-111 19 9 31 26 39 46" id="X"/><g id="f"><use transform="matrix(0.06172839506172839,0,0,0.06172839506172839,0,0)" xlink:href="#V"/><use transform="matrix(0.06172839506172839,0,0,0.06172839506172839,17.28395061728395,0)" xlink:href="#L"/><use transform="matrix(0.06172839506172839,0,0,0.06172839506172839,29.629629629629626,0)" xlink:href="#W"/><use transform="matrix(0.06172839506172839,0,0,0.06172839506172839,48.08641975308642,0)" xlink:href="#C"/><use transform="matrix(0.06172839506172839,0,0,0.06172839506172839,60.432098765432094,0)" xlink:href="#X"/><use transform="matrix(0.06172839506172839,0,0,0.06172839506172839,76.41975308641975,0)" xlink:href="#J"/><use transform="matrix(0.06172839506172839,0,0,0.06172839506172839,88.76543209876543,0)" xlink:href="#M"/><use transform="matrix(0.06172839506172839,0,0,0.06172839506172839,101.11111111111111,0)" xlink:href="#H"/><use transform="matrix(0.06172839506172839,0,0,0.06172839506172839,107.28395061728395,0)" xlink:href="#B"/><use transform="matrix(0.06172839506172839,0,0,0.06172839506172839,114.62962962962963,0)" xlink:href="#J"/><use transform="matrix(0.06172839506172839,0,0,0.06172839506172839,126.97530864197533,0)" xlink:href="#S"/><use transform="matrix(0.06172839506172839,0,0,0.06172839506172839,131.85185185185185,0)" xlink:href="#D"/><use transform="matrix(0.06172839506172839,0,0,0.06172839506172839,142.96296296296296,0)" xlink:href="#K"/><use transform="matrix(0.06172839506172839,0,0,0.06172839506172839,161.41975308641975,0)" xlink:href="#J"/><use transform="matrix(0.06172839506172839,0,0,0.06172839506172839,173.76543209876542,0)" xlink:href="#R"/><use transform="matrix(0.06172839506172839,0,0,0.06172839506172839,186.1111111111111,0)" xlink:href="#C"/><use transform="matrix(0.06172839506172839,0,0,0.06172839506172839,198.45679012345676,0)" xlink:href="#S"/></g><path fill="#3a414a" d="M108 0H70L1-190h34L89-25l56-165h34" id="Y"/><g id="g"><use transform="matrix(0.06172839506172839,0,0,0.06172839506172839,0,0)" xlink:href="#V"/><use transform="matrix(0.06172839506172839,0,0,0.06172839506172839,17.28395061728395,0)" xlink:href="#L"/><use transform="matrix(0.06172839506172839,0,0,0.06172839506172839,29.629629629629626,0)" xlink:href="#W"/><use transform="matrix(0.06172839506172839,0,0,0.06172839506172839,48.08641975308642,0)" xlink:href="#C"/><use transform="matrix(0.06172839506172839,0,0,0.06172839506172839,60.432098765432094,0)" xlink:href="#E"/><use transform="matrix(0.06172839506172839,0,0,0.06172839506172839,75.24691358024691,0)" xlink:href="#M"/><use transform="matrix(0.06172839506172839,0,0,0.06172839506172839,87.5925925925926,0)" xlink:href="#Y"/><use transform="matrix(0.06172839506172839,0,0,0.06172839506172839,98.70370370370371,0)" xlink:href="#G"/><use transform="matrix(0.06172839506172839,0,0,0.06172839506172839,103.58024691358025,0)" xlink:href="#B"/><use transform="matrix(0.06172839506172839,0,0,0.06172839506172839,110.92592592592594,0)" xlink:href="#J"/><use transform="matrix(0.06172839506172839,0,0,0.06172839506172839,123.27160493827162,0)" xlink:href="#M"/><use transform="matrix(0.06172839506172839,0,0,0.06172839506172839,135.6172839506173,0)" xlink:href="#W"/><use transform="matrix(0.06172839506172839,0,0,0.06172839506172839,154.07407407407408,0)" xlink:href="#C"/><use transform="matrix(0.06172839506172839,0,0,0.06172839506172839,166.41975308641975,0)" xlink:href="#M"/><use transform="matrix(0.06172839506172839,0,0,0.06172839506172839,178.76543209876542,0)" xlink:href="#H"/></g><g id="h"><use transform="matrix(0.06172839506172839,0,0,0.06172839506172839,0,0)" xlink:href="#y"/><use transform="matrix(0.06172839506172839,0,0,0.06172839506172839,12.345679012345679,0)" xlink:href="#z"/><use transform="matrix(0.06172839506172839,0,0,0.06172839506172839,18.51851851851852,0)" xlink:href="#A"/><use transform="matrix(0.06172839506172839,0,0,0.06172839506172839,33.33333333333333,0)" xlink:href="#B"/><use transform="matrix(0.06172839506172839,0,0,0.06172839506172839,40.679012345679006,0)" xlink:href="#C"/><use transform="matrix(0.06172839506172839,0,0,0.06172839506172839,53.02469135802468,0)" xlink:href="#D"/><use transform="matrix(0.06172839506172839,0,0,0.06172839506172839,64.1358024691358,0)" xlink:href="#D"/></g><path fill="#3a414a" d="M185-189c-5-48-123-54-124 2 14 75 158 14 163 119 3 78-121 87-175 55-17-10-28-26-33-46l33-7c5 56 141 63 141-1 0-78-155-14-162-118-5-82 145-84 179-34 5 7 8 16 11 25" id="Z"/><g id="i"><use transform="matrix(0.06172839506172839,0,0,0.06172839506172839,0,0)" xlink:href="#Z"/><use transform="matrix(0.06172839506172839,0,0,0.06172839506172839,14.814814814814813,0)" xlink:href="#H"/><use transform="matrix(0.06172839506172839,0,0,0.06172839506172839,20.98765432098765,0)" xlink:href="#L"/><use transform="matrix(0.06172839506172839,0,0,0.06172839506172839,33.33333333333333,0)" xlink:href="#B"/><use transform="matrix(0.06172839506172839,0,0,0.06172839506172839,40.679012345679006,0)" xlink:href="#H"/><use transform="matrix(0.06172839506172839,0,0,0.06172839506172839,46.85185185185185,0)" xlink:href="#V"/><use transform="matrix(0.06172839506172839,0,0,0.06172839506172839,64.1358024691358,0)" xlink:href="#L"/><use transform="matrix(0.06172839506172839,0,0,0.06172839506172839,76.48148148148148,0)" xlink:href="#W"/><use transform="matrix(0.06172839506172839,0,0,0.06172839506172839,94.93827160493827,0)" xlink:href="#C"/></g><use transform="matrix(0.06172839506172839,0,0,0.06172839506172839,0,0)" xlink:href="#P" id="j"/><use transform="matrix(0.06172839506172839,0,0,0.06172839506172839,0,0)" xlink:href="#Q" id="k"/><g id="l"><use transform="matrix(0.06172839506172839,0,0,0.06172839506172839,0,0)" xlink:href="#y"/><use transform="matrix(0.06172839506172839,0,0,0.06172839506172839,12.345679012345679,0)" xlink:href="#z"/><use transform="matrix(0.06172839506172839,0,0,0.06172839506172839,18.51851851851852,0)" xlink:href="#y"/></g><path fill="#3a414a" d="M106-169C34-169 62-67 57 0H25v-261h32l-1 103c12-21 28-36 61-36 89 0 53 116 60 194h-32v-121c2-32-8-49-39-48" id="aa"/><g id="m"><use transform="matrix(0.06172839506172839,0,0,0.06172839506172839,0,0)" xlink:href="#X"/><use transform="matrix(0.06172839506172839,0,0,0.06172839506172839,15.987654320987653,0)" xlink:href="#aa"/><use transform="matrix(0.06172839506172839,0,0,0.06172839506172839,28.333333333333332,0)" xlink:href="#J"/><use transform="matrix(0.06172839506172839,0,0,0.06172839506172839,40.67901234567901,0)" xlink:href="#J"/><use transform="matrix(0.06172839506172839,0,0,0.06172839506172839,53.02469135802469,0)" xlink:href="#D"/><use transform="matrix(0.06172839506172839,0,0,0.06172839506172839,64.1358024691358,0)" xlink:href="#C"/></g><path fill="#3a414a" d="M205 0l-28-72H64L36 0H1l101-248h38L239 0h-34zm-38-99l-47-123c-12 45-31 82-46 123h93" id="ab"/><g id="n"><use transform="matrix(0.06172839506172839,0,0,0.06172839506172839,0,0)" xlink:href="#ab"/><use transform="matrix(0.06172839506172839,0,0,0.06172839506172839,14.382716049382715,0)" xlink:href="#Y"/><use transform="matrix(0.06172839506172839,0,0,0.06172839506172839,25.493827160493826,0)" xlink:href="#L"/><use transform="matrix(0.06172839506172839,0,0,0.06172839506172839,37.839506172839506,0)" xlink:href="#H"/><use transform="matrix(0.06172839506172839,0,0,0.06172839506172839,44.01234567901235,0)" xlink:href="#L"/><use transform="matrix(0.06172839506172839,0,0,0.06172839506172839,56.358024691358025,0)" xlink:href="#B"/></g><g id="o"><use transform="matrix(0.06172839506172839,0,0,0.06172839506172839,0,0)" xlink:href="#P"/><use transform="matrix(0.06172839506172839,0,0,0.06172839506172839,7.345679012345679,0)" xlink:href="#Q"/></g><g id="p"><use transform="matrix(0.06172839506172839,0,0,0.06172839506172839,0,0)" xlink:href="#y"/><use transform="matrix(0.06172839506172839,0,0,0.06172839506172839,12.345679012345679,0)" xlink:href="#z"/><use transform="matrix(0.06172839506172839,0,0,0.06172839506172839,18.51851851851852,0)" xlink:href="#y"/><use transform="matrix(0.06172839506172839,0,0,0.06172839506172839,30.864197530864196,0)" xlink:href="#z"/><use transform="matrix(0.06172839506172839,0,0,0.06172839506172839,37.03703703703704,0)" xlink:href="#y"/><path fill="#8080ff" d="M-1.1 1.54h51.6v1.63H-1.1z"/></g><g id="q"><use transform="matrix(0.06172839506172839,0,0,0.06172839506172839,0,0)" xlink:href="#Z"/><use transform="matrix(0.06172839506172839,0,0,0.06172839506172839,14.814814814814813,0)" xlink:href="#H"/><use transform="matrix(0.06172839506172839,0,0,0.06172839506172839,20.98765432098765,0)" xlink:href="#L"/><use transform="matrix(0.06172839506172839,0,0,0.06172839506172839,33.33333333333333,0)" xlink:href="#B"/><use transform="matrix(0.06172839506172839,0,0,0.06172839506172839,40.679012345679006,0)" xlink:href="#H"/><use transform="matrix(0.06172839506172839,0,0,0.06172839506172839,46.85185185185185,0)" xlink:href="#V"/><use transform="matrix(0.06172839506172839,0,0,0.06172839506172839,64.1358024691358,0)" xlink:href="#L"/><use transform="matrix(0.06172839506172839,0,0,0.06172839506172839,76.48148148148148,0)" xlink:href="#W"/><use transform="matrix(0.06172839506172839,0,0,0.06172839506172839,94.93827160493827,0)" xlink:href="#C"/><use transform="matrix(0.06172839506172839,0,0,0.06172839506172839,107.28395061728395,0)" xlink:href="#P"/></g><g id="s"><use transform="matrix(0.055555555555555546,0,0,0.055555555555555546,0,0)" xlink:href="#y"/><use transform="matrix(0.055555555555555546,0,0,0.055555555555555546,11.111111111111109,0)" xlink:href="#z"/><use transform="matrix(0.055555555555555546,0,0,0.055555555555555546,16.666666666666664,0)" xlink:href="#y"/><use transform="matrix(0.055555555555555546,0,0,0.055555555555555546,27.77777777777777,0)" xlink:href="#z"/><use transform="matrix(0.055555555555555546,0,0,0.055555555555555546,33.33333333333333,0)" xlink:href="#y"/><use transform="matrix(0.055555555555555546,0,0,0.055555555555555546,44.444444444444436,0)" xlink:href="#z"/><use transform="matrix(0.055555555555555546,0,0,0.055555555555555546,49.99999999999999,0)" xlink:href="#y"/></g><path fill="#3a414a" d="M194 0L95-120 63-95V0H30v-248h33v124l119-124h40L117-140 236 0h-42" id="ac"/><path fill="#3a414a" d="M179-190L93 31C79 59 56 82 12 73V49c39 6 53-20 64-50L1-190h34L92-34l54-156h33" id="ad"/><g id="t"><use transform="matrix(0.055555555555555546,0,0,0.055555555555555546,0,0)" xlink:href="#A"/><use transform="matrix(0.055555555555555546,0,0,0.055555555555555546,13.33333333333333,0)" xlink:href="#B"/><use transform="matrix(0.055555555555555546,0,0,0.055555555555555546,19.94444444444444,0)" xlink:href="#C"/><use transform="matrix(0.055555555555555546,0,0,0.055555555555555546,31.05555555555555,0)" xlink:href="#D"/><use transform="matrix(0.055555555555555546,0,0,0.055555555555555546,41.05555555555555,0)" xlink:href="#D"/><use transform="matrix(0.055555555555555546,0,0,0.055555555555555546,51.05555555555555,0)" xlink:href="#V"/><use transform="matrix(0.055555555555555546,0,0,0.055555555555555546,66.6111111111111,0)" xlink:href="#L"/><use transform="matrix(0.055555555555555546,0,0,0.055555555555555546,77.72222222222221,0)" xlink:href="#W"/><use transform="matrix(0.055555555555555546,0,0,0.055555555555555546,94.33333333333331,0)" xlink:href="#C"/><use transform="matrix(0.055555555555555546,0,0,0.055555555555555546,105.44444444444443,0)" xlink:href="#A"/><use transform="matrix(0.055555555555555546,0,0,0.055555555555555546,118.77777777777776,0)" xlink:href="#L"/><use transform="matrix(0.055555555555555546,0,0,0.055555555555555546,129.88888888888886,0)" xlink:href="#N"/><use transform="matrix(0.055555555555555546,0,0,0.055555555555555546,140.99999999999997,0)" xlink:href="#D"/><use transform="matrix(0.055555555555555546,0,0,0.055555555555555546,150.99999999999997,0)" xlink:href="#C"/><use transform="matrix(0.055555555555555546,0,0,0.055555555555555546,162.1111111111111,0)" xlink:href="#R"/><use transform="matrix(0.055555555555555546,0,0,0.055555555555555546,173.2222222222222,0)" xlink:href="#ac"/><use transform="matrix(0.055555555555555546,0,0,0.055555555555555546,186.55555555555554,0)" xlink:href="#C"/><use transform="matrix(0.055555555555555546,0,0,0.055555555555555546,197.66666666666666,0)" xlink:href="#ad"/></g><use transform="matrix(0.055555555555555546,0,0,0.055555555555555546,0,0)" xlink:href="#P" id="u"/><use transform="matrix(0.055555555555555546,0,0,0.055555555555555546,0,0)" xlink:href="#Q" id="v"/><path fill="#3a414a" d="M96-169c-40 0-48 33-48 73s9 75 48 75c24 0 41-14 43-38l32 2c-6 37-31 61-74 61-59 0-76-41-82-99-10-93 101-131 147-64 4 7 5 14 7 22l-32 3c-4-21-16-35-41-35" id="ae"/><g id="w"><use transform="matrix(0.06172839506172839,0,0,0.06172839506172839,0,0)" xlink:href="#ab"/><use transform="matrix(0.06172839506172839,0,0,0.06172839506172839,14.814814814814813,0)" xlink:href="#ae"/><use transform="matrix(0.06172839506172839,0,0,0.06172839506172839,25.925925925925924,0)" xlink:href="#H"/><use transform="matrix(0.06172839506172839,0,0,0.06172839506172839,32.098765432098766,0)" xlink:href="#J"/><use transform="matrix(0.06172839506172839,0,0,0.06172839506172839,44.44444444444444,0)" xlink:href="#B"/></g><g id="x"><use transform="matrix(0.06172839506172839,0,0,0.06172839506172839,0,0)" xlink:href="#A"/><use transform="matrix(0.06172839506172839,0,0,0.06172839506172839,14.814814814814813,0)" xlink:href="#L"/><use transform="matrix(0.06172839506172839,0,0,0.06172839506172839,27.160493827160494,0)" xlink:href="#N"/><use transform="matrix(0.06172839506172839,0,0,0.06172839506172839,39.50617283950617,0)" xlink:href="#D"/><use transform="matrix(0.06172839506172839,0,0,0.06172839506172839,50.61728395061728,0)" xlink:href="#C"/><use transform="matrix(0.06172839506172839,0,0,0.06172839506172839,62.962962962962955,0)" xlink:href="#K"/><use transform="matrix(0.06172839506172839,0,0,0.06172839506172839,81.41975308641975,0)" xlink:href="#C"/><use transform="matrix(0.06172839506172839,0,0,0.06172839506172839,93.76543209876543,0)" xlink:href="#M"/><use transform="matrix(0.06172839506172839,0,0,0.06172839506172839,106.11111111111111,0)" xlink:href="#N"/></g></defs></g></svg>