<svg xmlns="http://www.w3.org/2000/svg" xmlns:xlink="http://www.w3.org/1999/xlink" xmlns:lucid="lucid" width="1736" height="760"><g transform="translate(-20 0)" lucid:page-tab-id="aEk5cXtqXcXZ"><path d="M0 0h1760v1360H0z" fill="#fff"/><g fill="none"><path d="M893.2 349.5v350"/><path d="M893.2 349.5v5.06m0 5.08v10.14m0 5.07V385m0 5.07v10.15m0 5.07v10.13m0 5.08v10.15m0 5.07v10.15m0 5.07v10.15m0 5.06v10.15m0 5.08v10.14m0 5.08v10.14m0 5.07v10.16m0 5.07v10.15m0 5.07v10.14m0 5.07v10.14m0 5.08v10.15m0 5.07v10.15m0 5.07v10.15m0 5.07v10.14m0 5.08v10.14m0 5.07v10.15m0 5.07v10.14m0 5.07v10.16m0 5.07v5.07" stroke="#3a414a" stroke-linecap="round"/></g><g fill="none"><path d="M1218.54 341.84V699.5"/><path d="M1218.54 341.84v4.97m0 4.97v9.94m0 4.98v9.93m0 4.98v9.93m0 4.98v9.94m0 4.96v9.94m0 4.97v9.92m0 4.97v9.92m0 4.97v9.93m0 4.96v9.93m0 4.97v9.93m0 4.97v9.93m0 4.97v9.94m0 4.96v9.94m0 4.97v9.94m0 4.97v9.95m0 4.96v9.95m0 4.97v9.93m0 4.97v9.93m0 4.97v9.94m0 4.96v9.94m0 4.97v9.93m0 4.97v9.93m0 4.97v9.94m0 4.96v4.97" stroke="#3a414a" stroke-linecap="round"/></g><g fill="none"><path d="M526.56 349.5v350"/><path d="M526.56 349.5v5.06m0 5.08v10.14m0 5.07V385m0 5.07v10.15m0 5.07v10.13m0 5.08v10.15m0 5.07v10.15m0 5.07v10.15m0 5.06v10.15m0 5.08v10.14m0 5.08v10.14m0 5.07v10.16m0 5.07v10.15m0 5.07v10.14m0 5.07v10.14m0 5.08v10.15m0 5.07v10.15m0 5.07v10.15m0 5.07v10.14m0 5.08v10.14m0 5.07v10.15m0 5.07v10.14m0 5.07v10.16m0 5.07v5.07" stroke="#3a414a" stroke-linecap="round"/></g><path d="M144.56 383.52a6 6 0 0 1 6-6h8a6 6 0 0 1 6 6v308a6 6 0 0 1-6 6h-8a6 6 0 0 1-6-6z" stroke="#3a414a" fill="url(#a)"/><path d="M515.25 383.52a6 6 0 0 1 6-6h10.63a6 6 0 0 1 6 6v257.95a6 6 0 0 1-6 6h-10.63a6 6 0 0 1-6-6z" stroke="#3a414a" fill="#635dff"/><path d="M881.88 383.52a6 6 0 0 1 6-6h10.63a6 6 0 0 1 6 6v137.95a6 6 0 0 1-6 6H887.9a6 6 0 0 1-6-6zM1208.04 383.52a6 6 0 0 1 6-6h8.55a6 6 0 0 1 6 6v177.95a6 6 0 0 1-6 6h-8.56a6 6 0 0 1-6-6z" stroke="#3a414a" fill="#1071e5"/><path d="M395.86 244.98a6 6 0 0 1 6-6h249.4a6 6 0 0 1 6 6v96.73a6 6 0 0 1-6 6h-249.4a6 6 0 0 1-6-6z" stroke="#3a414a" fill="#fff"/><use xlink:href="#b" transform="matrix(1,0,0,1,400.8615639700735,243.9832489406819) translate(44.05555555555557 54.90277777777778)"/><path d="M760.4 245a6 6 0 0 1 6-6h253.58a6 6 0 0 1 6 6v96.7a6 6 0 0 1-6 6H766.4a6 6 0 0 1-6-6z" stroke="#3a414a" fill="#fff"/><use xlink:href="#c" transform="matrix(1,0,0,1,765.4041478380302,244.00555555555565) translate(53.40123456790123 54.90277777777778)"/><path d="M1099.5 251.4a6 6 0 0 1 6-6h259.52a6 6 0 0 1 6 6v90.3a6 6 0 0 1-6 6H1105.5a6 6 0 0 1-6-6z" stroke="#3a414a" fill="#fff"/><use xlink:href="#d" transform="matrix(1,0,0,1,1104.5,250.39861111111105) translate(73.65432098765432 49.74652777777778)"/><path d="M165.56 416.44h332.81" stroke="#3a414a" fill="none"/><path d="M165.57 416.92h-.5v-.95h.5z" stroke="#3a414a" stroke-width=".05" fill="#3a414a"/><path d="M513.13 416.44l-14.26 4.64v-9.27z" stroke="#3a414a" fill="#3a414a"/><path d="M538.88 468.4h326.1" stroke="#3a414a" fill="none"/><path d="M538.9 468.87h-.52v-.95h.5z" stroke="#3a414a" stroke-width=".05" fill="#3a414a"/><path d="M879.76 468.4l-14.27 4.63v-9.28z" stroke="#3a414a" fill="#3a414a"/><path d="M905.5 507.93h150.75a.02.02 0 0 1 .02.02.02.02 0 0 0 .02 0h134.85" stroke="#3a414a" fill="none"/><path d="M905.52 508.4h-.5v-.94h.5z" stroke="#3a414a" stroke-width=".05" fill="#3a414a"/><path d="M1205.92 507.96l-14.27 4.64v-9.27z" stroke="#3a414a" fill="#3a414a"/><path d="M127.36 383.52a6 6 0 0 1 6-6h387.7a6 6 0 0 1 6 6v28.5a6 6 0 0 1-6 6h-387.7a6 6 0 0 1-6-6z" stroke="#000" stroke-opacity="0" fill="#fff" fill-opacity="0"/><use xlink:href="#e" transform="matrix(1,0,0,1,132.3598274905296,382.52175918492145) translate(87.12962962962965 19.71527777777778)"/><use xlink:href="#f" transform="matrix(1,0,0,1,132.3598274905296,382.52175918492145) translate(168.5493827160494 19.71527777777778)"/><use xlink:href="#g" transform="matrix(1,0,0,1,132.3598274905296,382.52175918492145) translate(282.0061728395062 19.71527777777778)"/><use xlink:href="#h" transform="matrix(1,0,0,1,132.3598274905296,382.52175918492145) translate(295.5246913580247 19.71527777777778)"/><path d="M544.35 433.47a6 6 0 0 1 6-6h327.4a6 6 0 0 1 6 6v28.97a6 6 0 0 1-6 6h-327.4a6 6 0 0 1-6-6z" stroke="#000" stroke-opacity="0" fill="#fff" fill-opacity="0"/><use xlink:href="#i" transform="matrix(1,0,0,1,549.3507131983229,432.4666666666665) translate(53.42592592592594 19.71527777777778)"/><use xlink:href="#j" transform="matrix(1,0,0,1,549.3507131983229,432.4666666666665) translate(90.46296296296298 19.71527777777778)"/><use xlink:href="#k" transform="matrix(1,0,0,1,549.3507131983229,432.4666666666665) translate(261.8827160493827 19.71527777777778)"/><path d="M923.5 474.44a6 6 0 0 1 6-6h259.52a6 6 0 0 1 6 6v28a6 6 0 0 1-6 6H929.5a6 6 0 0 1-6-6z" stroke="#000" stroke-opacity="0" fill="#fff" fill-opacity="0"/><use xlink:href="#l" transform="matrix(1,0,0,1,928.5039782733128,473.44537037037037) translate(32.35802469135801 19.71527777777778)"/><use xlink:href="#m" transform="matrix(1,0,0,1,928.5039782733128,473.44537037037037) translate(94.0864197530864 19.71527777777778)"/><use xlink:href="#h" transform="matrix(1,0,0,1,928.5039782733128,473.44537037037037) translate(222.2962962962963 19.71527777777778)"/><a xlink:href="http://1.1.1.Game" target="_blank" transform="matrix(1,0,0,1,928.5039782733128,473.44537037037037)"><path class="lucid-link lucid-hotspot lucid-overlay-hotspot" fill-opacity="0" d="M32.36 1.94h49.38V28.6H32.36z"/></a><path d="M191.6 92.4c0 17.9-14.5 32.42-32.4 32.42s-32.42-14.5-32.42-32.4S141.28 60 159.18 60s32.42 14.5 32.42 32.4z" stroke="#3a414a" fill="#fff"/><path d="M159.2 124.82v84.76a17.75 17.75 0 0 0 3.63 10.77l75.55 98.94m-79.2-103.72L80 319.28m0-162.04h158.38" stroke="#3a414a" fill="none"/><path d="M80 66a6 6 0 0 1 6-6h146.38a6 6 0 0 1 6 6v269.3a6 6 0 0 1-6 6H86a6 6 0 0 1-6-6z" fill="none"/><use xlink:href="#n" transform="matrix(1,0,0,1,0,319.2944444444445) translate(133.60493827160494 17.77777777777778)"/><g fill="none"><path d="M1542.12 389.8v309.7"/><path d="M1542.12 389.8v4.92m0 4.92v9.83m0 4.92v9.82m0 4.9v9.85m0 4.9v9.84m0 4.93v9.83m0 4.92v9.83m0 4.92v9.83m0 4.92v9.83m0 4.92v9.83m0 4.9v9.85m0 4.9v9.84m0 4.92v9.83m0 4.9v9.84m0 4.9v9.85m0 4.9v9.83m0 4.92v9.83m0 4.92v9.83m0 4.9v9.84m0 4.92v9.82m0 4.92v9.83m0 4.9v4.93" stroke="#3a414a" stroke-linecap="round"/></g><path d="M1531.62 383.52a6 6 0 0 1 6-6h11.32a6 6 0 0 1 6 6V634a6 6 0 0 1-6 6h-11.32a6 6 0 0 1-6-6z" stroke="#3a414a" fill="#1071e5"/><path d="M1423.1 252.7a6 6 0 0 1 6-6h259.5a6 6 0 0 1 6 6V343a6 6 0 0 1-6 6h-259.5a6 6 0 0 1-6-6z" stroke="#3a414a" fill="#fff"/><use xlink:href="#o" transform="matrix(1,0,0,1,1428.086381557245,251.70092592592596) translate(38.530864197530875 49.74652777777778)"/><path d="M1229.6 540.66h285.14" stroke="#3a414a" fill="none"/><path d="M1229.6 541.14h-.5v-.95h.5z" stroke="#3a414a" stroke-width=".05" fill="#3a414a"/><path d="M1529.5 540.66l-14.26 4.64v-9.27z" stroke="#3a414a" fill="#3a414a"/><path d="M1244.35 506a6 6 0 0 1 6-6h259.52a6 6 0 0 1 6 6v28a6 6 0 0 1-6 6h-259.52a6 6 0 0 1-6-6z" stroke="#000" stroke-opacity="0" fill="#fff" fill-opacity="0"/><use xlink:href="#p" transform="matrix(1,0,0,1,1249.3487540575986,505) translate(32.97530864197532 19.71527777777778)"/><use xlink:href="#q" transform="matrix(1,0,0,1,1249.3487540575986,505) translate(113.22222222222223 19.71527777777778)"/><use xlink:href="#h" transform="matrix(1,0,0,1,1249.3487540575986,505) translate(221.679012345679 19.71527777777778)"/><g transform="matrix(1,0,0,1,1249.3487540575986,505)"><a xlink:href="http://1.1.1.Game" target="_blank"><path class="lucid-link lucid-hotspot lucid-overlay-hotspot" fill-opacity="0" d="M32.98 1.94h49.38V28.6H32.98z"/></a></g><path d="M1530.62 613.9h-5m-5 0h-10.03m-5.02 0h-10.02m-5 0h-10.02m-5 0h-10.03m-5 0h-10.02m-5 0h-10.02m-5 0h-10.03m-5 0h-10.03m-5 0h-10.02m-5 0h-10.03m-5 0h-10.03m-5 0h-10.02m-5 0h-10.03m-5 0h-10.03m-5 0h-10.02m-5 0h-10.03m-5.02 0h-10.02m-5 0h-10.02m-5 0h-10.03m-5 0h-10m-5.02 0h-10.02m-5 0h-10.03m-5 0H1180m-5 0h-10.02m-5 0h-10.03m-5 0h-10.02m-5 0h-10.03m-5 0h-10.03m-5 0h-10.02m-5 0h-10.03m-5 0h-10.02m-5 0h-10.03m-5 0h-10.02m-5 0h-10m-5 0h-10m-5 0h-10m-5 0h-10m-5 0h-10m-5 0h-10m-5 0h-10m-5 0h-10m-5 0h-10m-5 0h-10m-5 0h-10m-5 0h-10m-5 0h-10m-5 0h-10m-5 0h-10m-5 0h-10m-5 0h-10m-5 0h-10m-5 0h-10m-5 0h-10m-5 0h-10m-5 0h-10m-5 0h-10m-5 0h-10m-5 0h-10m-5 0h-10m-5 0h-10m-5 0h-10m-5 0h-10m-5 0h-10m-5 0h-10m-5 0h-5" stroke="#3a414a" fill="none"/><path d="M1531.12 614.38h-.5v-.95h.5z" stroke="#3a414a" stroke-width=".05" fill="#3a414a"/><path d="M540 613.9l14.26-4.63v9.27z" stroke="#3a414a" fill="#3a414a"/><path d="M1198.3 546a6 6 0 0 1 6-6h28a6 6 0 0 1 6 6v28a6 6 0 0 1-6 6h-28a6 6 0 0 1-6-6z" fill="none"/><path d="M1202.3 544l32 32m0-32l-32 32" stroke="#3a414a" stroke-width="8" fill="none"/><path d="M1523.28 626a6 6 0 0 1 6-6h28a6 6 0 0 1 6 6v28a6 6 0 0 1-6 6h-28a6 6 0 0 1-6-6z" fill="none"/><path d="M1527.28 624l32 32m0-32l-32 32" stroke="#3a414a" stroke-width="8" fill="none"/><defs><linearGradient gradientUnits="userSpaceOnUse" id="a" x1="144.56" y1="377.52" x2="144.56" y2="697.52"><stop offset="0%" stop-color="#909aa9"/><stop offset="50.01%" stop-color="#6b7686"/><stop offset="100%" stop-color="#4c535f"/></linearGradient><path fill="#3a414a" d="M240 0l2-218c-23 76-54 145-80 218h-23L58-218 59 0H30v-248h44l77 211c21-75 51-140 76-211h43V0h-30" id="r"/><path fill="#3a414a" d="M141-36C126-15 110 5 73 4 37 3 15-17 15-53c-1-64 63-63 125-63 3-35-9-54-41-54-24 1-41 7-42 31l-33-3c5-37 33-52 76-52 45 0 72 20 72 64v82c-1 20 7 32 28 27v20c-31 9-61-2-59-35zM48-53c0 20 12 33 32 33 41-3 63-29 60-74-43 2-92-5-92 41" id="s"/><path fill="#3a414a" d="M24-231v-30h32v30H24zM24 0v-190h32V0H24" id="t"/><path fill="#3a414a" d="M117-194c89-4 53 116 60 194h-32v-121c0-31-8-49-39-48C34-167 62-67 57 0H25l-1-190h30c1 10-1 24 2 32 11-22 29-35 61-36" id="u"/><path fill="#3a414a" d="M100-194c63 0 86 42 84 106H49c0 40 14 67 53 68 26 1 43-12 49-29l28 8c-11 28-37 45-77 45C44 4 14-33 15-96c1-61 26-98 85-98zm52 81c6-60-76-77-97-28-3 7-6 17-6 28h103" id="v"/><path fill="#3a414a" d="M84 4C-5 8 30-112 23-190h32v120c0 31 7 50 39 49 72-2 45-101 50-169h31l1 190h-30c-1-10 1-25-2-33-11 22-28 36-60 37" id="w"/><path fill="#3a414a" d="M100-194c62-1 85 37 85 99 1 63-27 99-86 99S16-35 15-95c0-66 28-99 85-99zM99-20c44 1 53-31 53-75 0-43-8-75-51-75s-53 32-53 75 10 74 51 75" id="x"/><path fill="#3a414a" d="M85-194c31 0 48 13 60 33l-1-100h32l1 261h-30c-2-10 0-23-3-31C134-8 116 4 85 4 32 4 16-35 15-94c0-66 23-100 70-100zm9 24c-40 0-46 34-46 75 0 40 6 74 45 74 42 0 51-32 51-76 0-42-9-74-50-73" id="y"/><path fill="#3a414a" d="M24 0v-261h32V0H24" id="z"/><g id="b"><use transform="matrix(0.06172839506172839,0,0,0.06172839506172839,0,0)" xlink:href="#r"/><use transform="matrix(0.06172839506172839,0,0,0.06172839506172839,18.456790123456788,0)" xlink:href="#s"/><use transform="matrix(0.06172839506172839,0,0,0.06172839506172839,30.80246913580247,0)" xlink:href="#t"/><use transform="matrix(0.06172839506172839,0,0,0.06172839506172839,35.67901234567901,0)" xlink:href="#u"/><use transform="matrix(0.06172839506172839,0,0,0.06172839506172839,48.02469135802469,0)" xlink:href="#r"/><use transform="matrix(0.06172839506172839,0,0,0.06172839506172839,66.48148148148148,0)" xlink:href="#v"/><use transform="matrix(0.06172839506172839,0,0,0.06172839506172839,78.82716049382717,0)" xlink:href="#u"/><use transform="matrix(0.06172839506172839,0,0,0.06172839506172839,91.17283950617285,0)" xlink:href="#w"/><use transform="matrix(0.06172839506172839,0,0,0.06172839506172839,103.51851851851853,0)" xlink:href="#r"/><use transform="matrix(0.06172839506172839,0,0,0.06172839506172839,121.97530864197532,0)" xlink:href="#x"/><use transform="matrix(0.06172839506172839,0,0,0.06172839506172839,134.320987654321,0)" xlink:href="#y"/><use transform="matrix(0.06172839506172839,0,0,0.06172839506172839,146.66666666666666,0)" xlink:href="#v"/><use transform="matrix(0.06172839506172839,0,0,0.06172839506172839,159.01234567901233,0)" xlink:href="#z"/></g><path fill="#3a414a" d="M212-179c-10-28-35-45-73-45-59 0-87 40-87 99 0 60 29 101 89 101 43 0 62-24 78-52l27 14C228-24 195 4 139 4 59 4 22-46 18-125c-6-104 99-153 187-111 19 9 31 26 39 46" id="A"/><path fill="#3a414a" d="M59-47c-2 24 18 29 38 22v24C64 9 27 4 27-40v-127H5v-23h24l9-43h21v43h35v23H59v120" id="B"/><path fill="#3a414a" d="M143 4C61 4 22-44 18-125c-5-107 100-154 193-111 17 8 29 25 37 43l-32 9c-13-25-37-40-76-40-61 0-88 39-88 99 0 61 29 100 91 101 35 0 62-11 79-27v-45h-74v-28h105v86C228-13 192 4 143 4" id="C"/><path fill="#3a414a" d="M210-169c-67 3-38 105-44 169h-31v-121c0-29-5-50-35-48C34-165 62-65 56 0H25l-1-190h30c1 10-1 24 2 32 10-44 99-50 107 0 11-21 27-35 58-36 85-2 47 119 55 194h-31v-121c0-29-5-49-35-48" id="D"/><g id="c"><use transform="matrix(0.06172839506172839,0,0,0.06172839506172839,0,0)" xlink:href="#A"/><use transform="matrix(0.06172839506172839,0,0,0.06172839506172839,15.987654320987653,0)" xlink:href="#x"/><use transform="matrix(0.06172839506172839,0,0,0.06172839506172839,28.333333333333332,0)" xlink:href="#u"/><use transform="matrix(0.06172839506172839,0,0,0.06172839506172839,40.67901234567901,0)" xlink:href="#B"/><use transform="matrix(0.06172839506172839,0,0,0.06172839506172839,46.851851851851855,0)" xlink:href="#t"/><use transform="matrix(0.06172839506172839,0,0,0.06172839506172839,51.7283950617284,0)" xlink:href="#u"/><use transform="matrix(0.06172839506172839,0,0,0.06172839506172839,64.07407407407408,0)" xlink:href="#w"/><use transform="matrix(0.06172839506172839,0,0,0.06172839506172839,76.41975308641976,0)" xlink:href="#v"/><use transform="matrix(0.06172839506172839,0,0,0.06172839506172839,88.76543209876544,0)" xlink:href="#C"/><use transform="matrix(0.06172839506172839,0,0,0.06172839506172839,106.0493827160494,0)" xlink:href="#s"/><use transform="matrix(0.06172839506172839,0,0,0.06172839506172839,118.39506172839508,0)" xlink:href="#D"/><use transform="matrix(0.06172839506172839,0,0,0.06172839506172839,136.85185185185188,0)" xlink:href="#v"/></g><path fill="#3a414a" d="M30 0v-248h33v221h125V0H30" id="E"/><path fill="#3a414a" d="M108 0H70L1-190h34L89-25l56-165h34" id="F"/><path fill="#3a414a" d="M185-189c-5-48-123-54-124 2 14 75 158 14 163 119 3 78-121 87-175 55-17-10-28-26-33-46l33-7c5 56 141 63 141-1 0-78-155-14-162-118-5-82 145-84 179-34 5 7 8 16 11 25" id="G"/><path fill="#3a414a" d="M96-169c-40 0-48 33-48 73s9 75 48 75c24 0 41-14 43-38l32 2c-6 37-31 61-74 61-59 0-76-41-82-99-10-93 101-131 147-64 4 7 5 14 7 22l-32 3c-4-21-16-35-41-35" id="H"/><g id="d"><use transform="matrix(0.06172839506172839,0,0,0.06172839506172839,0,0)" xlink:href="#E"/><use transform="matrix(0.06172839506172839,0,0,0.06172839506172839,12.345679012345679,0)" xlink:href="#v"/><use transform="matrix(0.06172839506172839,0,0,0.06172839506172839,24.691358024691358,0)" xlink:href="#F"/><use transform="matrix(0.06172839506172839,0,0,0.06172839506172839,35.80246913580247,0)" xlink:href="#v"/><use transform="matrix(0.06172839506172839,0,0,0.06172839506172839,48.148148148148145,0)" xlink:href="#z"/><use transform="matrix(0.06172839506172839,0,0,0.06172839506172839,53.02469135802469,0)" xlink:href="#G"/><use transform="matrix(0.06172839506172839,0,0,0.06172839506172839,67.8395061728395,0)" xlink:href="#v"/><use transform="matrix(0.06172839506172839,0,0,0.06172839506172839,80.18518518518519,0)" xlink:href="#z"/><use transform="matrix(0.06172839506172839,0,0,0.06172839506172839,85.06172839506173,0)" xlink:href="#v"/><use transform="matrix(0.06172839506172839,0,0,0.06172839506172839,97.40740740740742,0)" xlink:href="#H"/><use transform="matrix(0.06172839506172839,0,0,0.06172839506172839,108.51851851851853,0)" xlink:href="#B"/></g><path fill="#3a414a" d="M27 0v-27h64v-190l-56 39v-29l58-41h29v221h61V0H27" id="I"/><path fill="#3a414a" d="M33 0v-38h34V0H33" id="J"/><path fill="#3a414a" d="M30-248c87 1 191-15 191 75 0 78-77 80-158 76V0H30v-248zm33 125c57 0 124 11 124-50 0-59-68-47-124-48v98" id="K"/><path fill="#3a414a" d="M114-163C36-179 61-72 57 0H25l-1-190h30c1 12-1 29 2 39 6-27 23-49 58-41v29" id="L"/><path fill="#3a414a" d="M135-143c-3-34-86-38-87 0 15 53 115 12 119 90S17 21 10-45l28-5c4 36 97 45 98 0-10-56-113-15-118-90-4-57 82-63 122-42 12 7 21 19 24 35" id="M"/><g id="e"><use transform="matrix(0.06172839506172839,0,0,0.06172839506172839,0,0)" xlink:href="#I"/><use transform="matrix(0.06172839506172839,0,0,0.06172839506172839,12.345679012345679,0)" xlink:href="#J"/><use transform="matrix(0.06172839506172839,0,0,0.06172839506172839,18.51851851851852,0)" xlink:href="#K"/><use transform="matrix(0.06172839506172839,0,0,0.06172839506172839,33.33333333333333,0)" xlink:href="#L"/><use transform="matrix(0.06172839506172839,0,0,0.06172839506172839,40.679012345679006,0)" xlink:href="#v"/><use transform="matrix(0.06172839506172839,0,0,0.06172839506172839,53.02469135802468,0)" xlink:href="#M"/><use transform="matrix(0.06172839506172839,0,0,0.06172839506172839,64.1358024691358,0)" xlink:href="#M"/></g><g id="f"><use transform="matrix(0.06172839506172839,0,0,0.06172839506172839,0,0)" xlink:href="#G"/><use transform="matrix(0.06172839506172839,0,0,0.06172839506172839,14.814814814814813,0)" xlink:href="#B"/><use transform="matrix(0.06172839506172839,0,0,0.06172839506172839,20.98765432098765,0)" xlink:href="#s"/><use transform="matrix(0.06172839506172839,0,0,0.06172839506172839,33.33333333333333,0)" xlink:href="#L"/><use transform="matrix(0.06172839506172839,0,0,0.06172839506172839,40.679012345679006,0)" xlink:href="#B"/><use transform="matrix(0.06172839506172839,0,0,0.06172839506172839,46.85185185185185,0)" xlink:href="#C"/><use transform="matrix(0.06172839506172839,0,0,0.06172839506172839,64.1358024691358,0)" xlink:href="#s"/><use transform="matrix(0.06172839506172839,0,0,0.06172839506172839,76.48148148148148,0)" xlink:href="#D"/><use transform="matrix(0.06172839506172839,0,0,0.06172839506172839,94.93827160493827,0)" xlink:href="#v"/></g><path fill="#3a414a" d="M87 75C49 33 22-17 22-94c0-76 28-126 65-167h31c-38 41-64 92-64 168S80 34 118 75H87" id="N"/><use transform="matrix(0.06172839506172839,0,0,0.06172839506172839,0,0)" xlink:href="#N" id="g"/><path fill="#3a414a" d="M33-261c38 41 65 92 65 168S71 34 33 75H2C39 34 66-17 66-93S39-220 2-261h31" id="O"/><use transform="matrix(0.06172839506172839,0,0,0.06172839506172839,0,0)" xlink:href="#O" id="h"/><g id="i"><use transform="matrix(0.06172839506172839,0,0,0.06172839506172839,0,0)" xlink:href="#I"/><use transform="matrix(0.06172839506172839,0,0,0.06172839506172839,12.345679012345679,0)" xlink:href="#J"/><use transform="matrix(0.06172839506172839,0,0,0.06172839506172839,18.51851851851852,0)" xlink:href="#I"/></g><path fill="#3a414a" d="M106-169C34-169 62-67 57 0H25v-261h32l-1 103c12-21 28-36 61-36 89 0 53 116 60 194h-32v-121c2-32-8-49-39-48" id="P"/><g id="j"><use transform="matrix(0.06172839506172839,0,0,0.06172839506172839,0,0)" xlink:href="#A"/><use transform="matrix(0.06172839506172839,0,0,0.06172839506172839,15.987654320987653,0)" xlink:href="#P"/><use transform="matrix(0.06172839506172839,0,0,0.06172839506172839,28.333333333333332,0)" xlink:href="#x"/><use transform="matrix(0.06172839506172839,0,0,0.06172839506172839,40.67901234567901,0)" xlink:href="#x"/><use transform="matrix(0.06172839506172839,0,0,0.06172839506172839,53.02469135802469,0)" xlink:href="#M"/><use transform="matrix(0.06172839506172839,0,0,0.06172839506172839,64.1358024691358,0)" xlink:href="#v"/><use transform="matrix(0.06172839506172839,0,0,0.06172839506172839,76.48148148148148,0)" xlink:href="#A"/><use transform="matrix(0.06172839506172839,0,0,0.06172839506172839,92.46913580246914,0)" xlink:href="#x"/><use transform="matrix(0.06172839506172839,0,0,0.06172839506172839,104.81481481481482,0)" xlink:href="#u"/><use transform="matrix(0.06172839506172839,0,0,0.06172839506172839,117.16049382716051,0)" xlink:href="#B"/><use transform="matrix(0.06172839506172839,0,0,0.06172839506172839,123.33333333333334,0)" xlink:href="#t"/><use transform="matrix(0.06172839506172839,0,0,0.06172839506172839,128.20987654320987,0)" xlink:href="#u"/><use transform="matrix(0.06172839506172839,0,0,0.06172839506172839,140.55555555555554,0)" xlink:href="#w"/><use transform="matrix(0.06172839506172839,0,0,0.06172839506172839,152.9012345679012,0)" xlink:href="#v"/></g><g id="k"><use transform="matrix(0.06172839506172839,0,0,0.06172839506172839,0,0)" xlink:href="#N"/><use transform="matrix(0.06172839506172839,0,0,0.06172839506172839,7.345679012345679,0)" xlink:href="#O"/></g><g id="l"><use transform="matrix(0.06172839506172839,0,0,0.06172839506172839,0,0)" xlink:href="#I"/><use transform="matrix(0.06172839506172839,0,0,0.06172839506172839,12.345679012345679,0)" xlink:href="#J"/><use transform="matrix(0.06172839506172839,0,0,0.06172839506172839,18.51851851851852,0)" xlink:href="#I"/><use transform="matrix(0.06172839506172839,0,0,0.06172839506172839,30.864197530864196,0)" xlink:href="#J"/><use transform="matrix(0.06172839506172839,0,0,0.06172839506172839,37.03703703703704,0)" xlink:href="#I"/><path fill="#8080ff" d="M-1.1 1.54h51.6v1.63H-1.1z"/></g><g id="m"><use transform="matrix(0.06172839506172839,0,0,0.06172839506172839,0,0)" xlink:href="#G"/><use transform="matrix(0.06172839506172839,0,0,0.06172839506172839,14.814814814814813,0)" xlink:href="#v"/><use transform="matrix(0.06172839506172839,0,0,0.06172839506172839,27.160493827160494,0)" xlink:href="#z"/><use transform="matrix(0.06172839506172839,0,0,0.06172839506172839,32.03703703703704,0)" xlink:href="#v"/><use transform="matrix(0.06172839506172839,0,0,0.06172839506172839,44.382716049382715,0)" xlink:href="#H"/><use transform="matrix(0.06172839506172839,0,0,0.06172839506172839,55.49382716049382,0)" xlink:href="#B"/><use transform="matrix(0.06172839506172839,0,0,0.06172839506172839,61.666666666666664,0)" xlink:href="#E"/><use transform="matrix(0.06172839506172839,0,0,0.06172839506172839,74.01234567901234,0)" xlink:href="#v"/><use transform="matrix(0.06172839506172839,0,0,0.06172839506172839,86.35802469135803,0)" xlink:href="#F"/><use transform="matrix(0.06172839506172839,0,0,0.06172839506172839,97.46913580246914,0)" xlink:href="#v"/><use transform="matrix(0.06172839506172839,0,0,0.06172839506172839,109.81481481481482,0)" xlink:href="#z"/><use transform="matrix(0.06172839506172839,0,0,0.06172839506172839,114.69135802469137,0)" xlink:href="#N"/></g><path fill="#3a414a" d="M205 0l-28-72H64L36 0H1l101-248h38L239 0h-34zm-38-99l-47-123c-12 45-31 82-46 123h93" id="Q"/><g id="n"><use transform="matrix(0.06172839506172839,0,0,0.06172839506172839,0,0)" xlink:href="#Q"/><use transform="matrix(0.06172839506172839,0,0,0.06172839506172839,14.814814814814813,0)" xlink:href="#H"/><use transform="matrix(0.06172839506172839,0,0,0.06172839506172839,25.925925925925924,0)" xlink:href="#B"/><use transform="matrix(0.06172839506172839,0,0,0.06172839506172839,32.098765432098766,0)" xlink:href="#x"/><use transform="matrix(0.06172839506172839,0,0,0.06172839506172839,44.44444444444444,0)" xlink:href="#L"/></g><path fill="#3a414a" d="M30 0v-248h187v28H63v79h144v27H63v87h162V0H30" id="R"/><g id="o"><use transform="matrix(0.06172839506172839,0,0,0.06172839506172839,0,0)" xlink:href="#C"/><use transform="matrix(0.06172839506172839,0,0,0.06172839506172839,17.28395061728395,0)" xlink:href="#s"/><use transform="matrix(0.06172839506172839,0,0,0.06172839506172839,29.629629629629626,0)" xlink:href="#D"/><use transform="matrix(0.06172839506172839,0,0,0.06172839506172839,48.08641975308642,0)" xlink:href="#v"/><use transform="matrix(0.06172839506172839,0,0,0.06172839506172839,60.432098765432094,0)" xlink:href="#R"/><use transform="matrix(0.06172839506172839,0,0,0.06172839506172839,75.24691358024691,0)" xlink:href="#u"/><use transform="matrix(0.06172839506172839,0,0,0.06172839506172839,87.5925925925926,0)" xlink:href="#F"/><use transform="matrix(0.06172839506172839,0,0,0.06172839506172839,98.70370370370371,0)" xlink:href="#t"/><use transform="matrix(0.06172839506172839,0,0,0.06172839506172839,103.58024691358025,0)" xlink:href="#L"/><use transform="matrix(0.06172839506172839,0,0,0.06172839506172839,110.92592592592594,0)" xlink:href="#x"/><use transform="matrix(0.06172839506172839,0,0,0.06172839506172839,123.27160493827162,0)" xlink:href="#u"/><use transform="matrix(0.06172839506172839,0,0,0.06172839506172839,135.6172839506173,0)" xlink:href="#D"/><use transform="matrix(0.06172839506172839,0,0,0.06172839506172839,154.07407407407408,0)" xlink:href="#v"/><use transform="matrix(0.06172839506172839,0,0,0.06172839506172839,166.41975308641975,0)" xlink:href="#u"/><use transform="matrix(0.06172839506172839,0,0,0.06172839506172839,178.76543209876542,0)" xlink:href="#B"/></g><g id="p"><use transform="matrix(0.06172839506172839,0,0,0.06172839506172839,0,0)" xlink:href="#I"/><use transform="matrix(0.06172839506172839,0,0,0.06172839506172839,12.345679012345679,0)" xlink:href="#J"/><use transform="matrix(0.06172839506172839,0,0,0.06172839506172839,18.51851851851852,0)" xlink:href="#I"/><use transform="matrix(0.06172839506172839,0,0,0.06172839506172839,30.864197530864196,0)" xlink:href="#J"/><use transform="matrix(0.06172839506172839,0,0,0.06172839506172839,37.03703703703704,0)" xlink:href="#I"/><path fill="#8080ff" d="M-1.1 1.54h51.6v1.63H-1.1z"/><use transform="matrix(0.06172839506172839,0,0,0.06172839506172839,49.382716049382715,0)" xlink:href="#J"/><use transform="matrix(0.06172839506172839,0,0,0.06172839506172839,55.55555555555556,0)" xlink:href="#I"/></g><g id="q"><use transform="matrix(0.06172839506172839,0,0,0.06172839506172839,0,0)" xlink:href="#z"/><use transform="matrix(0.06172839506172839,0,0,0.06172839506172839,4.876543209876543,0)" xlink:href="#x"/><use transform="matrix(0.06172839506172839,0,0,0.06172839506172839,17.22222222222222,0)" xlink:href="#s"/><use transform="matrix(0.06172839506172839,0,0,0.06172839506172839,29.5679012345679,0)" xlink:href="#y"/><use transform="matrix(0.06172839506172839,0,0,0.06172839506172839,41.913580246913575,0)" xlink:href="#E"/><use transform="matrix(0.06172839506172839,0,0,0.06172839506172839,54.25925925925925,0)" xlink:href="#v"/><use transform="matrix(0.06172839506172839,0,0,0.06172839506172839,66.60493827160494,0)" xlink:href="#F"/><use transform="matrix(0.06172839506172839,0,0,0.06172839506172839,77.71604938271605,0)" xlink:href="#v"/><use transform="matrix(0.06172839506172839,0,0,0.06172839506172839,90.06172839506173,0)" xlink:href="#z"/><use transform="matrix(0.06172839506172839,0,0,0.06172839506172839,94.93827160493828,0)" xlink:href="#N"/></g></defs></g></svg>