<svg xmlns="http://www.w3.org/2000/svg" xmlns:xlink="http://www.w3.org/1999/xlink" xmlns:lucid="lucid" width="1894" height="1282"><g transform="translate(0 0)" lucid:page-tab-id="b9k5O6L~XPK."><path d="M0 0h3456v1360H0z" fill="#fff"/><g fill="none"><path d="M459.25 329.5v890"/><path d="M459.25 329.5v5.02m0 5.03v10.05m0 5.03v10.06m0 5.02v10.05m0 5.03v10.06m0 5.03v10.04m0 5.03v10.06m0 5.03v10.05m0 5.04v10.06m0 5.03v10.05m0 5.03v10.07m0 5.03v10.05m0 5.03v10.06m0 5.03v10.05m0 5.03v10.06m0 5.04v10.05m0 5.02v10.06m0 5.03v10.06m0 5.03v10.05m0 5.03v10.05m0 5.03v10.06m0 5.02v10.06m0 5.03v10.06m0 5v10.07m0 5.03v10.06m0 5.02v10.06m0 5.03v10.06m0 5.02v10.06m0 5.04v10.06m0 5.02v10.06m0 5.03v10.07m0 5.02v10.05m0 5.03v10.06m0 5.02v10.06m0 5.03v10.06m0 5.03v10.06m0 5.02v10.06m0 5.02v10.06m0 5.03v10.05m0 5.02v10.06m0 5.03v10.05m0 5.04V953m0 5.03v10.05m0 5.03v10.07m0 5.03v10.05m0 5.03v10.06m0 5.03v10.05m0 5.03v10.06m0 5.04v10.05m0 5.02v10.06m0 5.03v10.06m0 5.03v10.05m0 5.03v10.05m0 5.03v10.06m0 5.03v10.05m0 5.03v10.06m0 5.02v10.05m0 5.03v10.06m0 5.03v10.04m0 5.03v5.03" stroke="#3a414a" stroke-linecap="round"/></g><path d="M98.62 363.52a6 6 0 0 1 6-6H114a6 6 0 0 1 6 6V1214a6 6 0 0 1-6 6h-9.38a6 6 0 0 1-6-6z" stroke="#3a414a" fill="url(#a)"/><path d="M447.93 363.52a6 6 0 0 1 6-6h13.63a6 6 0 0 1 6 6v820.46a6 6 0 0 1-6 6h-13.63a6 6 0 0 1-6-6z" stroke="#3a414a" fill="#1071e5"/><path d="M328.54 224.98a6 6 0 0 1 6-6h249.4a6 6 0 0 1 6 6v96.73a6 6 0 0 1-6 6h-249.4a6 6 0 0 1-6-6z" stroke="#3a414a" fill="#fff"/><use xlink:href="#b" transform="matrix(1,0,0,1,333.54438129324086,223.9832489406819) translate(44.05555555555557 54.90277777777778)"/><path d="M121 416.5h310.06" stroke="#3a414a" fill="none"/><path d="M121 416.97h-.5v-.95h.5z" stroke="#3a414a" stroke-width=".05" fill="#3a414a"/><path d="M445.8 416.5l-14.25 4.63v-9.27z" stroke="#3a414a" fill="#3a414a"/><path d="M152.2 386a6 6 0 0 1 6-6h251.53a6 6 0 0 1 6 6v18.3a6 6 0 0 1-6 6H158.2a6 6 0 0 1-6-6z" stroke="#000" stroke-opacity="0" fill="#fff" fill-opacity="0"/><use xlink:href="#c" transform="matrix(1,0,0,1,157.20715340695742,385) translate(5.518518518518533 19.09027777777778)"/><use xlink:href="#d" transform="matrix(1,0,0,1,157.20715340695742,385) translate(24.037037037037052 19.09027777777778)"/><use xlink:href="#e" transform="matrix(1,0,0,1,157.20715340695742,385) translate(227.61728395061726 19.09027777777778)"/><use xlink:href="#f" transform="matrix(1,0,0,1,157.20715340695742,385) translate(241.1358024691358 19.09027777777778)"/><g transform="matrix(1,0,0,1,157.20715340695742,385)"><a xlink:href="http://1.Press" target="_blank"><path class="lucid-link lucid-hotspot lucid-overlay-hotspot" fill-opacity="0" d="M5.52 1.3h12.35V28H5.52z"/></a><a xlink:href="http://1.Press" target="_blank"><path class="lucid-link lucid-hotspot lucid-overlay-hotspot" fill-opacity="0" d="M17.86 1.3h6.17V28h-6.17z"/></a><a xlink:href="http://1.Press" target="_blank"><path class="lucid-link lucid-hotspot lucid-overlay-hotspot" fill-opacity="0" d="M24.04 1.3h45.62V28H24.04z"/></a><a xlink:href="http://1.Press" target="_blank"><path class="lucid-link lucid-hotspot lucid-overlay-hotspot" fill-opacity="0" d="M69.65 1.3h11.1V28h-11.1z"/></a></g><path d="M145.66 72.4c0 17.9-14.5 32.42-32.4 32.42s-32.42-14.5-32.42-32.4S95.34 40 113.24 40s32.42 14.5 32.42 32.4z" stroke="#3a414a" fill="#fff"/><path d="M113.25 104.82v84.76a17.75 17.75 0 0 0 3.64 10.77l75.55 98.94m-79.2-103.72l-79.2 103.7m0-162.04h158.4" stroke="#3a414a" fill="none"/><path d="M34.06 46a6 6 0 0 1 6-6h146.4a6 6 0 0 1 6 6v269.3a6 6 0 0 1-6 6H40.05a6 6 0 0 1-6-6z" fill="none"/><use xlink:href="#g" transform="matrix(1,0,0,1,-45.938743676832644,299.2944444444445) translate(133.60493827160494 17.77777777777778)"/><g fill="none"><path d="M842.76 330.5v889"/><path d="M842.76 330.5v5.02m0 5.02v10.05m0 5v10.06m0 5.02v10.05m0 5.02v10.04m0 5.02v10.04m0 5.02v10.05m0 5.02V441m0 5.02v10.04m0 5.03v10.03m0 5.03v10.04m0 5.02v10.05m0 5.02v10.04m0 5.02v10.04m0 5.03v10.04m0 5.02v10.04m0 5.02v10.05m0 5.03v10.04m0 5.03v10.04m0 5.03v10.04m0 5.03v10.05m0 5.02v10.05m0 5.02V667m0 5.04v10.04m0 5.02v10.05m0 5.02v10.05m0 5.02v10.04m0 5.03v10.05m0 5.03v10.04m0 5.02v10.05m0 5v10.06m0 5.02v10.04m0 5.03v10.04m0 5v10.06m0 5.02v10.05m0 5.02v10.05m0 5.02v10.04m0 5.03v10.03m0 5.02v10.05m0 5.02v10.05m0 5.02v10.03m0 5.03v10.04m0 5.02v10.05m0 5.02v10.04m0 5.02v10.05m0 5.03v10.04m0 5.03v10.04m0 5.02v10.05m0 5.03v10.05m0 5.02v10.04m0 5.03v10.04m0 5.03v10.05m0 5.02v10.05m0 5.02v10.05m0 5.02v10.04m0 5.03v10.05m0 5.02v10.05m0 5.02v10.05m0 5v10.05m0 5.03v5.02" stroke="#3a414a" stroke-linecap="round"/></g><path d="M474.06 453.5H816.8M474.07 453.5h-.5" stroke="#3a414a" fill="none"/><path d="M831.56 453.5l-14.26 4.64v-9.27z" stroke="#3a414a" fill="#3a414a"/><path d="M726.65 224.7a6 6 0 0 1 6-6h220.2a6 6 0 0 1 6 6v96.67a6 6 0 0 1-6 6h-220.2a6 6 0 0 1-6-6z" stroke="#3a414a" fill="#fff"/><use xlink:href="#h" transform="matrix(1,0,0,1,731.6551390066064,223.6878230312908) translate(45.51234567901234 54.90277777777778)"/><path d="M833.68 422.17a6 6 0 0 1 6-6h6.16a6 6 0 0 1 6 6v200.87a6 6 0 0 1-6 6h-6.16a6 6 0 0 1-6-6z" stroke="#3a414a" fill="#1071e5"/><path d="M508.95 416.17h253.52v20H508.95z" fill="none"/><use xlink:href="#i" transform="matrix(1,0,0,1,508.95269207396586,416.1726297205023) translate(4.345679012345698 17.77777777777778)"/><use xlink:href="#j" transform="matrix(1,0,0,1,508.95269207396586,416.1726297205023) translate(41.382716049382736 17.77777777777778)"/><path d="M832.68 593.9h-4.98m-4.98 0h-9.96m-4.98 0h-9.96m-5 0h-9.95m-4.98 0h-9.97m-4.98 0H753m-5 0h-9.96m-4.98 0h-9.96m-4.98 0h-9.96m-4.98 0h-9.96m-4.98 0h-9.97m-4.98 0h-9.97m-4.98 0h-9.93m-4.95 0h-9.9m-4.96 0h-9.9m-4.95 0h-9.9m-4.95 0H589m-4.96 0h-9.9m-4.96 0h-9.9m-4.95 0h-9.9m-4.96 0h-9.9m-4.96 0h-9.9m-4.95 0h-9.9m-4.95 0h-4.95" stroke="#3a414a" fill="none"/><path d="M833.18 594.38h-.5v-.95h.5z" stroke="#3a414a" stroke-width=".05" fill="#3a414a"/><path d="M475.18 593.9l14.26-4.63v9.27z" stroke="#3a414a" fill="#3a414a"/><path d="M474.56 736.83H816.8M474.57 736.83h-.5" stroke="#3a414a" fill="none"/><path d="M831.56 736.83l-14.26 4.63v-9.27z" stroke="#3a414a" fill="#3a414a"/><path d="M833.68 730.36a6 6 0 0 1 6-6h6.16a6 6 0 0 1 6 6v160.52a6 6 0 0 1-6 6h-6.16a6 6 0 0 1-6-6z" stroke="#3a414a" fill="#1071e5"/><path d="M508.95 687.03h253.52v29H508.95z" fill="none"/><use xlink:href="#k" transform="matrix(1,0,0,1,508.95269207396586,687.0286718421959) translate(12.30864197530866 18.944444444444443)"/><use xlink:href="#l" transform="matrix(1,0,0,1,508.95269207396586,687.0286718421959) translate(49.3456790123457 18.944444444444443)"/><path d="M832.68 868.07h-4.98m-4.98 0h-9.96m-4.98 0h-9.96m-5 0h-9.95m-4.98 0h-9.97m-4.98 0H753m-5 0h-9.96m-4.98 0h-9.96m-4.98 0h-9.96m-4.98 0h-9.96m-4.98 0h-9.97m-4.98 0h-9.97m-4.98 0h-9.93m-4.95 0h-9.9m-4.96 0h-9.9m-4.95 0h-9.9m-4.95 0H589m-4.96 0h-9.9m-4.96 0h-9.9m-4.95 0h-9.9m-4.96 0h-9.9m-4.96 0h-9.9m-4.95 0h-9.9m-4.95 0h-4.95" stroke="#3a414a" fill="none"/><path d="M833.18 868.54h-.5v-.95h.5z" stroke="#3a414a" stroke-width=".05" fill="#3a414a"/><path d="M475.18 868.07l14.27-4.64v9.27z" stroke="#3a414a" fill="#3a414a"/><path d="M474.06 1024h179.08a.23.23 0 0 1 .23.22.23.23 0 0 0 .23.23h163.2M474.07 1024h-.5" stroke="#3a414a" fill="none"/><path d="M831.56 1024.45l-14.26 4.64v-9.28z" stroke="#3a414a" fill="#3a414a"/><path d="M833.68 989.96a6 6 0 0 1 6-6h6.16a6 6 0 0 1 6 6v189.2a6 6 0 0 1-6 6h-6.16a6 6 0 0 1-6-6z" stroke="#3a414a" fill="#1071e5"/><path d="M495.6 983.96h280.22v30.95H495.6z" fill="none"/><use xlink:href="#m" transform="matrix(1,0,0,1,495.6054157473947,983.9601855227247) translate(12.845679012345713 19.944444444444443)"/><use xlink:href="#n" transform="matrix(1,0,0,1,495.6054157473947,983.9601855227247) translate(49.88271604938275 19.944444444444443)"/><path d="M832.68 1144.66h-4.97m-4.97 0h-9.95m-4.97 0h-9.94m-4.97 0h-9.96m-4.97 0h-9.95m-4.97 0h-9.95m-4.98 0h-9.94m-4.98 0h-9.95m-4.97 0h-9.95m-4.97 0h-9.95m-4.96 0h-9.95m-4.98 0h-9.95m-4.98 0H648.68m-4.95 0h-9.9m-4.93 0H619m-4.94 0h-9.9m-4.93 0h-9.9m-4.94 0h-9.9m-4.94 0h-9.9m-4.93 0h-9.9m-4.94 0H530m-4.94 0h-9.9m-4.93 0h-9.9m-4.94 0h-4.95" stroke="#3a414a" fill="none"/><path d="M833.18 1145.13h-.5v-.95h.5z" stroke="#3a414a" stroke-width=".05" fill="#3a414a"/><path d="M475.68 1144.66l14.27-4.64v9.27z" stroke="#3a414a" fill="#3a414a"/><path d="M446.93 1171H442m-4.94 0h-9.88m-4.94 0h-9.88m-4.93 0h-9.88m-4.94 0h-9.87m-4.93 0h-9.88m-4.94 0h-9.88m-4.93 0h-9.88m-4.95 0h-9.88m-4.93 0h-9.88m-4.94 0h-9.88m-4.93 0h-9.83m-4.9 0h-9.82m-4.9 0h-9.8m-4.9 0h-9.8m-4.9 0h-9.82m-4.9 0h-9.8m-4.9 0h-9.82m-4.9 0h-9.8m-4.9 0h-9.8m-4.9 0h-9.8m-4.9 0h-4.92" stroke="#3a414a" fill="none"/><path d="M447.43 1171.47h-.5v-.95h.5z" stroke="#3a414a" stroke-width=".05" fill="#3a414a"/><path d="M122.12 1171l14.26-4.63v9.27z" stroke="#3a414a" fill="#3a414a"/><path d="M852.84 481h270.87" stroke="#3a414a" fill="none"/><path d="M852.85 481.48h-.5v-.96h.5z" stroke="#3a414a" stroke-width=".05" fill="#3a414a"/><path d="M1138.47 481l-14.27 4.63v-9.26z" stroke="#3a414a" fill="#3a414a"/><g fill="none"><path d="M1149.66 330.1v889.4"/><path d="M1149.66 330.1v5.02m0 5.03v10.05m0 5.02v10.05m0 5.03v10.05m0 5.02v10.05m0 5.03v10.05m0 5.02v10.05m0 5.03v10.05m0 5.02v10.05m0 5.03v10.05m0 5.02v10.05m0 5.02v10.04m0 5.03v10.05m0 5.02v10.05m0 5.02v10.05m0 5.02v10.04m0 5.03v10.05m0 5.02v10.05m0 5.02v10.05m0 5.02v10.04m0 5.03v10.05m0 5.02v10.05m0 5.02v10.05m0 5.02v10.04m0 5.02v10.05m0 5.04V712m0 5v10.06m0 5.03v10.04m0 5.02v10.05m0 5.04v10.05m0 5v10.06m0 5.03v10.04m0 5.02v10.05m0 5.04v10.05m0 5v10.06m0 5.03v10.03m0 5.03v10.05m0 5.03v10.05m0 5.03v10.06m0 5.02v10.05m0 5.03v10.05m0 5.03v10.05m0 5.03v10.06m0 5.02v10.05m0 5.03v10.05m0 5.03v10.05m0 5.03v10.06m0 5.02v10.05m0 5.02v10.05m0 5.03v10.05m0 5.02v10.05m0 5.03v10.05m0 5.02V1119m0 5.03v10.05m0 5.02v10.05m0 5.03v10.05m0 5.02v10.05m0 5.03v10.05m0 5.02v10.05m0 5.03v5.02" stroke="#3a414a" stroke-linecap="round"/></g><path d="M1033.56 224.3a6 6 0 0 1 6-6h220.2a6 6 0 0 1 6 6v96.67a6 6 0 0 1-6 6h-220.2a6 6 0 0 1-6-6z" stroke="#3a414a" fill="#fff"/><use xlink:href="#o" transform="matrix(1,0,0,1,1038.5612566891873,223.2868948604181) translate(9.185185185185205 54.90277777777778)"/><path d="M1140.6 466a6 6 0 0 1 6-6h6.14a6 6 0 0 1 6 6v128a6 6 0 0 1-6 6h-6.15a6 6 0 0 1-6-6z" stroke="#3a414a" fill="#1071e5"/><g fill="none"><path d="M1429.66 330.1v889.4"/><path d="M1429.66 330.1v5.02m0 5.03v10.05m0 5.02v10.05m0 5.03v10.05m0 5.02v10.05m0 5.03v10.05m0 5.02v10.05m0 5.03v10.05m0 5.02v10.05m0 5.03v10.05m0 5.02v10.05m0 5.02v10.04m0 5.03v10.05m0 5.02v10.05m0 5.02v10.05m0 5.02v10.04m0 5.03v10.05m0 5.02v10.05m0 5.02v10.05m0 5.02v10.04m0 5.03v10.05m0 5.02v10.05m0 5.02v10.05m0 5.02v10.04m0 5.02v10.05m0 5.04V712m0 5v10.06m0 5.03v10.04m0 5.02v10.05m0 5.04v10.05m0 5v10.06m0 5.03v10.04m0 5.02v10.05m0 5.04v10.05m0 5v10.06m0 5.03v10.03m0 5.03v10.05m0 5.03v10.05m0 5.03v10.06m0 5.02v10.05m0 5.03v10.05m0 5.03v10.05m0 5.03v10.06m0 5.02v10.05m0 5.03v10.05m0 5.03v10.05m0 5.03v10.06m0 5.02v10.05m0 5.02v10.05m0 5.03v10.05m0 5.02v10.05m0 5.03v10.05m0 5.02V1119m0 5.03v10.05m0 5.02v10.05m0 5.03v10.05m0 5.02v10.05m0 5.03v10.05m0 5.02v10.05m0 5.03v5.02" stroke="#3a414a" stroke-linecap="round"/></g><path d="M1313.56 224.3a6 6 0 0 1 6-6h220.2a6 6 0 0 1 6 6v96.67a6 6 0 0 1-6 6h-220.2a6 6 0 0 1-6-6z" stroke="#3a414a" fill="#fff"/><use xlink:href="#p" transform="matrix(1,0,0,1,1318.5612566891873,223.2868948604181) translate(17.148148148148167 54.90277777777778)"/><g fill="none"><path d="M1711.07 332.08v889.4"/><path d="M1711.07 332.08v5.02m0 5.03v10.05m0 5.02v10.05m0 5.03v10.05m0 5.02v10.05m0 5.03v10.05m0 5.02v10.05m0 5.03v10.05m0 5.02v10.05m0 5.03v10.04m0 5.03v10.05m0 5.02v10.05m0 5.03V518m0 5.02v10.05m0 5.03v10.05m0 5.02v10.05m0 5.03v10.05m0 5.02v10.05m0 5.03v10.05m0 5.02v10.05m0 5.03v10.05m0 5.02v10.05m0 5.02v10.04m0 5.03v10.05m0 5.02v10.05m0 5.02v10.05m0 5.02v10.04m0 5.03v10.05m0 5.02v10.05m0 5.02v10.05m0 5.02v10.04m0 5.03v10.05m0 5.02v10.05m0 5.02v10.04m0 5.03v10.04m0 5.02v10.05m0 5.04v10.05m0 5v10.06m0 5.03v10.04m0 5.02V925m0 5.04v10.05m0 5v10.06m0 5.03v10.04m0 5.02v10.05m0 5.04v10.05m0 5v10.06m0 5.02v10.05m0 5.03v10.05m0 5.03v10.05m0 5.03v10.06m0 5.02v10.05m0 5.03v10.05m0 5.03v10.05m0 5.03v10.06m0 5.02v10.05m0 5.03v10.05m0 5.03v10.05m0 5.03v10.06m0 5.02v10.05m0 5.02v5.03" stroke="#3a414a" stroke-linecap="round"/></g><path d="M1573.56 226a6 6 0 0 1 6-6h248a6 6 0 0 1 6 6v96.68a6 6 0 0 1-6 6h-248a6 6 0 0 1-6-6z" stroke="#3a414a" fill="#fff"/><use xlink:href="#q" transform="matrix(1,0,0,1,1578.5612566891873,225) translate(13.364197530864217 54.90277777777778)"/><path d="M1703.84 1026.27a6 6 0 0 1 6-6h6.15a6 6 0 0 1 6 6v108a6 6 0 0 1-6 6h-6.16a6 6 0 0 1-6-6z" stroke="#3a414a" fill="#1071e5"/><path d="M1139.6 566.8h-4.8m-4.77 0h-9.56m-4.78 0h-9.57m-4.78 0h-9.55m-4.78 0h-9.56m-4.78 0h-9.56m-4.78 0h-9.56m-4.78 0h-9.56m-4.77 0h-9.56m-4.77 0h-9.56m-4.78 0h-10.1m-5.3 0h-10.64m-5.3 0h-10.63m-5.32 0h-10.6m-5.32 0h-10.63m-5.3 0H911.2m-5.32 0H895.3m-5.3 0h-10.63m-5.32 0h-5.3" stroke="#3a414a" fill="none"/><path d="M1140.1 567.3h-.53v-.96h.52z" stroke="#3a414a" stroke-width=".05" fill="#3a414a"/><path d="M853.96 566.8l14.26-4.62v9.27z" stroke="#3a414a" fill="#3a414a"/><path d="M852.84 760.9h550.87" stroke="#3a414a" fill="none"/><path d="M852.85 761.4h-.5v-.96h.5z" stroke="#3a414a" stroke-width=".05" fill="#3a414a"/><path d="M1418.47 760.9l-14.27 4.65v-9.27z" stroke="#3a414a" fill="#3a414a"/><path d="M1428.66 838.35h-5.05m-5.04 0h-10.1m-5.05 0h-10.1m-5.04 0h-10.1m-5.06 0H1363m-5.05 0h-10.1m-5.05 0h-10.1m-5.06 0h-10.1m-5.05 0h-10.1m-5.07 0h-10.1m-5.05 0h-10.1m-5.05 0h-10.1m-5.06 0h-10.1m-5.05 0h-10.1m-5.05 0h-10.1m-5.06 0h-10.1m-5.04 0h-10.1m-5.05 0H1166m-5.05 0h-10.1m-5.05 0h-10.09m-5.03 0h-10.07m-5.04 0h-10.07m-5.05 0h-10.08m-5.03 0h-10.08m-5.04 0h-10.07m-5.04 0h-10.06m-5.04 0h-10.08m-5.03 0h-10.1m-5.03 0H999.7m-5.04 0H984.6m-5.05 0h-10.08m-5.04 0h-10.07m-5.04 0h-10.07m-5.04 0h-10.07m-5.03 0h-10.08m-5.04 0H893.9m-5.03 0H878.8m-5.04 0h-5.04" stroke="#3a414a" fill="none"/><path d="M1429.16 838.82h-.5v-.95h.5zm3 0h-2v-.95h2z" stroke="#3a414a" stroke-width=".05" fill="#3a414a"/><path d="M853.96 838.35l14.26-4.64V843z" stroke="#3a414a" fill="#3a414a"/><path d="M852.84 1045.87h834.1" stroke="#3a414a" fill="none"/><path d="M852.85 1046.34h-.5v-.95h.5z" stroke="#3a414a" stroke-width=".05" fill="#3a414a"/><path d="M1701.72 1045.87l-14.27 4.63v-9.27z" stroke="#3a414a" fill="#3a414a"/><path d="M1702.84 1118.4h-5.06m-5.06 0h-10.1m-5.07 0h-10.12m-5.06 0h-10.1m-5.07 0h-10.12m-5.05 0h-10.12m-5.05 0h-10.1m-5.07 0h-10.12m-5.05 0h-10.1m-5.07 0h-10.12m-5.04 0h-10.12m-5.06 0h-10.1m-5.07 0h-10.1m-5.06 0h-10.12m-5.06 0h-10.1m-5.07 0h-10.13m-5.06 0H1455m-5.06 0h-10.12m-5.05 0h-10.12m-5.06 0h-10.12m-5.06 0h-10.12m-5.06 0h-10.1m-5.07 0h-10.12m-5.05 0h-10.12m-5.06 0h-10.1m-5.07 0h-10.12m-5.05 0h-10.12m-5.06 0h-10.1m-5.07 0H1277.9v-.02h-.02l-.02-.03v-.02l-.02-.02v-.07l-.02-.02-.02-.02-.02-.02h-.02l-.02-.02h-5.09m-5.05 0h-10.1m-5.04 0h-10.1m-5.05 0h-10.1m-5.04 0h-10.1m-5.04 0h-10.1m-5.05 0h-10.1m-5.05 0h-10.1m-5.05 0h-10.1m-5.05 0h-10.1m-5.04 0h-10.1m-5.05 0h-10.1m-5.05 0h-10.1m-5.05 0h-10.1m-5.04 0h-10.1m-5.06 0h-10.1m-5.05 0h-10.1m-5.06 0h-10.1m-5.04 0H1000m-5.05 0h-10.1m-5.05 0h-10.1m-5.05 0h-10.1m-5.04 0h-10.1m-5.04 0h-10.1m-5.05 0h-10.1m-5.04 0h-10.1m-5.04 0h-10.1m-5.05 0h-5.05" stroke="#3a414a" fill="none"/><path d="M1703.34 1118.88h-.5v-.95h.5z" stroke="#3a414a" stroke-width=".05" fill="#3a414a"/><path d="M853.95 1118.14l14.27-4.64v9.27z" stroke="#3a414a" fill="#3a414a"/><path d="M1420.6 746a6 6 0 0 1 6-6h6.14a6 6 0 0 1 6 6v108a6 6 0 0 1-6 6h-6.15a6 6 0 0 1-6-6z" stroke="#3a414a" fill="#1071e5"/><path d="M853.7 724.36h285V760h-285z" fill="none"/><use xlink:href="#r" transform="matrix(1,0,0,1,853.71230140848,724.3594141990461) translate(13.024691358024711 22.444444444444443)"/><use xlink:href="#s" transform="matrix(1,0,0,1,853.71230140848,724.3594141990461) translate(68.58024691358027 22.444444444444443)"/><path d="M851.84 440h288.75v63.33H851.83z" fill="#fff" fill-opacity="0"/><use xlink:href="#t" transform="matrix(1,0,0,1,856.8378240464665,445) translate(0 17.77777777777778)"/><use xlink:href="#u" transform="matrix(1,0,0,1,856.8378240464665,445) translate(55.55555555555556 17.77777777777778)"/><path d="M859.17 1000h307.24v40H859.18z" fill="#fff" fill-opacity="0"/><g><use xlink:href="#v" transform="matrix(1,0,0,1,864.166509115151,1005) translate(0 17.77777777777778)"/><use xlink:href="#w" transform="matrix(1,0,0,1,864.166509115151,1005) translate(55.55555555555556 17.77777777777778)"/></g><path d="M1129.66 595.04a6 6 0 0 1 6-6h28a6 6 0 0 1 6 6v28a6 6 0 0 1-6 6h-28a6 6 0 0 1-6-6z" fill="none"/><path d="M1133.66 593.04l32 32m0-32l-32 32" stroke="#3a414a" stroke-width="8" fill="none"/><path d="M1410.37 846a6 6 0 0 1 6-6h28a6 6 0 0 1 6 6v28a6 6 0 0 1-6 6h-28a6 6 0 0 1-6-6z" fill="none"/><path d="M1414.37 844l32 32m0-32l-32 32" stroke="#3a414a" stroke-width="8" fill="none"/><path d="M1692.9 1126a6 6 0 0 1 6-6h28a6 6 0 0 1 6 6v28a6 6 0 0 1-6 6h-28a6 6 0 0 1-6-6z" fill="none"/><path d="M1696.9 1124l32 32m0-32l-32 32" stroke="#3a414a" stroke-width="8" fill="none"/><defs><linearGradient gradientUnits="userSpaceOnUse" id="a" x1="98.62" y1="357.52" x2="98.62" y2="1220"><stop offset="0%" stop-color="#909aa9"/><stop offset="50.01%" stop-color="#6b7686"/><stop offset="100%" stop-color="#4c535f"/></linearGradient><path fill="#3a414a" d="M240 0l2-218c-23 76-54 145-80 218h-23L58-218 59 0H30v-248h44l77 211c21-75 51-140 76-211h43V0h-30" id="x"/><path fill="#3a414a" d="M141-36C126-15 110 5 73 4 37 3 15-17 15-53c-1-64 63-63 125-63 3-35-9-54-41-54-24 1-41 7-42 31l-33-3c5-37 33-52 76-52 45 0 72 20 72 64v82c-1 20 7 32 28 27v20c-31 9-61-2-59-35zM48-53c0 20 12 33 32 33 41-3 63-29 60-74-43 2-92-5-92 41" id="y"/><path fill="#3a414a" d="M24-231v-30h32v30H24zM24 0v-190h32V0H24" id="z"/><path fill="#3a414a" d="M117-194c89-4 53 116 60 194h-32v-121c0-31-8-49-39-48C34-167 62-67 57 0H25l-1-190h30c1 10-1 24 2 32 11-22 29-35 61-36" id="A"/><path fill="#3a414a" d="M100-194c63 0 86 42 84 106H49c0 40 14 67 53 68 26 1 43-12 49-29l28 8c-11 28-37 45-77 45C44 4 14-33 15-96c1-61 26-98 85-98zm52 81c6-60-76-77-97-28-3 7-6 17-6 28h103" id="B"/><path fill="#3a414a" d="M84 4C-5 8 30-112 23-190h32v120c0 31 7 50 39 49 72-2 45-101 50-169h31l1 190h-30c-1-10 1-25-2-33-11 22-28 36-60 37" id="C"/><path fill="#3a414a" d="M100-194c62-1 85 37 85 99 1 63-27 99-86 99S16-35 15-95c0-66 28-99 85-99zM99-20c44 1 53-31 53-75 0-43-8-75-51-75s-53 32-53 75 10 74 51 75" id="D"/><path fill="#3a414a" d="M85-194c31 0 48 13 60 33l-1-100h32l1 261h-30c-2-10 0-23-3-31C134-8 116 4 85 4 32 4 16-35 15-94c0-66 23-100 70-100zm9 24c-40 0-46 34-46 75 0 40 6 74 45 74 42 0 51-32 51-76 0-42-9-74-50-73" id="E"/><path fill="#3a414a" d="M24 0v-261h32V0H24" id="F"/><g id="b"><use transform="matrix(0.06172839506172839,0,0,0.06172839506172839,0,0)" xlink:href="#x"/><use transform="matrix(0.06172839506172839,0,0,0.06172839506172839,18.456790123456788,0)" xlink:href="#y"/><use transform="matrix(0.06172839506172839,0,0,0.06172839506172839,30.80246913580247,0)" xlink:href="#z"/><use transform="matrix(0.06172839506172839,0,0,0.06172839506172839,35.67901234567901,0)" xlink:href="#A"/><use transform="matrix(0.06172839506172839,0,0,0.06172839506172839,48.02469135802469,0)" xlink:href="#x"/><use transform="matrix(0.06172839506172839,0,0,0.06172839506172839,66.48148148148148,0)" xlink:href="#B"/><use transform="matrix(0.06172839506172839,0,0,0.06172839506172839,78.82716049382717,0)" xlink:href="#A"/><use transform="matrix(0.06172839506172839,0,0,0.06172839506172839,91.17283950617285,0)" xlink:href="#C"/><use transform="matrix(0.06172839506172839,0,0,0.06172839506172839,103.51851851851853,0)" xlink:href="#x"/><use transform="matrix(0.06172839506172839,0,0,0.06172839506172839,121.97530864197532,0)" xlink:href="#D"/><use transform="matrix(0.06172839506172839,0,0,0.06172839506172839,134.320987654321,0)" xlink:href="#E"/><use transform="matrix(0.06172839506172839,0,0,0.06172839506172839,146.66666666666666,0)" xlink:href="#B"/><use transform="matrix(0.06172839506172839,0,0,0.06172839506172839,159.01234567901233,0)" xlink:href="#F"/></g><path fill="#3a414a" d="M27 0v-27h64v-190l-56 39v-29l58-41h29v221h61V0H27" id="G"/><g id="c"><use transform="matrix(0.06172839506172839,0,0,0.06172839506172839,0,0)" xlink:href="#G"/><path fill="#8080ff" d="M-1.1 1.54h14.56v1.63H-1.1z"/><path fill="#8080ff" d="M11.23 1.54h8.4v1.63h-8.4z"/></g><path fill="#3a414a" d="M30-248c87 1 191-15 191 75 0 78-77 80-158 76V0H30v-248zm33 125c57 0 124 11 124-50 0-59-68-47-124-48v98" id="H"/><path fill="#3a414a" d="M114-163C36-179 61-72 57 0H25l-1-190h30c1 12-1 29 2 39 6-27 23-49 58-41v29" id="I"/><path fill="#3a414a" d="M135-143c-3-34-86-38-87 0 15 53 115 12 119 90S17 21 10-45l28-5c4 36 97 45 98 0-10-56-113-15-118-90-4-57 82-63 122-42 12 7 21 19 24 35" id="J"/><path fill="#3a414a" d="M140-251c81 0 123 46 123 126C263-46 219 4 140 4 59 4 17-45 17-125s42-126 123-126zm0 227c63 0 89-41 89-101s-29-99-89-99c-61 0-89 39-89 99S79-25 140-24" id="K"/><path fill="#3a414a" d="M115-194c55 1 70 41 70 98S169 2 115 4C84 4 66-9 55-30l1 105H24l-1-265h31l2 30c10-21 28-34 59-34zm-8 174c40 0 45-34 45-75s-6-73-45-74c-42 0-51 32-51 76 0 43 10 73 51 73" id="L"/><path fill="#3a414a" d="M59-47c-2 24 18 29 38 22v24C64 9 27 4 27-40v-127H5v-23h24l9-43h21v43h35v23H59v120" id="M"/><path fill="#3a414a" d="M160-131c35 5 61 23 61 61C221 17 115-2 30 0v-248c76 3 177-17 177 60 0 33-19 50-47 57zm-97-11c50-1 110 9 110-42 0-47-63-36-110-37v79zm0 115c55-2 124 14 124-45 0-56-70-42-124-44v89" id="N"/><g id="d"><use transform="matrix(0.06172839506172839,0,0,0.06172839506172839,0,0)" xlink:href="#H"/><use transform="matrix(0.06172839506172839,0,0,0.06172839506172839,14.814814814814813,0)" xlink:href="#I"/><use transform="matrix(0.06172839506172839,0,0,0.06172839506172839,22.160493827160494,0)" xlink:href="#B"/><use transform="matrix(0.06172839506172839,0,0,0.06172839506172839,34.50617283950617,0)" xlink:href="#J"/><path fill="#8080ff" d="M-1.1 1.54h47.83v1.63H-1.1z"/><use transform="matrix(0.06172839506172839,0,0,0.06172839506172839,45.61728395061728,0)" xlink:href="#J"/><path fill="#8080ff" d="M44.5 1.54h13.34v1.63H44.5z"/><use transform="matrix(0.06172839506172839,0,0,0.06172839506172839,56.72839506172839,0)" xlink:href="#K"/><use transform="matrix(0.06172839506172839,0,0,0.06172839506172839,74.01234567901234,0)" xlink:href="#L"/><use transform="matrix(0.06172839506172839,0,0,0.06172839506172839,86.35802469135803,0)" xlink:href="#M"/><use transform="matrix(0.06172839506172839,0,0,0.06172839506172839,92.53086419753086,0)" xlink:href="#z"/><use transform="matrix(0.06172839506172839,0,0,0.06172839506172839,97.4074074074074,0)" xlink:href="#D"/><use transform="matrix(0.06172839506172839,0,0,0.06172839506172839,109.75308641975309,0)" xlink:href="#A"/><use transform="matrix(0.06172839506172839,0,0,0.06172839506172839,122.09876543209877,0)" xlink:href="#J"/><use transform="matrix(0.06172839506172839,0,0,0.06172839506172839,133.20987654320987,0)" xlink:href="#N"/><use transform="matrix(0.06172839506172839,0,0,0.06172839506172839,148.02469135802468,0)" xlink:href="#C"/><use transform="matrix(0.06172839506172839,0,0,0.06172839506172839,160.37037037037035,0)" xlink:href="#M"/><use transform="matrix(0.06172839506172839,0,0,0.06172839506172839,166.5432098765432,0)" xlink:href="#M"/><use transform="matrix(0.06172839506172839,0,0,0.06172839506172839,172.71604938271602,0)" xlink:href="#D"/><use transform="matrix(0.06172839506172839,0,0,0.06172839506172839,185.0617283950617,0)" xlink:href="#A"/></g><path fill="#3a414a" d="M87 75C49 33 22-17 22-94c0-76 28-126 65-167h31c-38 41-64 92-64 168S80 34 118 75H87" id="O"/><use transform="matrix(0.06172839506172839,0,0,0.06172839506172839,0,0)" xlink:href="#O" id="e"/><path fill="#3a414a" d="M33-261c38 41 65 92 65 168S71 34 33 75H2C39 34 66-17 66-93S39-220 2-261h31" id="P"/><use transform="matrix(0.06172839506172839,0,0,0.06172839506172839,0,0)" xlink:href="#P" id="f"/><path fill="#3a414a" d="M205 0l-28-72H64L36 0H1l101-248h38L239 0h-34zm-38-99l-47-123c-12 45-31 82-46 123h93" id="Q"/><path fill="#3a414a" d="M96-169c-40 0-48 33-48 73s9 75 48 75c24 0 41-14 43-38l32 2c-6 37-31 61-74 61-59 0-76-41-82-99-10-93 101-131 147-64 4 7 5 14 7 22l-32 3c-4-21-16-35-41-35" id="R"/><g id="g"><use transform="matrix(0.06172839506172839,0,0,0.06172839506172839,0,0)" xlink:href="#Q"/><use transform="matrix(0.06172839506172839,0,0,0.06172839506172839,14.814814814814813,0)" xlink:href="#R"/><use transform="matrix(0.06172839506172839,0,0,0.06172839506172839,25.925925925925924,0)" xlink:href="#M"/><use transform="matrix(0.06172839506172839,0,0,0.06172839506172839,32.098765432098766,0)" xlink:href="#D"/><use transform="matrix(0.06172839506172839,0,0,0.06172839506172839,44.44444444444444,0)" xlink:href="#I"/></g><g id="h"><use transform="matrix(0.06172839506172839,0,0,0.06172839506172839,0,0)" xlink:href="#K"/><use transform="matrix(0.06172839506172839,0,0,0.06172839506172839,17.28395061728395,0)" xlink:href="#L"/><use transform="matrix(0.06172839506172839,0,0,0.06172839506172839,29.629629629629626,0)" xlink:href="#M"/><use transform="matrix(0.06172839506172839,0,0,0.06172839506172839,35.80246913580247,0)" xlink:href="#z"/><use transform="matrix(0.06172839506172839,0,0,0.06172839506172839,40.67901234567901,0)" xlink:href="#D"/><use transform="matrix(0.06172839506172839,0,0,0.06172839506172839,53.02469135802469,0)" xlink:href="#A"/><use transform="matrix(0.06172839506172839,0,0,0.06172839506172839,65.37037037037037,0)" xlink:href="#J"/><use transform="matrix(0.06172839506172839,0,0,0.06172839506172839,76.48148148148148,0)" xlink:href="#x"/><use transform="matrix(0.06172839506172839,0,0,0.06172839506172839,94.93827160493827,0)" xlink:href="#B"/><use transform="matrix(0.06172839506172839,0,0,0.06172839506172839,107.28395061728395,0)" xlink:href="#A"/><use transform="matrix(0.06172839506172839,0,0,0.06172839506172839,119.62962962962963,0)" xlink:href="#C"/></g><path fill="#3a414a" d="M33 0v-38h34V0H33" id="S"/><g id="i"><use transform="matrix(0.06172839506172839,0,0,0.06172839506172839,0,0)" xlink:href="#G"/><use transform="matrix(0.06172839506172839,0,0,0.06172839506172839,12.345679012345679,0)" xlink:href="#S"/><use transform="matrix(0.06172839506172839,0,0,0.06172839506172839,18.51851851851852,0)" xlink:href="#G"/></g><path fill="#3a414a" d="M30-248c118-7 216 8 213 122C240-48 200 0 122 0H30v-248zM63-27c89 8 146-16 146-99s-60-101-146-95v194" id="T"/><path fill="#3a414a" d="M179-190L93 31C79 59 56 82 12 73V49c39 6 53-20 64-50L1-190h34L92-34l54-156h33" id="U"/><g id="j"><use transform="matrix(0.06172839506172839,0,0,0.06172839506172839,0,0)" xlink:href="#H"/><use transform="matrix(0.06172839506172839,0,0,0.06172839506172839,14.814814814814813,0)" xlink:href="#I"/><use transform="matrix(0.06172839506172839,0,0,0.06172839506172839,22.160493827160494,0)" xlink:href="#B"/><use transform="matrix(0.06172839506172839,0,0,0.06172839506172839,34.50617283950617,0)" xlink:href="#J"/><use transform="matrix(0.06172839506172839,0,0,0.06172839506172839,45.61728395061728,0)" xlink:href="#J"/><use transform="matrix(0.06172839506172839,0,0,0.06172839506172839,56.72839506172839,0)" xlink:href="#T"/><use transform="matrix(0.06172839506172839,0,0,0.06172839506172839,72.71604938271605,0)" xlink:href="#z"/><use transform="matrix(0.06172839506172839,0,0,0.06172839506172839,77.5925925925926,0)" xlink:href="#J"/><use transform="matrix(0.06172839506172839,0,0,0.06172839506172839,88.70370370370371,0)" xlink:href="#L"/><use transform="matrix(0.06172839506172839,0,0,0.06172839506172839,101.0493827160494,0)" xlink:href="#F"/><use transform="matrix(0.06172839506172839,0,0,0.06172839506172839,105.92592592592594,0)" xlink:href="#y"/><use transform="matrix(0.06172839506172839,0,0,0.06172839506172839,118.27160493827162,0)" xlink:href="#U"/><use transform="matrix(0.06172839506172839,0,0,0.06172839506172839,129.38271604938274,0)" xlink:href="#N"/><use transform="matrix(0.06172839506172839,0,0,0.06172839506172839,144.19753086419755,0)" xlink:href="#C"/><use transform="matrix(0.06172839506172839,0,0,0.06172839506172839,156.54320987654322,0)" xlink:href="#M"/><use transform="matrix(0.06172839506172839,0,0,0.06172839506172839,162.71604938271605,0)" xlink:href="#M"/><use transform="matrix(0.06172839506172839,0,0,0.06172839506172839,168.88888888888889,0)" xlink:href="#D"/><use transform="matrix(0.06172839506172839,0,0,0.06172839506172839,181.23456790123456,0)" xlink:href="#A"/><use transform="matrix(0.06172839506172839,0,0,0.06172839506172839,193.58024691358023,0)" xlink:href="#O"/><use transform="matrix(0.06172839506172839,0,0,0.06172839506172839,200.9259259259259,0)" xlink:href="#P"/></g><path fill="#3a414a" d="M101-251c82-7 93 87 43 132L82-64C71-53 59-42 53-27h129V0H18c2-99 128-94 128-182 0-28-16-43-45-43s-46 15-49 41l-32-3c6-41 34-60 81-64" id="V"/><g id="k"><use transform="matrix(0.06172839506172839,0,0,0.06172839506172839,0,0)" xlink:href="#G"/><use transform="matrix(0.06172839506172839,0,0,0.06172839506172839,12.345679012345679,0)" xlink:href="#S"/><use transform="matrix(0.06172839506172839,0,0,0.06172839506172839,18.51851851851852,0)" xlink:href="#V"/></g><g id="l"><use transform="matrix(0.06172839506172839,0,0,0.06172839506172839,0,0)" xlink:href="#H"/><use transform="matrix(0.06172839506172839,0,0,0.06172839506172839,14.814814814814813,0)" xlink:href="#I"/><use transform="matrix(0.06172839506172839,0,0,0.06172839506172839,22.160493827160494,0)" xlink:href="#B"/><use transform="matrix(0.06172839506172839,0,0,0.06172839506172839,34.50617283950617,0)" xlink:href="#J"/><use transform="matrix(0.06172839506172839,0,0,0.06172839506172839,45.61728395061728,0)" xlink:href="#J"/><use transform="matrix(0.06172839506172839,0,0,0.06172839506172839,56.72839506172839,0)" xlink:href="#Q"/><use transform="matrix(0.06172839506172839,0,0,0.06172839506172839,71.5432098765432,0)" xlink:href="#C"/><use transform="matrix(0.06172839506172839,0,0,0.06172839506172839,83.88888888888889,0)" xlink:href="#E"/><use transform="matrix(0.06172839506172839,0,0,0.06172839506172839,96.23456790123457,0)" xlink:href="#z"/><use transform="matrix(0.06172839506172839,0,0,0.06172839506172839,101.11111111111111,0)" xlink:href="#D"/><use transform="matrix(0.06172839506172839,0,0,0.06172839506172839,113.4567901234568,0)" xlink:href="#N"/><use transform="matrix(0.06172839506172839,0,0,0.06172839506172839,128.27160493827162,0)" xlink:href="#C"/><use transform="matrix(0.06172839506172839,0,0,0.06172839506172839,140.6172839506173,0)" xlink:href="#M"/><use transform="matrix(0.06172839506172839,0,0,0.06172839506172839,146.79012345679013,0)" xlink:href="#M"/><use transform="matrix(0.06172839506172839,0,0,0.06172839506172839,152.96296296296296,0)" xlink:href="#D"/><use transform="matrix(0.06172839506172839,0,0,0.06172839506172839,165.30864197530863,0)" xlink:href="#A"/><use transform="matrix(0.06172839506172839,0,0,0.06172839506172839,177.6543209876543,0)" xlink:href="#O"/><use transform="matrix(0.06172839506172839,0,0,0.06172839506172839,184.99999999999997,0)" xlink:href="#P"/></g><path fill="#3a414a" d="M126-127c33 6 58 20 58 59 0 88-139 92-164 29-3-8-5-16-6-25l32-3c6 27 21 44 54 44 32 0 52-15 52-46 0-38-36-46-79-43v-28c39 1 72-4 72-42 0-27-17-43-46-43-28 0-47 15-49 41l-32-3c6-42 35-63 81-64 48-1 79 21 79 65 0 36-21 52-52 59" id="W"/><g id="m"><use transform="matrix(0.06172839506172839,0,0,0.06172839506172839,0,0)" xlink:href="#G"/><use transform="matrix(0.06172839506172839,0,0,0.06172839506172839,12.345679012345679,0)" xlink:href="#S"/><use transform="matrix(0.06172839506172839,0,0,0.06172839506172839,18.51851851851852,0)" xlink:href="#W"/></g><path fill="#3a414a" d="M194 0L95-120 63-95V0H30v-248h33v124l119-124h40L117-140 236 0h-42" id="X"/><g id="n"><use transform="matrix(0.06172839506172839,0,0,0.06172839506172839,0,0)" xlink:href="#H"/><use transform="matrix(0.06172839506172839,0,0,0.06172839506172839,14.814814814814813,0)" xlink:href="#I"/><use transform="matrix(0.06172839506172839,0,0,0.06172839506172839,22.160493827160494,0)" xlink:href="#B"/><use transform="matrix(0.06172839506172839,0,0,0.06172839506172839,34.50617283950617,0)" xlink:href="#J"/><use transform="matrix(0.06172839506172839,0,0,0.06172839506172839,45.61728395061728,0)" xlink:href="#J"/><use transform="matrix(0.06172839506172839,0,0,0.06172839506172839,56.72839506172839,0)" xlink:href="#X"/><use transform="matrix(0.06172839506172839,0,0,0.06172839506172839,71.5432098765432,0)" xlink:href="#B"/><use transform="matrix(0.06172839506172839,0,0,0.06172839506172839,83.88888888888889,0)" xlink:href="#U"/><use transform="matrix(0.06172839506172839,0,0,0.06172839506172839,95,0)" xlink:href="#N"/><use transform="matrix(0.06172839506172839,0,0,0.06172839506172839,109.81481481481481,0)" xlink:href="#z"/><use transform="matrix(0.06172839506172839,0,0,0.06172839506172839,114.69135802469135,0)" xlink:href="#A"/><use transform="matrix(0.06172839506172839,0,0,0.06172839506172839,127.03703703703702,0)" xlink:href="#E"/><use transform="matrix(0.06172839506172839,0,0,0.06172839506172839,139.3827160493827,0)" xlink:href="#N"/><use transform="matrix(0.06172839506172839,0,0,0.06172839506172839,154.19753086419752,0)" xlink:href="#C"/><use transform="matrix(0.06172839506172839,0,0,0.06172839506172839,166.5432098765432,0)" xlink:href="#M"/><use transform="matrix(0.06172839506172839,0,0,0.06172839506172839,172.71604938271602,0)" xlink:href="#M"/><use transform="matrix(0.06172839506172839,0,0,0.06172839506172839,178.88888888888886,0)" xlink:href="#D"/><use transform="matrix(0.06172839506172839,0,0,0.06172839506172839,191.23456790123453,0)" xlink:href="#A"/><use transform="matrix(0.06172839506172839,0,0,0.06172839506172839,203.5802469135802,0)" xlink:href="#O"/><use transform="matrix(0.06172839506172839,0,0,0.06172839506172839,210.92592592592587,0)" xlink:href="#P"/></g><g id="o"><use transform="matrix(0.06172839506172839,0,0,0.06172839506172839,0,0)" xlink:href="#T"/><use transform="matrix(0.06172839506172839,0,0,0.06172839506172839,15.987654320987653,0)" xlink:href="#z"/><use transform="matrix(0.06172839506172839,0,0,0.06172839506172839,20.864197530864196,0)" xlink:href="#J"/><use transform="matrix(0.06172839506172839,0,0,0.06172839506172839,31.975308641975307,0)" xlink:href="#L"/><use transform="matrix(0.06172839506172839,0,0,0.06172839506172839,44.32098765432099,0)" xlink:href="#F"/><use transform="matrix(0.06172839506172839,0,0,0.06172839506172839,49.19753086419753,0)" xlink:href="#y"/><use transform="matrix(0.06172839506172839,0,0,0.06172839506172839,61.54320987654321,0)" xlink:href="#U"/><use transform="matrix(0.06172839506172839,0,0,0.06172839506172839,72.65432098765432,0)" xlink:href="#K"/><use transform="matrix(0.06172839506172839,0,0,0.06172839506172839,89.93827160493827,0)" xlink:href="#L"/><use transform="matrix(0.06172839506172839,0,0,0.06172839506172839,102.28395061728395,0)" xlink:href="#M"/><use transform="matrix(0.06172839506172839,0,0,0.06172839506172839,108.45679012345678,0)" xlink:href="#z"/><use transform="matrix(0.06172839506172839,0,0,0.06172839506172839,113.33333333333333,0)" xlink:href="#D"/><use transform="matrix(0.06172839506172839,0,0,0.06172839506172839,125.67901234567901,0)" xlink:href="#A"/><use transform="matrix(0.06172839506172839,0,0,0.06172839506172839,138.02469135802468,0)" xlink:href="#J"/><use transform="matrix(0.06172839506172839,0,0,0.06172839506172839,149.1358024691358,0)" xlink:href="#x"/><use transform="matrix(0.06172839506172839,0,0,0.06172839506172839,167.59259259259258,0)" xlink:href="#B"/><use transform="matrix(0.06172839506172839,0,0,0.06172839506172839,179.93827160493825,0)" xlink:href="#A"/><use transform="matrix(0.06172839506172839,0,0,0.06172839506172839,192.28395061728392,0)" xlink:href="#C"/></g><g id="p"><use transform="matrix(0.06172839506172839,0,0,0.06172839506172839,0,0)" xlink:href="#Q"/><use transform="matrix(0.06172839506172839,0,0,0.06172839506172839,14.814814814814813,0)" xlink:href="#C"/><use transform="matrix(0.06172839506172839,0,0,0.06172839506172839,27.160493827160494,0)" xlink:href="#E"/><use transform="matrix(0.06172839506172839,0,0,0.06172839506172839,39.50617283950617,0)" xlink:href="#z"/><use transform="matrix(0.06172839506172839,0,0,0.06172839506172839,44.382716049382715,0)" xlink:href="#D"/><use transform="matrix(0.06172839506172839,0,0,0.06172839506172839,56.72839506172839,0)" xlink:href="#K"/><use transform="matrix(0.06172839506172839,0,0,0.06172839506172839,74.01234567901234,0)" xlink:href="#L"/><use transform="matrix(0.06172839506172839,0,0,0.06172839506172839,86.35802469135803,0)" xlink:href="#M"/><use transform="matrix(0.06172839506172839,0,0,0.06172839506172839,92.53086419753086,0)" xlink:href="#z"/><use transform="matrix(0.06172839506172839,0,0,0.06172839506172839,97.4074074074074,0)" xlink:href="#D"/><use transform="matrix(0.06172839506172839,0,0,0.06172839506172839,109.75308641975309,0)" xlink:href="#A"/><use transform="matrix(0.06172839506172839,0,0,0.06172839506172839,122.09876543209877,0)" xlink:href="#J"/><use transform="matrix(0.06172839506172839,0,0,0.06172839506172839,133.20987654320987,0)" xlink:href="#x"/><use transform="matrix(0.06172839506172839,0,0,0.06172839506172839,151.66666666666666,0)" xlink:href="#B"/><use transform="matrix(0.06172839506172839,0,0,0.06172839506172839,164.01234567901233,0)" xlink:href="#A"/><use transform="matrix(0.06172839506172839,0,0,0.06172839506172839,176.358024691358,0)" xlink:href="#C"/></g><path fill="#3a414a" d="M115-194c53 0 69 39 70 98 0 66-23 100-70 100C84 3 66-7 56-30L54 0H23l1-261h32v101c10-23 28-34 59-34zm-8 174c40 0 45-34 45-75 0-40-5-75-45-74-42 0-51 32-51 76 0 43 10 73 51 73" id="Y"/><g id="q"><use transform="matrix(0.06172839506172839,0,0,0.06172839506172839,0,0)" xlink:href="#X"/><use transform="matrix(0.06172839506172839,0,0,0.06172839506172839,14.814814814814813,0)" xlink:href="#B"/><use transform="matrix(0.06172839506172839,0,0,0.06172839506172839,27.160493827160494,0)" xlink:href="#U"/><use transform="matrix(0.06172839506172839,0,0,0.06172839506172839,38.27160493827161,0)" xlink:href="#Y"/><use transform="matrix(0.06172839506172839,0,0,0.06172839506172839,50.617283950617285,0)" xlink:href="#z"/><use transform="matrix(0.06172839506172839,0,0,0.06172839506172839,55.49382716049383,0)" xlink:href="#A"/><use transform="matrix(0.06172839506172839,0,0,0.06172839506172839,67.8395061728395,0)" xlink:href="#E"/><use transform="matrix(0.06172839506172839,0,0,0.06172839506172839,80.18518518518519,0)" xlink:href="#J"/><use transform="matrix(0.06172839506172839,0,0,0.06172839506172839,91.2962962962963,0)" xlink:href="#K"/><use transform="matrix(0.06172839506172839,0,0,0.06172839506172839,108.58024691358025,0)" xlink:href="#L"/><use transform="matrix(0.06172839506172839,0,0,0.06172839506172839,120.92592592592594,0)" xlink:href="#M"/><use transform="matrix(0.06172839506172839,0,0,0.06172839506172839,127.09876543209879,0)" xlink:href="#z"/><use transform="matrix(0.06172839506172839,0,0,0.06172839506172839,131.97530864197532,0)" xlink:href="#D"/><use transform="matrix(0.06172839506172839,0,0,0.06172839506172839,144.320987654321,0)" xlink:href="#A"/><use transform="matrix(0.06172839506172839,0,0,0.06172839506172839,156.66666666666666,0)" xlink:href="#J"/><use transform="matrix(0.06172839506172839,0,0,0.06172839506172839,167.77777777777777,0)" xlink:href="#x"/><use transform="matrix(0.06172839506172839,0,0,0.06172839506172839,186.23456790123456,0)" xlink:href="#B"/><use transform="matrix(0.06172839506172839,0,0,0.06172839506172839,198.58024691358023,0)" xlink:href="#A"/><use transform="matrix(0.06172839506172839,0,0,0.06172839506172839,210.9259259259259,0)" xlink:href="#C"/></g><g id="r"><use transform="matrix(0.06172839506172839,0,0,0.06172839506172839,0,0)" xlink:href="#G"/><use transform="matrix(0.06172839506172839,0,0,0.06172839506172839,12.345679012345679,0)" xlink:href="#S"/><use transform="matrix(0.06172839506172839,0,0,0.06172839506172839,18.51851851851852,0)" xlink:href="#V"/><use transform="matrix(0.06172839506172839,0,0,0.06172839506172839,30.864197530864196,0)" xlink:href="#S"/><use transform="matrix(0.06172839506172839,0,0,0.06172839506172839,37.03703703703704,0)" xlink:href="#G"/></g><path fill="#3a414a" d="M185-189c-5-48-123-54-124 2 14 75 158 14 163 119 3 78-121 87-175 55-17-10-28-26-33-46l33-7c5 56 141 63 141-1 0-78-155-14-162-118-5-82 145-84 179-34 5 7 8 16 11 25" id="Z"/><path fill="#3a414a" d="M106-169C34-169 62-67 57 0H25v-261h32l-1 103c12-21 28-36 61-36 89 0 53 116 60 194h-32v-121c2-32-8-49-39-48" id="aa"/><path fill="#3a414a" d="M206 0h-36l-40-164L89 0H53L-1-190h32L70-26l43-164h34l41 164 42-164h31" id="ab"/><g id="s"><use transform="matrix(0.06172839506172839,0,0,0.06172839506172839,0,0)" xlink:href="#Z"/><use transform="matrix(0.06172839506172839,0,0,0.06172839506172839,14.814814814814813,0)" xlink:href="#aa"/><use transform="matrix(0.06172839506172839,0,0,0.06172839506172839,27.160493827160494,0)" xlink:href="#D"/><use transform="matrix(0.06172839506172839,0,0,0.06172839506172839,39.50617283950617,0)" xlink:href="#ab"/><use transform="matrix(0.06172839506172839,0,0,0.06172839506172839,55.49382716049382,0)" xlink:href="#Q"/><use transform="matrix(0.06172839506172839,0,0,0.06172839506172839,70.30864197530863,0)" xlink:href="#C"/><use transform="matrix(0.06172839506172839,0,0,0.06172839506172839,82.65432098765432,0)" xlink:href="#E"/><use transform="matrix(0.06172839506172839,0,0,0.06172839506172839,95,0)" xlink:href="#z"/><use transform="matrix(0.06172839506172839,0,0,0.06172839506172839,99.87654320987654,0)" xlink:href="#D"/><use transform="matrix(0.06172839506172839,0,0,0.06172839506172839,112.22222222222223,0)" xlink:href="#K"/><use transform="matrix(0.06172839506172839,0,0,0.06172839506172839,129.50617283950618,0)" xlink:href="#L"/><use transform="matrix(0.06172839506172839,0,0,0.06172839506172839,141.85185185185185,0)" xlink:href="#M"/><use transform="matrix(0.06172839506172839,0,0,0.06172839506172839,148.02469135802468,0)" xlink:href="#z"/><use transform="matrix(0.06172839506172839,0,0,0.06172839506172839,152.9012345679012,0)" xlink:href="#D"/><use transform="matrix(0.06172839506172839,0,0,0.06172839506172839,165.24691358024688,0)" xlink:href="#A"/><use transform="matrix(0.06172839506172839,0,0,0.06172839506172839,177.59259259259255,0)" xlink:href="#J"/><use transform="matrix(0.06172839506172839,0,0,0.06172839506172839,188.70370370370367,0)" xlink:href="#O"/><use transform="matrix(0.06172839506172839,0,0,0.06172839506172839,196.04938271604934,0)" xlink:href="#P"/></g><g id="t"><use transform="matrix(0.06172839506172839,0,0,0.06172839506172839,0,0)" xlink:href="#G"/><use transform="matrix(0.06172839506172839,0,0,0.06172839506172839,12.345679012345679,0)" xlink:href="#S"/><use transform="matrix(0.06172839506172839,0,0,0.06172839506172839,18.51851851851852,0)" xlink:href="#G"/><use transform="matrix(0.06172839506172839,0,0,0.06172839506172839,30.864197530864196,0)" xlink:href="#S"/><use transform="matrix(0.06172839506172839,0,0,0.06172839506172839,37.03703703703704,0)" xlink:href="#G"/></g><g id="u"><use transform="matrix(0.06172839506172839,0,0,0.06172839506172839,0,0)" xlink:href="#Z"/><use transform="matrix(0.06172839506172839,0,0,0.06172839506172839,14.814814814814813,0)" xlink:href="#aa"/><use transform="matrix(0.06172839506172839,0,0,0.06172839506172839,27.160493827160494,0)" xlink:href="#D"/><use transform="matrix(0.06172839506172839,0,0,0.06172839506172839,39.50617283950617,0)" xlink:href="#ab"/><use transform="matrix(0.06172839506172839,0,0,0.06172839506172839,55.49382716049382,0)" xlink:href="#T"/><use transform="matrix(0.06172839506172839,0,0,0.06172839506172839,71.48148148148148,0)" xlink:href="#z"/><use transform="matrix(0.06172839506172839,0,0,0.06172839506172839,76.35802469135803,0)" xlink:href="#J"/><use transform="matrix(0.06172839506172839,0,0,0.06172839506172839,87.46913580246914,0)" xlink:href="#L"/><use transform="matrix(0.06172839506172839,0,0,0.06172839506172839,99.81481481481482,0)" xlink:href="#F"/><use transform="matrix(0.06172839506172839,0,0,0.06172839506172839,104.69135802469137,0)" xlink:href="#y"/><use transform="matrix(0.06172839506172839,0,0,0.06172839506172839,117.03703703703705,0)" xlink:href="#U"/><use transform="matrix(0.06172839506172839,0,0,0.06172839506172839,128.14814814814815,0)" xlink:href="#K"/><use transform="matrix(0.06172839506172839,0,0,0.06172839506172839,145.4320987654321,0)" xlink:href="#L"/><use transform="matrix(0.06172839506172839,0,0,0.06172839506172839,157.77777777777777,0)" xlink:href="#M"/><use transform="matrix(0.06172839506172839,0,0,0.06172839506172839,163.9506172839506,0)" xlink:href="#z"/><use transform="matrix(0.06172839506172839,0,0,0.06172839506172839,168.82716049382714,0)" xlink:href="#D"/><use transform="matrix(0.06172839506172839,0,0,0.06172839506172839,181.1728395061728,0)" xlink:href="#A"/><use transform="matrix(0.06172839506172839,0,0,0.06172839506172839,193.51851851851848,0)" xlink:href="#J"/><use transform="matrix(0.06172839506172839,0,0,0.06172839506172839,204.6296296296296,0)" xlink:href="#O"/><use transform="matrix(0.06172839506172839,0,0,0.06172839506172839,211.97530864197526,0)" xlink:href="#P"/></g><g id="v"><use transform="matrix(0.06172839506172839,0,0,0.06172839506172839,0,0)" xlink:href="#G"/><use transform="matrix(0.06172839506172839,0,0,0.06172839506172839,12.345679012345679,0)" xlink:href="#S"/><use transform="matrix(0.06172839506172839,0,0,0.06172839506172839,18.51851851851852,0)" xlink:href="#W"/><use transform="matrix(0.06172839506172839,0,0,0.06172839506172839,30.864197530864196,0)" xlink:href="#S"/><use transform="matrix(0.06172839506172839,0,0,0.06172839506172839,37.03703703703704,0)" xlink:href="#G"/></g><g id="w"><use transform="matrix(0.06172839506172839,0,0,0.06172839506172839,0,0)" xlink:href="#Z"/><use transform="matrix(0.06172839506172839,0,0,0.06172839506172839,14.814814814814813,0)" xlink:href="#aa"/><use transform="matrix(0.06172839506172839,0,0,0.06172839506172839,27.160493827160494,0)" xlink:href="#D"/><use transform="matrix(0.06172839506172839,0,0,0.06172839506172839,39.50617283950617,0)" xlink:href="#ab"/><use transform="matrix(0.06172839506172839,0,0,0.06172839506172839,55.49382716049382,0)" xlink:href="#X"/><use transform="matrix(0.06172839506172839,0,0,0.06172839506172839,70.30864197530863,0)" xlink:href="#B"/><use transform="matrix(0.06172839506172839,0,0,0.06172839506172839,82.65432098765432,0)" xlink:href="#U"/><use transform="matrix(0.06172839506172839,0,0,0.06172839506172839,93.76543209876543,0)" xlink:href="#Y"/><use transform="matrix(0.06172839506172839,0,0,0.06172839506172839,106.11111111111111,0)" xlink:href="#z"/><use transform="matrix(0.06172839506172839,0,0,0.06172839506172839,110.98765432098766,0)" xlink:href="#A"/><use transform="matrix(0.06172839506172839,0,0,0.06172839506172839,123.33333333333334,0)" xlink:href="#E"/><use transform="matrix(0.06172839506172839,0,0,0.06172839506172839,135.679012345679,0)" xlink:href="#J"/><use transform="matrix(0.06172839506172839,0,0,0.06172839506172839,146.79012345679013,0)" xlink:href="#K"/><use transform="matrix(0.06172839506172839,0,0,0.06172839506172839,164.07407407407408,0)" xlink:href="#L"/><use transform="matrix(0.06172839506172839,0,0,0.06172839506172839,176.41975308641975,0)" xlink:href="#M"/><use transform="matrix(0.06172839506172839,0,0,0.06172839506172839,182.59259259259258,0)" xlink:href="#z"/><use transform="matrix(0.06172839506172839,0,0,0.06172839506172839,187.4691358024691,0)" xlink:href="#D"/><use transform="matrix(0.06172839506172839,0,0,0.06172839506172839,199.81481481481478,0)" xlink:href="#A"/><use transform="matrix(0.06172839506172839,0,0,0.06172839506172839,212.16049382716045,0)" xlink:href="#J"/><use transform="matrix(0.06172839506172839,0,0,0.06172839506172839,223.27160493827157,0)" xlink:href="#O"/><use transform="matrix(0.06172839506172839,0,0,0.06172839506172839,230.61728395061724,0)" xlink:href="#P"/></g></defs></g></svg>