<svg xmlns="http://www.w3.org/2000/svg" xmlns:xlink="http://www.w3.org/1999/xlink" xmlns:lucid="lucid" width="2021" height="1304"><g transform="translate(0 0)" lucid:page-tab-id="vjk5cfobmfM2"><path d="M0 0h3456v1360H0z" fill="#fff"/><g fill="none"><path d="M585.86 350.5v599"/><path d="M585.86 350.5v5m0 4.98v10m0 4.98v9.98m0 5v9.98m0 5v9.97m0 4.98v10m0 4.98v9.98m0 5v9.98m0 5v9.97m0 4.98v10m0 4.98v9.98m0 5v9.98m0 5v9.97m0 4.98v10m0 4.98v9.98m0 5v9.98m0 5v9.97m0 4.98v10m0 4.98v9.98m0 5V640m0 5v9.97m0 4.98v10m0 4.98v9.98m0 5v9.98m0 5v9.97m0 4.98v10m0 4.98v9.98m0 5v9.98m0 5v9.97m0 4.98v10m0 4.98v9.98m0 5v9.98m0 5v9.97m0 4.98v10m0 4.98v9.98m0 5v9.98m0 5v9.97m0 4.98v10m0 4.98v9.98m0 5v9.98m0 5v4.98" stroke="#3a414a" stroke-linecap="round"/></g><path d="M158.44 400h399.6v18.94h-399.6z" fill="none"/><use xlink:href="#a" transform="matrix(1,0,0,1,158.44335769698924,400.00000000000006) translate(84.6913580246914 17.77777777777778)"/><use xlink:href="#b" transform="matrix(1,0,0,1,158.44335769698924,400.00000000000006) translate(103.20987654320992 17.77777777777778)"/><path d="M124.56 383.52a6 6 0 0 1 6-6h21.88a6 6 0 0 1 6 6V1234a6 6 0 0 1-6 6h-21.88a6 6 0 0 1-6-6z" stroke="#3a414a" fill="url(#c)"/><path d="M171.6 92.4c0 17.9-14.5 32.42-32.4 32.42s-32.42-14.5-32.42-32.4S121.28 60 139.18 60s32.42 14.5 32.42 32.4z" stroke="#3a414a" fill="#fff"/><path d="M139.2 124.82v84.76a17.75 17.75 0 0 0 3.63 10.77l75.55 98.94m-79.2-103.72L60 319.28m0-162.04h158.38" stroke="#3a414a" fill="none"/><path d="M60 66a6 6 0 0 1 6-6h146.38a6 6 0 0 1 6 6v269.3a6 6 0 0 1-6 6H66a6 6 0 0 1-6-6z" fill="none"/><use xlink:href="#d" transform="matrix(1,0,0,1,-20,319.2944444444445) translate(133.60493827160494 17.77777777777778)"/><path d="M471.92 246a6 6 0 0 1 6-6h220.2a6 6 0 0 1 6 6v96.68a6 6 0 0 1-6 6h-220.2a6 6 0 0 1-6-6z" stroke="#3a414a" fill="#fff"/><use xlink:href="#e" transform="matrix(1,0,0,1,476.92220796249387,245.00000000000006) translate(52.2716049382716 54.90277777777778)"/><path d="M159.44 431.38H568.98" stroke="#3a414a" fill="none"/><path d="M159.46 431.86h-.52v-.95h.52z" stroke="#3a414a" stroke-width=".05" fill="#3a414a"/><path d="M583.74 431.38l-14.26 4.64v-9.27z" stroke="#3a414a" fill="#3a414a"/><path d="M578.2 383.2a6 6 0 0 1 6-6h9.8a6 6 0 0 1 6 6v852.5a6 6 0 0 1-6 6h-9.8a6 6 0 0 1-6-6z" stroke="#3a414a" fill="#1071e5"/><path d="M577.2 1210.04h-4.96m-4.98 0h-9.94m-4.98 0h-9.94m-4.98 0h-9.94m-4.98 0h-9.94m-4.98 0h-9.94m-4.98 0h-9.94m-4.98 0h-9.94m-4.98 0h-9.94m-4.98 0h-9.94m-4.98 0h-9.94m-4.98 0h-9.94m-4.98 0h-9.94m-4.98 0h-9.94m-4.98 0h-9.92m-4.95 0h-9.9m-4.95 0h-9.9m-4.94 0h-9.9m-4.95 0H304m-4.96 0h-9.9m-4.94 0h-9.9m-4.95 0h-9.9m-4.94 0h-9.9m-4.94 0h-9.9m-4.95 0h-9.88m-4.95 0h-9.9m-4.95 0h-9.9m-4.94 0h-4.95" stroke="#3a414a" fill="none"/><path d="M577.7 1210.52h-.5v-.95h.5z" stroke="#3a414a" stroke-width=".05" fill="#3a414a"/><path d="M160.56 1210.04l14.27-4.63v9.28z" stroke="#3a414a" fill="#3a414a"/><g fill="none"><path d="M969.2 352.2v889"/><path d="M969.2 352.2v5.04m0 5.02v10.04m0 5.03v10.04m0 5.02v10.04m0 5.02v10.05m0 5.03v10.04m0 5.03v10.04m0 5.03v10.04m0 5.03v10.05m0 5.02v10.05m0 5.02v10.04m0 5.04v10.04m0 5.02v10.05m0 5.02v10.05m0 5.02v10.05m0 5v10.05m0 5.03v10.04m0 5.02v10.05m0 5v10.06m0 5.02v10.04m0 5.03v10.04m0 5v10.06m0 5.02v10.05m0 5.02v10.05m0 5.02v10.04m0 5.03v10.03m0 5.02V749m0 5.02v10.05m0 5.02v10.03m0 5.03v10.04m0 5.02v10.05m0 5.02v10.04m0 5.02v10.05m0 5.03v10.04m0 5.03v10.04m0 5.02v10.05m0 5.03v10.05m0 5.02v10.04m0 5.03v10.04m0 5.03v10.05m0 5.02v10.05m0 5.02v10.05m0 5.02v10.04m0 5.03v10.05m0 5.02v10.05m0 5.02v10.05m0 5v10.05m0 5.03v10.04m0 5.03v10.04m0 5v10.06m0 5.02v10.05m0 5.02v10.04m0 5.02v10.04m0 5.02v10.05m0 5.02v10.05m0 5.02v10.04m0 5.03v10.03m0 5.03v10.04m0 5.02v10.05m0 5.02v5" stroke="#3a414a" stroke-linecap="round"/></g><path d="M600.5 475.22h342.73M600.5 475.22h-.5" stroke="#3a414a" fill="none"/><path d="M958 475.22l-14.26 4.63v-9.27z" stroke="#3a414a" fill="#3a414a"/><path d="M853.1 246.4a6 6 0 0 1 6-6h220.2a6 6 0 0 1 6 6v96.68a6 6 0 0 1-6 6H859.1a6 6 0 0 1-6-6z" stroke="#3a414a" fill="#fff"/><use xlink:href="#f" transform="matrix(1,0,0,1,858.093882317419,245.40092817087276) translate(45.51234567901234 54.90277777777778)"/><path d="M960.12 443.9a6 6 0 0 1 6-6h6.15a6 6 0 0 1 6 6v200.85a6 6 0 0 1-6 6h-6.15a6 6 0 0 1-6-6z" stroke="#3a414a" fill="#1071e5"/><path d="M635.4 437.9h253.5v20H635.4z" fill="none"/><use xlink:href="#g" transform="matrix(1,0,0,1,635.3914353847784,437.88573486008426) translate(4.345679012345698 17.77777777777778)"/><use xlink:href="#h" transform="matrix(1,0,0,1,635.3914353847784,437.88573486008426) translate(41.382716049382736 17.77777777777778)"/><path d="M959.12 615.62h-4.98m-4.98 0h-9.96m-5 0h-9.95m-4.98 0h-9.96m-4.97 0h-9.96m-4.98 0h-9.97m-4.98 0h-9.97m-4.98 0h-9.96m-4.98 0h-9.96m-4.98 0h-9.96m-4.98 0h-9.97m-4.97 0h-9.96m-4.98 0H774.85m-4.96 0H760m-4.95 0h-9.9m-4.96 0h-9.9m-4.97 0h-9.9m-4.95 0h-9.9m-4.96 0h-9.9m-4.96 0h-9.9m-4.95 0H656m-4.95 0h-9.9m-4.96 0h-9.9m-4.96 0h-4.96" stroke="#3a414a" fill="none"/><path d="M959.62 616.1h-.5v-.95h.5z" stroke="#3a414a" stroke-width=".05" fill="#3a414a"/><path d="M601.62 615.62l14.26-4.63v9.26z" stroke="#3a414a" fill="#3a414a"/><path d="M601 758.54h342.23M601 758.54h-.5" stroke="#3a414a" fill="none"/><path d="M958 758.54l-14.27 4.63v-9.27z" stroke="#3a414a" fill="#3a414a"/><path d="M960.12 752.07a6 6 0 0 1 6-6h6.15a6 6 0 0 1 6 6V912.6a6 6 0 0 1-6 6h-6.15a6 6 0 0 1-6-6z" stroke="#3a414a" fill="#1071e5"/><path d="M635.4 708.74h253.5v29H635.4z" fill="none"/><use xlink:href="#i" transform="matrix(1,0,0,1,635.3914353847784,708.7417769817779) translate(12.30864197530866 18.944444444444443)"/><use xlink:href="#j" transform="matrix(1,0,0,1,635.3914353847784,708.7417769817779) translate(49.3456790123457 18.944444444444443)"/><path d="M959.12 889.78h-4.98m-4.98 0h-9.96m-5 0h-9.95m-4.98 0h-9.96m-4.97 0h-9.96m-4.98 0h-9.97m-4.98 0h-9.97m-4.98 0h-9.96m-4.98 0h-9.96m-4.98 0h-9.96m-4.98 0h-9.97m-4.97 0h-9.96m-4.98 0H774.85m-4.96 0H760m-4.95 0h-9.9m-4.96 0h-9.9m-4.97 0h-9.9m-4.95 0h-9.9m-4.96 0h-9.9m-4.96 0h-9.9m-4.95 0H656m-4.95 0h-9.9m-4.96 0h-9.9m-4.96 0h-4.96" stroke="#3a414a" fill="none"/><path d="M959.62 890.25h-.5v-.95h.5z" stroke="#3a414a" stroke-width=".05" fill="#3a414a"/><path d="M601.62 889.78l14.26-4.63v9.26z" stroke="#3a414a" fill="#3a414a"/><path d="M600.5 1045.7h179.08a.23.23 0 0 1 .23.23.23.23 0 0 0 .24.23h163.2M600.5 1045.7h-.5" stroke="#3a414a" fill="none"/><path d="M958 1046.16l-14.26 4.64v-9.27z" stroke="#3a414a" fill="#3a414a"/><path d="M960.12 1011.67a6 6 0 0 1 6-6h6.15a6 6 0 0 1 6 6v189.2a6 6 0 0 1-6 6h-6.15a6 6 0 0 1-6-6z" stroke="#3a414a" fill="#1071e5"/><path d="M622.04 1005.67h280.22v30.96H622.03z" fill="none"/><use xlink:href="#k" transform="matrix(1,0,0,1,622.0441590582072,1005.6732906623066) translate(12.845679012345713 19.944444444444443)"/><use xlink:href="#l" transform="matrix(1,0,0,1,622.0441590582072,1005.6732906623066) translate(49.88271604938275 19.944444444444443)"/><path d="M959.12 1166.37h-4.98m-4.97 0h-9.95m-4.97 0h-9.95m-4.97 0h-9.95m-4.97 0h-9.94m-4.98 0h-9.94m-4.98 0h-9.94m-4.98 0h-9.95m-4.98 0h-9.95m-4.97 0h-9.95m-4.97 0h-9.95m-4.97 0H790m-4.97 0h-9.91m-4.95 0h-9.9m-4.93 0h-9.9m-4.94 0h-9.9m-4.93 0h-9.9m-4.94 0h-9.9m-4.93 0h-9.9m-4.94 0h-9.88m-4.95 0h-9.9m-4.93 0h-9.9m-4.94 0h-9.9m-4.93 0h-4.95" stroke="#3a414a" fill="none"/><path d="M959.62 1166.85h-.5v-.95h.5z" stroke="#3a414a" stroke-width=".05" fill="#3a414a"/><path d="M602.12 1166.37l14.26-4.63v9.27z" stroke="#3a414a" fill="#3a414a"/><path d="M979.27 502.7h270.88" stroke="#3a414a" fill="none"/><path d="M979.3 503.2h-.53v-.96h.52z" stroke="#3a414a" stroke-width=".05" fill="#3a414a"/><path d="M1264.9 502.7l-14.26 4.65v-9.27z" stroke="#3a414a" fill="#3a414a"/><g fill="none"><path d="M1276.1 351.8v889.4"/><path d="M1276.1 351.8v5.04m0 5.02v10.05m0 5.04V387m0 5v10.06m0 5.03v10.04m0 5.02v10.05m0 5.03v10.05m0 5.03v10.06m0 5.02v10.05m0 5.03v10.05m0 5.03v10.05m0 5.03v10.06m0 5.02v10.05m0 5.03v10.05m0 5.03v10.05m0 5.03v10.06m0 5.02v10.05m0 5.03v10.04m0 5.03v10.05m0 5.02v10.05m0 5.03v10.05m0 5.02v10.05m0 5.03v10.05m0 5.02v10.05m0 5.03v10.05m0 5.02v10.05m0 5.03v10.05m0 5.02v10.05m0 5.03v10.05m0 5.02V794m0 5.02v10.05m0 5.03v10.05m0 5.02v10.05m0 5.03v10.05m0 5.02v10.05m0 5.03v10.05m0 5.02v10.05m0 5.03v10.05m0 5.02v10.05m0 5.03v10.05m0 5.02v10.05m0 5.03v10.05m0 5.02v10.05m0 5.02v10.04m0 5.03v10.05m0 5.02v10.05m0 5.02v10.05m0 5.02v10.04m0 5.03v10.05m0 5.02v10.05m0 5.02v10.05m0 5.02v10.04m0 5.03v10.05m0 5.02v10.05m0 5.02v10.04m0 5.03v10.04m0 5.02V1201m0 5.04v10.05m0 5v10.06m0 5.03v5" stroke="#3a414a" stroke-linecap="round"/></g><path d="M1160 246a6 6 0 0 1 6-6h220.2a6 6 0 0 1 6 6v96.68a6 6 0 0 1-6 6H1166a6 6 0 0 1-6-6z" stroke="#3a414a" fill="#fff"/><use xlink:href="#m" transform="matrix(1,0,0,1,1165,245.00000000000006) translate(9.185185185185205 54.90277777777778)"/><path d="M1267.03 487.7a6 6 0 0 1 6-6h6.15a6 6 0 0 1 6 6v128a6 6 0 0 1-6 6h-6.15a6 6 0 0 1-6-6z" stroke="#3a414a" fill="#1071e5"/><g fill="none"><path d="M1556.1 351.8v889.4"/><path d="M1556.1 351.8v5.04m0 5.02v10.05m0 5.04V387m0 5v10.06m0 5.03v10.04m0 5.02v10.05m0 5.03v10.05m0 5.03v10.06m0 5.02v10.05m0 5.03v10.05m0 5.03v10.05m0 5.03v10.06m0 5.02v10.05m0 5.03v10.05m0 5.03v10.05m0 5.03v10.06m0 5.02v10.05m0 5.03v10.04m0 5.03v10.05m0 5.02v10.05m0 5.03v10.05m0 5.02v10.05m0 5.03v10.05m0 5.02v10.05m0 5.03v10.05m0 5.02v10.05m0 5.03v10.05m0 5.02v10.05m0 5.03v10.05m0 5.02V794m0 5.02v10.05m0 5.03v10.05m0 5.02v10.05m0 5.03v10.05m0 5.02v10.05m0 5.03v10.05m0 5.02v10.05m0 5.03v10.05m0 5.02v10.05m0 5.03v10.05m0 5.02v10.05m0 5.03v10.05m0 5.02v10.05m0 5.02v10.04m0 5.03v10.05m0 5.02v10.05m0 5.02v10.05m0 5.02v10.04m0 5.03v10.05m0 5.02v10.05m0 5.02v10.05m0 5.02v10.04m0 5.03v10.05m0 5.02v10.05m0 5.02v10.04m0 5.03v10.04m0 5.02V1201m0 5.04v10.05m0 5v10.06m0 5.03v5" stroke="#3a414a" stroke-linecap="round"/></g><path d="M1440 246a6 6 0 0 1 6-6h220.2a6 6 0 0 1 6 6v96.68a6 6 0 0 1-6 6H1446a6 6 0 0 1-6-6z" stroke="#3a414a" fill="#fff"/><use xlink:href="#n" transform="matrix(1,0,0,1,1445,245.00000000000006) translate(17.148148148148167 54.90277777777778)"/><g fill="none"><path d="M1837.5 353.8v889.4"/><path d="M1837.5 353.8v5.02m0 5.02v10.05m0 5.02v10.05m0 5.02v10.04m0 5.03v10.05m0 5.02v10.05m0 5.02v10.04m0 5.03v10.04m0 5.02v10.05m0 5.04v10.05m0 5v10.06m0 5.03v10.04m0 5.02v10.05m0 5.04v10.05m0 5v10.06m0 5.03v10.04m0 5.02V600m0 5.04v10.05m0 5v10.06m0 5.02v10.05m0 5.03v10.05m0 5.03v10.05m0 5.03v10.06m0 5.02v10.05m0 5.03v10.05m0 5.03v10.05m0 5.03v10.06m0 5.02v10.05m0 5.03v10.05m0 5.03v10.05m0 5.03v10.05m0 5.03v10.05m0 5.02v10.05m0 5.03v10.05m0 5.02v10.05m0 5.03v10.05m0 5.02v10.05m0 5.03v10.05m0 5.02v10.05m0 5.03v10.05m0 5.02v10.05m0 5.03v10.05m0 5.02v10.05m0 5.02v10.05m0 5.03v10.05m0 5.02v10.05m0 5.03v10.05m0 5.02v10.05m0 5.03v10.05m0 5.02v10.05m0 5.03v10.05m0 5.02v10.05m0 5.03v10.05m0 5.02v10.05m0 5.03v10.05m0 5.02v10.05m0 5.02V1203m0 5.02v10.05m0 5.02v10.04m0 5.03v5.02" stroke="#3a414a" stroke-linecap="round"/></g><path d="M1700 247.7a6 6 0 0 1 6-6h248a6 6 0 0 1 6 6v96.7a6 6 0 0 1-6 6h-248a6 6 0 0 1-6-6z" stroke="#3a414a" fill="#fff"/><use xlink:href="#o" transform="matrix(1,0,0,1,1705,246.71310513958196) translate(13.364197530864217 54.90277777777778)"/><path d="M1830.28 1047.98a6 6 0 0 1 6-6h6.15a6 6 0 0 1 6 6v108a6 6 0 0 1-6 6h-6.15a6 6 0 0 1-6-6z" stroke="#3a414a" fill="#1071e5"/><path d="M1266.03 588.53h-4.78m-4.78 0h-9.56m-4.77 0h-9.56m-4.78 0h-9.57m-4.78 0h-9.55m-4.78 0h-9.56m-4.78 0h-9.56m-4.78 0h-9.56m-4.78 0h-9.55m-4.78 0h-9.56m-4.77 0h-10.08m-5.32 0h-10.63m-5.3 0h-10.63m-5.32 0h-10.62m-5.3 0h-10.64m-5.32 0h-10.62m-5.32 0h-10.62m-5.3 0h-10.64m-5.3 0h-5.32" stroke="#3a414a" fill="none"/><path d="M1266.53 589h-.52v-.95h.53z" stroke="#3a414a" stroke-width=".05" fill="#3a414a"/><path d="M980.4 588.53l14.26-4.64v9.26z" stroke="#3a414a" fill="#3a414a"/><path d="M979.27 782.63h550.88" stroke="#3a414a" fill="none"/><path d="M979.3 783.1h-.53v-.95h.52z" stroke="#3a414a" stroke-width=".05" fill="#3a414a"/><path d="M1544.9 782.63l-14.26 4.63V778z" stroke="#3a414a" fill="#3a414a"/><path d="M1555.1 860.06h-5.05m-5.05 0h-10.1m-5.05 0h-10.1m-5.06 0h-10.1m-5.06 0h-10.1m-5.05 0h-10.12m-5.05 0h-10.1m-5.05 0h-10.1m-5.05 0h-10.1m-5.06 0h-10.1m-5.05 0h-10.1m-5.05 0h-10.1m-5.06 0h-10.1m-5.04 0h-10.1m-5.05 0h-10.1m-5.05 0h-10.1m-5.05 0h-10.1m-5.05 0h-10.1m-5.06 0h-10.1m-5.06 0h-10.1m-5.04 0h-10.06m-5.04 0h-10.07m-5.04 0h-10.1m-5.02 0h-10.08m-5.04 0h-10.07m-5.05 0h-10.08m-5.03 0h-10.08m-5.04 0h-10.07m-5.04 0h-10.06m-5.04 0h-10.08m-5.03 0h-10.1m-5.03 0h-10.07m-5.04 0h-10.08m-5.03 0h-10.08m-5.03 0h-10.08m-5.04 0h-10.07m-5.04 0h-10.07m-5.03 0h-5.04" stroke="#3a414a" fill="none"/><path d="M1555.6 860.53h-.5v-.95h.5zm3 0h-2v-.95h2z" stroke="#3a414a" stroke-width=".05" fill="#3a414a"/><path d="M980.4 860.06l14.26-4.64v9.27z" stroke="#3a414a" fill="#3a414a"/><path d="M979.27 1067.58h834.12" stroke="#3a414a" fill="none"/><path d="M979.3 1068.06h-.53v-.95h.52z" stroke="#3a414a" stroke-width=".05" fill="#3a414a"/><path d="M1828.16 1067.58l-14.27 4.64v-9.28z" stroke="#3a414a" fill="#3a414a"/><path d="M1829.28 1140.12h-5.06m-5.06 0h-10.12m-5.05 0h-10.13m-5.06 0h-10.1m-5.06 0h-10.12m-5.06 0h-10.1m-5.07 0h-10.13m-5.05 0H1718m-5.06 0h-10.1m-5.07 0h-10.12m-5.05 0h-10.12m-5.06 0h-10.1m-5.07 0h-10.12m-5.06 0h-10.1m-5.07 0h-10.12m-5.05 0h-10.12m-5.05 0h-10.1m-5.07 0h-10.12m-5.06 0h-10.1m-5.07 0h-10.12m-5.04 0h-10.12m-5.06 0h-10.1m-5.07 0h-10.1m-5.06 0h-10.12m-5.06 0h-10.1m-5.07 0h-10.13m-5.06 0h-10.1m-5.06 0h-10.12m-5.05 0h-5.09l-.02-.02h-.02l-.02-.02v-.02l-.02-.03v-.08l-.02-.02-.02-.03-.02-.02h-.02l-.02-.02h-5.09m-5.06 0h-10.1m-5.04 0h-10.1m-5.05 0h-10.1m-5.05 0h-10.1m-5.05 0h-10.1m-5.04 0h-10.1m-5.04 0h-10.1m-5.05 0h-10.1m-5.04 0h-10.1m-5.04 0h-10.1m-5.05 0h-10.1m-5.05 0h-10.1m-5.05 0h-10.1m-5.04 0h-10.1m-5.05 0h-10.1m-5.05 0h-10.1m-5.05 0h-10.1m-5.04 0h-10.1m-5.05 0h-10.1m-5.06 0h-10.1m-5.05 0H1081m-5.06 0h-10.1m-5.04 0h-10.1m-5.05 0h-10.1m-5.05 0h-10.1m-5.04 0h-10.1m-5.05 0h-5.04" stroke="#3a414a" fill="none"/><path d="M1829.78 1140.6h-.52v-.96h.52z" stroke="#3a414a" stroke-width=".05" fill="#3a414a"/><path d="M980.4 1139.85l14.26-4.63v9.27z" stroke="#3a414a" fill="#3a414a"/><path d="M1547.03 767.7a6 6 0 0 1 6-6h6.15a6 6 0 0 1 6 6v108a6 6 0 0 1-6 6h-6.15a6 6 0 0 1-6-6z" stroke="#3a414a" fill="#1071e5"/><path d="M987.85 746.07h265.85V780H987.85z" fill="none"/><use xlink:href="#p" transform="matrix(1,0,0,1,987.8542075645685,746.072519338628) translate(3.524691358024711 21.444444444444443)"/><use xlink:href="#q" transform="matrix(1,0,0,1,987.8542075645685,746.072519338628) translate(59.08024691358027 21.444444444444443)"/><path d="M981.7 461.7h287.76V500H981.7z" fill="#fff" fill-opacity="0"/><use xlink:href="#r" transform="matrix(1,0,0,1,986.7082528401809,466.71310513958196) translate(0 17.77777777777778)"/><use xlink:href="#s" transform="matrix(1,0,0,1,986.7082528401809,466.71310513958196) translate(55.55555555555556 17.77777777777778)"/><path d="M987.85 1026.07H1299v38.3H987.85z" fill="#fff" fill-opacity="0"/><use xlink:href="#t" transform="matrix(1,0,0,1,992.8542075645685,1031.072519338628) translate(0 17.77777777777778)"/><use xlink:href="#u" transform="matrix(1,0,0,1,992.8542075645685,1031.072519338628) translate(55.55555555555556 17.77777777777778)"/><path d="M1256.1 616.75a6 6 0 0 1 6-6h28a6 6 0 0 1 6 6v28a6 6 0 0 1-6 6h-28a6 6 0 0 1-6-6z" fill="none"/><path d="M1260.1 614.75l32 32m0-32l-32 32" stroke="#3a414a" stroke-width="8" fill="none"/><path d="M1536.8 867.7a6 6 0 0 1 6-6h28a6 6 0 0 1 6 6v28a6 6 0 0 1-6 6h-28a6 6 0 0 1-6-6z" fill="none"/><path d="M1540.8 865.7l32 32m0-32l-32 32" stroke="#3a414a" stroke-width="8" fill="none"/><path d="M1819.35 1147.7a6 6 0 0 1 6-6h28a6 6 0 0 1 6 6v28a6 6 0 0 1-6 6h-28a6 6 0 0 1-6-6z" fill="none"/><path d="M1823.35 1145.7l32 32m0-32l-32 32" stroke="#3a414a" stroke-width="8" fill="none"/><defs><path fill="#3a414a" d="M27 0v-27h64v-190l-56 39v-29l58-41h29v221h61V0H27" id="v"/><use transform="matrix(0.06172839506172839,0,0,0.06172839506172839,0,0)" xlink:href="#v" id="a"/><path fill="#3a414a" d="M30-248c87 1 191-15 191 75 0 78-77 80-158 76V0H30v-248zm33 125c57 0 124 11 124-50 0-59-68-47-124-48v98" id="w"/><path fill="#3a414a" d="M114-163C36-179 61-72 57 0H25l-1-190h30c1 12-1 29 2 39 6-27 23-49 58-41v29" id="x"/><path fill="#3a414a" d="M100-194c63 0 86 42 84 106H49c0 40 14 67 53 68 26 1 43-12 49-29l28 8c-11 28-37 45-77 45C44 4 14-33 15-96c1-61 26-98 85-98zm52 81c6-60-76-77-97-28-3 7-6 17-6 28h103" id="y"/><path fill="#3a414a" d="M135-143c-3-34-86-38-87 0 15 53 115 12 119 90S17 21 10-45l28-5c4 36 97 45 98 0-10-56-113-15-118-90-4-57 82-63 122-42 12 7 21 19 24 35" id="z"/><path fill="#3a414a" d="M140-251c81 0 123 46 123 126C263-46 219 4 140 4 59 4 17-45 17-125s42-126 123-126zm0 227c63 0 89-41 89-101s-29-99-89-99c-61 0-89 39-89 99S79-25 140-24" id="A"/><path fill="#3a414a" d="M115-194c55 1 70 41 70 98S169 2 115 4C84 4 66-9 55-30l1 105H24l-1-265h31l2 30c10-21 28-34 59-34zm-8 174c40 0 45-34 45-75s-6-73-45-74c-42 0-51 32-51 76 0 43 10 73 51 73" id="B"/><path fill="#3a414a" d="M59-47c-2 24 18 29 38 22v24C64 9 27 4 27-40v-127H5v-23h24l9-43h21v43h35v23H59v120" id="C"/><path fill="#3a414a" d="M24-231v-30h32v30H24zM24 0v-190h32V0H24" id="D"/><path fill="#3a414a" d="M100-194c62-1 85 37 85 99 1 63-27 99-86 99S16-35 15-95c0-66 28-99 85-99zM99-20c44 1 53-31 53-75 0-43-8-75-51-75s-53 32-53 75 10 74 51 75" id="E"/><path fill="#3a414a" d="M117-194c89-4 53 116 60 194h-32v-121c0-31-8-49-39-48C34-167 62-67 57 0H25l-1-190h30c1 10-1 24 2 32 11-22 29-35 61-36" id="F"/><path fill="#3a414a" d="M160-131c35 5 61 23 61 61C221 17 115-2 30 0v-248c76 3 177-17 177 60 0 33-19 50-47 57zm-97-11c50-1 110 9 110-42 0-47-63-36-110-37v79zm0 115c55-2 124 14 124-45 0-56-70-42-124-44v89" id="G"/><path fill="#3a414a" d="M84 4C-5 8 30-112 23-190h32v120c0 31 7 50 39 49 72-2 45-101 50-169h31l1 190h-30c-1-10 1-25-2-33-11 22-28 36-60 37" id="H"/><path fill="#3a414a" d="M87 75C49 33 22-17 22-94c0-76 28-126 65-167h31c-38 41-64 92-64 168S80 34 118 75H87" id="I"/><path fill="#3a414a" d="M33-261c38 41 65 92 65 168S71 34 33 75H2C39 34 66-17 66-93S39-220 2-261h31" id="J"/><g id="b"><use transform="matrix(0.06172839506172839,0,0,0.06172839506172839,0,0)" xlink:href="#w"/><use transform="matrix(0.06172839506172839,0,0,0.06172839506172839,14.814814814814813,0)" xlink:href="#x"/><use transform="matrix(0.06172839506172839,0,0,0.06172839506172839,22.160493827160494,0)" xlink:href="#y"/><use transform="matrix(0.06172839506172839,0,0,0.06172839506172839,34.50617283950617,0)" xlink:href="#z"/><use transform="matrix(0.06172839506172839,0,0,0.06172839506172839,45.61728395061728,0)" xlink:href="#z"/><use transform="matrix(0.06172839506172839,0,0,0.06172839506172839,56.72839506172839,0)" xlink:href="#A"/><use transform="matrix(0.06172839506172839,0,0,0.06172839506172839,74.01234567901234,0)" xlink:href="#B"/><use transform="matrix(0.06172839506172839,0,0,0.06172839506172839,86.35802469135803,0)" xlink:href="#C"/><use transform="matrix(0.06172839506172839,0,0,0.06172839506172839,92.53086419753086,0)" xlink:href="#D"/><use transform="matrix(0.06172839506172839,0,0,0.06172839506172839,97.4074074074074,0)" xlink:href="#E"/><use transform="matrix(0.06172839506172839,0,0,0.06172839506172839,109.75308641975309,0)" xlink:href="#F"/><use transform="matrix(0.06172839506172839,0,0,0.06172839506172839,122.09876543209877,0)" xlink:href="#z"/><use transform="matrix(0.06172839506172839,0,0,0.06172839506172839,133.20987654320987,0)" xlink:href="#G"/><use transform="matrix(0.06172839506172839,0,0,0.06172839506172839,148.02469135802468,0)" xlink:href="#H"/><use transform="matrix(0.06172839506172839,0,0,0.06172839506172839,160.37037037037035,0)" xlink:href="#C"/><use transform="matrix(0.06172839506172839,0,0,0.06172839506172839,166.5432098765432,0)" xlink:href="#C"/><use transform="matrix(0.06172839506172839,0,0,0.06172839506172839,172.71604938271602,0)" xlink:href="#E"/><use transform="matrix(0.06172839506172839,0,0,0.06172839506172839,185.0617283950617,0)" xlink:href="#F"/><use transform="matrix(0.06172839506172839,0,0,0.06172839506172839,197.40740740740736,0)" xlink:href="#I"/><use transform="matrix(0.06172839506172839,0,0,0.06172839506172839,204.75308641975303,0)" xlink:href="#J"/></g><linearGradient gradientUnits="userSpaceOnUse" id="c" x1="124.56" y1="377.52" x2="124.56" y2="1240"><stop offset="0%" stop-color="#909aa9"/><stop offset="50.01%" stop-color="#6b7686"/><stop offset="100%" stop-color="#4c535f"/></linearGradient><path fill="#3a414a" d="M205 0l-28-72H64L36 0H1l101-248h38L239 0h-34zm-38-99l-47-123c-12 45-31 82-46 123h93" id="K"/><path fill="#3a414a" d="M96-169c-40 0-48 33-48 73s9 75 48 75c24 0 41-14 43-38l32 2c-6 37-31 61-74 61-59 0-76-41-82-99-10-93 101-131 147-64 4 7 5 14 7 22l-32 3c-4-21-16-35-41-35" id="L"/><g id="d"><use transform="matrix(0.06172839506172839,0,0,0.06172839506172839,0,0)" xlink:href="#K"/><use transform="matrix(0.06172839506172839,0,0,0.06172839506172839,14.814814814814813,0)" xlink:href="#L"/><use transform="matrix(0.06172839506172839,0,0,0.06172839506172839,25.925925925925924,0)" xlink:href="#C"/><use transform="matrix(0.06172839506172839,0,0,0.06172839506172839,32.098765432098766,0)" xlink:href="#E"/><use transform="matrix(0.06172839506172839,0,0,0.06172839506172839,44.44444444444444,0)" xlink:href="#x"/></g><path fill="#3a414a" d="M141-36C126-15 110 5 73 4 37 3 15-17 15-53c-1-64 63-63 125-63 3-35-9-54-41-54-24 1-41 7-42 31l-33-3c5-37 33-52 76-52 45 0 72 20 72 64v82c-1 20 7 32 28 27v20c-31 9-61-2-59-35zM48-53c0 20 12 33 32 33 41-3 63-29 60-74-43 2-92-5-92 41" id="M"/><path fill="#3a414a" d="M240 0l2-218c-23 76-54 145-80 218h-23L58-218 59 0H30v-248h44l77 211c21-75 51-140 76-211h43V0h-30" id="N"/><g id="e"><use transform="matrix(0.06172839506172839,0,0,0.06172839506172839,0,0)" xlink:href="#w"/><use transform="matrix(0.06172839506172839,0,0,0.06172839506172839,14.814814814814813,0)" xlink:href="#M"/><use transform="matrix(0.06172839506172839,0,0,0.06172839506172839,27.160493827160494,0)" xlink:href="#H"/><use transform="matrix(0.06172839506172839,0,0,0.06172839506172839,39.50617283950617,0)" xlink:href="#z"/><use transform="matrix(0.06172839506172839,0,0,0.06172839506172839,50.61728395061728,0)" xlink:href="#y"/><use transform="matrix(0.06172839506172839,0,0,0.06172839506172839,62.962962962962955,0)" xlink:href="#N"/><use transform="matrix(0.06172839506172839,0,0,0.06172839506172839,81.41975308641975,0)" xlink:href="#y"/><use transform="matrix(0.06172839506172839,0,0,0.06172839506172839,93.76543209876543,0)" xlink:href="#F"/><use transform="matrix(0.06172839506172839,0,0,0.06172839506172839,106.11111111111111,0)" xlink:href="#H"/></g><g id="f"><use transform="matrix(0.06172839506172839,0,0,0.06172839506172839,0,0)" xlink:href="#A"/><use transform="matrix(0.06172839506172839,0,0,0.06172839506172839,17.28395061728395,0)" xlink:href="#B"/><use transform="matrix(0.06172839506172839,0,0,0.06172839506172839,29.629629629629626,0)" xlink:href="#C"/><use transform="matrix(0.06172839506172839,0,0,0.06172839506172839,35.80246913580247,0)" xlink:href="#D"/><use transform="matrix(0.06172839506172839,0,0,0.06172839506172839,40.67901234567901,0)" xlink:href="#E"/><use transform="matrix(0.06172839506172839,0,0,0.06172839506172839,53.02469135802469,0)" xlink:href="#F"/><use transform="matrix(0.06172839506172839,0,0,0.06172839506172839,65.37037037037037,0)" xlink:href="#z"/><use transform="matrix(0.06172839506172839,0,0,0.06172839506172839,76.48148148148148,0)" xlink:href="#N"/><use transform="matrix(0.06172839506172839,0,0,0.06172839506172839,94.93827160493827,0)" xlink:href="#y"/><use transform="matrix(0.06172839506172839,0,0,0.06172839506172839,107.28395061728395,0)" xlink:href="#F"/><use transform="matrix(0.06172839506172839,0,0,0.06172839506172839,119.62962962962963,0)" xlink:href="#H"/></g><path fill="#3a414a" d="M33 0v-38h34V0H33" id="O"/><g id="g"><use transform="matrix(0.06172839506172839,0,0,0.06172839506172839,0,0)" xlink:href="#v"/><use transform="matrix(0.06172839506172839,0,0,0.06172839506172839,12.345679012345679,0)" xlink:href="#O"/><use transform="matrix(0.06172839506172839,0,0,0.06172839506172839,18.51851851851852,0)" xlink:href="#v"/></g><path fill="#3a414a" d="M30-248c118-7 216 8 213 122C240-48 200 0 122 0H30v-248zM63-27c89 8 146-16 146-99s-60-101-146-95v194" id="P"/><path fill="#3a414a" d="M24 0v-261h32V0H24" id="Q"/><path fill="#3a414a" d="M179-190L93 31C79 59 56 82 12 73V49c39 6 53-20 64-50L1-190h34L92-34l54-156h33" id="R"/><g id="h"><use transform="matrix(0.06172839506172839,0,0,0.06172839506172839,0,0)" xlink:href="#w"/><use transform="matrix(0.06172839506172839,0,0,0.06172839506172839,14.814814814814813,0)" xlink:href="#x"/><use transform="matrix(0.06172839506172839,0,0,0.06172839506172839,22.160493827160494,0)" xlink:href="#y"/><use transform="matrix(0.06172839506172839,0,0,0.06172839506172839,34.50617283950617,0)" xlink:href="#z"/><use transform="matrix(0.06172839506172839,0,0,0.06172839506172839,45.61728395061728,0)" xlink:href="#z"/><use transform="matrix(0.06172839506172839,0,0,0.06172839506172839,56.72839506172839,0)" xlink:href="#P"/><use transform="matrix(0.06172839506172839,0,0,0.06172839506172839,72.71604938271605,0)" xlink:href="#D"/><use transform="matrix(0.06172839506172839,0,0,0.06172839506172839,77.5925925925926,0)" xlink:href="#z"/><use transform="matrix(0.06172839506172839,0,0,0.06172839506172839,88.70370370370371,0)" xlink:href="#B"/><use transform="matrix(0.06172839506172839,0,0,0.06172839506172839,101.0493827160494,0)" xlink:href="#Q"/><use transform="matrix(0.06172839506172839,0,0,0.06172839506172839,105.92592592592594,0)" xlink:href="#M"/><use transform="matrix(0.06172839506172839,0,0,0.06172839506172839,118.27160493827162,0)" xlink:href="#R"/><use transform="matrix(0.06172839506172839,0,0,0.06172839506172839,129.38271604938274,0)" xlink:href="#G"/><use transform="matrix(0.06172839506172839,0,0,0.06172839506172839,144.19753086419755,0)" xlink:href="#H"/><use transform="matrix(0.06172839506172839,0,0,0.06172839506172839,156.54320987654322,0)" xlink:href="#C"/><use transform="matrix(0.06172839506172839,0,0,0.06172839506172839,162.71604938271605,0)" xlink:href="#C"/><use transform="matrix(0.06172839506172839,0,0,0.06172839506172839,168.88888888888889,0)" xlink:href="#E"/><use transform="matrix(0.06172839506172839,0,0,0.06172839506172839,181.23456790123456,0)" xlink:href="#F"/><use transform="matrix(0.06172839506172839,0,0,0.06172839506172839,193.58024691358023,0)" xlink:href="#I"/><use transform="matrix(0.06172839506172839,0,0,0.06172839506172839,200.9259259259259,0)" xlink:href="#J"/></g><path fill="#3a414a" d="M101-251c82-7 93 87 43 132L82-64C71-53 59-42 53-27h129V0H18c2-99 128-94 128-182 0-28-16-43-45-43s-46 15-49 41l-32-3c6-41 34-60 81-64" id="S"/><g id="i"><use transform="matrix(0.06172839506172839,0,0,0.06172839506172839,0,0)" xlink:href="#v"/><use transform="matrix(0.06172839506172839,0,0,0.06172839506172839,12.345679012345679,0)" xlink:href="#O"/><use transform="matrix(0.06172839506172839,0,0,0.06172839506172839,18.51851851851852,0)" xlink:href="#S"/></g><path fill="#3a414a" d="M85-194c31 0 48 13 60 33l-1-100h32l1 261h-30c-2-10 0-23-3-31C134-8 116 4 85 4 32 4 16-35 15-94c0-66 23-100 70-100zm9 24c-40 0-46 34-46 75 0 40 6 74 45 74 42 0 51-32 51-76 0-42-9-74-50-73" id="T"/><g id="j"><use transform="matrix(0.06172839506172839,0,0,0.06172839506172839,0,0)" xlink:href="#w"/><use transform="matrix(0.06172839506172839,0,0,0.06172839506172839,14.814814814814813,0)" xlink:href="#x"/><use transform="matrix(0.06172839506172839,0,0,0.06172839506172839,22.160493827160494,0)" xlink:href="#y"/><use transform="matrix(0.06172839506172839,0,0,0.06172839506172839,34.50617283950617,0)" xlink:href="#z"/><use transform="matrix(0.06172839506172839,0,0,0.06172839506172839,45.61728395061728,0)" xlink:href="#z"/><use transform="matrix(0.06172839506172839,0,0,0.06172839506172839,56.72839506172839,0)" xlink:href="#K"/><use transform="matrix(0.06172839506172839,0,0,0.06172839506172839,71.5432098765432,0)" xlink:href="#H"/><use transform="matrix(0.06172839506172839,0,0,0.06172839506172839,83.88888888888889,0)" xlink:href="#T"/><use transform="matrix(0.06172839506172839,0,0,0.06172839506172839,96.23456790123457,0)" xlink:href="#D"/><use transform="matrix(0.06172839506172839,0,0,0.06172839506172839,101.11111111111111,0)" xlink:href="#E"/><use transform="matrix(0.06172839506172839,0,0,0.06172839506172839,113.4567901234568,0)" xlink:href="#G"/><use transform="matrix(0.06172839506172839,0,0,0.06172839506172839,128.27160493827162,0)" xlink:href="#H"/><use transform="matrix(0.06172839506172839,0,0,0.06172839506172839,140.6172839506173,0)" xlink:href="#C"/><use transform="matrix(0.06172839506172839,0,0,0.06172839506172839,146.79012345679013,0)" xlink:href="#C"/><use transform="matrix(0.06172839506172839,0,0,0.06172839506172839,152.96296296296296,0)" xlink:href="#E"/><use transform="matrix(0.06172839506172839,0,0,0.06172839506172839,165.30864197530863,0)" xlink:href="#F"/><use transform="matrix(0.06172839506172839,0,0,0.06172839506172839,177.6543209876543,0)" xlink:href="#I"/><use transform="matrix(0.06172839506172839,0,0,0.06172839506172839,184.99999999999997,0)" xlink:href="#J"/></g><path fill="#3a414a" d="M126-127c33 6 58 20 58 59 0 88-139 92-164 29-3-8-5-16-6-25l32-3c6 27 21 44 54 44 32 0 52-15 52-46 0-38-36-46-79-43v-28c39 1 72-4 72-42 0-27-17-43-46-43-28 0-47 15-49 41l-32-3c6-42 35-63 81-64 48-1 79 21 79 65 0 36-21 52-52 59" id="U"/><g id="k"><use transform="matrix(0.06172839506172839,0,0,0.06172839506172839,0,0)" xlink:href="#v"/><use transform="matrix(0.06172839506172839,0,0,0.06172839506172839,12.345679012345679,0)" xlink:href="#O"/><use transform="matrix(0.06172839506172839,0,0,0.06172839506172839,18.51851851851852,0)" xlink:href="#U"/></g><path fill="#3a414a" d="M194 0L95-120 63-95V0H30v-248h33v124l119-124h40L117-140 236 0h-42" id="V"/><g id="l"><use transform="matrix(0.06172839506172839,0,0,0.06172839506172839,0,0)" xlink:href="#w"/><use transform="matrix(0.06172839506172839,0,0,0.06172839506172839,14.814814814814813,0)" xlink:href="#x"/><use transform="matrix(0.06172839506172839,0,0,0.06172839506172839,22.160493827160494,0)" xlink:href="#y"/><use transform="matrix(0.06172839506172839,0,0,0.06172839506172839,34.50617283950617,0)" xlink:href="#z"/><use transform="matrix(0.06172839506172839,0,0,0.06172839506172839,45.61728395061728,0)" xlink:href="#z"/><use transform="matrix(0.06172839506172839,0,0,0.06172839506172839,56.72839506172839,0)" xlink:href="#V"/><use transform="matrix(0.06172839506172839,0,0,0.06172839506172839,71.5432098765432,0)" xlink:href="#y"/><use transform="matrix(0.06172839506172839,0,0,0.06172839506172839,83.88888888888889,0)" xlink:href="#R"/><use transform="matrix(0.06172839506172839,0,0,0.06172839506172839,95,0)" xlink:href="#G"/><use transform="matrix(0.06172839506172839,0,0,0.06172839506172839,109.81481481481481,0)" xlink:href="#D"/><use transform="matrix(0.06172839506172839,0,0,0.06172839506172839,114.69135802469135,0)" xlink:href="#F"/><use transform="matrix(0.06172839506172839,0,0,0.06172839506172839,127.03703703703702,0)" xlink:href="#T"/><use transform="matrix(0.06172839506172839,0,0,0.06172839506172839,139.3827160493827,0)" xlink:href="#G"/><use transform="matrix(0.06172839506172839,0,0,0.06172839506172839,154.19753086419752,0)" xlink:href="#H"/><use transform="matrix(0.06172839506172839,0,0,0.06172839506172839,166.5432098765432,0)" xlink:href="#C"/><use transform="matrix(0.06172839506172839,0,0,0.06172839506172839,172.71604938271602,0)" xlink:href="#C"/><use transform="matrix(0.06172839506172839,0,0,0.06172839506172839,178.88888888888886,0)" xlink:href="#E"/><use transform="matrix(0.06172839506172839,0,0,0.06172839506172839,191.23456790123453,0)" xlink:href="#F"/><use transform="matrix(0.06172839506172839,0,0,0.06172839506172839,203.5802469135802,0)" xlink:href="#I"/><use transform="matrix(0.06172839506172839,0,0,0.06172839506172839,210.92592592592587,0)" xlink:href="#J"/></g><g id="m"><use transform="matrix(0.06172839506172839,0,0,0.06172839506172839,0,0)" xlink:href="#P"/><use transform="matrix(0.06172839506172839,0,0,0.06172839506172839,15.987654320987653,0)" xlink:href="#D"/><use transform="matrix(0.06172839506172839,0,0,0.06172839506172839,20.864197530864196,0)" xlink:href="#z"/><use transform="matrix(0.06172839506172839,0,0,0.06172839506172839,31.975308641975307,0)" xlink:href="#B"/><use transform="matrix(0.06172839506172839,0,0,0.06172839506172839,44.32098765432099,0)" xlink:href="#Q"/><use transform="matrix(0.06172839506172839,0,0,0.06172839506172839,49.19753086419753,0)" xlink:href="#M"/><use transform="matrix(0.06172839506172839,0,0,0.06172839506172839,61.54320987654321,0)" xlink:href="#R"/><use transform="matrix(0.06172839506172839,0,0,0.06172839506172839,72.65432098765432,0)" xlink:href="#A"/><use transform="matrix(0.06172839506172839,0,0,0.06172839506172839,89.93827160493827,0)" xlink:href="#B"/><use transform="matrix(0.06172839506172839,0,0,0.06172839506172839,102.28395061728395,0)" xlink:href="#C"/><use transform="matrix(0.06172839506172839,0,0,0.06172839506172839,108.45679012345678,0)" xlink:href="#D"/><use transform="matrix(0.06172839506172839,0,0,0.06172839506172839,113.33333333333333,0)" xlink:href="#E"/><use transform="matrix(0.06172839506172839,0,0,0.06172839506172839,125.67901234567901,0)" xlink:href="#F"/><use transform="matrix(0.06172839506172839,0,0,0.06172839506172839,138.02469135802468,0)" xlink:href="#z"/><use transform="matrix(0.06172839506172839,0,0,0.06172839506172839,149.1358024691358,0)" xlink:href="#N"/><use transform="matrix(0.06172839506172839,0,0,0.06172839506172839,167.59259259259258,0)" xlink:href="#y"/><use transform="matrix(0.06172839506172839,0,0,0.06172839506172839,179.93827160493825,0)" xlink:href="#F"/><use transform="matrix(0.06172839506172839,0,0,0.06172839506172839,192.28395061728392,0)" xlink:href="#H"/></g><g id="n"><use transform="matrix(0.06172839506172839,0,0,0.06172839506172839,0,0)" xlink:href="#K"/><use transform="matrix(0.06172839506172839,0,0,0.06172839506172839,14.814814814814813,0)" xlink:href="#H"/><use transform="matrix(0.06172839506172839,0,0,0.06172839506172839,27.160493827160494,0)" xlink:href="#T"/><use transform="matrix(0.06172839506172839,0,0,0.06172839506172839,39.50617283950617,0)" xlink:href="#D"/><use transform="matrix(0.06172839506172839,0,0,0.06172839506172839,44.382716049382715,0)" xlink:href="#E"/><use transform="matrix(0.06172839506172839,0,0,0.06172839506172839,56.72839506172839,0)" xlink:href="#A"/><use transform="matrix(0.06172839506172839,0,0,0.06172839506172839,74.01234567901234,0)" xlink:href="#B"/><use transform="matrix(0.06172839506172839,0,0,0.06172839506172839,86.35802469135803,0)" xlink:href="#C"/><use transform="matrix(0.06172839506172839,0,0,0.06172839506172839,92.53086419753086,0)" xlink:href="#D"/><use transform="matrix(0.06172839506172839,0,0,0.06172839506172839,97.4074074074074,0)" xlink:href="#E"/><use transform="matrix(0.06172839506172839,0,0,0.06172839506172839,109.75308641975309,0)" xlink:href="#F"/><use transform="matrix(0.06172839506172839,0,0,0.06172839506172839,122.09876543209877,0)" xlink:href="#z"/><use transform="matrix(0.06172839506172839,0,0,0.06172839506172839,133.20987654320987,0)" xlink:href="#N"/><use transform="matrix(0.06172839506172839,0,0,0.06172839506172839,151.66666666666666,0)" xlink:href="#y"/><use transform="matrix(0.06172839506172839,0,0,0.06172839506172839,164.01234567901233,0)" xlink:href="#F"/><use transform="matrix(0.06172839506172839,0,0,0.06172839506172839,176.358024691358,0)" xlink:href="#H"/></g><path fill="#3a414a" d="M115-194c53 0 69 39 70 98 0 66-23 100-70 100C84 3 66-7 56-30L54 0H23l1-261h32v101c10-23 28-34 59-34zm-8 174c40 0 45-34 45-75 0-40-5-75-45-74-42 0-51 32-51 76 0 43 10 73 51 73" id="W"/><g id="o"><use transform="matrix(0.06172839506172839,0,0,0.06172839506172839,0,0)" xlink:href="#V"/><use transform="matrix(0.06172839506172839,0,0,0.06172839506172839,14.814814814814813,0)" xlink:href="#y"/><use transform="matrix(0.06172839506172839,0,0,0.06172839506172839,27.160493827160494,0)" xlink:href="#R"/><use transform="matrix(0.06172839506172839,0,0,0.06172839506172839,38.27160493827161,0)" xlink:href="#W"/><use transform="matrix(0.06172839506172839,0,0,0.06172839506172839,50.617283950617285,0)" xlink:href="#D"/><use transform="matrix(0.06172839506172839,0,0,0.06172839506172839,55.49382716049383,0)" xlink:href="#F"/><use transform="matrix(0.06172839506172839,0,0,0.06172839506172839,67.8395061728395,0)" xlink:href="#T"/><use transform="matrix(0.06172839506172839,0,0,0.06172839506172839,80.18518518518519,0)" xlink:href="#z"/><use transform="matrix(0.06172839506172839,0,0,0.06172839506172839,91.2962962962963,0)" xlink:href="#A"/><use transform="matrix(0.06172839506172839,0,0,0.06172839506172839,108.58024691358025,0)" xlink:href="#B"/><use transform="matrix(0.06172839506172839,0,0,0.06172839506172839,120.92592592592594,0)" xlink:href="#C"/><use transform="matrix(0.06172839506172839,0,0,0.06172839506172839,127.09876543209879,0)" xlink:href="#D"/><use transform="matrix(0.06172839506172839,0,0,0.06172839506172839,131.97530864197532,0)" xlink:href="#E"/><use transform="matrix(0.06172839506172839,0,0,0.06172839506172839,144.320987654321,0)" xlink:href="#F"/><use transform="matrix(0.06172839506172839,0,0,0.06172839506172839,156.66666666666666,0)" xlink:href="#z"/><use transform="matrix(0.06172839506172839,0,0,0.06172839506172839,167.77777777777777,0)" xlink:href="#N"/><use transform="matrix(0.06172839506172839,0,0,0.06172839506172839,186.23456790123456,0)" xlink:href="#y"/><use transform="matrix(0.06172839506172839,0,0,0.06172839506172839,198.58024691358023,0)" xlink:href="#F"/><use transform="matrix(0.06172839506172839,0,0,0.06172839506172839,210.9259259259259,0)" xlink:href="#H"/></g><g id="p"><use transform="matrix(0.06172839506172839,0,0,0.06172839506172839,0,0)" xlink:href="#v"/><use transform="matrix(0.06172839506172839,0,0,0.06172839506172839,12.345679012345679,0)" xlink:href="#O"/><use transform="matrix(0.06172839506172839,0,0,0.06172839506172839,18.51851851851852,0)" xlink:href="#S"/><use transform="matrix(0.06172839506172839,0,0,0.06172839506172839,30.864197530864196,0)" xlink:href="#O"/><use transform="matrix(0.06172839506172839,0,0,0.06172839506172839,37.03703703703704,0)" xlink:href="#v"/></g><path fill="#3a414a" d="M185-189c-5-48-123-54-124 2 14 75 158 14 163 119 3 78-121 87-175 55-17-10-28-26-33-46l33-7c5 56 141 63 141-1 0-78-155-14-162-118-5-82 145-84 179-34 5 7 8 16 11 25" id="X"/><path fill="#3a414a" d="M106-169C34-169 62-67 57 0H25v-261h32l-1 103c12-21 28-36 61-36 89 0 53 116 60 194h-32v-121c2-32-8-49-39-48" id="Y"/><path fill="#3a414a" d="M206 0h-36l-40-164L89 0H53L-1-190h32L70-26l43-164h34l41 164 42-164h31" id="Z"/><g id="q"><use transform="matrix(0.06172839506172839,0,0,0.06172839506172839,0,0)" xlink:href="#X"/><use transform="matrix(0.06172839506172839,0,0,0.06172839506172839,14.814814814814813,0)" xlink:href="#Y"/><use transform="matrix(0.06172839506172839,0,0,0.06172839506172839,27.160493827160494,0)" xlink:href="#E"/><use transform="matrix(0.06172839506172839,0,0,0.06172839506172839,39.50617283950617,0)" xlink:href="#Z"/><use transform="matrix(0.06172839506172839,0,0,0.06172839506172839,55.49382716049382,0)" xlink:href="#K"/><use transform="matrix(0.06172839506172839,0,0,0.06172839506172839,70.30864197530863,0)" xlink:href="#H"/><use transform="matrix(0.06172839506172839,0,0,0.06172839506172839,82.65432098765432,0)" xlink:href="#T"/><use transform="matrix(0.06172839506172839,0,0,0.06172839506172839,95,0)" xlink:href="#D"/><use transform="matrix(0.06172839506172839,0,0,0.06172839506172839,99.87654320987654,0)" xlink:href="#E"/><use transform="matrix(0.06172839506172839,0,0,0.06172839506172839,112.22222222222223,0)" xlink:href="#A"/><use transform="matrix(0.06172839506172839,0,0,0.06172839506172839,129.50617283950618,0)" xlink:href="#B"/><use transform="matrix(0.06172839506172839,0,0,0.06172839506172839,141.85185185185185,0)" xlink:href="#C"/><use transform="matrix(0.06172839506172839,0,0,0.06172839506172839,148.02469135802468,0)" xlink:href="#D"/><use transform="matrix(0.06172839506172839,0,0,0.06172839506172839,152.9012345679012,0)" xlink:href="#E"/><use transform="matrix(0.06172839506172839,0,0,0.06172839506172839,165.24691358024688,0)" xlink:href="#F"/><use transform="matrix(0.06172839506172839,0,0,0.06172839506172839,177.59259259259255,0)" xlink:href="#z"/><use transform="matrix(0.06172839506172839,0,0,0.06172839506172839,188.70370370370367,0)" xlink:href="#I"/><use transform="matrix(0.06172839506172839,0,0,0.06172839506172839,196.04938271604934,0)" xlink:href="#J"/></g><g id="r"><use transform="matrix(0.06172839506172839,0,0,0.06172839506172839,0,0)" xlink:href="#v"/><use transform="matrix(0.06172839506172839,0,0,0.06172839506172839,12.345679012345679,0)" xlink:href="#O"/><use transform="matrix(0.06172839506172839,0,0,0.06172839506172839,18.51851851851852,0)" xlink:href="#v"/><use transform="matrix(0.06172839506172839,0,0,0.06172839506172839,30.864197530864196,0)" xlink:href="#O"/><use transform="matrix(0.06172839506172839,0,0,0.06172839506172839,37.03703703703704,0)" xlink:href="#v"/></g><g id="s"><use transform="matrix(0.06172839506172839,0,0,0.06172839506172839,0,0)" xlink:href="#X"/><use transform="matrix(0.06172839506172839,0,0,0.06172839506172839,14.814814814814813,0)" xlink:href="#Y"/><use transform="matrix(0.06172839506172839,0,0,0.06172839506172839,27.160493827160494,0)" xlink:href="#E"/><use transform="matrix(0.06172839506172839,0,0,0.06172839506172839,39.50617283950617,0)" xlink:href="#Z"/><use transform="matrix(0.06172839506172839,0,0,0.06172839506172839,55.49382716049382,0)" xlink:href="#P"/><use transform="matrix(0.06172839506172839,0,0,0.06172839506172839,71.48148148148148,0)" xlink:href="#D"/><use transform="matrix(0.06172839506172839,0,0,0.06172839506172839,76.35802469135803,0)" xlink:href="#z"/><use transform="matrix(0.06172839506172839,0,0,0.06172839506172839,87.46913580246914,0)" xlink:href="#B"/><use transform="matrix(0.06172839506172839,0,0,0.06172839506172839,99.81481481481482,0)" xlink:href="#Q"/><use transform="matrix(0.06172839506172839,0,0,0.06172839506172839,104.69135802469137,0)" xlink:href="#M"/><use transform="matrix(0.06172839506172839,0,0,0.06172839506172839,117.03703703703705,0)" xlink:href="#R"/><use transform="matrix(0.06172839506172839,0,0,0.06172839506172839,128.14814814814815,0)" xlink:href="#A"/><use transform="matrix(0.06172839506172839,0,0,0.06172839506172839,145.4320987654321,0)" xlink:href="#B"/><use transform="matrix(0.06172839506172839,0,0,0.06172839506172839,157.77777777777777,0)" xlink:href="#C"/><use transform="matrix(0.06172839506172839,0,0,0.06172839506172839,163.9506172839506,0)" xlink:href="#D"/><use transform="matrix(0.06172839506172839,0,0,0.06172839506172839,168.82716049382714,0)" xlink:href="#E"/><use transform="matrix(0.06172839506172839,0,0,0.06172839506172839,181.1728395061728,0)" xlink:href="#F"/><use transform="matrix(0.06172839506172839,0,0,0.06172839506172839,193.51851851851848,0)" xlink:href="#z"/><use transform="matrix(0.06172839506172839,0,0,0.06172839506172839,204.6296296296296,0)" xlink:href="#I"/><use transform="matrix(0.06172839506172839,0,0,0.06172839506172839,211.97530864197526,0)" xlink:href="#J"/></g><g id="t"><use transform="matrix(0.06172839506172839,0,0,0.06172839506172839,0,0)" xlink:href="#v"/><use transform="matrix(0.06172839506172839,0,0,0.06172839506172839,12.345679012345679,0)" xlink:href="#O"/><use transform="matrix(0.06172839506172839,0,0,0.06172839506172839,18.51851851851852,0)" xlink:href="#U"/><use transform="matrix(0.06172839506172839,0,0,0.06172839506172839,30.864197530864196,0)" xlink:href="#O"/><use transform="matrix(0.06172839506172839,0,0,0.06172839506172839,37.03703703703704,0)" xlink:href="#v"/></g><g id="u"><use transform="matrix(0.06172839506172839,0,0,0.06172839506172839,0,0)" xlink:href="#X"/><use transform="matrix(0.06172839506172839,0,0,0.06172839506172839,14.814814814814813,0)" xlink:href="#Y"/><use transform="matrix(0.06172839506172839,0,0,0.06172839506172839,27.160493827160494,0)" xlink:href="#E"/><use transform="matrix(0.06172839506172839,0,0,0.06172839506172839,39.50617283950617,0)" xlink:href="#Z"/><use transform="matrix(0.06172839506172839,0,0,0.06172839506172839,55.49382716049382,0)" xlink:href="#V"/><use transform="matrix(0.06172839506172839,0,0,0.06172839506172839,70.30864197530863,0)" xlink:href="#y"/><use transform="matrix(0.06172839506172839,0,0,0.06172839506172839,82.65432098765432,0)" xlink:href="#R"/><use transform="matrix(0.06172839506172839,0,0,0.06172839506172839,93.76543209876543,0)" xlink:href="#W"/><use transform="matrix(0.06172839506172839,0,0,0.06172839506172839,106.11111111111111,0)" xlink:href="#D"/><use transform="matrix(0.06172839506172839,0,0,0.06172839506172839,110.98765432098766,0)" xlink:href="#F"/><use transform="matrix(0.06172839506172839,0,0,0.06172839506172839,123.33333333333334,0)" xlink:href="#T"/><use transform="matrix(0.06172839506172839,0,0,0.06172839506172839,135.679012345679,0)" xlink:href="#z"/><use transform="matrix(0.06172839506172839,0,0,0.06172839506172839,146.79012345679013,0)" xlink:href="#A"/><use transform="matrix(0.06172839506172839,0,0,0.06172839506172839,164.07407407407408,0)" xlink:href="#B"/><use transform="matrix(0.06172839506172839,0,0,0.06172839506172839,176.41975308641975,0)" xlink:href="#C"/><use transform="matrix(0.06172839506172839,0,0,0.06172839506172839,182.59259259259258,0)" xlink:href="#D"/><use transform="matrix(0.06172839506172839,0,0,0.06172839506172839,187.4691358024691,0)" xlink:href="#E"/><use transform="matrix(0.06172839506172839,0,0,0.06172839506172839,199.81481481481478,0)" xlink:href="#F"/><use transform="matrix(0.06172839506172839,0,0,0.06172839506172839,212.16049382716045,0)" xlink:href="#z"/><use transform="matrix(0.06172839506172839,0,0,0.06172839506172839,223.27160493827157,0)" xlink:href="#I"/><use transform="matrix(0.06172839506172839,0,0,0.06172839506172839,230.61728395061724,0)" xlink:href="#J"/></g></defs></g></svg>