<svg xmlns="http://www.w3.org/2000/svg" xmlns:xlink="http://www.w3.org/1999/xlink" xmlns:lucid="lucid" width="1158" height="801"><g transform="translate(0 0)" lucid:page-tab-id="B3k5pAePwEno"><path d="M0 0h1760v1360H0z" fill="#fff"/><g fill="none"><path d="M519.9 333.3v406.2"/><path d="M519.9 333.3v5.02m0 5.02v10.03m0 5v10.04m0 5.02v10.03m0 5.02v10.03m0 5v10.04m0 5.02v10.03m0 5v10.03m0 5.02v10.03m0 5v10.04m0 5v10.04m0 5.02v10.03m0 5.02v10.03m0 5.02v10.03m0 5v10.04m0 5.02v10.02m0 5.02v10.03m0 5v10.04m0 5.02v10.02m0 5v10.04m0 5.02v10.03m0 5.02v10.03m0 5v10.04m0 5v10.04m0 5v10.04m0 5.02v10.03m0 5v10.04m0 5.02v5" stroke="#3a414a" stroke-linecap="round"/></g><g fill="none"><path d="M979.18 333.3v406.2"/><path d="M979.18 333.3v5.02m0 5.02v10.03m0 5v10.04m0 5.02v10.03m0 5.02v10.03m0 5v10.04m0 5.02v10.03m0 5v10.03m0 5.02v10.03m0 5v10.04m0 5v10.04m0 5.02v10.03m0 5.02v10.03m0 5.02v10.03m0 5v10.04m0 5.02v10.02m0 5.02v10.03m0 5v10.04m0 5.02v10.02m0 5v10.04m0 5.02v10.03m0 5.02v10.03m0 5v10.04m0 5v10.04m0 5v10.04m0 5.02v10.03m0 5v10.04m0 5.02v5" stroke="#3a414a" stroke-linecap="round"/></g><path d="M568.7 453.98h399.6v18.93H568.7z" fill="none"/><use xlink:href="#a" transform="matrix(1,0,0,1,568.6924302885045,453.97616001321916) translate(95.21604938271605 17.77777777777778)"/><use xlink:href="#b" transform="matrix(1,0,0,1,568.6924302885045,453.97616001321916) translate(150.7716049382716 17.77777777777778)"/><path d="M129.2 363.52a6 6 0 0 1 6-6h8a6 6 0 0 1 6 6V734a6 6 0 0 1-6 6h-8a6 6 0 0 1-6-6z" stroke="#3a414a" fill="url(#c)"/><path d="M510.85 364.47a6 6 0 0 1 6-6h14.53a6 6 0 0 1 6 6v197.95a6 6 0 0 1-6 6h-14.53a6 6 0 0 1-6-6z" stroke="#3a414a" fill="#1071e5"/><path d="M412.72 226a6 6 0 0 1 6-6h220.2a6 6 0 0 1 6 6v96.68a6 6 0 0 1-6 6h-220.2a6 6 0 0 1-6-6z" stroke="#3a414a" fill="#fff"/><use xlink:href="#d" transform="matrix(1,0,0,1,417.7215975815544,225) translate(9.833333333333357 54.90277777777778)"/><path d="M161.3 397a6 6 0 0 1 6-6h325.44a6 6 0 0 1 6 6v46a6 6 0 0 1-6 6H167.3a6 6 0 0 1-6-6z" stroke="#000" stroke-opacity="0" fill="#fff" fill-opacity="0"/><use xlink:href="#e" transform="matrix(1,0,0,1,166.29689898186282,396) translate(25.7777777777778 28)"/><use xlink:href="#f" transform="matrix(1,0,0,1,166.29689898186282,396) translate(31.333333333333353 28)"/><use xlink:href="#g" transform="matrix(1,0,0,1,166.29689898186282,396) translate(70.22222222222224 28)"/><use xlink:href="#h" transform="matrix(1,0,0,1,166.29689898186282,396) translate(283.44444444444446 28)"/><use xlink:href="#i" transform="matrix(1,0,0,1,166.29689898186282,396) translate(295.6111111111111 28)"/><path d="M150.2 440h343.76" stroke="#3a414a" fill="none"/><path d="M150.2 440.48h-.5v-.95h.5z" stroke="#3a414a" stroke-width=".05" fill="#3a414a"/><path d="M508.73 440l-14.27 4.63v-9.26z" stroke="#3a414a" fill="#3a414a"/><path d="M171.6 72.4c0 17.9-14.5 32.42-32.4 32.42s-32.42-14.5-32.42-32.4S121.28 40 139.18 40s32.42 14.5 32.42 32.4z" stroke="#3a414a" fill="#fff"/><path d="M139.2 104.82v84.76a17.75 17.75 0 0 0 3.63 10.77l75.55 98.94m-79.2-103.72L60 299.28m0-162.04h158.38" stroke="#3a414a" fill="none"/><path d="M60 46a6 6 0 0 1 6-6h146.38a6 6 0 0 1 6 6v269.3a6 6 0 0 1-6 6H66a6 6 0 0 1-6-6z" fill="none"/><use xlink:href="#j" transform="matrix(1,0,0,1,-20,299.2944444444445) translate(133.60493827160494 17.77777777777778)"/><path d="M865.25 227.26a6 6 0 0 1 6-6h220.2a6 6 0 0 1 6 6v96.68a6 6 0 0 1-6 6h-220.2a6 6 0 0 1-6-6z" stroke="#3a414a" fill="#fff"/><use xlink:href="#k" transform="matrix(1,0,0,1,870.2467648161631,226.25770158506748) translate(52.2716049382716 54.90277777777778)"/><path d="M538.4 476h415.58" stroke="#3a414a" fill="none"/><path d="M538.4 476.48h-.5v-.96h.5z" stroke="#3a414a" stroke-width=".05" fill="#3a414a"/><path d="M968.75 476l-14.27 4.63v-9.26z" stroke="#3a414a" fill="#3a414a"/><path d="M970.87 364.47a6 6 0 0 1 6-6h14.5a6 6 0 0 1 6 6v280.2a6 6 0 0 1-6 6h-14.5a6 6 0 0 1-6-6z" stroke="#3a414a" fill="#1071e5"/><path d="M961.35 644.47a6 6 0 0 1 6-6h28a6 6 0 0 1 6 6v28a6 6 0 0 1-6 6h-28a6 6 0 0 1-6-6z" fill="none"/><path d="M965.35 642.47l32 32m0-32l-32 32" stroke="#3a414a" stroke-width="8" fill="none"/><path d="M969.87 613h-5.06m-5.06 0h-10.12m-5.07 0h-10.12m-5.06 0h-10.13m-5.06 0h-10.13m-5.06 0h-10.14m-5.06 0h-10.13m-5.06 0h-10.1m-5.08 0H843.3m-5.06 0H828.1m-5.05 0h-10.13m-5.06 0h-10.13m-5.06 0h-10.13m-5.06 0h-10.12m-5.07 0h-10.13m-5.06 0H737m-5.06 0H721.8m-5.07 0H706.6m-5.06 0H691.4m-5.05 0h-10.13m-5.06 0h-10.12m-5.07 0h-10.12m-5.06 0h-10.14m-5.06 0h-10.13m-5.06 0H600.3m-5.06 0H585.1m-5.07 0H569.9m-5.06 0h-10.11m-5.06 0h-10.1m-5.06 0h-10.1m-5.05 0h-10.1m-5.06 0h-10.12m-5.05 0h-10.1m-5.07 0h-10.1m-5.06 0h-10.1m-5.06 0h-10.1m-5.06 0h-10.1m-5.06 0h-10.1m-5.06 0h-10.1m-5.07 0h-10.1m-5.07 0h-10.1m-5.06 0h-10.1m-5.06 0h-10.1m-5.05 0h-10.1m-5.06 0h-10.12m-5.06 0h-10.1m-5.06 0h-10.1m-5.06 0h-10.1m-5.06 0h-10.1m-5.06 0h-10.1m-5.06 0h-10.1m-5.07 0h-10.1m-5.06 0h-10.12m-5.05 0h-5.05" stroke="#3a414a" fill="none"/><path d="M970.37 613.47h-.5v-.95h.5z" stroke="#3a414a" stroke-width=".05" fill="#3a414a"/><path d="M150.8 613l14.28-4.63v9.26z" stroke="#3a414a" fill="#3a414a"/><defs><path fill="#3a414a" d="M27 0v-27h64v-190l-56 39v-29l58-41h29v221h61V0H27" id="l"/><path fill="#3a414a" d="M33 0v-38h34V0H33" id="m"/><g id="a"><use transform="matrix(0.06172839506172839,0,0,0.06172839506172839,0,0)" xlink:href="#l"/><use transform="matrix(0.06172839506172839,0,0,0.06172839506172839,12.345679012345679,0)" xlink:href="#m"/><use transform="matrix(0.06172839506172839,0,0,0.06172839506172839,18.51851851851852,0)" xlink:href="#l"/><use transform="matrix(0.06172839506172839,0,0,0.06172839506172839,30.864197530864196,0)" xlink:href="#m"/><use transform="matrix(0.06172839506172839,0,0,0.06172839506172839,37.03703703703704,0)" xlink:href="#l"/></g><path fill="#3a414a" d="M30-248c87 1 191-15 191 75 0 78-77 80-158 76V0H30v-248zm33 125c57 0 124 11 124-50 0-59-68-47-124-48v98" id="n"/><path fill="#3a414a" d="M114-163C36-179 61-72 57 0H25l-1-190h30c1 12-1 29 2 39 6-27 23-49 58-41v29" id="o"/><path fill="#3a414a" d="M100-194c63 0 86 42 84 106H49c0 40 14 67 53 68 26 1 43-12 49-29l28 8c-11 28-37 45-77 45C44 4 14-33 15-96c1-61 26-98 85-98zm52 81c6-60-76-77-97-28-3 7-6 17-6 28h103" id="p"/><path fill="#3a414a" d="M135-143c-3-34-86-38-87 0 15 53 115 12 119 90S17 21 10-45l28-5c4 36 97 45 98 0-10-56-113-15-118-90-4-57 82-63 122-42 12 7 21 19 24 35" id="q"/><path fill="#3a414a" d="M233-177c-1 41-23 64-60 70L243 0h-38l-65-103H63V0H30v-248c88 3 205-21 203 71zM63-129c60-2 137 13 137-47 0-61-80-42-137-45v92" id="r"/><path fill="#3a414a" d="M84 4C-5 8 30-112 23-190h32v120c0 31 7 50 39 49 72-2 45-101 50-169h31l1 190h-30c-1-10 1-25-2-33-11 22-28 36-60 37" id="s"/><path fill="#3a414a" d="M210-169c-67 3-38 105-44 169h-31v-121c0-29-5-50-35-48C34-165 62-65 56 0H25l-1-190h30c1 10-1 24 2 32 10-44 99-50 107 0 11-21 27-35 58-36 85-2 47 119 55 194h-31v-121c0-29-5-49-35-48" id="t"/><path fill="#3a414a" d="M87 75C49 33 22-17 22-94c0-76 28-126 65-167h31c-38 41-64 92-64 168S80 34 118 75H87" id="u"/><path fill="#3a414a" d="M33-261c38 41 65 92 65 168S71 34 33 75H2C39 34 66-17 66-93S39-220 2-261h31" id="v"/><g id="b"><use transform="matrix(0.06172839506172839,0,0,0.06172839506172839,0,0)" xlink:href="#n"/><use transform="matrix(0.06172839506172839,0,0,0.06172839506172839,14.814814814814813,0)" xlink:href="#o"/><use transform="matrix(0.06172839506172839,0,0,0.06172839506172839,22.160493827160494,0)" xlink:href="#p"/><use transform="matrix(0.06172839506172839,0,0,0.06172839506172839,34.50617283950617,0)" xlink:href="#q"/><use transform="matrix(0.06172839506172839,0,0,0.06172839506172839,45.61728395061728,0)" xlink:href="#q"/><use transform="matrix(0.06172839506172839,0,0,0.06172839506172839,56.72839506172839,0)" xlink:href="#r"/><use transform="matrix(0.06172839506172839,0,0,0.06172839506172839,72.71604938271605,0)" xlink:href="#p"/><use transform="matrix(0.06172839506172839,0,0,0.06172839506172839,85.06172839506173,0)" xlink:href="#q"/><use transform="matrix(0.06172839506172839,0,0,0.06172839506172839,96.17283950617285,0)" xlink:href="#s"/><use transform="matrix(0.06172839506172839,0,0,0.06172839506172839,108.51851851851853,0)" xlink:href="#t"/><use transform="matrix(0.06172839506172839,0,0,0.06172839506172839,126.97530864197533,0)" xlink:href="#p"/><use transform="matrix(0.06172839506172839,0,0,0.06172839506172839,139.320987654321,0)" xlink:href="#u"/><use transform="matrix(0.06172839506172839,0,0,0.06172839506172839,146.66666666666666,0)" xlink:href="#v"/></g><linearGradient gradientUnits="userSpaceOnUse" id="c" x1="129.19" y1="357.52" x2="129.19" y2="740"><stop offset="0%" stop-color="#909aa9"/><stop offset="50.01%" stop-color="#6b7686"/><stop offset="100%" stop-color="#4c535f"/></linearGradient><path fill="#3a414a" d="M143 4C61 4 22-44 18-125c-5-107 100-154 193-111 17 8 29 25 37 43l-32 9c-13-25-37-40-76-40-61 0-88 39-88 99 0 61 29 100 91 101 35 0 62-11 79-27v-45h-74v-28h105v86C228-13 192 4 143 4" id="w"/><path fill="#3a414a" d="M141-36C126-15 110 5 73 4 37 3 15-17 15-53c-1-64 63-63 125-63 3-35-9-54-41-54-24 1-41 7-42 31l-33-3c5-37 33-52 76-52 45 0 72 20 72 64v82c-1 20 7 32 28 27v20c-31 9-61-2-59-35zM48-53c0 20 12 33 32 33 41-3 63-29 60-74-43 2-92-5-92 41" id="x"/><path fill="#3a414a" d="M212-179c-10-28-35-45-73-45-59 0-87 40-87 99 0 60 29 101 89 101 43 0 62-24 78-52l27 14C228-24 195 4 139 4 59 4 22-46 18-125c-6-104 99-153 187-111 19 9 31 26 39 46" id="y"/><path fill="#3a414a" d="M100-194c62-1 85 37 85 99 1 63-27 99-86 99S16-35 15-95c0-66 28-99 85-99zM99-20c44 1 53-31 53-75 0-43-8-75-51-75s-53 32-53 75 10 74 51 75" id="z"/><path fill="#3a414a" d="M117-194c89-4 53 116 60 194h-32v-121c0-31-8-49-39-48C34-167 62-67 57 0H25l-1-190h30c1 10-1 24 2 32 11-22 29-35 61-36" id="A"/><path fill="#3a414a" d="M59-47c-2 24 18 29 38 22v24C64 9 27 4 27-40v-127H5v-23h24l9-43h21v43h35v23H59v120" id="B"/><path fill="#3a414a" d="M24 0v-261h32V0H24" id="C"/><path fill="#3a414a" d="M240 0l2-218c-23 76-54 145-80 218h-23L58-218 59 0H30v-248h44l77 211c21-75 51-140 76-211h43V0h-30" id="D"/><path fill="#3a414a" d="M85-194c31 0 48 13 60 33l-1-100h32l1 261h-30c-2-10 0-23-3-31C134-8 116 4 85 4 32 4 16-35 15-94c0-66 23-100 70-100zm9 24c-40 0-46 34-46 75 0 40 6 74 45 74 42 0 51-32 51-76 0-42-9-74-50-73" id="E"/><g id="d"><use transform="matrix(0.06172839506172839,0,0,0.06172839506172839,0,0)" xlink:href="#w"/><use transform="matrix(0.06172839506172839,0,0,0.06172839506172839,17.28395061728395,0)" xlink:href="#x"/><use transform="matrix(0.06172839506172839,0,0,0.06172839506172839,29.629629629629626,0)" xlink:href="#t"/><use transform="matrix(0.06172839506172839,0,0,0.06172839506172839,48.08641975308642,0)" xlink:href="#p"/><use transform="matrix(0.06172839506172839,0,0,0.06172839506172839,60.432098765432094,0)" xlink:href="#y"/><use transform="matrix(0.06172839506172839,0,0,0.06172839506172839,76.41975308641975,0)" xlink:href="#z"/><use transform="matrix(0.06172839506172839,0,0,0.06172839506172839,88.76543209876543,0)" xlink:href="#A"/><use transform="matrix(0.06172839506172839,0,0,0.06172839506172839,101.11111111111111,0)" xlink:href="#B"/><use transform="matrix(0.06172839506172839,0,0,0.06172839506172839,107.28395061728395,0)" xlink:href="#o"/><use transform="matrix(0.06172839506172839,0,0,0.06172839506172839,114.62962962962963,0)" xlink:href="#z"/><use transform="matrix(0.06172839506172839,0,0,0.06172839506172839,126.97530864197533,0)" xlink:href="#C"/><use transform="matrix(0.06172839506172839,0,0,0.06172839506172839,131.85185185185185,0)" xlink:href="#q"/><use transform="matrix(0.06172839506172839,0,0,0.06172839506172839,142.96296296296296,0)" xlink:href="#D"/><use transform="matrix(0.06172839506172839,0,0,0.06172839506172839,161.41975308641975,0)" xlink:href="#z"/><use transform="matrix(0.06172839506172839,0,0,0.06172839506172839,173.76543209876542,0)" xlink:href="#E"/><use transform="matrix(0.06172839506172839,0,0,0.06172839506172839,186.1111111111111,0)" xlink:href="#p"/><use transform="matrix(0.06172839506172839,0,0,0.06172839506172839,198.45679012345676,0)" xlink:href="#C"/></g><g id="f"><use transform="matrix(0.055555555555555546,0,0,0.055555555555555546,0,0)" xlink:href="#l"/><use transform="matrix(0.055555555555555546,0,0,0.055555555555555546,11.111111111111109,0)" xlink:href="#m"/><use transform="matrix(0.055555555555555546,0,0,0.055555555555555546,16.666666666666664,0)" xlink:href="#l"/></g><path fill="#3a414a" d="M194 0L95-120 63-95V0H30v-248h33v124l119-124h40L117-140 236 0h-42" id="F"/><path fill="#3a414a" d="M179-190L93 31C79 59 56 82 12 73V49c39 6 53-20 64-50L1-190h34L92-34l54-156h33" id="G"/><g id="g"><use transform="matrix(0.055555555555555546,0,0,0.055555555555555546,0,0)" xlink:href="#n"/><use transform="matrix(0.055555555555555546,0,0,0.055555555555555546,13.33333333333333,0)" xlink:href="#o"/><use transform="matrix(0.055555555555555546,0,0,0.055555555555555546,19.94444444444444,0)" xlink:href="#p"/><use transform="matrix(0.055555555555555546,0,0,0.055555555555555546,31.05555555555555,0)" xlink:href="#q"/><use transform="matrix(0.055555555555555546,0,0,0.055555555555555546,41.05555555555555,0)" xlink:href="#q"/><use transform="matrix(0.055555555555555546,0,0,0.055555555555555546,51.05555555555555,0)" xlink:href="#w"/><use transform="matrix(0.055555555555555546,0,0,0.055555555555555546,66.6111111111111,0)" xlink:href="#x"/><use transform="matrix(0.055555555555555546,0,0,0.055555555555555546,77.72222222222221,0)" xlink:href="#t"/><use transform="matrix(0.055555555555555546,0,0,0.055555555555555546,94.33333333333331,0)" xlink:href="#p"/><use transform="matrix(0.055555555555555546,0,0,0.055555555555555546,105.44444444444443,0)" xlink:href="#n"/><use transform="matrix(0.055555555555555546,0,0,0.055555555555555546,118.77777777777776,0)" xlink:href="#x"/><use transform="matrix(0.055555555555555546,0,0,0.055555555555555546,129.88888888888886,0)" xlink:href="#s"/><use transform="matrix(0.055555555555555546,0,0,0.055555555555555546,140.99999999999997,0)" xlink:href="#q"/><use transform="matrix(0.055555555555555546,0,0,0.055555555555555546,150.99999999999997,0)" xlink:href="#p"/><use transform="matrix(0.055555555555555546,0,0,0.055555555555555546,162.1111111111111,0)" xlink:href="#E"/><use transform="matrix(0.055555555555555546,0,0,0.055555555555555546,173.2222222222222,0)" xlink:href="#F"/><use transform="matrix(0.055555555555555546,0,0,0.055555555555555546,186.55555555555554,0)" xlink:href="#p"/><use transform="matrix(0.055555555555555546,0,0,0.055555555555555546,197.66666666666666,0)" xlink:href="#G"/></g><use transform="matrix(0.055555555555555546,0,0,0.055555555555555546,0,0)" xlink:href="#u" id="h"/><use transform="matrix(0.055555555555555546,0,0,0.055555555555555546,0,0)" xlink:href="#v" id="i"/><path fill="#3a414a" d="M205 0l-28-72H64L36 0H1l101-248h38L239 0h-34zm-38-99l-47-123c-12 45-31 82-46 123h93" id="H"/><path fill="#3a414a" d="M96-169c-40 0-48 33-48 73s9 75 48 75c24 0 41-14 43-38l32 2c-6 37-31 61-74 61-59 0-76-41-82-99-10-93 101-131 147-64 4 7 5 14 7 22l-32 3c-4-21-16-35-41-35" id="I"/><g id="j"><use transform="matrix(0.06172839506172839,0,0,0.06172839506172839,0,0)" xlink:href="#H"/><use transform="matrix(0.06172839506172839,0,0,0.06172839506172839,14.814814814814813,0)" xlink:href="#I"/><use transform="matrix(0.06172839506172839,0,0,0.06172839506172839,25.925925925925924,0)" xlink:href="#B"/><use transform="matrix(0.06172839506172839,0,0,0.06172839506172839,32.098765432098766,0)" xlink:href="#z"/><use transform="matrix(0.06172839506172839,0,0,0.06172839506172839,44.44444444444444,0)" xlink:href="#o"/></g><g id="k"><use transform="matrix(0.06172839506172839,0,0,0.06172839506172839,0,0)" xlink:href="#n"/><use transform="matrix(0.06172839506172839,0,0,0.06172839506172839,14.814814814814813,0)" xlink:href="#x"/><use transform="matrix(0.06172839506172839,0,0,0.06172839506172839,27.160493827160494,0)" xlink:href="#s"/><use transform="matrix(0.06172839506172839,0,0,0.06172839506172839,39.50617283950617,0)" xlink:href="#q"/><use transform="matrix(0.06172839506172839,0,0,0.06172839506172839,50.61728395061728,0)" xlink:href="#p"/><use transform="matrix(0.06172839506172839,0,0,0.06172839506172839,62.962962962962955,0)" xlink:href="#D"/><use transform="matrix(0.06172839506172839,0,0,0.06172839506172839,81.41975308641975,0)" xlink:href="#p"/><use transform="matrix(0.06172839506172839,0,0,0.06172839506172839,93.76543209876543,0)" xlink:href="#A"/><use transform="matrix(0.06172839506172839,0,0,0.06172839506172839,106.11111111111111,0)" xlink:href="#s"/></g></defs></g></svg>