<svg xmlns="http://www.w3.org/2000/svg" xmlns:xlink="http://www.w3.org/1999/xlink" xmlns:lucid="lucid" width="1239" height="721"><g transform="translate(-31 -224)" lucid:page-tab-id="0_0"><path d="M0 0h1360v1760H0z" fill="#fff"/><path d="M160 255.63a5 5 0 0 1 5-5h1070a5 5 0 0 1 5 5V915a5 5 0 0 1-5 5H165a5 5 0 0 1-5-5z" stroke="#333" fill-opacity="0"/><use xlink:href="#a" transform="matrix(1,0,0,1,168,258.6274360978109) translate(483.6666666666667 16)"/><path d="M820 328a8 8 0 0 1 8-8h364a8 8 0 0 1 8 8v364a8 8 0 0 1-8 8H828a8 8 0 0 1-8-8z" stroke="#333" fill-opacity="0"/><use xlink:href="#b" transform="matrix(1,0,0,1,828,328) translate(0 14.222222222222223)"/><path d="M200 328a8 8 0 0 1 8-8h564a8 8 0 0 1 8 8v564a8 8 0 0 1-8 8H208a8 8 0 0 1-8-8z" stroke="#333" fill-opacity="0"/><use xlink:href="#c" transform="matrix(1,0,0,1,208,328) translate(0 14.222222222222223)"/><use xlink:href="#d" transform="matrix(1,0,0,1,208,328) translate(45.333333333333336 14.222222222222223)"/><path d="M820 734.6a8 8 0 0 1 8-8h364a8 8 0 0 1 8 8V892a8 8 0 0 1-8 8H828a8 8 0 0 1-8-8z" stroke="#333" fill-opacity="0"/><use xlink:href="#e" transform="matrix(1,0,0,1,828,734.6021252592632) translate(0 14.222222222222223)"/><use xlink:href="#f" transform="matrix(1,0,0,1,828,734.6021252592632) translate(68.0493827160494 14.222222222222223)"/><path d="M359.7 403.2c0 21.08-23.86 38.17-53.28 38.17s-53.27-17.1-53.27-38.17c0-21.08 23.85-38.18 53.27-38.18s53.27 17.1 53.27 38.18z" stroke="#000" stroke-opacity="0" fill="#3278cc"/><use xlink:href="#g" transform="matrix(1,0,0,1,253.14655278534292,365.02496290458856) translate(11.646358024691368 29.726388888888884)"/><use xlink:href="#h" transform="matrix(1,0,0,1,253.14655278534292,365.02496290458856) translate(57.24759259259259 29.726388888888884)"/><use xlink:href="#i" transform="matrix(1,0,0,1,253.14655278534292,365.02496290458856) translate(27.519197530864204 52.659722222222214)"/><path d="M119.75 479.75c0 10.9-8.84 19.75-19.75 19.75-10.9 0-19.75-8.84-19.75-19.75 0-10.9 8.84-19.75 19.75-19.75 10.9 0 19.75 8.84 19.75 19.75z" stroke="#333" fill="#fff"/><path d="M100 499.5v47.3a27.6 27.6 0 0 0 4.28 14.76L140 618m-40-63.2L60 618m0-98.75h80" stroke="#333" fill="none"/><path d="M60 468a8 8 0 0 1 8-8h64a8 8 0 0 1 8 8v164a8 8 0 0 1-8 8H68a8 8 0 0 1-8-8z" fill="none"/><use xlink:href="#j" transform="matrix(1,0,0,1,-20,618) translate(94.8641975308642 14.555555555555555)"/><path d="M700 920.5" stroke="#333" fill="none"/><path stroke="#333" stroke-width=".05" fill="#333"/><path stroke="#333" stroke-width=".05" fill="#333"/><path d="M559.7 617c0 21.07-23.86 38.16-53.28 38.16s-53.27-17.1-53.27-38.17c0-21.1 23.85-38.18 53.27-38.18s53.27 17.1 53.27 38.17z" stroke="#000" stroke-opacity="0" fill="#3278cc"/><use xlink:href="#k" transform="matrix(1,0,0,1,453.1465527853429,578.821655057096) translate(28.83833333333333 31.06597222222222)"/><use xlink:href="#l" transform="matrix(1,0,0,1,453.1465527853429,578.821655057096) translate(32.29512345679012 52.39930555555556)"/><path d="M753.27 403.2c0 21.08-23.85 38.17-53.27 38.17s-53.27-17.1-53.27-38.17c0-21.08 23.85-38.18 53.27-38.18s53.27 17.1 53.27 38.18z" stroke="#000" stroke-opacity="0" fill="#3278cc"/><use xlink:href="#m" transform="matrix(1,0,0,1,646.7269308917884,365.02496290464074) translate(9.572901234567903 43.09722222222222)"/><use xlink:href="#n" transform="matrix(1,0,0,1,646.7269308917884,365.02496290464074) translate(54.01734567901235 43.09722222222222)"/><path d="M960 617c0 21.07-23.85 38.16-53.27 38.16-29.43 0-53.28-17.1-53.28-38.17 0-21.1 23.85-38.18 53.28-38.18 29.42 0 53.27 17.1 53.27 38.17z" stroke="#000" stroke-opacity="0" fill="#3278cc"/><use xlink:href="#o" transform="matrix(1,0,0,1,853.4538617836392,578.821655057096) translate(15.554382716049377 31.06597222222222)"/><use xlink:href="#n" transform="matrix(1,0,0,1,853.4538617836392,578.821655057096) translate(32.29512345679012 52.39930555555556)"/><path d="M359.7 617c0 21.07-23.86 38.16-53.28 38.16s-53.27-17.1-53.27-38.17c0-21.1 23.85-38.18 53.27-38.18s53.27 17.1 53.27 38.17z" stroke="#000" stroke-opacity="0" fill="#3278cc"/><use xlink:href="#p" transform="matrix(1,0,0,1,253.14655278534292,578.821655057096) translate(17.998827160493818 31.06597222222222)"/><use xlink:href="#q" transform="matrix(1,0,0,1,253.14655278534292,578.821655057096) translate(29.33216049382716 52.39930555555556)"/><path d="M140.38 519.08l112.4 97.58" stroke="#333" fill="none"/><path d="M140.7 518.73l-.62.72-.08-.07v-.63h-.72l-1.86-1.6.63-.73zM253.18 616.4l-.03.6.02.64-.72-.63.62-.7z" stroke="#333" stroke-width=".05" fill="#333"/><path d="M140.35 518.4L252.8 403.54" stroke="#333" fill="none"/><path d="M138.24 521.23l-.68-.67.8-.8h1.33zm2.46-2.5l-.7.7v-.68h-.66l.68-.7zM253.15 403.2l.02.65-.04.04-.68-.67.73-.75z" stroke="#333" stroke-width=".05" fill="#333"/><path d="M940 835.58c0 21.08-23.85 38.17-53.27 38.17-29.43 0-53.28-17.1-53.28-38.17 0-21.08 23.85-38.17 53.28-38.17 29.42 0 53.27 17.1 53.27 38.18z" stroke="#000" stroke-opacity="0" fill="#3278cc"/><use xlink:href="#r" transform="matrix(1,0,0,1,833.4538617835767,797.4104286123279) translate(28.319814814814812 31.06597222222222)"/><use xlink:href="#s" transform="matrix(1,0,0,1,833.4538617835767,797.4104286123279) translate(31.30746913580247 52.39930555555556)"/><path d="M360.2 617h8.5m8.5 0h17.02m8.5 0h17.03m8.5 0h8.5" stroke="#333" fill="none"/><path d="M360.2 617.47h-.53l.02-.48-.02-.48h.53z" stroke="#333" stroke-width=".05" fill="#333"/><path d="M451.53 617l-14.27 4.63v-9.27z" stroke="#333" fill="#333"/><path d="M544.54 589.77l6.3-7.96m6.3-7.94l12.6-15.9m6.3-7.96l12.62-15.9m6.3-7.96l12.6-15.9m6.3-7.96l12.62-15.9m6.3-7.97l12.6-15.9m6.3-7.95l6.32-7.95" stroke="#333" fill="none"/><path d="M544.92 590.05l-.3.38-.78-.54.33-.44z" stroke="#333" stroke-width=".05" fill="#333"/><path d="M667.17 435.03l-5.23 14.06-7.27-5.77z" stroke="#333" fill="#333"/><path d="M1072.13 835.58h-10.97m-10.96 0h-21.94m-10.97 0h-21.95m-10.97 0h-21.94m-10.97 0H940.5" stroke="#333" fill="none"/><path d="M1086.9 835.58l-14.27 4.64v-9.27z" stroke="#333" fill="#333"/><path d="M940.5 836.06H940l.02-.48-.02-.47h.53z" stroke="#333" stroke-width=".05" fill="#333"/><path d="M1195.07 835.58c0 21.08-23.86 38.17-53.28 38.17-29.43 0-53.28-17.1-53.28-38.17 0-21.08 23.85-38.17 53.27-38.17 29.4 0 53.27 17.1 53.27 38.18z" stroke="#000" stroke-opacity="0" fill="#3278cc"/><use xlink:href="#t" transform="matrix(1,0,0,1,1088.5187620773434,797.4104286123279) translate(20.467962962962957 31.06597222222222)"/><use xlink:href="#q" transform="matrix(1,0,0,1,1088.5187620773434,797.4104286123279) translate(29.33216049382716 52.39930555555556)"/><path d="M359.7 835.58c0 21.08-23.86 38.17-53.28 38.17s-53.27-17.1-53.27-38.17c0-21.08 23.85-38.17 53.27-38.17s53.27 17.1 53.27 38.18z" stroke="#000" stroke-opacity="0" fill="#3278cc"/><use xlink:href="#u" transform="matrix(1,0,0,1,253.14655278534292,797.4104286123278) translate(10.091419753086415 43.09722222222222)"/><use xlink:href="#q" transform="matrix(1,0,0,1,253.14655278534292,797.4104286123278) translate(47.5729012345679 43.09722222222222)"/><path d="M376.08 835.58h10.15m10.15 0h20.3m10.16 0h20.3m10.16 0h20.3m10.16 0h20.3m10.16 0h20.3m10.15 0h20.3m10.16 0h20.3m10.16 0h20.3m10.15 0h20.3m10.16 0h20.3m10.17 0h20.3m10.16 0h20.3m10.15 0h20.3m10.16 0h20.3m10.16 0h10.15" stroke="#333" fill="none"/><path d="M361.3 835.58l14.28-4.63v9.27z" stroke="#333" fill="#333"/><path d="M833.45 835.58l.02.48h-.53v-.95h.54z" stroke="#333" stroke-width=".05" fill="#333"/><path d="M140.17 519.22l112.8 315.9" stroke="#333" fill="none"/><path d="M140.62 519.07l-.62.22v-.55h-.5l-.96-2.66.9-.34zM253.15 835.58l.05 1.56-.67-1.88.64-.23z" stroke="#333" stroke-width=".05" fill="#333"/><path d="M937.23 585.18l7.04-8.04m7.04-8.04l14.08-16.08m7.04-8.04l14.08-16.08m7.04-8.04l14.08-16.08m7.03-8.04l14.08-16.07m7.04-8.05l14.08-16.07m7.03-8.05l7.04-8.04" stroke="#333" fill="none"/><path d="M937.6 585.5l-.25.26-.9-.4.43-.5z" stroke="#333" stroke-width=".05" fill="#333"/><path d="M1073.65 429.36l-5.9 13.78-7-6.1z" stroke="#333" fill="#333"/><path d="M559.7 403.2c0 21.08-23.86 38.17-53.28 38.17s-53.27-17.1-53.27-38.17c0-21.08 23.85-38.18 53.27-38.18s53.27 17.1 53.27 38.18z" stroke="#000" stroke-opacity="0" fill="#3278cc"/><use xlink:href="#v" transform="matrix(1,0,0,1,453.1465527853429,365.02496290464074) translate(22.492654320987647 31.06597222222222)"/><use xlink:href="#w" transform="matrix(1,0,0,1,453.1465527853429,365.02496290464074) translate(14.566728395061725 52.39930555555556)"/><path d="M360.2 403.2h8.5m8.5 0h17.02m8.5 0h17.03m8.5 0h8.5" stroke="#333" fill="none"/><path d="M360.2 403.67h-.53l.02-.47-.02-.48h.53z" stroke="#333" stroke-width=".05" fill="#333"/><path d="M451.53 403.2l-14.27 4.63v-9.27z" stroke="#333" fill="#333"/><path d="M560.2 403.2h11.68m11.7 0h23.38m11.7 0h11.68" stroke="#333" fill="none"/><path d="M560.2 403.67h-.53l.02-.47-.02-.48h.53z" stroke="#333" stroke-width=".05" fill="#333"/><path d="M645.1 403.2l-14.26 4.63v-9.27z" stroke="#333" fill="#333"/><use xlink:href="#x" transform="matrix(1,0,0,1,566.580181207253,378.5610672604375) translate(0.005000000000002558 10.666666666666668)"/><path d="M1166.55 401.83c0 21.08-23.86 38.17-53.28 38.17S1060 422.9 1060 401.83c0-21.08 23.85-38.17 53.27-38.17s53.28 17.1 53.28 38.17z" stroke="#000" stroke-opacity="0" fill="#3278cc"/><use xlink:href="#y" transform="matrix(1,0,0,1,1060,363.6572814571581) translate(36.24574074074074 31.06597222222222)"/><use xlink:href="#l" transform="matrix(1,0,0,1,1060,363.6572814571581) translate(32.29512345679012 52.39930555555556)"/><path d="M912 801.46l4.4-8.98m4.43-8.97l8.85-17.94m4.43-8.98l8.85-17.95m4.43-8.98l8.84-17.95m4.43-8.98l8.85-17.95m4.42-8.97l8.85-17.96m4.42-8.97l8.84-17.95m4.42-8.98l8.85-17.95m4.43-9l8.85-17.94m4.43-8.98l8.85-17.95m4.43-8.97l8.84-17.96m4.43-8.97l8.85-17.95m4.42-8.98l8.85-17.95m4.42-8.98l4.42-8.97" stroke="#333" fill="none"/><path d="M912.42 801.66l-.2.4-.9-.3.25-.52z" stroke="#333" stroke-width=".05" fill="#333"/><path d="M1091.04 438.15L1088.9 453l-8.32-4.1z" stroke="#333" fill="#333"/><path d="M1043.62 402.06l-9.66.03m-9.66.02l-19.32.07m-9.67.02l-19.3.06m-9.67.04l-19.33.06m-9.66.03l-19.32.08m-9.66.03l-19.33.07m-9.66.03l-19.32.07m-9.66.03l-19.34.06m-9.66.04l-19.32.06m-9.67.03l-19.3.05m-9.67.04l-9.66.02" stroke="#333" fill="none"/><path d="M1058.4 402l-14.26 4.7-.03-9.28z" stroke="#333" fill="#333"/><path d="M753.78 403.5h-.52v-.95h.52z" stroke="#333" stroke-width=".05" fill="#333"/><path d="M1114.58 456.33l.82 10.32m.82 10.32l1.65 20.64m.82 10.33l1.64 20.65m.82 10.32l1.65 20.64m.84 10.32l1.64 20.64m.83 10.32l1.65 20.64m.83 10.32l1.64 20.64m.83 10.32l1.64 20.64m.82 10.33l1.64 20.65m.83 10.32l1.63 20.64m.83 10.33l1.64 20.64m.83 10.32l.82 10.3" stroke="#333" fill="none"/><path d="M1113.4 441.6l5.76 13.86-9.24.74z" stroke="#333" fill="#333"/><path d="M1142.27 797.43l-.48-.02-.48.03-.04-.5.94-.07z" stroke="#333" stroke-width=".05" fill="#333"/><path d="M560.2 617h10.25m10.25 0h20.5m10.27 0h20.5m10.26 0h20.5m10.26 0h20.5m10.26 0h20.5m10.26 0h20.5m10.27 0h20.5m10.25 0h20.5m10.27 0h10.25" stroke="#333" fill="none"/><path d="M560.2 617.47h-.53l.02-.48-.02-.48h.53z" stroke="#333" stroke-width=".05" fill="#333"/><path d="M851.84 617l-14.27 4.63v-9.27z" stroke="#333" fill="#333"/><path d="M865.44 573.47l-7.13-7.9m-7.12-7.9l-14.26-15.83m-7.13-7.9l-14.27-15.82m-7.13-7.9l-14.26-15.82m-7.13-7.9l-14.25-15.83m-7.13-7.9l-14.27-15.82m-7.13-7.9l-7.13-7.9" stroke="#333" fill="none"/><path d="M875.33 584.44l-13-7.5 6.9-6.2z" stroke="#333" fill="#333"/><path d="M737.45 430.83l-.7.63-.4-.43.8-.53z" stroke="#333" stroke-width=".05" fill="#333"/><path d="M353.15 373.02a8 8 0 0 1 8-8h84a8 8 0 0 1 8 8v34.67a8 8 0 0 1-8 8h-84a8 8 0 0 1-8-8z" stroke="#000" stroke-opacity="0" fill="#fff" fill-opacity="0"/><use xlink:href="#x" transform="matrix(1,0,0,1,358.1465527853428,370.02496290464074) translate(8.870370370370381 23.479166666666668)"/><path d="M353.15 586.82a8 8 0 0 1 8-8h84a8 8 0 0 1 8 8v34.67a8 8 0 0 1-8 8h-84a8 8 0 0 1-8-8z" stroke="#000" stroke-opacity="0" fill="#fff" fill-opacity="0"/><use xlink:href="#x" transform="matrix(1,0,0,1,358.1465527853428,583.821655057096) translate(8.870370370370381 23.479166666666668)"/><path d="M540.05 806.54a8 8 0 0 1 8-8h90.68a8 8 0 0 1 8 8v31.84a8 8 0 0 1-8 8h-90.68a8 8 0 0 1-8-8z" stroke="#000" stroke-opacity="0" fill="#fff" fill-opacity="0"/><use xlink:href="#x" transform="matrix(1,0,0,1,545.0509920878941,803.5448836793773) translate(11.870370370370381 22.541666666666668)"/><path d="M960 806.54a8 8 0 0 1 8-8h90.68a8 8 0 0 1 8 8v31.84a8 8 0 0 1-8 8H968a8 8 0 0 1-8-8z" stroke="#000" stroke-opacity="0" fill="#fff" fill-opacity="0"/><use xlink:href="#z" transform="matrix(1,0,0,1,965.0000000000625,803.5448836793773) translate(12.944444444444443 22.541666666666668)"/><path d="M1151.2 532.16a8 8 0 0 1 8.56 7.4l6.2 83.76a8 8 0 0 1-7.4 8.57l-34.56 2.54a8 8 0 0 1-8.57-7.38l-6.2-83.77a8 8 0 0 1 7.4-8.58z" stroke="#000" stroke-opacity="0" fill="#fff" fill-opacity="0"/><use xlink:href="#x" transform="matrix(0.07378677049112838,0.9972740408235289,-0.9972740408235289,0.07378677049112838,1154.5500248156482,536.9233997925867) translate(8.870370370370381 23.479166666666668)"/><g><path d="M947.3 683.8a8 8 0 0 1-4.04-10.57l36.9-82.83a8 8 0 0 1 10.56-4.05l29.07 12.95a8 8 0 0 1 4.05 10.56l-36.9 82.83a8 8 0 0 1-10.57 4.04z" stroke="#000" stroke-opacity="0" fill="#fff" fill-opacity="0"/></g><g><use xlink:href="#z" transform="matrix(0.40695601104999934,-0.9134477571652758,0.9134477571652758,0.40695601104999934,946.6020188410763,678.0027050802588) translate(12.944444444444443 22.541666666666668)"/></g><path d="M856.66 368a8 8 0 0 1 8-8h84a8 8 0 0 1 8 8v34.67a8 8 0 0 1-8 8h-84a8 8 0 0 1-8-8z" stroke="#000" stroke-opacity="0" fill="#fff" fill-opacity="0"/><g><use xlink:href="#x" transform="matrix(1,0,0,1,861.6620305980528,365) translate(8.870370370370381 23.479166666666668)"/></g><g><path d="M783.44 445.66a8 8 0 0 1 11.32 0l59.4 59.4a8 8 0 0 1 0 11.3l-24.52 24.52a8 8 0 0 1-11.3 0l-59.4-59.4a8 8 0 0 1 0-11.3z" stroke="#000" stroke-opacity="0" fill="#fff" fill-opacity="0"/></g><g><use xlink:href="#z" transform="matrix(0.7071067811865476,0.7071067811865475,-0.7071067811865475,0.7071067811865476,789.0998126883302,447.0710678118655) translate(9.944444444444443 23.479166666666668)"/></g><g><path d="M546.24 538.2a8 8 0 0 1-1.23-11.24l52.63-65.47a8 8 0 0 1 11.25-1.24l27.02 21.72a8 8 0 0 1 1.22 11.25l-52.6 65.47a8 8 0 0 1-11.26 1.23z" stroke="#000" stroke-opacity="0" fill="#fff" fill-opacity="0"/></g><g><use xlink:href="#x" transform="matrix(0.6264216673196659,-0.7794843774652894,0.7794843774652894,0.6264216673196659,547.0295302239247,532.4342246693941) translate(8.870370370370381 23.479166666666668)"/></g><path d="M672.16 591.15h81.1v26h-81.1z" fill="#fff" fill-opacity="0"/><g><use xlink:href="#z" transform="matrix(1,0,0,1,677.1619579971006,596.1549883904294) translate(0.44444444444444287 10.666666666666668)"/></g><g><path d="M946.1 525.23a8 8 0 0 1-.94-11.28l58.5-69.28a8 8 0 0 1 11.28-.95l24.32 20.54a8 8 0 0 1 .95 11.27l-58.5 69.28a8 8 0 0 1-11.27.96z" stroke="#000" stroke-opacity="0" fill="#fff" fill-opacity="0"/></g><g><use xlink:href="#z" transform="matrix(0.6451839409574956,-0.7640272785251551,0.7640272785251551,0.6451839409574956,947.0460560974134,519.4719306367349) translate(12.944444444444443 22.541666666666668)"/></g><defs><path fill="#333" d="M67-125c0 54 23 88 75 88 28 0 53-7 68-21v-34h-60v-39h108v91C232-14 192 4 140 4 58 4 20-42 15-125 8-236 126-280 215-234c19 10 29 26 37 47l-47 15c-11-23-29-39-63-39-53 1-75 33-75 86" id="A"/><path fill="#333" d="M133-34C117-15 103 5 69 4 32 3 11-16 11-54c-1-60 55-63 116-61 1-26-3-47-28-47-18 1-26 9-28 27l-52-2c7-38 36-58 82-57s74 22 75 68l1 82c-1 14 12 18 25 15v27c-30 8-71 5-69-32zm-48 3c29 0 43-24 42-57-32 0-66-3-65 30 0 17 8 27 23 27" id="B"/><path fill="#333" d="M220-157c-53 9-28 100-34 157h-49v-107c1-27-5-49-29-50C55-147 81-57 75 0H25l-1-190h47c2 12-1 28 3 38 10-53 101-56 108 0 13-22 24-43 59-42 82 1 51 116 57 194h-49v-107c-1-25-5-48-29-50" id="C"/><path fill="#333" d="M185-48c-13 30-37 53-82 52C43 2 14-33 14-96s30-98 90-98c62 0 83 45 84 108H66c0 31 8 55 39 56 18 0 30-7 34-22zm-45-69c5-46-57-63-70-21-2 6-4 13-4 21h74" id="D"/><path fill="#333" d="M24-248c93 1 206-16 204 79-1 75-69 88-152 82V0H24v-248zm52 121c47 0 100 7 100-41 0-47-54-39-100-39v80" id="E"/><path fill="#333" d="M25 0v-261h50V0H25" id="F"/><path fill="#333" d="M123 10C108 53 80 86 19 72V37c35 8 53-11 59-39L3-190h52l48 148c12-52 28-100 44-148h51" id="G"/><g id="a"><use transform="matrix(0.05555555555555555,0,0,0.05555555555555555,0,0)" xlink:href="#A"/><use transform="matrix(0.05555555555555555,0,0,0.05555555555555555,15.555555555555555,0)" xlink:href="#B"/><use transform="matrix(0.05555555555555555,0,0,0.05555555555555555,26.666666666666664,0)" xlink:href="#C"/><use transform="matrix(0.05555555555555555,0,0,0.05555555555555555,44.44444444444444,0)" xlink:href="#D"/><use transform="matrix(0.05555555555555555,0,0,0.05555555555555555,55.55555555555556,0)" xlink:href="#E"/><use transform="matrix(0.05555555555555555,0,0,0.05555555555555555,68.88888888888889,0)" xlink:href="#F"/><use transform="matrix(0.05555555555555555,0,0,0.05555555555555555,74.44444444444444,0)" xlink:href="#B"/><use transform="matrix(0.05555555555555555,0,0,0.05555555555555555,85.55555555555556,0)" xlink:href="#G"/></g><g id="b"><use transform="matrix(0.04938271604938272,0,0,0.04938271604938272,0,0)" xlink:href="#A"/><use transform="matrix(0.04938271604938272,0,0,0.04938271604938272,13.827160493827162,0)" xlink:href="#B"/><use transform="matrix(0.04938271604938272,0,0,0.04938271604938272,23.703703703703706,0)" xlink:href="#C"/><use transform="matrix(0.04938271604938272,0,0,0.04938271604938272,39.50617283950618,0)" xlink:href="#D"/></g><path fill="#333" d="M230 0l2-204L168 0h-37L68-204 70 0H24v-248h70l56 185 57-185h69V0h-46" id="H"/><path fill="#333" d="M25-224v-37h50v37H25zM25 0v-190h50V0H25" id="I"/><path fill="#333" d="M135-194c87-1 58 113 63 194h-50c-7-57 23-157-34-157-59 0-34 97-39 157H25l-1-190h47c2 12-1 28 3 38 12-26 28-41 61-42" id="J"/><g id="c"><use transform="matrix(0.04938271604938272,0,0,0.04938271604938272,0,0)" xlink:href="#H"/><use transform="matrix(0.04938271604938272,0,0,0.04938271604938272,14.765432098765434,0)" xlink:href="#B"/><use transform="matrix(0.04938271604938272,0,0,0.04938271604938272,24.641975308641978,0)" xlink:href="#I"/><use transform="matrix(0.04938271604938272,0,0,0.04938271604938272,29.58024691358025,0)" xlink:href="#J"/></g><path fill="#333" d="M85 4C-2 5 27-109 22-190h50c7 57-23 150 33 157 60-5 35-97 40-157h50l1 190h-47c-2-12 1-28-3-38-12 25-28 42-61 42" id="K"/><g id="d"><use transform="matrix(0.04938271604938272,0,0,0.04938271604938272,0,0)" xlink:href="#H"/><use transform="matrix(0.04938271604938272,0,0,0.04938271604938272,14.765432098765434,0)" xlink:href="#D"/><use transform="matrix(0.04938271604938272,0,0,0.04938271604938272,24.641975308641978,0)" xlink:href="#J"/><use transform="matrix(0.04938271604938272,0,0,0.04938271604938272,35.45679012345679,0)" xlink:href="#K"/></g><path fill="#333" d="M137-138c1-29-70-34-71-4 15 46 118 7 119 86 1 83-164 76-172 9l43-7c4 19 20 25 44 25 33 8 57-30 24-41C81-84 22-81 20-136c-2-80 154-74 161-7" id="L"/><path fill="#333" d="M88-194c31-1 46 15 58 34l-1-101h50l1 261h-48c-2-10 0-23-3-31C134-8 116 4 84 4 32 4 16-41 15-95c0-56 19-97 73-99zm17 164c33 0 40-30 41-66 1-37-9-64-41-64s-38 30-39 65c0 43 13 65 39 65" id="M"/><g id="e"><use transform="matrix(0.04938271604938272,0,0,0.04938271604938272,0,0)" xlink:href="#E"/><use transform="matrix(0.04938271604938272,0,0,0.04938271604938272,11.851851851851853,0)" xlink:href="#B"/><use transform="matrix(0.04938271604938272,0,0,0.04938271604938272,21.7283950617284,0)" xlink:href="#K"/><use transform="matrix(0.04938271604938272,0,0,0.04938271604938272,32.543209876543216,0)" xlink:href="#L"/><use transform="matrix(0.04938271604938272,0,0,0.04938271604938272,42.41975308641976,0)" xlink:href="#D"/><use transform="matrix(0.04938271604938272,0,0,0.04938271604938272,52.2962962962963,0)" xlink:href="#M"/></g><g id="f"><use transform="matrix(0.04938271604938272,0,0,0.04938271604938272,0,0)" xlink:href="#A"/><use transform="matrix(0.04938271604938272,0,0,0.04938271604938272,13.827160493827162,0)" xlink:href="#B"/><use transform="matrix(0.04938271604938272,0,0,0.04938271604938272,23.703703703703706,0)" xlink:href="#C"/><use transform="matrix(0.04938271604938272,0,0,0.04938271604938272,39.50617283950618,0)" xlink:href="#D"/></g><path fill="#fff" d="M185-189c-5-48-123-54-124 2 14 75 158 14 163 119 3 78-121 87-175 55-17-10-28-26-33-46l33-7c5 56 141 63 141-1 0-78-155-14-162-118-5-82 145-84 179-34 5 7 8 16 11 25" id="N"/><path fill="#fff" d="M59-47c-2 24 18 29 38 22v24C64 9 27 4 27-40v-127H5v-23h24l9-43h21v43h35v23H59v120" id="O"/><path fill="#fff" d="M141-36C126-15 110 5 73 4 37 3 15-17 15-53c-1-64 63-63 125-63 3-35-9-54-41-54-24 1-41 7-42 31l-33-3c5-37 33-52 76-52 45 0 72 20 72 64v82c-1 20 7 32 28 27v20c-31 9-61-2-59-35zM48-53c0 20 12 33 32 33 41-3 63-29 60-74-43 2-92-5-92 41" id="P"/><path fill="#fff" d="M114-163C36-179 61-72 57 0H25l-1-190h30c1 12-1 29 2 39 6-27 23-49 58-41v29" id="Q"/><g id="g"><use transform="matrix(0.05308641975308641,0,0,0.05308641975308641,0,0)" xlink:href="#N"/><use transform="matrix(0.05308641975308641,0,0,0.05308641975308641,12.740740740740739,0)" xlink:href="#O"/><use transform="matrix(0.05308641975308641,0,0,0.05308641975308641,18.04938271604938,0)" xlink:href="#P"/><use transform="matrix(0.05308641975308641,0,0,0.05308641975308641,28.66666666666666,0)" xlink:href="#Q"/><use transform="matrix(0.05308641975308641,0,0,0.05308641975308641,34.983950617283945,0)" xlink:href="#O"/></g><path fill="#fff" d="M190 0L58-211 59 0H30v-248h39L202-35l-2-213h31V0h-41" id="R"/><path fill="#fff" d="M100-194c63 0 86 42 84 106H49c0 40 14 67 53 68 26 1 43-12 49-29l28 8c-11 28-37 45-77 45C44 4 14-33 15-96c1-61 26-98 85-98zm52 81c6-60-76-77-97-28-3 7-6 17-6 28h103" id="S"/><path fill="#fff" d="M206 0h-36l-40-164L89 0H53L-1-190h32L70-26l43-164h34l41 164 42-164h31" id="T"/><g id="h"><use transform="matrix(0.05308641975308641,0,0,0.05308641975308641,0,0)" xlink:href="#R"/><use transform="matrix(0.05308641975308641,0,0,0.05308641975308641,13.74938271604938,0)" xlink:href="#S"/><use transform="matrix(0.05308641975308641,0,0,0.05308641975308641,24.36666666666666,0)" xlink:href="#T"/></g><path fill="#fff" d="M143 4C61 4 22-44 18-125c-5-107 100-154 193-111 17 8 29 25 37 43l-32 9c-13-25-37-40-76-40-61 0-88 39-88 99 0 61 29 100 91 101 35 0 62-11 79-27v-45h-74v-28h105v86C228-13 192 4 143 4" id="U"/><path fill="#fff" d="M210-169c-67 3-38 105-44 169h-31v-121c0-29-5-50-35-48C34-165 62-65 56 0H25l-1-190h30c1 10-1 24 2 32 10-44 99-50 107 0 11-21 27-35 58-36 85-2 47 119 55 194h-31v-121c0-29-5-49-35-48" id="V"/><g id="i"><use transform="matrix(0.05308641975308641,0,0,0.05308641975308641,0,0)" xlink:href="#U"/><use transform="matrix(0.05308641975308641,0,0,0.05308641975308641,14.864197530864194,0)" xlink:href="#P"/><use transform="matrix(0.05308641975308641,0,0,0.05308641975308641,25.481481481481474,0)" xlink:href="#V"/><use transform="matrix(0.05308641975308641,0,0,0.05308641975308641,41.35432098765431,0)" xlink:href="#S"/></g><path fill="#333" d="M30-248c87 1 191-15 191 75 0 78-77 80-158 76V0H30v-248zm33 125c57 0 124 11 124-50 0-59-68-47-124-48v98" id="W"/><path fill="#333" d="M24 0v-261h32V0H24" id="X"/><path fill="#333" d="M141-36C126-15 110 5 73 4 37 3 15-17 15-53c-1-64 63-63 125-63 3-35-9-54-41-54-24 1-41 7-42 31l-33-3c5-37 33-52 76-52 45 0 72 20 72 64v82c-1 20 7 32 28 27v20c-31 9-61-2-59-35zM48-53c0 20 12 33 32 33 41-3 63-29 60-74-43 2-92-5-92 41" id="Y"/><path fill="#333" d="M179-190L93 31C79 59 56 82 12 73V49c39 6 53-20 64-50L1-190h34L92-34l54-156h33" id="Z"/><path fill="#333" d="M100-194c63 0 86 42 84 106H49c0 40 14 67 53 68 26 1 43-12 49-29l28 8c-11 28-37 45-77 45C44 4 14-33 15-96c1-61 26-98 85-98zm52 81c6-60-76-77-97-28-3 7-6 17-6 28h103" id="aa"/><path fill="#333" d="M114-163C36-179 61-72 57 0H25l-1-190h30c1 12-1 29 2 39 6-27 23-49 58-41v29" id="ab"/><g id="j"><use transform="matrix(0.04938271604938272,0,0,0.04938271604938272,0,0)" xlink:href="#W"/><use transform="matrix(0.04938271604938272,0,0,0.04938271604938272,11.851851851851853,0)" xlink:href="#X"/><use transform="matrix(0.04938271604938272,0,0,0.04938271604938272,15.753086419753087,0)" xlink:href="#Y"/><use transform="matrix(0.04938271604938272,0,0,0.04938271604938272,25.629629629629633,0)" xlink:href="#Z"/><use transform="matrix(0.04938271604938272,0,0,0.04938271604938272,34.51851851851852,0)" xlink:href="#aa"/><use transform="matrix(0.04938271604938272,0,0,0.04938271604938272,44.39506172839506,0)" xlink:href="#ab"/></g><path fill="#fff" d="M24 0v-261h32V0H24" id="ac"/><path fill="#fff" d="M96-169c-40 0-48 33-48 73s9 75 48 75c24 0 41-14 43-38l32 2c-6 37-31 61-74 61-59 0-76-41-82-99-10-93 101-131 147-64 4 7 5 14 7 22l-32 3c-4-21-16-35-41-35" id="ad"/><g id="k"><use transform="matrix(0.04938271604938272,0,0,0.04938271604938272,0,0)" xlink:href="#N"/><use transform="matrix(0.04938271604938272,0,0,0.04938271604938272,11.851851851851853,0)" xlink:href="#S"/><use transform="matrix(0.04938271604938272,0,0,0.04938271604938272,21.7283950617284,0)" xlink:href="#ac"/><use transform="matrix(0.04938271604938272,0,0,0.04938271604938272,25.629629629629633,0)" xlink:href="#S"/><use transform="matrix(0.04938271604938272,0,0,0.04938271604938272,35.50617283950618,0)" xlink:href="#ad"/><use transform="matrix(0.04938271604938272,0,0,0.04938271604938272,44.39506172839506,0)" xlink:href="#O"/></g><path fill="#fff" d="M30 0v-248h33v221h125V0H30" id="ae"/><path fill="#fff" d="M108 0H70L1-190h34L89-25l56-165h34" id="af"/><g id="l"><use transform="matrix(0.04938271604938272,0,0,0.04938271604938272,0,0)" xlink:href="#ae"/><use transform="matrix(0.04938271604938272,0,0,0.04938271604938272,9.876543209876544,0)" xlink:href="#S"/><use transform="matrix(0.04938271604938272,0,0,0.04938271604938272,19.75308641975309,0)" xlink:href="#af"/><use transform="matrix(0.04938271604938272,0,0,0.04938271604938272,28.641975308641978,0)" xlink:href="#S"/><use transform="matrix(0.04938271604938272,0,0,0.04938271604938272,38.51851851851852,0)" xlink:href="#ac"/></g><path fill="#fff" d="M100-194c62-1 85 37 85 99 1 63-27 99-86 99S16-35 15-95c0-66 28-99 85-99zM99-20c44 1 53-31 53-75 0-43-8-75-51-75s-53 32-53 75 10 74 51 75" id="ag"/><path fill="#fff" d="M85-194c31 0 48 13 60 33l-1-100h32l1 261h-30c-2-10 0-23-3-31C134-8 116 4 85 4 32 4 16-35 15-94c0-66 23-100 70-100zm9 24c-40 0-46 34-46 75 0 40 6 74 45 74 42 0 51-32 51-76 0-42-9-74-50-73" id="ah"/><g id="m"><use transform="matrix(0.04938271604938272,0,0,0.04938271604938272,0,0)" xlink:href="#ae"/><use transform="matrix(0.04938271604938272,0,0,0.04938271604938272,9.876543209876544,0)" xlink:href="#ag"/><use transform="matrix(0.04938271604938272,0,0,0.04938271604938272,19.75308641975309,0)" xlink:href="#P"/><use transform="matrix(0.04938271604938272,0,0,0.04938271604938272,29.629629629629633,0)" xlink:href="#ah"/></g><g id="n"><use transform="matrix(0.04938271604938272,0,0,0.04938271604938272,0,0)" xlink:href="#ae"/><use transform="matrix(0.04938271604938272,0,0,0.04938271604938272,9.876543209876544,0)" xlink:href="#S"/><use transform="matrix(0.04938271604938272,0,0,0.04938271604938272,19.75308641975309,0)" xlink:href="#af"/><use transform="matrix(0.04938271604938272,0,0,0.04938271604938272,28.641975308641978,0)" xlink:href="#S"/><use transform="matrix(0.04938271604938272,0,0,0.04938271604938272,38.51851851851852,0)" xlink:href="#ac"/></g><path fill="#fff" d="M212-179c-10-28-35-45-73-45-59 0-87 40-87 99 0 60 29 101 89 101 43 0 62-24 78-52l27 14C228-24 195 4 139 4 59 4 22-46 18-125c-6-104 99-153 187-111 19 9 31 26 39 46" id="ai"/><path fill="#fff" d="M115-194c55 1 70 41 70 98S169 2 115 4C84 4 66-9 55-30l1 105H24l-1-265h31l2 30c10-21 28-34 59-34zm-8 174c40 0 45-34 45-75s-6-73-45-74c-42 0-51 32-51 76 0 43 10 73 51 73" id="aj"/><g id="o"><use transform="matrix(0.04938271604938272,0,0,0.04938271604938272,0,0)" xlink:href="#ai"/><use transform="matrix(0.04938271604938272,0,0,0.04938271604938272,12.790123456790125,0)" xlink:href="#ag"/><use transform="matrix(0.04938271604938272,0,0,0.04938271604938272,22.66666666666667,0)" xlink:href="#V"/><use transform="matrix(0.04938271604938272,0,0,0.04938271604938272,37.4320987654321,0)" xlink:href="#aj"/><use transform="matrix(0.04938271604938272,0,0,0.04938271604938272,47.308641975308646,0)" xlink:href="#ac"/><use transform="matrix(0.04938271604938272,0,0,0.04938271604938272,51.20987654320988,0)" xlink:href="#S"/><use transform="matrix(0.04938271604938272,0,0,0.04938271604938272,61.086419753086425,0)" xlink:href="#O"/><use transform="matrix(0.04938271604938272,0,0,0.04938271604938272,66.0246913580247,0)" xlink:href="#S"/></g><path fill="#fff" d="M117-194c89-4 53 116 60 194h-32v-121c0-31-8-49-39-48C34-167 62-67 57 0H25l-1-190h30c1 10-1 24 2 32 11-22 29-35 61-36" id="ak"/><path fill="#fff" d="M24-231v-30h32v30H24zM24 0v-190h32V0H24" id="al"/><path fill="#fff" d="M84 4C-5 8 30-112 23-190h32v120c0 31 7 50 39 49 72-2 45-101 50-169h31l1 190h-30c-1-10 1-25-2-33-11 22-28 36-60 37" id="am"/><g id="p"><use transform="matrix(0.04938271604938272,0,0,0.04938271604938272,0,0)" xlink:href="#ai"/><use transform="matrix(0.04938271604938272,0,0,0.04938271604938272,12.790123456790125,0)" xlink:href="#ag"/><use transform="matrix(0.04938271604938272,0,0,0.04938271604938272,22.66666666666667,0)" xlink:href="#ak"/><use transform="matrix(0.04938271604938272,0,0,0.04938271604938272,32.543209876543216,0)" xlink:href="#O"/><use transform="matrix(0.04938271604938272,0,0,0.04938271604938272,37.48148148148149,0)" xlink:href="#al"/><use transform="matrix(0.04938271604938272,0,0,0.04938271604938272,41.38271604938272,0)" xlink:href="#ak"/><use transform="matrix(0.04938271604938272,0,0,0.04938271604938272,51.25925925925927,0)" xlink:href="#am"/><use transform="matrix(0.04938271604938272,0,0,0.04938271604938272,61.13580246913581,0)" xlink:href="#S"/></g><g id="q"><use transform="matrix(0.04938271604938272,0,0,0.04938271604938272,0,0)" xlink:href="#U"/><use transform="matrix(0.04938271604938272,0,0,0.04938271604938272,13.827160493827162,0)" xlink:href="#P"/><use transform="matrix(0.04938271604938272,0,0,0.04938271604938272,23.703703703703706,0)" xlink:href="#V"/><use transform="matrix(0.04938271604938272,0,0,0.04938271604938272,38.46913580246914,0)" xlink:href="#S"/></g><path fill="#fff" d="M30-248c87 1 191-15 191 75 0 78-77 80-158 76V0H30v-248zm33 125c57 0 124 11 124-50 0-59-68-47-124-48v98" id="an"/><path fill="#fff" d="M135-143c-3-34-86-38-87 0 15 53 115 12 119 90S17 21 10-45l28-5c4 36 97 45 98 0-10-56-113-15-118-90-4-57 82-63 122-42 12 7 21 19 24 35" id="ao"/><g id="r"><use transform="matrix(0.04938271604938272,0,0,0.04938271604938272,0,0)" xlink:href="#an"/><use transform="matrix(0.04938271604938272,0,0,0.04938271604938272,11.851851851851853,0)" xlink:href="#P"/><use transform="matrix(0.04938271604938272,0,0,0.04938271604938272,21.7283950617284,0)" xlink:href="#am"/><use transform="matrix(0.04938271604938272,0,0,0.04938271604938272,31.60493827160494,0)" xlink:href="#ao"/><use transform="matrix(0.04938271604938272,0,0,0.04938271604938272,40.49382716049384,0)" xlink:href="#S"/></g><path fill="#fff" d="M240 0l2-218c-23 76-54 145-80 218h-23L58-218 59 0H30v-248h44l77 211c21-75 51-140 76-211h43V0h-30" id="ap"/><g id="s"><use transform="matrix(0.04938271604938272,0,0,0.04938271604938272,0,0)" xlink:href="#ap"/><use transform="matrix(0.04938271604938272,0,0,0.04938271604938272,14.765432098765434,0)" xlink:href="#S"/><use transform="matrix(0.04938271604938272,0,0,0.04938271604938272,24.641975308641978,0)" xlink:href="#ak"/><use transform="matrix(0.04938271604938272,0,0,0.04938271604938272,34.51851851851852,0)" xlink:href="#am"/></g><path fill="#fff" d="M233-177c-1 41-23 64-60 70L243 0h-38l-65-103H63V0H30v-248c88 3 205-21 203 71zM63-129c60-2 137 13 137-47 0-61-80-42-137-45v92" id="aq"/><g id="t"><use transform="matrix(0.04938271604938272,0,0,0.04938271604938272,0,0)" xlink:href="#aq"/><use transform="matrix(0.04938271604938272,0,0,0.04938271604938272,12.790123456790125,0)" xlink:href="#S"/><use transform="matrix(0.04938271604938272,0,0,0.04938271604938272,22.66666666666667,0)" xlink:href="#ao"/><use transform="matrix(0.04938271604938272,0,0,0.04938271604938272,31.555555555555557,0)" xlink:href="#am"/><use transform="matrix(0.04938271604938272,0,0,0.04938271604938272,41.4320987654321,0)" xlink:href="#V"/><use transform="matrix(0.04938271604938272,0,0,0.04938271604938272,56.19753086419754,0)" xlink:href="#S"/></g><path fill="#fff" d="M140-251c81 0 123 46 123 126C263-53 228-8 163 1c7 30 30 48 69 40v23c-55 16-95-15-103-61C56-3 17-48 17-125c0-80 42-126 123-126zm0 227c63 0 89-41 89-101s-29-99-89-99c-61 0-89 39-89 99S79-25 140-24" id="ar"/><g id="u"><use transform="matrix(0.04938271604938272,0,0,0.04938271604938272,0,0)" xlink:href="#ar"/><use transform="matrix(0.04938271604938272,0,0,0.04938271604938272,13.827160493827162,0)" xlink:href="#am"/><use transform="matrix(0.04938271604938272,0,0,0.04938271604938272,23.703703703703706,0)" xlink:href="#al"/><use transform="matrix(0.04938271604938272,0,0,0.04938271604938272,27.60493827160494,0)" xlink:href="#O"/></g><path fill="#fff" d="M101-234c-31-9-42 10-38 44h38v23H63V0H32v-167H5v-23h27c-7-52 17-82 69-68v24" id="as"/><g id="v"><use transform="matrix(0.04938271604938272,0,0,0.04938271604938272,0,0)" xlink:href="#ai"/><use transform="matrix(0.04938271604938272,0,0,0.04938271604938272,12.790123456790125,0)" xlink:href="#ag"/><use transform="matrix(0.04938271604938272,0,0,0.04938271604938272,22.66666666666667,0)" xlink:href="#ak"/><use transform="matrix(0.04938271604938272,0,0,0.04938271604938272,32.543209876543216,0)" xlink:href="#as"/><use transform="matrix(0.04938271604938272,0,0,0.04938271604938272,37.48148148148149,0)" xlink:href="#al"/><use transform="matrix(0.04938271604938272,0,0,0.04938271604938272,41.38271604938272,0)" xlink:href="#Q"/><use transform="matrix(0.04938271604938272,0,0,0.04938271604938272,47.25925925925927,0)" xlink:href="#V"/></g><path fill="#fff" d="M106-169C34-169 62-67 57 0H25v-261h32l-1 103c12-21 28-36 61-36 89 0 53 116 60 194h-32v-121c2-32-8-49-39-48" id="at"/><g id="w"><use transform="matrix(0.04938271604938272,0,0,0.04938271604938272,0,0)" xlink:href="#ai"/><use transform="matrix(0.04938271604938272,0,0,0.04938271604938272,12.790123456790125,0)" xlink:href="#at"/><use transform="matrix(0.04938271604938272,0,0,0.04938271604938272,22.66666666666667,0)" xlink:href="#P"/><use transform="matrix(0.04938271604938272,0,0,0.04938271604938272,32.543209876543216,0)" xlink:href="#Q"/><use transform="matrix(0.04938271604938272,0,0,0.04938271604938272,38.41975308641976,0)" xlink:href="#P"/><use transform="matrix(0.04938271604938272,0,0,0.04938271604938272,48.296296296296305,0)" xlink:href="#ad"/><use transform="matrix(0.04938271604938272,0,0,0.04938271604938272,57.18518518518519,0)" xlink:href="#O"/><use transform="matrix(0.04938271604938272,0,0,0.04938271604938272,62.12345679012346,0)" xlink:href="#S"/><use transform="matrix(0.04938271604938272,0,0,0.04938271604938272,72,0)" xlink:href="#Q"/></g><path fill="#333" d="M18-100v-36l175-74v27L42-118l151 64v27" id="au"/><path fill="#333" d="M24-231v-30h32v30H24zM24 0v-190h32V0H24" id="av"/><path fill="#333" d="M117-194c89-4 53 116 60 194h-32v-121c0-31-8-49-39-48C34-167 62-67 57 0H25l-1-190h30c1 10-1 24 2 32 11-22 29-35 61-36" id="aw"/><path fill="#333" d="M96-169c-40 0-48 33-48 73s9 75 48 75c24 0 41-14 43-38l32 2c-6 37-31 61-74 61-59 0-76-41-82-99-10-93 101-131 147-64 4 7 5 14 7 22l-32 3c-4-21-16-35-41-35" id="ax"/><path fill="#333" d="M84 4C-5 8 30-112 23-190h32v120c0 31 7 50 39 49 72-2 45-101 50-169h31l1 190h-30c-1-10 1-25-2-33-11 22-28 36-60 37" id="ay"/><path fill="#333" d="M85-194c31 0 48 13 60 33l-1-100h32l1 261h-30c-2-10 0-23-3-31C134-8 116 4 85 4 32 4 16-35 15-94c0-66 23-100 70-100zm9 24c-40 0-46 34-46 75 0 40 6 74 45 74 42 0 51-32 51-76 0-42-9-74-50-73" id="az"/><path fill="#333" d="M18-27v-27l151-64-151-65v-27l175 74v36" id="aA"/><g id="x"><use transform="matrix(0.03703703703703704,0,0,0.03703703703703704,0,0)" xlink:href="#au"/><use transform="matrix(0.03703703703703704,0,0,0.03703703703703704,7.777777777777779,0)" xlink:href="#au"/><use transform="matrix(0.03703703703703704,0,0,0.03703703703703704,15.555555555555557,0)" xlink:href="#av"/><use transform="matrix(0.03703703703703704,0,0,0.03703703703703704,18.481481481481485,0)" xlink:href="#aw"/><use transform="matrix(0.03703703703703704,0,0,0.03703703703703704,25.888888888888893,0)" xlink:href="#ax"/><use transform="matrix(0.03703703703703704,0,0,0.03703703703703704,32.55555555555556,0)" xlink:href="#X"/><use transform="matrix(0.03703703703703704,0,0,0.03703703703703704,35.48148148148148,0)" xlink:href="#ay"/><use transform="matrix(0.03703703703703704,0,0,0.03703703703703704,42.888888888888886,0)" xlink:href="#az"/><use transform="matrix(0.03703703703703704,0,0,0.03703703703703704,50.2962962962963,0)" xlink:href="#aa"/><use transform="matrix(0.03703703703703704,0,0,0.03703703703703704,57.703703703703695,0)" xlink:href="#aA"/><use transform="matrix(0.03703703703703704,0,0,0.03703703703703704,65.48148148148147,0)" xlink:href="#aA"/></g><path fill="#fff" d="M179-190L93 31C79 59 56 82 12 73V49c39 6 53-20 64-50L1-190h34L92-34l54-156h33" id="aB"/><g id="y"><use transform="matrix(0.04938271604938272,0,0,0.04938271604938272,0,0)" xlink:href="#an"/><use transform="matrix(0.04938271604938272,0,0,0.04938271604938272,11.851851851851853,0)" xlink:href="#ac"/><use transform="matrix(0.04938271604938272,0,0,0.04938271604938272,15.753086419753087,0)" xlink:href="#P"/><use transform="matrix(0.04938271604938272,0,0,0.04938271604938272,25.629629629629633,0)" xlink:href="#aB"/></g><path fill="#333" d="M141 0L90-78 38 0H4l68-98-65-92h35l48 74 47-74h35l-64 92 68 98h-35" id="aC"/><path fill="#333" d="M59-47c-2 24 18 29 38 22v24C64 9 27 4 27-40v-127H5v-23h24l9-43h21v43h35v23H59v120" id="aD"/><g id="z"><use transform="matrix(0.03703703703703704,0,0,0.03703703703703704,0,0)" xlink:href="#au"/><use transform="matrix(0.03703703703703704,0,0,0.03703703703703704,7.777777777777779,0)" xlink:href="#au"/><use transform="matrix(0.03703703703703704,0,0,0.03703703703703704,15.555555555555557,0)" xlink:href="#aa"/><use transform="matrix(0.03703703703703704,0,0,0.03703703703703704,22.962962962962965,0)" xlink:href="#aC"/><use transform="matrix(0.03703703703703704,0,0,0.03703703703703704,29.629629629629633,0)" xlink:href="#aD"/><use transform="matrix(0.03703703703703704,0,0,0.03703703703703704,33.333333333333336,0)" xlink:href="#aa"/><use transform="matrix(0.03703703703703704,0,0,0.03703703703703704,40.74074074074075,0)" xlink:href="#aw"/><use transform="matrix(0.03703703703703704,0,0,0.03703703703703704,48.14814814814815,0)" xlink:href="#az"/><use transform="matrix(0.03703703703703704,0,0,0.03703703703703704,55.55555555555556,0)" xlink:href="#aA"/><use transform="matrix(0.03703703703703704,0,0,0.03703703703703704,63.333333333333336,0)" xlink:href="#aA"/></g></defs></g></svg>