<svg xmlns="http://www.w3.org/2000/svg" xmlns:xlink="http://www.w3.org/1999/xlink" xmlns:lucid="lucid" width="1197" height="1108"><g transform="translate(-49 -255)" lucid:page-tab-id="gS4485I5Pyid"><path d="M0 0h1360v1760H0z" fill="#fff"/><path d="M259.03 282.5a5 5 0 0 1 5-5H1195a5 5 0 0 1 5 5V1335a5 5 0 0 1-5 5H264.03a5 5 0 0 1-5-5z" stroke="#333" fill-opacity="0"/><use xlink:href="#a" transform="matrix(1,0,0,1,267.0271404371331,285.5) translate(338.80555555555554 16)"/><use xlink:href="#b" transform="matrix(1,0,0,1,267.0271404371331,285.5) translate(399.91666666666663 16)"/><use xlink:href="#c" transform="matrix(1,0,0,1,267.0271404371331,285.5) translate(483.1388888888889 16)"/><use xlink:href="#d" transform="matrix(1,0,0,1,267.0271404371331,285.5) translate(534.1388888888889 16)"/><path d="M684.7 420c0 22.1-25.5 40-56.95 40-31.45 0-56.95-17.9-56.95-40s25.5-40 56.95-40c31.45 0 56.94 17.9 56.94 40z" stroke="#000" stroke-opacity="0" fill="#3278cc"/><use xlink:href="#e" transform="matrix(1,0,0,1,570.8048578847809,380) translate(18.066728395061723 34.47222222222222)"/><use xlink:href="#f" transform="matrix(1,0,0,1,570.8048578847809,380) translate(60.48648148148148 34.47222222222222)"/><use xlink:href="#g" transform="matrix(1,0,0,1,570.8048578847809,380) translate(32.83216049382716 55.80555555555556)"/><path d="M169.15 737.25c0 10.9-8.85 19.75-19.75 19.75s-19.75-8.84-19.75-19.75c0-10.9 8.84-19.75 19.75-19.75 10.9 0 19.75 8.84 19.75 19.75z" stroke="#333" fill="#fff"/><path d="M149.4 757v47.3a27.6 27.6 0 0 0 4.28 14.76l35.72 56.44m-40-63.2l-40 63.2m0-98.75h80" stroke="#333" fill="none"/><path d="M109.4 725.5a8 8 0 0 1 8-8h64a8 8 0 0 1 8 8v164a8 8 0 0 1-8 8h-64a8 8 0 0 1-8-8z" fill="none"/><use xlink:href="#h" transform="matrix(1,0,0,1,29.39655278534292,875.5005183372584) translate(94.8641975308642 14.555555555555555)"/><path d="M729.5 1340.5" stroke="#333" fill="none"/><path stroke="#333" stroke-width=".05" fill="#333"/><path stroke="#333" stroke-width=".05" fill="#333"/><path d="M684.7 600c0 22.1-25.5 40-56.95 40-31.45 0-56.95-17.9-56.95-40s25.5-40 56.95-40c31.45 0 56.94 17.9 56.94 40z" stroke="#000" stroke-opacity="0" fill="#3278cc"/><use xlink:href="#i" transform="matrix(1,0,0,1,570.8048578847809,559.9994816627417) translate(21.498827160493818 34.47222222222222)"/><use xlink:href="#g" transform="matrix(1,0,0,1,570.8048578847809,559.9994816627417) translate(32.83216049382716 55.80555555555556)"/><path d="M684.7 780c0 22.1-25.5 40-56.95 40-31.45 0-56.95-17.9-56.95-40s25.5-40 56.95-40c31.45 0 56.94 17.9 56.94 40z" stroke="#000" stroke-opacity="0" fill="#3278cc"/><use xlink:href="#j" transform="matrix(1,0,0,1,570.8048578847809,740) translate(26.412407407407407 44.59722222222222)"/><path d="M684.7 960c0 22.1-25.5 40-56.95 40-31.45 0-56.95-17.9-56.95-40s25.5-40 56.95-40c31.45 0 56.94 17.9 56.94 40z" stroke="#000" stroke-opacity="0" fill="#3278cc"/><use xlink:href="#k" transform="matrix(1,0,0,1,570.8048578847809,919.999740831371) translate(17.276604938271596 44.59722222222222)"/><use xlink:href="#l" transform="matrix(1,0,0,1,570.8048578847809,919.999740831371) translate(60.288950617283945 44.59722222222222)"/><path d="M684.7 1140c0 22.1-25.5 40-56.95 40-31.45 0-56.95-17.9-56.95-40s25.5-40 56.95-40c31.45 0 56.94 17.9 56.94 40z" stroke="#000" stroke-opacity="0" fill="#3278cc"/><use xlink:href="#m" transform="matrix(1,0,0,1,570.8048578847809,1099.999481662742) translate(40.733395061728395 44.59722222222222)"/><path d="M413.9 777.25c0 22.1-25.5 40-56.96 40-31.44 0-56.94-17.9-56.94-40s25.5-40 56.94-40c31.45 0 56.95 17.9 56.95 40z" stroke="#000" stroke-opacity="0" fill="#3278cc"/><use xlink:href="#n" transform="matrix(1,0,0,1,300,737.2500000000001) translate(21.99265432098764 34.47222222222222)"/><use xlink:href="#o" transform="matrix(1,0,0,1,300,737.2500000000001) translate(13.128456790123453 55.80555555555556)"/><use xlink:href="#p" transform="matrix(1,0,0,1,300,737.2500000000001) translate(56.48648148148148 55.80555555555556)"/><path d="M189.9 777.25h109.6" stroke="#333" fill="none"/><path d="M189.9 777.73h-3.5v-.48h3v-.47h.5zM300 777.25l.02.48h-.53v-.95h.52z" stroke="#333" stroke-width=".05" fill="#333"/><path d="M407.98 737.28l7.73-6.52m7.75-6.52l15.47-13.04m7.73-6.53l15.48-13.04m7.73-6.52l15.47-13.04m7.74-6.52l15.47-13.04m7.73-6.52l15.48-13.05m7.73-6.52l15.47-13.03m7.74-6.53l7.72-6.52" stroke="#333" fill="none"/><path d="M396.7 746.8l7.9-12.74 5.98 7.1z" stroke="#333" fill="#333"/><path d="M570.8 600l.03.6-.1.1-.62-.73.73-.62z" stroke="#333" stroke-width=".05" fill="#333"/><use xlink:href="#q" transform="matrix(1,0,0,1,488.58316298479303,667.6488403293596) translate(0.005000000000002558 14.222222222222223)"/><path d="M366.1 723.66l5.68-8.42m5.68-8.42l11.36-16.85m5.67-8.42l11.35-16.85m5.68-8.42l11.36-16.85m5.67-8.42l11.35-16.84m5.68-8.43l11.36-16.84m5.68-8.44L474 563.62m5.67-8.43l11.36-16.86m5.68-8.42l11.36-16.84m5.68-8.43l11.36-16.85m5.68-8.42l11.35-16.85m5.68-8.42l11.37-16.84m5.68-8.42l5.67-8.42" stroke="#333" fill="none"/><path d="M357.85 735.9l4.13-14.4 7.7 5.17z" stroke="#333" fill="#333"/><path d="M570.8 420l.03.64-.7-.48.72-1.07z" stroke="#333" stroke-width=".05" fill="#333"/><use xlink:href="#q" transform="matrix(1,0,0,1,388.1986113742254,526.4010798655133) translate(0.005000000000002558 14.222222222222223)"/><path d="M430.27 777.54l9.34.16m9.34.16l18.67.33m9.35.16l18.67.32m9.33.17l18.68.32m9.33.17l18.67.32m9.34.17l9.33.16" stroke="#333" fill="none"/><path d="M415.5 777.28l14.35-4.4-.16 9.28z" stroke="#333" fill="#333"/><path d="M570.83 779.53l-.03.47.02.48h-.54l.02-.96z" stroke="#333" stroke-width=".05" fill="#333"/><use xlink:href="#q" transform="matrix(1,0,0,1,463.4406699967785,782.9818760252771) translate(0.005000000000002558 14.222222222222223)"/><path d="M410.17 815.88l7.63 6.85m7.63 6.84l15.26 13.7m7.63 6.84l15.26 13.7m7.62 6.86l15.26 13.7m7.64 6.84l15.26 13.7m7.63 6.84l15.27 13.7m7.64 6.84l15.27 13.7m7.63 6.84l7.63 6.85" stroke="#333" fill="none"/><path d="M399.18 806.02l13.7 6.08-6.18 6.9z" stroke="#333" fill="#333"/><path d="M570.83 959.4l-.03.6.03.66-.72-.65.64-.7z" stroke="#333" stroke-width=".05" fill="#333"/><use xlink:href="#q" transform="matrix(1,0,0,1,503.53907178193526,879.6881200405445) translate(0.005000000000002558 14.222222222222223)"/><path d="M366 830.9l5.68 8.58m5.68 8.58l11.36 17.15m5.68 8.58l11.36 17.15m5.7 8.57l11.35 17.15m5.7 8.58l11.35 17.14m5.7 8.58l11.35 17.15m5.68 8.57l11.36 17.15m5.68 8.57l11.37 17.14m5.67 8.58l11.36 17.15m5.68 8.57L525.1 1071m5.68 8.56l11.36 17.15m5.68 8.6l11.37 17.13m5.68 8.58l5.68 8.58" stroke="#333" fill="none"/><path d="M357.84 818.6l11.74 9.33-7.73 5.12z" stroke="#333" fill="#333"/><path d="M570.8 1140l.04.9-.7-1.07.7-.46z" stroke="#333" stroke-width=".05" fill="#333"/><use xlink:href="#q" transform="matrix(1,0,0,1,375.6891664636339,991.3138126509556) translate(0.005000000000002558 14.222222222222223)"/><path d="M1000 780c0 27.62-26.86 50-60 50s-60-22.38-60-50c0-27.6 26.86-50 60-50s60 22.4 60 50z" stroke="#000" stroke-opacity="0" fill="#3278cc"/><use xlink:href="#r" transform="matrix(1,0,0,1,880,730.0005183372583) translate(39.540185185185194 31.070138888888884)"/><use xlink:href="#s" transform="matrix(1,0,0,1,880,730.0005183372583) translate(15.465493827160502 54.003472222222214)"/><use xlink:href="#t" transform="matrix(1,0,0,1,880,730.0005183372583) translate(40.41611111111112 76.93680555555555)"/><path d="M1000 959c0 26.6-26.86 48.17-60 48.17S880 985.6 880 959c0-26.6 26.86-48.17 60-48.17s60 21.57 60 48.17z" stroke="#000" stroke-opacity="0" fill="#3278cc"/><use xlink:href="#r" transform="matrix(1,0,0,1,880,910.8320802707276) translate(39.54018518518519 36.507638888888884)"/><use xlink:href="#u" transform="matrix(1,0,0,1,880,910.8320802707276) translate(27.1975925925926 59.440972222222214)"/><use xlink:href="#t" transform="matrix(1,0,0,1,880,910.8320802707276) translate(40.416111111111114 82.37430555555555)"/><path d="M678.5 920.47l8.4-5.85m8.37-5.84l16.75-11.68m8.38-5.84l16.76-11.68m8.38-5.84l16.75-11.68m8.37-5.84l16.76-11.7m8.38-5.83l16.76-11.7m8.38-5.83l16.76-11.68m8.38-5.85l16.75-11.68m8.38-5.84l8.4-5.84" stroke="#333" fill="none"/><path d="M666.4 928.9l9.05-11.95 5.3 7.6z" stroke="#333" fill="#333"/><path d="M880 780l.02.57-.17.1-.54-.77.73-.5z" stroke="#333" stroke-width=".05" fill="#333"/><use xlink:href="#q" transform="matrix(1,0,0,1,761.752361387189,860.0356096617095) translate(0.005000000000002558 14.222222222222223)"/><path d="M701.04 959h9.9m9.93 0h19.83m9.9 0h19.84m9.9 0h19.84m9.92 0h19.83m9.9 0h19.84m9.92 0h9.9" stroke="#333" fill="none"/><path d="M686.27 959l14.27-4.63v9.27z" stroke="#333" fill="#333"/><path d="M880 959l.02.48h-.53v-.95h.52z" stroke="#333" stroke-width=".05" fill="#333"/><use xlink:href="#q" transform="matrix(1,0,0,1,757.7097236230122,933.6701062088152) translate(0.005000000000002558 14.222222222222223)"/><path d="M1000 1148.17c0 26.6-26.86 48.17-60 48.17s-60-21.56-60-48.17c0-26.6 26.86-48.17 60-48.17s60 21.57 60 48.17z" stroke="#000" stroke-opacity="0" fill="#3278cc"/><use xlink:href="#r" transform="matrix(1,0,0,1,880,1099.999481662742) translate(39.54018518518519 33.476388888888884)"/><use xlink:href="#v" transform="matrix(1,0,0,1,880,1099.999481662742) translate(24.516728395061733 56.409722222222214)"/><use xlink:href="#t" transform="matrix(1,0,0,1,880,1099.999481662742) translate(40.41611111111112 79.34305555555555)"/><path d="M679.5 999.13l8.34 6.2m8.33 6.2l16.68 12.4m8.33 6.2l16.68 12.38m8.34 6.2l16.67 12.4m8.34 6.2l16.7 12.4m8.32 6.2l16.68 12.4m8.34 6.2l16.67 12.38m8.35 6.2l16.67 12.4m8.34 6.2l8.34 6.2" stroke="#333" fill="none"/><path d="M667.65 990.32l14.2 4.8-5.52 7.43z" stroke="#333" fill="#333"/><path d="M880.02 1147.6l-.02.57.02.6-.72-.52.57-.77z" stroke="#333" stroke-width=".05" fill="#333"/><g><use xlink:href="#q" transform="matrix(1,0,0,1,761.9573999040291,1041.2764582747593) translate(0.005000000000002558 14.222222222222223)"/></g><path d="M685.2 420h9.9m9.92 0h19.82m9.9 0h19.84m9.9 0h19.84m9.9 0h19.83m9.92 0h19.82m9.9 0h9.92" stroke="#333" fill="none"/><path d="M685.2 420.48h-.53l.02-.48-.03-.47h.54z" stroke="#333" stroke-width=".05" fill="#333"/><path d="M878.38 420l-14.26 4.64v-9.27z" stroke="#333" fill="#333"/><g><use xlink:href="#w" transform="matrix(1,0,0,1,733.5066342666983,394.66718509643124) translate(0.005000000000002558 14.222222222222223)"/></g><path d="M993.9 420c0 22.1-25.5 40-56.96 40-31.45 0-56.94-17.9-56.94-40s25.5-40 56.94-40c31.45 0 56.95 17.9 56.95 40z" stroke="#000" stroke-opacity="0" fill="#3278cc"/><g><use xlink:href="#x" transform="matrix(1,0,0,1,880,380.0000000925063) translate(32.33833333333333 34.47222222222222)"/><use xlink:href="#y" transform="matrix(1,0,0,1,880,380.0000000925063) translate(18.066728395061723 55.80555555555556)"/></g><path d="M993.9 600c0 22.1-25.5 40-56.96 40-31.45 0-56.94-17.9-56.94-40s25.5-40 56.94-40c31.45 0 56.95 17.9 56.95 40z" stroke="#000" stroke-opacity="0" fill="#3278cc"/><g><use xlink:href="#x" transform="matrix(1,0,0,1,880,559.9994816627417) translate(32.33833333333333 34.47222222222222)"/><use xlink:href="#z" transform="matrix(1,0,0,1,880,559.9994816627417) translate(35.79512345679012 55.80555555555556)"/></g><path d="M685.2 600h9.9m9.92 0h19.82m9.9 0h19.84m9.9 0h19.84m9.9 0h19.83m9.92 0h19.82m9.9 0h9.92" stroke="#333" fill="none"/><path d="M685.2 600.48h-.53l.02-.48-.03-.48h.54z" stroke="#333" stroke-width=".05" fill="#333"/><path d="M878.38 600l-14.26 4.63v-9.26z" stroke="#333" fill="#333"/><g><use xlink:href="#w" transform="matrix(1,0,0,1,733.5066342685031,574.666666759173) translate(0.005000000000002558 14.222222222222223)"/></g><defs><path fill="#333" d="M67-125c0 54 23 88 75 88 28 0 53-7 68-21v-34h-60v-39h108v91C232-14 192 4 140 4 58 4 20-42 15-125 8-236 126-280 215-234c19 10 29 26 37 47l-47 15c-11-23-29-39-63-39-53 1-75 33-75 86" id="A"/><path fill="#333" d="M133-34C117-15 103 5 69 4 32 3 11-16 11-54c-1-60 55-63 116-61 1-26-3-47-28-47-18 1-26 9-28 27l-52-2c7-38 36-58 82-57s74 22 75 68l1 82c-1 14 12 18 25 15v27c-30 8-71 5-69-32zm-48 3c29 0 43-24 42-57-32 0-66-3-65 30 0 17 8 27 23 27" id="B"/><path fill="#333" d="M220-157c-53 9-28 100-34 157h-49v-107c1-27-5-49-29-50C55-147 81-57 75 0H25l-1-190h47c2 12-1 28 3 38 10-53 101-56 108 0 13-22 24-43 59-42 82 1 51 116 57 194h-49v-107c-1-25-5-48-29-50" id="C"/><path fill="#333" d="M185-48c-13 30-37 53-82 52C43 2 14-33 14-96s30-98 90-98c62 0 83 45 84 108H66c0 31 8 55 39 56 18 0 30-7 34-22zm-45-69c5-46-57-63-70-21-2 6-4 13-4 21h74" id="D"/><g id="a"><use transform="matrix(0.05555555555555555,0,0,0.05555555555555555,0,0)" xlink:href="#A"/><use transform="matrix(0.05555555555555555,0,0,0.05555555555555555,15.555555555555555,0)" xlink:href="#B"/><use transform="matrix(0.05555555555555555,0,0,0.05555555555555555,26.666666666666664,0)" xlink:href="#C"/><use transform="matrix(0.05555555555555555,0,0,0.05555555555555555,44.44444444444444,0)" xlink:href="#D"/></g><path fill="#333" d="M169-182c-1-43-94-46-97-3 18 66 151 10 154 114 3 95-165 93-204 36-6-8-10-19-12-30l50-8c3 46 112 56 116 5-17-69-150-10-154-114-4-87 153-88 188-35 5 8 8 18 10 28" id="E"/><path fill="#333" d="M123 10C108 53 80 86 19 72V37c35 8 53-11 59-39L3-190h52l48 148c12-52 28-100 44-148h51" id="F"/><path fill="#333" d="M137-138c1-29-70-34-71-4 15 46 118 7 119 86 1 83-164 76-172 9l43-7c4 19 20 25 44 25 33 8 57-30 24-41C81-84 22-81 20-136c-2-80 154-74 161-7" id="G"/><path fill="#333" d="M115-3C79 11 28 4 28-45v-112H4v-33h27l15-45h31v45h36v33H77v99c-1 23 16 31 38 25v30" id="H"/><path fill="#333" d="M35-132v-50h50v50H35zM35 0v-49h50V0H35" id="I"/><g id="b"><use transform="matrix(0.05555555555555555,0,0,0.05555555555555555,0,0)" xlink:href="#E"/><use transform="matrix(0.05555555555555555,0,0,0.05555555555555555,13.333333333333332,0)" xlink:href="#F"/><use transform="matrix(0.05555555555555555,0,0,0.05555555555555555,24.444444444444443,0)" xlink:href="#G"/><use transform="matrix(0.05555555555555555,0,0,0.05555555555555555,35.55555555555556,0)" xlink:href="#H"/><use transform="matrix(0.05555555555555555,0,0,0.05555555555555555,42.16666666666667,0)" xlink:href="#D"/><use transform="matrix(0.05555555555555555,0,0,0.05555555555555555,53.277777777777786,0)" xlink:href="#C"/><use transform="matrix(0.05555555555555555,0,0,0.05555555555555555,71.05555555555557,0)" xlink:href="#I"/></g><path fill="#333" d="M230 0l2-204L168 0h-37L68-204 70 0H24v-248h70l56 185 57-185h69V0h-46" id="J"/><path fill="#333" d="M25-224v-37h50v37H25zM25 0v-190h50V0H25" id="K"/><path fill="#333" d="M135-194c87-1 58 113 63 194h-50c-7-57 23-157-34-157-59 0-34 97-39 157H25l-1-190h47c2 12-1 28 3 38 12-26 28-41 61-42" id="L"/><g id="c"><use transform="matrix(0.05555555555555555,0,0,0.05555555555555555,0,0)" xlink:href="#J"/><use transform="matrix(0.05555555555555555,0,0,0.05555555555555555,16.61111111111111,0)" xlink:href="#B"/><use transform="matrix(0.05555555555555555,0,0,0.05555555555555555,27.72222222222222,0)" xlink:href="#K"/><use transform="matrix(0.05555555555555555,0,0,0.05555555555555555,33.27777777777778,0)" xlink:href="#L"/></g><path fill="#333" d="M85 4C-2 5 27-109 22-190h50c7 57-23 150 33 157 60-5 35-97 40-157h50l1 190h-47c-2-12 1-28-3-38-12 25-28 42-61 42" id="M"/><g id="d"><use transform="matrix(0.05555555555555555,0,0,0.05555555555555555,0,0)" xlink:href="#J"/><use transform="matrix(0.05555555555555555,0,0,0.05555555555555555,16.61111111111111,0)" xlink:href="#D"/><use transform="matrix(0.05555555555555555,0,0,0.05555555555555555,27.72222222222222,0)" xlink:href="#L"/><use transform="matrix(0.05555555555555555,0,0,0.05555555555555555,39.888888888888886,0)" xlink:href="#M"/></g><path fill="#fff" d="M185-189c-5-48-123-54-124 2 14 75 158 14 163 119 3 78-121 87-175 55-17-10-28-26-33-46l33-7c5 56 141 63 141-1 0-78-155-14-162-118-5-82 145-84 179-34 5 7 8 16 11 25" id="N"/><path fill="#fff" d="M59-47c-2 24 18 29 38 22v24C64 9 27 4 27-40v-127H5v-23h24l9-43h21v43h35v23H59v120" id="O"/><path fill="#fff" d="M141-36C126-15 110 5 73 4 37 3 15-17 15-53c-1-64 63-63 125-63 3-35-9-54-41-54-24 1-41 7-42 31l-33-3c5-37 33-52 76-52 45 0 72 20 72 64v82c-1 20 7 32 28 27v20c-31 9-61-2-59-35zM48-53c0 20 12 33 32 33 41-3 63-29 60-74-43 2-92-5-92 41" id="P"/><path fill="#fff" d="M114-163C36-179 61-72 57 0H25l-1-190h30c1 12-1 29 2 39 6-27 23-49 58-41v29" id="Q"/><g id="e"><use transform="matrix(0.04938271604938272,0,0,0.04938271604938272,0,0)" xlink:href="#N"/><use transform="matrix(0.04938271604938272,0,0,0.04938271604938272,11.851851851851853,0)" xlink:href="#O"/><use transform="matrix(0.04938271604938272,0,0,0.04938271604938272,16.790123456790127,0)" xlink:href="#P"/><use transform="matrix(0.04938271604938272,0,0,0.04938271604938272,26.666666666666668,0)" xlink:href="#Q"/><use transform="matrix(0.04938271604938272,0,0,0.04938271604938272,32.543209876543216,0)" xlink:href="#O"/></g><path fill="#fff" d="M190 0L58-211 59 0H30v-248h39L202-35l-2-213h31V0h-41" id="R"/><path fill="#fff" d="M100-194c63 0 86 42 84 106H49c0 40 14 67 53 68 26 1 43-12 49-29l28 8c-11 28-37 45-77 45C44 4 14-33 15-96c1-61 26-98 85-98zm52 81c6-60-76-77-97-28-3 7-6 17-6 28h103" id="S"/><path fill="#fff" d="M206 0h-36l-40-164L89 0H53L-1-190h32L70-26l43-164h34l41 164 42-164h31" id="T"/><g id="f"><use transform="matrix(0.04938271604938272,0,0,0.04938271604938272,0,0)" xlink:href="#R"/><use transform="matrix(0.04938271604938272,0,0,0.04938271604938272,12.790123456790125,0)" xlink:href="#S"/><use transform="matrix(0.04938271604938272,0,0,0.04938271604938272,22.66666666666667,0)" xlink:href="#T"/></g><path fill="#fff" d="M143 4C61 4 22-44 18-125c-5-107 100-154 193-111 17 8 29 25 37 43l-32 9c-13-25-37-40-76-40-61 0-88 39-88 99 0 61 29 100 91 101 35 0 62-11 79-27v-45h-74v-28h105v86C228-13 192 4 143 4" id="U"/><path fill="#fff" d="M210-169c-67 3-38 105-44 169h-31v-121c0-29-5-50-35-48C34-165 62-65 56 0H25l-1-190h30c1 10-1 24 2 32 10-44 99-50 107 0 11-21 27-35 58-36 85-2 47 119 55 194h-31v-121c0-29-5-49-35-48" id="V"/><g id="g"><use transform="matrix(0.04938271604938272,0,0,0.04938271604938272,0,0)" xlink:href="#U"/><use transform="matrix(0.04938271604938272,0,0,0.04938271604938272,13.827160493827162,0)" xlink:href="#P"/><use transform="matrix(0.04938271604938272,0,0,0.04938271604938272,23.703703703703706,0)" xlink:href="#V"/><use transform="matrix(0.04938271604938272,0,0,0.04938271604938272,38.46913580246914,0)" xlink:href="#S"/></g><path fill="#333" d="M30-248c87 1 191-15 191 75 0 78-77 80-158 76V0H30v-248zm33 125c57 0 124 11 124-50 0-59-68-47-124-48v98" id="W"/><path fill="#333" d="M24 0v-261h32V0H24" id="X"/><path fill="#333" d="M141-36C126-15 110 5 73 4 37 3 15-17 15-53c-1-64 63-63 125-63 3-35-9-54-41-54-24 1-41 7-42 31l-33-3c5-37 33-52 76-52 45 0 72 20 72 64v82c-1 20 7 32 28 27v20c-31 9-61-2-59-35zM48-53c0 20 12 33 32 33 41-3 63-29 60-74-43 2-92-5-92 41" id="Y"/><path fill="#333" d="M179-190L93 31C79 59 56 82 12 73V49c39 6 53-20 64-50L1-190h34L92-34l54-156h33" id="Z"/><path fill="#333" d="M100-194c63 0 86 42 84 106H49c0 40 14 67 53 68 26 1 43-12 49-29l28 8c-11 28-37 45-77 45C44 4 14-33 15-96c1-61 26-98 85-98zm52 81c6-60-76-77-97-28-3 7-6 17-6 28h103" id="aa"/><path fill="#333" d="M114-163C36-179 61-72 57 0H25l-1-190h30c1 12-1 29 2 39 6-27 23-49 58-41v29" id="ab"/><g id="h"><use transform="matrix(0.04938271604938272,0,0,0.04938271604938272,0,0)" xlink:href="#W"/><use transform="matrix(0.04938271604938272,0,0,0.04938271604938272,11.851851851851853,0)" xlink:href="#X"/><use transform="matrix(0.04938271604938272,0,0,0.04938271604938272,15.753086419753087,0)" xlink:href="#Y"/><use transform="matrix(0.04938271604938272,0,0,0.04938271604938272,25.629629629629633,0)" xlink:href="#Z"/><use transform="matrix(0.04938271604938272,0,0,0.04938271604938272,34.51851851851852,0)" xlink:href="#aa"/><use transform="matrix(0.04938271604938272,0,0,0.04938271604938272,44.39506172839506,0)" xlink:href="#ab"/></g><path fill="#fff" d="M212-179c-10-28-35-45-73-45-59 0-87 40-87 99 0 60 29 101 89 101 43 0 62-24 78-52l27 14C228-24 195 4 139 4 59 4 22-46 18-125c-6-104 99-153 187-111 19 9 31 26 39 46" id="ac"/><path fill="#fff" d="M100-194c62-1 85 37 85 99 1 63-27 99-86 99S16-35 15-95c0-66 28-99 85-99zM99-20c44 1 53-31 53-75 0-43-8-75-51-75s-53 32-53 75 10 74 51 75" id="ad"/><path fill="#fff" d="M117-194c89-4 53 116 60 194h-32v-121c0-31-8-49-39-48C34-167 62-67 57 0H25l-1-190h30c1 10-1 24 2 32 11-22 29-35 61-36" id="ae"/><path fill="#fff" d="M24-231v-30h32v30H24zM24 0v-190h32V0H24" id="af"/><path fill="#fff" d="M84 4C-5 8 30-112 23-190h32v120c0 31 7 50 39 49 72-2 45-101 50-169h31l1 190h-30c-1-10 1-25-2-33-11 22-28 36-60 37" id="ag"/><g id="i"><use transform="matrix(0.04938271604938272,0,0,0.04938271604938272,0,0)" xlink:href="#ac"/><use transform="matrix(0.04938271604938272,0,0,0.04938271604938272,12.790123456790125,0)" xlink:href="#ad"/><use transform="matrix(0.04938271604938272,0,0,0.04938271604938272,22.66666666666667,0)" xlink:href="#ae"/><use transform="matrix(0.04938271604938272,0,0,0.04938271604938272,32.543209876543216,0)" xlink:href="#O"/><use transform="matrix(0.04938271604938272,0,0,0.04938271604938272,37.48148148148149,0)" xlink:href="#af"/><use transform="matrix(0.04938271604938272,0,0,0.04938271604938272,41.38271604938272,0)" xlink:href="#ae"/><use transform="matrix(0.04938271604938272,0,0,0.04938271604938272,51.25925925925927,0)" xlink:href="#ag"/><use transform="matrix(0.04938271604938272,0,0,0.04938271604938272,61.13580246913581,0)" xlink:href="#S"/></g><path fill="#fff" d="M140-251c81 0 123 46 123 126C263-46 219 4 140 4 59 4 17-45 17-125s42-126 123-126zm0 227c63 0 89-41 89-101s-29-99-89-99c-61 0-89 39-89 99S79-25 140-24" id="ah"/><path fill="#fff" d="M115-194c55 1 70 41 70 98S169 2 115 4C84 4 66-9 55-30l1 105H24l-1-265h31l2 30c10-21 28-34 59-34zm-8 174c40 0 45-34 45-75s-6-73-45-74c-42 0-51 32-51 76 0 43 10 73 51 73" id="ai"/><path fill="#fff" d="M135-143c-3-34-86-38-87 0 15 53 115 12 119 90S17 21 10-45l28-5c4 36 97 45 98 0-10-56-113-15-118-90-4-57 82-63 122-42 12 7 21 19 24 35" id="aj"/><g id="j"><use transform="matrix(0.04938271604938272,0,0,0.04938271604938272,0,0)" xlink:href="#ah"/><use transform="matrix(0.04938271604938272,0,0,0.04938271604938272,13.827160493827162,0)" xlink:href="#ai"/><use transform="matrix(0.04938271604938272,0,0,0.04938271604938272,23.703703703703706,0)" xlink:href="#O"/><use transform="matrix(0.04938271604938272,0,0,0.04938271604938272,28.641975308641978,0)" xlink:href="#af"/><use transform="matrix(0.04938271604938272,0,0,0.04938271604938272,32.543209876543216,0)" xlink:href="#ad"/><use transform="matrix(0.04938271604938272,0,0,0.04938271604938272,42.41975308641976,0)" xlink:href="#ae"/><use transform="matrix(0.04938271604938272,0,0,0.04938271604938272,52.2962962962963,0)" xlink:href="#aj"/></g><path fill="#fff" d="M137 0h-34L2-248h35l83 218 83-218h36" id="ak"/><g id="k"><use transform="matrix(0.04938271604938272,0,0,0.04938271604938272,0,0)" xlink:href="#ak"/><use transform="matrix(0.04938271604938272,0,0,0.04938271604938272,11.506172839506174,0)" xlink:href="#af"/><use transform="matrix(0.04938271604938272,0,0,0.04938271604938272,15.407407407407408,0)" xlink:href="#S"/><use transform="matrix(0.04938271604938272,0,0,0.04938271604938272,25.283950617283953,0)" xlink:href="#T"/></g><path fill="#fff" d="M197 0v-115H63V0H30v-248h33v105h134v-105h34V0h-34" id="al"/><path fill="#fff" d="M24 0v-261h32V0H24" id="am"/><g id="l"><use transform="matrix(0.04938271604938272,0,0,0.04938271604938272,0,0)" xlink:href="#al"/><use transform="matrix(0.04938271604938272,0,0,0.04938271604938272,12.790123456790125,0)" xlink:href="#S"/><use transform="matrix(0.04938271604938272,0,0,0.04938271604938272,22.66666666666667,0)" xlink:href="#am"/><use transform="matrix(0.04938271604938272,0,0,0.04938271604938272,26.567901234567902,0)" xlink:href="#ai"/></g><path fill="#fff" d="M140-251c81 0 123 46 123 126C263-53 228-8 163 1c7 30 30 48 69 40v23c-55 16-95-15-103-61C56-3 17-48 17-125c0-80 42-126 123-126zm0 227c63 0 89-41 89-101s-29-99-89-99c-61 0-89 39-89 99S79-25 140-24" id="an"/><g id="m"><use transform="matrix(0.04938271604938272,0,0,0.04938271604938272,0,0)" xlink:href="#an"/><use transform="matrix(0.04938271604938272,0,0,0.04938271604938272,13.827160493827162,0)" xlink:href="#ag"/><use transform="matrix(0.04938271604938272,0,0,0.04938271604938272,23.703703703703706,0)" xlink:href="#af"/><use transform="matrix(0.04938271604938272,0,0,0.04938271604938272,27.60493827160494,0)" xlink:href="#O"/></g><path fill="#fff" d="M108 0H70L1-190h34L89-25l56-165h34" id="ao"/><path fill="#fff" d="M177-190C167-65 218 103 67 71c-23-6-38-20-44-43l32-5c15 47 100 32 89-28v-30C133-14 115 1 83 1 29 1 15-40 15-95c0-56 16-97 71-98 29-1 48 16 59 35 1-10 0-23 2-32h30zM94-22c36 0 50-32 50-73 0-42-14-75-50-75-39 0-46 34-46 75s6 73 46 73" id="ap"/><g id="n"><use transform="matrix(0.04938271604938272,0,0,0.04938271604938272,0,0)" xlink:href="#R"/><use transform="matrix(0.04938271604938272,0,0,0.04938271604938272,12.790123456790125,0)" xlink:href="#P"/><use transform="matrix(0.04938271604938272,0,0,0.04938271604938272,22.66666666666667,0)" xlink:href="#ao"/><use transform="matrix(0.04938271604938272,0,0,0.04938271604938272,31.555555555555557,0)" xlink:href="#af"/><use transform="matrix(0.04938271604938272,0,0,0.04938271604938272,35.4567901234568,0)" xlink:href="#ap"/><use transform="matrix(0.04938271604938272,0,0,0.04938271604938272,45.33333333333334,0)" xlink:href="#P"/><use transform="matrix(0.04938271604938272,0,0,0.04938271604938272,55.209876543209894,0)" xlink:href="#O"/><use transform="matrix(0.04938271604938272,0,0,0.04938271604938272,60.14814814814817,0)" xlink:href="#S"/></g><path fill="#fff" d="M240 0l2-218c-23 76-54 145-80 218h-23L58-218 59 0H30v-248h44l77 211c21-75 51-140 76-211h43V0h-30" id="aq"/><g id="o"><use transform="matrix(0.04938271604938272,0,0,0.04938271604938272,0,0)" xlink:href="#aq"/><use transform="matrix(0.04938271604938272,0,0,0.04938271604938272,14.765432098765434,0)" xlink:href="#P"/><use transform="matrix(0.04938271604938272,0,0,0.04938271604938272,24.641975308641978,0)" xlink:href="#af"/><use transform="matrix(0.04938271604938272,0,0,0.04938271604938272,28.543209876543212,0)" xlink:href="#ae"/></g><g id="p"><use transform="matrix(0.04938271604938272,0,0,0.04938271604938272,0,0)" xlink:href="#aq"/><use transform="matrix(0.04938271604938272,0,0,0.04938271604938272,14.765432098765434,0)" xlink:href="#S"/><use transform="matrix(0.04938271604938272,0,0,0.04938271604938272,24.641975308641978,0)" xlink:href="#ae"/><use transform="matrix(0.04938271604938272,0,0,0.04938271604938272,34.51851851851852,0)" xlink:href="#ag"/></g><path fill="#333" d="M18-100v-36l175-74v27L42-118l151 64v27" id="ar"/><path fill="#333" d="M141 0L90-78 38 0H4l68-98-65-92h35l48 74 47-74h35l-64 92 68 98h-35" id="as"/><path fill="#333" d="M59-47c-2 24 18 29 38 22v24C64 9 27 4 27-40v-127H5v-23h24l9-43h21v43h35v23H59v120" id="at"/><path fill="#333" d="M117-194c89-4 53 116 60 194h-32v-121c0-31-8-49-39-48C34-167 62-67 57 0H25l-1-190h30c1 10-1 24 2 32 11-22 29-35 61-36" id="au"/><path fill="#333" d="M85-194c31 0 48 13 60 33l-1-100h32l1 261h-30c-2-10 0-23-3-31C134-8 116 4 85 4 32 4 16-35 15-94c0-66 23-100 70-100zm9 24c-40 0-46 34-46 75 0 40 6 74 45 74 42 0 51-32 51-76 0-42-9-74-50-73" id="av"/><path fill="#333" d="M18-27v-27l151-64-151-65v-27l175 74v36" id="aw"/><g id="q"><use transform="matrix(0.04938271604938272,0,0,0.04938271604938272,0,0)" xlink:href="#ar"/><use transform="matrix(0.04938271604938272,0,0,0.04938271604938272,10.370370370370372,0)" xlink:href="#ar"/><use transform="matrix(0.04938271604938272,0,0,0.04938271604938272,20.740740740740744,0)" xlink:href="#aa"/><use transform="matrix(0.04938271604938272,0,0,0.04938271604938272,30.617283950617285,0)" xlink:href="#as"/><use transform="matrix(0.04938271604938272,0,0,0.04938271604938272,39.50617283950618,0)" xlink:href="#at"/><use transform="matrix(0.04938271604938272,0,0,0.04938271604938272,44.44444444444445,0)" xlink:href="#aa"/><use transform="matrix(0.04938271604938272,0,0,0.04938271604938272,54.320987654320994,0)" xlink:href="#au"/><use transform="matrix(0.04938271604938272,0,0,0.04938271604938272,64.19753086419755,0)" xlink:href="#av"/><use transform="matrix(0.04938271604938272,0,0,0.04938271604938272,74.07407407407409,0)" xlink:href="#aw"/><use transform="matrix(0.04938271604938272,0,0,0.04938271604938272,84.44444444444446,0)" xlink:href="#aw"/></g><g id="r"><use transform="matrix(0.05308641975308641,0,0,0.05308641975308641,0,0)" xlink:href="#ak"/><use transform="matrix(0.05308641975308641,0,0,0.05308641975308641,12.369135802469135,0)" xlink:href="#af"/><use transform="matrix(0.05308641975308641,0,0,0.05308641975308641,16.56296296296296,0)" xlink:href="#S"/><use transform="matrix(0.05308641975308641,0,0,0.05308641975308641,27.18024691358024,0)" xlink:href="#T"/></g><path fill="#fff" d="M115-194c53 0 69 39 70 98 0 66-23 100-70 100C84 3 66-7 56-30L54 0H23l1-261h32v101c10-23 28-34 59-34zm-8 174c40 0 45-34 45-75 0-40-5-75-45-74-42 0-51 32-51 76 0 43 10 73 51 73" id="ax"/><path fill="#fff" d="M24-231v-30h32v30H24zM-9 49c24 4 33-6 33-30v-209h32V24c2 40-23 58-65 49V49" id="ay"/><path fill="#fff" d="M96-169c-40 0-48 33-48 73s9 75 48 75c24 0 41-14 43-38l32 2c-6 37-31 61-74 61-59 0-76-41-82-99-10-93 101-131 147-64 4 7 5 14 7 22l-32 3c-4-21-16-35-41-35" id="az"/><g id="s"><use transform="matrix(0.05308641975308641,0,0,0.05308641975308641,0,0)" xlink:href="#ah"/><use transform="matrix(0.05308641975308641,0,0,0.05308641975308641,14.864197530864194,0)" xlink:href="#ax"/><use transform="matrix(0.05308641975308641,0,0,0.05308641975308641,25.481481481481474,0)" xlink:href="#ay"/><use transform="matrix(0.05308641975308641,0,0,0.05308641975308641,29.675308641975295,0)" xlink:href="#S"/><use transform="matrix(0.05308641975308641,0,0,0.05308641975308641,40.292592592592584,0)" xlink:href="#az"/><use transform="matrix(0.05308641975308641,0,0,0.05308641975308641,49.84814814814814,0)" xlink:href="#O"/><use transform="matrix(0.05308641975308641,0,0,0.05308641975308641,55.15679012345678,0)" xlink:href="#af"/><use transform="matrix(0.05308641975308641,0,0,0.05308641975308641,59.350617283950605,0)" xlink:href="#ao"/><use transform="matrix(0.05308641975308641,0,0,0.05308641975308641,68.90617283950616,0)" xlink:href="#S"/><use transform="matrix(0.05308641975308641,0,0,0.05308641975308641,79.52345679012343,0)" xlink:href="#aj"/></g><g id="t"><use transform="matrix(0.05308641975308641,0,0,0.05308641975308641,0,0)" xlink:href="#al"/><use transform="matrix(0.05308641975308641,0,0,0.05308641975308641,13.74938271604938,0)" xlink:href="#S"/><use transform="matrix(0.05308641975308641,0,0,0.05308641975308641,24.36666666666666,0)" xlink:href="#am"/><use transform="matrix(0.05308641975308641,0,0,0.05308641975308641,28.56049382716049,0)" xlink:href="#ai"/></g><path fill="#fff" d="M205 0l-28-72H64L36 0H1l101-248h38L239 0h-34zm-38-99l-47-123c-12 45-31 82-46 123h93" id="aA"/><g id="u"><use transform="matrix(0.05308641975308641,0,0,0.05308641975308641,0,0)" xlink:href="#aA"/><use transform="matrix(0.05308641975308641,0,0,0.05308641975308641,12.740740740740739,0)" xlink:href="#ax"/><use transform="matrix(0.05308641975308641,0,0,0.05308641975308641,23.35802469135802,0)" xlink:href="#af"/><use transform="matrix(0.05308641975308641,0,0,0.05308641975308641,27.551851851851847,0)" xlink:href="#am"/><use transform="matrix(0.05308641975308641,0,0,0.05308641975308641,31.745679012345665,0)" xlink:href="#af"/><use transform="matrix(0.05308641975308641,0,0,0.05308641975308641,35.939506172839494,0)" xlink:href="#O"/><use transform="matrix(0.05308641975308641,0,0,0.05308641975308641,41.24814814814813,0)" xlink:href="#af"/><use transform="matrix(0.05308641975308641,0,0,0.05308641975308641,45.44197530864196,0)" xlink:href="#S"/><use transform="matrix(0.05308641975308641,0,0,0.05308641975308641,56.059259259259235,0)" xlink:href="#aj"/></g><g id="v"><use transform="matrix(0.05308641975308641,0,0,0.05308641975308641,0,0)" xlink:href="#ac"/><use transform="matrix(0.05308641975308641,0,0,0.05308641975308641,13.74938271604938,0)" xlink:href="#ad"/><use transform="matrix(0.05308641975308641,0,0,0.05308641975308641,24.36666666666666,0)" xlink:href="#ae"/><use transform="matrix(0.05308641975308641,0,0,0.05308641975308641,34.98395061728394,0)" xlink:href="#O"/><use transform="matrix(0.05308641975308641,0,0,0.05308641975308641,40.29259259259258,0)" xlink:href="#Q"/><use transform="matrix(0.05308641975308641,0,0,0.05308641975308641,46.60987654320986,0)" xlink:href="#ad"/><use transform="matrix(0.05308641975308641,0,0,0.05308641975308641,57.22716049382715,0)" xlink:href="#am"/><use transform="matrix(0.05308641975308641,0,0,0.05308641975308641,61.42098765432096,0)" xlink:href="#aj"/></g><path fill="#333" d="M24-231v-30h32v30H24zM24 0v-190h32V0H24" id="aB"/><path fill="#333" d="M96-169c-40 0-48 33-48 73s9 75 48 75c24 0 41-14 43-38l32 2c-6 37-31 61-74 61-59 0-76-41-82-99-10-93 101-131 147-64 4 7 5 14 7 22l-32 3c-4-21-16-35-41-35" id="aC"/><path fill="#333" d="M84 4C-5 8 30-112 23-190h32v120c0 31 7 50 39 49 72-2 45-101 50-169h31l1 190h-30c-1-10 1-25-2-33-11 22-28 36-60 37" id="aD"/><g id="w"><use transform="matrix(0.04938271604938272,0,0,0.04938271604938272,0,0)" xlink:href="#ar"/><use transform="matrix(0.04938271604938272,0,0,0.04938271604938272,10.370370370370372,0)" xlink:href="#ar"/><use transform="matrix(0.04938271604938272,0,0,0.04938271604938272,20.740740740740744,0)" xlink:href="#aB"/><use transform="matrix(0.04938271604938272,0,0,0.04938271604938272,24.641975308641978,0)" xlink:href="#au"/><use transform="matrix(0.04938271604938272,0,0,0.04938271604938272,34.51851851851852,0)" xlink:href="#aC"/><use transform="matrix(0.04938271604938272,0,0,0.04938271604938272,43.407407407407405,0)" xlink:href="#X"/><use transform="matrix(0.04938271604938272,0,0,0.04938271604938272,47.30864197530864,0)" xlink:href="#aD"/><use transform="matrix(0.04938271604938272,0,0,0.04938271604938272,57.185185185185176,0)" xlink:href="#av"/><use transform="matrix(0.04938271604938272,0,0,0.04938271604938272,67.06172839506172,0)" xlink:href="#aa"/><use transform="matrix(0.04938271604938272,0,0,0.04938271604938272,76.93827160493827,0)" xlink:href="#aw"/><use transform="matrix(0.04938271604938272,0,0,0.04938271604938272,87.30864197530863,0)" xlink:href="#aw"/></g><g id="x"><use transform="matrix(0.04938271604938272,0,0,0.04938271604938272,0,0)" xlink:href="#N"/><use transform="matrix(0.04938271604938272,0,0,0.04938271604938272,11.851851851851853,0)" xlink:href="#S"/><use transform="matrix(0.04938271604938272,0,0,0.04938271604938272,21.7283950617284,0)" xlink:href="#am"/><use transform="matrix(0.04938271604938272,0,0,0.04938271604938272,25.629629629629633,0)" xlink:href="#S"/><use transform="matrix(0.04938271604938272,0,0,0.04938271604938272,35.50617283950618,0)" xlink:href="#az"/><use transform="matrix(0.04938271604938272,0,0,0.04938271604938272,44.39506172839506,0)" xlink:href="#O"/></g><path fill="#fff" d="M106-169C34-169 62-67 57 0H25v-261h32l-1 103c12-21 28-36 61-36 89 0 53 116 60 194h-32v-121c2-32-8-49-39-48" id="aE"/><g id="y"><use transform="matrix(0.04938271604938272,0,0,0.04938271604938272,0,0)" xlink:href="#ac"/><use transform="matrix(0.04938271604938272,0,0,0.04938271604938272,12.790123456790125,0)" xlink:href="#aE"/><use transform="matrix(0.04938271604938272,0,0,0.04938271604938272,22.66666666666667,0)" xlink:href="#P"/><use transform="matrix(0.04938271604938272,0,0,0.04938271604938272,32.543209876543216,0)" xlink:href="#Q"/><use transform="matrix(0.04938271604938272,0,0,0.04938271604938272,38.41975308641976,0)" xlink:href="#P"/><use transform="matrix(0.04938271604938272,0,0,0.04938271604938272,48.296296296296305,0)" xlink:href="#az"/><use transform="matrix(0.04938271604938272,0,0,0.04938271604938272,57.18518518518519,0)" xlink:href="#O"/><use transform="matrix(0.04938271604938272,0,0,0.04938271604938272,62.12345679012346,0)" xlink:href="#S"/><use transform="matrix(0.04938271604938272,0,0,0.04938271604938272,72,0)" xlink:href="#Q"/></g><path fill="#fff" d="M30 0v-248h33v221h125V0H30" id="aF"/><g id="z"><use transform="matrix(0.04938271604938272,0,0,0.04938271604938272,0,0)" xlink:href="#aF"/><use transform="matrix(0.04938271604938272,0,0,0.04938271604938272,9.876543209876544,0)" xlink:href="#S"/><use transform="matrix(0.04938271604938272,0,0,0.04938271604938272,19.75308641975309,0)" xlink:href="#ao"/><use transform="matrix(0.04938271604938272,0,0,0.04938271604938272,28.641975308641978,0)" xlink:href="#S"/><use transform="matrix(0.04938271604938272,0,0,0.04938271604938272,38.51851851851852,0)" xlink:href="#am"/></g></defs></g></svg>