<svg xmlns="http://www.w3.org/2000/svg" xmlns:xlink="http://www.w3.org/1999/xlink" xmlns:lucid="lucid" width="1116" height="1023"><g transform="translate(-50 -154)" lucid:page-tab-id="dkU5kuyRz7-t"><path d="M0 0h1360v1760H0z" fill="#fff"/><path d="M200 185a5 5 0 0 1 5-5h930a5 5 0 0 1 5 5v970a5 5 0 0 1-5 5H205a5 5 0 0 1-5-5z" stroke="#333" fill-opacity="0"/><use xlink:href="#a" transform="matrix(1,0,0,1,208,188) translate(403.77777777777777 16)"/><use xlink:href="#b" transform="matrix(1,0,0,1,208,188) translate(468.16666666666663 16)"/><path d="M139.75 611c0 10.9-8.84 19.75-19.75 19.75-10.9 0-19.75-8.84-19.75-19.75 0-10.9 8.84-19.75 19.75-19.75 10.9 0 19.75 8.84 19.75 19.75z" stroke="#333" fill="#fff"/><path d="M120 630.75v47.3a27.6 27.6 0 0 0 4.28 14.76L160 749.26m-40-63.2l-40 63.2m0-98.75h80" stroke="#333" fill="none"/><path d="M80 599.25a8 8 0 0 1 8-8h64a8 8 0 0 1 8 8v164a8 8 0 0 1-8 8H88a8 8 0 0 1-8-8z" fill="none"/><use xlink:href="#c" transform="matrix(1,0,0,1,0,749.25) translate(94.8641975308642 14.555555555555555)"/><path d="M380 650c0 27.6-26.86 50-60 50s-60-22.4-60-50 26.86-50 60-50 60 22.4 60 50z" stroke="#000" stroke-opacity="0" fill="#3278cc"/><use xlink:href="#d" transform="matrix(1,0,0,1,260,600) translate(22.366728395061735 40.288888888888884)"/><use xlink:href="#e" transform="matrix(1,0,0,1,260,600) translate(6.414259259259277 63.222222222222214)"/><use xlink:href="#f" transform="matrix(1,0,0,1,260,600) translate(65.87104938271605 63.222222222222214)"/><path d="M160.5 650h99" stroke="#333" fill="none"/><path d="M160.5 650.48h-.5V650h-3v-.48h3.5zM260 650l.02.48h-.53v-.96h.52z" stroke="#333" stroke-width=".05" fill="#333"/><path d="M660 797.32c0 27.6-26.86 50-60 50s-60-22.4-60-50c0-27.62 26.86-50 60-50s60 22.38 60 50z" stroke="#000" stroke-opacity="0" fill="#3278cc"/><use xlink:href="#g" transform="matrix(1,0,0,1,540,747.3145629143164) translate(39.540185185185194 31.070138888888884)"/><use xlink:href="#h" transform="matrix(1,0,0,1,540,747.3145629143164) translate(25.52537037037038 54.003472222222214)"/><use xlink:href="#f" transform="matrix(1,0,0,1,540,747.3145629143164) translate(36.14265432098766 76.93680555555555)"/><path d="M1020 350c0 27.6-26.86 50-60 50s-60-22.4-60-50 26.86-50 60-50 60 22.4 60 50z" stroke="#000" stroke-opacity="0" fill="#3278cc"/><use xlink:href="#g" transform="matrix(1,0,0,1,900,300) translate(39.540185185185194 31.070138888888884)"/><use xlink:href="#i" transform="matrix(1,0,0,1,900,300) translate(15.465493827160502 54.003472222222214)"/><use xlink:href="#j" transform="matrix(1,0,0,1,900,300) translate(40.41611111111112 76.93680555555555)"/><path d="M1020 553.66c0 26.6-26.86 48.17-60 48.17s-60-21.57-60-48.17 26.86-48.17 60-48.17 60 21.55 60 48.16z" stroke="#000" stroke-opacity="0" fill="#3278cc"/><use xlink:href="#g" transform="matrix(1,0,0,1,900,505.4859221857373) translate(39.54018518518519 36.507638888888884)"/><use xlink:href="#k" transform="matrix(1,0,0,1,900,505.4859221857373) translate(27.1975925925926 59.440972222222214)"/><use xlink:href="#j" transform="matrix(1,0,0,1,900,505.4859221857373) translate(40.416111111111114 82.37430555555555)"/><path d="M660 1040.97c0 27.62-26.86 50-60 50s-60-22.38-60-50c0-27.6 26.86-50 60-50s60 22.4 60 50z" stroke="#000" stroke-opacity="0" fill="#3278cc"/><use xlink:href="#l" transform="matrix(1,0,0,1,540,990.9718443714747) translate(24.49018518518519 43.695138888888884)"/><use xlink:href="#m" transform="matrix(1,0,0,1,540,990.9718443714747) translate(34.019197530864204 66.62847222222221)"/><path d="M654.54 508.12l8.17-5.26m8.18-5.26l16.33-10.52m8.18-5.26l16.34-10.53m8.17-5.27l16.32-10.52m8.17-5.26l16.33-10.52m8.16-5.26l16.33-10.52m8.17-5.27l16.33-10.52m8.17-5.26l16.34-10.53m8.16-5.27l16.34-10.52m8.17-5.26l16.34-10.53m8.17-5.27l8.18-5.26" stroke="#333" fill="none"/><path d="M642.13 516.12l9.48-11.62 5.03 7.8z" stroke="#333" fill="#333"/><path d="M900 350l.02.55-.2.13-.5-.8.7-.46z" stroke="#333" stroke-width=".05" fill="#333"/><use xlink:href="#n" transform="matrix(1,0,0,1,755.9247918561022,440.1961353959626) translate(0.005000000000002558 14.222222222222223)"/><path d="M676.38 553.66H687m10.63 0h21.25m10.63 0h21.26m10.62 0h21.25m10.62 0h21.25m10.63 0h21.25m10.62 0h21.25m10.63 0h10.62" stroke="#333" fill="none"/><path d="M661.62 553.66l14.26-4.64v9.27z" stroke="#333" fill="#333"/><path d="M900 553.66l.02.47h-.53v-.95h.52z" stroke="#333" stroke-width=".05" fill="#333"/><use xlink:href="#n" transform="matrix(1,0,0,1,760.5925925925926,528.323948123825) translate(0.005000000000002558 14.222222222222223)"/><path d="M320.27 700.42l5.4 8.38m5.4 8.38l10.83 16.76m5.4 8.38l10.8 16.75m5.42 8.38l10.8 16.76m5.42 8.4l10.8 16.75m5.42 8.38l10.8 16.76m5.42 8.37l10.8 16.75m5.42 8.38l10.8 16.76m5.42 8.38l10.8 16.76m5.4 8.38l10.83 16.75m5.4 8.38l10.82 16.77m5.4 8.38l10.82 16.76m5.4 8.4l10.8 16.75m5.4 8.38l5.42 8.37" stroke="#333" fill="none"/><path d="M320 700l.55-.02.13.2-.8.5-.46-.7z" stroke="#333" stroke-width=".05" fill="#333"/><path d="M539.12 1039.6l-11.63-9.46 7.78-5.03z" stroke="#333" fill="#333"/><use xlink:href="#n" transform="matrix(1,0,0,1,437.20914511094463,857.3500591470885) translate(0.005000000000002558 14.222222222222223)"/><path d="M660 310c0 27.6-26.86 50-60 50s-60-22.4-60-50 26.86-50 60-50 60 22.4 60 50z" stroke="#000" stroke-opacity="0" fill="#3278cc"/><use xlink:href="#o" transform="matrix(1,0,0,1,540,260) translate(13.872901234567914 52.788888888888884)"/><use xlink:href="#m" transform="matrix(1,0,0,1,540,260) translate(54.16549382716049 52.788888888888884)"/><path d="M660 553.66c0 27.6-26.86 50-60 50s-60-22.4-60-50c0-27.62 26.86-50 60-50s60 22.38 60 50z" stroke="#000" stroke-opacity="0" fill="#3278cc"/><use xlink:href="#p" transform="matrix(1,0,0,1,539.9999999999999,503.65728145715815) translate(17.296975308641983 43.695138888888884)"/><use xlink:href="#q" transform="matrix(1,0,0,1,539.9999999999999,503.65728145715815) translate(63.535246913580245 43.695138888888884)"/><use xlink:href="#f" transform="matrix(1,0,0,1,539.9999999999999,503.65728145715815) translate(36.14265432098767 66.62847222222221)"/><path d="M329.9 586.95l5.83-7.7m5.83-7.67l11.65-15.36m5.84-7.68l11.66-15.37m5.82-7.68l11.66-15.37m5.83-7.68l11.66-15.37m5.83-7.68l11.64-15.36m5.83-7.7L440.63 441m5.82-7.7l11.66-15.36m5.84-7.68l11.65-15.36m5.82-7.68l11.66-15.37m5.82-7.68l11.66-15.36m5.83-7.67l11.64-15.37m5.83-7.68l5.83-7.68" stroke="#333" fill="none"/><path d="M320.98 598.7l4.93-14.16 7.4 5.6z" stroke="#333" fill="#333"/><path d="M540 310l.02.66-.7-.54.7-.95z" stroke="#333" stroke-width=".05" fill="#333"/><use xlink:href="#n" transform="matrix(1,0,0,1,436.9155330174834,447.22092072854736) translate(0.005000000000002558 14.222222222222223)"/><path d="M384.54 615.53l8.6-3.43m8.62-3.43l17.22-6.85m8.62-3.43l17.22-6.86m8.6-3.43l17.23-6.84m8.6-3.43l17.23-6.85m8.6-3.43l17.23-6.85m8.63-3.43l8.6-3.43" stroke="#333" fill="none"/><path d="M370.82 621l11.54-9.6 3.43 8.62z" stroke="#333" fill="#333"/><path d="M540 553.66l.02.5-.32.13-.35-.9.67-.26z" stroke="#333" stroke-width=".05" fill="#333"/><g><use xlink:href="#n" transform="matrix(1,0,0,1,434.72446682548343,592.5033276384893) translate(0.005000000000002558 14.222222222222223)"/></g><path d="M1020 755.5c0 26.6-26.86 48.16-60 48.16s-60-21.57-60-48.17c0-26.62 26.86-48.18 60-48.18s60 21.56 60 48.17z" stroke="#000" stroke-opacity="0" fill="#3278cc"/><g><use xlink:href="#g" transform="matrix(1,0,0,1,900,707.3145629143165) translate(39.54018518518519 33.476388888888884)"/><use xlink:href="#r" transform="matrix(1,0,0,1,900,707.3145629143165) translate(24.516728395061733 56.409722222222214)"/><use xlink:href="#j" transform="matrix(1,0,0,1,900,707.3145629143165) translate(40.41611111111112 79.34305555555555)"/></g><path d="M659.5 594.9l8.02 5.35m8 5.34l16 10.68m8 5.34l16 10.7m8 5.33l16.02 10.7m8 5.33l16 10.7m8 5.33l16 10.7m8 5.34l16.02 10.7m8 5.33l16 10.7m8 5.33l16 10.7m8.02 5.33l16 10.7m8 5.34l8 5.34" stroke="#333" fill="none"/><path d="M647.23 586.7l14.44 4.07-5.15 7.7z" stroke="#333" fill="#333"/><path d="M900.02 754.93l-.02.56.02.57-.7-.47.52-.8z" stroke="#333" stroke-width=".05" fill="#333"/><g><use xlink:href="#n" transform="matrix(1,0,0,1,758.0069451722655,641.8626768814794) translate(0.005000000000002558 14.222222222222223)"/></g><path d="M385.96 683.5l8.54 6.3m8.53 6.32l17.07 12.6m8.54 6.3l17.07 12.63m8.55 6.3l17.07 12.62m8.53 6.3l17.07 12.62m8.54 6.3l17.07 12.6m8.53 6.3l8.54 6.32" stroke="#333" fill="none"/><path d="M374.1 674.73l14.22 4.75-5.5 7.45z" stroke="#333" fill="#333"/><path d="M540.02 796.74l-.02.58.02.6-.72-.53.57-.77z" stroke="#333" stroke-width=".05" fill="#333"/><g><use xlink:href="#n" transform="matrix(1,0,0,1,437.46445055079585,702.4291444196294) translate(0.005000000000002558 14.222222222222223)"/></g><defs><path fill="#333" d="M24-248c93 1 206-16 204 79-1 75-69 88-152 82V0H24v-248zm52 121c47 0 100 7 100-41 0-47-54-39-100-39v80" id="s"/><path fill="#333" d="M133-34C117-15 103 5 69 4 32 3 11-16 11-54c-1-60 55-63 116-61 1-26-3-47-28-47-18 1-26 9-28 27l-52-2c7-38 36-58 82-57s74 22 75 68l1 82c-1 14 12 18 25 15v27c-30 8-71 5-69-32zm-48 3c29 0 43-24 42-57-32 0-66-3-65 30 0 17 8 27 23 27" id="t"/><path fill="#333" d="M85 4C-2 5 27-109 22-190h50c7 57-23 150 33 157 60-5 35-97 40-157h50l1 190h-47c-2-12 1-28-3-38-12 25-28 42-61 42" id="u"/><path fill="#333" d="M137-138c1-29-70-34-71-4 15 46 118 7 119 86 1 83-164 76-172 9l43-7c4 19 20 25 44 25 33 8 57-30 24-41C81-84 22-81 20-136c-2-80 154-74 161-7" id="v"/><path fill="#333" d="M185-48c-13 30-37 53-82 52C43 2 14-33 14-96s30-98 90-98c62 0 83 45 84 108H66c0 31 8 55 39 56 18 0 30-7 34-22zm-45-69c5-46-57-63-70-21-2 6-4 13-4 21h74" id="w"/><g id="a"><use transform="matrix(0.055555555555555546,0,0,0.055555555555555546,0,0)" xlink:href="#s"/><use transform="matrix(0.055555555555555546,0,0,0.055555555555555546,13.33333333333333,0)" xlink:href="#t"/><use transform="matrix(0.055555555555555546,0,0,0.055555555555555546,24.44444444444444,0)" xlink:href="#u"/><use transform="matrix(0.055555555555555546,0,0,0.055555555555555546,36.6111111111111,0)" xlink:href="#v"/><use transform="matrix(0.055555555555555546,0,0,0.055555555555555546,47.72222222222221,0)" xlink:href="#w"/></g><path fill="#333" d="M230 0l2-204L168 0h-37L68-204 70 0H24v-248h70l56 185 57-185h69V0h-46" id="x"/><path fill="#333" d="M135-194c87-1 58 113 63 194h-50c-7-57 23-157-34-157-59 0-34 97-39 157H25l-1-190h47c2 12-1 28 3 38 12-26 28-41 61-42" id="y"/><g id="b"><use transform="matrix(0.055555555555555546,0,0,0.055555555555555546,0,0)" xlink:href="#x"/><use transform="matrix(0.055555555555555546,0,0,0.055555555555555546,16.611111111111107,0)" xlink:href="#w"/><use transform="matrix(0.055555555555555546,0,0,0.055555555555555546,27.722222222222214,0)" xlink:href="#y"/><use transform="matrix(0.055555555555555546,0,0,0.055555555555555546,39.88888888888888,0)" xlink:href="#u"/></g><path fill="#333" d="M30-248c87 1 191-15 191 75 0 78-77 80-158 76V0H30v-248zm33 125c57 0 124 11 124-50 0-59-68-47-124-48v98" id="z"/><path fill="#333" d="M24 0v-261h32V0H24" id="A"/><path fill="#333" d="M141-36C126-15 110 5 73 4 37 3 15-17 15-53c-1-64 63-63 125-63 3-35-9-54-41-54-24 1-41 7-42 31l-33-3c5-37 33-52 76-52 45 0 72 20 72 64v82c-1 20 7 32 28 27v20c-31 9-61-2-59-35zM48-53c0 20 12 33 32 33 41-3 63-29 60-74-43 2-92-5-92 41" id="B"/><path fill="#333" d="M179-190L93 31C79 59 56 82 12 73V49c39 6 53-20 64-50L1-190h34L92-34l54-156h33" id="C"/><path fill="#333" d="M100-194c63 0 86 42 84 106H49c0 40 14 67 53 68 26 1 43-12 49-29l28 8c-11 28-37 45-77 45C44 4 14-33 15-96c1-61 26-98 85-98zm52 81c6-60-76-77-97-28-3 7-6 17-6 28h103" id="D"/><path fill="#333" d="M114-163C36-179 61-72 57 0H25l-1-190h30c1 12-1 29 2 39 6-27 23-49 58-41v29" id="E"/><g id="c"><use transform="matrix(0.04938271604938272,0,0,0.04938271604938272,0,0)" xlink:href="#z"/><use transform="matrix(0.04938271604938272,0,0,0.04938271604938272,11.851851851851853,0)" xlink:href="#A"/><use transform="matrix(0.04938271604938272,0,0,0.04938271604938272,15.753086419753087,0)" xlink:href="#B"/><use transform="matrix(0.04938271604938272,0,0,0.04938271604938272,25.629629629629633,0)" xlink:href="#C"/><use transform="matrix(0.04938271604938272,0,0,0.04938271604938272,34.51851851851852,0)" xlink:href="#D"/><use transform="matrix(0.04938271604938272,0,0,0.04938271604938272,44.39506172839506,0)" xlink:href="#E"/></g><path fill="#fff" d="M190 0L58-211 59 0H30v-248h39L202-35l-2-213h31V0h-41" id="F"/><path fill="#fff" d="M141-36C126-15 110 5 73 4 37 3 15-17 15-53c-1-64 63-63 125-63 3-35-9-54-41-54-24 1-41 7-42 31l-33-3c5-37 33-52 76-52 45 0 72 20 72 64v82c-1 20 7 32 28 27v20c-31 9-61-2-59-35zM48-53c0 20 12 33 32 33 41-3 63-29 60-74-43 2-92-5-92 41" id="G"/><path fill="#fff" d="M108 0H70L1-190h34L89-25l56-165h34" id="H"/><path fill="#fff" d="M24-231v-30h32v30H24zM24 0v-190h32V0H24" id="I"/><path fill="#fff" d="M177-190C167-65 218 103 67 71c-23-6-38-20-44-43l32-5c15 47 100 32 89-28v-30C133-14 115 1 83 1 29 1 15-40 15-95c0-56 16-97 71-98 29-1 48 16 59 35 1-10 0-23 2-32h30zM94-22c36 0 50-32 50-73 0-42-14-75-50-75-39 0-46 34-46 75s6 73 46 73" id="J"/><path fill="#fff" d="M59-47c-2 24 18 29 38 22v24C64 9 27 4 27-40v-127H5v-23h24l9-43h21v43h35v23H59v120" id="K"/><path fill="#fff" d="M100-194c63 0 86 42 84 106H49c0 40 14 67 53 68 26 1 43-12 49-29l28 8c-11 28-37 45-77 45C44 4 14-33 15-96c1-61 26-98 85-98zm52 81c6-60-76-77-97-28-3 7-6 17-6 28h103" id="L"/><g id="d"><use transform="matrix(0.05308641975308641,0,0,0.05308641975308641,0,0)" xlink:href="#F"/><use transform="matrix(0.05308641975308641,0,0,0.05308641975308641,13.74938271604938,0)" xlink:href="#G"/><use transform="matrix(0.05308641975308641,0,0,0.05308641975308641,24.36666666666666,0)" xlink:href="#H"/><use transform="matrix(0.05308641975308641,0,0,0.05308641975308641,33.92222222222222,0)" xlink:href="#I"/><use transform="matrix(0.05308641975308641,0,0,0.05308641975308641,38.11604938271604,0)" xlink:href="#J"/><use transform="matrix(0.05308641975308641,0,0,0.05308641975308641,48.73333333333332,0)" xlink:href="#G"/><use transform="matrix(0.05308641975308641,0,0,0.05308641975308641,59.35061728395059,0)" xlink:href="#K"/><use transform="matrix(0.05308641975308641,0,0,0.05308641975308641,64.65925925925924,0)" xlink:href="#L"/></g><path fill="#fff" d="M30-248c87 1 191-15 191 75 0 78-77 80-158 76V0H30v-248zm33 125c57 0 124 11 124-50 0-59-68-47-124-48v98" id="M"/><path fill="#fff" d="M84 4C-5 8 30-112 23-190h32v120c0 31 7 50 39 49 72-2 45-101 50-169h31l1 190h-30c-1-10 1-25-2-33-11 22-28 36-60 37" id="N"/><path fill="#fff" d="M135-143c-3-34-86-38-87 0 15 53 115 12 119 90S17 21 10-45l28-5c4 36 97 45 98 0-10-56-113-15-118-90-4-57 82-63 122-42 12 7 21 19 24 35" id="O"/><g id="e"><use transform="matrix(0.05308641975308641,0,0,0.05308641975308641,0,0)" xlink:href="#M"/><use transform="matrix(0.05308641975308641,0,0,0.05308641975308641,12.740740740740739,0)" xlink:href="#G"/><use transform="matrix(0.05308641975308641,0,0,0.05308641975308641,23.35802469135802,0)" xlink:href="#N"/><use transform="matrix(0.05308641975308641,0,0,0.05308641975308641,33.9753086419753,0)" xlink:href="#O"/><use transform="matrix(0.05308641975308641,0,0,0.05308641975308641,43.53086419753086,0)" xlink:href="#L"/></g><path fill="#fff" d="M240 0l2-218c-23 76-54 145-80 218h-23L58-218 59 0H30v-248h44l77 211c21-75 51-140 76-211h43V0h-30" id="P"/><path fill="#fff" d="M117-194c89-4 53 116 60 194h-32v-121c0-31-8-49-39-48C34-167 62-67 57 0H25l-1-190h30c1 10-1 24 2 32 11-22 29-35 61-36" id="Q"/><g id="f"><use transform="matrix(0.05308641975308641,0,0,0.05308641975308641,0,0)" xlink:href="#P"/><use transform="matrix(0.05308641975308641,0,0,0.05308641975308641,15.872839506172836,0)" xlink:href="#L"/><use transform="matrix(0.05308641975308641,0,0,0.05308641975308641,26.490123456790116,0)" xlink:href="#Q"/><use transform="matrix(0.05308641975308641,0,0,0.05308641975308641,37.10740740740739,0)" xlink:href="#N"/></g><path fill="#fff" d="M137 0h-34L2-248h35l83 218 83-218h36" id="R"/><path fill="#fff" d="M206 0h-36l-40-164L89 0H53L-1-190h32L70-26l43-164h34l41 164 42-164h31" id="S"/><g id="g"><use transform="matrix(0.05308641975308641,0,0,0.05308641975308641,0,0)" xlink:href="#R"/><use transform="matrix(0.05308641975308641,0,0,0.05308641975308641,12.369135802469135,0)" xlink:href="#I"/><use transform="matrix(0.05308641975308641,0,0,0.05308641975308641,16.56296296296296,0)" xlink:href="#L"/><use transform="matrix(0.05308641975308641,0,0,0.05308641975308641,27.18024691358024,0)" xlink:href="#S"/></g><path fill="#fff" d="M185-189c-5-48-123-54-124 2 14 75 158 14 163 119 3 78-121 87-175 55-17-10-28-26-33-46l33-7c5 56 141 63 141-1 0-78-155-14-162-118-5-82 145-84 179-34 5 7 8 16 11 25" id="T"/><g id="h"><use transform="matrix(0.05308641975308641,0,0,0.05308641975308641,0,0)" xlink:href="#T"/><use transform="matrix(0.05308641975308641,0,0,0.05308641975308641,12.740740740740739,0)" xlink:href="#L"/><use transform="matrix(0.05308641975308641,0,0,0.05308641975308641,23.35802469135802,0)" xlink:href="#K"/><use transform="matrix(0.05308641975308641,0,0,0.05308641975308641,28.666666666666654,0)" xlink:href="#K"/><use transform="matrix(0.05308641975308641,0,0,0.05308641975308641,33.975308641975296,0)" xlink:href="#I"/><use transform="matrix(0.05308641975308641,0,0,0.05308641975308641,38.16913580246912,0)" xlink:href="#Q"/><use transform="matrix(0.05308641975308641,0,0,0.05308641975308641,48.786419753086406,0)" xlink:href="#J"/><use transform="matrix(0.05308641975308641,0,0,0.05308641975308641,59.40370370370368,0)" xlink:href="#O"/></g><path fill="#fff" d="M140-251c81 0 123 46 123 126C263-46 219 4 140 4 59 4 17-45 17-125s42-126 123-126zm0 227c63 0 89-41 89-101s-29-99-89-99c-61 0-89 39-89 99S79-25 140-24" id="U"/><path fill="#fff" d="M115-194c53 0 69 39 70 98 0 66-23 100-70 100C84 3 66-7 56-30L54 0H23l1-261h32v101c10-23 28-34 59-34zm-8 174c40 0 45-34 45-75 0-40-5-75-45-74-42 0-51 32-51 76 0 43 10 73 51 73" id="V"/><path fill="#fff" d="M24-231v-30h32v30H24zM-9 49c24 4 33-6 33-30v-209h32V24c2 40-23 58-65 49V49" id="W"/><path fill="#fff" d="M96-169c-40 0-48 33-48 73s9 75 48 75c24 0 41-14 43-38l32 2c-6 37-31 61-74 61-59 0-76-41-82-99-10-93 101-131 147-64 4 7 5 14 7 22l-32 3c-4-21-16-35-41-35" id="X"/><g id="i"><use transform="matrix(0.05308641975308641,0,0,0.05308641975308641,0,0)" xlink:href="#U"/><use transform="matrix(0.05308641975308641,0,0,0.05308641975308641,14.864197530864194,0)" xlink:href="#V"/><use transform="matrix(0.05308641975308641,0,0,0.05308641975308641,25.481481481481474,0)" xlink:href="#W"/><use transform="matrix(0.05308641975308641,0,0,0.05308641975308641,29.675308641975295,0)" xlink:href="#L"/><use transform="matrix(0.05308641975308641,0,0,0.05308641975308641,40.292592592592584,0)" xlink:href="#X"/><use transform="matrix(0.05308641975308641,0,0,0.05308641975308641,49.84814814814814,0)" xlink:href="#K"/><use transform="matrix(0.05308641975308641,0,0,0.05308641975308641,55.15679012345678,0)" xlink:href="#I"/><use transform="matrix(0.05308641975308641,0,0,0.05308641975308641,59.350617283950605,0)" xlink:href="#H"/><use transform="matrix(0.05308641975308641,0,0,0.05308641975308641,68.90617283950616,0)" xlink:href="#L"/><use transform="matrix(0.05308641975308641,0,0,0.05308641975308641,79.52345679012343,0)" xlink:href="#O"/></g><path fill="#fff" d="M197 0v-115H63V0H30v-248h33v105h134v-105h34V0h-34" id="Y"/><path fill="#fff" d="M24 0v-261h32V0H24" id="Z"/><path fill="#fff" d="M115-194c55 1 70 41 70 98S169 2 115 4C84 4 66-9 55-30l1 105H24l-1-265h31l2 30c10-21 28-34 59-34zm-8 174c40 0 45-34 45-75s-6-73-45-74c-42 0-51 32-51 76 0 43 10 73 51 73" id="aa"/><g id="j"><use transform="matrix(0.05308641975308641,0,0,0.05308641975308641,0,0)" xlink:href="#Y"/><use transform="matrix(0.05308641975308641,0,0,0.05308641975308641,13.74938271604938,0)" xlink:href="#L"/><use transform="matrix(0.05308641975308641,0,0,0.05308641975308641,24.36666666666666,0)" xlink:href="#Z"/><use transform="matrix(0.05308641975308641,0,0,0.05308641975308641,28.56049382716049,0)" xlink:href="#aa"/></g><path fill="#fff" d="M205 0l-28-72H64L36 0H1l101-248h38L239 0h-34zm-38-99l-47-123c-12 45-31 82-46 123h93" id="ab"/><g id="k"><use transform="matrix(0.05308641975308641,0,0,0.05308641975308641,0,0)" xlink:href="#ab"/><use transform="matrix(0.05308641975308641,0,0,0.05308641975308641,12.740740740740739,0)" xlink:href="#V"/><use transform="matrix(0.05308641975308641,0,0,0.05308641975308641,23.35802469135802,0)" xlink:href="#I"/><use transform="matrix(0.05308641975308641,0,0,0.05308641975308641,27.551851851851847,0)" xlink:href="#Z"/><use transform="matrix(0.05308641975308641,0,0,0.05308641975308641,31.745679012345665,0)" xlink:href="#I"/><use transform="matrix(0.05308641975308641,0,0,0.05308641975308641,35.939506172839494,0)" xlink:href="#K"/><use transform="matrix(0.05308641975308641,0,0,0.05308641975308641,41.24814814814813,0)" xlink:href="#I"/><use transform="matrix(0.05308641975308641,0,0,0.05308641975308641,45.44197530864196,0)" xlink:href="#L"/><use transform="matrix(0.05308641975308641,0,0,0.05308641975308641,56.059259259259235,0)" xlink:href="#O"/></g><path fill="#fff" d="M233-177c-1 41-23 64-60 70L243 0h-38l-65-103H63V0H30v-248c88 3 205-21 203 71zM63-129c60-2 137 13 137-47 0-61-80-42-137-45v92" id="ac"/><path fill="#fff" d="M210-169c-67 3-38 105-44 169h-31v-121c0-29-5-50-35-48C34-165 62-65 56 0H25l-1-190h30c1 10-1 24 2 32 10-44 99-50 107 0 11-21 27-35 58-36 85-2 47 119 55 194h-31v-121c0-29-5-49-35-48" id="ad"/><g id="l"><use transform="matrix(0.05308641975308641,0,0,0.05308641975308641,0,0)" xlink:href="#ac"/><use transform="matrix(0.05308641975308641,0,0,0.05308641975308641,13.74938271604938,0)" xlink:href="#L"/><use transform="matrix(0.05308641975308641,0,0,0.05308641975308641,24.36666666666666,0)" xlink:href="#O"/><use transform="matrix(0.05308641975308641,0,0,0.05308641975308641,33.92222222222222,0)" xlink:href="#N"/><use transform="matrix(0.05308641975308641,0,0,0.05308641975308641,44.539506172839495,0)" xlink:href="#ad"/><use transform="matrix(0.05308641975308641,0,0,0.05308641975308641,60.41234567901233,0)" xlink:href="#L"/></g><path fill="#fff" d="M143 4C61 4 22-44 18-125c-5-107 100-154 193-111 17 8 29 25 37 43l-32 9c-13-25-37-40-76-40-61 0-88 39-88 99 0 61 29 100 91 101 35 0 62-11 79-27v-45h-74v-28h105v86C228-13 192 4 143 4" id="ae"/><g id="m"><use transform="matrix(0.05308641975308641,0,0,0.05308641975308641,0,0)" xlink:href="#ae"/><use transform="matrix(0.05308641975308641,0,0,0.05308641975308641,14.864197530864194,0)" xlink:href="#G"/><use transform="matrix(0.05308641975308641,0,0,0.05308641975308641,25.481481481481474,0)" xlink:href="#ad"/><use transform="matrix(0.05308641975308641,0,0,0.05308641975308641,41.35432098765431,0)" xlink:href="#L"/></g><path fill="#333" d="M18-100v-36l175-74v27L42-118l151 64v27" id="af"/><path fill="#333" d="M141 0L90-78 38 0H4l68-98-65-92h35l48 74 47-74h35l-64 92 68 98h-35" id="ag"/><path fill="#333" d="M59-47c-2 24 18 29 38 22v24C64 9 27 4 27-40v-127H5v-23h24l9-43h21v43h35v23H59v120" id="ah"/><path fill="#333" d="M117-194c89-4 53 116 60 194h-32v-121c0-31-8-49-39-48C34-167 62-67 57 0H25l-1-190h30c1 10-1 24 2 32 11-22 29-35 61-36" id="ai"/><path fill="#333" d="M85-194c31 0 48 13 60 33l-1-100h32l1 261h-30c-2-10 0-23-3-31C134-8 116 4 85 4 32 4 16-35 15-94c0-66 23-100 70-100zm9 24c-40 0-46 34-46 75 0 40 6 74 45 74 42 0 51-32 51-76 0-42-9-74-50-73" id="aj"/><path fill="#333" d="M18-27v-27l151-64-151-65v-27l175 74v36" id="ak"/><g id="n"><use transform="matrix(0.04938271604938272,0,0,0.04938271604938272,0,0)" xlink:href="#af"/><use transform="matrix(0.04938271604938272,0,0,0.04938271604938272,10.370370370370372,0)" xlink:href="#af"/><use transform="matrix(0.04938271604938272,0,0,0.04938271604938272,20.740740740740744,0)" xlink:href="#D"/><use transform="matrix(0.04938271604938272,0,0,0.04938271604938272,30.617283950617285,0)" xlink:href="#ag"/><use transform="matrix(0.04938271604938272,0,0,0.04938271604938272,39.50617283950618,0)" xlink:href="#ah"/><use transform="matrix(0.04938271604938272,0,0,0.04938271604938272,44.44444444444445,0)" xlink:href="#D"/><use transform="matrix(0.04938271604938272,0,0,0.04938271604938272,54.320987654320994,0)" xlink:href="#ai"/><use transform="matrix(0.04938271604938272,0,0,0.04938271604938272,64.19753086419755,0)" xlink:href="#aj"/><use transform="matrix(0.04938271604938272,0,0,0.04938271604938272,74.07407407407409,0)" xlink:href="#ak"/><use transform="matrix(0.04938271604938272,0,0,0.04938271604938272,84.44444444444446,0)" xlink:href="#ak"/></g><path fill="#fff" d="M140-251c81 0 123 46 123 126C263-53 228-8 163 1c7 30 30 48 69 40v23c-55 16-95-15-103-61C56-3 17-48 17-125c0-80 42-126 123-126zm0 227c63 0 89-41 89-101s-29-99-89-99c-61 0-89 39-89 99S79-25 140-24" id="al"/><g id="o"><use transform="matrix(0.05308641975308641,0,0,0.05308641975308641,0,0)" xlink:href="#al"/><use transform="matrix(0.05308641975308641,0,0,0.05308641975308641,14.864197530864194,0)" xlink:href="#N"/><use transform="matrix(0.05308641975308641,0,0,0.05308641975308641,25.481481481481474,0)" xlink:href="#I"/><use transform="matrix(0.05308641975308641,0,0,0.05308641975308641,29.675308641975295,0)" xlink:href="#K"/></g><g id="p"><use transform="matrix(0.05308641975308641,0,0,0.05308641975308641,0,0)" xlink:href="#R"/><use transform="matrix(0.05308641975308641,0,0,0.05308641975308641,12.369135802469135,0)" xlink:href="#I"/><use transform="matrix(0.05308641975308641,0,0,0.05308641975308641,16.56296296296296,0)" xlink:href="#L"/><use transform="matrix(0.05308641975308641,0,0,0.05308641975308641,27.18024691358024,0)" xlink:href="#S"/></g><g id="q"><use transform="matrix(0.05308641975308641,0,0,0.05308641975308641,0,0)" xlink:href="#Y"/><use transform="matrix(0.05308641975308641,0,0,0.05308641975308641,13.74938271604938,0)" xlink:href="#L"/><use transform="matrix(0.05308641975308641,0,0,0.05308641975308641,24.36666666666666,0)" xlink:href="#Z"/><use transform="matrix(0.05308641975308641,0,0,0.05308641975308641,28.56049382716049,0)" xlink:href="#aa"/></g><path fill="#fff" d="M212-179c-10-28-35-45-73-45-59 0-87 40-87 99 0 60 29 101 89 101 43 0 62-24 78-52l27 14C228-24 195 4 139 4 59 4 22-46 18-125c-6-104 99-153 187-111 19 9 31 26 39 46" id="am"/><path fill="#fff" d="M100-194c62-1 85 37 85 99 1 63-27 99-86 99S16-35 15-95c0-66 28-99 85-99zM99-20c44 1 53-31 53-75 0-43-8-75-51-75s-53 32-53 75 10 74 51 75" id="an"/><path fill="#fff" d="M114-163C36-179 61-72 57 0H25l-1-190h30c1 12-1 29 2 39 6-27 23-49 58-41v29" id="ao"/><g id="r"><use transform="matrix(0.05308641975308641,0,0,0.05308641975308641,0,0)" xlink:href="#am"/><use transform="matrix(0.05308641975308641,0,0,0.05308641975308641,13.74938271604938,0)" xlink:href="#an"/><use transform="matrix(0.05308641975308641,0,0,0.05308641975308641,24.36666666666666,0)" xlink:href="#Q"/><use transform="matrix(0.05308641975308641,0,0,0.05308641975308641,34.98395061728394,0)" xlink:href="#K"/><use transform="matrix(0.05308641975308641,0,0,0.05308641975308641,40.29259259259258,0)" xlink:href="#ao"/><use transform="matrix(0.05308641975308641,0,0,0.05308641975308641,46.60987654320986,0)" xlink:href="#an"/><use transform="matrix(0.05308641975308641,0,0,0.05308641975308641,57.22716049382715,0)" xlink:href="#Z"/><use transform="matrix(0.05308641975308641,0,0,0.05308641975308641,61.42098765432096,0)" xlink:href="#O"/></g></defs></g></svg>