<svg xmlns="http://www.w3.org/2000/svg" xmlns:xlink="http://www.w3.org/1999/xlink" xmlns:lucid="lucid" width="1252" height="1156"><g transform="translate(-40 -77)" lucid:page-tab-id="yk34~vgH.blF"><path d="M0 0h1360v1760H0z" fill="#fff"/><path d="M220 105a5 5 0 0 1 5-5h1030a5 5 0 0 1 5 5v1090a5 5 0 0 1-5 5H225a5 5 0 0 1-5-5z" stroke="#333" fill-opacity="0"/><use xlink:href="#a" transform="matrix(1,0,0,1,228,108) translate(442.22222222222223 16)"/><use xlink:href="#b" transform="matrix(1,0,0,1,228,108) translate(506.44444444444446 16)"/><path d="M139.75 637.92c0 10.9-8.84 19.75-19.75 19.75-10.9 0-19.75-8.84-19.75-19.75 0-10.9 8.84-19.75 19.75-19.75 10.9 0 19.75 8.84 19.75 19.75z" stroke="#333" fill="#fff"/><path d="M120 657.67v47.3a27.6 27.6 0 0 0 4.28 14.76L160 776.17m-40-63.2l-40 63.2m0-98.75h80" stroke="#333" fill="none"/><path d="M80 626.17a8 8 0 0 1 8-8h64a8 8 0 0 1 8 8v164a8 8 0 0 1-8 8H88a8 8 0 0 1-8-8z" fill="none"/><use xlink:href="#c" transform="matrix(1,0,0,1,0,776.171359271421) translate(94.8641975308642 14.555555555555555)"/><path d="M400 676.92c0 27.62-26.86 50-60 50s-60-22.38-60-50c0-27.6 26.86-50 60-50s60 22.4 60 50z" stroke="#000" stroke-opacity="0" fill="#3278cc"/><use xlink:href="#d" transform="matrix(1,0,0,1,280,626.921359271421) translate(22.366728395061735 43.413888888888884)"/><use xlink:href="#e" transform="matrix(1,0,0,1,280,626.921359271421) translate(27.11796296296297 66.34722222222221)"/><path d="M160.5 676.92h119" stroke="#333" fill="none"/><path d="M160.5 677.4h-.5v-.48h-3v-.47h3.5zM280 676.92l.02.48h-.53v-.95h.52z" stroke="#333" stroke-width=".05" fill="#333"/><path d="M903.16 1080.54c0 27.62-26.86 50-60 50-33.13 0-60-22.38-60-50 0-27.6 26.87-50 60-50 33.14 0 60 22.4 60 50z" stroke="#000" stroke-opacity="0" fill="#3278cc"/><use xlink:href="#f" transform="matrix(1,0,0,1,783.162618289152,1030.5442330851556) translate(26.587098765432113 31.070138888888884)"/><use xlink:href="#g" transform="matrix(1,0,0,1,783.162618289152,1030.5442330851556) translate(11.802530864197545 54.003472222222214)"/><use xlink:href="#h" transform="matrix(1,0,0,1,783.162618289152,1030.5442330851556) translate(53.156851851851854 54.003472222222214)"/><use xlink:href="#i" transform="matrix(1,0,0,1,783.162618289152,1030.5442330851556) translate(39.85870370370371 76.93680555555555)"/><path d="M903.16 820.54c0 27.62-26.86 50-60 50-33.13 0-60-22.38-60-50 0-27.6 26.87-50 60-50 33.14 0 60 22.4 60 50z" stroke="#000" stroke-opacity="0" fill="#3278cc"/><use xlink:href="#f" transform="matrix(1,0,0,1,783.1626182891521,770.5442330851558) translate(26.58709876543211 34.226388888888884)"/><use xlink:href="#j" transform="matrix(1,0,0,1,783.1626182891521,770.5442330851558) translate(26.10932098765433 57.159722222222214)"/><use xlink:href="#k" transform="matrix(1,0,0,1,783.1626182891521,770.5442330851558) translate(39.32783950617285 80.09305555555555)"/><path d="M1183.16 820.54c0 26.6-26.86 48.18-60 48.18-33.13 0-60-21.57-60-48.18 0-26.6 26.87-48.17 60-48.17 33.14 0 60 21.57 60 48.17z" stroke="#000" stroke-opacity="0" fill="#3278cc"/><use xlink:href="#f" transform="matrix(1,0,0,1,1063.162618289152,772.3728738137349) translate(26.587098765432113 24.382638888888884)"/><use xlink:href="#l" transform="matrix(1,0,0,1,1063.162618289152,772.3728738137349) translate(29.7722839506173 47.315972222222214)"/><use xlink:href="#m" transform="matrix(1,0,0,1,1063.162618289152,772.3728738137349) translate(14.987716049382728 70.24930555555555)"/><path d="M660 676.92c0 27.62-26.86 50-60 50s-60-22.38-60-50c0-27.6 26.86-50 60-50s60 22.4 60 50z" stroke="#000" stroke-opacity="0" fill="#3278cc"/><use xlink:href="#n" transform="matrix(1,0,0,1,540,626.9213592714209) translate(14.377222222222231 43.695138888888884)"/><use xlink:href="#o" transform="matrix(1,0,0,1,540,626.9213592714209) translate(72.7191975308642 43.695138888888884)"/><use xlink:href="#p" transform="matrix(1,0,0,1,540,626.9213592714209) translate(24.516728395061733 66.62847222222221)"/><path d="M666.95 920.65l8.42-4.78m8.4-4.78l16.84-9.58m8.43-4.77l16.83-9.57m8.42-4.78l16.83-9.56m8.42-4.78l16.83-9.56m8.42-4.78l8.4-4.78" stroke="#333" fill="none"/><path d="M654.1 927.94l10.13-11.08 4.58 8.07z" stroke="#333" fill="#333"/><path d="M793.93 849.06l-.52.3-.46-.83.37-.2z" stroke="#333" stroke-width=".05" fill="#333"/><use xlink:href="#q" transform="matrix(1,0,0,1,648.0250864530391,859.0763235819124) translate(0.005000000000002558 14.222222222222223)"/><path d="M919.55 820.54h9.54m9.53 0h19.08m9.55 0h19.08m9.54 0h19.1m9.53 0h19.08m9.54 0h9.54" stroke="#333" fill="none"/><path d="M904.78 820.54l14.27-4.63v9.28z" stroke="#333" fill="#333"/><path d="M1063.16 820.54l.02.48h-.53v-.95h.53z" stroke="#333" stroke-width=".05" fill="#333"/><use xlink:href="#q" transform="matrix(1,0,0,1,944.2519637523592,795.2108997518226) translate(0.005000000000002558 14.222222222222223)"/><path d="M664 996.93l7.9 5.56m7.93 5.54l15.83 11.1m7.92 5.57l15.84 11.12m7.9 5.55l15.85 11.1m7.92 5.57l15.82 11.1m7.92 5.56l7.9 5.56" stroke="#333" fill="none"/><path d="M651.9 988.45l14.35 4.4-5.33 7.6z" stroke="#333" fill="#333"/><path d="M783.2 1079.98l-.04.56.02.6-.7-.5.54-.78z" stroke="#333" stroke-width=".05" fill="#333"/><use xlink:href="#q" transform="matrix(1,0,0,1,641.0916418050061,1045.0087561769606) translate(0.005000000000002558 14.222222222222223)"/><path d="M416.38 676.92h10.26m10.26 0h20.52m10.26 0h20.52m10.26 0h20.52m10.26 0h10.26" stroke="#333" fill="none"/><path d="M401.62 676.92l14.26-4.63v9.26z" stroke="#333" fill="#333"/><path d="M540 676.92l.02.48h-.53v-.95h.52z" stroke="#333" stroke-width=".05" fill="#333"/><use xlink:href="#q" transform="matrix(1,0,0,1,422.59259259259284,680.921359271421) translate(0.005000000000002558 14.222222222222223)"/><path d="M660 404.24c0 27.6-26.86 50-60 50s-60-22.4-60-50c0-27.62 26.86-50 60-50s60 22.38 60 50z" stroke="#000" stroke-opacity="0" fill="#3278cc"/><use xlink:href="#n" transform="matrix(1,0,0,1,540,354.2359221857365) translate(6.440802469135813 52.788888888888884)"/><use xlink:href="#r" transform="matrix(1,0,0,1,540,354.2359221857365) translate(64.78277777777777 52.788888888888884)"/><path d="M663.16 956.9c0 27.6-26.86 50-60 50-33.13 0-60-22.4-60-50 0-27.63 26.87-50 60-50 33.14 0 60 22.37 60 50z" stroke="#000" stroke-opacity="0" fill="#3278cc"/><use xlink:href="#s" transform="matrix(1,0,0,1,543.1626182891521,906.8869516279977) translate(33.48833333333334 43.695138888888884)"/><use xlink:href="#t" transform="matrix(1,0,0,1,543.1626182891521,906.8869516279977) translate(29.45376543209877 66.62847222222221)"/><path d="M350.95 614.73l7-7.78m6.98-7.78l13.98-15.57m7-7.78l13.98-15.57m6.98-7.78l13.98-15.56m7-7.77l13.97-15.57m7-7.78l13.98-15.57m7-7.77l13.97-15.56m7-7.8l13.97-15.55m7-7.78l13.97-15.57m6.98-7.78l7-7.8" stroke="#333" fill="none"/><path d="M341.08 625.72l6.1-13.7 6.88 6.18z" stroke="#333" fill="#333"/><path d="M540 404.24l.02.68-.72-.62.73-.8z" stroke="#333" stroke-width=".05" fill="#333"/><use xlink:href="#q" transform="matrix(1,0,0,1,338.68760742893073,501.5196737303882) translate(0.005000000000002558 14.222222222222223)"/><path d="M386.16 729.85l5.8 8.4m5.8 8.4l11.6 16.78m5.82 8.4l11.6 16.78m5.8 8.4l11.62 16.8m5.8 8.38l11.62 16.8m5.8 8.38l11.6 16.8m5.8 8.38l11.62 16.8m5.8 8.38l11.62 16.8m5.8 8.38l11.6 16.8m5.8 8.38l5.82 8.4" stroke="#333" fill="none"/><path d="M377.76 717.7l11.92 9.1-7.62 5.28z" stroke="#333" fill="#333"/><path d="M543.16 956.9l.03.87-.72-1.03.7-.5z" stroke="#333" stroke-width=".05" fill="#333"/><use xlink:href="#q" transform="matrix(1,0,0,1,475.41060256847356,835.3498966979743) translate(0.005000000000002558 14.222222222222223)"/><path d="M120 713.9" stroke="#333" fill="none"/><path d="M900 531.83c0 27.6-26.86 50-60 50s-60-22.4-60-50c0-27.62 26.86-50 60-50s60 22.38 60 50z" stroke="#000" stroke-opacity="0" fill="#3278cc"/><g><use xlink:href="#u" transform="matrix(1,0,0,1,780,481.82864072857836) translate(14.00561728395063 43.695138888888884)"/><use xlink:href="#v" transform="matrix(1,0,0,1,780,481.82864072857836) translate(47.98092592592592 43.695138888888884)"/><use xlink:href="#w" transform="matrix(1,0,0,1,780,481.82864072857836) translate(35.6117901234568 66.62847222222221)"/></g><path d="M900 271.83c0 27.6-26.86 50-60 50s-60-22.4-60-50c0-27.62 26.86-50 60-50s60 22.38 60 50z" stroke="#000" stroke-opacity="0" fill="#3278cc"/><g><use xlink:href="#x" transform="matrix(1,0,0,1,780,221.82864072857876) translate(45.67166666666667 31.070138888888884)"/><use xlink:href="#y" transform="matrix(1,0,0,1,780,221.82864072857876) translate(9.0685802469136 54.003472222222214)"/><use xlink:href="#w" transform="matrix(1,0,0,1,780,221.82864072857876) translate(35.6117901234568 76.93680555555555)"/></g><path d="M659.14 363.45l8.7-4.25m8.7-4.26l17.38-8.5m8.7-4.26l17.38-8.5m8.7-4.26l17.38-8.5m8.7-4.27l17.38-8.5m8.7-4.26l8.68-4.26" stroke="#333" fill="none"/><path d="M645.88 369.94l10.78-10.43 4.07 8.33z" stroke="#333" fill="#333"/><path d="M790.3 299.8l-.56.27-.42-.85.36-.18z" stroke="#333" stroke-width=".05" fill="#333"/><g><use xlink:href="#q" transform="matrix(1,0,0,1,644.3032171979866,306.0199782506136) translate(0.005000000000002558 14.222222222222223)"/></g><path d="M660.83 448.22l7.92 5.55m7.92 5.56l15.83 11.1m7.92 5.56l15.83 11.1m7.92 5.56l15.84 11.1m7.92 5.56l15.84 11.1m7.9 5.57l7.93 5.54" stroke="#333" fill="none"/><path d="M648.75 439.74l14.34 4.4-5.34 7.6z" stroke="#333" fill="#333"/><path d="M780.02 531.26l-.02.57.02.6-.7-.5.53-.78z" stroke="#333" stroke-width=".05" fill="#333"/><g><use xlink:href="#q" transform="matrix(1,0,0,1,637.9290235158542,496.2931638203833) translate(0.005000000000002558 14.222222222222223)"/></g><defs><path fill="#333" d="M230 0l2-204L168 0h-37L68-204 70 0H24v-248h70l56 185 57-185h69V0h-46" id="z"/><path fill="#333" d="M185-48c-13 30-37 53-82 52C43 2 14-33 14-96s30-98 90-98c62 0 83 45 84 108H66c0 31 8 55 39 56 18 0 30-7 34-22zm-45-69c5-46-57-63-70-21-2 6-4 13-4 21h74" id="A"/><path fill="#333" d="M135-194c87-1 58 113 63 194h-50c-7-57 23-157-34-157-59 0-34 97-39 157H25l-1-190h47c2 12-1 28 3 38 12-26 28-41 61-42" id="B"/><path fill="#333" d="M85 4C-2 5 27-109 22-190h50c7 57-23 150 33 157 60-5 35-97 40-157h50l1 190h-47c-2-12 1-28-3-38-12 25-28 42-61 42" id="C"/><path fill="#333" d="M35-132v-50h50v50H35zM35 0v-49h50V0H35" id="D"/><g id="a"><use transform="matrix(0.055555555555555546,0,0,0.055555555555555546,0,0)" xlink:href="#z"/><use transform="matrix(0.055555555555555546,0,0,0.055555555555555546,16.611111111111107,0)" xlink:href="#A"/><use transform="matrix(0.055555555555555546,0,0,0.055555555555555546,27.722222222222214,0)" xlink:href="#B"/><use transform="matrix(0.055555555555555546,0,0,0.055555555555555546,39.88888888888888,0)" xlink:href="#C"/><use transform="matrix(0.055555555555555546,0,0,0.055555555555555546,52.05555555555554,0)" xlink:href="#D"/></g><path fill="#333" d="M140-251c80 0 125 45 125 126S219 4 139 4C58 4 15-44 15-125s44-126 125-126zm-1 214c52 0 73-35 73-88 0-50-21-86-72-86-52 0-73 35-73 86s22 88 72 88" id="E"/><path fill="#333" d="M135-194c53 0 70 44 70 98 0 56-19 98-73 100-31 1-45-17-59-34 3 33 2 69 2 105H25l-1-265h48c2 10 0 23 3 31 11-24 29-35 60-35zM114-30c33 0 39-31 40-66 0-38-9-64-40-64-56 0-55 130 0 130" id="F"/><path fill="#333" d="M115-3C79 11 28 4 28-45v-112H4v-33h27l15-45h31v45h36v33H77v99c-1 23 16 31 38 25v30" id="G"/><path fill="#333" d="M25-224v-37h50v37H25zM25 0v-190h50V0H25" id="H"/><path fill="#333" d="M110-194c64 0 96 36 96 99 0 64-35 99-97 99-61 0-95-36-95-99 0-62 34-99 96-99zm-1 164c35 0 45-28 45-65 0-40-10-65-43-65-34 0-45 26-45 65 0 36 10 65 43 65" id="I"/><path fill="#333" d="M137-138c1-29-70-34-71-4 15 46 118 7 119 86 1 83-164 76-172 9l43-7c4 19 20 25 44 25 33 8 57-30 24-41C81-84 22-81 20-136c-2-80 154-74 161-7" id="J"/><g id="b"><use transform="matrix(0.055555555555555546,0,0,0.055555555555555546,0,0)" xlink:href="#E"/><use transform="matrix(0.055555555555555546,0,0,0.055555555555555546,15.555555555555554,0)" xlink:href="#F"/><use transform="matrix(0.055555555555555546,0,0,0.055555555555555546,27.722222222222218,0)" xlink:href="#G"/><use transform="matrix(0.055555555555555546,0,0,0.055555555555555546,34.33333333333333,0)" xlink:href="#H"/><use transform="matrix(0.055555555555555546,0,0,0.055555555555555546,39.888888888888886,0)" xlink:href="#I"/><use transform="matrix(0.055555555555555546,0,0,0.055555555555555546,52.05555555555555,0)" xlink:href="#B"/><use transform="matrix(0.055555555555555546,0,0,0.055555555555555546,64.22222222222221,0)" xlink:href="#J"/></g><path fill="#333" d="M30-248c87 1 191-15 191 75 0 78-77 80-158 76V0H30v-248zm33 125c57 0 124 11 124-50 0-59-68-47-124-48v98" id="K"/><path fill="#333" d="M24 0v-261h32V0H24" id="L"/><path fill="#333" d="M141-36C126-15 110 5 73 4 37 3 15-17 15-53c-1-64 63-63 125-63 3-35-9-54-41-54-24 1-41 7-42 31l-33-3c5-37 33-52 76-52 45 0 72 20 72 64v82c-1 20 7 32 28 27v20c-31 9-61-2-59-35zM48-53c0 20 12 33 32 33 41-3 63-29 60-74-43 2-92-5-92 41" id="M"/><path fill="#333" d="M179-190L93 31C79 59 56 82 12 73V49c39 6 53-20 64-50L1-190h34L92-34l54-156h33" id="N"/><path fill="#333" d="M100-194c63 0 86 42 84 106H49c0 40 14 67 53 68 26 1 43-12 49-29l28 8c-11 28-37 45-77 45C44 4 14-33 15-96c1-61 26-98 85-98zm52 81c6-60-76-77-97-28-3 7-6 17-6 28h103" id="O"/><path fill="#333" d="M114-163C36-179 61-72 57 0H25l-1-190h30c1 12-1 29 2 39 6-27 23-49 58-41v29" id="P"/><g id="c"><use transform="matrix(0.04938271604938272,0,0,0.04938271604938272,0,0)" xlink:href="#K"/><use transform="matrix(0.04938271604938272,0,0,0.04938271604938272,11.851851851851853,0)" xlink:href="#L"/><use transform="matrix(0.04938271604938272,0,0,0.04938271604938272,15.753086419753087,0)" xlink:href="#M"/><use transform="matrix(0.04938271604938272,0,0,0.04938271604938272,25.629629629629633,0)" xlink:href="#N"/><use transform="matrix(0.04938271604938272,0,0,0.04938271604938272,34.51851851851852,0)" xlink:href="#O"/><use transform="matrix(0.04938271604938272,0,0,0.04938271604938272,44.39506172839506,0)" xlink:href="#P"/></g><path fill="#fff" d="M190 0L58-211 59 0H30v-248h39L202-35l-2-213h31V0h-41" id="Q"/><path fill="#fff" d="M141-36C126-15 110 5 73 4 37 3 15-17 15-53c-1-64 63-63 125-63 3-35-9-54-41-54-24 1-41 7-42 31l-33-3c5-37 33-52 76-52 45 0 72 20 72 64v82c-1 20 7 32 28 27v20c-31 9-61-2-59-35zM48-53c0 20 12 33 32 33 41-3 63-29 60-74-43 2-92-5-92 41" id="R"/><path fill="#fff" d="M108 0H70L1-190h34L89-25l56-165h34" id="S"/><path fill="#fff" d="M24-231v-30h32v30H24zM24 0v-190h32V0H24" id="T"/><path fill="#fff" d="M177-190C167-65 218 103 67 71c-23-6-38-20-44-43l32-5c15 47 100 32 89-28v-30C133-14 115 1 83 1 29 1 15-40 15-95c0-56 16-97 71-98 29-1 48 16 59 35 1-10 0-23 2-32h30zM94-22c36 0 50-32 50-73 0-42-14-75-50-75-39 0-46 34-46 75s6 73 46 73" id="U"/><path fill="#fff" d="M59-47c-2 24 18 29 38 22v24C64 9 27 4 27-40v-127H5v-23h24l9-43h21v43h35v23H59v120" id="V"/><path fill="#fff" d="M100-194c63 0 86 42 84 106H49c0 40 14 67 53 68 26 1 43-12 49-29l28 8c-11 28-37 45-77 45C44 4 14-33 15-96c1-61 26-98 85-98zm52 81c6-60-76-77-97-28-3 7-6 17-6 28h103" id="W"/><g id="d"><use transform="matrix(0.05308641975308641,0,0,0.05308641975308641,0,0)" xlink:href="#Q"/><use transform="matrix(0.05308641975308641,0,0,0.05308641975308641,13.74938271604938,0)" xlink:href="#R"/><use transform="matrix(0.05308641975308641,0,0,0.05308641975308641,24.36666666666666,0)" xlink:href="#S"/><use transform="matrix(0.05308641975308641,0,0,0.05308641975308641,33.92222222222222,0)" xlink:href="#T"/><use transform="matrix(0.05308641975308641,0,0,0.05308641975308641,38.11604938271604,0)" xlink:href="#U"/><use transform="matrix(0.05308641975308641,0,0,0.05308641975308641,48.73333333333332,0)" xlink:href="#R"/><use transform="matrix(0.05308641975308641,0,0,0.05308641975308641,59.35061728395059,0)" xlink:href="#V"/><use transform="matrix(0.05308641975308641,0,0,0.05308641975308641,64.65925925925924,0)" xlink:href="#W"/></g><path fill="#fff" d="M140-251c81 0 123 46 123 126C263-46 219 4 140 4 59 4 17-45 17-125s42-126 123-126zm0 227c63 0 89-41 89-101s-29-99-89-99c-61 0-89 39-89 99S79-25 140-24" id="X"/><path fill="#fff" d="M115-194c55 1 70 41 70 98S169 2 115 4C84 4 66-9 55-30l1 105H24l-1-265h31l2 30c10-21 28-34 59-34zm-8 174c40 0 45-34 45-75s-6-73-45-74c-42 0-51 32-51 76 0 43 10 73 51 73" id="Y"/><path fill="#fff" d="M100-194c62-1 85 37 85 99 1 63-27 99-86 99S16-35 15-95c0-66 28-99 85-99zM99-20c44 1 53-31 53-75 0-43-8-75-51-75s-53 32-53 75 10 74 51 75" id="Z"/><path fill="#fff" d="M117-194c89-4 53 116 60 194h-32v-121c0-31-8-49-39-48C34-167 62-67 57 0H25l-1-190h30c1 10-1 24 2 32 11-22 29-35 61-36" id="aa"/><path fill="#fff" d="M135-143c-3-34-86-38-87 0 15 53 115 12 119 90S17 21 10-45l28-5c4 36 97 45 98 0-10-56-113-15-118-90-4-57 82-63 122-42 12 7 21 19 24 35" id="ab"/><g id="e"><use transform="matrix(0.05308641975308641,0,0,0.05308641975308641,0,0)" xlink:href="#X"/><use transform="matrix(0.05308641975308641,0,0,0.05308641975308641,14.864197530864194,0)" xlink:href="#Y"/><use transform="matrix(0.05308641975308641,0,0,0.05308641975308641,25.481481481481474,0)" xlink:href="#V"/><use transform="matrix(0.05308641975308641,0,0,0.05308641975308641,30.79012345679011,0)" xlink:href="#T"/><use transform="matrix(0.05308641975308641,0,0,0.05308641975308641,34.98395061728394,0)" xlink:href="#Z"/><use transform="matrix(0.05308641975308641,0,0,0.05308641975308641,45.601234567901216,0)" xlink:href="#aa"/><use transform="matrix(0.05308641975308641,0,0,0.05308641975308641,56.21851851851849,0)" xlink:href="#ab"/></g><path fill="#fff" d="M212-179c-10-28-35-45-73-45-59 0-87 40-87 99 0 60 29 101 89 101 43 0 62-24 78-52l27 14C228-24 195 4 139 4 59 4 22-46 18-125c-6-104 99-153 187-111 19 9 31 26 39 46" id="ac"/><path fill="#fff" d="M106-169C34-169 62-67 57 0H25v-261h32l-1 103c12-21 28-36 61-36 89 0 53 116 60 194h-32v-121c2-32-8-49-39-48" id="ad"/><g id="f"><use transform="matrix(0.05308641975308641,0,0,0.05308641975308641,0,0)" xlink:href="#ac"/><use transform="matrix(0.05308641975308641,0,0,0.05308641975308641,13.74938271604938,0)" xlink:href="#ad"/><use transform="matrix(0.05308641975308641,0,0,0.05308641975308641,24.36666666666666,0)" xlink:href="#R"/><use transform="matrix(0.05308641975308641,0,0,0.05308641975308641,34.98395061728394,0)" xlink:href="#aa"/><use transform="matrix(0.05308641975308641,0,0,0.05308641975308641,45.601234567901216,0)" xlink:href="#U"/><use transform="matrix(0.05308641975308641,0,0,0.05308641975308641,56.21851851851849,0)" xlink:href="#W"/></g><path fill="#fff" d="M240 0l2-218c-23 76-54 145-80 218h-23L58-218 59 0H30v-248h44l77 211c21-75 51-140 76-211h43V0h-30" id="ae"/><path fill="#fff" d="M141 0L90-78 38 0H4l68-98-65-92h35l48 74 47-74h35l-64 92 68 98h-35" id="af"/><g id="g"><use transform="matrix(0.05308641975308641,0,0,0.05308641975308641,0,0)" xlink:href="#ae"/><use transform="matrix(0.05308641975308641,0,0,0.05308641975308641,15.872839506172836,0)" xlink:href="#R"/><use transform="matrix(0.05308641975308641,0,0,0.05308641975308641,26.490123456790116,0)" xlink:href="#af"/></g><path fill="#fff" d="M63-220v92h138v28H63V0H30v-248h175v28H63" id="ag"/><path fill="#fff" d="M114-163C36-179 61-72 57 0H25l-1-190h30c1 12-1 29 2 39 6-27 23-49 58-41v29" id="ah"/><path fill="#fff" d="M210-169c-67 3-38 105-44 169h-31v-121c0-29-5-50-35-48C34-165 62-65 56 0H25l-1-190h30c1 10-1 24 2 32 10-44 99-50 107 0 11-21 27-35 58-36 85-2 47 119 55 194h-31v-121c0-29-5-49-35-48" id="ai"/><g id="h"><use transform="matrix(0.05308641975308641,0,0,0.05308641975308641,0,0)" xlink:href="#ag"/><use transform="matrix(0.05308641975308641,0,0,0.05308641975308641,11.625925925925923,0)" xlink:href="#ah"/><use transform="matrix(0.05308641975308641,0,0,0.05308641975308641,17.943209876543207,0)" xlink:href="#R"/><use transform="matrix(0.05308641975308641,0,0,0.05308641975308641,28.56049382716049,0)" xlink:href="#ai"/><use transform="matrix(0.05308641975308641,0,0,0.05308641975308641,44.43333333333332,0)" xlink:href="#W"/></g><path fill="#fff" d="M233-177c-1 41-23 64-60 70L243 0h-38l-65-103H63V0H30v-248c88 3 205-21 203 71zM63-129c60-2 137 13 137-47 0-61-80-42-137-45v92" id="aj"/><g id="i"><use transform="matrix(0.05308641975308641,0,0,0.05308641975308641,0,0)" xlink:href="#aj"/><use transform="matrix(0.05308641975308641,0,0,0.05308641975308641,13.74938271604938,0)" xlink:href="#R"/><use transform="matrix(0.05308641975308641,0,0,0.05308641975308641,24.36666666666666,0)" xlink:href="#V"/><use transform="matrix(0.05308641975308641,0,0,0.05308641975308641,29.675308641975295,0)" xlink:href="#W"/></g><path fill="#fff" d="M266 0h-40l-56-210L115 0H75L2-248h35L96-30l15-64 43-154h32l59 218 59-218h35" id="ak"/><path fill="#fff" d="M85-194c31 0 48 13 60 33l-1-100h32l1 261h-30c-2-10 0-23-3-31C134-8 116 4 85 4 32 4 16-35 15-94c0-66 23-100 70-100zm9 24c-40 0-46 34-46 75 0 40 6 74 45 74 42 0 51-32 51-76 0-42-9-74-50-73" id="al"/><path fill="#fff" d="M206 0h-36l-40-164L89 0H53L-1-190h32L70-26l43-164h34l41 164 42-164h31" id="am"/><g id="j"><use transform="matrix(0.05308641975308641,0,0,0.05308641975308641,0,0)" xlink:href="#ak"/><use transform="matrix(0.05308641975308641,0,0,0.05308641975308641,17.996296296296293,0)" xlink:href="#T"/><use transform="matrix(0.05308641975308641,0,0,0.05308641975308641,22.19012345679012,0)" xlink:href="#aa"/><use transform="matrix(0.05308641975308641,0,0,0.05308641975308641,32.807407407407396,0)" xlink:href="#al"/><use transform="matrix(0.05308641975308641,0,0,0.05308641975308641,43.424691358024674,0)" xlink:href="#Z"/><use transform="matrix(0.05308641975308641,0,0,0.05308641975308641,54.04197530864195,0)" xlink:href="#am"/></g><path fill="#fff" d="M127-220V0H93v-220H8v-28h204v28h-85" id="an"/><path fill="#fff" d="M179-190L93 31C79 59 56 82 12 73V49c39 6 53-20 64-50L1-190h34L92-34l54-156h33" id="ao"/><g id="k"><use transform="matrix(0.05308641975308641,0,0,0.05308641975308641,0,0)" xlink:href="#an"/><use transform="matrix(0.05308641975308641,0,0,0.05308641975308641,10.564197530864195,0)" xlink:href="#ao"/><use transform="matrix(0.05308641975308641,0,0,0.05308641975308641,20.11975308641975,0)" xlink:href="#Y"/><use transform="matrix(0.05308641975308641,0,0,0.05308641975308641,30.73703703703703,0)" xlink:href="#W"/></g><path fill="#fff" d="M185-189c-5-48-123-54-124 2 14 75 158 14 163 119 3 78-121 87-175 55-17-10-28-26-33-46l33-7c5 56 141 63 141-1 0-78-155-14-162-118-5-82 145-84 179-34 5 7 8 16 11 25" id="ap"/><path fill="#fff" d="M96-169c-40 0-48 33-48 73s9 75 48 75c24 0 41-14 43-38l32 2c-6 37-31 61-74 61-59 0-76-41-82-99-10-93 101-131 147-64 4 7 5 14 7 22l-32 3c-4-21-16-35-41-35" id="aq"/><g id="l"><use transform="matrix(0.05308641975308641,0,0,0.05308641975308641,0,0)" xlink:href="#ap"/><use transform="matrix(0.05308641975308641,0,0,0.05308641975308641,12.740740740740739,0)" xlink:href="#aq"/><use transform="matrix(0.05308641975308641,0,0,0.05308641975308641,22.29629629629629,0)" xlink:href="#ah"/><use transform="matrix(0.05308641975308641,0,0,0.05308641975308641,28.613580246913575,0)" xlink:href="#W"/><use transform="matrix(0.05308641975308641,0,0,0.05308641975308641,39.23086419753085,0)" xlink:href="#W"/><use transform="matrix(0.05308641975308641,0,0,0.05308641975308641,49.84814814814813,0)" xlink:href="#aa"/></g><path fill="#fff" d="M30-248c118-7 216 8 213 122C240-48 200 0 122 0H30v-248zM63-27c89 8 146-16 146-99s-60-101-146-95v194" id="ar"/><g id="m"><use transform="matrix(0.05308641975308641,0,0,0.05308641975308641,0,0)" xlink:href="#ar"/><use transform="matrix(0.05308641975308641,0,0,0.05308641975308641,13.74938271604938,0)" xlink:href="#T"/><use transform="matrix(0.05308641975308641,0,0,0.05308641975308641,17.943209876543207,0)" xlink:href="#ai"/><use transform="matrix(0.05308641975308641,0,0,0.05308641975308641,33.816049382716045,0)" xlink:href="#W"/><use transform="matrix(0.05308641975308641,0,0,0.05308641975308641,44.43333333333332,0)" xlink:href="#aa"/><use transform="matrix(0.05308641975308641,0,0,0.05308641975308641,55.05061728395061,0)" xlink:href="#ab"/><use transform="matrix(0.05308641975308641,0,0,0.05308641975308641,64.60617283950616,0)" xlink:href="#T"/><use transform="matrix(0.05308641975308641,0,0,0.05308641975308641,68.79999999999998,0)" xlink:href="#Z"/><use transform="matrix(0.05308641975308641,0,0,0.05308641975308641,79.41728395061726,0)" xlink:href="#aa"/></g><path fill="#fff" d="M205 0l-28-72H64L36 0H1l101-248h38L239 0h-34zm-38-99l-47-123c-12 45-31 82-46 123h93" id="as"/><path fill="#fff" d="M24-231v-30h32v30H24zM-9 49c24 4 33-6 33-30v-209h32V24c2 40-23 58-65 49V49" id="at"/><path fill="#fff" d="M84 4C-5 8 30-112 23-190h32v120c0 31 7 50 39 49 72-2 45-101 50-169h31l1 190h-30c-1-10 1-25-2-33-11 22-28 36-60 37" id="au"/><g id="n"><use transform="matrix(0.05308641975308641,0,0,0.05308641975308641,0,0)" xlink:href="#as"/><use transform="matrix(0.05308641975308641,0,0,0.05308641975308641,12.740740740740739,0)" xlink:href="#al"/><use transform="matrix(0.05308641975308641,0,0,0.05308641975308641,23.35802469135802,0)" xlink:href="#at"/><use transform="matrix(0.05308641975308641,0,0,0.05308641975308641,27.551851851851847,0)" xlink:href="#au"/><use transform="matrix(0.05308641975308641,0,0,0.05308641975308641,38.16913580246913,0)" xlink:href="#ab"/><use transform="matrix(0.05308641975308641,0,0,0.05308641975308641,47.724691358024685,0)" xlink:href="#V"/></g><path fill="#fff" d="M194 0L95-120 63-95V0H30v-248h33v124l119-124h40L117-140 236 0h-42" id="av"/><g id="o"><use transform="matrix(0.05308641975308641,0,0,0.05308641975308641,0,0)" xlink:href="#av"/><use transform="matrix(0.05308641975308641,0,0,0.05308641975308641,12.740740740740739,0)" xlink:href="#W"/><use transform="matrix(0.05308641975308641,0,0,0.05308641975308641,23.35802469135802,0)" xlink:href="#ao"/></g><path fill="#fff" d="M24 0v-261h32V0H24" id="aw"/><g id="p"><use transform="matrix(0.05308641975308641,0,0,0.05308641975308641,0,0)" xlink:href="#ac"/><use transform="matrix(0.05308641975308641,0,0,0.05308641975308641,13.74938271604938,0)" xlink:href="#Z"/><use transform="matrix(0.05308641975308641,0,0,0.05308641975308641,24.36666666666666,0)" xlink:href="#aa"/><use transform="matrix(0.05308641975308641,0,0,0.05308641975308641,34.98395061728394,0)" xlink:href="#V"/><use transform="matrix(0.05308641975308641,0,0,0.05308641975308641,40.29259259259258,0)" xlink:href="#ah"/><use transform="matrix(0.05308641975308641,0,0,0.05308641975308641,46.60987654320986,0)" xlink:href="#Z"/><use transform="matrix(0.05308641975308641,0,0,0.05308641975308641,57.22716049382715,0)" xlink:href="#aw"/><use transform="matrix(0.05308641975308641,0,0,0.05308641975308641,61.42098765432096,0)" xlink:href="#ab"/></g><path fill="#333" d="M18-100v-36l175-74v27L42-118l151 64v27" id="ax"/><path fill="#333" d="M141 0L90-78 38 0H4l68-98-65-92h35l48 74 47-74h35l-64 92 68 98h-35" id="ay"/><path fill="#333" d="M59-47c-2 24 18 29 38 22v24C64 9 27 4 27-40v-127H5v-23h24l9-43h21v43h35v23H59v120" id="az"/><path fill="#333" d="M117-194c89-4 53 116 60 194h-32v-121c0-31-8-49-39-48C34-167 62-67 57 0H25l-1-190h30c1 10-1 24 2 32 11-22 29-35 61-36" id="aA"/><path fill="#333" d="M85-194c31 0 48 13 60 33l-1-100h32l1 261h-30c-2-10 0-23-3-31C134-8 116 4 85 4 32 4 16-35 15-94c0-66 23-100 70-100zm9 24c-40 0-46 34-46 75 0 40 6 74 45 74 42 0 51-32 51-76 0-42-9-74-50-73" id="aB"/><path fill="#333" d="M18-27v-27l151-64-151-65v-27l175 74v36" id="aC"/><g id="q"><use transform="matrix(0.04938271604938272,0,0,0.04938271604938272,0,0)" xlink:href="#ax"/><use transform="matrix(0.04938271604938272,0,0,0.04938271604938272,10.370370370370372,0)" xlink:href="#ax"/><use transform="matrix(0.04938271604938272,0,0,0.04938271604938272,20.740740740740744,0)" xlink:href="#O"/><use transform="matrix(0.04938271604938272,0,0,0.04938271604938272,30.617283950617285,0)" xlink:href="#ay"/><use transform="matrix(0.04938271604938272,0,0,0.04938271604938272,39.50617283950618,0)" xlink:href="#az"/><use transform="matrix(0.04938271604938272,0,0,0.04938271604938272,44.44444444444445,0)" xlink:href="#O"/><use transform="matrix(0.04938271604938272,0,0,0.04938271604938272,54.320987654320994,0)" xlink:href="#aA"/><use transform="matrix(0.04938271604938272,0,0,0.04938271604938272,64.19753086419755,0)" xlink:href="#aB"/><use transform="matrix(0.04938271604938272,0,0,0.04938271604938272,74.07407407407409,0)" xlink:href="#aC"/><use transform="matrix(0.04938271604938272,0,0,0.04938271604938272,84.44444444444446,0)" xlink:href="#aC"/></g><g id="r"><use transform="matrix(0.05308641975308641,0,0,0.05308641975308641,0,0)" xlink:href="#as"/><use transform="matrix(0.05308641975308641,0,0,0.05308641975308641,12.740740740740739,0)" xlink:href="#au"/><use transform="matrix(0.05308641975308641,0,0,0.05308641975308641,23.35802469135802,0)" xlink:href="#al"/><use transform="matrix(0.05308641975308641,0,0,0.05308641975308641,33.9753086419753,0)" xlink:href="#T"/><use transform="matrix(0.05308641975308641,0,0,0.05308641975308641,38.16913580246913,0)" xlink:href="#Z"/></g><g id="s"><use transform="matrix(0.05308641975308641,0,0,0.05308641975308641,0,0)" xlink:href="#as"/><use transform="matrix(0.05308641975308641,0,0,0.05308641975308641,12.740740740740739,0)" xlink:href="#al"/><use transform="matrix(0.05308641975308641,0,0,0.05308641975308641,23.35802469135802,0)" xlink:href="#at"/><use transform="matrix(0.05308641975308641,0,0,0.05308641975308641,27.551851851851847,0)" xlink:href="#au"/><use transform="matrix(0.05308641975308641,0,0,0.05308641975308641,38.16913580246913,0)" xlink:href="#ab"/><use transform="matrix(0.05308641975308641,0,0,0.05308641975308641,47.724691358024685,0)" xlink:href="#V"/></g><path fill="#fff" d="M137 0h-34L2-248h35l83 218 83-218h36" id="aD"/><g id="t"><use transform="matrix(0.05308641975308641,0,0,0.05308641975308641,0,0)" xlink:href="#aD"/><use transform="matrix(0.05308641975308641,0,0,0.05308641975308641,12.369135802469135,0)" xlink:href="#T"/><use transform="matrix(0.05308641975308641,0,0,0.05308641975308641,16.56296296296296,0)" xlink:href="#ab"/><use transform="matrix(0.05308641975308641,0,0,0.05308641975308641,26.118518518518513,0)" xlink:href="#au"/><use transform="matrix(0.05308641975308641,0,0,0.05308641975308641,36.73580246913579,0)" xlink:href="#R"/><use transform="matrix(0.05308641975308641,0,0,0.05308641975308641,47.35308641975307,0)" xlink:href="#aw"/><use transform="matrix(0.05308641975308641,0,0,0.05308641975308641,51.546913580246894,0)" xlink:href="#ab"/></g><g id="u"><use transform="matrix(0.05308641975308641,0,0,0.05308641975308641,0,0)" xlink:href="#ap"/><use transform="matrix(0.05308641975308641,0,0,0.05308641975308641,12.740740740740739,0)" xlink:href="#W"/><use transform="matrix(0.05308641975308641,0,0,0.05308641975308641,23.35802469135802,0)" xlink:href="#V"/></g><path fill="#fff" d="M30 0v-248h187v28H63v79h144v27H63v87h162V0H30" id="aE"/><path fill="#fff" d="M101-234c-31-9-42 10-38 44h38v23H63V0H32v-167H5v-23h27c-7-52 17-82 69-68v24" id="aF"/><g id="v"><use transform="matrix(0.05308641975308641,0,0,0.05308641975308641,0,0)" xlink:href="#aE"/><use transform="matrix(0.05308641975308641,0,0,0.05308641975308641,12.740740740740739,0)" xlink:href="#aF"/><use transform="matrix(0.05308641975308641,0,0,0.05308641975308641,17.677777777777777,0)" xlink:href="#aF"/><use transform="matrix(0.05308641975308641,0,0,0.05308641975308641,22.986419753086416,0)" xlink:href="#W"/><use transform="matrix(0.05308641975308641,0,0,0.05308641975308641,33.6037037037037,0)" xlink:href="#aq"/><use transform="matrix(0.05308641975308641,0,0,0.05308641975308641,43.15925925925926,0)" xlink:href="#V"/><use transform="matrix(0.05308641975308641,0,0,0.05308641975308641,48.4679012345679,0)" xlink:href="#ab"/></g><g id="w"><use transform="matrix(0.05308641975308641,0,0,0.05308641975308641,0,0)" xlink:href="#as"/><use transform="matrix(0.05308641975308641,0,0,0.05308641975308641,12.740740740740739,0)" xlink:href="#au"/><use transform="matrix(0.05308641975308641,0,0,0.05308641975308641,23.35802469135802,0)" xlink:href="#al"/><use transform="matrix(0.05308641975308641,0,0,0.05308641975308641,33.9753086419753,0)" xlink:href="#T"/><use transform="matrix(0.05308641975308641,0,0,0.05308641975308641,38.16913580246913,0)" xlink:href="#Z"/></g><g id="x"><use transform="matrix(0.05308641975308641,0,0,0.05308641975308641,0,0)" xlink:href="#ap"/><use transform="matrix(0.05308641975308641,0,0,0.05308641975308641,12.740740740740739,0)" xlink:href="#W"/><use transform="matrix(0.05308641975308641,0,0,0.05308641975308641,23.35802469135802,0)" xlink:href="#V"/></g><path fill="#fff" d="M160-131c35 5 61 23 61 61C221 17 115-2 30 0v-248c76 3 177-17 177 60 0 33-19 50-47 57zm-97-11c50-1 110 9 110-42 0-47-63-36-110-37v79zm0 115c55-2 124 14 124-45 0-56-70-42-124-44v89" id="aG"/><path fill="#fff" d="M143 0L79-87 56-68V0H24v-261h32v163l83-92h37l-77 82L181 0h-38" id="aH"/><g id="y"><use transform="matrix(0.05308641975308641,0,0,0.05308641975308641,0,0)" xlink:href="#aG"/><use transform="matrix(0.05308641975308641,0,0,0.05308641975308641,12.740740740740739,0)" xlink:href="#R"/><use transform="matrix(0.05308641975308641,0,0,0.05308641975308641,23.35802469135802,0)" xlink:href="#aq"/><use transform="matrix(0.05308641975308641,0,0,0.05308641975308641,32.91358024691357,0)" xlink:href="#aH"/><use transform="matrix(0.05308641975308641,0,0,0.05308641975308641,42.469135802469125,0)" xlink:href="#U"/><use transform="matrix(0.05308641975308641,0,0,0.05308641975308641,53.0864197530864,0)" xlink:href="#ah"/><use transform="matrix(0.05308641975308641,0,0,0.05308641975308641,59.40370370370368,0)" xlink:href="#Z"/><use transform="matrix(0.05308641975308641,0,0,0.05308641975308641,70.02098765432096,0)" xlink:href="#au"/><use transform="matrix(0.05308641975308641,0,0,0.05308641975308641,80.63827160493824,0)" xlink:href="#aa"/><use transform="matrix(0.05308641975308641,0,0,0.05308641975308641,91.25555555555552,0)" xlink:href="#al"/></g></defs></g></svg>