<svg xmlns="http://www.w3.org/2000/svg" xmlns:xlink="http://www.w3.org/1999/xlink" xmlns:lucid="lucid" width="3370" height="2445"><g transform="translate(708 822)" lucid:page-tab-id="0_0"><path d="M-1696-1296h5152v3952h-5152z" fill="#fff"/><path d="M-440-754a6 6 0 0 1 6-6h3028a6 6 0 0 1 6 6v2308a6 6 0 0 1-6 6H-434a6 6 0 0 1-6-6z" stroke="#3a414a" stroke-width="5" fill-opacity="0"/><use xlink:href="#a" transform="matrix(1,0,0,1,-432,-752) translate(1353.2345679012346 28.444444444444446)"/><use xlink:href="#b" transform="matrix(1,0,0,1,-432,-752) translate(1552.345679012346 28.444444444444446)"/><path d="M-580.25 604.97c0 10.9-8.84 19.75-19.75 19.75-10.9 0-19.75-8.84-19.75-19.75 0-10.9 8.84-19.75 19.75-19.75 10.9 0 19.75 8.85 19.75 19.75z" stroke="#9391ff" fill="#fff"/><path d="M-600 624.72v50.3a17.25 17.25 0 0 0 2.67 9.23l37.33 58.97m-40-63.2l-40 63.2m0-98.75h80" stroke="#9391ff" fill="none"/><path d="M-640 590.22a5 5 0 0 1 5-5h70a5 5 0 0 1 5 5v170a5 5 0 0 1-5 5h-70a5 5 0 0 1-5-5z" fill="none"/><use xlink:href="#c" transform="matrix(1,0,0,1,-720,743.2222222222218) translate(74.14814814814815 14.888888888888888)"/><path d="M-200 675.22c0 33.14-35.82 60-80 60s-80-26.86-80-60c0-33.13 35.82-60 80-60s80 26.87 80 60z" stroke="#fff" fill="#3278cc"/><use xlink:href="#d" transform="matrix(1,0,0,1,-360,615.2222222222218) translate(34.8445061728395 51.72222222222222)"/><use xlink:href="#e" transform="matrix(1,0,0,1,-360,615.2222222222218) translate(77.85685185185184 51.72222222222222)"/><use xlink:href="#f" transform="matrix(1,0,0,1,-360,615.2222222222218) translate(38.103765432098754 73.05555555555556)"/><path d="M20 675.22c0 33.14-35.82 60-80 60s-80-26.86-80-60c0-33.13 35.82-60 80-60s80 26.87 80 60z" stroke="#fff" fill="#3278cc"/><use xlink:href="#d" transform="matrix(1,0,0,1,-140,615.2222222222218) translate(36.795123456790115 62.97222222222222)"/><use xlink:href="#g" transform="matrix(1,0,0,1,-140,615.2222222222218) translate(79.80746913580246 62.97222222222222)"/><path d="M663.34 660c0 33.14-35.82 60-80 60s-80-26.86-80-60 35.82-60 80-60 80 26.86 80 60z" stroke="#fff" fill="#3278cc"/><use xlink:href="#h" transform="matrix(1,0,0,1,503.3425947375765,600) translate(12.646975308641979 51.72222222222222)"/><use xlink:href="#i" transform="matrix(1,0,0,1,503.3425947375765,600) translate(55.659320987654326 51.72222222222222)"/><use xlink:href="#j" transform="matrix(1,0,0,1,503.3425947375765,600) translate(59.264259259259255 73.05555555555556)"/><path d="M-599 675.22h238M-598.98 675.22h-3.5" stroke="#333" fill="none"/><path d="M-360.5 675.2v.5h-.5v-.95h.5z" stroke="#333" stroke-width=".05" fill="#333"/><path d="M-183.12 675.22H-141" stroke="#3a414a" fill="none"/><path d="M-197.88 675.22l14.26-4.63v9.26z" stroke="#3a414a" fill="#3a414a"/><path d="M-140.5 675.2v.5h-.5v-.95h.5z" stroke="#3a414a" stroke-width=".05" fill="#3a414a"/><path d="M296.88 667.6H503" stroke="#3a414a" fill="none"/><path d="M282.12 667.6l14.26-4.62v9.27z" stroke="#3a414a" fill="#3a414a"/><path d="M503.57 668.1h-.6v-.96h.45z" stroke="#3a414a" stroke-width=".05" fill="#3a414a"/><path d="M680.23 660h197.94" stroke="#3a414a" fill="none"/><path d="M665.46 660l14.27-4.63v9.26z" stroke="#3a414a" fill="#3a414a"/><path d="M878.67 660V660.47h-.5v-.96h.52z" stroke="#3a414a" stroke-width=".05" fill="#3a414a"/><path d="M1040-220c0 33.14-35.82 60-80 60s-80-26.86-80-60 35.82-60 80-60 80 26.86 80 60z" stroke="#fff" fill="#3278cc"/><use xlink:href="#k" transform="matrix(1,0,0,1,880,-280) translate(30.779999999999994 51.9)"/><use xlink:href="#l" transform="matrix(1,0,0,1,880,-280) translate(74.33 51.9)"/><use xlink:href="#m" transform="matrix(1,0,0,1,880,-280) translate(42.529999999999994 73.5)"/><path d="M2166.66-360c0 33.14-35.82 60-80 60s-80-26.86-80-60 35.8-60 80-60c44.18 0 80 26.86 80 60z" stroke="#fff" fill="#3278cc"/><use xlink:href="#k" transform="matrix(1,0,0,1,2006.6574052624237,-420) translate(29.279999999999994 51.9)"/><use xlink:href="#n" transform="matrix(1,0,0,1,2006.6574052624237,-420) translate(72.83 51.9)"/><use xlink:href="#o" transform="matrix(1,0,0,1,2006.6574052624237,-420) translate(27.604999999999997 73.5)"/><path d="M1806.1-227.1l-.43-.84 75.06-38.74h2.07zm207.2-106.94L1924.15-288h-2.07l90.8-46.88z" stroke="#3a414a" stroke-width=".05" fill="#3a414a"/><path d="M1807.57-223.17l-14.8 2.43 10.55-10.66z" fill="#3a414a"/><path d="M1808.3-222.8l-16.9 2.76 12.04-12.16zm-14.17 1.35l12.72-2.08-3.65-7.07z" stroke="#3a414a" stroke-width=".05" fill="#3a414a"/><path d="M2013.8-334.28l-.5.25-.43-.85.43-.22z" fill="#3a414a"/><path stroke="#3a414a" stroke-width=".05" fill="#3a414a"/><use xlink:href="#p" transform="matrix(1,0,0,1,1850.5829644027597,-288.0125645477918) translate(0 14.222222222222223)"/><path d="M2166.66 60c0 33.14-35.82 60-80 60s-80-26.86-80-60 35.8-60 80-60c44.18 0 80 26.86 80 60z" stroke="#fff" fill="#3278cc"/><use xlink:href="#q" transform="matrix(1,0,0,1,2006.6574052624237,0) translate(51.529999999999994 51.9)"/><use xlink:href="#r" transform="matrix(1,0,0,1,2006.6574052624237,0) translate(37.05499999999999 73.5)"/><path d="M2010.65 39.44l-.73.6-100.58-119.3h1.24zM1892.6-100.6h-1.24l-32.65-38.73h1.25zm-45.7-54.22v1.47l-45.38-53.82.73-.6z" stroke="#3a414a" stroke-width=".05" fill="#3a414a"/><path d="M1805.1-210.84l-7.08 5.97-5.65-13.9z" fill="#3a414a"/><path d="M1805.92-210.9l-8.1 6.82-6.44-15.86zm-7.7 5.25l6.08-5.13-10.94-6.8z" stroke="#3a414a" stroke-width=".05" fill="#3a414a"/><path d="M2010.83 39.65l-.13.27-.3.7-.5-.58.74-.6z" fill="#3a414a"/><path stroke="#3a414a" stroke-width=".05" fill="#3a414a"/><use xlink:href="#p" transform="matrix(1,0,0,1,1849.1157520211789,-100.60443658242552) translate(0 14.222222222222223)"/><path d="M2166.66-220c0 33.14-35.82 60-80 60s-80-26.86-80-60 35.8-60 80-60c44.18 0 80 26.86 80 60z" stroke="#fff" fill="#3278cc"/><use xlink:href="#q" transform="matrix(1,0,0,1,2006.6574052624237,-280) translate(51.529999999999994 51.9)"/><use xlink:href="#s" transform="matrix(1,0,0,1,2006.6574052624237,-280) translate(33.07999999999999 73.5)"/><path d="M1846.9-219.53h-39.2v-.94h39.2zm158.76 0h-55.07v-.94h55.06z" stroke="#3a414a" stroke-width=".05" fill="#3a414a"/><path d="M1807.2-215.37l-14.25-4.63 14.26-4.63z" fill="#3a414a"/><path d="M1807.7-214.7l-16.3-5.3 16.3-5.3zm-13.22-5.3l12.26 3.98v-7.96z" stroke="#3a414a" stroke-width=".05" fill="#3a414a"/><path d="M2006.16-220v.4l-.52.07v-.94h.53z" fill="#3a414a"/><path stroke="#3a414a" stroke-width=".05" fill="#3a414a"/><use xlink:href="#p" transform="matrix(1,0,0,1,1846.8912020949658,-230.66666666666666) translate(0 14.222222222222223)"/><path d="M2166.66-80c0 33.14-35.82 60-80 60s-80-26.86-80-60 35.8-60 80-60c44.18 0 80 26.86 80 60z" stroke="#fff" fill="#3278cc"/><use xlink:href="#t" transform="matrix(1,0,0,1,2006.6574052624237,-140) translate(29.429999999999993 63.15)"/><use xlink:href="#u" transform="matrix(1,0,0,1,2006.6574052624237,-140) translate(91.38 63.15)"/><path d="M2006-80.67l-.52.8-91.24-59.46h1.74zm-122.76-80h-1.73l-76.7-50 .5-.78z" stroke="#3a414a" stroke-width=".05" fill="#3a414a"/><path d="M1807.17-215.2l-5.07 7.76-9.42-11.68z" fill="#3a414a"/><path d="M1807.92-215.5l-5.77 8.86-10.75-13.32zm-5.86 7.25l4.35-6.67-12.43-3.36z" stroke="#3a414a" stroke-width=".05" fill="#3a414a"/><path d="M2006.17-80.56v1.12l-.7-.45.52-.8z" fill="#3a414a"/><path stroke="#3a414a" stroke-width=".05" fill="#3a414a"/><use xlink:href="#p" transform="matrix(1,0,0,1,1846.8912020949658,-160.66666666666666) translate(0 14.222222222222223)"/><path d="M2166.66 200c0 33.14-35.82 60-80 60s-80-26.86-80-60 35.8-60 80-60c44.18 0 80 26.86 80 60z" stroke="#fff" fill="#3278cc"/><use xlink:href="#t" transform="matrix(1,0,0,1,2006.6574052624237,140) translate(20.07999999999999 51.9)"/><use xlink:href="#n" transform="matrix(1,0,0,1,2006.6574052624237,140) translate(82.03 51.9)"/><use xlink:href="#v" transform="matrix(1,0,0,1,2006.6574052624237,140) translate(56.055 73.5)"/><path d="M1790.83-220c0 33.14-35.82 60-80 60s-80-26.86-80-60 35.82-60 80-60 80 26.86 80 60z" stroke="#fff" fill="#3278cc"/><use xlink:href="#t" transform="matrix(1,0,0,1,1630.8287026312119,-280) translate(15.579999999999993 63.15)"/><use xlink:href="#w" transform="matrix(1,0,0,1,1630.8287026312119,-280) translate(77.53 63.15)"/><path d="M1056.88-220H1254" stroke="#3a414a" fill="none"/><path d="M1042.12-220l14.26-4.63v9.26z" stroke="#3a414a" fill="#3a414a"/><path d="M1254.5-220V-219.54h-.5v-.94h.52z" stroke="#3a414a" stroke-width=".05" fill="#3a414a"/><use xlink:href="#x" transform="matrix(1,0,0,1,1076.2407407407406,-245.33333333333331) translate(0 14.222222222222223)"/><path d="M2006.35 199.34l-.84.43L1903.67.67h1.07zm-112.53-220h-1.07l-29.97-58.6h1.07zm-40.9-79.94h-1.05l-53.5-104.6.84-.43z" stroke="#3a414a" stroke-width=".05" fill="#3a414a"/><path d="M1802.7-207.97l-8.27 4.22-2.36-14.8z" fill="#3a414a"/><path d="M1803.5-207.84l-9.43 4.8-2.7-16.9zm-8.7 3.37l7.1-3.63-9.13-9.1z" stroke="#3a414a" stroke-width=".05" fill="#3a414a"/><path d="M2006.16 200v.4l.03.7-.7-1.34.67-.34z" fill="#3a414a"/><path stroke="#3a414a" stroke-width=".05" fill="#3a414a"/><use xlink:href="#p" transform="matrix(1,0,0,1,1846.8912020949658,-20.666666666666668) translate(0 14.222222222222223)"/><path d="M669.4 644.6l290.43-803.63" stroke="#3a414a" fill="none"/><path d="M664.4 658.48l.48-15 8.72 3.16z" stroke="#3a414a" fill="#3a414a"/><path d="M960-159.5h.5l-.23.64-.9-.32.13-.33z" stroke="#3a414a" stroke-width=".05" fill="#3a414a"/><path d="M1415-220c0 33.14-35.82 60-80 60s-80-26.86-80-60 35.82-60 80-60 80 26.86 80 60z" stroke="#fff" fill="#3278cc"/><use xlink:href="#y" transform="matrix(1,0,0,1,1255,-280) translate(37.06672839506172 51.72222222222222)"/><use xlink:href="#z" transform="matrix(1,0,0,1,1255,-280) translate(98.25191358024692 51.72222222222222)"/><use xlink:href="#A" transform="matrix(1,0,0,1,1255,-280) translate(18.375370370370355 73.05555555555556)"/><use xlink:href="#B" transform="matrix(1,0,0,1,1255,-280) translate(80.49882716049382 73.05555555555556)"/><path d="M2166.66-500c0 33.14-35.82 60-80 60s-80-26.86-80-60 35.8-60 80-60c44.18 0 80 26.86 80 60z" stroke="#fff" fill="#3278cc"/><use xlink:href="#y" transform="matrix(1,0,0,1,2006.6574052624237,-560) translate(44.47413580246913 40.47222222222222)"/><use xlink:href="#C" transform="matrix(1,0,0,1,2006.6574052624237,-560) translate(105.65932098765433 40.47222222222222)"/><use xlink:href="#D" transform="matrix(1,0,0,1,2006.6574052624237,-560) translate(47.239567901234565 61.80555555555556)"/><use xlink:href="#E" transform="matrix(1,0,0,1,2006.6574052624237,-560) translate(29.239567901234558 83.1388888888889)"/><path d="M2006.23-499.3l-204.55 266.6-.76-.6 204.56-266.6z" stroke="#333" stroke-width=".05" fill="#333"/><path d="M1804.67-229.78l-12.36 8.5 5.02-14.14z" fill="#333"/><path d="M1805.48-229.76l-14.1 9.7 5.7-16.14zm-12.23 7.26l10.62-7.3-6.32-4.85z" stroke="#333" stroke-width=".05" fill="#333"/><path d="M2006.16-500v.66l-.7-.54.72-.93z" fill="#333"/><path stroke="#333" stroke-width=".05" fill="#333"/><path d="M2166.66-640c0 33.14-35.82 60-80 60s-80-26.86-80-60 35.8-60 80-60c44.18 0 80 26.86 80 60z" stroke="#fff" fill="#3278cc"/><use xlink:href="#d" transform="matrix(1,0,0,1,2006.6574052624237,-700) translate(22.696358024691357 51.72222222222222)"/><use xlink:href="#F" transform="matrix(1,0,0,1,2006.6574052624237,-700) translate(65.7087037037037 51.72222222222222)"/><use xlink:href="#G" transform="matrix(1,0,0,1,2006.6574052624237,-700) translate(24.350679012345665 73.05555555555556)"/><path d="M2540-640c0 33.14-35.82 60-80 60s-80-26.86-80-60 35.82-60 80-60 80 26.86 80 60z" stroke="#fff" fill="#3278cc"/><use xlink:href="#h" transform="matrix(1,0,0,1,2380,-700) translate(11.733395061728382 51.72222222222222)"/><use xlink:href="#H" transform="matrix(1,0,0,1,2380,-700) translate(54.74574074074073 51.72222222222222)"/><use xlink:href="#I" transform="matrix(1,0,0,1,2380,-700) translate(24.795123456790108 73.05555555555556)"/><path d="M2183.54-640H2379" stroke="#333" fill="none"/><path d="M2168.78-640l14.26-4.63v9.26z" stroke="#333" fill="#333"/><path d="M2379.5-640V-639.53h-.5v-.96h.5zM2006.35-639.34L1799.2-234.37l-.83-.43 207.14-404.97z" stroke="#333" stroke-width=".05" fill="#333"/><path d="M1802.7-232.03l-10.63 10.6 2.37-14.82z" fill="#333"/><path d="M1803.5-232.16l-12.13 12.1 2.7-16.9zm-10.73 9.35l9.12-9.1-7.1-3.63z" stroke="#333" stroke-width=".05" fill="#333"/><path d="M2006.16-640V-639.43l-.66-.34.7-1.35z" fill="#333"/><path stroke="#333" stroke-width=".05" fill="#333"/><path d="M1415 1260c0 33.14-35.82 60-80 60s-80-26.86-80-60 35.82-60 80-60 80 26.86 80 60z" stroke="#fff" fill="#3278cc"/><use xlink:href="#h" transform="matrix(1,0,0,1,1255,1200) translate(5.165493827160484 62.97222222222222)"/><use xlink:href="#J" transform="matrix(1,0,0,1,1255,1200) translate(48.17783950617283 62.97222222222222)"/><use xlink:href="#K" transform="matrix(1,0,0,1,1255,1200) translate(114.35067901234568 62.97222222222222)"/><path d="M1415 1120c0 33.14-35.82 60-80 60s-80-26.86-80-60 35.82-60 80-60 80 26.86 80 60z" stroke="#fff" fill="#3278cc"/><use xlink:href="#h" transform="matrix(1,0,0,1,1255,1060) translate(7.190185185185166 62.97222222222222)"/><use xlink:href="#L" transform="matrix(1,0,0,1,1255,1060) translate(50.20253086419751 62.97222222222222)"/><use xlink:href="#K" transform="matrix(1,0,0,1,1255,1060) translate(112.32598765432098 62.97222222222222)"/><path d="M1415 980c0 33.14-35.82 60-80 60s-80-26.86-80-60 35.82-60 80-60 80 26.86 80 60z" stroke="#fff" fill="#3278cc"/><use xlink:href="#h" transform="matrix(1,0,0,1,1255,920) translate(10.646975308641965 62.97222222222222)"/><use xlink:href="#M" transform="matrix(1,0,0,1,1255,920) translate(53.65932098765431 62.97222222222222)"/><use xlink:href="#K" transform="matrix(1,0,0,1,1255,920) translate(108.8691975308642 62.97222222222222)"/><path d="M1054.2 1128.97l199.88 130.76" stroke="#3a414a" fill="none"/><path d="M1041.85 1120.9l14.48 3.92-5.08 7.76z" stroke="#3a414a" fill="#3a414a"/><path d="M1254.52 1259.44l-.02.55V1260.56l-.7-.45.53-.8z" stroke="#3a414a" stroke-width=".05" fill="#3a414a"/><path d="M1056.88 1120H1254" stroke="#3a414a" fill="none"/><path d="M1042.12 1120l14.26-4.63v9.27z" stroke="#3a414a" fill="#3a414a"/><path d="M1254.5 1120V1120.46h-.5v-.94h.52z" stroke="#3a414a" stroke-width=".05" fill="#3a414a"/><path d="M1054.2 1111.03l199.88-130.76" stroke="#3a414a" fill="none"/><path d="M1041.85 1119.1l9.4-11.67 5.08 7.75z" stroke="#3a414a" fill="#3a414a"/><path d="M1254.5 980v.56l-.17.12-.52-.8.72-.46z" stroke="#3a414a" stroke-width=".05" fill="#3a414a"/><path d="M427.5 533.8c0 33.14-35.82 60-80 60s-80-26.86-80-60c0-33.13 35.82-60 80-60s80 26.87 80 60z" stroke="#fff" fill="#e81313"/><use xlink:href="#N" transform="matrix(1,0,0,1,267.5,473.80555555555543) translate(22.795123456790122 47.97222222222222)"/><use xlink:href="#O" transform="matrix(1,0,0,1,267.5,473.80555555555543) translate(71.1408024691358 47.97222222222222)"/><use xlink:href="#P" transform="matrix(1,0,0,1,267.5,473.80555555555543) translate(107.58524691358025 47.97222222222222)"/><use xlink:href="#Q" transform="matrix(1,0,0,1,267.5,473.80555555555543) translate(23.288950617283945 69.30555555555556)"/><use xlink:href="#R" transform="matrix(1,0,0,1,267.5,473.80555555555543) translate(62.745740740740736 69.30555555555556)"/><use xlink:href="#S" transform="matrix(1,0,0,1,267.5,473.80555555555543) translate(61.288950617283945 90.6388888888889)"/><path d="M280 667.6c0 33.15-35.82 60-80 60s-80-26.85-80-60c0-33.13 35.82-60 80-60s80 26.87 80 60z" stroke="#fff" fill="#3278cc"/><use xlink:href="#T" transform="matrix(1,0,0,1,120,607.6111111111109) translate(25.23956790123456 62.97222222222222)"/><use xlink:href="#g" transform="matrix(1,0,0,1,120,607.6111111111109) translate(91.36302469135804 62.97222222222222)"/><path d="M36.88 675.22h82.77" stroke="#3a414a" fill="none"/><path d="M22.12 675.22l14.26-4.63v9.26z" stroke="#3a414a" fill="#3a414a"/><path d="M120.23 675.7h-.6v-.95h.44z" stroke="#3a414a" stroke-width=".05" fill="#3a414a"/><path d="M291.64 655.6l56.5-60.94" stroke="#3a414a" fill="none"/><path d="M281.6 666.42l6.3-13.6 6.8 6.3z" stroke="#3a414a" fill="#3a414a"/><path d="M348.5 595l-.7-.65.04-.05h.57l.77-.03z" stroke="#3a414a" stroke-width=".05" fill="#3a414a"/><path d="M279 400c0 33.14-35.8 60-80 60-44.17 0-80-26.86-80-60s35.83-60 80-60c44.2 0 80 26.86 80 60z" stroke="#fff" fill="#3278cc"/><use xlink:href="#U" transform="matrix(1,0,0,1,119.01250696061192,340) translate(21.313641975308634 51.72222222222222)"/><use xlink:href="#V" transform="matrix(1,0,0,1,119.01250696061192,340) translate(63.68401234567901 51.72222222222222)"/><use xlink:href="#W" transform="matrix(1,0,0,1,119.01250696061192,340) translate(15.387716049382712 73.05555555555556)"/><use xlink:href="#X" transform="matrix(1,0,0,1,119.01250696061192,340) translate(98.25191358024692 73.05555555555556)"/><path d="M336.32 461.32l-56.48-60.55" stroke="#3a414a" fill="none"/><path d="M346.4 472.12l-13.12-7.27 6.78-6.32z" stroke="#3a414a" fill="#3a414a"/><path d="M280.2 400.46l-.7.65-.02-.02.03-1.07v-.28z" stroke="#3a414a" stroke-width=".05" fill="#3a414a"/><path d="M28.86 661.13l124.9-210.56" stroke="#3a414a" fill="none"/><path d="M21.33 673.83l3.3-14.63 7.96 4.73z" stroke="#3a414a" fill="#3a414a"/><path d="M154.45 450.35l-.27.47-.82-.48.24-.42z" stroke="#3a414a" stroke-width=".05" fill="#3a414a"/><path d="M1431.88-220h197.95" stroke="#3a414a" fill="none"/><path d="M1417.12-220l14.26-4.63v9.26z" stroke="#3a414a" fill="#3a414a"/><path d="M1630.33-220V-219.54h-.5v-.94h.5z" stroke="#3a414a" stroke-width=".05" fill="#3a414a"/><path d="M2180.9-351.07l78.18 50.8" stroke="#3a414a" fill="none"/><path d="M2168.5-359.12l14.5 3.9-5.05 7.76z" stroke="#3a414a" fill="#3a414a"/><path d="M2259.52-300.56l-.02.55V-299.44l-.7-.45.53-.8z" stroke="#3a414a" stroke-width=".05" fill="#3a414a"/><path d="M2420-300c0 33.14-35.82 60-80 60s-80-26.86-80-60 35.82-60 80-60 80 26.86 80 60z" stroke="#fff" fill="#e81313"/><use xlink:href="#Y" transform="matrix(1,0,0,1,2260,-360) translate(27.579999999999995 40.65)"/><use xlink:href="#Z" transform="matrix(1,0,0,1,2260,-360) translate(90.48 40.65)"/><use xlink:href="#aa" transform="matrix(1,0,0,1,2260,-360) translate(44.029999999999994 62.25)"/><use xlink:href="#ab" transform="matrix(1,0,0,1,2260,-360) translate(76.97999999999999 62.25)"/><use xlink:href="#o" transform="matrix(1,0,0,1,2260,-360) translate(27.605 83.85000000000001)"/><path d="M1039.17 660c0 33.14-35.82 60-80 60s-80-26.86-80-60 35.82-60 80-60 80 26.86 80 60z" stroke="#3a414a" fill="#3278cc"/><g><use xlink:href="#ac" transform="matrix(1,0,0,1,879.1712973687883,600) translate(60.730000000000004 48.15)"/><use xlink:href="#ad" transform="matrix(1,0,0,1,879.1712973687883,600) translate(44.55499999999999 69.75)"/><use xlink:href="#ae" transform="matrix(1,0,0,1,879.1712973687883,600) translate(47.504999999999995 91.35000000000001)"/></g><path d="M1790.83 580c0 33.14-35.82 60-80 60s-80-26.86-80-60 35.82-60 80-60 80 26.86 80 60z" stroke="#3a414a" fill="#3278cc"/><g><use xlink:href="#ac" transform="matrix(1,0,0,1,1630.8287026312119,520) translate(60.730000000000004 40.65)"/><use xlink:href="#ad" transform="matrix(1,0,0,1,1630.8287026312119,520) translate(44.55499999999999 62.25)"/><use xlink:href="#af" transform="matrix(1,0,0,1,1630.8287026312119,520) translate(35.08 83.85000000000001)"/></g><path d="M1415 660c0 33.14-35.82 60-80 60s-80-26.86-80-60 35.82-60 80-60 80 26.86 80 60z" stroke="#3a414a" fill="#3278cc"/><g><use xlink:href="#ac" transform="matrix(1,0,0,1,1255,600) translate(60.73 29.4)"/><use xlink:href="#ag" transform="matrix(1,0,0,1,1255,600) translate(24.604999999999997 51)"/><use xlink:href="#ah" transform="matrix(1,0,0,1,1255,600) translate(64.505 51)"/><use xlink:href="#ai" transform="matrix(1,0,0,1,1255,600) translate(41.55499999999999 72.60000000000001)"/><use xlink:href="#aj" transform="matrix(1,0,0,1,1255,600) translate(38.029999999999994 94.20000000000002)"/></g><path d="M1056.06 660H1254" stroke="#3a414a" fill="none"/><path d="M1041.3 660l14.26-4.63v9.26z" stroke="#3a414a" fill="#3a414a"/><path d="M1254.5 660V660.47h-.5v-.96h.52z" stroke="#3a414a" stroke-width=".05" fill="#3a414a"/><path d="M1415 820c0 33.14-35.82 60-80 60s-80-26.86-80-60 35.82-60 80-60 80 26.86 80 60z" stroke="#3a414a" fill="#3278cc"/><g><use xlink:href="#ak" transform="matrix(1,0,0,1,1255,760) translate(48.529999999999994 29.4)"/><use xlink:href="#ah" transform="matrix(1,0,0,1,1255,760) translate(44.55499999999999 51)"/><use xlink:href="#al" transform="matrix(1,0,0,1,1255,760) translate(47.504999999999995 72.60000000000001)"/><use xlink:href="#am" transform="matrix(1,0,0,1,1255,760) translate(40.555 94.20000000000002)"/></g><path d="M1052.8 669.8l201.3 149.9" stroke="#3a414a" fill="none"/><path d="M1040.97 660.97l14.2 4.8-5.53 7.44z" stroke="#3a414a" fill="#3a414a"/><path d="M1254.52 819.42l-.02.57V820.6l-.7-.52.57-.77z" stroke="#3a414a" stroke-width=".05" fill="#3a414a"/><path d="M1790 420c0 33.14-35.82 60-80 60s-80-26.86-80-60 35.82-60 80-60 80 26.86 80 60z" stroke="#3a414a" fill="#3278cc"/><g><use xlink:href="#an" transform="matrix(1,0,0,1,1630,360) translate(51.03 40.65)"/><use xlink:href="#ad" transform="matrix(1,0,0,1,1630,360) translate(44.55499999999999 62.25)"/><use xlink:href="#af" transform="matrix(1,0,0,1,1630,360) translate(35.08 83.85000000000001)"/></g><path d="M1415 500c0 33.14-35.82 60-80 60s-80-26.86-80-60 35.82-60 80-60 80 26.86 80 60z" stroke="#3a414a" fill="#3278cc"/><g><use xlink:href="#ao" transform="matrix(1,0,0,1,1255,440) translate(47.53 40.65)"/><use xlink:href="#ah" transform="matrix(1,0,0,1,1255,440) translate(44.55499999999999 62.25)"/><use xlink:href="#af" transform="matrix(1,0,0,1,1255,440) translate(35.08 83.85000000000001)"/></g><path d="M1052.8 650.2l201.3-149.9" stroke="#3a414a" fill="none"/><path d="M1040.97 659.03l8.67-12.24 5.54 7.43z" stroke="#3a414a" fill="#3a414a"/><path d="M1254.5 500V500.6l-.13.1-.56-.77.72-.54z" stroke="#3a414a" stroke-width=".05" fill="#3a414a"/><path d="M1431.23 504.58l201.66 58.8" stroke="#3a414a" fill="none"/><path d="M1417.05 500.45l15-.45-2.6 8.9z" stroke="#3a414a" fill="#3a414a"/><path d="M1633.53 563.06l-.32.9-.45-.13.26-.92z" stroke="#3a414a" stroke-width=".05" fill="#3a414a"/><path d="M1430.87 494.32l198.2-73.17" stroke="#3a414a" fill="none"/><path d="M1417.02 499.44l11.78-9.3 3.2 8.7z" stroke="#3a414a" fill="#3a414a"/><path d="M1629.54 421.47l-.33.13-.32-.9.63-.22z" stroke="#3a414a" stroke-width=".05" fill="#3a414a"/><path d="M1810 750c0 38.66-40.3 70-90 70s-90-31.34-90-70 40.3-70 90-70 90 31.34 90 70z" stroke="#fff" fill="#e81313"/><g><use xlink:href="#ap" transform="matrix(1,0,0,1,1630,680) translate(24.5729012345679 53.59722222222222)"/><use xlink:href="#aq" transform="matrix(1,0,0,1,1630,680) translate(77.41240740740741 53.59722222222222)"/><use xlink:href="#ar" transform="matrix(1,0,0,1,1630,680) translate(97.1654938271605 53.59722222222222)"/><use xlink:href="#as" transform="matrix(1,0,0,1,1630,680) translate(3.1654938271604838 74.93055555555556)"/><use xlink:href="#at" transform="matrix(1,0,0,1,1630,680) translate(84.05438271604937 74.93055555555556)"/><use xlink:href="#au" transform="matrix(1,0,0,1,1630,680) translate(103.80746913580246 74.93055555555556)"/><use xlink:href="#av" transform="matrix(1,0,0,1,1630,680) translate(133.4370987654321 74.93055555555556)"/><use xlink:href="#aw" transform="matrix(1,0,0,1,1630,680) translate(52.029691358024685 96.2638888888889)"/></g><path d="M1810 910c0 38.66-40.3 70-90 70s-90-31.34-90-70 40.3-70 90-70 90 31.34 90 70z" stroke="#fff" fill="#e81313"/><g><use xlink:href="#ap" transform="matrix(1,0,0,1,1630,840) translate(24.572901234567905 40.47222222222222)"/><use xlink:href="#aq" transform="matrix(1,0,0,1,1630,840) translate(77.41240740740741 40.47222222222222)"/><use xlink:href="#ar" transform="matrix(1,0,0,1,1630,840) translate(97.1654938271605 40.47222222222222)"/><use xlink:href="#as" transform="matrix(1,0,0,1,1630,840) translate(17.98030864197529 61.80555555555556)"/><use xlink:href="#ax" transform="matrix(1,0,0,1,1630,840) translate(98.86919753086418 61.80555555555556)"/><use xlink:href="#ay" transform="matrix(1,0,0,1,1630,840) translate(132.40006172839506 61.80555555555556)"/><use xlink:href="#az" transform="matrix(1,0,0,1,1630,840) translate(18.498827160493825 83.1388888888889)"/><use xlink:href="#aA" transform="matrix(1,0,0,1,1630,840) translate(53.06672839506173 83.1388888888889)"/><use xlink:href="#aB" transform="matrix(1,0,0,1,1630,840) translate(96.52351851851853 83.1388888888889)"/><use xlink:href="#aC" transform="matrix(1,0,0,1,1630,840) translate(126.15314814814816 83.1388888888889)"/><use xlink:href="#aD" transform="matrix(1,0,0,1,1630,840) translate(38.25191358024691 104.47222222222223)"/></g><path d="M1431.07 814.9l197.96-64.75" stroke="#3a414a" fill="none"/><path d="M1417.04 819.5l12.12-8.84 2.88 8.8z" stroke="#3a414a" fill="#3a414a"/><path d="M1629.5 750v.5l-.34.1-.3-.9.65-.2z" stroke="#3a414a" stroke-width=".05" fill="#3a414a"/><path d="M1430.6 826.35l198.44 83.46" stroke="#3a414a" fill="none"/><path d="M1417 820.63l14.94 1.25-3.6 8.55z" stroke="#3a414a" fill="#3a414a"/><path d="M1629.5 909.5v1.02l-.66-.28.37-.88z" stroke="#3a414a" stroke-width=".05" fill="#3a414a"/><path d="M1040 1120c0 33.14-35.82 60-80 60s-80-26.86-80-60 35.82-60 80-60 80 26.86 80 60z" stroke="#fff" fill="#3278cc"/><g><use xlink:href="#h" transform="matrix(1,0,0,1,880,1060) translate(22.992654320987658 62.97222222222222)"/><use xlink:href="#aE" transform="matrix(1,0,0,1,880,1060) translate(66.005 62.97222222222222)"/></g><path d="M879.3 1119.55l-208.5-444.7" stroke="#3a414a" fill="none"/><path d="M879.5 1120v.4l.03.8-.68-1.46.67-.32z" stroke="#3a414a" stroke-width=".05" fill="#3a414a"/><path d="M664.53 661.47l10.25 10.94-8.4 3.95z" stroke="#3a414a" fill="#3a414a"/><defs><path fill="#3a414a" d="M233-177c-1 41-23 64-60 70L243 0h-38l-65-103H63V0H30v-248c88 3 205-21 203 71zM63-129c60-2 137 13 137-47 0-61-80-42-137-45v92" id="aF"/><path fill="#3a414a" d="M100-194c63 0 86 42 84 106H49c0 40 14 67 53 68 26 1 43-12 49-29l28 8c-11 28-37 45-77 45C44 4 14-33 15-96c1-61 26-98 85-98zm52 81c6-60-76-77-97-28-3 7-6 17-6 28h103" id="aG"/><path fill="#3a414a" d="M177-190C167-65 218 103 67 71c-23-6-38-20-44-43l32-5c15 47 100 32 89-28v-30C133-14 115 1 83 1 29 1 15-40 15-95c0-56 16-97 71-98 29-1 48 16 59 35 1-10 0-23 2-32h30zM94-22c36 0 50-32 50-73 0-42-14-75-50-75-39 0-46 34-46 75s6 73 46 73" id="aH"/><path fill="#3a414a" d="M24-231v-30h32v30H24zM24 0v-190h32V0H24" id="aI"/><path fill="#3a414a" d="M135-143c-3-34-86-38-87 0 15 53 115 12 119 90S17 21 10-45l28-5c4 36 97 45 98 0-10-56-113-15-118-90-4-57 82-63 122-42 12 7 21 19 24 35" id="aJ"/><path fill="#3a414a" d="M59-47c-2 24 18 29 38 22v24C64 9 27 4 27-40v-127H5v-23h24l9-43h21v43h35v23H59v120" id="aK"/><path fill="#3a414a" d="M114-163C36-179 61-72 57 0H25l-1-190h30c1 12-1 29 2 39 6-27 23-49 58-41v29" id="aL"/><path fill="#3a414a" d="M141-36C126-15 110 5 73 4 37 3 15-17 15-53c-1-64 63-63 125-63 3-35-9-54-41-54-24 1-41 7-42 31l-33-3c5-37 33-52 76-52 45 0 72 20 72 64v82c-1 20 7 32 28 27v20c-31 9-61-2-59-35zM48-53c0 20 12 33 32 33 41-3 63-29 60-74-43 2-92-5-92 41" id="aM"/><path fill="#3a414a" d="M100-194c62-1 85 37 85 99 1 63-27 99-86 99S16-35 15-95c0-66 28-99 85-99zM99-20c44 1 53-31 53-75 0-43-8-75-51-75s-53 32-53 75 10 74 51 75" id="aN"/><path fill="#3a414a" d="M117-194c89-4 53 116 60 194h-32v-121c0-31-8-49-39-48C34-167 62-67 57 0H25l-1-190h30c1 10-1 24 2 32 11-22 29-35 61-36" id="aO"/><g id="a"><use transform="matrix(0.09876543209876544,0,0,0.09876543209876544,0,0)" xlink:href="#aF"/><use transform="matrix(0.09876543209876544,0,0,0.09876543209876544,25.58024691358025,0)" xlink:href="#aG"/><use transform="matrix(0.09876543209876544,0,0,0.09876543209876544,45.33333333333334,0)" xlink:href="#aH"/><use transform="matrix(0.09876543209876544,0,0,0.09876543209876544,65.08641975308643,0)" xlink:href="#aI"/><use transform="matrix(0.09876543209876544,0,0,0.09876543209876544,72.8888888888889,0)" xlink:href="#aJ"/><use transform="matrix(0.09876543209876544,0,0,0.09876543209876544,90.66666666666669,0)" xlink:href="#aK"/><use transform="matrix(0.09876543209876544,0,0,0.09876543209876544,100.54320987654323,0)" xlink:href="#aL"/><use transform="matrix(0.09876543209876544,0,0,0.09876543209876544,112.29629629629633,0)" xlink:href="#aM"/><use transform="matrix(0.09876543209876544,0,0,0.09876543209876544,132.04938271604942,0)" xlink:href="#aK"/><use transform="matrix(0.09876543209876544,0,0,0.09876543209876544,141.92592592592598,0)" xlink:href="#aI"/><use transform="matrix(0.09876543209876544,0,0,0.09876543209876544,149.72839506172846,0)" xlink:href="#aN"/><use transform="matrix(0.09876543209876544,0,0,0.09876543209876544,169.48148148148155,0)" xlink:href="#aO"/></g><path fill="#3a414a" d="M185-189c-5-48-123-54-124 2 14 75 158 14 163 119 3 78-121 87-175 55-17-10-28-26-33-46l33-7c5 56 141 63 141-1 0-78-155-14-162-118-5-82 145-84 179-34 5 7 8 16 11 25" id="aP"/><path fill="#3a414a" d="M179-190L93 31C79 59 56 82 12 73V49c39 6 53-20 64-50L1-190h34L92-34l54-156h33" id="aQ"/><path fill="#3a414a" d="M210-169c-67 3-38 105-44 169h-31v-121c0-29-5-50-35-48C34-165 62-65 56 0H25l-1-190h30c1 10-1 24 2 32 10-44 99-50 107 0 11-21 27-35 58-36 85-2 47 119 55 194h-31v-121c0-29-5-49-35-48" id="aR"/><g id="b"><use transform="matrix(0.09876543209876544,0,0,0.09876543209876544,0,0)" xlink:href="#aP"/><use transform="matrix(0.09876543209876544,0,0,0.09876543209876544,23.703703703703706,0)" xlink:href="#aQ"/><use transform="matrix(0.09876543209876544,0,0,0.09876543209876544,41.48148148148148,0)" xlink:href="#aJ"/><use transform="matrix(0.09876543209876544,0,0,0.09876543209876544,59.25925925925927,0)" xlink:href="#aK"/><use transform="matrix(0.09876543209876544,0,0,0.09876543209876544,69.1358024691358,0)" xlink:href="#aG"/><use transform="matrix(0.09876543209876544,0,0,0.09876543209876544,88.88888888888889,0)" xlink:href="#aR"/></g><path fill="#333" d="M249-183c0 48-29 72-75 77L221 0h-36l-43-103H65L45 0H11l48-248c83 2 190-17 190 65zm-34 3c0-55-74-39-127-41l-18 92c63-1 145 13 145-51" id="aS"/><path fill="#333" d="M111-194c62-3 86 47 72 106H45c-7 38 6 69 45 68 27-1 43-14 53-32l24 11C152-15 129 4 87 4 38 3 12-23 12-71c0-70 32-119 99-123zm44 81c14-66-71-72-95-28-4 8-8 17-11 28h106" id="aT"/><path fill="#333" d="M55-144c13 50 104 24 104 88C159 21 15 23 1-39l26-10c6 40 102 42 102-4-13-50-104-23-104-87 0-71 143-71 148-8l-29 4c-5-35-85-37-89 0" id="aU"/><path fill="#333" d="M165-48c-4 18 1 34 23 27l-3 20c-29 8-62 0-52-35h-2C116-14 99 4 63 4 30 4 8-16 8-49c0-68 71-67 138-67 10-26 0-56-31-54-26 1-42 9-47 31l-32-5c8-67 160-71 144 15-5 28-9 54-15 81zM42-50c3 52 80 24 89-6 7-12 7-24 11-38-47 1-103-4-100 44" id="aV"/><path fill="#333" d="M66-151c12-25 30-51 66-40l-6 26C45-176 58-65 38 0H6l36-190h30" id="aW"/><path fill="#333" d="M44-68c0 29 11 47 38 47 30 0 42-19 51-41l28 9C148-21 126 4 82 4 31 4 10-29 12-85c3-77 74-140 146-93 12 8 15 23 18 40l-31 5c-1-22-13-36-36-36-52 0-65 49-65 101" id="aX"/><path fill="#333" d="M67-158c15-20 31-36 64-36 94 0 33 127 27 194h-32l25-140c3-38-53-32-70-12C52-117 51-51 37 0H6l51-261h31" id="aY"/><g id="c"><use transform="matrix(0.04938271604938272,0,0,0.04938271604938272,0,0)" xlink:href="#aS"/><use transform="matrix(0.04938271604938272,0,0,0.04938271604938272,12.790123456790125,0)" xlink:href="#aT"/><use transform="matrix(0.04938271604938272,0,0,0.04938271604938272,22.66666666666667,0)" xlink:href="#aU"/><use transform="matrix(0.04938271604938272,0,0,0.04938271604938272,31.555555555555557,0)" xlink:href="#aT"/><use transform="matrix(0.04938271604938272,0,0,0.04938271604938272,41.4320987654321,0)" xlink:href="#aV"/><use transform="matrix(0.04938271604938272,0,0,0.04938271604938272,51.308641975308646,0)" xlink:href="#aW"/><use transform="matrix(0.04938271604938272,0,0,0.04938271604938272,57.18518518518519,0)" xlink:href="#aX"/><use transform="matrix(0.04938271604938272,0,0,0.04938271604938272,66.07407407407408,0)" xlink:href="#aY"/><use transform="matrix(0.04938271604938272,0,0,0.04938271604938272,75.95061728395062,0)" xlink:href="#aT"/><use transform="matrix(0.04938271604938272,0,0,0.04938271604938272,85.82716049382717,0)" xlink:href="#aW"/></g><path fill="#fff" d="M119 0H84L31-248h34l41 218 126-218h36" id="aZ"/><path fill="#fff" d="M50-231l6-30h32l-6 30H50zM6 0l37-190h31L37 0H6" id="ba"/><path fill="#fff" d="M111-194c62-3 86 47 72 106H45c-7 38 6 69 45 68 27-1 43-14 53-32l24 11C152-15 129 4 87 4 38 3 12-23 12-71c0-70 32-119 99-123zm44 81c14-66-71-72-95-28-4 8-8 17-11 28h106" id="bb"/><path fill="#fff" d="M188 0h-37l-8-164L71 0H34L18-190h31l8 164 75-164h34l8 164 74-164h31" id="bc"/><g id="d"><use transform="matrix(0.04938271604938272,0,0,0.04938271604938272,0,0)" xlink:href="#aZ"/><use transform="matrix(0.04938271604938272,0,0,0.04938271604938272,11.506172839506174,0)" xlink:href="#ba"/><use transform="matrix(0.04938271604938272,0,0,0.04938271604938272,15.407407407407408,0)" xlink:href="#bb"/><use transform="matrix(0.04938271604938272,0,0,0.04938271604938272,25.283950617283953,0)" xlink:href="#bc"/></g><path fill="#fff" d="M179 0l23-115H67L45 0H11l48-248h34L72-143h135l21-105h32L212 0h-33" id="bd"/><path fill="#fff" d="M30-147c31-64 166-65 159 27C183-49 158 1 86 4 9 8 1-88 30-147zM88-20c53 0 68-48 68-100 0-31-11-51-44-50-52 1-68 46-68 97 0 32 13 53 44 53" id="be"/><path fill="#fff" d="M248-111c6-24 9-61-24-58-72 9-57 108-77 169h-31l26-142c3-37-50-30-64-10C52-115 50-51 37 0H6l36-190h30c-1 10-6 24-4 32 13-43 101-52 105 5 13-22 29-41 61-41 90 0 28 129 23 194h-31" id="bf"/><g id="e"><use transform="matrix(0.04938271604938272,0,0,0.04938271604938272,0,0)" xlink:href="#bd"/><use transform="matrix(0.04938271604938272,0,0,0.04938271604938272,12.790123456790125,0)" xlink:href="#be"/><use transform="matrix(0.04938271604938272,0,0,0.04938271604938272,22.66666666666667,0)" xlink:href="#bf"/><use transform="matrix(0.04938271604938272,0,0,0.04938271604938272,37.4320987654321,0)" xlink:href="#bb"/></g><path fill="#fff" d="M238-179c0 84-86 86-175 82L45 0H11l48-248c82 0 179-12 179 69zm-34 1c0-53-64-42-116-43l-19 98c63 0 135 9 135-55" id="bg"/><path fill="#fff" d="M165-48c-4 18 1 34 23 27l-3 20c-29 8-62 0-52-35h-2C116-14 99 4 63 4 30 4 8-16 8-49c0-68 71-67 138-67 10-26 0-56-31-54-26 1-42 9-47 31l-32-5c8-67 160-71 144 15-5 28-9 54-15 81zM42-50c3 52 80 24 89-6 7-12 7-24 11-38-47 1-103-4-100 44" id="bh"/><path fill="#fff" d="M103-194c29 0 47 14 56 36 2-11 5-23 8-32h30L160-5C157 61 82 97 21 62 9 55 4 45 1 30l28-7c7 42 83 31 92-3 4-16 9-38 13-55-13 20-29 36-62 36-40 0-60-25-60-64 0-71 23-131 91-131zm4 24c-53 0-58 54-61 104-2 27 10 44 36 44 49 0 65-50 67-102 1-29-15-46-42-46" id="bi"/><path fill="#fff" d="M-20 4l123-265h28L8 4h-28" id="bj"/><path fill="#fff" d="M87-220l-18 92h140l-5 28H64L45 0H11l48-248h178l-5 28H87" id="bk"/><path fill="#fff" d="M6 0l50-261h32L37 0H6" id="bl"/><path fill="#fff" d="M55-144c13 50 104 24 104 88C159 21 15 23 1-39l26-10c6 40 102 42 102-4-13-50-104-23-104-87 0-71 143-71 148-8l-29 4c-5-35-85-37-89 0" id="bm"/><g id="f"><use transform="matrix(0.04938271604938272,0,0,0.04938271604938272,0,0)" xlink:href="#bg"/><use transform="matrix(0.04938271604938272,0,0,0.04938271604938272,11.851851851851853,0)" xlink:href="#bh"/><use transform="matrix(0.04938271604938272,0,0,0.04938271604938272,21.7283950617284,0)" xlink:href="#bi"/><use transform="matrix(0.04938271604938272,0,0,0.04938271604938272,31.60493827160494,0)" xlink:href="#bb"/><use transform="matrix(0.04938271604938272,0,0,0.04938271604938272,41.48148148148149,0)" xlink:href="#bj"/><use transform="matrix(0.04938271604938272,0,0,0.04938271604938272,46.41975308641976,0)" xlink:href="#bk"/><use transform="matrix(0.04938271604938272,0,0,0.04938271604938272,57.23456790123457,0)" xlink:href="#ba"/><use transform="matrix(0.04938271604938272,0,0,0.04938271604938272,61.13580246913581,0)" xlink:href="#bl"/><use transform="matrix(0.04938271604938272,0,0,0.04938271604938272,65.03703703703705,0)" xlink:href="#bb"/><use transform="matrix(0.04938271604938272,0,0,0.04938271604938272,74.9135802469136,0)" xlink:href="#bm"/></g><path fill="#fff" d="M11 0l48-248h34L50-27h125l-5 27H11" id="bn"/><path fill="#fff" d="M67-158c22-48 132-52 116 29L158 0h-32l25-140c3-38-53-32-70-12C52-117 51-52 38 0H6l36-190h30" id="bo"/><g id="g"><use transform="matrix(0.04938271604938272,0,0,0.04938271604938272,0,0)" xlink:href="#bn"/><use transform="matrix(0.04938271604938272,0,0,0.04938271604938272,9.876543209876544,0)" xlink:href="#be"/><use transform="matrix(0.04938271604938272,0,0,0.04938271604938272,19.75308641975309,0)" xlink:href="#bi"/><use transform="matrix(0.04938271604938272,0,0,0.04938271604938272,29.629629629629633,0)" xlink:href="#ba"/><use transform="matrix(0.04938271604938272,0,0,0.04938271604938272,33.53086419753087,0)" xlink:href="#bo"/></g><path fill="#fff" d="M137 0h-34L2-248h35l83 218 83-218h36" id="bp"/><path fill="#fff" d="M24-231v-30h32v30H24zM24 0v-190h32V0H24" id="bq"/><path fill="#fff" d="M100-194c63 0 86 42 84 106H49c0 40 14 67 53 68 26 1 43-12 49-29l28 8c-11 28-37 45-77 45C44 4 14-33 15-96c1-61 26-98 85-98zm52 81c6-60-76-77-97-28-3 7-6 17-6 28h103" id="br"/><path fill="#fff" d="M206 0h-36l-40-164L89 0H53L-1-190h32L70-26l43-164h34l41 164 42-164h31" id="bs"/><g id="h"><use transform="matrix(0.04938271604938272,0,0,0.04938271604938272,0,0)" xlink:href="#bp"/><use transform="matrix(0.04938271604938272,0,0,0.04938271604938272,11.506172839506174,0)" xlink:href="#bq"/><use transform="matrix(0.04938271604938272,0,0,0.04938271604938272,15.407407407407408,0)" xlink:href="#br"/><use transform="matrix(0.04938271604938272,0,0,0.04938271604938272,25.283950617283953,0)" xlink:href="#bs"/></g><path fill="#fff" d="M233-177c-1 41-23 64-60 70L243 0h-38l-65-103H63V0H30v-248c88 3 205-21 203 71zM63-129c60-2 137 13 137-47 0-61-80-42-137-45v92" id="bt"/><path fill="#fff" d="M135-143c-3-34-86-38-87 0 15 53 115 12 119 90S17 21 10-45l28-5c4 36 97 45 98 0-10-56-113-15-118-90-4-57 82-63 122-42 12 7 21 19 24 35" id="bu"/><path fill="#fff" d="M141-36C126-15 110 5 73 4 37 3 15-17 15-53c-1-64 63-63 125-63 3-35-9-54-41-54-24 1-41 7-42 31l-33-3c5-37 33-52 76-52 45 0 72 20 72 64v82c-1 20 7 32 28 27v20c-31 9-61-2-59-35zM48-53c0 20 12 33 32 33 41-3 63-29 60-74-43 2-92-5-92 41" id="bv"/><path fill="#fff" d="M114-163C36-179 61-72 57 0H25l-1-190h30c1 12-1 29 2 39 6-27 23-49 58-41v29" id="bw"/><path fill="#fff" d="M96-169c-40 0-48 33-48 73s9 75 48 75c24 0 41-14 43-38l32 2c-6 37-31 61-74 61-59 0-76-41-82-99-10-93 101-131 147-64 4 7 5 14 7 22l-32 3c-4-21-16-35-41-35" id="bx"/><path fill="#fff" d="M106-169C34-169 62-67 57 0H25v-261h32l-1 103c12-21 28-36 61-36 89 0 53 116 60 194h-32v-121c2-32-8-49-39-48" id="by"/><g id="i"><use transform="matrix(0.04938271604938272,0,0,0.04938271604938272,0,0)" xlink:href="#bt"/><use transform="matrix(0.04938271604938272,0,0,0.04938271604938272,12.790123456790125,0)" xlink:href="#br"/><use transform="matrix(0.04938271604938272,0,0,0.04938271604938272,22.66666666666667,0)" xlink:href="#bu"/><use transform="matrix(0.04938271604938272,0,0,0.04938271604938272,31.555555555555557,0)" xlink:href="#br"/><use transform="matrix(0.04938271604938272,0,0,0.04938271604938272,41.4320987654321,0)" xlink:href="#bv"/><use transform="matrix(0.04938271604938272,0,0,0.04938271604938272,51.308641975308646,0)" xlink:href="#bw"/><use transform="matrix(0.04938271604938272,0,0,0.04938271604938272,57.18518518518519,0)" xlink:href="#bx"/><use transform="matrix(0.04938271604938272,0,0,0.04938271604938272,66.07407407407408,0)" xlink:href="#by"/><use transform="matrix(0.04938271604938272,0,0,0.04938271604938272,75.95061728395062,0)" xlink:href="#br"/><use transform="matrix(0.04938271604938272,0,0,0.04938271604938272,85.82716049382717,0)" xlink:href="#bw"/></g><path fill="#fff" d="M30-248c87 1 191-15 191 75 0 78-77 80-158 76V0H30v-248zm33 125c57 0 124 11 124-50 0-59-68-47-124-48v98" id="bz"/><path fill="#fff" d="M177-190C167-65 218 103 67 71c-23-6-38-20-44-43l32-5c15 47 100 32 89-28v-30C133-14 115 1 83 1 29 1 15-40 15-95c0-56 16-97 71-98 29-1 48 16 59 35 1-10 0-23 2-32h30zM94-22c36 0 50-32 50-73 0-42-14-75-50-75-39 0-46 34-46 75s6 73 46 73" id="bA"/><g id="j"><use transform="matrix(0.04938271604938272,0,0,0.04938271604938272,0,0)" xlink:href="#bz"/><use transform="matrix(0.04938271604938272,0,0,0.04938271604938272,11.851851851851853,0)" xlink:href="#bv"/><use transform="matrix(0.04938271604938272,0,0,0.04938271604938272,21.7283950617284,0)" xlink:href="#bA"/><use transform="matrix(0.04938271604938272,0,0,0.04938271604938272,31.60493827160494,0)" xlink:href="#br"/></g><g id="k"><use transform="matrix(0.05,0,0,0.05,0,0)" xlink:href="#bp"/><use transform="matrix(0.05,0,0,0.05,11.65,0)" xlink:href="#bq"/><use transform="matrix(0.05,0,0,0.05,15.600000000000001,0)" xlink:href="#br"/><use transform="matrix(0.05,0,0,0.05,25.6,0)" xlink:href="#bs"/></g><path fill="#fff" d="M240 0l2-218c-23 76-54 145-80 218h-23L58-218 59 0H30v-248h44l77 211c21-75 51-140 76-211h43V0h-30" id="bB"/><path fill="#fff" d="M59-47c-2 24 18 29 38 22v24C64 9 27 4 27-40v-127H5v-23h24l9-43h21v43h35v23H59v120" id="bC"/><g id="l"><use transform="matrix(0.05,0,0,0.05,0,0)" xlink:href="#bB"/><use transform="matrix(0.05,0,0,0.05,14.950000000000001,0)" xlink:href="#bv"/><use transform="matrix(0.05,0,0,0.05,24.950000000000003,0)" xlink:href="#bu"/><use transform="matrix(0.05,0,0,0.05,33.95,0)" xlink:href="#bC"/><use transform="matrix(0.05,0,0,0.05,38.95,0)" xlink:href="#br"/><use transform="matrix(0.05,0,0,0.05,48.95,0)" xlink:href="#bw"/></g><path fill="#fff" d="M185-189c-5-48-123-54-124 2 14 75 158 14 163 119 3 78-121 87-175 55-17-10-28-26-33-46l33-7c5 56 141 63 141-1 0-78-155-14-162-118-5-82 145-84 179-34 5 7 8 16 11 25" id="bD"/><path fill="#fff" d="M85-194c31 0 48 13 60 33l-1-100h32l1 261h-30c-2-10 0-23-3-31C134-8 116 4 85 4 32 4 16-35 15-94c0-66 23-100 70-100zm9 24c-40 0-46 34-46 75 0 40 6 74 45 74 42 0 51-32 51-76 0-42-9-74-50-73" id="bE"/><path fill="#fff" d="M84 4C-5 8 30-112 23-190h32v120c0 31 7 50 39 49 72-2 45-101 50-169h31l1 190h-30c-1-10 1-25-2-33-11 22-28 36-60 37" id="bF"/><path fill="#fff" d="M24 0v-261h32V0H24" id="bG"/><g id="m"><use transform="matrix(0.05,0,0,0.05,0,0)" xlink:href="#bD"/><use transform="matrix(0.05,0,0,0.05,12,0)" xlink:href="#bx"/><use transform="matrix(0.05,0,0,0.05,21,0)" xlink:href="#by"/><use transform="matrix(0.05,0,0,0.05,31,0)" xlink:href="#br"/><use transform="matrix(0.05,0,0,0.05,41,0)" xlink:href="#bE"/><use transform="matrix(0.05,0,0,0.05,51,0)" xlink:href="#bF"/><use transform="matrix(0.05,0,0,0.05,61,0)" xlink:href="#bG"/><use transform="matrix(0.05,0,0,0.05,64.95,0)" xlink:href="#br"/></g><path fill="#fff" d="M212-179c-10-28-35-45-73-45-59 0-87 40-87 99 0 60 29 101 89 101 43 0 62-24 78-52l27 14C228-24 195 4 139 4 59 4 22-46 18-125c-6-104 99-153 187-111 19 9 31 26 39 46" id="bH"/><path fill="#fff" d="M100-194c62-1 85 37 85 99 1 63-27 99-86 99S16-35 15-95c0-66 28-99 85-99zM99-20c44 1 53-31 53-75 0-43-8-75-51-75s-53 32-53 75 10 74 51 75" id="bI"/><g id="n"><use transform="matrix(0.05,0,0,0.05,0,0)" xlink:href="#bH"/><use transform="matrix(0.05,0,0,0.05,12.950000000000001,0)" xlink:href="#bI"/><use transform="matrix(0.05,0,0,0.05,22.950000000000003,0)" xlink:href="#bF"/><use transform="matrix(0.05,0,0,0.05,32.95,0)" xlink:href="#bw"/><use transform="matrix(0.05,0,0,0.05,38.900000000000006,0)" xlink:href="#bu"/><use transform="matrix(0.05,0,0,0.05,47.900000000000006,0)" xlink:href="#br"/></g><path fill="#fff" d="M145-31C134-9 116 4 85 4 32 4 16-35 15-94c0-59 17-99 70-100 32-1 48 14 60 33 0-11-1-24 2-32h30l-1 268h-32zM93-21c41 0 51-33 51-76s-8-73-50-73c-40 0-46 35-46 75s5 74 45 74" id="bJ"/><g id="o"><use transform="matrix(0.05,0,0,0.05,0,0)" xlink:href="#bz"/><use transform="matrix(0.05,0,0,0.05,12,0)" xlink:href="#bw"/><use transform="matrix(0.05,0,0,0.05,17.95,0)" xlink:href="#br"/><use transform="matrix(0.05,0,0,0.05,27.950000000000003,0)" xlink:href="#bw"/><use transform="matrix(0.05,0,0,0.05,33.9,0)" xlink:href="#br"/><use transform="matrix(0.05,0,0,0.05,43.9,0)" xlink:href="#bJ"/><use transform="matrix(0.05,0,0,0.05,53.900000000000006,0)" xlink:href="#bF"/><use transform="matrix(0.05,0,0,0.05,63.900000000000006,0)" xlink:href="#bq"/><use transform="matrix(0.05,0,0,0.05,67.85,0)" xlink:href="#bu"/><use transform="matrix(0.05,0,0,0.05,76.85,0)" xlink:href="#bq"/><use transform="matrix(0.05,0,0,0.05,80.8,0)" xlink:href="#bC"/><use transform="matrix(0.05,0,0,0.05,85.8,0)" xlink:href="#br"/><use transform="matrix(0.05,0,0,0.05,95.8,0)" xlink:href="#bu"/></g><path fill="#333" d="M18-100v-36l175-74v27L42-118l151 64v27" id="bK"/><path fill="#333" d="M100-194c63 0 86 42 84 106H49c0 40 14 67 53 68 26 1 43-12 49-29l28 8c-11 28-37 45-77 45C44 4 14-33 15-96c1-61 26-98 85-98zm52 81c6-60-76-77-97-28-3 7-6 17-6 28h103" id="bL"/><path fill="#333" d="M141 0L90-78 38 0H4l68-98-65-92h35l48 74 47-74h35l-64 92 68 98h-35" id="bM"/><path fill="#333" d="M59-47c-2 24 18 29 38 22v24C64 9 27 4 27-40v-127H5v-23h24l9-43h21v43h35v23H59v120" id="bN"/><path fill="#333" d="M117-194c89-4 53 116 60 194h-32v-121c0-31-8-49-39-48C34-167 62-67 57 0H25l-1-190h30c1 10-1 24 2 32 11-22 29-35 61-36" id="bO"/><path fill="#333" d="M85-194c31 0 48 13 60 33l-1-100h32l1 261h-30c-2-10 0-23-3-31C134-8 116 4 85 4 32 4 16-35 15-94c0-66 23-100 70-100zm9 24c-40 0-46 34-46 75 0 40 6 74 45 74 42 0 51-32 51-76 0-42-9-74-50-73" id="bP"/><path fill="#333" d="M135-143c-3-34-86-38-87 0 15 53 115 12 119 90S17 21 10-45l28-5c4 36 97 45 98 0-10-56-113-15-118-90-4-57 82-63 122-42 12 7 21 19 24 35" id="bQ"/><path fill="#333" d="M18-27v-27l151-64-151-65v-27l175 74v36" id="bR"/><g id="p"><use transform="matrix(0.04938271604938272,0,0,0.04938271604938272,0,0)" xlink:href="#bK"/><use transform="matrix(0.04938271604938272,0,0,0.04938271604938272,10.370370370370372,0)" xlink:href="#bK"/><use transform="matrix(0.04938271604938272,0,0,0.04938271604938272,20.740740740740744,0)" xlink:href="#bL"/><use transform="matrix(0.04938271604938272,0,0,0.04938271604938272,30.617283950617285,0)" xlink:href="#bM"/><use transform="matrix(0.04938271604938272,0,0,0.04938271604938272,39.50617283950618,0)" xlink:href="#bN"/><use transform="matrix(0.04938271604938272,0,0,0.04938271604938272,44.44444444444445,0)" xlink:href="#bL"/><use transform="matrix(0.04938271604938272,0,0,0.04938271604938272,54.320987654320994,0)" xlink:href="#bO"/><use transform="matrix(0.04938271604938272,0,0,0.04938271604938272,64.19753086419755,0)" xlink:href="#bP"/><use transform="matrix(0.04938271604938272,0,0,0.04938271604938272,74.07407407407409,0)" xlink:href="#bQ"/><use transform="matrix(0.04938271604938272,0,0,0.04938271604938272,82.96296296296298,0)" xlink:href="#bR"/><use transform="matrix(0.04938271604938272,0,0,0.04938271604938272,93.33333333333334,0)" xlink:href="#bR"/></g><g id="q"><use transform="matrix(0.05,0,0,0.05,0,0)" xlink:href="#bD"/><use transform="matrix(0.05,0,0,0.05,12,0)" xlink:href="#br"/><use transform="matrix(0.05,0,0,0.05,22,0)" xlink:href="#bv"/><use transform="matrix(0.05,0,0,0.05,32,0)" xlink:href="#bw"/><use transform="matrix(0.05,0,0,0.05,37.95,0)" xlink:href="#bx"/><use transform="matrix(0.05,0,0,0.05,46.95,0)" xlink:href="#by"/></g><path fill="#fff" d="M101-234c-31-9-42 10-38 44h38v23H63V0H32v-167H5v-23h27c-7-52 17-82 69-68v24" id="bS"/><g id="r"><use transform="matrix(0.05,0,0,0.05,0,0)" xlink:href="#bz"/><use transform="matrix(0.05,0,0,0.05,12,0)" xlink:href="#bw"/><use transform="matrix(0.05,0,0,0.05,17.95,0)" xlink:href="#bI"/><use transform="matrix(0.05,0,0,0.05,27.950000000000003,0)" xlink:href="#bS"/><use transform="matrix(0.05,0,0,0.05,32.95,0)" xlink:href="#br"/><use transform="matrix(0.05,0,0,0.05,42.95,0)" xlink:href="#bu"/><use transform="matrix(0.05,0,0,0.05,51.95,0)" xlink:href="#bu"/><use transform="matrix(0.05,0,0,0.05,60.95,0)" xlink:href="#bI"/><use transform="matrix(0.05,0,0,0.05,70.95,0)" xlink:href="#bw"/><use transform="matrix(0.05,0,0,0.05,76.9,0)" xlink:href="#bu"/></g><path fill="#fff" d="M30-248c118-7 216 8 213 122C240-48 200 0 122 0H30v-248zM63-27c89 8 146-16 146-99s-60-101-146-95v194" id="bT"/><path fill="#fff" d="M115-194c55 1 70 41 70 98S169 2 115 4C84 4 66-9 55-30l1 105H24l-1-265h31l2 30c10-21 28-34 59-34zm-8 174c40 0 45-34 45-75s-6-73-45-74c-42 0-51 32-51 76 0 43 10 73 51 73" id="bU"/><path fill="#fff" d="M210-169c-67 3-38 105-44 169h-31v-121c0-29-5-50-35-48C34-165 62-65 56 0H25l-1-190h30c1 10-1 24 2 32 10-44 99-50 107 0 11-21 27-35 58-36 85-2 47 119 55 194h-31v-121c0-29-5-49-35-48" id="bV"/><path fill="#fff" d="M117-194c89-4 53 116 60 194h-32v-121c0-31-8-49-39-48C34-167 62-67 57 0H25l-1-190h30c1 10-1 24 2 32 11-22 29-35 61-36" id="bW"/><g id="s"><use transform="matrix(0.05,0,0,0.05,0,0)" xlink:href="#bT"/><use transform="matrix(0.05,0,0,0.05,12.950000000000001,0)" xlink:href="#br"/><use transform="matrix(0.05,0,0,0.05,22.950000000000003,0)" xlink:href="#bU"/><use transform="matrix(0.05,0,0,0.05,32.95,0)" xlink:href="#bv"/><use transform="matrix(0.05,0,0,0.05,42.95,0)" xlink:href="#bw"/><use transform="matrix(0.05,0,0,0.05,48.900000000000006,0)" xlink:href="#bC"/><use transform="matrix(0.05,0,0,0.05,53.900000000000006,0)" xlink:href="#bV"/><use transform="matrix(0.05,0,0,0.05,68.85000000000001,0)" xlink:href="#br"/><use transform="matrix(0.05,0,0,0.05,78.85000000000001,0)" xlink:href="#bW"/><use transform="matrix(0.05,0,0,0.05,88.85000000000001,0)" xlink:href="#bC"/></g><g id="t"><use transform="matrix(0.05,0,0,0.05,0,0)" xlink:href="#bD"/><use transform="matrix(0.05,0,0,0.05,12,0)" xlink:href="#br"/><use transform="matrix(0.05,0,0,0.05,22,0)" xlink:href="#bv"/><use transform="matrix(0.05,0,0,0.05,32,0)" xlink:href="#bw"/><use transform="matrix(0.05,0,0,0.05,37.95,0)" xlink:href="#bx"/><use transform="matrix(0.05,0,0,0.05,46.95,0)" xlink:href="#by"/></g><path fill="#fff" d="M127-220V0H93v-220H8v-28h204v28h-85" id="bX"/><g id="u"><use transform="matrix(0.05,0,0,0.05,0,0)" xlink:href="#bX"/><use transform="matrix(0.05,0,0,0.05,10.3,0)" xlink:href="#bq"/><use transform="matrix(0.05,0,0,0.05,14.25,0)" xlink:href="#bV"/><use transform="matrix(0.05,0,0,0.05,29.200000000000003,0)" xlink:href="#br"/></g><path fill="#fff" d="M190 0L58-211 59 0H30v-248h39L202-35l-2-213h31V0h-41" id="bY"/><g id="v"><use transform="matrix(0.05,0,0,0.05,0,0)" xlink:href="#bY"/><use transform="matrix(0.05,0,0,0.05,12.950000000000001,0)" xlink:href="#bv"/><use transform="matrix(0.05,0,0,0.05,22.950000000000003,0)" xlink:href="#bV"/><use transform="matrix(0.05,0,0,0.05,37.900000000000006,0)" xlink:href="#br"/></g><g id="w"><use transform="matrix(0.05,0,0,0.05,0,0)" xlink:href="#bH"/><use transform="matrix(0.05,0,0,0.05,12.950000000000001,0)" xlink:href="#bI"/><use transform="matrix(0.05,0,0,0.05,22.950000000000003,0)" xlink:href="#bF"/><use transform="matrix(0.05,0,0,0.05,32.95,0)" xlink:href="#bw"/><use transform="matrix(0.05,0,0,0.05,38.900000000000006,0)" xlink:href="#bu"/><use transform="matrix(0.05,0,0,0.05,47.900000000000006,0)" xlink:href="#br"/><use transform="matrix(0.05,0,0,0.05,57.900000000000006,0)" xlink:href="#bu"/></g><path fill="#333" d="M24-231v-30h32v30H24zM24 0v-190h32V0H24" id="bZ"/><path fill="#333" d="M210-169c-67 3-38 105-44 169h-31v-121c0-29-5-50-35-48C34-165 62-65 56 0H25l-1-190h30c1 10-1 24 2 32 10-44 99-50 107 0 11-21 27-35 58-36 85-2 47 119 55 194h-31v-121c0-29-5-49-35-48" id="ca"/><path fill="#333" d="M115-194c55 1 70 41 70 98S169 2 115 4C84 4 66-9 55-30l1 105H24l-1-265h31l2 30c10-21 28-34 59-34zm-8 174c40 0 45-34 45-75s-6-73-45-74c-42 0-51 32-51 76 0 43 10 73 51 73" id="cb"/><path fill="#333" d="M24 0v-261h32V0H24" id="cc"/><g id="x"><use transform="matrix(0.04938271604938272,0,0,0.04938271604938272,0,0)" xlink:href="#bK"/><use transform="matrix(0.04938271604938272,0,0,0.04938271604938272,10.370370370370372,0)" xlink:href="#bK"/><use transform="matrix(0.04938271604938272,0,0,0.04938271604938272,20.740740740740744,0)" xlink:href="#bZ"/><use transform="matrix(0.04938271604938272,0,0,0.04938271604938272,24.641975308641978,0)" xlink:href="#ca"/><use transform="matrix(0.04938271604938272,0,0,0.04938271604938272,39.40740740740741,0)" xlink:href="#cb"/><use transform="matrix(0.04938271604938272,0,0,0.04938271604938272,49.283950617283956,0)" xlink:href="#cc"/><use transform="matrix(0.04938271604938272,0,0,0.04938271604938272,53.18518518518519,0)" xlink:href="#bL"/><use transform="matrix(0.04938271604938272,0,0,0.04938271604938272,63.061728395061735,0)" xlink:href="#ca"/><use transform="matrix(0.04938271604938272,0,0,0.04938271604938272,77.82716049382717,0)" xlink:href="#bL"/><use transform="matrix(0.04938271604938272,0,0,0.04938271604938272,87.70370370370371,0)" xlink:href="#bO"/><use transform="matrix(0.04938271604938272,0,0,0.04938271604938272,97.58024691358025,0)" xlink:href="#bN"/><use transform="matrix(0.04938271604938272,0,0,0.04938271604938272,102.51851851851853,0)" xlink:href="#bQ"/><use transform="matrix(0.04938271604938272,0,0,0.04938271604938272,111.40740740740742,0)" xlink:href="#bR"/><use transform="matrix(0.04938271604938272,0,0,0.04938271604938272,121.77777777777779,0)" xlink:href="#bR"/><use transform="matrix(0.04938271604938272,0,0,0.04938271604938272,132.14814814814815,0)" xlink:href="#bR"/></g><path fill="#fff" d="M194-120c59 52 2 134-86 124-53-6-90-18-98-63l31-7c8 30 29 43 70 43 46 0 84-17 71-62-32-43-135-20-137-98-3-89 178-90 191-16l-30 9c-8-48-127-53-127 5 0 53 81 35 115 65" id="cd"/><path fill="#fff" d="M66-151c12-25 30-51 66-40l-6 26C45-176 58-65 38 0H6l36-190h30" id="ce"/><path fill="#fff" d="M44-68c0 29 11 47 38 47 30 0 42-19 51-41l28 9C148-21 126 4 82 4 31 4 10-29 12-85c3-77 74-140 146-93 12 8 15 23 18 40l-31 5c-1-22-13-36-36-36-52 0-65 49-65 101" id="cf"/><path fill="#fff" d="M67-158c15-20 31-36 64-36 94 0 33 127 27 194h-32l25-140c3-38-53-32-70-12C52-117 51-51 37 0H6l51-261h31" id="cg"/><g id="y"><use transform="matrix(0.04938271604938272,0,0,0.04938271604938272,0,0)" xlink:href="#cd"/><use transform="matrix(0.04938271604938272,0,0,0.04938271604938272,11.851851851851853,0)" xlink:href="#bb"/><use transform="matrix(0.04938271604938272,0,0,0.04938271604938272,21.7283950617284,0)" xlink:href="#bh"/><use transform="matrix(0.04938271604938272,0,0,0.04938271604938272,31.60493827160494,0)" xlink:href="#ce"/><use transform="matrix(0.04938271604938272,0,0,0.04938271604938272,37.48148148148149,0)" xlink:href="#cf"/><use transform="matrix(0.04938271604938272,0,0,0.04938271604938272,46.37037037037038,0)" xlink:href="#cg"/></g><path fill="#fff" d="M51-54c-9 22 5 41 31 30L79-1C43 14 10-4 19-52l22-115H19l5-23h22l19-43h21l-9 43h35l-4 23H73" id="ch"/><g id="z"><use transform="matrix(0.04938271604938272,0,0,0.04938271604938272,0,0)" xlink:href="#ch"/><use transform="matrix(0.04938271604938272,0,0,0.04938271604938272,4.938271604938272,0)" xlink:href="#cg"/><use transform="matrix(0.04938271604938272,0,0,0.04938271604938272,14.814814814814817,0)" xlink:href="#bb"/></g><path fill="#fff" d="M125-24c46 0 70-25 89-51l25 16C214-24 183 4 123 4 8 4-5-146 60-208c32-50 158-61 191-5 5 7 9 14 11 22l-32 10c-9-28-33-43-69-43-74 0-108 51-108 125 0 46 24 75 72 75" id="ci"/><path fill="#fff" d="M67 3c-93-2-31-127-26-193h32L48-50c-3 39 53 32 70 12 30-34 30-101 43-152h32L157 0h-30c1-10 6-24 4-33-14 20-29 37-64 36" id="cj"/><g id="A"><use transform="matrix(0.04938271604938272,0,0,0.04938271604938272,0,0)" xlink:href="#ci"/><use transform="matrix(0.04938271604938272,0,0,0.04938271604938272,12.790123456790125,0)" xlink:href="#be"/><use transform="matrix(0.04938271604938272,0,0,0.04938271604938272,22.66666666666667,0)" xlink:href="#cj"/><use transform="matrix(0.04938271604938272,0,0,0.04938271604938272,32.543209876543216,0)" xlink:href="#ce"/><use transform="matrix(0.04938271604938272,0,0,0.04938271604938272,38.41975308641976,0)" xlink:href="#bm"/><use transform="matrix(0.04938271604938272,0,0,0.04938271604938272,47.308641975308646,0)" xlink:href="#bb"/></g><g id="B"><use transform="matrix(0.04938271604938272,0,0,0.04938271604938272,0,0)" xlink:href="#ci"/><use transform="matrix(0.04938271604938272,0,0,0.04938271604938272,12.790123456790125,0)" xlink:href="#bh"/><use transform="matrix(0.04938271604938272,0,0,0.04938271604938272,22.66666666666667,0)" xlink:href="#ch"/><use transform="matrix(0.04938271604938272,0,0,0.04938271604938272,27.604938271604947,0)" xlink:href="#bh"/><use transform="matrix(0.04938271604938272,0,0,0.04938271604938272,37.48148148148149,0)" xlink:href="#bl"/><use transform="matrix(0.04938271604938272,0,0,0.04938271604938272,41.38271604938272,0)" xlink:href="#be"/><use transform="matrix(0.04938271604938272,0,0,0.04938271604938272,51.25925925925927,0)" xlink:href="#bi"/></g><use transform="matrix(0.04938271604938272,0,0,0.04938271604938272,0,0)" xlink:href="#bh" id="C"/><path fill="#fff" d="M60-170H36l11-78h32" id="ck"/><g id="D"><use transform="matrix(0.04938271604938272,0,0,0.04938271604938272,0,0)" xlink:href="#cf"/><use transform="matrix(0.04938271604938272,0,0,0.04938271604938272,8.88888888888889,0)" xlink:href="#be"/><use transform="matrix(0.04938271604938272,0,0,0.04938271604938272,18.765432098765434,0)" xlink:href="#cj"/><use transform="matrix(0.04938271604938272,0,0,0.04938271604938272,28.641975308641978,0)" xlink:href="#ce"/><use transform="matrix(0.04938271604938272,0,0,0.04938271604938272,34.51851851851852,0)" xlink:href="#bm"/><use transform="matrix(0.04938271604938272,0,0,0.04938271604938272,43.407407407407405,0)" xlink:href="#bb"/><use transform="matrix(0.04938271604938272,0,0,0.04938271604938272,53.28395061728394,0)" xlink:href="#ck"/><use transform="matrix(0.04938271604938272,0,0,0.04938271604938272,56.64197530864198,0)" xlink:href="#bm"/></g><path fill="#fff" d="M67-162c32-53 139-36 121 50C175-51 163 2 97 4 68 4 52-11 42-31 38 6 28 39 22 75H-9l50-265h29c-1 10 0 20-3 28zm89 36c0-26-10-43-35-43-54 0-67 50-69 103-1 29 14 45 42 46 53 0 62-58 62-106" id="cl"/><path fill="#fff" d="M133-28C103 26-5 8 13-77c13-62 24-115 90-117 29-1 46 15 56 35 2-12 6-24 8-34h31L144 75h-31zM45-64c-2 27 10 43 35 43 54-1 69-50 69-103 0-29-15-46-42-46-53-1-58 58-62 106" id="cm"/><g id="E"><use transform="matrix(0.04938271604938272,0,0,0.04938271604938272,0,0)" xlink:href="#cl"/><use transform="matrix(0.04938271604938272,0,0,0.04938271604938272,9.876543209876544,0)" xlink:href="#ce"/><use transform="matrix(0.04938271604938272,0,0,0.04938271604938272,15.753086419753087,0)" xlink:href="#bb"/><use transform="matrix(0.04938271604938272,0,0,0.04938271604938272,25.629629629629633,0)" xlink:href="#ce"/><use transform="matrix(0.04938271604938272,0,0,0.04938271604938272,31.506172839506174,0)" xlink:href="#bb"/><use transform="matrix(0.04938271604938272,0,0,0.04938271604938272,41.38271604938272,0)" xlink:href="#cm"/><use transform="matrix(0.04938271604938272,0,0,0.04938271604938272,51.25925925925927,0)" xlink:href="#cj"/><use transform="matrix(0.04938271604938272,0,0,0.04938271604938272,61.13580246913581,0)" xlink:href="#ba"/><use transform="matrix(0.04938271604938272,0,0,0.04938271604938272,65.03703703703705,0)" xlink:href="#bm"/><use transform="matrix(0.04938271604938272,0,0,0.04938271604938272,73.92592592592594,0)" xlink:href="#ba"/><use transform="matrix(0.04938271604938272,0,0,0.04938271604938272,77.82716049382718,0)" xlink:href="#ch"/><use transform="matrix(0.04938271604938272,0,0,0.04938271604938272,82.76543209876544,0)" xlink:href="#bb"/><use transform="matrix(0.04938271604938272,0,0,0.04938271604938272,92.64197530864199,0)" xlink:href="#bm"/></g><path fill="#fff" d="M187 0l-14-72H61L19 0h-37l149-248h38L221 0h-34zm-19-99l-22-123L76-99h92" id="cn"/><path fill="#fff" d="M89 0H52L20-190h33L74-25l89-165h34" id="co"/><path fill="#fff" d="M68-162c25-46 127-43 121 31C183-60 169 1 98 4 69 5 53-11 43-31L36 0H5l52-261h31zm88 36c2-27-9-43-34-43-55 0-70 51-70 103 0 29 15 45 43 46 52 0 58-58 61-106" id="cp"/><g id="F"><use transform="matrix(0.04938271604938272,0,0,0.04938271604938272,0,0)" xlink:href="#cn"/><use transform="matrix(0.04938271604938272,0,0,0.04938271604938272,11.506172839506174,0)" xlink:href="#co"/><use transform="matrix(0.04938271604938272,0,0,0.04938271604938272,20.395061728395063,0)" xlink:href="#bh"/><use transform="matrix(0.04938271604938272,0,0,0.04938271604938272,30.271604938271608,0)" xlink:href="#ba"/><use transform="matrix(0.04938271604938272,0,0,0.04938271604938272,34.17283950617284,0)" xlink:href="#bl"/><use transform="matrix(0.04938271604938272,0,0,0.04938271604938272,38.074074074074076,0)" xlink:href="#bh"/><use transform="matrix(0.04938271604938272,0,0,0.04938271604938272,47.95061728395062,0)" xlink:href="#cp"/><use transform="matrix(0.04938271604938272,0,0,0.04938271604938272,57.827160493827165,0)" xlink:href="#bl"/><use transform="matrix(0.04938271604938272,0,0,0.04938271604938272,61.7283950617284,0)" xlink:href="#bb"/></g><path fill="#fff" d="M222 0l43-216c-8 16-17 34-26 49L143 0h-22L81-216 41 0H11l48-248h42l38 208 116-208h45L252 0h-30" id="cq"/><path fill="#fff" d="M51-231l6-30h31l-6 30H51zM33 24C28 60 2 84-40 72c3-12-1-29 18-22C-5 49-1 37 2 19l41-209h32" id="cr"/><g id="G"><use transform="matrix(0.04938271604938272,0,0,0.04938271604938272,0,0)" xlink:href="#cq"/><use transform="matrix(0.04938271604938272,0,0,0.04938271604938272,14.765432098765434,0)" xlink:href="#bh"/><use transform="matrix(0.04938271604938272,0,0,0.04938271604938272,24.641975308641978,0)" xlink:href="#cr"/><use transform="matrix(0.04938271604938272,0,0,0.04938271604938272,28.543209876543212,0)" xlink:href="#be"/><use transform="matrix(0.04938271604938272,0,0,0.04938271604938272,38.41975308641976,0)" xlink:href="#ce"/><use transform="matrix(0.04938271604938272,0,0,0.04938271604938272,44.296296296296305,0)" xlink:href="#bm"/><use transform="matrix(0.04938271604938272,0,0,0.04938271604938272,53.18518518518519,0)" xlink:href="#bj"/><use transform="matrix(0.04938271604938272,0,0,0.04938271604938272,58.12345679012346,0)" xlink:href="#cq"/><use transform="matrix(0.04938271604938272,0,0,0.04938271604938272,72.8888888888889,0)" xlink:href="#ba"/><use transform="matrix(0.04938271604938272,0,0,0.04938271604938272,76.79012345679014,0)" xlink:href="#bo"/><use transform="matrix(0.04938271604938272,0,0,0.04938271604938272,86.66666666666669,0)" xlink:href="#be"/><use transform="matrix(0.04938271604938272,0,0,0.04938271604938272,96.54320987654323,0)" xlink:href="#ce"/><use transform="matrix(0.04938271604938272,0,0,0.04938271604938272,102.41975308641979,0)" xlink:href="#bm"/></g><path fill="#fff" d="M24-231v-30h32v30H24zM-9 49c24 4 33-6 33-30v-209h32V24c2 40-23 58-65 49V49" id="cs"/><path fill="#fff" d="M0 4l72-265h28L28 4H0" id="ct"/><g id="H"><use transform="matrix(0.04938271604938272,0,0,0.04938271604938272,0,0)" xlink:href="#bB"/><use transform="matrix(0.04938271604938272,0,0,0.04938271604938272,14.765432098765434,0)" xlink:href="#bv"/><use transform="matrix(0.04938271604938272,0,0,0.04938271604938272,24.641975308641978,0)" xlink:href="#cs"/><use transform="matrix(0.04938271604938272,0,0,0.04938271604938272,28.543209876543212,0)" xlink:href="#bI"/><use transform="matrix(0.04938271604938272,0,0,0.04938271604938272,38.41975308641976,0)" xlink:href="#bw"/><use transform="matrix(0.04938271604938272,0,0,0.04938271604938272,44.296296296296305,0)" xlink:href="#ct"/><use transform="matrix(0.04938271604938272,0,0,0.04938271604938272,49.23456790123458,0)" xlink:href="#bB"/><use transform="matrix(0.04938271604938272,0,0,0.04938271604938272,64.00000000000001,0)" xlink:href="#bq"/><use transform="matrix(0.04938271604938272,0,0,0.04938271604938272,67.90123456790126,0)" xlink:href="#bW"/><use transform="matrix(0.04938271604938272,0,0,0.04938271604938272,77.7777777777778,0)" xlink:href="#bI"/><use transform="matrix(0.04938271604938272,0,0,0.04938271604938272,87.65432098765434,0)" xlink:href="#bw"/></g><g id="I"><use transform="matrix(0.04938271604938272,0,0,0.04938271604938272,0,0)" xlink:href="#bt"/><use transform="matrix(0.04938271604938272,0,0,0.04938271604938272,12.790123456790125,0)" xlink:href="#br"/><use transform="matrix(0.04938271604938272,0,0,0.04938271604938272,22.66666666666667,0)" xlink:href="#bJ"/><use transform="matrix(0.04938271604938272,0,0,0.04938271604938272,32.543209876543216,0)" xlink:href="#bF"/><use transform="matrix(0.04938271604938272,0,0,0.04938271604938272,42.41975308641976,0)" xlink:href="#bq"/><use transform="matrix(0.04938271604938272,0,0,0.04938271604938272,46.320987654320994,0)" xlink:href="#bw"/><use transform="matrix(0.04938271604938272,0,0,0.04938271604938272,52.19753086419754,0)" xlink:href="#br"/><use transform="matrix(0.04938271604938272,0,0,0.04938271604938272,62.074074074074076,0)" xlink:href="#bV"/><use transform="matrix(0.04938271604938272,0,0,0.04938271604938272,76.83950617283952,0)" xlink:href="#br"/><use transform="matrix(0.04938271604938272,0,0,0.04938271604938272,86.71604938271606,0)" xlink:href="#bW"/><use transform="matrix(0.04938271604938272,0,0,0.04938271604938272,96.59259259259261,0)" xlink:href="#bC"/><use transform="matrix(0.04938271604938272,0,0,0.04938271604938272,101.53086419753089,0)" xlink:href="#bu"/></g><g id="J"><use transform="matrix(0.04938271604938272,0,0,0.04938271604938272,0,0)" xlink:href="#bD"/><use transform="matrix(0.04938271604938272,0,0,0.04938271604938272,11.851851851851853,0)" xlink:href="#bC"/><use transform="matrix(0.04938271604938272,0,0,0.04938271604938272,16.790123456790127,0)" xlink:href="#bF"/><use transform="matrix(0.04938271604938272,0,0,0.04938271604938272,26.666666666666668,0)" xlink:href="#bE"/><use transform="matrix(0.04938271604938272,0,0,0.04938271604938272,36.543209876543216,0)" xlink:href="#br"/><use transform="matrix(0.04938271604938272,0,0,0.04938271604938272,46.41975308641976,0)" xlink:href="#bW"/><use transform="matrix(0.04938271604938272,0,0,0.04938271604938272,56.2962962962963,0)" xlink:href="#bC"/></g><g id="K"><use transform="matrix(0.04938271604938272,0,0,0.04938271604938272,0,0)" xlink:href="#bD"/><use transform="matrix(0.04938271604938272,0,0,0.04938271604938272,11.851851851851853,0)" xlink:href="#bC"/><use transform="matrix(0.04938271604938272,0,0,0.04938271604938272,16.790123456790127,0)" xlink:href="#bv"/><use transform="matrix(0.04938271604938272,0,0,0.04938271604938272,26.666666666666668,0)" xlink:href="#bC"/><use transform="matrix(0.04938271604938272,0,0,0.04938271604938272,31.60493827160494,0)" xlink:href="#bu"/></g><path fill="#fff" d="M63-220v92h138v28H63V0H30v-248h175v28H63" id="cu"/><path fill="#fff" d="M179-190L93 31C79 59 56 82 12 73V49c39 6 53-20 64-50L1-190h34L92-34l54-156h33" id="cv"/><g id="L"><use transform="matrix(0.04938271604938272,0,0,0.04938271604938272,0,0)" xlink:href="#cu"/><use transform="matrix(0.04938271604938272,0,0,0.04938271604938272,10.814814814814815,0)" xlink:href="#bv"/><use transform="matrix(0.04938271604938272,0,0,0.04938271604938272,20.69135802469136,0)" xlink:href="#bx"/><use transform="matrix(0.04938271604938272,0,0,0.04938271604938272,29.58024691358025,0)" xlink:href="#bF"/><use transform="matrix(0.04938271604938272,0,0,0.04938271604938272,39.4567901234568,0)" xlink:href="#bG"/><use transform="matrix(0.04938271604938272,0,0,0.04938271604938272,43.35802469135803,0)" xlink:href="#bC"/><use transform="matrix(0.04938271604938272,0,0,0.04938271604938272,48.296296296296305,0)" xlink:href="#cv"/></g><path fill="#fff" d="M205 0l-28-72H64L36 0H1l101-248h38L239 0h-34zm-38-99l-47-123c-12 45-31 82-46 123h93" id="cw"/><g id="M"><use transform="matrix(0.04938271604938272,0,0,0.04938271604938272,0,0)" xlink:href="#cw"/><use transform="matrix(0.04938271604938272,0,0,0.04938271604938272,11.851851851851853,0)" xlink:href="#bE"/><use transform="matrix(0.04938271604938272,0,0,0.04938271604938272,21.7283950617284,0)" xlink:href="#bV"/><use transform="matrix(0.04938271604938272,0,0,0.04938271604938272,36.49382716049384,0)" xlink:href="#bq"/><use transform="matrix(0.04938271604938272,0,0,0.04938271604938272,40.39506172839507,0)" xlink:href="#bW"/></g><g id="N"><use transform="matrix(0.04938271604938272,0,0,0.04938271604938272,0,0)" xlink:href="#bn"/><use transform="matrix(0.04938271604938272,0,0,0.04938271604938272,9.876543209876544,0)" xlink:href="#be"/><use transform="matrix(0.04938271604938272,0,0,0.04938271604938272,19.75308641975309,0)" xlink:href="#bi"/><use transform="matrix(0.04938271604938272,0,0,0.04938271604938272,29.629629629629633,0)" xlink:href="#ba"/><use transform="matrix(0.04938271604938272,0,0,0.04938271604938272,33.53086419753087,0)" xlink:href="#bo"/></g><path fill="#fff" d="M76-167L44 0H12l33-167H18l4-23h27c3-47 25-81 82-69l-4 24c-35-8-44 15-46 45h37l-5 23H76" id="cx"/><g id="O"><use transform="matrix(0.04938271604938272,0,0,0.04938271604938272,0,0)" xlink:href="#cx"/><use transform="matrix(0.04938271604938272,0,0,0.04938271604938272,4.938271604938272,0)" xlink:href="#bh"/><use transform="matrix(0.04938271604938272,0,0,0.04938271604938272,14.814814814814817,0)" xlink:href="#ba"/><use transform="matrix(0.04938271604938272,0,0,0.04938271604938272,18.71604938271605,0)" xlink:href="#bl"/><use transform="matrix(0.04938271604938272,0,0,0.04938271604938272,22.617283950617285,0)" xlink:href="#bm"/></g><path fill="#fff" d="M133-28C103 26-5 8 13-77c13-62 24-115 90-117 29-1 46 15 56 35l19-102h32L160 0h-30zM45-64c-2 27 10 43 35 43 54-1 69-50 69-103 0-29-15-46-42-46-53-1-58 58-62 106" id="cy"/><g id="P"><use transform="matrix(0.04938271604938272,0,0,0.04938271604938272,0,0)" xlink:href="#bh"/><use transform="matrix(0.04938271604938272,0,0,0.04938271604938272,9.876543209876544,0)" xlink:href="#bo"/><use transform="matrix(0.04938271604938272,0,0,0.04938271604938272,19.75308641975309,0)" xlink:href="#cy"/></g><g id="Q"><use transform="matrix(0.04938271604938272,0,0,0.04938271604938272,0,0)" xlink:href="#cj"/><use transform="matrix(0.04938271604938272,0,0,0.04938271604938272,9.876543209876544,0)" xlink:href="#bm"/><use transform="matrix(0.04938271604938272,0,0,0.04938271604938272,18.765432098765434,0)" xlink:href="#bb"/><use transform="matrix(0.04938271604938272,0,0,0.04938271604938272,28.641975308641978,0)" xlink:href="#ce"/></g><g id="R"><use transform="matrix(0.04938271604938272,0,0,0.04938271604938272,0,0)" xlink:href="#ce"/><use transform="matrix(0.04938271604938272,0,0,0.04938271604938272,5.8765432098765435,0)" xlink:href="#bb"/><use transform="matrix(0.04938271604938272,0,0,0.04938271604938272,15.753086419753087,0)" xlink:href="#ch"/><use transform="matrix(0.04938271604938272,0,0,0.04938271604938272,20.69135802469136,0)" xlink:href="#ch"/><use transform="matrix(0.04938271604938272,0,0,0.04938271604938272,25.629629629629633,0)" xlink:href="#bb"/><use transform="matrix(0.04938271604938272,0,0,0.04938271604938272,35.50617283950618,0)" xlink:href="#bf"/><use transform="matrix(0.04938271604938272,0,0,0.04938271604938272,50.27160493827161,0)" xlink:href="#cl"/><use transform="matrix(0.04938271604938272,0,0,0.04938271604938272,60.14814814814815,0)" xlink:href="#ch"/><use transform="matrix(0.04938271604938272,0,0,0.04938271604938272,65.08641975308643,0)" xlink:href="#bm"/></g><g id="S"><use transform="matrix(0.04938271604938272,0,0,0.04938271604938272,0,0)" xlink:href="#bl"/><use transform="matrix(0.04938271604938272,0,0,0.04938271604938272,3.901234567901235,0)" xlink:href="#be"/><use transform="matrix(0.04938271604938272,0,0,0.04938271604938272,13.777777777777779,0)" xlink:href="#bi"/><use transform="matrix(0.04938271604938272,0,0,0.04938271604938272,23.654320987654323,0)" xlink:href="#ba"/><use transform="matrix(0.04938271604938272,0,0,0.04938271604938272,27.555555555555557,0)" xlink:href="#bo"/></g><g id="T"><use transform="matrix(0.04938271604938272,0,0,0.04938271604938272,0,0)" xlink:href="#cn"/><use transform="matrix(0.04938271604938272,0,0,0.04938271604938272,11.851851851851853,0)" xlink:href="#ch"/><use transform="matrix(0.04938271604938272,0,0,0.04938271604938272,16.790123456790127,0)" xlink:href="#ch"/><use transform="matrix(0.04938271604938272,0,0,0.04938271604938272,21.7283950617284,0)" xlink:href="#bb"/><use transform="matrix(0.04938271604938272,0,0,0.04938271604938272,31.60493827160494,0)" xlink:href="#bf"/><use transform="matrix(0.04938271604938272,0,0,0.04938271604938272,46.37037037037038,0)" xlink:href="#cl"/><use transform="matrix(0.04938271604938272,0,0,0.04938271604938272,56.24691358024693,0)" xlink:href="#ch"/></g><path fill="#fff" d="M62-99C39-31 123 0 170-40s38-139 58-208h34C234-144 253 4 115 4 49 4 18-43 31-112l26-136h34" id="cz"/><g id="U"><use transform="matrix(0.04938271604938272,0,0,0.04938271604938272,0,0)" xlink:href="#cz"/><use transform="matrix(0.04938271604938272,0,0,0.04938271604938272,12.790123456790125,0)" xlink:href="#bm"/><use transform="matrix(0.04938271604938272,0,0,0.04938271604938272,21.679012345679013,0)" xlink:href="#bb"/><use transform="matrix(0.04938271604938272,0,0,0.04938271604938272,31.555555555555557,0)" xlink:href="#ce"/></g><path fill="#fff" d="M249-183c0 48-29 72-75 77L221 0h-36l-43-103H65L45 0H11l48-248c83 2 190-17 190 65zm-34 3c0-55-74-39-127-41l-18 92c63-1 145 13 145-51" id="cA"/><g id="V"><use transform="matrix(0.04938271604938272,0,0,0.04938271604938272,0,0)" xlink:href="#cA"/><use transform="matrix(0.04938271604938272,0,0,0.04938271604938272,12.790123456790125,0)" xlink:href="#bb"/><use transform="matrix(0.04938271604938272,0,0,0.04938271604938272,22.66666666666667,0)" xlink:href="#cm"/><use transform="matrix(0.04938271604938272,0,0,0.04938271604938272,32.543209876543216,0)" xlink:href="#cj"/><use transform="matrix(0.04938271604938272,0,0,0.04938271604938272,42.41975308641976,0)" xlink:href="#bb"/><use transform="matrix(0.04938271604938272,0,0,0.04938271604938272,52.2962962962963,0)" xlink:href="#bm"/><use transform="matrix(0.04938271604938272,0,0,0.04938271604938272,61.18518518518519,0)" xlink:href="#ch"/><use transform="matrix(0.04938271604938272,0,0,0.04938271604938272,66.12345679012347,0)" xlink:href="#bm"/></g><g id="W"><use transform="matrix(0.04938271604938272,0,0,0.04938271604938272,0,0)" xlink:href="#bg"/><use transform="matrix(0.04938271604938272,0,0,0.04938271604938272,11.851851851851853,0)" xlink:href="#bh"/><use transform="matrix(0.04938271604938272,0,0,0.04938271604938272,21.7283950617284,0)" xlink:href="#bm"/><use transform="matrix(0.04938271604938272,0,0,0.04938271604938272,30.617283950617285,0)" xlink:href="#bm"/><use transform="matrix(0.04938271604938272,0,0,0.04938271604938272,39.50617283950618,0)" xlink:href="#bc"/><use transform="matrix(0.04938271604938272,0,0,0.04938271604938272,52.2962962962963,0)" xlink:href="#be"/><use transform="matrix(0.04938271604938272,0,0,0.04938271604938272,62.17283950617284,0)" xlink:href="#ce"/><use transform="matrix(0.04938271604938272,0,0,0.04938271604938272,68.0493827160494,0)" xlink:href="#cy"/></g><g id="X"><use transform="matrix(0.04938271604938272,0,0,0.04938271604938272,0,0)" xlink:href="#cA"/><use transform="matrix(0.04938271604938272,0,0,0.04938271604938272,12.790123456790125,0)" xlink:href="#bb"/><use transform="matrix(0.04938271604938272,0,0,0.04938271604938272,22.66666666666667,0)" xlink:href="#bm"/><use transform="matrix(0.04938271604938272,0,0,0.04938271604938272,31.555555555555557,0)" xlink:href="#bb"/><use transform="matrix(0.04938271604938272,0,0,0.04938271604938272,41.4320987654321,0)" xlink:href="#ch"/></g><g id="Y"><use transform="matrix(0.05,0,0,0.05,0,0)" xlink:href="#bH"/><use transform="matrix(0.05,0,0,0.05,12.950000000000001,0)" xlink:href="#bI"/><use transform="matrix(0.05,0,0,0.05,22.950000000000003,0)" xlink:href="#bF"/><use transform="matrix(0.05,0,0,0.05,32.95,0)" xlink:href="#bw"/><use transform="matrix(0.05,0,0,0.05,38.900000000000006,0)" xlink:href="#bu"/><use transform="matrix(0.05,0,0,0.05,47.900000000000006,0)" xlink:href="#br"/></g><g id="Z"><use transform="matrix(0.05,0,0,0.05,0,0)" xlink:href="#bT"/><use transform="matrix(0.05,0,0,0.05,12.950000000000001,0)" xlink:href="#bI"/><use transform="matrix(0.05,0,0,0.05,22.950000000000003,0)" xlink:href="#br"/><use transform="matrix(0.05,0,0,0.05,32.95,0)" xlink:href="#bu"/></g><g id="aa"><use transform="matrix(0.05,0,0,0.05,0,0)" xlink:href="#bY"/><use transform="matrix(0.05,0,0,0.05,12.950000000000001,0)" xlink:href="#bI"/><use transform="matrix(0.05,0,0,0.05,22.950000000000003,0)" xlink:href="#bC"/></g><path fill="#fff" d="M108 0H70L1-190h34L89-25l56-165h34" id="cB"/><g id="ab"><use transform="matrix(0.05,0,0,0.05,0,0)" xlink:href="#by"/><use transform="matrix(0.05,0,0,0.05,10,0)" xlink:href="#bv"/><use transform="matrix(0.05,0,0,0.05,20,0)" xlink:href="#cB"/><use transform="matrix(0.05,0,0,0.05,29,0)" xlink:href="#br"/></g><g id="ac"><use transform="matrix(0.05,0,0,0.05,0,0)" xlink:href="#bp"/><use transform="matrix(0.05,0,0,0.05,11.65,0)" xlink:href="#bq"/><use transform="matrix(0.05,0,0,0.05,15.600000000000001,0)" xlink:href="#br"/><use transform="matrix(0.05,0,0,0.05,25.6,0)" xlink:href="#bs"/></g><g id="ad"><use transform="matrix(0.05,0,0,0.05,0,0)" xlink:href="#bz"/><use transform="matrix(0.05,0,0,0.05,12,0)" xlink:href="#br"/><use transform="matrix(0.05,0,0,0.05,22,0)" xlink:href="#bw"/><use transform="matrix(0.05,0,0,0.05,27.950000000000003,0)" xlink:href="#bu"/><use transform="matrix(0.05,0,0,0.05,36.95,0)" xlink:href="#bI"/><use transform="matrix(0.05,0,0,0.05,46.95,0)" xlink:href="#bW"/><use transform="matrix(0.05,0,0,0.05,56.95,0)" xlink:href="#bv"/><use transform="matrix(0.05,0,0,0.05,66.95,0)" xlink:href="#bG"/></g><g id="ae"><use transform="matrix(0.05,0,0,0.05,0,0)" xlink:href="#cw"/><use transform="matrix(0.05,0,0,0.05,12,0)" xlink:href="#bx"/><use transform="matrix(0.05,0,0,0.05,21,0)" xlink:href="#bx"/><use transform="matrix(0.05,0,0,0.05,30,0)" xlink:href="#bI"/><use transform="matrix(0.05,0,0,0.05,40,0)" xlink:href="#bF"/><use transform="matrix(0.05,0,0,0.05,50,0)" xlink:href="#bW"/><use transform="matrix(0.05,0,0,0.05,60,0)" xlink:href="#bC"/></g><path fill="#fff" d="M33 0v-248h34V0H33" id="cC"/><g id="af"><use transform="matrix(0.05,0,0,0.05,0,0)" xlink:href="#cC"/><use transform="matrix(0.05,0,0,0.05,5,0)" xlink:href="#bW"/><use transform="matrix(0.05,0,0,0.05,15,0)" xlink:href="#bS"/><use transform="matrix(0.05,0,0,0.05,20,0)" xlink:href="#bI"/><use transform="matrix(0.05,0,0,0.05,30,0)" xlink:href="#bw"/><use transform="matrix(0.05,0,0,0.05,35.95,0)" xlink:href="#bV"/><use transform="matrix(0.05,0,0,0.05,50.900000000000006,0)" xlink:href="#bv"/><use transform="matrix(0.05,0,0,0.05,60.900000000000006,0)" xlink:href="#bC"/><use transform="matrix(0.05,0,0,0.05,65.9,0)" xlink:href="#bq"/><use transform="matrix(0.05,0,0,0.05,69.85000000000001,0)" xlink:href="#bI"/><use transform="matrix(0.05,0,0,0.05,79.85000000000001,0)" xlink:href="#bW"/></g><g id="ag"><use transform="matrix(0.05,0,0,0.05,0,0)" xlink:href="#bC"/><use transform="matrix(0.05,0,0,0.05,5,0)" xlink:href="#by"/><use transform="matrix(0.05,0,0,0.05,15,0)" xlink:href="#br"/><use transform="matrix(0.05,0,0,0.05,25,0)" xlink:href="#bq"/><use transform="matrix(0.05,0,0,0.05,28.950000000000003,0)" xlink:href="#bw"/></g><g id="ah"><use transform="matrix(0.05,0,0,0.05,0,0)" xlink:href="#bz"/><use transform="matrix(0.05,0,0,0.05,12,0)" xlink:href="#br"/><use transform="matrix(0.05,0,0,0.05,22,0)" xlink:href="#bw"/><use transform="matrix(0.05,0,0,0.05,27.950000000000003,0)" xlink:href="#bu"/><use transform="matrix(0.05,0,0,0.05,36.95,0)" xlink:href="#bI"/><use transform="matrix(0.05,0,0,0.05,46.95,0)" xlink:href="#bW"/><use transform="matrix(0.05,0,0,0.05,56.95,0)" xlink:href="#bv"/><use transform="matrix(0.05,0,0,0.05,66.95,0)" xlink:href="#bG"/></g><g id="ai"><use transform="matrix(0.05,0,0,0.05,0,0)" xlink:href="#bD"/><use transform="matrix(0.05,0,0,0.05,12,0)" xlink:href="#br"/><use transform="matrix(0.05,0,0,0.05,22,0)" xlink:href="#bV"/><use transform="matrix(0.05,0,0,0.05,36.95,0)" xlink:href="#br"/><use transform="matrix(0.05,0,0,0.05,46.95,0)" xlink:href="#bu"/><use transform="matrix(0.05,0,0,0.05,55.95,0)" xlink:href="#bC"/><use transform="matrix(0.05,0,0,0.05,60.95,0)" xlink:href="#br"/><use transform="matrix(0.05,0,0,0.05,70.95,0)" xlink:href="#bw"/></g><g id="aj"><use transform="matrix(0.05,0,0,0.05,0,0)" xlink:href="#bD"/><use transform="matrix(0.05,0,0,0.05,12,0)" xlink:href="#bx"/><use transform="matrix(0.05,0,0,0.05,21,0)" xlink:href="#by"/><use transform="matrix(0.05,0,0,0.05,31,0)" xlink:href="#br"/><use transform="matrix(0.05,0,0,0.05,41,0)" xlink:href="#bE"/><use transform="matrix(0.05,0,0,0.05,51,0)" xlink:href="#bF"/><use transform="matrix(0.05,0,0,0.05,61,0)" xlink:href="#bG"/><use transform="matrix(0.05,0,0,0.05,64.95,0)" xlink:href="#br"/><use transform="matrix(0.05,0,0,0.05,74.95,0)" xlink:href="#bu"/></g><g id="ak"><use transform="matrix(0.05,0,0,0.05,0,0)" xlink:href="#bH"/><use transform="matrix(0.05,0,0,0.05,12.950000000000001,0)" xlink:href="#by"/><use transform="matrix(0.05,0,0,0.05,22.950000000000003,0)" xlink:href="#bv"/><use transform="matrix(0.05,0,0,0.05,32.95,0)" xlink:href="#bW"/><use transform="matrix(0.05,0,0,0.05,42.95,0)" xlink:href="#bA"/><use transform="matrix(0.05,0,0,0.05,52.95,0)" xlink:href="#br"/></g><g id="al"><use transform="matrix(0.05,0,0,0.05,0,0)" xlink:href="#cw"/><use transform="matrix(0.05,0,0,0.05,12,0)" xlink:href="#bx"/><use transform="matrix(0.05,0,0,0.05,21,0)" xlink:href="#bx"/><use transform="matrix(0.05,0,0,0.05,30,0)" xlink:href="#bI"/><use transform="matrix(0.05,0,0,0.05,40,0)" xlink:href="#bF"/><use transform="matrix(0.05,0,0,0.05,50,0)" xlink:href="#bW"/><use transform="matrix(0.05,0,0,0.05,60,0)" xlink:href="#bC"/></g><g id="am"><use transform="matrix(0.05,0,0,0.05,0,0)" xlink:href="#bz"/><use transform="matrix(0.05,0,0,0.05,12,0)" xlink:href="#bv"/><use transform="matrix(0.05,0,0,0.05,22,0)" xlink:href="#bu"/><use transform="matrix(0.05,0,0,0.05,31,0)" xlink:href="#bu"/><use transform="matrix(0.05,0,0,0.05,40,0)" xlink:href="#bs"/><use transform="matrix(0.05,0,0,0.05,52.95,0)" xlink:href="#bI"/><use transform="matrix(0.05,0,0,0.05,62.95,0)" xlink:href="#bw"/><use transform="matrix(0.05,0,0,0.05,68.9,0)" xlink:href="#bE"/></g><path fill="#fff" d="M232-93c-1 65-40 97-104 97C67 4 28-28 28-90v-158h33c8 89-33 224 67 224 102 0 64-133 71-224h33v155" id="cD"/><g id="an"><use transform="matrix(0.05,0,0,0.05,0,0)" xlink:href="#cD"/><use transform="matrix(0.05,0,0,0.05,12.950000000000001,0)" xlink:href="#bU"/><use transform="matrix(0.05,0,0,0.05,22.950000000000003,0)" xlink:href="#bE"/><use transform="matrix(0.05,0,0,0.05,32.95,0)" xlink:href="#bv"/><use transform="matrix(0.05,0,0,0.05,42.95,0)" xlink:href="#bC"/><use transform="matrix(0.05,0,0,0.05,47.95,0)" xlink:href="#br"/></g><g id="ao"><use transform="matrix(0.05,0,0,0.05,0,0)" xlink:href="#bB"/><use transform="matrix(0.05,0,0,0.05,14.950000000000001,0)" xlink:href="#bv"/><use transform="matrix(0.05,0,0,0.05,24.950000000000003,0)" xlink:href="#bW"/><use transform="matrix(0.05,0,0,0.05,34.95,0)" xlink:href="#bv"/><use transform="matrix(0.05,0,0,0.05,44.95,0)" xlink:href="#bA"/><use transform="matrix(0.05,0,0,0.05,54.95,0)" xlink:href="#br"/></g><path fill="#fff" d="M151-220L108 0H75l42-220H32l6-28h203l-5 28h-85" id="cE"/><path fill="#fff" d="M198-190L69 30C53 58 25 83-20 72c4-11-1-27 19-22 33-1 43-29 59-52L20-190h32L79-34l84-156h35" id="cF"/><g id="ap"><use transform="matrix(0.04938271604938272,0,0,0.04938271604938272,0,0)" xlink:href="#cE"/><use transform="matrix(0.04938271604938272,0,0,0.04938271604938272,9.481481481481481,0)" xlink:href="#ce"/><use transform="matrix(0.04938271604938272,0,0,0.04938271604938272,15.358024691358025,0)" xlink:href="#cF"/><use transform="matrix(0.04938271604938272,0,0,0.04938271604938272,24.246913580246915,0)" xlink:href="#ba"/><use transform="matrix(0.04938271604938272,0,0,0.04938271604938272,28.14814814814815,0)" xlink:href="#bo"/><use transform="matrix(0.04938271604938272,0,0,0.04938271604938272,38.0246913580247,0)" xlink:href="#bi"/></g><g id="aq"><use transform="matrix(0.04938271604938272,0,0,0.04938271604938272,0,0)" xlink:href="#ch"/><use transform="matrix(0.04938271604938272,0,0,0.04938271604938272,4.938271604938272,0)" xlink:href="#be"/></g><g id="ar"><use transform="matrix(0.04938271604938272,0,0,0.04938271604938272,0,0)" xlink:href="#cf"/><use transform="matrix(0.04938271604938272,0,0,0.04938271604938272,8.88888888888889,0)" xlink:href="#cg"/><use transform="matrix(0.04938271604938272,0,0,0.04938271604938272,18.765432098765434,0)" xlink:href="#bh"/><use transform="matrix(0.04938271604938272,0,0,0.04938271604938272,28.641975308641978,0)" xlink:href="#bo"/><use transform="matrix(0.04938271604938272,0,0,0.04938271604938272,38.51851851851852,0)" xlink:href="#bi"/><use transform="matrix(0.04938271604938272,0,0,0.04938271604938272,48.39506172839506,0)" xlink:href="#bb"/></g><g id="as"><use transform="matrix(0.04938271604938272,0,0,0.04938271604938272,0,0)" xlink:href="#cl"/><use transform="matrix(0.04938271604938272,0,0,0.04938271604938272,9.876543209876544,0)" xlink:href="#bh"/><use transform="matrix(0.04938271604938272,0,0,0.04938271604938272,19.75308641975309,0)" xlink:href="#bm"/><use transform="matrix(0.04938271604938272,0,0,0.04938271604938272,28.641975308641978,0)" xlink:href="#bm"/><use transform="matrix(0.04938271604938272,0,0,0.04938271604938272,37.53086419753087,0)" xlink:href="#bc"/><use transform="matrix(0.04938271604938272,0,0,0.04938271604938272,50.320987654320994,0)" xlink:href="#be"/><use transform="matrix(0.04938271604938272,0,0,0.04938271604938272,60.19753086419754,0)" xlink:href="#ce"/><use transform="matrix(0.04938271604938272,0,0,0.04938271604938272,66.07407407407408,0)" xlink:href="#cy"/></g><g id="at"><use transform="matrix(0.04938271604938272,0,0,0.04938271604938272,0,0)" xlink:href="#ch"/><use transform="matrix(0.04938271604938272,0,0,0.04938271604938272,4.938271604938272,0)" xlink:href="#be"/></g><g id="au"><use transform="matrix(0.04938271604938272,0,0,0.04938271604938272,0,0)" xlink:href="#ch"/><use transform="matrix(0.04938271604938272,0,0,0.04938271604938272,4.938271604938272,0)" xlink:href="#cg"/><use transform="matrix(0.04938271604938272,0,0,0.04938271604938272,14.814814814814817,0)" xlink:href="#bb"/></g><g id="av"><use transform="matrix(0.04938271604938272,0,0,0.04938271604938272,0,0)" xlink:href="#bm"/><use transform="matrix(0.04938271604938272,0,0,0.04938271604938272,8.88888888888889,0)" xlink:href="#bh"/><use transform="matrix(0.04938271604938272,0,0,0.04938271604938272,18.765432098765434,0)" xlink:href="#bf"/><use transform="matrix(0.04938271604938272,0,0,0.04938271604938272,33.53086419753087,0)" xlink:href="#bb"/></g><g id="aw"><use transform="matrix(0.04938271604938272,0,0,0.04938271604938272,0,0)" xlink:href="#cl"/><use transform="matrix(0.04938271604938272,0,0,0.04938271604938272,9.876543209876544,0)" xlink:href="#bh"/><use transform="matrix(0.04938271604938272,0,0,0.04938271604938272,19.75308641975309,0)" xlink:href="#bm"/><use transform="matrix(0.04938271604938272,0,0,0.04938271604938272,28.641975308641978,0)" xlink:href="#bm"/><use transform="matrix(0.04938271604938272,0,0,0.04938271604938272,37.53086419753087,0)" xlink:href="#bc"/><use transform="matrix(0.04938271604938272,0,0,0.04938271604938272,50.320987654320994,0)" xlink:href="#be"/><use transform="matrix(0.04938271604938272,0,0,0.04938271604938272,60.19753086419754,0)" xlink:href="#ce"/><use transform="matrix(0.04938271604938272,0,0,0.04938271604938272,66.07407407407408,0)" xlink:href="#cy"/></g><g id="ax"><use transform="matrix(0.04938271604938272,0,0,0.04938271604938272,0,0)" xlink:href="#ba"/><use transform="matrix(0.04938271604938272,0,0,0.04938271604938272,3.901234567901235,0)" xlink:href="#bo"/><use transform="matrix(0.04938271604938272,0,0,0.04938271604938272,13.777777777777779,0)" xlink:href="#ch"/><use transform="matrix(0.04938271604938272,0,0,0.04938271604938272,18.71604938271605,0)" xlink:href="#be"/></g><g id="ay"><use transform="matrix(0.04938271604938272,0,0,0.04938271604938272,0,0)" xlink:href="#be"/><use transform="matrix(0.04938271604938272,0,0,0.04938271604938272,9.876543209876544,0)" xlink:href="#bo"/><use transform="matrix(0.04938271604938272,0,0,0.04938271604938272,19.75308641975309,0)" xlink:href="#bb"/></g><g id="az"><use transform="matrix(0.04938271604938272,0,0,0.04938271604938272,0,0)" xlink:href="#ch"/><use transform="matrix(0.04938271604938272,0,0,0.04938271604938272,4.938271604938272,0)" xlink:href="#cg"/><use transform="matrix(0.04938271604938272,0,0,0.04938271604938272,14.814814814814817,0)" xlink:href="#bh"/><use transform="matrix(0.04938271604938272,0,0,0.04938271604938272,24.69135802469136,0)" xlink:href="#ch"/></g><g id="aA"><use transform="matrix(0.04938271604938272,0,0,0.04938271604938272,0,0)" xlink:href="#cy"/><use transform="matrix(0.04938271604938272,0,0,0.04938271604938272,9.876543209876544,0)" xlink:href="#be"/><use transform="matrix(0.04938271604938272,0,0,0.04938271604938272,19.75308641975309,0)" xlink:href="#bb"/><use transform="matrix(0.04938271604938272,0,0,0.04938271604938272,29.629629629629633,0)" xlink:href="#bm"/></g><g id="aB"><use transform="matrix(0.04938271604938272,0,0,0.04938271604938272,0,0)" xlink:href="#bo"/><use transform="matrix(0.04938271604938272,0,0,0.04938271604938272,9.876543209876544,0)" xlink:href="#be"/><use transform="matrix(0.04938271604938272,0,0,0.04938271604938272,19.75308641975309,0)" xlink:href="#ch"/></g><g id="aC"><use transform="matrix(0.04938271604938272,0,0,0.04938271604938272,0,0)" xlink:href="#cx"/><use transform="matrix(0.04938271604938272,0,0,0.04938271604938272,4.938271604938272,0)" xlink:href="#cj"/><use transform="matrix(0.04938271604938272,0,0,0.04938271604938272,14.814814814814817,0)" xlink:href="#bl"/><use transform="matrix(0.04938271604938272,0,0,0.04938271604938272,18.71604938271605,0)" xlink:href="#cx"/><use transform="matrix(0.04938271604938272,0,0,0.04938271604938272,23.654320987654323,0)" xlink:href="#ba"/><use transform="matrix(0.04938271604938272,0,0,0.04938271604938272,27.555555555555557,0)" xlink:href="#bl"/><use transform="matrix(0.04938271604938272,0,0,0.04938271604938272,31.45679012345679,0)" xlink:href="#bl"/></g><g id="aD"><use transform="matrix(0.04938271604938272,0,0,0.04938271604938272,0,0)" xlink:href="#ce"/><use transform="matrix(0.04938271604938272,0,0,0.04938271604938272,5.8765432098765435,0)" xlink:href="#bb"/><use transform="matrix(0.04938271604938272,0,0,0.04938271604938272,15.753086419753087,0)" xlink:href="#cm"/><use transform="matrix(0.04938271604938272,0,0,0.04938271604938272,25.629629629629633,0)" xlink:href="#cj"/><use transform="matrix(0.04938271604938272,0,0,0.04938271604938272,35.50617283950618,0)" xlink:href="#ba"/><use transform="matrix(0.04938271604938272,0,0,0.04938271604938272,39.40740740740741,0)" xlink:href="#ce"/><use transform="matrix(0.04938271604938272,0,0,0.04938271604938272,45.283950617283956,0)" xlink:href="#bb"/><use transform="matrix(0.04938271604938272,0,0,0.04938271604938272,55.1604938271605,0)" xlink:href="#bf"/><use transform="matrix(0.04938271604938272,0,0,0.04938271604938272,69.92592592592594,0)" xlink:href="#bb"/><use transform="matrix(0.04938271604938272,0,0,0.04938271604938272,79.80246913580248,0)" xlink:href="#bo"/><use transform="matrix(0.04938271604938272,0,0,0.04938271604938272,89.67901234567903,0)" xlink:href="#ch"/><use transform="matrix(0.04938271604938272,0,0,0.04938271604938272,94.61728395061729,0)" xlink:href="#bm"/></g><g id="aE"><use transform="matrix(0.04938271604938272,0,0,0.04938271604938272,0,0)" xlink:href="#bD"/><use transform="matrix(0.04938271604938272,0,0,0.04938271604938272,11.851851851851853,0)" xlink:href="#bC"/><use transform="matrix(0.04938271604938272,0,0,0.04938271604938272,16.790123456790127,0)" xlink:href="#bv"/><use transform="matrix(0.04938271604938272,0,0,0.04938271604938272,26.666666666666668,0)" xlink:href="#bC"/><use transform="matrix(0.04938271604938272,0,0,0.04938271604938272,31.60493827160494,0)" xlink:href="#bq"/><use transform="matrix(0.04938271604938272,0,0,0.04938271604938272,35.50617283950618,0)" xlink:href="#bu"/><use transform="matrix(0.04938271604938272,0,0,0.04938271604938272,44.39506172839506,0)" xlink:href="#bC"/><use transform="matrix(0.04938271604938272,0,0,0.04938271604938272,49.333333333333336,0)" xlink:href="#bq"/><use transform="matrix(0.04938271604938272,0,0,0.04938271604938272,53.23456790123457,0)" xlink:href="#bx"/><use transform="matrix(0.04938271604938272,0,0,0.04938271604938272,62.12345679012345,0)" xlink:href="#bu"/></g></defs></g></svg>