<svg xmlns="http://www.w3.org/2000/svg" xmlns:xlink="http://www.w3.org/1999/xlink" xmlns:lucid="lucid" width="1331" height="857"><g transform="translate(-103 -283)" lucid:page-tab-id="0_0"><path d="M0 0h1760v1360H0z" fill="#fff"/><path d="M613.44 646a6 6 0 0 1 6-6h148a6 6 0 0 1 6 6v108a6 6 0 0 1-6 6h-148a6 6 0 0 1-6-6z" stroke="#3a414a" fill="#fff"/><path d="M672.33 693.8c8.4 0 15.32-6.9 15.32-15.3 0-8.5-6.92-15.3-15.32-15.3s-15.3 6.8-15.3 15.3c0 8.4 6.9 15.3 15.3 15.3m.3 6c-14.58 0-26.58 12.3-27.9 28-.2 2 .7 3.9 2.3 5 7.42 4.6 16.2 7.3 25.6 7.3 9.42 0 18.2-2.7 25.6-7.3 1.7-1.1 2.5-3 2.4-5-1.4-15.7-13.4-28-28-28m53.3 1.7v-7.9l7.8-4.5v-4.4h-7.8v-6.4l8.12-5.4v-8.1h-16.22v37.6c-7.1 2.5-12.18 9.2-12.18 17.2 0 10 8.2 18.2 18.28 18.2 10.12 0 18.3-8.2 18.3-18.2 0-9.4-7.2-17.1-16.3-18.1m-2 28.2c-5.6 0-10.1-4.5-10.1-10.1s4.5-10.2 10.1-10.2 10.12 4.6 10.12 10.2-4.52 10.1-10.12 10.1" fill="#f3f3f3"/><use xlink:href="#a" transform="matrix(1,0,0,1,618.4375,645) translate(6.543209876543216 59.44444444444444)"/><use xlink:href="#b" transform="matrix(1,0,0,1,618.4375,645) translate(89.19753086419753 59.44444444444444)"/><path d="M813.44 806a6 6 0 0 1 6-6h148a6 6 0 0 1 6 6v108a6 6 0 0 1-6 6h-148a6 6 0 0 1-6-6z" stroke="#3a414a" fill="#fff"/><path d="M857.23 868.6h31V848c0-1.9 1.6-3.4 3.5-3.4h20.5c1.9 0 3.5 1.5 3.5 3.4v20.6h10.1c7.6-.7 13.5-6.3 13.5-14.2.4-6.6-3.9-13.2-10.48-14.9v-.7c0-11.8-8.52-21.8-19.72-24.4-1.9-.4-3.8-.7-5.8-.7s-4 .3-5.9.7c-9.9 2.3-17.9 10.2-19.6 20.2-1.6-.7-2.6-.7-4.18-.7-9 0-15.9 6.9-16.2 15.9h-.72c-5.3 0-9.6 4.9-9.6 10.2 0 9.3 9.8 8.6 10.1 8.6m63.7 10.9h-12.08v-26.4c0-.4-.12-.7-.4-1-.3-.4-.7-.7-1.32-.7h-10.28c-.52 0-1 .3-1.32.7-.2.3-.4.6-.4 1v26.4h-12c-1.3 0-2.28 1.8-1.3 2.7l18.7 23.6c.6.6 1.92.6 2.6 0l19.2-23.6c.6-.9 0-2.7-1.4-2.7" fill="#f3f3f3"/><use xlink:href="#c" transform="matrix(1,0,0,1,818.4375,805) translate(25.709876543209873 32.77777777777778)"/><use xlink:href="#d" transform="matrix(1,0,0,1,818.4375,805) translate(39.25925925925926 59.44444444444445)"/><use xlink:href="#e" transform="matrix(1,0,0,1,818.4375,805) translate(11.543209876543209 86.11111111111111)"/><use xlink:href="#f" transform="matrix(1,0,0,1,818.4375,805) translate(94.1358024691358 86.11111111111111)"/><path d="M813.44 646a6 6 0 0 1 6-6h148a6 6 0 0 1 6 6v108a6 6 0 0 1-6 6h-148a6 6 0 0 1-6-6z" stroke="#3a414a" fill="#fff"/><path d="M936.03 750v-62.4c0-2.8-1-5.4-2.8-7.4l-23.5-26.5c-.8-.9-1.8-1.6-2.88-2.2-1.62-.9-3.5-1.5-5.4-1.5h-50.6v100h85.18zm-11.1-13.3h-63v-7.4h63v7.4zm0-18.5h-63v-7.5h63v7.5zm0-18.6h-63v-7.4h63v7.4zm-63-25.9h44.52v7.4h-44.52v-7.4z" fill="#f3f3f3"/><use xlink:href="#g" transform="matrix(1,0,0,1,818.4375,645) translate(39.25925925925926 46.111111111111114)"/><use xlink:href="#e" transform="matrix(1,0,0,1,818.4375,645) translate(11.543209876543209 72.77777777777777)"/><use xlink:href="#f" transform="matrix(1,0,0,1,818.4375,645) translate(94.1358024691358 72.77777777777777)"/><path d="M1213.44 806a6 6 0 0 1 6-6h148a6 6 0 0 1 6 6v108a6 6 0 0 1-6 6h-148a6 6 0 0 1-6-6z" stroke="#3a414a" fill="#fff"/><path d="M1254.54 906.3h77.8c6.1 0 11.1-5 11.1-11.1v-63c0-6.1-5-11.1-11.1-11.1h-11.1v-1.8c0-3.1-2.5-5.6-5.6-5.6-3.1 0-5.5 2.5-5.5 5.6v1.8h-33.4v-1.8c0-3.1-2.5-5.6-5.5-5.6-3.1 0-5.6 2.5-5.6 5.6v1.8h-11.1c-6.1 0-11.1 5-11.1 11.1v63c0 6.1 5 11.1 11.1 11.1m63-65.2h14.8v14.8h-14.8v-14.8zm0 22.2h14.8v14.9h-14.8v-14.9zm-22.2-22.2h14.8v14.8h-14.8v-14.8zm0 22.2h14.8v14.9h-14.8v-14.9zm0 22.3h14.8v14.8h-14.8v-14.8zm-22.3-44.5h14.8v14.8h-14.8v-14.8zm0 22.2h14.8v14.9h-14.8v-14.9zm0 22.3h14.8v14.8h-14.8v-14.8zm-18.5-22.3h11.1v14.9h-11.1v-14.9zm0 22.3h11.1v14.8h-11.1v-14.8z" fill="#f3f3f3"/><use xlink:href="#h" transform="matrix(1,0,0,1,1218.4375,805) translate(26.296296296296298 46.111111111111114)"/><use xlink:href="#i" transform="matrix(1,0,0,1,1218.4375,805) translate(30.03086419753086 72.77777777777777)"/><path d="M613.44 966a6 6 0 0 1 6-6h148a6 6 0 0 1 6 6v108a6 6 0 0 1-6 6h-148a6 6 0 0 1-6-6z" stroke="#3a414a" fill="#fff"/><path d="M726.05 1018h-30.92v-6.8h17.2v-37.8h-41.2v37.8h17.2v6.8h-27.5v13.7h-13.7v34.4h34.3v-34.4h-13.7v-6.8h51.4v6.8h-13.7v34.4h34.3v-34.4h-13.68V1018z" fill="#f3f3f3"/><use xlink:href="#j" transform="matrix(1,0,0,1,618.4375,965) translate(21.975308641975303 32.77777777777778)"/><use xlink:href="#k" transform="matrix(1,0,0,1,618.4375,965) translate(51.60493827160494 59.44444444444445)"/><use xlink:href="#l" transform="matrix(1,0,0,1,618.4375,965) translate(34.32098765432099 86.11111111111111)"/><path d="M893.44 761v38" stroke="#3a414a" fill="none"/><path d="M893.9 761h-.94v-.5h.95zM893.9 799.5h-.94v-.5h.95z" stroke="#3a414a" stroke-width=".05" fill="#3a414a"/><path d="M1013.44 486a6 6 0 0 1 6-6h132a6 6 0 0 1 6 6v96a6 6 0 0 1-6 6h-132a6 6 0 0 1-6-6z" stroke="#3a414a" fill="#fff"/><path d="M1029.44 498a6 6 0 0 1 6-6h132a6 6 0 0 1 6 6v96a6 6 0 0 1-6 6h-132a6 6 0 0 1-6-6z" stroke="#3a414a" fill="#fff"/><use xlink:href="#m" transform="matrix(1,0,0,1,1034.4375,497) translate(14.006172839506164 26.77777777777778)"/><use xlink:href="#n" transform="matrix(1,0,0,1,1034.4375,497) translate(17.648148148148145 53.44444444444445)"/><use xlink:href="#o" transform="matrix(1,0,0,1,1034.4375,497) translate(41.074074074074076 80.11111111111111)"/><path d="M1093.44 601v13a6 6 0 0 1-6 6h-188a6 6 0 0 0-6 6v13" stroke="#3a414a" fill="none"/><path d="M1093.9 601h-.94v-.5h.95zM893.9 639.5h-.94v-.5h.95z" stroke="#3a414a" stroke-width=".05" fill="#3a414a"/><path d="M1213.44 966a6 6 0 0 1 6-6h148a6 6 0 0 1 6 6v108a6 6 0 0 1-6 6h-148a6 6 0 0 1-6-6z" stroke="#3a414a" fill="#fff"/><path d="M1282.94 1045.3c7.4 0 14.3-2.2 20.1-6.1.1.1.2.3.3.5l24.7 24.7c1.4 1.3 3.1 2 4.9 2 1.8 0 3.5-.7 4.9-2 1.3-1.4 2-3.1 2-4.9 0-1.8-.7-3.5-2-4.9l-24.7-24.7c-.2-.1-.4-.2-.5-.3 3.9-5.8 6.1-12.7 6.1-20.1 0-19.8-16-35.9-35.8-35.9-19.8 0-35.9 16.1-35.9 35.9 0 19.8 16.1 35.8 35.9 35.8m0-61.4c14.1 0 25.5 11.5 25.5 25.6 0 14.1-11.4 25.5-25.5 25.5s-25.6-11.4-25.6-25.5 11.5-25.6 25.6-25.6" fill="#f3f3f3"/><use xlink:href="#p" transform="matrix(1,0,0,1,1218.4375,965) translate(39.84567901234568 32.77777777777778)"/><use xlink:href="#q" transform="matrix(1,0,0,1,1218.4375,965) translate(26.296296296296298 59.44444444444445)"/><use xlink:href="#i" transform="matrix(1,0,0,1,1218.4375,965) translate(30.03086419753086 86.11111111111111)"/><path d="M1293.44 921v38" stroke="#3a414a" fill="none"/><path d="M1293.9 921h-.94v-.5h.95zM1293.9 959.5h-.94v-.5h.95z" stroke="#3a414a" stroke-width=".05" fill="#3a414a"/><path d="M1013.44 646a6 6 0 0 1 6-6h148a6 6 0 0 1 6 6v108a6 6 0 0 1-6 6h-148a6 6 0 0 1-6-6z" stroke="#3a414a" fill="#fff"/><path d="M1136.03 750v-62.4c0-2.8-1-5.4-2.8-7.4l-23.5-26.5c-.8-.9-1.8-1.6-2.88-2.2-1.62-.9-3.5-1.5-5.4-1.5h-50.6v100h85.18zm-11.1-13.3h-63v-7.4h63v7.4zm0-18.5h-63v-7.5h63v7.5zm0-18.6h-63v-7.4h63v7.4zm-63-25.9h44.52v7.4h-44.52v-7.4z" fill="#f3f3f3"/><use xlink:href="#r" transform="matrix(1,0,0,1,1018.4375,645) translate(23.827160493827158 32.77777777777778)"/><use xlink:href="#d" transform="matrix(1,0,0,1,1018.4375,645) translate(39.25925925925926 59.44444444444445)"/><use xlink:href="#s" transform="matrix(1,0,0,1,1018.4375,645) translate(36.79012345679012 86.11111111111111)"/><path d="M1093.44 601v38" stroke="#3a414a" fill="none"/><path d="M1093.9 601h-.94v-.5h.95zM1093.9 639.5h-.94v-.5h.95z" stroke="#3a414a" stroke-width=".05" fill="#3a414a"/><path d="M1013.44 806a6 6 0 0 1 6-6h148a6 6 0 0 1 6 6v108a6 6 0 0 1-6 6h-148a6 6 0 0 1-6-6z" stroke="#3a414a" fill="#fff"/><path d="M1082.94 885.3c7.4 0 14.3-2.2 20.1-6.1.1.1.2.3.3.5l24.7 24.7c1.4 1.3 3.1 2 4.9 2 1.8 0 3.5-.7 4.9-2 1.3-1.4 2-3.1 2-4.9 0-1.8-.7-3.5-2-4.9l-24.7-24.7c-.2-.1-.4-.2-.5-.3 3.9-5.8 6.1-12.7 6.1-20.1 0-19.8-16-35.9-35.8-35.9-19.8 0-35.9 16.1-35.9 35.9 0 19.8 16.1 35.8 35.9 35.8m0-61.4c14.1 0 25.5 11.5 25.5 25.6 0 14.1-11.4 25.5-25.5 25.5s-25.6-11.4-25.6-25.5 11.5-25.6 25.6-25.6" fill="#f3f3f3"/><use xlink:href="#t" transform="matrix(1,0,0,1,1018.4375,805) translate(1.018518518518519 46.111111111111114)"/><use xlink:href="#d" transform="matrix(1,0,0,1,1018.4375,805) translate(77.5 46.111111111111114)"/><use xlink:href="#s" transform="matrix(1,0,0,1,1018.4375,805) translate(36.79012345679012 72.77777777777777)"/><path d="M1093.44 761v38" stroke="#3a414a" fill="none"/><path d="M1093.9 761h-.94v-.5h.95zM1093.9 799.5h-.94v-.5h.95z" stroke="#3a414a" stroke-width=".05" fill="#3a414a"/><path d="M523.44 486a6 6 0 0 1 6-6h148a6 6 0 0 1 6 6v108a6 6 0 0 1-6 6h-148a6 6 0 0 1-6-6z" stroke="#3a414a" fill="#fff"/><use xlink:href="#u" transform="matrix(1,0,0,1,528.4375,485) translate(18.858024691358025 59.44444444444444)"/><use xlink:href="#o" transform="matrix(1,0,0,1,528.4375,485) translate(79.29012345679013 59.44444444444444)"/><path d="M603.44 601v13a6 6 0 0 0 6 6h78a6 6 0 0 1 6 6v13" stroke="#3a414a" fill="none"/><path d="M603.9 601h-.94v-.5h.95zM693.9 639.5h-.94v-.5h.95z" stroke="#3a414a" stroke-width=".05" fill="#3a414a"/><path d="M1213.44 646a6 6 0 0 1 6-6h148a6 6 0 0 1 6 6v108a6 6 0 0 1-6 6h-148a6 6 0 0 1-6-6z" stroke="#3a414a" fill="#fff"/><use xlink:href="#h" transform="matrix(1,0,0,1,1218.4375,645) translate(26.296296296296298 46.111111111111114)"/><use xlink:href="#v" transform="matrix(1,0,0,1,1218.4375,645) translate(1.018518518518519 72.77777777777777)"/><use xlink:href="#o" transform="matrix(1,0,0,1,1218.4375,645) translate(97.12962962962963 72.77777777777777)"/><path d="M1093.44 601v13a6 6 0 0 0 6 6h188a6 6 0 0 1 6 6v13" stroke="#3a414a" fill="none"/><path d="M1093.9 601h-.94v-.5h.95zM1293.9 639.5h-.94v-.5h.95z" stroke="#3a414a" stroke-width=".05" fill="#3a414a"/><path d="M1293.44 761v38" stroke="#3a414a" fill="none"/><path d="M1293.9 761h-.94v-.5h.95zM1293.9 799.5h-.94v-.5h.95z" stroke="#3a414a" stroke-width=".05" fill="#3a414a"/><path d="M163.44 486a6 6 0 0 1 6-6h148a6 6 0 0 1 6 6v108a6 6 0 0 1-6 6h-148a6 6 0 0 1-6-6z" stroke="#3a414a" fill="#fff"/><path d="M293.44 545.1c1.7 0 2.5-2.4 1.3-3.5l-49.2-49.4-49.3 49.5c-1.2 1.1-.4 3.4 1.3 3.4h8.6V590h26.2v-37.4h22.5V590h26.3v-44.9h12.3zm-76.1-48.6h-14.9v26.3l14.9-14.9v-11.4z" fill="#f3f3f3"/><use xlink:href="#w" transform="matrix(1,0,0,1,168.4375,485) translate(16.41975308641976 59.44444444444444)"/><use xlink:href="#o" transform="matrix(1,0,0,1,168.4375,485) translate(81.72839506172839 59.44444444444444)"/><path d="M343.44 486a6 6 0 0 1 6-6h148a6 6 0 0 1 6 6v108a6 6 0 0 1-6 6h-148a6 6 0 0 1-6-6z" stroke="#3a414a" fill="#fff"/><use xlink:href="#x" transform="matrix(1,0,0,1,348.4375,485) translate(16.97530864197531 59.44444444444444)"/><use xlink:href="#o" transform="matrix(1,0,0,1,348.4375,485) translate(81.17283950617283 59.44444444444444)"/><path d="M588.44 326a6 6 0 0 1 6-6h132a6 6 0 0 1 6 6v96a6 6 0 0 1-6 6h-132a6 6 0 0 1-6-6z" stroke="#3a414a" fill="#fff"/><path d="M604.44 338a6 6 0 0 1 6-6h132a6 6 0 0 1 6 6v96a6 6 0 0 1-6 6h-132a6 6 0 0 1-6-6z" stroke="#3a414a" fill="#fff"/><use xlink:href="#y" transform="matrix(1,0,0,1,609.4375,337) translate(39.839506172839506 40.111111111111114)"/><use xlink:href="#z" transform="matrix(1,0,0,1,609.4375,337) translate(22.679012345679013 66.77777777777777)"/><path d="M668.44 441v13a6 6 0 0 1-6 6h-413a6 6 0 0 0-6 6v13" stroke="#3a414a" fill="none"/><path d="M668.9 441h-.94v-.5h.95zM243.9 479.5h-.94v-.5h.95z" stroke="#3a414a" stroke-width=".05" fill="#3a414a"/><path d="M668.44 441v13a6 6 0 0 1-6 6h-233a6 6 0 0 0-6 6v13" stroke="#3a414a" fill="none"/><path d="M668.9 441h-.94v-.5h.95zM423.9 479.5h-.94v-.5h.95z" stroke="#3a414a" stroke-width=".05" fill="#3a414a"/><path d="M668.44 441v13a6 6 0 0 1-6 6h-53a6 6 0 0 0-6 6v13" stroke="#3a414a" fill="none"/><path d="M668.9 441h-.94v-.5h.95zM603.9 479.5h-.94v-.5h.95z" stroke="#3a414a" stroke-width=".05" fill="#3a414a"/><path d="M668.44 441v13a6 6 0 0 0 6 6h413a6 6 0 0 1 6 6v13" stroke="#3a414a" fill="none"/><path d="M668.9 441h-.94v-.5h.95zM1093.9 479.5h-.94v-.5h.95z" stroke="#3a414a" stroke-width=".05" fill="#3a414a"/><path d="M613.44 806a6 6 0 0 1 6-6h148a6 6 0 0 1 6 6v108a6 6 0 0 1-6 6h-148a6 6 0 0 1-6-6z" stroke="#3a414a" fill="#fff"/><path d="M739.74 836.5l-15.7-15.7-45 45-16.2-16.2-15.7 15.7 31.9 31.9 60.7-60.7z" fill="#f3f3f3"/><g><use xlink:href="#A" transform="matrix(1,0,0,1,618.4375,805) translate(33.02469135802469 59.44444444444444)"/></g><path d="M693.44 921v38" stroke="#3a414a" fill="none"/><path d="M693.9 921h-.94v-.5h.95zM693.9 959.5h-.94v-.5h.95z" stroke="#3a414a" stroke-width=".05" fill="#3a414a"/><path d="M693.44 761v38" stroke="#3a414a" fill="none"/><path d="M693.9 761h-.94v-.5h.95zM693.9 799.5h-.94v-.5h.95z" stroke="#3a414a" stroke-width=".05" fill="#3a414a"/><path d="M433.44 646a6 6 0 0 1 6-6h148a6 6 0 0 1 6 6v108a6 6 0 0 1-6 6h-148a6 6 0 0 1-6-6z" stroke="#3a414a" fill="#fff"/><path d="M470.83 707.4h3.4c1.7 0 3.1.6 3.6 2.3.8 2.7 1.9 4.8 3.2 7.2.9 1.5.7 3.2-.5 4.4l-2.48 2.5c-.7.7-.7 1.9 0 2.6l7.88 7.9c.7.7 1.9.7 2.6 0l2.5-2.5c1.2-1.2 2.9-1.3 4.4-.5 2.4 1.3 5.02 2.4 7.82 3.2 1.58.5 2.8 1.9 2.8 3.6v3.4c0 1 .78 3 1.8 3h11.2c1 0 1.78-2 1.78-3v-3.4c0-1.7 1.2-3.1 2.8-3.6 2.82-.8 5.4-1.9 7.8-3.2 1.5-.8 3.2-.7 4.4.5l2.5 2.5c.7.7 1.9.7 2.6 0l7.9-7.9c.7-.7.7-1.8 0-2.5l-2.5-2.5c-1.2-1.1-1.3-2.8-.5-4.2 1.3-2.4 2.4-4.8 3.2-7.5.5-1.7 1.9-2.3 3.6-2.3h3.42c1 0 1.8-1.9 1.8-2.9v-11.1c0-1.1-.8-.8-1.8-.8h-3.4c-1.7 0-3.12-1.7-3.6-3.3-.8-2.8-1.92-6-3.2-8.4-.9-1.4-.72-3.2.48-4.4l2.5-2.5c.7-.7.7-1.9 0-2.6l-7.9-7.8c-.7-.8-1.9-.8-2.6 0l-2.5 2.4c-1.2 1.2-2.9 1.4-4.4.6-2.4-1.4-4.98-2.5-7.8-3.3-1.6-.5-2.8-1.9-2.8-3.6v-3.4c0-1-.8-.7-1.8-.7h-11.2c-1 0-1.78-.3-1.78.7v3.4c0 1.7-1.22 3.1-2.8 3.6-2.8.8-5.4 1.9-7.8 3.3-1.52.8-3.2.6-4.4-.6l-2.5-2.4c-.7-.8-1.9-.8-2.62 0l-7.88 7.8c-.7.8-.7 2 0 2.7l2.5 2.6c1.2 1.1 1.38 3 .5 4.5-1.3 2.4-2.4 5.3-3.2 8.1-.5 1.6-1.92 3.3-3.6 3.3h-3.42c-1 0-1.8-.3-1.8.8v11.1c0 1 .8 2.9 1.8 2.9m42.6-30.7c12.3 0 22.2 9.9 22.2 22.2 0 12.3-9.9 22.2-22.2 22.2-12.3 0-22.18-9.9-22.18-22.2 0-12.3 9.88-22.2 22.2-22.2" fill="#f3f3f3"/><g><use xlink:href="#B" transform="matrix(1,0,0,1,438.4375,645) translate(33.67283950617284 32.77777777777778)"/><use xlink:href="#C" transform="matrix(1,0,0,1,438.4375,645) translate(26.296296296296283 59.44444444444445)"/><use xlink:href="#D" transform="matrix(1,0,0,1,438.4375,645) translate(46.01851851851852 86.11111111111111)"/></g><path d="M603.44 601v13a6 6 0 0 1-6 6h-78a6 6 0 0 0-6 6v13" stroke="#3a414a" fill="none"/><path d="M603.9 601h-.94v-.5h.95zM513.9 639.5h-.94v-.5h.95z" stroke="#3a414a" stroke-width=".05" fill="#3a414a"/><defs><path fill="#3a414a" d="M205 0l-28-72H64L36 0H1l101-248h38L239 0h-34zm-38-99l-47-123c-12 45-31 82-46 123h93" id="E"/><path fill="#3a414a" d="M59-47c-2 24 18 29 38 22v24C64 9 27 4 27-40v-127H5v-23h24l9-43h21v43h35v23H59v120" id="F"/><path fill="#3a414a" d="M100-194c63 0 86 42 84 106H49c0 40 14 67 53 68 26 1 43-12 49-29l28 8c-11 28-37 45-77 45C44 4 14-33 15-96c1-61 26-98 85-98zm52 81c6-60-76-77-97-28-3 7-6 17-6 28h103" id="G"/><path fill="#3a414a" d="M210-169c-67 3-38 105-44 169h-31v-121c0-29-5-50-35-48C34-165 62-65 56 0H25l-1-190h30c1 10-1 24 2 32 10-44 99-50 107 0 11-21 27-35 58-36 85-2 47 119 55 194h-31v-121c0-29-5-49-35-48" id="H"/><path fill="#3a414a" d="M115-194c55 1 70 41 70 98S169 2 115 4C84 4 66-9 55-30l1 105H24l-1-265h31l2 30c10-21 28-34 59-34zm-8 174c40 0 45-34 45-75s-6-73-45-74c-42 0-51 32-51 76 0 43 10 73 51 73" id="I"/><g id="a"><use transform="matrix(0.06172839506172839,0,0,0.06172839506172839,0,0)" xlink:href="#E"/><use transform="matrix(0.06172839506172839,0,0,0.06172839506172839,14.814814814814813,0)" xlink:href="#F"/><use transform="matrix(0.06172839506172839,0,0,0.06172839506172839,20.98765432098765,0)" xlink:href="#F"/><use transform="matrix(0.06172839506172839,0,0,0.06172839506172839,27.16049382716049,0)" xlink:href="#G"/><use transform="matrix(0.06172839506172839,0,0,0.06172839506172839,39.50617283950617,0)" xlink:href="#H"/><use transform="matrix(0.06172839506172839,0,0,0.06172839506172839,57.96296296296296,0)" xlink:href="#I"/><use transform="matrix(0.06172839506172839,0,0,0.06172839506172839,70.30864197530865,0)" xlink:href="#F"/></g><path fill="#3a414a" d="M30 0v-248h33v221h125V0H30" id="J"/><path fill="#3a414a" d="M100-194c62-1 85 37 85 99 1 63-27 99-86 99S16-35 15-95c0-66 28-99 85-99zM99-20c44 1 53-31 53-75 0-43-8-75-51-75s-53 32-53 75 10 74 51 75" id="K"/><path fill="#3a414a" d="M177-190C167-65 218 103 67 71c-23-6-38-20-44-43l32-5c15 47 100 32 89-28v-30C133-14 115 1 83 1 29 1 15-40 15-95c0-56 16-97 71-98 29-1 48 16 59 35 1-10 0-23 2-32h30zM94-22c36 0 50-32 50-73 0-42-14-75-50-75-39 0-46 34-46 75s6 73 46 73" id="L"/><path fill="#3a414a" d="M24-231v-30h32v30H24zM24 0v-190h32V0H24" id="M"/><path fill="#3a414a" d="M117-194c89-4 53 116 60 194h-32v-121c0-31-8-49-39-48C34-167 62-67 57 0H25l-1-190h30c1 10-1 24 2 32 11-22 29-35 61-36" id="N"/><g id="b"><use transform="matrix(0.06172839506172839,0,0,0.06172839506172839,0,0)" xlink:href="#J"/><use transform="matrix(0.06172839506172839,0,0,0.06172839506172839,12.345679012345679,0)" xlink:href="#K"/><use transform="matrix(0.06172839506172839,0,0,0.06172839506172839,24.691358024691358,0)" xlink:href="#L"/><use transform="matrix(0.06172839506172839,0,0,0.06172839506172839,37.03703703703704,0)" xlink:href="#M"/><use transform="matrix(0.06172839506172839,0,0,0.06172839506172839,41.91358024691358,0)" xlink:href="#N"/></g><path fill="#3a414a" d="M30-248c118-7 216 8 213 122C240-48 200 0 122 0H30v-248zM63-27c89 8 146-16 146-99s-60-101-146-95v194" id="O"/><path fill="#3a414a" d="M206 0h-36l-40-164L89 0H53L-1-190h32L70-26l43-164h34l41 164 42-164h31" id="P"/><path fill="#3a414a" d="M24 0v-261h32V0H24" id="Q"/><path fill="#3a414a" d="M141-36C126-15 110 5 73 4 37 3 15-17 15-53c-1-64 63-63 125-63 3-35-9-54-41-54-24 1-41 7-42 31l-33-3c5-37 33-52 76-52 45 0 72 20 72 64v82c-1 20 7 32 28 27v20c-31 9-61-2-59-35zM48-53c0 20 12 33 32 33 41-3 63-29 60-74-43 2-92-5-92 41" id="R"/><path fill="#3a414a" d="M85-194c31 0 48 13 60 33l-1-100h32l1 261h-30c-2-10 0-23-3-31C134-8 116 4 85 4 32 4 16-35 15-94c0-66 23-100 70-100zm9 24c-40 0-46 34-46 75 0 40 6 74 45 74 42 0 51-32 51-76 0-42-9-74-50-73" id="S"/><g id="c"><use transform="matrix(0.06172839506172839,0,0,0.06172839506172839,0,0)" xlink:href="#O"/><use transform="matrix(0.06172839506172839,0,0,0.06172839506172839,15.987654320987653,0)" xlink:href="#K"/><use transform="matrix(0.06172839506172839,0,0,0.06172839506172839,28.333333333333332,0)" xlink:href="#P"/><use transform="matrix(0.06172839506172839,0,0,0.06172839506172839,44.32098765432099,0)" xlink:href="#N"/><use transform="matrix(0.06172839506172839,0,0,0.06172839506172839,56.666666666666664,0)" xlink:href="#Q"/><use transform="matrix(0.06172839506172839,0,0,0.06172839506172839,61.54320987654321,0)" xlink:href="#K"/><use transform="matrix(0.06172839506172839,0,0,0.06172839506172839,73.88888888888889,0)" xlink:href="#R"/><use transform="matrix(0.06172839506172839,0,0,0.06172839506172839,86.23456790123457,0)" xlink:href="#S"/></g><path fill="#3a414a" d="M212-179c-10-28-35-45-73-45-59 0-87 40-87 99 0 60 29 101 89 101 43 0 62-24 78-52l27 14C228-24 195 4 139 4 59 4 22-46 18-125c-6-104 99-153 187-111 19 9 31 26 39 46" id="T"/><path fill="#3a414a" d="M84 4C-5 8 30-112 23-190h32v120c0 31 7 50 39 49 72-2 45-101 50-169h31l1 190h-30c-1-10 1-25-2-33-11 22-28 36-60 37" id="U"/><path fill="#3a414a" d="M114-163C36-179 61-72 57 0H25l-1-190h30c1 12-1 29 2 39 6-27 23-49 58-41v29" id="V"/><path fill="#3a414a" d="M135-143c-3-34-86-38-87 0 15 53 115 12 119 90S17 21 10-45l28-5c4 36 97 45 98 0-10-56-113-15-118-90-4-57 82-63 122-42 12 7 21 19 24 35" id="W"/><g id="d"><use transform="matrix(0.06172839506172839,0,0,0.06172839506172839,0,0)" xlink:href="#T"/><use transform="matrix(0.06172839506172839,0,0,0.06172839506172839,15.987654320987653,0)" xlink:href="#K"/><use transform="matrix(0.06172839506172839,0,0,0.06172839506172839,28.333333333333332,0)" xlink:href="#U"/><use transform="matrix(0.06172839506172839,0,0,0.06172839506172839,40.67901234567901,0)" xlink:href="#V"/><use transform="matrix(0.06172839506172839,0,0,0.06172839506172839,48.02469135802469,0)" xlink:href="#W"/><use transform="matrix(0.06172839506172839,0,0,0.06172839506172839,59.1358024691358,0)" xlink:href="#G"/></g><g id="e"><use transform="matrix(0.06172839506172839,0,0,0.06172839506172839,0,0)" xlink:href="#T"/><use transform="matrix(0.06172839506172839,0,0,0.06172839506172839,15.987654320987653,0)" xlink:href="#R"/><use transform="matrix(0.06172839506172839,0,0,0.06172839506172839,28.333333333333332,0)" xlink:href="#F"/><use transform="matrix(0.06172839506172839,0,0,0.06172839506172839,34.50617283950617,0)" xlink:href="#R"/><use transform="matrix(0.06172839506172839,0,0,0.06172839506172839,46.85185185185185,0)" xlink:href="#Q"/><use transform="matrix(0.06172839506172839,0,0,0.06172839506172839,51.72839506172839,0)" xlink:href="#K"/><use transform="matrix(0.06172839506172839,0,0,0.06172839506172839,64.07407407407408,0)" xlink:href="#L"/></g><path fill="#3a414a" d="M30-248c87 1 191-15 191 75 0 78-77 80-158 76V0H30v-248zm33 125c57 0 124 11 124-50 0-59-68-47-124-48v98" id="X"/><path fill="#3a414a" d="M63-220v92h138v28H63V0H30v-248h175v28H63" id="Y"/><g id="f"><use transform="matrix(0.06172839506172839,0,0,0.06172839506172839,0,0)" xlink:href="#X"/><use transform="matrix(0.06172839506172839,0,0,0.06172839506172839,14.814814814814813,0)" xlink:href="#O"/><use transform="matrix(0.06172839506172839,0,0,0.06172839506172839,30.80246913580247,0)" xlink:href="#Y"/></g><g id="g"><use transform="matrix(0.06172839506172839,0,0,0.06172839506172839,0,0)" xlink:href="#T"/><use transform="matrix(0.06172839506172839,0,0,0.06172839506172839,15.987654320987653,0)" xlink:href="#K"/><use transform="matrix(0.06172839506172839,0,0,0.06172839506172839,28.333333333333332,0)" xlink:href="#U"/><use transform="matrix(0.06172839506172839,0,0,0.06172839506172839,40.67901234567901,0)" xlink:href="#V"/><use transform="matrix(0.06172839506172839,0,0,0.06172839506172839,48.02469135802469,0)" xlink:href="#W"/><use transform="matrix(0.06172839506172839,0,0,0.06172839506172839,59.1358024691358,0)" xlink:href="#G"/></g><path fill="#3a414a" d="M96-169c-40 0-48 33-48 73s9 75 48 75c24 0 41-14 43-38l32 2c-6 37-31 61-74 61-59 0-76-41-82-99-10-93 101-131 147-64 4 7 5 14 7 22l-32 3c-4-21-16-35-41-35" id="Z"/><g id="h"><use transform="matrix(0.06172839506172839,0,0,0.06172839506172839,0,0)" xlink:href="#E"/><use transform="matrix(0.06172839506172839,0,0,0.06172839506172839,14.814814814814813,0)" xlink:href="#Z"/><use transform="matrix(0.06172839506172839,0,0,0.06172839506172839,25.925925925925924,0)" xlink:href="#R"/><use transform="matrix(0.06172839506172839,0,0,0.06172839506172839,38.2716049382716,0)" xlink:href="#S"/><use transform="matrix(0.06172839506172839,0,0,0.06172839506172839,50.61728395061728,0)" xlink:href="#G"/><use transform="matrix(0.06172839506172839,0,0,0.06172839506172839,62.962962962962955,0)" xlink:href="#H"/><use transform="matrix(0.06172839506172839,0,0,0.06172839506172839,81.41975308641975,0)" xlink:href="#M"/><use transform="matrix(0.06172839506172839,0,0,0.06172839506172839,86.29629629629629,0)" xlink:href="#Z"/></g><g id="i"><use transform="matrix(0.06172839506172839,0,0,0.06172839506172839,0,0)" xlink:href="#T"/><use transform="matrix(0.06172839506172839,0,0,0.06172839506172839,15.987654320987653,0)" xlink:href="#R"/><use transform="matrix(0.06172839506172839,0,0,0.06172839506172839,28.333333333333332,0)" xlink:href="#Q"/><use transform="matrix(0.06172839506172839,0,0,0.06172839506172839,33.20987654320987,0)" xlink:href="#G"/><use transform="matrix(0.06172839506172839,0,0,0.06172839506172839,45.55555555555555,0)" xlink:href="#N"/><use transform="matrix(0.06172839506172839,0,0,0.06172839506172839,57.90123456790123,0)" xlink:href="#S"/><use transform="matrix(0.06172839506172839,0,0,0.06172839506172839,70.24691358024691,0)" xlink:href="#R"/><use transform="matrix(0.06172839506172839,0,0,0.06172839506172839,82.5925925925926,0)" xlink:href="#V"/></g><path fill="#3a414a" d="M106-169C34-169 62-67 57 0H25v-261h32l-1 103c12-21 28-36 61-36 89 0 53 116 60 194h-32v-121c2-32-8-49-39-48" id="aa"/><path fill="#3a414a" d="M9 0v-24l116-142H16v-24h144v24L44-24h123V0H9" id="ab"/><g id="j"><use transform="matrix(0.06172839506172839,0,0,0.06172839506172839,0,0)" xlink:href="#E"/><use transform="matrix(0.06172839506172839,0,0,0.06172839506172839,14.814814814814813,0)" xlink:href="#U"/><use transform="matrix(0.06172839506172839,0,0,0.06172839506172839,27.160493827160494,0)" xlink:href="#F"/><use transform="matrix(0.06172839506172839,0,0,0.06172839506172839,33.333333333333336,0)" xlink:href="#aa"/><use transform="matrix(0.06172839506172839,0,0,0.06172839506172839,45.67901234567901,0)" xlink:href="#K"/><use transform="matrix(0.06172839506172839,0,0,0.06172839506172839,58.02469135802469,0)" xlink:href="#V"/><use transform="matrix(0.06172839506172839,0,0,0.06172839506172839,65.37037037037037,0)" xlink:href="#M"/><use transform="matrix(0.06172839506172839,0,0,0.06172839506172839,70.24691358024691,0)" xlink:href="#ab"/><use transform="matrix(0.06172839506172839,0,0,0.06172839506172839,81.35802469135803,0)" xlink:href="#G"/><use transform="matrix(0.06172839506172839,0,0,0.06172839506172839,93.70370370370371,0)" xlink:href="#S"/></g><path fill="#3a414a" d="M232-93c-1 65-40 97-104 97C67 4 28-28 28-90v-158h33c8 89-33 224 67 224 102 0 64-133 71-224h33v155" id="ac"/><g id="k"><use transform="matrix(0.06172839506172839,0,0,0.06172839506172839,0,0)" xlink:href="#ac"/><use transform="matrix(0.06172839506172839,0,0,0.06172839506172839,15.987654320987653,0)" xlink:href="#W"/><use transform="matrix(0.06172839506172839,0,0,0.06172839506172839,27.098765432098766,0)" xlink:href="#G"/><use transform="matrix(0.06172839506172839,0,0,0.06172839506172839,39.44444444444444,0)" xlink:href="#V"/></g><path fill="#3a414a" d="M185-189c-5-48-123-54-124 2 14 75 158 14 163 119 3 78-121 87-175 55-17-10-28-26-33-46l33-7c5 56 141 63 141-1 0-78-155-14-162-118-5-82 145-84 179-34 5 7 8 16 11 25" id="ad"/><g id="l"><use transform="matrix(0.06172839506172839,0,0,0.06172839506172839,0,0)" xlink:href="#ad"/><use transform="matrix(0.06172839506172839,0,0,0.06172839506172839,14.814814814814813,0)" xlink:href="#M"/><use transform="matrix(0.06172839506172839,0,0,0.06172839506172839,19.691358024691354,0)" xlink:href="#F"/><use transform="matrix(0.06172839506172839,0,0,0.06172839506172839,25.864197530864192,0)" xlink:href="#G"/><use transform="matrix(0.06172839506172839,0,0,0.06172839506172839,38.20987654320987,0)" xlink:href="#H"/><use transform="matrix(0.06172839506172839,0,0,0.06172839506172839,56.66666666666666,0)" xlink:href="#R"/><use transform="matrix(0.06172839506172839,0,0,0.06172839506172839,69.01234567901234,0)" xlink:href="#I"/></g><g id="m"><use transform="matrix(0.06172839506172839,0,0,0.06172839506172839,0,0)" xlink:href="#T"/><use transform="matrix(0.06172839506172839,0,0,0.06172839506172839,15.987654320987653,0)" xlink:href="#K"/><use transform="matrix(0.06172839506172839,0,0,0.06172839506172839,28.333333333333332,0)" xlink:href="#N"/><use transform="matrix(0.06172839506172839,0,0,0.06172839506172839,40.67901234567901,0)" xlink:href="#F"/><use transform="matrix(0.06172839506172839,0,0,0.06172839506172839,46.851851851851855,0)" xlink:href="#M"/><use transform="matrix(0.06172839506172839,0,0,0.06172839506172839,51.7283950617284,0)" xlink:href="#N"/><use transform="matrix(0.06172839506172839,0,0,0.06172839506172839,64.07407407407408,0)" xlink:href="#U"/><use transform="matrix(0.06172839506172839,0,0,0.06172839506172839,76.41975308641976,0)" xlink:href="#M"/><use transform="matrix(0.06172839506172839,0,0,0.06172839506172839,81.2962962962963,0)" xlink:href="#N"/><use transform="matrix(0.06172839506172839,0,0,0.06172839506172839,93.64197530864199,0)" xlink:href="#L"/></g><path fill="#3a414a" d="M30 0v-248h187v28H63v79h144v27H63v87h162V0H30" id="ae"/><g id="n"><use transform="matrix(0.06172839506172839,0,0,0.06172839506172839,0,0)" xlink:href="#ae"/><use transform="matrix(0.06172839506172839,0,0,0.06172839506172839,14.814814814814813,0)" xlink:href="#S"/><use transform="matrix(0.06172839506172839,0,0,0.06172839506172839,27.160493827160494,0)" xlink:href="#U"/><use transform="matrix(0.06172839506172839,0,0,0.06172839506172839,39.50617283950617,0)" xlink:href="#Z"/><use transform="matrix(0.06172839506172839,0,0,0.06172839506172839,50.61728395061728,0)" xlink:href="#R"/><use transform="matrix(0.06172839506172839,0,0,0.06172839506172839,62.962962962962955,0)" xlink:href="#F"/><use transform="matrix(0.06172839506172839,0,0,0.06172839506172839,69.1358024691358,0)" xlink:href="#M"/><use transform="matrix(0.06172839506172839,0,0,0.06172839506172839,74.01234567901234,0)" xlink:href="#K"/><use transform="matrix(0.06172839506172839,0,0,0.06172839506172839,86.35802469135803,0)" xlink:href="#N"/></g><g id="o"><use transform="matrix(0.06172839506172839,0,0,0.06172839506172839,0,0)" xlink:href="#X"/><use transform="matrix(0.06172839506172839,0,0,0.06172839506172839,14.814814814814813,0)" xlink:href="#R"/><use transform="matrix(0.06172839506172839,0,0,0.06172839506172839,27.160493827160494,0)" xlink:href="#L"/><use transform="matrix(0.06172839506172839,0,0,0.06172839506172839,39.50617283950617,0)" xlink:href="#G"/></g><g id="p"><use transform="matrix(0.06172839506172839,0,0,0.06172839506172839,0,0)" xlink:href="#ad"/><use transform="matrix(0.06172839506172839,0,0,0.06172839506172839,14.814814814814813,0)" xlink:href="#G"/><use transform="matrix(0.06172839506172839,0,0,0.06172839506172839,27.160493827160494,0)" xlink:href="#R"/><use transform="matrix(0.06172839506172839,0,0,0.06172839506172839,39.50617283950617,0)" xlink:href="#V"/><use transform="matrix(0.06172839506172839,0,0,0.06172839506172839,46.85185185185185,0)" xlink:href="#Z"/><use transform="matrix(0.06172839506172839,0,0,0.06172839506172839,57.96296296296296,0)" xlink:href="#aa"/></g><g id="q"><use transform="matrix(0.06172839506172839,0,0,0.06172839506172839,0,0)" xlink:href="#E"/><use transform="matrix(0.06172839506172839,0,0,0.06172839506172839,14.814814814814813,0)" xlink:href="#Z"/><use transform="matrix(0.06172839506172839,0,0,0.06172839506172839,25.925925925925924,0)" xlink:href="#R"/><use transform="matrix(0.06172839506172839,0,0,0.06172839506172839,38.2716049382716,0)" xlink:href="#S"/><use transform="matrix(0.06172839506172839,0,0,0.06172839506172839,50.61728395061728,0)" xlink:href="#G"/><use transform="matrix(0.06172839506172839,0,0,0.06172839506172839,62.962962962962955,0)" xlink:href="#H"/><use transform="matrix(0.06172839506172839,0,0,0.06172839506172839,81.41975308641975,0)" xlink:href="#M"/><use transform="matrix(0.06172839506172839,0,0,0.06172839506172839,86.29629629629629,0)" xlink:href="#Z"/></g><path fill="#3a414a" d="M33 0v-248h34V0H33" id="af"/><path fill="#3a414a" d="M108 0H70L1-190h34L89-25l56-165h34" id="ag"/><g id="r"><use transform="matrix(0.06172839506172839,0,0,0.06172839506172839,0,0)" xlink:href="#af"/><use transform="matrix(0.06172839506172839,0,0,0.06172839506172839,6.172839506172839,0)" xlink:href="#N"/><use transform="matrix(0.06172839506172839,0,0,0.06172839506172839,18.51851851851852,0)" xlink:href="#F"/><use transform="matrix(0.06172839506172839,0,0,0.06172839506172839,24.691358024691358,0)" xlink:href="#G"/><use transform="matrix(0.06172839506172839,0,0,0.06172839506172839,37.03703703703704,0)" xlink:href="#V"/><use transform="matrix(0.06172839506172839,0,0,0.06172839506172839,44.382716049382715,0)" xlink:href="#R"/><use transform="matrix(0.06172839506172839,0,0,0.06172839506172839,56.72839506172839,0)" xlink:href="#Z"/><use transform="matrix(0.06172839506172839,0,0,0.06172839506172839,67.8395061728395,0)" xlink:href="#F"/><use transform="matrix(0.06172839506172839,0,0,0.06172839506172839,74.01234567901234,0)" xlink:href="#M"/><use transform="matrix(0.06172839506172839,0,0,0.06172839506172839,78.88888888888889,0)" xlink:href="#ag"/><use transform="matrix(0.06172839506172839,0,0,0.06172839506172839,90,0)" xlink:href="#G"/></g><g id="s"><use transform="matrix(0.06172839506172839,0,0,0.06172839506172839,0,0)" xlink:href="#T"/><use transform="matrix(0.06172839506172839,0,0,0.06172839506172839,15.987654320987653,0)" xlink:href="#R"/><use transform="matrix(0.06172839506172839,0,0,0.06172839506172839,28.333333333333332,0)" xlink:href="#F"/><use transform="matrix(0.06172839506172839,0,0,0.06172839506172839,34.50617283950617,0)" xlink:href="#R"/><use transform="matrix(0.06172839506172839,0,0,0.06172839506172839,46.85185185185185,0)" xlink:href="#Q"/><use transform="matrix(0.06172839506172839,0,0,0.06172839506172839,51.72839506172839,0)" xlink:href="#K"/><use transform="matrix(0.06172839506172839,0,0,0.06172839506172839,64.07407407407408,0)" xlink:href="#L"/></g><g id="t"><use transform="matrix(0.06172839506172839,0,0,0.06172839506172839,0,0)" xlink:href="#ad"/><use transform="matrix(0.06172839506172839,0,0,0.06172839506172839,14.814814814814813,0)" xlink:href="#G"/><use transform="matrix(0.06172839506172839,0,0,0.06172839506172839,27.160493827160494,0)" xlink:href="#R"/><use transform="matrix(0.06172839506172839,0,0,0.06172839506172839,39.50617283950617,0)" xlink:href="#V"/><use transform="matrix(0.06172839506172839,0,0,0.06172839506172839,46.85185185185185,0)" xlink:href="#Z"/><use transform="matrix(0.06172839506172839,0,0,0.06172839506172839,57.96296296296296,0)" xlink:href="#aa"/></g><g id="u"><use transform="matrix(0.06172839506172839,0,0,0.06172839506172839,0,0)" xlink:href="#J"/><use transform="matrix(0.06172839506172839,0,0,0.06172839506172839,12.345679012345679,0)" xlink:href="#K"/><use transform="matrix(0.06172839506172839,0,0,0.06172839506172839,24.691358024691358,0)" xlink:href="#L"/><use transform="matrix(0.06172839506172839,0,0,0.06172839506172839,37.03703703703704,0)" xlink:href="#M"/><use transform="matrix(0.06172839506172839,0,0,0.06172839506172839,41.91358024691358,0)" xlink:href="#N"/></g><g id="v"><use transform="matrix(0.06172839506172839,0,0,0.06172839506172839,0,0)" xlink:href="#T"/><use transform="matrix(0.06172839506172839,0,0,0.06172839506172839,15.987654320987653,0)" xlink:href="#R"/><use transform="matrix(0.06172839506172839,0,0,0.06172839506172839,28.333333333333332,0)" xlink:href="#Q"/><use transform="matrix(0.06172839506172839,0,0,0.06172839506172839,33.20987654320987,0)" xlink:href="#G"/><use transform="matrix(0.06172839506172839,0,0,0.06172839506172839,45.55555555555555,0)" xlink:href="#N"/><use transform="matrix(0.06172839506172839,0,0,0.06172839506172839,57.90123456790123,0)" xlink:href="#S"/><use transform="matrix(0.06172839506172839,0,0,0.06172839506172839,70.24691358024691,0)" xlink:href="#R"/><use transform="matrix(0.06172839506172839,0,0,0.06172839506172839,82.5925925925926,0)" xlink:href="#V"/></g><path fill="#3a414a" d="M197 0v-115H63V0H30v-248h33v105h134v-105h34V0h-34" id="ah"/><g id="w"><use transform="matrix(0.06172839506172839,0,0,0.06172839506172839,0,0)" xlink:href="#ah"/><use transform="matrix(0.06172839506172839,0,0,0.06172839506172839,15.987654320987653,0)" xlink:href="#K"/><use transform="matrix(0.06172839506172839,0,0,0.06172839506172839,28.333333333333332,0)" xlink:href="#H"/><use transform="matrix(0.06172839506172839,0,0,0.06172839506172839,46.79012345679012,0)" xlink:href="#G"/></g><path fill="#3a414a" d="M115-194c53 0 69 39 70 98 0 66-23 100-70 100C84 3 66-7 56-30L54 0H23l1-261h32v101c10-23 28-34 59-34zm-8 174c40 0 45-34 45-75 0-40-5-75-45-74-42 0-51 32-51 76 0 43 10 73 51 73" id="ai"/><g id="x"><use transform="matrix(0.06172839506172839,0,0,0.06172839506172839,0,0)" xlink:href="#E"/><use transform="matrix(0.06172839506172839,0,0,0.06172839506172839,14.814814814814813,0)" xlink:href="#ai"/><use transform="matrix(0.06172839506172839,0,0,0.06172839506172839,27.160493827160494,0)" xlink:href="#K"/><use transform="matrix(0.06172839506172839,0,0,0.06172839506172839,39.50617283950617,0)" xlink:href="#U"/><use transform="matrix(0.06172839506172839,0,0,0.06172839506172839,51.85185185185185,0)" xlink:href="#F"/></g><path fill="#3a414a" d="M141 0L90-78 38 0H4l68-98-65-92h35l48 74 47-74h35l-64 92 68 98h-35" id="aj"/><g id="y"><use transform="matrix(0.06172839506172839,0,0,0.06172839506172839,0,0)" xlink:href="#af"/><use transform="matrix(0.06172839506172839,0,0,0.06172839506172839,6.172839506172839,0)" xlink:href="#N"/><use transform="matrix(0.06172839506172839,0,0,0.06172839506172839,18.51851851851852,0)" xlink:href="#S"/><use transform="matrix(0.06172839506172839,0,0,0.06172839506172839,30.864197530864196,0)" xlink:href="#G"/><use transform="matrix(0.06172839506172839,0,0,0.06172839506172839,43.20987654320987,0)" xlink:href="#aj"/></g><path fill="#3a414a" d="M179-190L93 31C79 59 56 82 12 73V49c39 6 53-20 64-50L1-190h34L92-34l54-156h33" id="ak"/><g id="z"><use transform="matrix(0.06172839506172839,0,0,0.06172839506172839,0,0)" xlink:href="#O"/><use transform="matrix(0.06172839506172839,0,0,0.06172839506172839,15.987654320987653,0)" xlink:href="#M"/><use transform="matrix(0.06172839506172839,0,0,0.06172839506172839,20.864197530864196,0)" xlink:href="#V"/><use transform="matrix(0.06172839506172839,0,0,0.06172839506172839,28.209876543209873,0)" xlink:href="#G"/><use transform="matrix(0.06172839506172839,0,0,0.06172839506172839,40.55555555555555,0)" xlink:href="#Z"/><use transform="matrix(0.06172839506172839,0,0,0.06172839506172839,51.66666666666666,0)" xlink:href="#F"/><use transform="matrix(0.06172839506172839,0,0,0.06172839506172839,57.8395061728395,0)" xlink:href="#K"/><use transform="matrix(0.06172839506172839,0,0,0.06172839506172839,70.18518518518518,0)" xlink:href="#V"/><use transform="matrix(0.06172839506172839,0,0,0.06172839506172839,77.53086419753086,0)" xlink:href="#ak"/></g><g id="A"><use transform="matrix(0.06172839506172839,0,0,0.06172839506172839,0,0)" xlink:href="#ad"/><use transform="matrix(0.06172839506172839,0,0,0.06172839506172839,14.814814814814813,0)" xlink:href="#U"/><use transform="matrix(0.06172839506172839,0,0,0.06172839506172839,27.160493827160494,0)" xlink:href="#Z"/><use transform="matrix(0.06172839506172839,0,0,0.06172839506172839,38.27160493827161,0)" xlink:href="#Z"/><use transform="matrix(0.06172839506172839,0,0,0.06172839506172839,49.38271604938272,0)" xlink:href="#G"/><use transform="matrix(0.06172839506172839,0,0,0.06172839506172839,61.7283950617284,0)" xlink:href="#W"/><use transform="matrix(0.06172839506172839,0,0,0.06172839506172839,72.8395061728395,0)" xlink:href="#W"/></g><path fill="#3a414a" d="M233-177c-1 41-23 64-60 70L243 0h-38l-65-103H63V0H30v-248c88 3 205-21 203 71zM63-129c60-2 137 13 137-47 0-61-80-42-137-45v92" id="al"/><path fill="#3a414a" d="M145-31C134-9 116 4 85 4 32 4 16-35 15-94c0-59 17-99 70-100 32-1 48 14 60 33 0-11-1-24 2-32h30l-1 268h-32zM93-21c41 0 51-33 51-76s-8-73-50-73c-40 0-46 35-46 75s5 74 45 74" id="am"/><g id="B"><use transform="matrix(0.06172839506172839,0,0,0.06172839506172839,0,0)" xlink:href="#al"/><use transform="matrix(0.06172839506172839,0,0,0.06172839506172839,15.987654320987653,0)" xlink:href="#G"/><use transform="matrix(0.06172839506172839,0,0,0.06172839506172839,28.333333333333332,0)" xlink:href="#am"/><use transform="matrix(0.06172839506172839,0,0,0.06172839506172839,40.67901234567901,0)" xlink:href="#U"/><use transform="matrix(0.06172839506172839,0,0,0.06172839506172839,53.02469135802469,0)" xlink:href="#G"/><use transform="matrix(0.06172839506172839,0,0,0.06172839506172839,65.37037037037037,0)" xlink:href="#W"/><use transform="matrix(0.06172839506172839,0,0,0.06172839506172839,76.48148148148148,0)" xlink:href="#F"/></g><g id="C"><use transform="matrix(0.06172839506172839,0,0,0.06172839506172839,0,0)" xlink:href="#X"/><use transform="matrix(0.06172839506172839,0,0,0.06172839506172839,14.814814814814813,0)" xlink:href="#R"/><use transform="matrix(0.06172839506172839,0,0,0.06172839506172839,27.160493827160494,0)" xlink:href="#W"/><use transform="matrix(0.06172839506172839,0,0,0.06172839506172839,38.27160493827161,0)" xlink:href="#W"/><use transform="matrix(0.06172839506172839,0,0,0.06172839506172839,49.38271604938272,0)" xlink:href="#P"/><use transform="matrix(0.06172839506172839,0,0,0.06172839506172839,65.37037037037038,0)" xlink:href="#K"/><use transform="matrix(0.06172839506172839,0,0,0.06172839506172839,77.71604938271606,0)" xlink:href="#V"/><use transform="matrix(0.06172839506172839,0,0,0.06172839506172839,85.06172839506175,0)" xlink:href="#S"/></g><g id="D"><use transform="matrix(0.06172839506172839,0,0,0.06172839506172839,0,0)" xlink:href="#al"/><use transform="matrix(0.06172839506172839,0,0,0.06172839506172839,15.987654320987653,0)" xlink:href="#G"/><use transform="matrix(0.06172839506172839,0,0,0.06172839506172839,28.333333333333332,0)" xlink:href="#W"/><use transform="matrix(0.06172839506172839,0,0,0.06172839506172839,39.44444444444444,0)" xlink:href="#G"/><use transform="matrix(0.06172839506172839,0,0,0.06172839506172839,51.79012345679012,0)" xlink:href="#F"/></g></defs></g></svg>