<svg xmlns="http://www.w3.org/2000/svg" xmlns:xlink="http://www.w3.org/1999/xlink" xmlns:lucid="lucid" width="3058.41" height="2189.84"><g transform="translate(0 0)" lucid:page-tab-id="SNiYZtAKuKMC"><path d="M100 2120H46a6 6 0 0 1-6-6V92.92a6 6 0 0 1 6-6h54zM101 86.92h95V420h-95M101 420h95v1700h-95" stroke="#a9a9a9" stroke-width="2" fill="#f5fbff"/><path d="M196 86.92h2798a6 6 0 0 1 6 6V420H196zM3000 420v1694a6 6 0 0 1-6 6H196V420z" stroke="#a9a9a9" stroke-width="2" fill="none"/><use xlink:href="#a" transform="matrix(-1.8369701987210297e-16,-1,1,-1.8369701987210297e-16,40.00000000000023,2120) translate(890.3127170138889 36.77625868055556)"/><use xlink:href="#b" transform="matrix(-1.8369701987210297e-16,-1,1,-1.8369701987210297e-16,40.00000000000023,2120) translate(970.3257378472223 36.77625868055556)"/><use xlink:href="#c" transform="matrix(-1.8369701987210297e-16,-1,1,-1.8369701987210297e-16,40.00000000000023,2120) translate(1023.6677517361111 36.77625868055556)"/><use xlink:href="#d" transform="matrix(-1.8369701987210297e-16,-1,1,-1.8369701987210297e-16,40.00000000000023,2120) translate(1090.3452690972222 36.77625868055556)"/><use xlink:href="#e" transform="matrix(1,0,0,1,100,86.9212152720088) translate(15.161241319444443 162.06293402777777)"/><use xlink:href="#f" transform="matrix(1,0,0,1,100,86.9212152720088) translate(8.493489583333329 185.50043402777777)"/><use xlink:href="#g" transform="matrix(1,0,0,1,100,420) translate(16.49479166666667 844.0755208333334)"/><use xlink:href="#h" transform="matrix(1,0,0,1,100,420) translate(16.49479166666667 872.2005208333334)"/><path d="M1025.42 252.7c0 14.56-11.8 26.37-26.36 26.37-14.55 0-26.35-11.8-26.35-26.36 0-14.55 11.8-26.34 26.37-26.34 14.55 0 26.35 11.8 26.35 26.35z" stroke="#a9a9a9" stroke-width="2"/><path d="M1418.83 200c-11.64 0-21.08 9.44-21.08 21.08v63.26c0 11.64 9.44 21.08 21.08 21.08h168.67c11.65 0 21.1-9.44 21.1-21.08v-63.26c0-11.64-9.45-21.08-21.1-21.08z" stroke="#a9a9a9" stroke-width="2" fill="#f5fbff"/><use xlink:href="#i" transform="matrix(1,0,0,1,1405.7462041566246,208.00000000000003) translate(25.488281250000014 51.0986328125)"/><use xlink:href="#j" transform="matrix(1,0,0,1,1405.7462041566246,208.00000000000003) translate(97.5 51.0986328125)"/><path d="M1027.92 252.7h348.2" stroke="#bdf139" stroke-width="3" fill="none"/><path d="M1027.96 254.2h-1.68l.14-1.46-.04-1.5h1.58z" stroke="#bdf139" stroke-width=".05" fill="#bdf139"/><path d="M1391.9 252.7l-14.27 4.65v-9.28z" stroke="#bdf139" stroke-width="3" fill="#bdf139"/><use xlink:href="#k" transform="matrix(1,0,0,1,1178.244366716041,225.2831988607095) translate(0 18.489583333333332)"/><path d="M1365 625.8c-11.65 0-21.1 9.43-21.1 21.07v63.25c0 11.65 9.45 21.1 21.1 21.1h196.34c11.64 0 21.08-9.45 21.08-21.1v-63.25c0-11.64-9.44-21.08-21.08-21.08z" stroke="#a9a9a9" stroke-width="2" fill="#f5fbff"/><use xlink:href="#l" transform="matrix(1,0,0,1,1351.9094579716339,633.7886328942562) translate(57.49121093750001 51.0986328125)"/><use xlink:href="#m" transform="matrix(1,0,0,1,1351.9094579716339,633.7886328942562) translate(117.5009765625 51.0986328125)"/><path d="M1503.17 307.92v204.53" stroke="#bdf139" stroke-width="3" fill="none"/><path d="M1504.64 307.96h-2.95v-1.54h2.94z" stroke="#bdf139" stroke-width=".05" fill="#bdf139"/><path d="M1503.17 528.22l-4.64-14.26h9.27z" stroke="#bdf139" stroke-width="3" fill="#bdf139"/><use xlink:href="#n" transform="matrix(1,0,0,1,1511.1659004891549,343.03521169959794) translate(0 18.489583333333332)"/><use xlink:href="#o" transform="matrix(1,0,0,1,1511.1659004891549,343.03521169959794) translate(80.01302083333334 18.489583333333332)"/><path d="M1463.17 555.58v48.59" stroke="#bdf139" stroke-width="3" fill="none"/><path d="M1464.64 555.62h-2.95v-1.54h2.94z" stroke="#bdf139" stroke-width=".05" fill="#bdf139"/><path d="M1463.17 619.93l-4.64-14.26h9.27z" stroke="#bdf139" stroke-width="3" fill="#bdf139"/><path d="M995.66 1500c-11.64 0-21.08 9.44-21.08 21.08v63.26c0 11.64 9.44 21.08 21.08 21.08h168.68c11.64 0 21.08-9.44 21.08-21.08v-63.26c0-11.64-9.44-21.08-21.08-21.08z" stroke="#a9a9a9" stroke-width="2" fill="#f5fbff"/><use xlink:href="#p" transform="matrix(1,0,0,1,982.5803038615464,1508) translate(37.49023437500001 51.0986328125)"/><use xlink:href="#q" transform="matrix(1,0,0,1,982.5803038615464,1508) translate(97.5 51.0986328125)"/><path d="M1408 733.7v83.38a6 6 0 0 1-6 6H706a6 6 0 0 0-6 6v184.96" stroke="#bdf139" stroke-width="3" fill="none"/><path d="M1409.47 733.75h-2.94v-1.54h2.94z" stroke="#bdf139" stroke-width=".05" fill="#bdf139"/><path d="M700 1029.8l-4.63-14.26h9.26z" stroke="#bdf139" stroke-width="3" fill="#bdf139"/><use xlink:href="#r" transform="matrix(1,0,0,1,929.179973512727,795.6521354224355) translate(0 18.489583333333332)"/><use xlink:href="#s" transform="matrix(1,0,0,1,929.179973512727,795.6521354224355) translate(53.342013888888886 18.489583333333332)"/><use xlink:href="#t" transform="matrix(1,0,0,1,929.179973512727,795.6521354224355) translate(120.01953125 18.489583333333332)"/><path d="M1080 1393.17v85.2" stroke="#bdf139" stroke-width="3" fill="none"/><path d="M1081.47 1393.2h-2.94v-1.53h2.94z" stroke="#bdf139" stroke-width=".05" fill="#bdf139"/><path d="M1080 1494.15l-4.63-14.27h9.27z" stroke="#bdf139" stroke-width="3" fill="#bdf139"/><path d="M694.58 1140.2v58.18" stroke="#bdf139" stroke-width="3" fill="none"/><path d="M696.05 1140.24h-2.94v-1.54h2.95z" stroke="#bdf139" stroke-width=".05" fill="#bdf139"/><path d="M694.58 1214.15l-4.63-14.27h9.27z" stroke="#bdf139" stroke-width="3" fill="#bdf139"/><path d="M734.58 1241.5v42.5a6 6 0 0 0 6 6H1034a6 6 0 0 1 6 6v54.05" stroke="#bdf139" stroke-width="3" fill="none"/><path d="M736.05 1241.54h-2.94v-.54h2.95z" stroke="#bdf139" stroke-width=".05" fill="#bdf139"/><path d="M1040 1365.8l-4.63-14.25h9.27z" stroke="#bdf139" stroke-width="3" fill="#bdf139"/><use xlink:href="#u" transform="matrix(1,0,0,1,772.8748884002107,1262.5733506944443) translate(0 18.489583333333332)"/><use xlink:href="#v" transform="matrix(1,0,0,1,772.8748884002107,1262.5733506944443) translate(133.35503472222226 18.489583333333332)"/><path d="M2281.08 1035.66c-11.64 0-21.08 9.44-21.08 21.08V1120c0 11.64 9.44 21.08 21.08 21.08h168.68c11.64 0 21.08-9.44 21.08-21.1v-63.24c0-11.64-9.44-21.08-21.1-21.08z" stroke="#a9a9a9" stroke-width="2" fill="#f5fbff"/><use xlink:href="#l" transform="matrix(1,0,0,1,2267.999999902962,1043.6590883954614) translate(25.488281250000014 40.556640625)"/><use xlink:href="#w" transform="matrix(1,0,0,1,2267.999999902962,1043.6590883954614) translate(85.498046875 40.556640625)"/><use xlink:href="#x" transform="matrix(1,0,0,1,2267.999999902962,1043.6590883954614) translate(73.49609375 61.640625)"/><path d="M1520 733.7v83.38a6 6 0 0 0 6 6h793.42a6 6 0 0 1 6 6v63.38" stroke="#bdf139" stroke-width="3" fill="none"/><path d="M1521.47 733.75h-2.94v-1.54h2.94z" stroke="#bdf139" stroke-width=".05" fill="#bdf139"/><path d="M2325.42 908.23l-4.64-14.27h9.27z" stroke="#bdf139" stroke-width="3" fill="#bdf139"/><use xlink:href="#y" transform="matrix(1,0,0,1,1817.1165112101078,795.6521354224355) translate(0 18.489583333333332)"/><use xlink:href="#t" transform="matrix(1,0,0,1,1817.1165112101078,795.6521354224355) translate(106.6840277777778 18.489583333333332)"/><path d="M2365.42 935.58v78.46" stroke="#bdf139" stroke-width="3" fill="none"/><path d="M2366.9 935.62h-2.95v-1.54h2.95z" stroke="#bdf139" stroke-width=".05" fill="#bdf139"/><path d="M2365.42 1029.8l-4.64-14.26h9.27z" stroke="#bdf139" stroke-width="3" fill="#bdf139"/><path d="M1463.17 733.7v280.34" stroke="#bdf139" stroke-width="3" fill="none"/><path d="M1464.64 733.75h-2.95v-1.54h2.94z" stroke="#bdf139" stroke-width=".05" fill="#bdf139"/><path d="M1463.17 1029.8l-4.64-14.26h9.27z" stroke="#bdf139" stroke-width="3" fill="#bdf139"/><use xlink:href="#z" transform="matrix(1,0,0,1,1471.1659002950778,860.0070593393033) translate(0.0049999999999954525 18.489583333333332)"/><use xlink:href="#A" transform="matrix(1,0,0,1,1471.1659002950778,860.0070593393033) translate(120.02453125000002 18.489583333333332)"/><use xlink:href="#B" transform="matrix(1,0,0,1,1471.1659002950778,860.0070593393033) translate(33.34375868055555 41.916232638888886)"/><path d="M1080 1607.92v125.4" stroke="#bdf139" stroke-width="3" fill="none"/><path d="M1081.47 1607.96h-2.94v-1.54h2.94z" stroke="#bdf139" stroke-width=".05" fill="#bdf139"/><path d="M1080 1749.1l-4.63-14.27h9.27z" stroke="#bdf139" stroke-width="3" fill="#bdf139"/><use xlink:href="#C" transform="matrix(1,0,0,1,1088.0000001940764,1668.4711434618202) translate(0 18.489583333333332)"/><use xlink:href="#D" transform="matrix(1,0,0,1,1088.0000001940764,1668.4711434618202) translate(40.006510416666664 18.489583333333332)"/><use xlink:href="#E" transform="matrix(1,0,0,1,1088.0000001940764,1668.4711434618202) translate(120.01953125 18.489583333333332)"/><path d="M1423.17 1241.5v42.5a6 6 0 0 1-6 6H1126a6 6 0 0 0-6 6v54.05" stroke="#bdf139" stroke-width="3" fill="none"/><path d="M1424.64 1241.54h-2.95v-.54h2.94z" stroke="#bdf139" stroke-width=".05" fill="#bdf139"/><path d="M1120 1365.8l-4.63-14.25h9.27z" stroke="#bdf139" stroke-width="3" fill="#bdf139"/><use xlink:href="#F" transform="matrix(1,0,0,1,1176.2656305608482,1262.5733506944443) translate(0 18.48958333333333)"/><use xlink:href="#G" transform="matrix(1,0,0,1,1176.2656305608482,1262.5733506944443) translate(80.01302083333331 18.48958333333333)"/><path d="M1463.17 1140.2v58.18" stroke="#bdf139" stroke-width="3" fill="none"/><path d="M1464.64 1140.24h-2.95v-1.54h2.94z" stroke="#bdf139" stroke-width=".05" fill="#bdf139"/><path d="M1463.17 1214.15l-4.64-14.27h9.27z" stroke="#bdf139" stroke-width="3" fill="#bdf139"/><path d="M995.66 1754.95c-11.64 0-21.08 9.44-21.08 21.08v63.26c0 11.63 9.44 21.07 21.08 21.07h168.68c11.64 0 21.08-9.44 21.08-21.08v-63.27c0-11.64-9.44-21.08-21.08-21.08z" stroke="#a9a9a9" stroke-width="2" fill="#f5fbff"/><path d="M992.58 1797.66v20m-10 0v-10h20v10" stroke="#a9a9a9" stroke-width="2" fill="none"/><use xlink:href="#H" transform="matrix(1,0,0,1,1012.5803038615464,1762.949240229196) translate(3.6204969618055998 51.16639539930556)"/><use xlink:href="#I" transform="matrix(1,0,0,1,1012.5803038615464,1762.949240229196) translate(64.29703776041669 51.16639539930556)"/><path d="M1584.92 678.5H1878.38" stroke="#ff8f8f" stroke-width="3" fill="none"/><path d="M1584.96 679.97h-1.54v-2.95h1.54z" stroke="#ff8f8f" stroke-width=".05" fill="#ff8f8f"/><path d="M1894.14 678.5l-14.26 4.63v-9.27z" stroke="#ff8f8f" stroke-width="3" fill="#ff8f8f"/><use xlink:href="#J" transform="matrix(1,0,0,1,1654.5300870624615,651.0718316916287) translate(0 18.48958333333333)"/><use xlink:href="#G" transform="matrix(1,0,0,1,1654.5300870624615,651.0718316916287) translate(66.6775173611111 18.48958333333333)"/><path d="M2325.42 1241.5V1356a6 6 0 0 1-6 6h-288a6 6 0 0 0-6 6v95.35" stroke="#bdf139" stroke-width="3" fill="none"/><path d="M2326.9 1241.54h-2.95v-.54h2.95z" stroke="#bdf139" stroke-width=".05" fill="#bdf139"/><path d="M2025.42 1479.12l-4.64-14.27h9.28z" stroke="#bdf139" stroke-width="3" fill="#bdf139"/><use xlink:href="#K" transform="matrix(1,0,0,1,2062.4891229326163,1334.560089472495) translate(0 18.489583333333332)"/><use xlink:href="#t" transform="matrix(1,0,0,1,2062.4891229326163,1334.560089472495) translate(106.6840277777778 18.489583333333332)"/><path d="M2430.5 1242.5v112.3a6 6 0 0 0 6 6h262.92a6 6 0 0 1 6 6v93.18" stroke="#bdf139" stroke-width="3" fill="none"/><path d="M2431.98 1242.54h-2.95V1241h2.95z" stroke="#bdf139" stroke-width=".05" fill="#bdf139"/><path d="M2705.42 1475.74l-4.64-14.26h9.27z" stroke="#bdf139" stroke-width="3" fill="#bdf139"/><use xlink:href="#L" transform="matrix(1,0,0,1,2471.028281572014,1333.3717850668681) translate(0 18.489583333333332)"/><use xlink:href="#t" transform="matrix(1,0,0,1,2471.028281572014,1333.3717850668681) translate(120.01953125000003 18.489583333333332)"/><path d="M2365.42 1143.58v54.8" stroke="#bdf139" stroke-width="3" fill="none"/><path d="M2366.9 1143.62h-2.95v-1.54h2.95z" stroke="#bdf139" stroke-width=".05" fill="#bdf139"/><path d="M2365.42 1214.14l-4.64-14.26h9.27z" stroke="#bdf139" stroke-width="3" fill="#bdf139"/><path d="M2365.42 1242.5v220.85" stroke="#bdf139" stroke-width="3" fill="none"/><path d="M2366.9 1242.54h-2.95V1241h2.95z" stroke="#bdf139" stroke-width=".05" fill="#bdf139"/><path d="M2365.42 1479.12l-4.64-14.27h9.27z" stroke="#bdf139" stroke-width="3" fill="#bdf139"/><use xlink:href="#M" transform="matrix(1,0,0,1,2373.4196964295693,1405.9331736538995) translate(0 18.489583333333332)"/><use xlink:href="#t" transform="matrix(1,0,0,1,2373.4196964295693,1405.9331736538995) translate(80.01302083333334 18.489583333333332)"/><path d="M1000 1376.67a6 6 0 0 1 6-6h148a6 6 0 0 1 6 6v8a6 6 0 0 1-6 6h-148a6 6 0 0 1-6-6z" stroke="#c3f7c8" stroke-width="2"/><path d="M2285.42 1805.37a6 6 0 0 1 6-6h148a6 6 0 0 1 6 6v8a6 6 0 0 1-6 6h-148a6 6 0 0 1-6-6z" stroke="#ff8f8f" stroke-width="2"/><path d="M2025.42 1589.52v127.56a6 6 0 0 0 6 6h288a6 6 0 0 1 6 6v49.67" stroke="#ff8f8f" stroke-width="3" fill="none"/><path d="M2026.9 1589.56h-2.96v-1.54h2.95z" stroke="#ff8f8f" stroke-width=".05" fill="#ff8f8f"/><path d="M2325.42 1794.52l-4.64-14.27h9.27z" stroke="#ff8f8f" stroke-width="3" fill="#ff8f8f"/><use xlink:href="#C" transform="matrix(1,0,0,1,2033.4196963325303,1625.3829005952055) translate(0 18.489583333333332)"/><use xlink:href="#N" transform="matrix(1,0,0,1,2033.4196963325303,1625.3829005952055) translate(40.006510416666664 18.489583333333332)"/><path d="M2365.42 1589.52v188.22" stroke="#ff8f8f" stroke-width="3" fill="none"/><path d="M2366.9 1589.56h-2.95v-1.54h2.95z" stroke="#ff8f8f" stroke-width=".05" fill="#ff8f8f"/><path d="M2365.42 1793.5l-4.64-14.25h9.27z" stroke="#ff8f8f" stroke-width="3" fill="#ff8f8f"/><use xlink:href="#C" transform="matrix(1,0,0,1,2373.4196964295693,1636.2108075456613) translate(0 18.489583333333332)"/><use xlink:href="#N" transform="matrix(1,0,0,1,2373.4196964295693,1636.2108075456613) translate(40.006510416666664 18.489583333333332)"/><path d="M2705.42 1586.14v130.94a6 6 0 0 1-6 6h-288a6 6 0 0 0-6 6v49.67" stroke="#ff8f8f" stroke-width="3" fill="none"/><path d="M2706.9 1586.18h-2.95v-1.54h2.95z" stroke="#ff8f8f" stroke-width=".05" fill="#ff8f8f"/><path d="M2405.42 1794.52l-4.64-14.27h9.27z" stroke="#ff8f8f" stroke-width="3" fill="#ff8f8f"/><use xlink:href="#C" transform="matrix(1,0,0,1,2713.4196965266083,1637.9655710371017) translate(0 18.489583333333332)"/><use xlink:href="#N" transform="matrix(1,0,0,1,2713.4196965266083,1637.9655710371017) translate(40.006510416666664 18.489583333333332)"/><path d="M2365.42 1821.87v155.2a6 6 0 0 0 6 6H2884a6 6 0 0 0 6-6v-1148a6 6 0 0 0-6-6h-472.58a6 6 0 0 0-6 6v63.4" stroke="#ff8f8f" stroke-width="3" fill="none"/><path d="M2366.9 1821.9h-2.95v-1.53h2.95z" stroke="#ff8f8f" stroke-width=".05" fill="#ff8f8f"/><path d="M2405.42 908.23l-4.64-14.27h9.27z" stroke="#ff8f8f" stroke-width="3" fill="#ff8f8f"/><use xlink:href="#O" transform="matrix(1,0,0,1,2304.077682443641,1888.1191609505534) translate(0 18.489583333333332)"/><path d="M972.08 1807.66H346a6 6 0 0 1-6-6V954.7" stroke="#ff8f8f" stroke-width="3" fill="none"/><path d="M973.58 1809.13h-1.54v-2.95h1.54z" stroke="#ff8f8f" stroke-width=".05" fill="#ff8f8f"/><path d="M340 938.93l4.63 14.27h-9.26z" stroke="#ff8f8f" stroke-width="3" fill="#ff8f8f"/><use xlink:href="#C" transform="matrix(1,0,0,1,582.4398825867206,1780.232439021711) translate(0 18.489583333333332)"/><use xlink:href="#P" transform="matrix(1,0,0,1,582.4398825867206,1780.232439021711) translate(40.006510416666664 18.489583333333332)"/><use xlink:href="#Q" transform="matrix(1,0,0,1,582.4398825867206,1780.232439021711) translate(106.68402777777777 18.489583333333332)"/><use xlink:href="#R" transform="matrix(1,0,0,1,582.4398825867206,1780.232439021711) translate(146.69053819444443 18.489583333333332)"/><use xlink:href="#S" transform="matrix(1,0,0,1,582.4398825867206,1780.232439021711) translate(213.36805555555554 18.489583333333332)"/><path d="M654.58 1241.5v42.5a6 6 0 0 1-6 6H386a6 6 0 0 1-6-6V953.7" stroke="#ff8f8f" stroke-width="3" fill="none"/><path d="M656.05 1241.54h-2.94v-.54h2.95z" stroke="#ff8f8f" stroke-width=".05" fill="#ff8f8f"/><path d="M380 937.93l4.63 14.27h-9.26z" stroke="#ff8f8f" stroke-width="3" fill="#ff8f8f"/><use xlink:href="#C" transform="matrix(1,0,0,1,467.51734362781355,1262.5733506944443) translate(0 18.489583333333332)"/><use xlink:href="#N" transform="matrix(1,0,0,1,467.51734362781355,1262.5733506944443) translate(40.006510416666664 18.489583333333332)"/><path d="M1832.7 1393.17V2044a6 6 0 0 1-6 6H306a6 6 0 0 1-6-6V953.7" stroke="#ff8f8f" stroke-width="3" fill="none"/><path d="M1834.18 1393.2h-2.95v-1.53h2.95z" stroke="#ff8f8f" stroke-width=".05" fill="#ff8f8f"/><path d="M300 937.93l4.63 14.27h-9.26z" stroke="#ff8f8f" stroke-width="3" fill="#ff8f8f"/><use xlink:href="#O" transform="matrix(1,0,0,1,991.4702169046467,2022.5733506944446) translate(0 18.489583333333332)"/><path d="M1503.17 1241.5v42.5a6 6 0 0 0 6 6h277.54a6 6 0 0 1 6 6v54.05" stroke="#ff8f8f" stroke-width="3" fill="none"/><path d="M1504.64 1241.54h-2.95v-.54h2.94z" stroke="#ff8f8f" stroke-width=".05" fill="#ff8f8f"/><path d="M1792.7 1365.8l-4.63-14.25h9.28z" stroke="#ff8f8f" stroke-width="3" fill="#ff8f8f"/><use xlink:href="#C" transform="matrix(1,0,0,1,1603.5449436071788,1262.5733506944443) translate(0 18.489583333333332)"/><use xlink:href="#N" transform="matrix(1,0,0,1,1603.5449436071788,1262.5733506944443) translate(40.006510416666664 18.489583333333332)"/><path d="M1752.7 1376.67a6 6 0 0 1 6-6h148a6 6 0 0 1 6 6v8a6 6 0 0 1-6 6h-148a6 6 0 0 1-6-6z" stroke="#ff8f8f" stroke-width="2"/><path d="M2297.38 1242.5v41.5a6 6 0 0 1-6 6H1878.7a6 6 0 0 0-6 6v54.05" stroke="#ff8f8f" stroke-width="3" fill="none"/><path d="M2298.85 1242.54h-2.95V1241h2.95z" stroke="#ff8f8f" stroke-width=".05" fill="#ff8f8f"/><path d="M1872.7 1365.8l-4.63-14.25h9.28z" stroke="#ff8f8f" stroke-width="3" fill="#ff8f8f"/><g><use xlink:href="#C" transform="matrix(1,0,0,1,2089.853302166637,1262.5733506944443) translate(0 18.489583333333332)"/><use xlink:href="#N" transform="matrix(1,0,0,1,2089.853302166637,1262.5733506944443) translate(40.006510416666664 18.489583333333332)"/></g><path d="M340 910.58V476a6 6 0 0 1 6-6h1071.17a6 6 0 0 1 6 6v36.46" stroke="#ff8f8f" stroke-width="3" fill="none"/><path d="M341.48 912.08h-2.96v-1.54h2.96z" stroke="#ff8f8f" stroke-width=".05" fill="#ff8f8f"/><path d="M1423.17 528.23l-4.64-14.27h9.27z" stroke="#ff8f8f" stroke-width="3" fill="#ff8f8f"/><g><use xlink:href="#O" transform="matrix(1,0,0,1,847.5168147758721,474) translate(0 18.489583333333332)"/></g><path d="M260 919.08a6 6 0 0 1 6-6h148a6 6 0 0 1 6 6v8a6 6 0 0 1-6 6H266a6 6 0 0 1-6-6zM2285.42 919.08a6 6 0 0 1 6-6h148a6 6 0 0 1 6 6v8a6 6 0 0 1-6 6h-148a6 6 0 0 1-6-6zM1383.17 539.08a6 6 0 0 1 6-6h148a6 6 0 0 1 6 6v8a6 6 0 0 1-6 6h-148a6 6 0 0 1-6-6z" stroke="#a9a9a9" stroke-width="2"/><path d="M1940 678.5c0 11.04-8.95 20-20 20s-20-8.96-20-20c0-11.05 8.95-20 20-20s20 8.95 20 20z" stroke="#a9a9a9" stroke-width="2" fill="#f5fbff"/><path d="M1932 678.5c0 6.63-5.37 12-12 12s-12-5.37-12-12 5.37-12 12-12 12 5.37 12 12z" stroke="#a9a9a9" stroke-width="2"/><path d="M1940.4 1484.97c-11.26 0-20.4 9.14-20.4 20.4v61.24c0 11.28 9.14 20.42 20.4 20.42h170.03c11.27 0 20.4-9.14 20.4-20.4v-61.24c0-11.27-9.13-20.4-20.4-20.4z" stroke="#a9a9a9" stroke-width="2" fill="#f5fbff"/><path d="M1938 1526v20m-10 0v-10h20v10" stroke="#a9a9a9" stroke-width="2" fill="none"/><g><use xlink:href="#T" transform="matrix(1,0,0,1,1958.0000000000005,1492.9734775561014) translate(53.074999999999996 36.3)"/><use xlink:href="#U" transform="matrix(1,0,0,1,1958.0000000000005,1492.9734775561014) translate(51.525 57.9)"/></g><path d="M2280.4 1484.97c-11.26 0-20.4 9.14-20.4 20.4v61.24c0 11.28 9.14 20.42 20.4 20.42h170.03c11.27 0 20.4-9.14 20.4-20.4v-61.24c0-11.27-9.13-20.4-20.4-20.4z" stroke="#a9a9a9" stroke-width="2" fill="#f5fbff"/><path d="M2278 1526v20m-10 0v-10h20v10" stroke="#a9a9a9" stroke-width="2" fill="none"/><g><use xlink:href="#V" transform="matrix(1,0,0,1,2298.0000000970394,1492.9734775561014) translate(59.525 36.3)"/><use xlink:href="#U" transform="matrix(1,0,0,1,2298.0000000970394,1492.9734775561014) translate(51.525 57.9)"/></g><path d="M2620.4 1481.6c-11.26 0-20.4 9.13-20.4 20.4v61.23c0 11.27 9.14 20.4 20.4 20.4h170.03c11.27 0 20.4-9.13 20.4-20.4V1502c0-11.27-9.13-20.4-20.4-20.4z" stroke="#a9a9a9" stroke-width="2" fill="#f5fbff"/><path d="M2618 1522.62v20m-10 0v-10h20v10" stroke="#a9a9a9" stroke-width="2" fill="none"/><g><use xlink:href="#W" transform="matrix(1,0,0,1,2638.0000001940784,1489.5969627231698) translate(49.074999999999996 36.3)"/><use xlink:href="#U" transform="matrix(1,0,0,1,2638.0000001940784,1489.5969627231698) translate(51.525 57.9)"/></g><path d="M615 1035.66c-11.28 0-20.42 9.14-20.42 20.4v61.23c0 11.27 9.14 20.4 20.4 20.4h170.03c11.28 0 20.42-9.13 20.42-20.4v-61.23c0-11.27-9.14-20.4-20.4-20.4z" stroke="#a9a9a9" stroke-width="2" fill="#f5fbff"/><path d="M612.58 1076.68v20m-10 0v-10h20v10" stroke="#a9a9a9" stroke-width="2" fill="none"/><g><use xlink:href="#X" transform="matrix(1,0,0,1,632.5803038615466,1043.6590883954614) translate(43.074999999999996 36.3)"/><use xlink:href="#Y" transform="matrix(1,0,0,1,632.5803038615466,1043.6590883954614) translate(30.574999999999996 57.9)"/><use xlink:href="#Z" transform="matrix(1,0,0,1,632.5803038615466,1043.6590883954614) translate(89.475 57.9)"/></g><path d="M1378.15 1035.66c-11.27 0-20.4 9.14-20.4 20.4v61.23c0 11.27 9.13 20.4 20.4 20.4h170.03c11.27 0 20.4-9.13 20.4-20.4v-61.23c0-11.27-9.13-20.4-20.4-20.4z" stroke="#a9a9a9" stroke-width="2" fill="#f5fbff"/><path d="M1375.75 1076.68v20m-10 0v-10h20v10" stroke="#a9a9a9" stroke-width="2" fill="none"/><g><use xlink:href="#aa" transform="matrix(1,0,0,1,1395.746203962548,1043.6590883954614) translate(33.55 36.3)"/><use xlink:href="#ab" transform="matrix(1,0,0,1,1395.746203962548,1043.6590883954614) translate(81.5 36.3)"/><use xlink:href="#ac" transform="matrix(1,0,0,1,1395.746203962548,1043.6590883954614) translate(60.025 57.9)"/></g><path d="M1383.17 1226a6 6 0 0 1 6-6h148a6 6 0 0 1 6 6v8a6 6 0 0 1-6 6h-148a6 6 0 0 1-6-6zM2285.42 1226a6 6 0 0 1 6-6h148a6 6 0 0 1 6 6v8a6 6 0 0 1-6 6h-148a6 6 0 0 1-6-6zM614.58 1226a6 6 0 0 1 6-6h148a6 6 0 0 1 6 6v8a6 6 0 0 1-6 6h-148a6 6 0 0 1-6-6z" stroke="#a9a9a9" stroke-width="2"/><defs><path fill="#5f6572" d="M614-1226c-167 1-283 53-283 213 0 183 186 193 334 234 230 63 463 120 463 409 0 286-219 387-518 390C309 23 131-98 79-338l185-37c34 165 149 248 351 246 184-2 324-58 324-238 0-203-207-221-372-266-210-57-422-111-422-377 0-267 201-356 470-360 279-5 430 101 480 324l-188 33c-28-141-121-215-293-213" id="ad"/><path fill="#5f6572" d="M682 16c-209 0-323-80-324-285v-671H190v-142h170l58-282h120v282h432v142H538v652c2 114 60 155 182 155 106 0 209-16 297-34v137C921-4 806 16 682 16" id="ae"/><path fill="#5f6572" d="M1000-272c3 95 12 159 101 161 21 0 41-3 59-7V-6c-44 10-86 16-139 16-141 2-191-84-197-217h-6C748-76 648 20 446 20c-207 0-318-120-318-322 0-266 194-348 454-354l236-4c12-191-40-305-222-305-140 0-220 47-232 172l-188-17c33-204 181-292 423-292 255 0 401 118 401 364v466zm-683-27c0 109 63 184 175 182 166-3 259-96 306-217 24-65 20-120 20-200-232 7-501-28-501 235" id="af"/><path fill="#5f6572" d="M839-1102c70 0 148 7 206 17v167c-112-18-268-36-363 15-129 69-208 203-208 395V0H294c-10-367 32-789-52-1082h171c21 75 41 161 48 250h5c67-152 152-270 373-270" id="ag"/><g id="a"><use transform="matrix(0.010850694444444444,0,0,0.010850694444444444,0,0)" xlink:href="#ad"/><use transform="matrix(0.010850694444444444,0,0,0.010850694444444444,13.335503472222221,0)" xlink:href="#ae"/><use transform="matrix(0.010850694444444444,0,0,0.010850694444444444,26.671006944444443,0)" xlink:href="#af"/><use transform="matrix(0.010850694444444444,0,0,0.010850694444444444,40.006510416666664,0)" xlink:href="#ag"/><use transform="matrix(0.010850694444444444,0,0,0.010850694444444444,53.342013888888886,0)" xlink:href="#ae"/></g><path fill="#5f6572" d="M706-1102c241 0 344 136 343 381V0H868v-695c1-168-57-273-220-268-190 6-283 138-283 336V0H185c-3-360 6-732-6-1082h170c4 54 7 126 8 185h3c63-121 164-204 346-205" id="ah"/><path fill="#5f6572" d="M865-914c-3-187-2-380-2-570h180v1261c0 76 1 155 6 223H877c-8-49-9-116-10-174h-5C801-44 708 26 530 26c-135 0-234-46-297-139s-95-232-95-419c0-377 131-566 392-566 176 0 271 63 335 184zm-286-51c-222 0-255 197-255 427 0 229 31 425 253 425 237 0 286-195 286-441 0-238-52-411-284-411" id="ai"/><g id="b"><use transform="matrix(0.010850694444444444,0,0,0.010850694444444444,0,0)" xlink:href="#af"/><use transform="matrix(0.010850694444444444,0,0,0.010850694444444444,13.335503472222221,0)" xlink:href="#ah"/><use transform="matrix(0.010850694444444444,0,0,0.010850694444444444,26.671006944444443,0)" xlink:href="#ai"/></g><path fill="#5f6572" d="M285-1169c8 382 2 780 4 1169H129v-1349h237c86 239 188 461 253 720 69-258 169-481 255-720h225V0H937c2-390-5-788 6-1169-75 255-170 488-259 729H547c-90-240-185-475-262-729" id="aj"/><path fill="#5f6572" d="M745-142h380V0H143v-142h422v-798H246v-142h499v940zM545-1292v-192h200v192H545" id="ak"/><g id="c"><use transform="matrix(0.010850694444444444,0,0,0.010850694444444444,0,0)" xlink:href="#aj"/><use transform="matrix(0.010850694444444444,0,0,0.010850694444444444,13.335503472222221,0)" xlink:href="#af"/><use transform="matrix(0.010850694444444444,0,0,0.010850694444444444,26.671006944444443,0)" xlink:href="#ak"/><use transform="matrix(0.010850694444444444,0,0,0.010850694444444444,40.006510416666664,0)" xlink:href="#ah"/></g><path fill="#5f6572" d="M617-1102c355 0 481 238 477 599H322c5 222 84 388 301 388 144 0 244-59 284-166l158 45C1002-72 854 20 623 20c-342 0-490-220-490-568 0-346 151-554 484-554zm291 461c-18-192-90-328-289-328-194 0-287 128-295 328h584" id="al"/><path fill="#5f6572" d="M528 20c-247 0-343-132-343-381v-721h180v686c-4 177 45 284 224 277 194-8 279-136 279-336v-627h181c3 360-6 732 6 1082H885c-4-54-7-126-8-185h-3C809-64 714 20 528 20" id="am"/><g id="d"><use transform="matrix(0.010850694444444444,0,0,0.010850694444444444,0,0)" xlink:href="#aj"/><use transform="matrix(0.010850694444444444,0,0,0.010850694444444444,13.335503472222221,0)" xlink:href="#al"/><use transform="matrix(0.010850694444444444,0,0,0.010850694444444444,26.671006944444443,0)" xlink:href="#ah"/><use transform="matrix(0.010850694444444444,0,0,0.010850694444444444,40.006510416666664,0)" xlink:href="#am"/></g><path fill="#3a414a" d="M609-1161c-125 0-218 36-218 153 0 149 166 161 290 196 235 67 484 129 484 421 0 300-239 408-554 411C302 23 93-114 38-367l285-37c32 128 131 205 296 203 143-2 259-31 259-173 0-164-197-172-333-212-218-64-441-131-441-405 0-276 231-379 511-379 299 0 463 114 513 363l-286 29c-28-115-96-183-233-183" id="an"/><path fill="#3a414a" d="M711 13c-250 0-386-99-385-349l2-556H161v-190h181l88-282h176v282h385v190H606v530c-10 130 45 186 174 184 91-2 176-11 255-27v186C933-1 833 13 711 13" id="ao"/><path fill="#3a414a" d="M775-193C708-75 621 20 439 20 226 20 106-93 106-306c0-251 170-341 417-346l223-4c4-143-12-264-148-264-103 0-141 58-150 153l-293-14c37-219 194-321 455-321 263 0 418 130 417 390v392c1 84 5 161 89 160 21 0 42-2 62-6v152c-57 15-108 27-180 26-145 0-202-73-217-205h-6zm-256 17c168 0 234-139 227-325-166 4-347-25-347 173 0 94 33 152 120 152" id="ap"/><path fill="#3a414a" d="M875-1102c70 0 148 7 206 17v237c-110-17-267-37-359 15-123 69-192 207-192 395V0H250c-10-367 32-789-52-1082h271c19 69 36 149 46 228h4c52-151 151-250 356-248" id="aq"/><g id="e"><use transform="matrix(0.010850694444444444,0,0,0.010850694444444444,0,0)" xlink:href="#an"/><use transform="matrix(0.010850694444444444,0,0,0.010850694444444444,13.335503472222221,0)" xlink:href="#ao"/><use transform="matrix(0.010850694444444444,0,0,0.010850694444444444,26.671006944444443,0)" xlink:href="#ap"/><use transform="matrix(0.010850694444444444,0,0,0.010850694444444444,40.006510416666664,0)" xlink:href="#aq"/><use transform="matrix(0.010850694444444444,0,0,0.010850694444444444,53.342013888888886,0)" xlink:href="#ao"/></g><path fill="#3a414a" d="M1109-360C1066-122 902 20 624 20c-347 0-514-209-514-555 0-353 168-567 518-567 270 0 425 136 473 361l-283 14c-16-106-75-183-196-182-75 0-130 31-165 93s-52 152-52 270c0 249 74 374 221 374 120 0 188-82 201-201" id="ar"/><path fill="#3a414a" d="M1113-274C1038-96 884 20 626 20c-352 0-526-209-526-566 0-358 185-556 530-556 358 0 496 251 499 615H395c5 180 68 319 245 319 102 0 186-45 208-129zM857-663c-6-177-128-307-315-247-94 30-141 121-145 247h460" id="as"/><path fill="#3a414a" d="M768-1103c247 0 336 167 336 416V0H824v-619c-3-164-24-273-171-273-164 0-229 142-229 312V0H143c-4-359 9-736-8-1082h268c7 63 12 146 13 215h4c67-145 160-236 348-236" id="at"/><g id="f"><use transform="matrix(0.010850694444444444,0,0,0.010850694444444444,0,0)" xlink:href="#an"/><use transform="matrix(0.010850694444444444,0,0,0.010850694444444444,13.335503472222221,0)" xlink:href="#ar"/><use transform="matrix(0.010850694444444444,0,0,0.010850694444444444,26.671006944444443,0)" xlink:href="#aq"/><use transform="matrix(0.010850694444444444,0,0,0.010850694444444444,40.006510416666664,0)" xlink:href="#as"/><use transform="matrix(0.010850694444444444,0,0,0.010850694444444444,53.342013888888886,0)" xlink:href="#as"/><use transform="matrix(0.010850694444444444,0,0,0.010850694444444444,66.67751736111111,0)" xlink:href="#at"/></g><path fill="#3a414a" d="M305-1169c27 366 9 780 14 1169H99v-1349h347c49 189 108 371 150 564 12 56 15 107 23 166 33-270 117-487 176-730h335V0H908c5-390-13-801 16-1169-52 285-130 541-199 809H507c-70-267-148-525-202-809" id="au"/><path fill="#3a414a" d="M794-190h353V0H118v-190h395v-702H223v-190h571v892zM513-1277v-207h281v207H513" id="av"/><g id="g"><use transform="matrix(0.013020833333333332,0,0,0.013020833333333332,0,0)" xlink:href="#au"/><use transform="matrix(0.013020833333333332,0,0,0.013020833333333332,16.002604166666664,0)" xlink:href="#ap"/><use transform="matrix(0.013020833333333332,0,0,0.013020833333333332,32.00520833333333,0)" xlink:href="#av"/><use transform="matrix(0.013020833333333332,0,0,0.013020833333333332,48.00781249999999,0)" xlink:href="#at"/></g><path fill="#3a414a" d="M471 20c-247 0-336-169-336-415v-687h281v607c4 148 31 285 172 285 152 0 207-150 207-312v-580h281c4 359-9 736 8 1082H816c-7-63-11-146-12-215h-5C736-76 644 20 471 20" id="aw"/><g id="h"><use transform="matrix(0.013020833333333332,0,0,0.013020833333333332,0,0)" xlink:href="#au"/><use transform="matrix(0.013020833333333332,0,0,0.013020833333333332,16.002604166666664,0)" xlink:href="#as"/><use transform="matrix(0.013020833333333332,0,0,0.013020833333333332,32.00520833333333,0)" xlink:href="#at"/><use transform="matrix(0.013020833333333332,0,0,0.013020833333333332,48.00781249999999,0)" xlink:href="#aw"/></g><path fill="#3a414a" d="M614-1226c-167 1-283 53-283 213 0 183 186 193 334 234 230 63 463 120 463 409 0 286-219 387-518 390C309 23 131-98 79-338l185-37c34 165 149 248 351 246 184-2 324-58 324-238 0-203-207-221-372-266-210-57-422-111-422-377 0-267 201-356 470-360 279-5 430 101 480 324l-188 33c-28-141-121-215-293-213" id="ax"/><path fill="#3a414a" d="M682 16c-209 0-323-80-324-285v-671H190v-142h170l58-282h120v282h432v142H538v652c2 114 60 155 182 155 106 0 209-16 297-34v137C921-4 806 16 682 16" id="ay"/><path fill="#3a414a" d="M1000-272c3 95 12 159 101 161 21 0 41-3 59-7V-6c-44 10-86 16-139 16-141 2-191-84-197-217h-6C748-76 648 20 446 20c-207 0-318-120-318-322 0-266 194-348 454-354l236-4c12-191-40-305-222-305-140 0-220 47-232 172l-188-17c33-204 181-292 423-292 255 0 401 118 401 364v466zm-683-27c0 109 63 184 175 182 166-3 259-96 306-217 24-65 20-120 20-200-232 7-501-28-501 235" id="az"/><path fill="#3a414a" d="M839-1102c70 0 148 7 206 17v167c-112-18-268-36-363 15-129 69-208 203-208 395V0H294c-10-367 32-789-52-1082h171c21 75 41 161 48 250h5c67-152 152-270 373-270" id="aA"/><g id="i"><use transform="matrix(0.009765624999999998,0,0,0.009765624999999998,0,0)" xlink:href="#ax"/><use transform="matrix(0.009765624999999998,0,0,0.009765624999999998,12.001953124999998,0)" xlink:href="#ay"/><use transform="matrix(0.009765624999999998,0,0,0.009765624999999998,24.003906249999996,0)" xlink:href="#az"/><use transform="matrix(0.009765624999999998,0,0,0.009765624999999998,36.00585937499999,0)" xlink:href="#aA"/><use transform="matrix(0.009765624999999998,0,0,0.009765624999999998,48.00781249999999,0)" xlink:href="#ay"/></g><path fill="#3a414a" d="M631 20c-350 0-501-215-501-562 0-355 162-560 502-560 250 0 399 118 446 323l-192 14c-23-124-109-196-262-196-242 0-305 171-305 415 1 245 61 427 304 427 151 0 248-77 267-215l190 12C1039-107 883 20 631 20" id="aB"/><path fill="#3a414a" d="M617-1102c355 0 481 238 477 599H322c5 222 84 388 301 388 144 0 244-59 284-166l158 45C1002-72 854 20 623 20c-342 0-490-220-490-568 0-346 151-554 484-554zm291 461c-18-192-90-328-289-328-194 0-287 128-295 328h584" id="aC"/><path fill="#3a414a" d="M706-1102c241 0 344 136 343 381V0H868v-695c1-168-57-273-220-268-190 6-283 138-283 336V0H185c-3-360 6-732-6-1082h170c4 54 7 126 8 185h3c63-121 164-204 346-205" id="aD"/><g id="j"><use transform="matrix(0.009765624999999998,0,0,0.009765624999999998,0,0)" xlink:href="#ax"/><use transform="matrix(0.009765624999999998,0,0,0.009765624999999998,12.001953124999998,0)" xlink:href="#aB"/><use transform="matrix(0.009765624999999998,0,0,0.009765624999999998,24.003906249999996,0)" xlink:href="#aA"/><use transform="matrix(0.009765624999999998,0,0,0.009765624999999998,36.00585937499999,0)" xlink:href="#aC"/><use transform="matrix(0.009765624999999998,0,0,0.009765624999999998,48.00781249999999,0)" xlink:href="#aC"/><use transform="matrix(0.009765624999999998,0,0,0.009765624999999998,60.009765624999986,0)" xlink:href="#aD"/></g><path fill="#fff" d="M614-1226c-167 1-283 53-283 213 0 183 186 193 334 234 230 63 463 120 463 409 0 286-219 387-518 390C309 23 131-98 79-338l185-37c34 165 149 248 351 246 184-2 324-58 324-238 0-203-207-221-372-266-210-57-422-111-422-377 0-267 201-356 470-360 279-5 430 101 480 324l-188 33c-28-141-121-215-293-213" id="aE"/><path fill="#fff" d="M682 16c-209 0-323-80-324-285v-671H190v-142h170l58-282h120v282h432v142H538v652c2 114 60 155 182 155 106 0 209-16 297-34v137C921-4 806 16 682 16" id="aF"/><path fill="#fff" d="M1000-272c3 95 12 159 101 161 21 0 41-3 59-7V-6c-44 10-86 16-139 16-141 2-191-84-197-217h-6C748-76 648 20 446 20c-207 0-318-120-318-322 0-266 194-348 454-354l236-4c12-191-40-305-222-305-140 0-220 47-232 172l-188-17c33-204 181-292 423-292 255 0 401 118 401 364v466zm-683-27c0 109 63 184 175 182 166-3 259-96 306-217 24-65 20-120 20-200-232 7-501-28-501 235" id="aG"/><path fill="#fff" d="M839-1102c70 0 148 7 206 17v167c-112-18-268-36-363 15-129 69-208 203-208 395V0H294c-10-367 32-789-52-1082h171c21 75 41 161 48 250h5c67-152 152-270 373-270" id="aH"/><g id="k"><use transform="matrix(0.010850694444444444,0,0,0.010850694444444444,0,0)" xlink:href="#aE"/><use transform="matrix(0.010850694444444444,0,0,0.010850694444444444,13.335503472222221,0)" xlink:href="#aF"/><use transform="matrix(0.010850694444444444,0,0,0.010850694444444444,26.671006944444443,0)" xlink:href="#aG"/><use transform="matrix(0.010850694444444444,0,0,0.010850694444444444,40.006510416666664,0)" xlink:href="#aH"/><use transform="matrix(0.010850694444444444,0,0,0.010850694444444444,53.342013888888886,0)" xlink:href="#aF"/></g><path fill="#3a414a" d="M285-1169c8 382 2 780 4 1169H129v-1349h237c86 239 188 461 253 720 69-258 169-481 255-720h225V0H937c2-390-5-788 6-1169-75 255-170 488-259 729H547c-90-240-185-475-262-729" id="aI"/><path fill="#3a414a" d="M745-142h380V0H143v-142h422v-798H246v-142h499v940zM545-1292v-192h200v192H545" id="aJ"/><g id="l"><use transform="matrix(0.009765624999999998,0,0,0.009765624999999998,0,0)" xlink:href="#aI"/><use transform="matrix(0.009765624999999998,0,0,0.009765624999999998,12.001953124999998,0)" xlink:href="#az"/><use transform="matrix(0.009765624999999998,0,0,0.009765624999999998,24.003906249999996,0)" xlink:href="#aJ"/><use transform="matrix(0.009765624999999998,0,0,0.009765624999999998,36.00585937499999,0)" xlink:href="#aD"/></g><path fill="#3a414a" d="M528 20c-247 0-343-132-343-381v-721h180v686c-4 177 45 284 224 277 194-8 279-136 279-336v-627h181c3 360-6 732 6 1082H885c-4-54-7-126-8-185h-3C809-64 714 20 528 20" id="aK"/><g id="m"><use transform="matrix(0.009765624999999998,0,0,0.009765624999999998,0,0)" xlink:href="#aI"/><use transform="matrix(0.009765624999999998,0,0,0.009765624999999998,12.001953124999998,0)" xlink:href="#aC"/><use transform="matrix(0.009765624999999998,0,0,0.009765624999999998,24.003906249999996,0)" xlink:href="#aD"/><use transform="matrix(0.009765624999999998,0,0,0.009765624999999998,36.00585937499999,0)" xlink:href="#aK"/></g><g id="n"><use transform="matrix(0.010850694444444444,0,0,0.010850694444444444,0,0)" xlink:href="#aE"/><use transform="matrix(0.010850694444444444,0,0,0.010850694444444444,13.335503472222221,0)" xlink:href="#aF"/><use transform="matrix(0.010850694444444444,0,0,0.010850694444444444,26.671006944444443,0)" xlink:href="#aG"/><use transform="matrix(0.010850694444444444,0,0,0.010850694444444444,40.006510416666664,0)" xlink:href="#aH"/><use transform="matrix(0.010850694444444444,0,0,0.010850694444444444,53.342013888888886,0)" xlink:href="#aF"/></g><path fill="#fff" d="M622-1349c296 4 497 117 497 404 0 282-193 424-485 431H353V0H162v-1349h460zm-15 684c195-3 320-88 320-277 0-184-129-255-328-254H353v531h254" id="aL"/><path fill="#fff" d="M617-1102c355 0 481 238 477 599H322c5 222 84 388 301 388 144 0 244-59 284-166l158 45C1002-72 854 20 623 20c-342 0-490-220-490-568 0-346 151-554 484-554zm291 461c-18-192-90-328-289-328-194 0-287 128-295 328h584" id="aM"/><path fill="#fff" d="M873-819c-18-114-119-146-250-146-163 0-245 50-245 151 0 151 170 148 294 185 182 54 388 94 388 320 0 240-189 325-439 329-245 4-410-69-454-268l159-31c24 133 136 168 295 165 144-2 270-31 270-171 0-164-195-160-331-202-167-52-350-87-350-299 0-218 173-315 413-313 220 2 373 77 412 260" id="aN"/><path fill="#fff" d="M865-914c-3-187-2-380-2-570h180v1261c0 76 1 155 6 223H877c-8-49-9-116-10-174h-5C801-44 708 26 530 26c-135 0-234-46-297-139s-95-232-95-419c0-377 131-566 392-566 176 0 271 63 335 184zm-286-51c-222 0-255 197-255 427 0 229 31 425 253 425 237 0 286-195 286-441 0-238-52-411-284-411" id="aO"/><g id="o"><use transform="matrix(0.010850694444444444,0,0,0.010850694444444444,0,0)" xlink:href="#aL"/><use transform="matrix(0.010850694444444444,0,0,0.010850694444444444,13.335503472222221,0)" xlink:href="#aH"/><use transform="matrix(0.010850694444444444,0,0,0.010850694444444444,26.671006944444443,0)" xlink:href="#aM"/><use transform="matrix(0.010850694444444444,0,0,0.010850694444444444,40.006510416666664,0)" xlink:href="#aN"/><use transform="matrix(0.010850694444444444,0,0,0.010850694444444444,53.342013888888886,0)" xlink:href="#aN"/><use transform="matrix(0.010850694444444444,0,0,0.010850694444444444,66.67751736111111,0)" xlink:href="#aM"/><use transform="matrix(0.010850694444444444,0,0,0.010850694444444444,80.01302083333334,0)" xlink:href="#aO"/></g><path fill="#3a414a" d="M237 0v-1349h191v1193h672V0H237" id="aP"/><path fill="#3a414a" d="M615-1102c343 0 484 203 482 560-1 347-147 562-488 562-336 0-475-219-479-562-4-349 156-560 485-560zm-8 989c240 0 301-180 301-429 0-245-55-427-290-427-236 0-299 181-299 427 0 243 61 429 288 429" id="aQ"/><path fill="#3a414a" d="M865-914c-3-187-2-380-2-570h180v1261c0 76 1 155 6 223H877c-8-49-9-116-10-174h-5C801-44 708 26 530 26c-135 0-234-46-297-139s-95-232-95-419c0-377 131-566 392-566 176 0 271 63 335 184zm-286-51c-222 0-255 197-255 427 0 229 31 425 253 425 237 0 286-195 286-441 0-238-52-411-284-411" id="aR"/><g id="p"><use transform="matrix(0.009765624999999998,0,0,0.009765624999999998,0,0)" xlink:href="#aP"/><use transform="matrix(0.009765624999999998,0,0,0.009765624999999998,12.001953124999998,0)" xlink:href="#aQ"/><use transform="matrix(0.009765624999999998,0,0,0.009765624999999998,24.003906249999996,0)" xlink:href="#az"/><use transform="matrix(0.009765624999999998,0,0,0.009765624999999998,36.00585937499999,0)" xlink:href="#aR"/></g><path fill="#3a414a" d="M715 0H502L69-1082h202c94 253 197 500 285 758 19 57 36 126 52 183 96-335 234-626 350-941h201" id="aS"/><path fill="#3a414a" d="M736-142h380V0H134v-142h422v-1200H267v-142h469v1342" id="aT"/><g id="q"><use transform="matrix(0.009765624999999998,0,0,0.009765624999999998,0,0)" xlink:href="#aP"/><use transform="matrix(0.009765624999999998,0,0,0.009765624999999998,12.001953124999998,0)" xlink:href="#aC"/><use transform="matrix(0.009765624999999998,0,0,0.009765624999999998,24.003906249999996,0)" xlink:href="#aS"/><use transform="matrix(0.009765624999999998,0,0,0.009765624999999998,36.00585937499999,0)" xlink:href="#aC"/><use transform="matrix(0.009765624999999998,0,0,0.009765624999999998,48.00781249999999,0)" xlink:href="#aT"/></g><path fill="#fff" d="M912-211c-10-84-18-177-18-274v-864h172V0H836L316-1130c7 79 16 167 16 254V0H162v-1349h222" id="aU"/><path fill="#fff" d="M1018 0H814c-67-224-138-444-200-673C552-442 476-224 407 0H204L21-1082h178c43 310 105 601 126 933 54-225 128-425 193-638h193c63 212 134 415 185 638 22-336 90-622 136-933h176" id="aV"/><g id="r"><use transform="matrix(0.010850694444444444,0,0,0.010850694444444444,0,0)" xlink:href="#aU"/><use transform="matrix(0.010850694444444444,0,0,0.010850694444444444,13.335503472222221,0)" xlink:href="#aM"/><use transform="matrix(0.010850694444444444,0,0,0.010850694444444444,26.671006944444443,0)" xlink:href="#aV"/></g><path fill="#fff" d="M655-135c108 0 195-33 260-74v-336H622v-160h479v572C981-54 839 20 639 20c-388 0-526-306-526-701 0-406 129-689 529-689 261 0 392 137 461 331l-171 56c-47-131-122-231-288-231-281 0-330 245-330 533 0 179 28 314 84 407s142 139 257 139" id="aW"/><path fill="#fff" d="M904-1102c199 0 220 177 220 381V0H956v-686c-3-114 0-215-60-264-70-33-125-4-158 71-26 56-39 140-39 252V0H531v-686c-3-114-1-215-61-264-78-41-136 24-157 84-24 69-39 159-39 259V0H105c-3-360 6-732-6-1082h149c6 50 3 123 8 175 36-100 83-195 216-195 135 0 166 79 196 196 42-105 93-196 236-196" id="aX"/><g id="s"><use transform="matrix(0.010850694444444444,0,0,0.010850694444444444,0,0)" xlink:href="#aW"/><use transform="matrix(0.010850694444444444,0,0,0.010850694444444444,13.335503472222221,0)" xlink:href="#aG"/><use transform="matrix(0.010850694444444444,0,0,0.010850694444444444,26.671006944444443,0)" xlink:href="#aX"/><use transform="matrix(0.010850694444444444,0,0,0.010850694444444444,40.006510416666664,0)" xlink:href="#aM"/></g><path fill="#fff" d="M736-142h380V0H134v-142h422v-1200H267v-142h469v1342" id="aY"/><path fill="#fff" d="M631 20c-350 0-501-215-501-562 0-355 162-560 502-560 250 0 399 118 446 323l-192 14c-23-124-109-196-262-196-242 0-305 171-305 415 1 245 61 427 304 427 151 0 248-77 267-215l190 12C1039-107 883 20 631 20" id="aZ"/><g id="t"><use transform="matrix(0.010850694444444444,0,0,0.010850694444444444,0,0)" xlink:href="#aE"/><use transform="matrix(0.010850694444444444,0,0,0.010850694444444444,13.335503472222221,0)" xlink:href="#aM"/><use transform="matrix(0.010850694444444444,0,0,0.010850694444444444,26.671006944444443,0)" xlink:href="#aY"/><use transform="matrix(0.010850694444444444,0,0,0.010850694444444444,40.006510416666664,0)" xlink:href="#aM"/><use transform="matrix(0.010850694444444444,0,0,0.010850694444444444,53.342013888888886,0)" xlink:href="#aZ"/><use transform="matrix(0.010850694444444444,0,0,0.010850694444444444,66.67751736111111,0)" xlink:href="#aF"/><use transform="matrix(0.010850694444444444,0,0,0.010850694444444444,80.01302083333334,0)" xlink:href="#aM"/><use transform="matrix(0.010850694444444444,0,0,0.010850694444444444,93.34852430555557,0)" xlink:href="#aO"/></g><path fill="#fff" d="M650-1214c-281 0-336 244-336 533 0 295 60 546 347 546 188 0 263-142 322-282l159 65C1058-155 935 20 659 20c-401 0-546-295-546-701 0-407 135-689 536-689 264 0 391 146 466 335l-168 65c-47-129-127-244-297-244" id="ba"/><path fill="#fff" d="M648-963c-190 6-283 138-283 336V0H185v-1484h181c-2 197 6 404-9 587h3c62-120 159-205 339-205 242 0 351 135 350 381V0H868v-695c1-168-57-273-220-268" id="bb"/><g id="u"><use transform="matrix(0.010850694444444444,0,0,0.010850694444444444,0,0)" xlink:href="#ba"/><use transform="matrix(0.010850694444444444,0,0,0.010850694444444444,13.335503472222221,0)" xlink:href="#bb"/><use transform="matrix(0.010850694444444444,0,0,0.010850694444444444,26.671006944444443,0)" xlink:href="#aG"/><use transform="matrix(0.010850694444444444,0,0,0.010850694444444444,40.006510416666664,0)" xlink:href="#aH"/><use transform="matrix(0.010850694444444444,0,0,0.010850694444444444,53.342013888888886,0)" xlink:href="#aG"/><use transform="matrix(0.010850694444444444,0,0,0.010850694444444444,66.67751736111111,0)" xlink:href="#aZ"/><use transform="matrix(0.010850694444444444,0,0,0.010850694444444444,80.01302083333334,0)" xlink:href="#aF"/><use transform="matrix(0.010850694444444444,0,0,0.010850694444444444,93.34852430555557,0)" xlink:href="#aM"/><use transform="matrix(0.010850694444444444,0,0,0.010850694444444444,106.6840277777778,0)" xlink:href="#aH"/></g><path fill="#fff" d="M615-1102c343 0 484 203 482 560-1 347-147 562-488 562-336 0-475-219-479-562-4-349 156-560 485-560zm-8 989c240 0 301-180 301-429 0-245-55-427-290-427-236 0-299 181-299 427 0 243 61 429 288 429" id="bc"/><path fill="#fff" d="M706-1102c241 0 344 136 343 381V0H868v-695c1-168-57-273-220-268-190 6-283 138-283 336V0H185c-3-360 6-732-6-1082h170c4 54 7 126 8 185h3c63-121 164-204 346-205" id="bd"/><path fill="#fff" d="M839-1335c-182-6-269 67-259 253h491v142H580V0H400v-940H138v-142h262c-15-293 132-408 418-402 94 2 200 7 281 21v145c-75-10-177-14-260-17" id="be"/><path fill="#fff" d="M745-142h380V0H143v-142h422v-798H246v-142h499v940zM545-1292v-192h200v192H545" id="bf"/><g id="v"><use transform="matrix(0.010850694444444444,0,0,0.010850694444444444,0,0)" xlink:href="#ba"/><use transform="matrix(0.010850694444444444,0,0,0.010850694444444444,13.335503472222221,0)" xlink:href="#bc"/><use transform="matrix(0.010850694444444444,0,0,0.010850694444444444,26.671006944444443,0)" xlink:href="#bd"/><use transform="matrix(0.010850694444444444,0,0,0.010850694444444444,40.006510416666664,0)" xlink:href="#be"/><use transform="matrix(0.010850694444444444,0,0,0.010850694444444444,53.342013888888886,0)" xlink:href="#bf"/><use transform="matrix(0.010850694444444444,0,0,0.010850694444444444,66.67751736111111,0)" xlink:href="#aH"/><use transform="matrix(0.010850694444444444,0,0,0.010850694444444444,80.01302083333334,0)" xlink:href="#aX"/><use transform="matrix(0.010850694444444444,0,0,0.010850694444444444,93.34852430555557,0)" xlink:href="#aM"/><use transform="matrix(0.010850694444444444,0,0,0.010850694444444444,106.6840277777778,0)" xlink:href="#aO"/></g><path fill="#3a414a" d="M102-681c0-398 126-689 513-689 165 0 291 58 379 174s132 287 132 515c-1 318-88 554-298 657-123 61-317 58-438-3-206-104-288-341-288-654zm749 406c94-160 97-656-5-807-57-85-130-132-231-132-104 0-178 47-234 132-101 153-99 655 1 809 57 89 130 138 232 138 109 0 184-49 237-140" id="bg"/><path fill="#3a414a" d="M698-1104c312 3 392 244 392 558 0 315-82 566-392 566-169 0-277-65-331-184h-5c8 188 2 394 4 589H185V-858c0-76-1-156-6-224h175c6 52 9 120 10 178h4c58-122 150-202 330-200zm-49 991c225 0 255-203 255-433 0-225-32-419-253-419-236 0-285 192-285 441 0 237 53 411 283 411" id="bh"/><path fill="#3a414a" d="M873-819c-18-114-119-146-250-146-163 0-245 50-245 151 0 151 170 148 294 185 182 54 388 94 388 320 0 240-189 325-439 329-245 4-410-69-454-268l159-31c24 133 136 168 295 165 144-2 270-31 270-171 0-164-195-160-331-202-167-52-350-87-350-299 0-218 173-315 413-313 220 2 373 77 412 260" id="bi"/><g id="w"><use transform="matrix(0.009765624999999998,0,0,0.009765624999999998,0,0)" xlink:href="#bg"/><use transform="matrix(0.009765624999999998,0,0,0.009765624999999998,12.001953124999998,0)" xlink:href="#bh"/><use transform="matrix(0.009765624999999998,0,0,0.009765624999999998,24.003906249999996,0)" xlink:href="#ay"/><use transform="matrix(0.009765624999999998,0,0,0.009765624999999998,36.00585937499999,0)" xlink:href="#aJ"/><use transform="matrix(0.009765624999999998,0,0,0.009765624999999998,48.00781249999999,0)" xlink:href="#aQ"/><use transform="matrix(0.009765624999999998,0,0,0.009765624999999998,60.009765624999986,0)" xlink:href="#aD"/><use transform="matrix(0.009765624999999998,0,0,0.009765624999999998,72.01171874999999,0)" xlink:href="#bi"/></g><g id="x"><use transform="matrix(0.009765624999999998,0,0,0.009765624999999998,0,0)" xlink:href="#aI"/><use transform="matrix(0.009765624999999998,0,0,0.009765624999999998,12.001953124999998,0)" xlink:href="#aC"/><use transform="matrix(0.009765624999999998,0,0,0.009765624999999998,24.003906249999996,0)" xlink:href="#aD"/><use transform="matrix(0.009765624999999998,0,0,0.009765624999999998,36.00585937499999,0)" xlink:href="#aK"/></g><path fill="#fff" d="M102-681c0-398 126-689 513-689 165 0 291 58 379 174s132 287 132 515c-1 318-88 554-298 657-123 61-317 58-438-3-206-104-288-341-288-654zm749 406c94-160 97-656-5-807-57-85-130-132-231-132-104 0-178 47-234 132-101 153-99 655 1 809 57 89 130 138 232 138 109 0 184-49 237-140" id="bj"/><path fill="#fff" d="M698-1104c312 3 392 244 392 558 0 315-82 566-392 566-169 0-277-65-331-184h-5c8 188 2 394 4 589H185V-858c0-76-1-156-6-224h175c6 52 9 120 10 178h4c58-122 150-202 330-200zm-49 991c225 0 255-203 255-433 0-225-32-419-253-419-236 0-285 192-285 441 0 237 53 411 283 411" id="bk"/><g id="y"><use transform="matrix(0.010850694444444444,0,0,0.010850694444444444,0,0)" xlink:href="#bj"/><use transform="matrix(0.010850694444444444,0,0,0.010850694444444444,13.335503472222221,0)" xlink:href="#bk"/><use transform="matrix(0.010850694444444444,0,0,0.010850694444444444,26.671006944444443,0)" xlink:href="#aF"/><use transform="matrix(0.010850694444444444,0,0,0.010850694444444444,40.006510416666664,0)" xlink:href="#bf"/><use transform="matrix(0.010850694444444444,0,0,0.010850694444444444,53.342013888888886,0)" xlink:href="#bc"/><use transform="matrix(0.010850694444444444,0,0,0.010850694444444444,66.67751736111111,0)" xlink:href="#bd"/><use transform="matrix(0.010850694444444444,0,0,0.010850694444444444,80.01302083333334,0)" xlink:href="#aN"/></g><path fill="#fff" d="M528 20c-247 0-343-132-343-381v-721h180v686c-4 177 45 284 224 277 194-8 279-136 279-336v-627h181c3 360-6 732 6 1082H885c-4-54-7-126-8-185h-3C809-64 714 20 528 20" id="bl"/><g id="z"><use transform="matrix(0.010850694444444444,0,0,0.010850694444444444,0,0)" xlink:href="#ba"/><use transform="matrix(0.010850694444444444,0,0,0.010850694444444444,13.335503472222221,0)" xlink:href="#bc"/><use transform="matrix(0.010850694444444444,0,0,0.010850694444444444,26.671006944444443,0)" xlink:href="#bd"/><use transform="matrix(0.010850694444444444,0,0,0.010850694444444444,40.006510416666664,0)" xlink:href="#aF"/><use transform="matrix(0.010850694444444444,0,0,0.010850694444444444,53.342013888888886,0)" xlink:href="#bf"/><use transform="matrix(0.010850694444444444,0,0,0.010850694444444444,66.67751736111111,0)" xlink:href="#bd"/><use transform="matrix(0.010850694444444444,0,0,0.010850694444444444,80.01302083333334,0)" xlink:href="#bl"/><use transform="matrix(0.010850694444444444,0,0,0.010850694444444444,93.34852430555557,0)" xlink:href="#aM"/></g><g id="A"><use transform="matrix(0.010850694444444444,0,0,0.010850694444444444,0,0)" xlink:href="#aW"/><use transform="matrix(0.010850694444444444,0,0,0.010850694444444444,13.335503472222221,0)" xlink:href="#aG"/><use transform="matrix(0.010850694444444444,0,0,0.010850694444444444,26.671006944444443,0)" xlink:href="#aX"/><use transform="matrix(0.010850694444444444,0,0,0.010850694444444444,40.006510416666664,0)" xlink:href="#aM"/></g><g id="B"><use transform="matrix(0.010850694444444444,0,0,0.010850694444444444,0,0)" xlink:href="#aE"/><use transform="matrix(0.010850694444444444,0,0,0.010850694444444444,13.335503472222221,0)" xlink:href="#aM"/><use transform="matrix(0.010850694444444444,0,0,0.010850694444444444,26.671006944444443,0)" xlink:href="#aY"/><use transform="matrix(0.010850694444444444,0,0,0.010850694444444444,40.006510416666664,0)" xlink:href="#aM"/><use transform="matrix(0.010850694444444444,0,0,0.010850694444444444,53.342013888888886,0)" xlink:href="#aZ"/><use transform="matrix(0.010850694444444444,0,0,0.010850694444444444,66.67751736111111,0)" xlink:href="#aF"/><use transform="matrix(0.010850694444444444,0,0,0.010850694444444444,80.01302083333334,0)" xlink:href="#aM"/><use transform="matrix(0.010850694444444444,0,0,0.010850694444444444,93.34852430555557,0)" xlink:href="#aO"/></g><g id="C"><use transform="matrix(0.010850694444444444,0,0,0.010850694444444444,0,0)" xlink:href="#bj"/><use transform="matrix(0.010850694444444444,0,0,0.010850694444444444,13.335503472222221,0)" xlink:href="#bd"/></g><path fill="#fff" d="M237 0v-1349h191v1193h672V0H237" id="bm"/><path fill="#fff" d="M715 0H502L69-1082h202c94 253 197 500 285 758 19 57 36 126 52 183 96-335 234-626 350-941h201" id="bn"/><g id="D"><use transform="matrix(0.010850694444444444,0,0,0.010850694444444444,0,0)" xlink:href="#bm"/><use transform="matrix(0.010850694444444444,0,0,0.010850694444444444,13.335503472222221,0)" xlink:href="#aM"/><use transform="matrix(0.010850694444444444,0,0,0.010850694444444444,26.671006944444443,0)" xlink:href="#bn"/><use transform="matrix(0.010850694444444444,0,0,0.010850694444444444,40.006510416666664,0)" xlink:href="#aM"/><use transform="matrix(0.010850694444444444,0,0,0.010850694444444444,53.342013888888886,0)" xlink:href="#aY"/></g><g id="E"><use transform="matrix(0.010850694444444444,0,0,0.010850694444444444,0,0)" xlink:href="#bm"/><use transform="matrix(0.010850694444444444,0,0,0.010850694444444444,13.335503472222221,0)" xlink:href="#bc"/><use transform="matrix(0.010850694444444444,0,0,0.010850694444444444,26.671006944444443,0)" xlink:href="#aG"/><use transform="matrix(0.010850694444444444,0,0,0.010850694444444444,40.006510416666664,0)" xlink:href="#aO"/><use transform="matrix(0.010850694444444444,0,0,0.010850694444444444,53.342013888888886,0)" xlink:href="#aM"/><use transform="matrix(0.010850694444444444,0,0,0.010850694444444444,66.67751736111111,0)" xlink:href="#aO"/></g><g id="F"><use transform="matrix(0.010850694444444442,0,0,0.010850694444444442,0,0)" xlink:href="#bm"/><use transform="matrix(0.010850694444444442,0,0,0.010850694444444442,13.33550347222222,0)" xlink:href="#aM"/><use transform="matrix(0.010850694444444442,0,0,0.010850694444444442,26.67100694444444,0)" xlink:href="#bn"/><use transform="matrix(0.010850694444444442,0,0,0.010850694444444442,40.00651041666666,0)" xlink:href="#aM"/><use transform="matrix(0.010850694444444442,0,0,0.010850694444444442,53.34201388888888,0)" xlink:href="#aY"/></g><g id="G"><use transform="matrix(0.010850694444444442,0,0,0.010850694444444442,0,0)" xlink:href="#aE"/><use transform="matrix(0.010850694444444442,0,0,0.010850694444444442,13.33550347222222,0)" xlink:href="#aM"/><use transform="matrix(0.010850694444444442,0,0,0.010850694444444442,26.67100694444444,0)" xlink:href="#aY"/><use transform="matrix(0.010850694444444442,0,0,0.010850694444444442,40.00651041666666,0)" xlink:href="#aM"/><use transform="matrix(0.010850694444444442,0,0,0.010850694444444442,53.34201388888888,0)" xlink:href="#aZ"/><use transform="matrix(0.010850694444444442,0,0,0.010850694444444442,66.6775173611111,0)" xlink:href="#aF"/><use transform="matrix(0.010850694444444442,0,0,0.010850694444444442,80.01302083333331,0)" xlink:href="#aM"/><use transform="matrix(0.010850694444444442,0,0,0.010850694444444442,93.34852430555554,0)" xlink:href="#aO"/></g><path fill="#3a414a" d="M655-135c108 0 195-33 260-74v-336H622v-160h479v572C981-54 839 20 639 20c-388 0-526-306-526-701 0-406 129-689 529-689 261 0 392 137 461 331l-171 56c-47-131-122-231-288-231-281 0-330 245-330 533 0 179 28 314 84 407s142 139 257 139" id="bo"/><path fill="#3a414a" d="M904-1102c199 0 220 177 220 381V0H956v-686c-3-114 0-215-60-264-70-33-125-4-158 71-26 56-39 140-39 252V0H531v-686c-3-114-1-215-61-264-78-41-136 24-157 84-24 69-39 159-39 259V0H105c-3-360 6-732-6-1082h149c6 50 3 123 8 175 36-100 83-195 216-195 135 0 166 79 196 196 42-105 93-196 236-196" id="bp"/><g id="H"><use transform="matrix(0.00987413194444444,0,0,0.00987413194444444,0,0)" xlink:href="#bo"/><use transform="matrix(0.00987413194444444,0,0,0.00987413194444444,12.135308159722218,0)" xlink:href="#az"/><use transform="matrix(0.00987413194444444,0,0,0.00987413194444444,24.270616319444436,0)" xlink:href="#bp"/><use transform="matrix(0.00987413194444444,0,0,0.00987413194444444,36.40592447916666,0)" xlink:href="#aC"/></g><path fill="#3a414a" d="M1034 0L896-382H333L196 0H0l510-1349h217L1228 0h-194zM847-531c-77-225-157-447-231-674-69 231-154 451-232 674h463" id="bq"/><path fill="#3a414a" d="M168 279c222 39 310-114 368-290L66-1082h192c120 299 249 590 362 896 115-301 235-597 351-896h190L705 0c-65 164-130 320-275 396-67 36-177 35-262 18V279" id="br"/><g id="I"><use transform="matrix(0.00987413194444444,0,0,0.00987413194444444,0,0)" xlink:href="#bq"/><use transform="matrix(0.00987413194444444,0,0,0.00987413194444444,12.135308159722218,0)" xlink:href="#aB"/><use transform="matrix(0.00987413194444444,0,0,0.00987413194444444,24.270616319444436,0)" xlink:href="#ay"/><use transform="matrix(0.00987413194444444,0,0,0.00987413194444444,36.40592447916666,0)" xlink:href="#aJ"/><use transform="matrix(0.00987413194444444,0,0,0.00987413194444444,48.54123263888887,0)" xlink:href="#aS"/><use transform="matrix(0.00987413194444444,0,0,0.00987413194444444,60.676540798611086,0)" xlink:href="#aJ"/><use transform="matrix(0.00987413194444444,0,0,0.00987413194444444,72.8118489583333,0)" xlink:href="#ay"/><use transform="matrix(0.00987413194444444,0,0,0.00987413194444444,84.94715711805553,0)" xlink:href="#br"/></g><path fill="#fff" d="M102-681c0-398 126-689 513-689 165 0 291 58 379 174s132 287 132 515c0 353-105 610-380 685 49 143 111 234 276 240 36 1 86-7 115-13v134c-94 24-238 34-327-3-143-59-210-191-259-346-336-41-449-320-449-697zm749 406c94-160 97-656-5-807-57-85-130-132-231-132-104 0-178 47-234 132-101 153-99 655 1 809 57 89 130 138 232 138 109 0 184-49 237-140" id="bs"/><g id="J"><use transform="matrix(0.010850694444444442,0,0,0.010850694444444442,0,0)" xlink:href="#bs"/><use transform="matrix(0.010850694444444442,0,0,0.010850694444444442,13.33550347222222,0)" xlink:href="#bl"/><use transform="matrix(0.010850694444444442,0,0,0.010850694444444442,26.67100694444444,0)" xlink:href="#bf"/><use transform="matrix(0.010850694444444442,0,0,0.010850694444444442,40.00651041666666,0)" xlink:href="#aF"/></g><path fill="#fff" d="M473-1349c438-1 655 221 652 661C1122-268 945-8 532 0H162v-1349h311zm42 1193c308-4 416-205 418-532 2-330-131-509-459-505H353v1037h162" id="bt"/><path fill="#fff" d="M168 279c222 39 310-114 368-290L66-1082h192c120 299 249 590 362 896 115-301 235-597 351-896h190L705 0c-65 164-130 320-275 396-67 36-177 35-262 18V279" id="bu"/><g id="K"><use transform="matrix(0.010850694444444444,0,0,0.010850694444444444,0,0)" xlink:href="#bt"/><use transform="matrix(0.010850694444444444,0,0,0.010850694444444444,13.335503472222221,0)" xlink:href="#bf"/><use transform="matrix(0.010850694444444444,0,0,0.010850694444444444,26.671006944444443,0)" xlink:href="#aN"/><use transform="matrix(0.010850694444444444,0,0,0.010850694444444444,40.006510416666664,0)" xlink:href="#bk"/><use transform="matrix(0.010850694444444444,0,0,0.010850694444444444,53.342013888888886,0)" xlink:href="#aY"/><use transform="matrix(0.010850694444444444,0,0,0.010850694444444444,66.67751736111111,0)" xlink:href="#aG"/><use transform="matrix(0.010850694444444444,0,0,0.010850694444444444,80.01302083333334,0)" xlink:href="#bu"/></g><g id="L"><use transform="matrix(0.010850694444444444,0,0,0.010850694444444444,0,0)" xlink:href="#ba"/><use transform="matrix(0.010850694444444444,0,0,0.010850694444444444,13.335503472222221,0)" xlink:href="#bc"/><use transform="matrix(0.010850694444444444,0,0,0.010850694444444444,26.671006944444443,0)" xlink:href="#bd"/><use transform="matrix(0.010850694444444444,0,0,0.010850694444444444,40.006510416666664,0)" xlink:href="#aF"/><use transform="matrix(0.010850694444444444,0,0,0.010850694444444444,53.342013888888886,0)" xlink:href="#aH"/><use transform="matrix(0.010850694444444444,0,0,0.010850694444444444,66.67751736111111,0)" xlink:href="#bc"/><use transform="matrix(0.010850694444444444,0,0,0.010850694444444444,80.01302083333334,0)" xlink:href="#aY"/><use transform="matrix(0.010850694444444444,0,0,0.010850694444444444,93.34852430555557,0)" xlink:href="#aN"/></g><path fill="#fff" d="M1034 0L896-382H333L196 0H0l510-1349h217L1228 0h-194zM847-531c-77-225-157-447-231-674-69 231-154 451-232 674h463" id="bv"/><g id="M"><use transform="matrix(0.010850694444444444,0,0,0.010850694444444444,0,0)" xlink:href="#bv"/><use transform="matrix(0.010850694444444444,0,0,0.010850694444444444,13.335503472222221,0)" xlink:href="#bl"/><use transform="matrix(0.010850694444444444,0,0,0.010850694444444444,26.671006944444443,0)" xlink:href="#aO"/><use transform="matrix(0.010850694444444444,0,0,0.010850694444444444,40.006510416666664,0)" xlink:href="#bf"/><use transform="matrix(0.010850694444444444,0,0,0.010850694444444444,53.342013888888886,0)" xlink:href="#bc"/></g><path fill="#fff" d="M802-711c201 25 350 118 350 331C1152-95 921 0 634 0H162v-1349c401 9 908-74 908 327 0 184-111 275-268 311zm-224-69c174-2 300-51 300-218 0-163-124-198-302-198H353v416h225zM353-153c281-2 612 44 606-244-5-271-329-233-606-234v478" id="bw"/><path fill="#fff" d="M914 0L548-499l-132 98V0H236v-1484h180v927l475-525h211L663-617 1125 0H914" id="bx"/><g id="N"><use transform="matrix(0.010850694444444444,0,0,0.010850694444444444,0,0)" xlink:href="#bw"/><use transform="matrix(0.010850694444444444,0,0,0.010850694444444444,13.335503472222221,0)" xlink:href="#aG"/><use transform="matrix(0.010850694444444444,0,0,0.010850694444444444,26.671006944444443,0)" xlink:href="#aZ"/><use transform="matrix(0.010850694444444444,0,0,0.010850694444444444,40.006510416666664,0)" xlink:href="#bx"/></g><g id="O"><use transform="matrix(0.010850694444444444,0,0,0.010850694444444444,0,0)" xlink:href="#bw"/><use transform="matrix(0.010850694444444444,0,0,0.010850694444444444,13.335503472222221,0)" xlink:href="#aG"/><use transform="matrix(0.010850694444444444,0,0,0.010850694444444444,26.671006944444443,0)" xlink:href="#aZ"/><use transform="matrix(0.010850694444444444,0,0,0.010850694444444444,40.006510416666664,0)" xlink:href="#bx"/></g><g id="P"><use transform="matrix(0.010850694444444444,0,0,0.010850694444444444,0,0)" xlink:href="#bs"/><use transform="matrix(0.010850694444444444,0,0,0.010850694444444444,13.335503472222221,0)" xlink:href="#bl"/><use transform="matrix(0.010850694444444444,0,0,0.010850694444444444,26.671006944444443,0)" xlink:href="#bf"/><use transform="matrix(0.010850694444444444,0,0,0.010850694444444444,40.006510416666664,0)" xlink:href="#aF"/></g><g id="Q"><use transform="matrix(0.010850694444444444,0,0,0.010850694444444444,0,0)" xlink:href="#aF"/><use transform="matrix(0.010850694444444444,0,0,0.010850694444444444,13.335503472222221,0)" xlink:href="#bc"/></g><path fill="#fff" d="M285-1169c8 382 2 780 4 1169H129v-1349h237c86 239 188 461 253 720 69-258 169-481 255-720h225V0H937c2-390-5-788 6-1169-75 255-170 488-259 729H547c-90-240-185-475-262-729" id="by"/><g id="R"><use transform="matrix(0.010850694444444444,0,0,0.010850694444444444,0,0)" xlink:href="#by"/><use transform="matrix(0.010850694444444444,0,0,0.010850694444444444,13.335503472222221,0)" xlink:href="#aG"/><use transform="matrix(0.010850694444444444,0,0,0.010850694444444444,26.671006944444443,0)" xlink:href="#bf"/><use transform="matrix(0.010850694444444444,0,0,0.010850694444444444,40.006510416666664,0)" xlink:href="#bd"/></g><g id="S"><use transform="matrix(0.010850694444444444,0,0,0.010850694444444444,0,0)" xlink:href="#by"/><use transform="matrix(0.010850694444444444,0,0,0.010850694444444444,13.335503472222221,0)" xlink:href="#aM"/><use transform="matrix(0.010850694444444444,0,0,0.010850694444444444,26.671006944444443,0)" xlink:href="#bd"/><use transform="matrix(0.010850694444444444,0,0,0.010850694444444444,40.006510416666664,0)" xlink:href="#bl"/></g><path d="M30-248c118-7 216 8 213 122C240-48 200 0 122 0H30v-248zM63-27c89 8 146-16 146-99s-60-101-146-95v194" id="bz"/><path d="M24-231v-30h32v30H24zM24 0v-190h32V0H24" id="bA"/><path d="M135-143c-3-34-86-38-87 0 15 53 115 12 119 90S17 21 10-45l28-5c4 36 97 45 98 0-10-56-113-15-118-90-4-57 82-63 122-42 12 7 21 19 24 35" id="bB"/><path d="M115-194c55 1 70 41 70 98S169 2 115 4C84 4 66-9 55-30l1 105H24l-1-265h31l2 30c10-21 28-34 59-34zm-8 174c40 0 45-34 45-75s-6-73-45-74c-42 0-51 32-51 76 0 43 10 73 51 73" id="bC"/><path d="M24 0v-261h32V0H24" id="bD"/><path d="M141-36C126-15 110 5 73 4 37 3 15-17 15-53c-1-64 63-63 125-63 3-35-9-54-41-54-24 1-41 7-42 31l-33-3c5-37 33-52 76-52 45 0 72 20 72 64v82c-1 20 7 32 28 27v20c-31 9-61-2-59-35zM48-53c0 20 12 33 32 33 41-3 63-29 60-74-43 2-92-5-92 41" id="bE"/><path d="M179-190L93 31C79 59 56 82 12 73V49c39 6 53-20 64-50L1-190h34L92-34l54-156h33" id="bF"/><g id="T"><use transform="matrix(0.05,0,0,0.05,0,0)" xlink:href="#bz"/><use transform="matrix(0.05,0,0,0.05,12.950000000000001,0)" xlink:href="#bA"/><use transform="matrix(0.05,0,0,0.05,16.900000000000002,0)" xlink:href="#bB"/><use transform="matrix(0.05,0,0,0.05,25.900000000000002,0)" xlink:href="#bC"/><use transform="matrix(0.05,0,0,0.05,35.900000000000006,0)" xlink:href="#bD"/><use transform="matrix(0.05,0,0,0.05,39.85000000000001,0)" xlink:href="#bE"/><use transform="matrix(0.05,0,0,0.05,49.85000000000001,0)" xlink:href="#bF"/></g><path d="M140-251c81 0 123 46 123 126C263-46 219 4 140 4 59 4 17-45 17-125s42-126 123-126zm0 227c63 0 89-41 89-101s-29-99-89-99c-61 0-89 39-89 99S79-25 140-24" id="bG"/><path d="M59-47c-2 24 18 29 38 22v24C64 9 27 4 27-40v-127H5v-23h24l9-43h21v43h35v23H59v120" id="bH"/><path d="M100-194c62-1 85 37 85 99 1 63-27 99-86 99S16-35 15-95c0-66 28-99 85-99zM99-20c44 1 53-31 53-75 0-43-8-75-51-75s-53 32-53 75 10 74 51 75" id="bI"/><path d="M117-194c89-4 53 116 60 194h-32v-121c0-31-8-49-39-48C34-167 62-67 57 0H25l-1-190h30c1 10-1 24 2 32 11-22 29-35 61-36" id="bJ"/><g id="U"><use transform="matrix(0.05,0,0,0.05,0,0)" xlink:href="#bG"/><use transform="matrix(0.05,0,0,0.05,14,0)" xlink:href="#bC"/><use transform="matrix(0.05,0,0,0.05,24,0)" xlink:href="#bH"/><use transform="matrix(0.05,0,0,0.05,29,0)" xlink:href="#bA"/><use transform="matrix(0.05,0,0,0.05,32.95,0)" xlink:href="#bI"/><use transform="matrix(0.05,0,0,0.05,42.95,0)" xlink:href="#bJ"/><use transform="matrix(0.05,0,0,0.05,52.95,0)" xlink:href="#bB"/></g><path d="M205 0l-28-72H64L36 0H1l101-248h38L239 0h-34zm-38-99l-47-123c-12 45-31 82-46 123h93" id="bK"/><path d="M84 4C-5 8 30-112 23-190h32v120c0 31 7 50 39 49 72-2 45-101 50-169h31l1 190h-30c-1-10 1-25-2-33-11 22-28 36-60 37" id="bL"/><path d="M85-194c31 0 48 13 60 33l-1-100h32l1 261h-30c-2-10 0-23-3-31C134-8 116 4 85 4 32 4 16-35 15-94c0-66 23-100 70-100zm9 24c-40 0-46 34-46 75 0 40 6 74 45 74 42 0 51-32 51-76 0-42-9-74-50-73" id="bM"/><g id="V"><use transform="matrix(0.05,0,0,0.05,0,0)" xlink:href="#bK"/><use transform="matrix(0.05,0,0,0.05,12,0)" xlink:href="#bL"/><use transform="matrix(0.05,0,0,0.05,22,0)" xlink:href="#bM"/><use transform="matrix(0.05,0,0,0.05,32,0)" xlink:href="#bA"/><use transform="matrix(0.05,0,0,0.05,35.95,0)" xlink:href="#bI"/></g><path d="M212-179c-10-28-35-45-73-45-59 0-87 40-87 99 0 60 29 101 89 101 43 0 62-24 78-52l27 14C228-24 195 4 139 4 59 4 22-46 18-125c-6-104 99-153 187-111 19 9 31 26 39 46" id="bN"/><path d="M114-163C36-179 61-72 57 0H25l-1-190h30c1 12-1 29 2 39 6-27 23-49 58-41v29" id="bO"/><g id="W"><use transform="matrix(0.05,0,0,0.05,0,0)" xlink:href="#bN"/><use transform="matrix(0.05,0,0,0.05,12.950000000000001,0)" xlink:href="#bI"/><use transform="matrix(0.05,0,0,0.05,22.950000000000003,0)" xlink:href="#bJ"/><use transform="matrix(0.05,0,0,0.05,32.95,0)" xlink:href="#bH"/><use transform="matrix(0.05,0,0,0.05,37.95,0)" xlink:href="#bO"/><use transform="matrix(0.05,0,0,0.05,43.900000000000006,0)" xlink:href="#bI"/><use transform="matrix(0.05,0,0,0.05,53.900000000000006,0)" xlink:href="#bD"/><use transform="matrix(0.05,0,0,0.05,57.85,0)" xlink:href="#bB"/></g><path d="M106-169C34-169 62-67 57 0H25v-261h32l-1 103c12-21 28-36 61-36 89 0 53 116 60 194h-32v-121c2-32-8-49-39-48" id="bP"/><path d="M96-169c-40 0-48 33-48 73s9 75 48 75c24 0 41-14 43-38l32 2c-6 37-31 61-74 61-59 0-76-41-82-99-10-93 101-131 147-64 4 7 5 14 7 22l-32 3c-4-21-16-35-41-35" id="bQ"/><path d="M100-194c63 0 86 42 84 106H49c0 40 14 67 53 68 26 1 43-12 49-29l28 8c-11 28-37 45-77 45C44 4 14-33 15-96c1-61 26-98 85-98zm52 81c6-60-76-77-97-28-3 7-6 17-6 28h103" id="bR"/><g id="X"><use transform="matrix(0.05,0,0,0.05,0,0)" xlink:href="#bN"/><use transform="matrix(0.05,0,0,0.05,12.950000000000001,0)" xlink:href="#bP"/><use transform="matrix(0.05,0,0,0.05,22.950000000000003,0)" xlink:href="#bE"/><use transform="matrix(0.05,0,0,0.05,32.95,0)" xlink:href="#bO"/><use transform="matrix(0.05,0,0,0.05,38.900000000000006,0)" xlink:href="#bE"/><use transform="matrix(0.05,0,0,0.05,48.900000000000006,0)" xlink:href="#bQ"/><use transform="matrix(0.05,0,0,0.05,57.900000000000006,0)" xlink:href="#bH"/><use transform="matrix(0.05,0,0,0.05,62.900000000000006,0)" xlink:href="#bR"/><use transform="matrix(0.05,0,0,0.05,72.9,0)" xlink:href="#bO"/></g><g id="Y"><use transform="matrix(0.05,0,0,0.05,0,0)" xlink:href="#bN"/><use transform="matrix(0.05,0,0,0.05,12.950000000000001,0)" xlink:href="#bO"/><use transform="matrix(0.05,0,0,0.05,18.900000000000002,0)" xlink:href="#bR"/><use transform="matrix(0.05,0,0,0.05,28.900000000000002,0)" xlink:href="#bE"/><use transform="matrix(0.05,0,0,0.05,38.900000000000006,0)" xlink:href="#bH"/><use transform="matrix(0.05,0,0,0.05,43.900000000000006,0)" xlink:href="#bR"/></g><path d="M240 0l2-218c-23 76-54 145-80 218h-23L58-218 59 0H30v-248h44l77 211c21-75 51-140 76-211h43V0h-30" id="bS"/><g id="Z"><use transform="matrix(0.05,0,0,0.05,0,0)" xlink:href="#bS"/><use transform="matrix(0.05,0,0,0.05,14.950000000000001,0)" xlink:href="#bR"/><use transform="matrix(0.05,0,0,0.05,24.950000000000003,0)" xlink:href="#bJ"/><use transform="matrix(0.05,0,0,0.05,34.95,0)" xlink:href="#bL"/></g><path d="M30 0v-248h33v221h125V0H30" id="bT"/><path d="M108 0H70L1-190h34L89-25l56-165h34" id="bU"/><g id="aa"><use transform="matrix(0.05,0,0,0.05,0,0)" xlink:href="#bT"/><use transform="matrix(0.05,0,0,0.05,10,0)" xlink:href="#bR"/><use transform="matrix(0.05,0,0,0.05,20,0)" xlink:href="#bU"/><use transform="matrix(0.05,0,0,0.05,29,0)" xlink:href="#bR"/><use transform="matrix(0.05,0,0,0.05,39,0)" xlink:href="#bD"/></g><path d="M185-189c-5-48-123-54-124 2 14 75 158 14 163 119 3 78-121 87-175 55-17-10-28-26-33-46l33-7c5 56 141 63 141-1 0-78-155-14-162-118-5-82 145-84 179-34 5 7 8 16 11 25" id="bV"/><g id="ab"><use transform="matrix(0.05,0,0,0.05,0,0)" xlink:href="#bV"/><use transform="matrix(0.05,0,0,0.05,12,0)" xlink:href="#bR"/><use transform="matrix(0.05,0,0,0.05,22,0)" xlink:href="#bD"/><use transform="matrix(0.05,0,0,0.05,25.950000000000003,0)" xlink:href="#bR"/><use transform="matrix(0.05,0,0,0.05,35.95,0)" xlink:href="#bQ"/><use transform="matrix(0.05,0,0,0.05,44.95,0)" xlink:href="#bH"/></g><g id="ac"><use transform="matrix(0.05,0,0,0.05,0,0)" xlink:href="#bS"/><use transform="matrix(0.05,0,0,0.05,14.950000000000001,0)" xlink:href="#bR"/><use transform="matrix(0.05,0,0,0.05,24.950000000000003,0)" xlink:href="#bJ"/><use transform="matrix(0.05,0,0,0.05,34.95,0)" xlink:href="#bL"/></g></defs></g></svg>