<svg xmlns="http://www.w3.org/2000/svg" xmlns:xlink="http://www.w3.org/1999/xlink" xmlns:lucid="lucid" width="2030" height="1008"><g transform="translate(1658 -2598)" lucid:page-tab-id="tVgfkzbeLjFF"><path d="M-2000 2500H500v1500h-2500z" fill="#fff"/><path d="M-1 3435.66h-79v-.02h-79" stroke="#000" fill="none"/><path d="M-.5 3436.14H-1v-.95h.5zM-159 3436.1h-.5v-.93h.5z" stroke="#000" stroke-width=".05"/><use xlink:href="#a" transform="matrix(1,0,0,1,-137.1186775868559,3439.6395747548804) translate(0 14.222222222222223)"/><use xlink:href="#b" transform="matrix(1,0,0,1,-35.45295674639212,3410.326236987412) translate(0 14.222222222222223)"/><path d="M-930.83 3008.96h64.8a.12.12 0 0 1 .12.12.12.12 0 0 0 .1.12h64.8" stroke="#000" fill="none"/><path d="M-930.82 3009.43h-.5v-.94h.5zM-800.5 3009.68h-.5v-.95h.5z" stroke="#000" stroke-width=".05"/><use xlink:href="#a" transform="matrix(1,0,0,1,-921.4105400534667,2983.6263561058277) translate(0 14.222222222222223)"/><use xlink:href="#a" transform="matrix(1,0,0,1,-843.9649575690052,3013.2005855792836) translate(0 14.222222222222223)"/><path d="M-475.1 3047.7H-321" stroke="#000" fill="none"/><path d="M-475.08 3048.17h-.52v-.95h.52zM-320.5 3048.18h-.5v-.95h.5z" stroke="#000" stroke-width=".05"/><use xlink:href="#b" transform="matrix(1,0,0,1,-367.3520726552053,3051.7032330848365) translate(0 14.222222222222223)"/><use xlink:href="#a" transform="matrix(1,0,0,1,-461.7794525001068,3022.3575336584872) translate(0 14.222222222222223)"/><path d="M-67.88 3084.7H39" stroke="#000" fill="none"/><path d="M-67.87 3085.18h-.5v-.95h.5zM39.5 3085.17H39v-.95h.5z" stroke="#000" stroke-width=".05"/><use xlink:href="#c" transform="matrix(1,0,0,1,-68.39833800752008,3059.3721905403404) translate(0 14.222222222222223)"/><use xlink:href="#a" transform="matrix(1,0,0,1,9.86969378736909,3059.36080112702) translate(0 14.222222222222223)"/><path d="M-1540.54 2898.5h-33.5a6 6 0 0 1-6-6v-28a6 6 0 0 0-6-6h-7.96a6 6 0 0 0-6 6v208a6 6 0 0 0 6 6h33.46" stroke="#000" fill="none"/><path d="M-1540.04 2898.98h-.5v-.95h.5zM-1560.04 3078.98h-.5v-.95h.5z" stroke="#000" stroke-width=".05"/><use xlink:href="#a" transform="matrix(1,0,0,1,-1584.3622723687013,2835.9669361763927) translate(0 14.222222222222223)"/><use xlink:href="#d" transform="matrix(1,0,0,1,-1615.6489350694321,3082.282254465597) translate(0 14.222222222222223)"/><path d="M-1293.2 3115.5H-801" stroke="#000" fill="none"/><path d="M-1293.2 3115.98h-.5v-.95h.5zM-800.5 3115.98h-.5v-.95h.5z" stroke="#000" stroke-width=".05"/><use xlink:href="#b" transform="matrix(1,0,0,1,-1288.2146872460335,3090.167970974478) translate(0 14.222222222222223)"/><use xlink:href="#a" transform="matrix(1,0,0,1,-829.8822125656055,3119.508696597315) translate(0 14.222222222222223)"/><path d="M266.35 3083.97l57.65.02a6 6 0 0 1 6 6v302.5a6 6 0 0 1-6 6h-81.77" stroke="#000" fill="none"/><path d="M266.37 3083.5v.94h-.52v-.95zM242.24 3398.98h-.5v-.95h.5z" stroke="#000" stroke-width=".05"/><use xlink:href="#b" transform="matrix(1,0,0,1,270.096471173981,3373.172884184069) translate(0 14.222222222222223)"/><use xlink:href="#a" transform="matrix(1,0,0,1,279.83222712993165,3087.9801537114963) translate(0 14.222222222222223)"/><path d="M-638.05 3178.2V3319" stroke="#000" fill="none"/><path d="M-637.57 3178.22h-.95v-.52h.95zM-637.57 3319.5h-.95v-.5h.95z" stroke="#000" stroke-width=".05"/><use xlink:href="#b" transform="matrix(1,0,0,1,-630.0480448584999,3191.285220623325) translate(0 14.222222222222223)"/><use xlink:href="#a" transform="matrix(1,0,0,1,-675.6776744881295,3286.2994954610076) translate(0 14.222222222222223)"/><path d="M-800 2995.2a6 6 0 0 1 6-6h311.9a6 6 0 0 1 6 6v176a6 6 0 0 1-6 6H-794a6 6 0 0 1-6-6z" fill="#fff"/><path d="M-800 3066.2v38h323.9v-38M-800 3140.2v31a6 6 0 0 0 6 6h311.9a6 6 0 0 0 6-6v-31" fill="#f2f3f5"/><path d="M-800 3029.2v-34a6 6 0 0 1 6-6h311.9a6 6 0 0 1 6 6v34" fill="#ced4db"/><path d="M-800 2995.2a6 6 0 0 1 6-6h311.9a6 6 0 0 1 6 6v176a6 6 0 0 1-6 6H-794a6 6 0 0 1-6-6zM-800 3029.2h323.9M-714.88 3029.2v148" stroke="#000" fill="none"/><use xlink:href="#e" transform="matrix(1,0,0,1,-789.9999999999998,2989.2027847564354) translate(31.22839506172842 24.444444444444443)"/><use xlink:href="#f" transform="matrix(1,0,0,1,-794.9999999999998,3031.7027847564354) translate(23.185185185185187 20.444444444444443)"/><use xlink:href="#g" transform="matrix(1,0,0,1,-709.8842553658154,3031.7027847564354) translate(0 20.444444444444443)"/><use xlink:href="#f" transform="matrix(1,0,0,1,-794.9999999999998,3068.7027847564354) translate(23.185185185185187 20.444444444444443)"/><use xlink:href="#h" transform="matrix(1,0,0,1,-709.8842553658154,3068.7027847564354) translate(0 20.444444444444443)"/><use xlink:href="#i" transform="matrix(1,0,0,1,-794.9999999999998,3105.7027847564354) translate(2.845679012345684 20.444444444444443)"/><use xlink:href="#j" transform="matrix(1,0,0,1,-794.9999999999998,3105.7027847564354) translate(44.820987654320994 20.444444444444443)"/><use xlink:href="#k" transform="matrix(1,0,0,1,-709.8842553658154,3105.7027847564354) translate(0 20.444444444444443)"/><use xlink:href="#l" transform="matrix(1,0,0,1,-709.8842553658154,3142.7027847564354) translate(0 20.444444444444443)"/><path d="M-765.2 3326a6 6 0 0 1 6-6h242.3a6 6 0 0 1 6 6v213a6 6 0 0 1-6 6h-242.3a6 6 0 0 1-6-6z" fill="#fff"/><path d="M-765.2 3397v38h254.3v-38M-765.2 3471v38h254.3v-38" fill="#f2f3f5"/><path d="M-765.2 3360v-34a6 6 0 0 1 6-6h242.3a6 6 0 0 1 6 6v34" fill="#ced4db"/><path d="M-765.2 3326a6 6 0 0 1 6-6h242.3a6 6 0 0 1 6 6v213a6 6 0 0 1-6 6h-242.3a6 6 0 0 1-6-6zM-765.2 3360h254.3M-705.2 3360v185" stroke="#000" fill="none"/><use xlink:href="#m" transform="matrix(1,0,0,1,-755.2070417244934,3320) translate(50.9567901234568 24.444444444444443)"/><use xlink:href="#f" transform="matrix(1,0,0,1,-760.2070417244934,3362.5) translate(10.185185185185187 20.444444444444443)"/><use xlink:href="#k" transform="matrix(1,0,0,1,-700.2070417244934,3362.5) translate(0 20.444444444444443)"/><use xlink:href="#n" transform="matrix(1,0,0,1,-700.2070417244934,3399.5) translate(0 20.444444444444443)"/><use xlink:href="#o" transform="matrix(1,0,0,1,-700.2070417244934,3436.5) translate(0 20.444444444444443)"/><use xlink:href="#p" transform="matrix(1,0,0,1,-700.2070417244934,3473.5) translate(0 20.444444444444443)"/><use xlink:href="#q" transform="matrix(1,0,0,1,-700.2070417244934,3510.5) translate(0 20.444444444444443)"/><use xlink:href="#r" transform="matrix(1,0,0,1,-700.2070417244934,3510.5) translate(61.604938271604944 20.444444444444443)"/><path d="M-320 2995.2a6 6 0 0 1 6-6h239.12a6 6 0 0 1 6 6v102a6 6 0 0 1-6 6H-314a6 6 0 0 1-6-6z" fill="#fff"/><path d="M-320 3066.2v31a6 6 0 0 0 6 6h239.12a6 6 0 0 0 6-6v-31" fill="#f2f3f5"/><path d="M-320 3029.2v-34a6 6 0 0 1 6-6h239.12a6 6 0 0 1 6 6v34" fill="#ced4db"/><path d="M-320 2995.2a6 6 0 0 1 6-6h239.12a6 6 0 0 1 6 6v102a6 6 0 0 1-6 6H-314a6 6 0 0 1-6-6zM-320 3029.2h251.12M-235.28 3029.2v74" stroke="#000" fill="none"/><use xlink:href="#s" transform="matrix(1,0,0,1,-310,2989.2027847564354) translate(3.8395061728395348 24.444444444444443)"/><use xlink:href="#i" transform="matrix(1,0,0,1,-315,3031.7027847564354) translate(2.345679012345684 20.444444444444443)"/><use xlink:href="#j" transform="matrix(1,0,0,1,-315,3031.7027847564354) translate(44.320987654320994 20.444444444444443)"/><use xlink:href="#g" transform="matrix(1,0,0,1,-230.28069794976534,3031.7027847564354) translate(0 20.444444444444443)"/><use xlink:href="#i" transform="matrix(1,0,0,1,-315,3068.7027847564354) translate(2.345679012345684 20.444444444444443)"/><use xlink:href="#j" transform="matrix(1,0,0,1,-315,3068.7027847564354) translate(44.320987654320994 20.444444444444443)"/><use xlink:href="#t" transform="matrix(1,0,0,1,-230.28069794976534,3068.7027847564354) translate(0 20.444444444444443)"/><path d="M40 3031.7a6 6 0 0 1 6-6h213.35a6 6 0 0 1 6 6v213a6 6 0 0 1-6 6H46a6 6 0 0 1-6-6z" fill="#fff"/><path d="M40 3102.7v38h225.35v-38M40 3176.7v38h225.35v-38" fill="#f2f3f5"/><path d="M40 3065.7v-34a6 6 0 0 1 6-6h213.35a6 6 0 0 1 6 6v34" fill="#ced4db"/><path d="M40 3031.7a6 6 0 0 1 6-6h213.35a6 6 0 0 1 6 6v213a6 6 0 0 1-6 6H46a6 6 0 0 1-6-6zM40 3065.7h225.35M100 3065.7v185" stroke="#000" fill="none"/><use xlink:href="#u" transform="matrix(1,0,0,1,50,3025.7078034968804) translate(45.067901234567906 24.444444444444443)"/><use xlink:href="#f" transform="matrix(1,0,0,1,45,3068.2078034968804) translate(10.185185185185187 20.444444444444443)"/><use xlink:href="#t" transform="matrix(1,0,0,1,105,3068.2078034968804) translate(0 20.444444444444443)"/><use xlink:href="#l" transform="matrix(1,0,0,1,105,3105.2078034968804) translate(0 20.444444444444443)"/><use xlink:href="#v" transform="matrix(1,0,0,1,45,3142.2078034968804) translate(10.833333333333336 20.444444444444443)"/><use xlink:href="#w" transform="matrix(1,0,0,1,105,3142.2078034968804) translate(0 20.444444444444443)"/><use xlink:href="#v" transform="matrix(1,0,0,1,45,3179.2078034968804) translate(10.833333333333336 20.444444444444443)"/><use xlink:href="#x" transform="matrix(1,0,0,1,105,3179.2078034968804) translate(0 20.444444444444443)"/><use xlink:href="#y" transform="matrix(1,0,0,1,105,3179.2078034968804) translate(81.23456790123457 20.444444444444443)"/><use xlink:href="#z" transform="matrix(1,0,0,1,105,3216.2078034968804) translate(0 20.444444444444443)"/><path d="M0 3346a6 6 0 0 1 6-6h229.23a6 6 0 0 1 6 6v102a6 6 0 0 1-6 6H6a6 6 0 0 1-6-6z" fill="#fff"/><path d="M0 3417v31a6 6 0 0 0 6 6h229.23a6 6 0 0 0 6-6v-31" fill="#f2f3f5"/><path d="M0 3380v-34a6 6 0 0 1 6-6h229.23a6 6 0 0 1 6 6v34" fill="#ced4db"/><path d="M0 3346a6 6 0 0 1 6-6h229.23a6 6 0 0 1 6 6v102a6 6 0 0 1-6 6H6a6 6 0 0 1-6-6zM0 3380h241.23M85.33 3380v74" stroke="#000" fill="none"/><use xlink:href="#A" transform="matrix(1,0,0,1,10,3339.999999999999) translate(7.4197530864197745 24.444444444444443)"/><use xlink:href="#i" transform="matrix(1,0,0,1,5,3382.499999999999) translate(2.845679012345684 20.444444444444443)"/><use xlink:href="#j" transform="matrix(1,0,0,1,5,3382.499999999999) translate(44.820987654320994 20.444444444444443)"/><use xlink:href="#t" transform="matrix(1,0,0,1,90.33333333333348,3382.499999999999) translate(0 20.444444444444443)"/><use xlink:href="#i" transform="matrix(1,0,0,1,5,3419.499999999999) translate(2.845679012345684 20.444444444444443)"/><use xlink:href="#j" transform="matrix(1,0,0,1,5,3419.499999999999) translate(44.820987654320994 20.444444444444443)"/><use xlink:href="#B" transform="matrix(1,0,0,1,90.33333333333348,3419.499999999999) translate(0 20.444444444444443)"/><path d="M-360 3383.13a6 6 0 0 1 6-6h188a6 6 0 0 1 6 6v102a6 6 0 0 1-6 6h-188a6 6 0 0 1-6-6z" fill="#fff"/><path d="M-360 3454.13v31a6 6 0 0 0 6 6h188a6 6 0 0 0 6-6v-31" fill="#f2f3f5"/><path d="M-360 3417.13v-34a6 6 0 0 1 6-6h188a6 6 0 0 1 6 6v34" fill="#ced4db"/><path d="M-360 3383.13a6 6 0 0 1 6-6h188a6 6 0 0 1 6 6v102a6 6 0 0 1-6 6h-188a6 6 0 0 1-6-6zM-360 3417.13h200M-300 3417.13v74" stroke="#000" fill="none"/><use xlink:href="#C" transform="matrix(1,0,0,1,-350,3377.1320754827107) translate(56.080246913580254 24.444444444444443)"/><use xlink:href="#f" transform="matrix(1,0,0,1,-355,3419.6320754827107) translate(10.185185185185187 20.444444444444443)"/><use xlink:href="#B" transform="matrix(1,0,0,1,-295,3419.6320754827107) translate(0 20.444444444444443)"/><use xlink:href="#l" transform="matrix(1,0,0,1,-295,3456.6320754827107) translate(0 20.444444444444443)"/><path d="M-1559.54 3026a6 6 0 0 1 6-6h253.33a6 6 0 0 1 6 6v102a6 6 0 0 1-6 6h-253.34a6 6 0 0 1-6-6z" fill="#fff"/><path d="M-1559.54 3097v31a6 6 0 0 0 6 6h253.33a6 6 0 0 0 6-6v-31" fill="#f2f3f5"/><path d="M-1559.54 3060v-34a6 6 0 0 1 6-6h253.33a6 6 0 0 1 6 6v34" fill="#ced4db"/><path d="M-1559.54 3026a6 6 0 0 1 6-6h253.33a6 6 0 0 1 6 6v102a6 6 0 0 1-6 6h-253.34a6 6 0 0 1-6-6zM-1559.54 3060h265.33M-1476.22 3060v74" stroke="#000" fill="none"/><use xlink:href="#D" transform="matrix(1,0,0,1,-1549.5377216194738,3019.9987112790704) translate(36.05555555555557 24.444444444444443)"/><use xlink:href="#i" transform="matrix(1,0,0,1,-1554.5377216194738,3062.4987112790704) translate(1.845679012345684 20.444444444444443)"/><use xlink:href="#j" transform="matrix(1,0,0,1,-1554.5377216194738,3062.4987112790704) translate(43.820987654320994 20.444444444444443)"/><use xlink:href="#E" transform="matrix(1,0,0,1,-1471.221378161953,3062.4987112790704) translate(0 20.444444444444443)"/><use xlink:href="#i" transform="matrix(1,0,0,1,-1554.5377216194738,3099.4987112790704) translate(1.845679012345684 20.444444444444443)"/><use xlink:href="#j" transform="matrix(1,0,0,1,-1554.5377216194738,3099.4987112790704) translate(43.820987654320994 20.444444444444443)"/><use xlink:href="#g" transform="matrix(1,0,0,1,-1471.221378161953,3099.4987112790704) translate(0 20.444444444444443)"/><path d="M-1539.54 2846a6 6 0 0 1 6-6h188a6 6 0 0 1 6 6v102a6 6 0 0 1-6 6h-188a6 6 0 0 1-6-6z" fill="#fff"/><path d="M-1539.54 2917v31a6 6 0 0 0 6 6h188a6 6 0 0 0 6-6v-31" fill="#f2f3f5"/><path d="M-1539.54 2880v-34a6 6 0 0 1 6-6h188a6 6 0 0 1 6 6v34" fill="#ced4db"/><path d="M-1539.54 2846a6 6 0 0 1 6-6h188a6 6 0 0 1 6 6v102a6 6 0 0 1-6 6h-188a6 6 0 0 1-6-6zM-1539.54 2880h200M-1479.54 2880v74" stroke="#000" fill="none"/><use xlink:href="#F" transform="matrix(1,0,0,1,-1529.5377216194738,2840) translate(22.160493827160494 24.444444444444443)"/><use xlink:href="#f" transform="matrix(1,0,0,1,-1534.5377216194738,2882.5) translate(10.185185185185187 20.444444444444443)"/><use xlink:href="#E" transform="matrix(1,0,0,1,-1474.5377216194738,2882.5) translate(0 20.444444444444443)"/><use xlink:href="#G" transform="matrix(1,0,0,1,-1474.5377216194738,2919.5) translate(0 20.444444444444443)"/><path d="M-1191.83 2664.18a6 6 0 0 1 6-6h228a6 6 0 0 1 6 6v139a6 6 0 0 1-6 6h-228a6 6 0 0 1-6-6z" fill="#fff"/><path d="M-1191.83 2735.18v38h240v-38" fill="#f2f3f5"/><path d="M-1191.83 2698.18v-34a6 6 0 0 1 6-6h228a6 6 0 0 1 6 6v34" fill="#ced4db"/><path d="M-1191.83 2664.18a6 6 0 0 1 6-6h228a6 6 0 0 1 6 6v139a6 6 0 0 1-6 6h-228a6 6 0 0 1-6-6zM-1191.83 2698.18h240M-1108.33 2698.18v111" stroke="#000" fill="none"/><use xlink:href="#H" transform="matrix(1,0,0,1,-1181.8309182319858,2658.174983173108) translate(-1.5740740740740478 24.444444444444443)"/><use xlink:href="#f" transform="matrix(1,0,0,1,-1186.8309182319858,2700.674983173108) translate(22.185185185185187 20.444444444444443)"/><use xlink:href="#I" transform="matrix(1,0,0,1,-1103.3295425649799,2700.674983173108) translate(0 20.444444444444443)"/><use xlink:href="#i" transform="matrix(1,0,0,1,-1186.8309182319858,2737.674983173108) translate(1.845679012345684 20.444444444444443)"/><use xlink:href="#j" transform="matrix(1,0,0,1,-1186.8309182319858,2737.674983173108) translate(43.820987654320994 20.444444444444443)"/><use xlink:href="#J" transform="matrix(1,0,0,1,-1103.3295425649799,2737.674983173108) translate(0 20.444444444444443)"/><use xlink:href="#i" transform="matrix(1,0,0,1,-1186.8309182319858,2774.674983173108) translate(1.845679012345684 20.444444444444443)"/><use xlink:href="#j" transform="matrix(1,0,0,1,-1186.8309182319858,2774.674983173108) translate(43.820987654320994 20.444444444444443)"/><use xlink:href="#K" transform="matrix(1,0,0,1,-1103.3295425649799,2774.674983173108) translate(0 20.444444444444443)"/><path d="M-803.9 2664.18a6 6 0 0 1 6-6h188a6 6 0 0 1 6 6v213a6 6 0 0 1-6 6h-188a6 6 0 0 1-6-6z" fill="#fff"/><path d="M-803.9 2735.18v38h200v-38M-803.9 2809.18v38h200v-38" fill="#f2f3f5"/><path d="M-803.9 2698.18v-34a6 6 0 0 1 6-6h188a6 6 0 0 1 6 6v34" fill="#ced4db"/><path d="M-803.9 2664.18a6 6 0 0 1 6-6h188a6 6 0 0 1 6 6v213a6 6 0 0 1-6 6h-188a6 6 0 0 1-6-6zM-803.9 2698.18h200M-741 2698.18v185" stroke="#000" fill="none"/><use xlink:href="#L" transform="matrix(1,0,0,1,-793.9039102830001,2658.174983173108) translate(38.82716049382715 24.444444444444443)"/><use xlink:href="#f" transform="matrix(1,0,0,1,-798.9039102830001,2700.674983173108) translate(11.685185185185187 20.444444444444443)"/><use xlink:href="#K" transform="matrix(1,0,0,1,-736.0102559330174,2700.674983173108) translate(0 20.444444444444443)"/><use xlink:href="#n" transform="matrix(1,0,0,1,-736.0102559330174,2737.674983173108) translate(0 20.444444444444443)"/><use xlink:href="#M" transform="matrix(1,0,0,1,-736.0102559330174,2774.674983173108) translate(0 20.444444444444443)"/><use xlink:href="#N" transform="matrix(1,0,0,1,-736.0102559330174,2811.674983173108) translate(0 20.444444444444443)"/><use xlink:href="#O" transform="matrix(1,0,0,1,-736.0102559330174,2848.674983173108) translate(0 20.444444444444443)"/><path d="M-950.83 2716.67h145.93" stroke="#000" fill="none"/><path d="M-950.82 2717.14h-.5v-.95h.5zM-804.4 2717.14h-.52v-.95h.52z" stroke="#000" stroke-width=".05"/><use xlink:href="#b" transform="matrix(1,0,0,1,-923.277168715629,2691.3352069535504) translate(0 14.222222222222223)"/><use xlink:href="#a" transform="matrix(1,0,0,1,-844.712285387313,2720.665243307038) translate(0 14.222222222222223)"/><path d="M-602.9 2716.64h60.93l.02.02v.02H-481" stroke="#000" fill="none"/><path d="M-602.9 2717.12h-.5v-.95h.5zM-480.5 2717.15h-.5v-.95h.5z" stroke="#000" stroke-width=".05"/><use xlink:href="#a" transform="matrix(1,0,0,1,-592.2732094692198,2691.3118625924085) translate(0 14.222222222222223)"/><use xlink:href="#b" transform="matrix(1,0,0,1,-514.5853980633246,2720.6754166393466) translate(0 14.222222222222223)"/><path d="M-75.8 2768.46a6 6 0 0 1 6-6h247.77a6 6 0 0 1 6 6v139a6 6 0 0 1-6 6H-69.8a6 6 0 0 1-6-6z" fill="#fff"/><path d="M-75.8 2839.46v38h259.77v-38" fill="#f2f3f5"/><path d="M-75.8 2802.46v-34a6 6 0 0 1 6-6h247.77a6 6 0 0 1 6 6v34" fill="#ced4db"/><path d="M-75.8 2768.46a6 6 0 0 1 6-6h247.77a6 6 0 0 1 6 6v139a6 6 0 0 1-6 6H-69.8a6 6 0 0 1-6-6zM-75.8 2802.46h259.77M5.84 2802.46v111" stroke="#000" fill="none"/><use xlink:href="#P" transform="matrix(1,0,0,1,-65.7934293437296,2762.4559700037285) translate(56.54320987654321 24.444444444444443)"/><use xlink:href="#f" transform="matrix(1,0,0,1,-70.7934293437296,2804.9559700037285) translate(21.185185185185187 20.444444444444443)"/><use xlink:href="#Q" transform="matrix(1,0,0,1,10.844365616654613,2804.9559700037285) translate(0 20.444444444444443)"/><use xlink:href="#i" transform="matrix(1,0,0,1,-70.7934293437296,2841.9559700037285) translate(0.8456790123456841 20.444444444444443)"/><use xlink:href="#j" transform="matrix(1,0,0,1,-70.7934293437296,2841.9559700037285) translate(42.820987654320994 20.444444444444443)"/><use xlink:href="#R" transform="matrix(1,0,0,1,10.844365616654613,2841.9559700037285) translate(0 20.444444444444443)"/><use xlink:href="#i" transform="matrix(1,0,0,1,-70.7934293437296,2878.9559700037285) translate(0.8456790123456841 20.444444444444443)"/><use xlink:href="#j" transform="matrix(1,0,0,1,-70.7934293437296,2878.9559700037285) translate(42.820987654320994 20.444444444444443)"/><use xlink:href="#S" transform="matrix(1,0,0,1,10.844365616654613,2878.9559700037285) translate(0 20.444444444444443)"/><path d="M-1211.83 2919.46a6 6 0 0 1 6-6h268a6 6 0 0 1 6 6v139a6 6 0 0 1-6 6h-268a6 6 0 0 1-6-6z" fill="#fff"/><path d="M-1211.83 2990.46v38h280v-38" fill="#f2f3f5"/><path d="M-1211.83 2953.46v-34a6 6 0 0 1 6-6h268a6 6 0 0 1 6 6v34" fill="#ced4db"/><path d="M-1211.83 2919.46a6 6 0 0 1 6-6h268a6 6 0 0 1 6 6v139a6 6 0 0 1-6 6h-268a6 6 0 0 1-6-6zM-1211.83 2953.46h280M-1126.76 2953.46v111" stroke="#000" fill="none"/><use xlink:href="#T" transform="matrix(1,0,0,1,-1201.8309182319858,2913.4559700037285) translate(27.098765432098787 24.444444444444443)"/><use xlink:href="#i" transform="matrix(1,0,0,1,-1206.8309182319858,2955.9559700037285) translate(2.845679012345684 20.444444444444443)"/><use xlink:href="#j" transform="matrix(1,0,0,1,-1206.8309182319858,2955.9559700037285) translate(44.820987654320994 20.444444444444443)"/><use xlink:href="#g" transform="matrix(1,0,0,1,-1121.7566365034809,2955.9559700037285) translate(0 20.444444444444443)"/><use xlink:href="#i" transform="matrix(1,0,0,1,-1206.8309182319858,2992.9559700037285) translate(2.845679012345684 20.444444444444443)"/><use xlink:href="#j" transform="matrix(1,0,0,1,-1206.8309182319858,2992.9559700037285) translate(44.820987654320994 20.444444444444443)"/><use xlink:href="#J" transform="matrix(1,0,0,1,-1121.7566365034809,2992.9559700037285) translate(0 20.444444444444443)"/><use xlink:href="#N" transform="matrix(1,0,0,1,-1121.7566365034809,3029.9559700037285) translate(0 20.444444444444443)"/><path d="M-1071.83 2912.46v-102.28" stroke="#000" fill="none"/><path d="M-1071.36 2912.96h-.95v-.52h.94zM-1071.36 2810.2h-.95v-.52h.94z" stroke="#000" stroke-width=".05"/><use xlink:href="#b" transform="matrix(1,0,0,1,-1106.4975848986523,2809.770685140473) translate(0 14.222222222222223)"/><use xlink:href="#a" transform="matrix(1,0,0,1,-1063.8309182319858,2886.974955062606) translate(0 14.222222222222223)"/><path d="M-480 2664.18a6 6 0 0 1 6-6h247.76a6 6 0 0 1 6 6v102a6 6 0 0 1-6 6H-474a6 6 0 0 1-6-6z" fill="#fff"/><path d="M-480 2735.18v31a6 6 0 0 0 6 6h247.76a6 6 0 0 0 6-6v-31" fill="#f2f3f5"/><path d="M-480 2698.18v-34a6 6 0 0 1 6-6h247.76a6 6 0 0 1 6 6v34" fill="#ced4db"/><path d="M-480 2664.18a6 6 0 0 1 6-6h247.76a6 6 0 0 1 6 6v102a6 6 0 0 1-6 6H-474a6 6 0 0 1-6-6zM-480 2698.18h259.76M-395.22 2698.18v74" stroke="#000" fill="none"/><g><use xlink:href="#U" transform="matrix(1,0,0,1,-470,2658.1749831741618) translate(-0.8024691358024398 24.444444444444443)"/></g><g><use xlink:href="#i" transform="matrix(1,0,0,1,-475,2700.6749831741618) translate(2.345679012345684 20.444444444444443)"/><use xlink:href="#j" transform="matrix(1,0,0,1,-475,2700.6749831741618) translate(44.320987654320994 20.444444444444443)"/></g><g><use xlink:href="#K" transform="matrix(1,0,0,1,-390.2199876764355,2700.6749831741618) translate(0 20.444444444444443)"/></g><g><use xlink:href="#i" transform="matrix(1,0,0,1,-475,2737.6749831741618) translate(2.345679012345684 20.444444444444443)"/><use xlink:href="#j" transform="matrix(1,0,0,1,-475,2737.6749831741618) translate(44.320987654320994 20.444444444444443)"/></g><g><use xlink:href="#Q" transform="matrix(1,0,0,1,-390.2199876764355,2737.6749831741618) translate(0 20.444444444444443)"/></g><path d="M-219.24 2716.68h65.22a6 6 0 0 1 6 6v92.27a6 6 0 0 0 6 6h65.23" stroke="#000" fill="none"/><path d="M-219.23 2717.15h-.5v-.95h.5zM-76.3 2821.43h-.5v-.95h.5z" stroke="#000" stroke-width=".05"/><g><use xlink:href="#b" transform="matrix(1,0,0,1,-204.4063050995119,2691.342058536508) translate(0 14.222222222222223)"/></g><g><use xlink:href="#a" transform="matrix(1,0,0,1,-112.55399258530267,2824.9523552629435) translate(0 14.222222222222223)"/></g><defs><path d="M23 0v-37h61v-169l-59 37v-38l62-41h46v211h57V0H23" id="V"/><path d="M24 0v-54h51V0H24" id="W"/><g id="a"><use transform="matrix(0.04938271604938272,0,0,0.04938271604938272,0,0)" xlink:href="#V"/><use transform="matrix(0.04938271604938272,0,0,0.04938271604938272,9.876543209876544,0)" xlink:href="#W"/><use transform="matrix(0.04938271604938272,0,0,0.04938271604938272,14.814814814814817,0)" xlink:href="#W"/><use transform="matrix(0.04938271604938272,0,0,0.04938271604938272,19.75308641975309,0)" xlink:href="#V"/></g><path d="M86-200l42-18 12 35-44 11 32 37-32 21-26-44-26 44-32-21 33-37-44-11 12-35 42 18-3-48h38" id="X"/><g id="b"><use transform="matrix(0.04938271604938272,0,0,0.04938271604938272,0,0)" xlink:href="#V"/><use transform="matrix(0.04938271604938272,0,0,0.04938271604938272,9.876543209876544,0)" xlink:href="#W"/><use transform="matrix(0.04938271604938272,0,0,0.04938271604938272,14.814814814814817,0)" xlink:href="#W"/><use transform="matrix(0.04938271604938272,0,0,0.04938271604938272,19.75308641975309,0)" xlink:href="#X"/></g><path d="M101-251c68 0 84 54 84 127C185-50 166 4 99 4S15-52 14-124c-1-75 17-127 87-127zm-1 216c37-5 36-46 36-89s4-89-36-89c-39 0-36 45-36 89 0 43-3 85 36 89" id="Y"/><g id="c"><use transform="matrix(0.04938271604938272,0,0,0.04938271604938272,0,0)" xlink:href="#Y"/><use transform="matrix(0.04938271604938272,0,0,0.04938271604938272,9.876543209876544,0)" xlink:href="#W"/><use transform="matrix(0.04938271604938272,0,0,0.04938271604938272,14.814814814814817,0)" xlink:href="#W"/><use transform="matrix(0.04938271604938272,0,0,0.04938271604938272,19.75308641975309,0)" xlink:href="#X"/></g><path d="M182-182c0 78-84 86-111 141h115V0H12c-6-101 99-100 120-180 1-22-12-31-33-32-23 0-32 14-35 34l-49-3c5-45 32-70 84-70 51 0 83 22 83 69" id="Z"/><g id="d"><use transform="matrix(0.04938271604938272,0,0,0.04938271604938272,0,0)" xlink:href="#Y"/><use transform="matrix(0.04938271604938272,0,0,0.04938271604938272,9.876543209876544,0)" xlink:href="#W"/><use transform="matrix(0.04938271604938272,0,0,0.04938271604938272,14.814814814814817,0)" xlink:href="#W"/><use transform="matrix(0.04938271604938272,0,0,0.04938271604938272,19.75308641975309,0)" xlink:href="#Z"/></g><path d="M30-248c87 1 191-15 191 75 0 78-77 80-158 76V0H30v-248zm33 125c57 0 124 11 124-50 0-59-68-47-124-48v98" id="aa"/><path d="M114-163C36-179 61-72 57 0H25l-1-190h30c1 12-1 29 2 39 6-27 23-49 58-41v29" id="ab"/><path d="M100-194c62-1 85 37 85 99 1 63-27 99-86 99S16-35 15-95c0-66 28-99 85-99zM99-20c44 1 53-31 53-75 0-43-8-75-51-75s-53 32-53 75 10 74 51 75" id="ac"/><path d="M177-190C167-65 218 103 67 71c-23-6-38-20-44-43l32-5c15 47 100 32 89-28v-30C133-14 115 1 83 1 29 1 15-40 15-95c0-56 16-97 71-98 29-1 48 16 59 35 1-10 0-23 2-32h30zM94-22c36 0 50-32 50-73 0-42-14-75-50-75-39 0-46 34-46 75s6 73 46 73" id="ad"/><path d="M141-36C126-15 110 5 73 4 37 3 15-17 15-53c-1-64 63-63 125-63 3-35-9-54-41-54-24 1-41 7-42 31l-33-3c5-37 33-52 76-52 45 0 72 20 72 64v82c-1 20 7 32 28 27v20c-31 9-61-2-59-35zM48-53c0 20 12 33 32 33 41-3 63-29 60-74-43 2-92-5-92 41" id="ae"/><path d="M210-169c-67 3-38 105-44 169h-31v-121c0-29-5-50-35-48C34-165 62-65 56 0H25l-1-190h30c1 10-1 24 2 32 10-44 99-50 107 0 11-21 27-35 58-36 85-2 47 119 55 194h-31v-121c0-29-5-49-35-48" id="af"/><path d="M-5 72V49h209v23H-5" id="ag"/><path d="M127-220V0H93v-220H8v-28h204v28h-85" id="ah"/><path d="M179-190L93 31C79 59 56 82 12 73V49c39 6 53-20 64-50L1-190h34L92-34l54-156h33" id="ai"/><path d="M115-194c55 1 70 41 70 98S169 2 115 4C84 4 66-9 55-30l1 105H24l-1-265h31l2 30c10-21 28-34 59-34zm-8 174c40 0 45-34 45-75s-6-73-45-74c-42 0-51 32-51 76 0 43 10 73 51 73" id="aj"/><path d="M100-194c63 0 86 42 84 106H49c0 40 14 67 53 68 26 1 43-12 49-29l28 8c-11 28-37 45-77 45C44 4 14-33 15-96c1-61 26-98 85-98zm52 81c6-60-76-77-97-28-3 7-6 17-6 28h103" id="ak"/><path d="M135-143c-3-34-86-38-87 0 15 53 115 12 119 90S17 21 10-45l28-5c4 36 97 45 98 0-10-56-113-15-118-90-4-57 82-63 122-42 12 7 21 19 24 35" id="al"/><g id="e"><use transform="matrix(0.06172839506172839,0,0,0.06172839506172839,0,0)" xlink:href="#aa"/><use transform="matrix(0.06172839506172839,0,0,0.06172839506172839,14.814814814814813,0)" xlink:href="#ab"/><use transform="matrix(0.06172839506172839,0,0,0.06172839506172839,22.160493827160494,0)" xlink:href="#ac"/><use transform="matrix(0.06172839506172839,0,0,0.06172839506172839,34.50617283950617,0)" xlink:href="#ad"/><use transform="matrix(0.06172839506172839,0,0,0.06172839506172839,46.85185185185185,0)" xlink:href="#ab"/><use transform="matrix(0.06172839506172839,0,0,0.06172839506172839,54.197530864197525,0)" xlink:href="#ae"/><use transform="matrix(0.06172839506172839,0,0,0.06172839506172839,66.5432098765432,0)" xlink:href="#af"/><use transform="matrix(0.06172839506172839,0,0,0.06172839506172839,84.99999999999999,0)" xlink:href="#ag"/><use transform="matrix(0.06172839506172839,0,0,0.06172839506172839,97.34567901234567,0)" xlink:href="#aa"/><use transform="matrix(0.06172839506172839,0,0,0.06172839506172839,112.16049382716048,0)" xlink:href="#ab"/><use transform="matrix(0.06172839506172839,0,0,0.06172839506172839,119.50617283950616,0)" xlink:href="#ac"/><use transform="matrix(0.06172839506172839,0,0,0.06172839506172839,131.85185185185185,0)" xlink:href="#ad"/><use transform="matrix(0.06172839506172839,0,0,0.06172839506172839,144.19753086419752,0)" xlink:href="#ab"/><use transform="matrix(0.06172839506172839,0,0,0.06172839506172839,151.5432098765432,0)" xlink:href="#ae"/><use transform="matrix(0.06172839506172839,0,0,0.06172839506172839,163.88888888888886,0)" xlink:href="#af"/><use transform="matrix(0.06172839506172839,0,0,0.06172839506172839,182.34567901234564,0)" xlink:href="#ah"/><use transform="matrix(0.06172839506172839,0,0,0.06172839506172839,194.6296296296296,0)" xlink:href="#ai"/><use transform="matrix(0.06172839506172839,0,0,0.06172839506172839,205.7407407407407,0)" xlink:href="#aj"/><use transform="matrix(0.06172839506172839,0,0,0.06172839506172839,218.08641975308637,0)" xlink:href="#ak"/><use transform="matrix(0.06172839506172839,0,0,0.06172839506172839,230.43209876543204,0)" xlink:href="#al"/></g><path d="M194 0L95-120 63-95V0H30v-248h33v124l119-124h40L117-140 236 0h-42" id="am"/><g id="f"><use transform="matrix(0.06172839506172839,0,0,0.06172839506172839,0,0)" xlink:href="#aa"/><use transform="matrix(0.06172839506172839,0,0,0.06172839506172839,14.814814814814813,0)" xlink:href="#am"/></g><path d="M33 0v-248h34V0H33" id="an"/><path d="M30-248c118-7 216 8 213 122C240-48 200 0 122 0H30v-248zM63-27c89 8 146-16 146-99s-60-101-146-95v194" id="ao"/><g id="g"><use transform="matrix(0.06172839506172839,0,0,0.06172839506172839,0,0)" xlink:href="#aa"/><use transform="matrix(0.06172839506172839,0,0,0.06172839506172839,14.814814814814813,0)" xlink:href="#ab"/><use transform="matrix(0.06172839506172839,0,0,0.06172839506172839,22.160493827160494,0)" xlink:href="#ac"/><use transform="matrix(0.06172839506172839,0,0,0.06172839506172839,34.50617283950617,0)" xlink:href="#ad"/><use transform="matrix(0.06172839506172839,0,0,0.06172839506172839,46.85185185185185,0)" xlink:href="#ab"/><use transform="matrix(0.06172839506172839,0,0,0.06172839506172839,54.197530864197525,0)" xlink:href="#ae"/><use transform="matrix(0.06172839506172839,0,0,0.06172839506172839,66.5432098765432,0)" xlink:href="#af"/><use transform="matrix(0.06172839506172839,0,0,0.06172839506172839,84.99999999999999,0)" xlink:href="#an"/><use transform="matrix(0.06172839506172839,0,0,0.06172839506172839,91.17283950617282,0)" xlink:href="#ao"/></g><path d="M190 0L58-211 59 0H30v-248h39L202-35l-2-213h31V0h-41" id="ap"/><g id="h"><use transform="matrix(0.06172839506172839,0,0,0.06172839506172839,0,0)" xlink:href="#aa"/><use transform="matrix(0.06172839506172839,0,0,0.06172839506172839,14.814814814814813,0)" xlink:href="#ab"/><use transform="matrix(0.06172839506172839,0,0,0.06172839506172839,22.160493827160494,0)" xlink:href="#ac"/><use transform="matrix(0.06172839506172839,0,0,0.06172839506172839,34.50617283950617,0)" xlink:href="#ad"/><use transform="matrix(0.06172839506172839,0,0,0.06172839506172839,46.85185185185185,0)" xlink:href="#ab"/><use transform="matrix(0.06172839506172839,0,0,0.06172839506172839,54.197530864197525,0)" xlink:href="#ae"/><use transform="matrix(0.06172839506172839,0,0,0.06172839506172839,66.5432098765432,0)" xlink:href="#af"/><use transform="matrix(0.06172839506172839,0,0,0.06172839506172839,84.99999999999999,0)" xlink:href="#ap"/><use transform="matrix(0.06172839506172839,0,0,0.06172839506172839,100.98765432098764,0)" xlink:href="#ae"/><use transform="matrix(0.06172839506172839,0,0,0.06172839506172839,113.33333333333333,0)" xlink:href="#af"/><use transform="matrix(0.06172839506172839,0,0,0.06172839506172839,131.79012345679013,0)" xlink:href="#ak"/></g><path d="M68-38c1 34 0 65-14 84H32c9-13 17-26 17-46H33v-38h35" id="aq"/><g id="i"><use transform="matrix(0.06172839506172839,0,0,0.06172839506172839,0,0)" xlink:href="#aa"/><use transform="matrix(0.06172839506172839,0,0,0.06172839506172839,14.814814814814813,0)" xlink:href="#am"/><use transform="matrix(0.06172839506172839,0,0,0.06172839506172839,29.629629629629626,0)" xlink:href="#aq"/></g><path d="M63-220v92h138v28H63V0H30v-248h175v28H63" id="ar"/><g id="j"><use transform="matrix(0.06172839506172839,0,0,0.06172839506172839,0,0)" xlink:href="#ar"/><use transform="matrix(0.06172839506172839,0,0,0.06172839506172839,13.518518518518517,0)" xlink:href="#am"/></g><g id="k"><use transform="matrix(0.06172839506172839,0,0,0.06172839506172839,0,0)" xlink:href="#aa"/><use transform="matrix(0.06172839506172839,0,0,0.06172839506172839,14.814814814814813,0)" xlink:href="#ab"/><use transform="matrix(0.06172839506172839,0,0,0.06172839506172839,22.160493827160494,0)" xlink:href="#ac"/><use transform="matrix(0.06172839506172839,0,0,0.06172839506172839,34.50617283950617,0)" xlink:href="#ad"/><use transform="matrix(0.06172839506172839,0,0,0.06172839506172839,46.85185185185185,0)" xlink:href="#ab"/><use transform="matrix(0.06172839506172839,0,0,0.06172839506172839,54.197530864197525,0)" xlink:href="#ae"/><use transform="matrix(0.06172839506172839,0,0,0.06172839506172839,66.5432098765432,0)" xlink:href="#af"/><use transform="matrix(0.06172839506172839,0,0,0.06172839506172839,84.99999999999999,0)" xlink:href="#ah"/><use transform="matrix(0.06172839506172839,0,0,0.06172839506172839,97.28395061728394,0)" xlink:href="#ai"/><use transform="matrix(0.06172839506172839,0,0,0.06172839506172839,108.39506172839505,0)" xlink:href="#aj"/><use transform="matrix(0.06172839506172839,0,0,0.06172839506172839,120.74074074074073,0)" xlink:href="#ak"/><use transform="matrix(0.06172839506172839,0,0,0.06172839506172839,133.0864197530864,0)" xlink:href="#an"/><use transform="matrix(0.06172839506172839,0,0,0.06172839506172839,139.25925925925924,0)" xlink:href="#ao"/></g><path d="M96-169c-40 0-48 33-48 73s9 75 48 75c24 0 41-14 43-38l32 2c-6 37-31 61-74 61-59 0-76-41-82-99-10-93 101-131 147-64 4 7 5 14 7 22l-32 3c-4-21-16-35-41-35" id="as"/><path d="M24-231v-30h32v30H24zM24 0v-190h32V0H24" id="at"/><path d="M59-47c-2 24 18 29 38 22v24C64 9 27 4 27-40v-127H5v-23h24l9-43h21v43h35v23H59v120" id="au"/><path d="M117-194c89-4 53 116 60 194h-32v-121c0-31-8-49-39-48C34-167 62-67 57 0H25l-1-190h30c1 10-1 24 2 32 11-22 29-35 61-36" id="av"/><g id="l"><use transform="matrix(0.06172839506172839,0,0,0.06172839506172839,0,0)" xlink:href="#ao"/><use transform="matrix(0.06172839506172839,0,0,0.06172839506172839,15.987654320987653,0)" xlink:href="#ak"/><use transform="matrix(0.06172839506172839,0,0,0.06172839506172839,28.333333333333332,0)" xlink:href="#al"/><use transform="matrix(0.06172839506172839,0,0,0.06172839506172839,39.44444444444444,0)" xlink:href="#as"/><use transform="matrix(0.06172839506172839,0,0,0.06172839506172839,50.55555555555556,0)" xlink:href="#ab"/><use transform="matrix(0.06172839506172839,0,0,0.06172839506172839,57.901234567901234,0)" xlink:href="#at"/><use transform="matrix(0.06172839506172839,0,0,0.06172839506172839,62.77777777777778,0)" xlink:href="#aj"/><use transform="matrix(0.06172839506172839,0,0,0.06172839506172839,75.12345679012346,0)" xlink:href="#au"/><use transform="matrix(0.06172839506172839,0,0,0.06172839506172839,81.29629629629629,0)" xlink:href="#at"/><use transform="matrix(0.06172839506172839,0,0,0.06172839506172839,86.17283950617283,0)" xlink:href="#ac"/><use transform="matrix(0.06172839506172839,0,0,0.06172839506172839,98.51851851851852,0)" xlink:href="#av"/></g><g id="m"><use transform="matrix(0.06172839506172839,0,0,0.06172839506172839,0,0)" xlink:href="#aa"/><use transform="matrix(0.06172839506172839,0,0,0.06172839506172839,14.814814814814813,0)" xlink:href="#ab"/><use transform="matrix(0.06172839506172839,0,0,0.06172839506172839,22.160493827160494,0)" xlink:href="#ac"/><use transform="matrix(0.06172839506172839,0,0,0.06172839506172839,34.50617283950617,0)" xlink:href="#ad"/><use transform="matrix(0.06172839506172839,0,0,0.06172839506172839,46.85185185185185,0)" xlink:href="#ab"/><use transform="matrix(0.06172839506172839,0,0,0.06172839506172839,54.197530864197525,0)" xlink:href="#ae"/><use transform="matrix(0.06172839506172839,0,0,0.06172839506172839,66.5432098765432,0)" xlink:href="#af"/><use transform="matrix(0.06172839506172839,0,0,0.06172839506172839,84.99999999999999,0)" xlink:href="#ah"/><use transform="matrix(0.06172839506172839,0,0,0.06172839506172839,97.28395061728394,0)" xlink:href="#ai"/><use transform="matrix(0.06172839506172839,0,0,0.06172839506172839,108.39506172839505,0)" xlink:href="#aj"/><use transform="matrix(0.06172839506172839,0,0,0.06172839506172839,120.74074074074073,0)" xlink:href="#ak"/></g><g id="n"><use transform="matrix(0.06172839506172839,0,0,0.06172839506172839,0,0)" xlink:href="#ap"/><use transform="matrix(0.06172839506172839,0,0,0.06172839506172839,15.987654320987653,0)" xlink:href="#ae"/><use transform="matrix(0.06172839506172839,0,0,0.06172839506172839,28.333333333333332,0)" xlink:href="#af"/><use transform="matrix(0.06172839506172839,0,0,0.06172839506172839,46.79012345679012,0)" xlink:href="#ak"/></g><path d="M30 0v-248h33v221h125V0H30" id="aw"/><path d="M108 0H70L1-190h34L89-25l56-165h34" id="ax"/><path d="M24 0v-261h32V0H24" id="ay"/><g id="o"><use transform="matrix(0.06172839506172839,0,0,0.06172839506172839,0,0)" xlink:href="#aa"/><use transform="matrix(0.06172839506172839,0,0,0.06172839506172839,14.814814814814813,0)" xlink:href="#ab"/><use transform="matrix(0.06172839506172839,0,0,0.06172839506172839,22.160493827160494,0)" xlink:href="#ac"/><use transform="matrix(0.06172839506172839,0,0,0.06172839506172839,34.50617283950617,0)" xlink:href="#ad"/><use transform="matrix(0.06172839506172839,0,0,0.06172839506172839,46.85185185185185,0)" xlink:href="#ab"/><use transform="matrix(0.06172839506172839,0,0,0.06172839506172839,54.197530864197525,0)" xlink:href="#ae"/><use transform="matrix(0.06172839506172839,0,0,0.06172839506172839,66.5432098765432,0)" xlink:href="#af"/><use transform="matrix(0.06172839506172839,0,0,0.06172839506172839,84.99999999999999,0)" xlink:href="#aw"/><use transform="matrix(0.06172839506172839,0,0,0.06172839506172839,97.34567901234567,0)" xlink:href="#ak"/><use transform="matrix(0.06172839506172839,0,0,0.06172839506172839,109.69135802469135,0)" xlink:href="#ax"/><use transform="matrix(0.06172839506172839,0,0,0.06172839506172839,120.80246913580247,0)" xlink:href="#ak"/><use transform="matrix(0.06172839506172839,0,0,0.06172839506172839,133.14814814814815,0)" xlink:href="#ay"/></g><path d="M212-179c-10-28-35-45-73-45-59 0-87 40-87 99 0 60 29 101 89 101 43 0 62-24 78-52l27 14C228-24 195 4 139 4 59 4 22-46 18-125c-6-104 99-153 187-111 19 9 31 26 39 46" id="az"/><g id="p"><use transform="matrix(0.06172839506172839,0,0,0.06172839506172839,0,0)" xlink:href="#az"/><use transform="matrix(0.06172839506172839,0,0,0.06172839506172839,15.987654320987653,0)" xlink:href="#ay"/><use transform="matrix(0.06172839506172839,0,0,0.06172839506172839,20.864197530864196,0)" xlink:href="#ae"/><use transform="matrix(0.06172839506172839,0,0,0.06172839506172839,33.20987654320987,0)" xlink:href="#al"/><use transform="matrix(0.06172839506172839,0,0,0.06172839506172839,44.32098765432099,0)" xlink:href="#al"/><use transform="matrix(0.06172839506172839,0,0,0.06172839506172839,55.4320987654321,0)" xlink:href="#ah"/><use transform="matrix(0.06172839506172839,0,0,0.06172839506172839,67.71604938271605,0)" xlink:href="#ai"/><use transform="matrix(0.06172839506172839,0,0,0.06172839506172839,78.82716049382717,0)" xlink:href="#aj"/><use transform="matrix(0.06172839506172839,0,0,0.06172839506172839,91.17283950617285,0)" xlink:href="#ak"/></g><g id="q"><use transform="matrix(0.06172839506172839,0,0,0.06172839506172839,0,0)" xlink:href="#az"/><use transform="matrix(0.06172839506172839,0,0,0.06172839506172839,15.987654320987653,0)" xlink:href="#ay"/><use transform="matrix(0.06172839506172839,0,0,0.06172839506172839,20.864197530864196,0)" xlink:href="#ae"/><use transform="matrix(0.06172839506172839,0,0,0.06172839506172839,33.20987654320987,0)" xlink:href="#al"/><use transform="matrix(0.06172839506172839,0,0,0.06172839506172839,44.32098765432099,0)" xlink:href="#al"/></g><g id="r"><use transform="matrix(0.06172839506172839,0,0,0.06172839506172839,0,0)" xlink:href="#aw"/><use transform="matrix(0.06172839506172839,0,0,0.06172839506172839,12.345679012345679,0)" xlink:href="#ak"/><use transform="matrix(0.06172839506172839,0,0,0.06172839506172839,24.691358024691358,0)" xlink:href="#ax"/><use transform="matrix(0.06172839506172839,0,0,0.06172839506172839,35.80246913580247,0)" xlink:href="#ak"/><use transform="matrix(0.06172839506172839,0,0,0.06172839506172839,48.148148148148145,0)" xlink:href="#ay"/></g><g id="s"><use transform="matrix(0.06172839506172839,0,0,0.06172839506172839,0,0)" xlink:href="#aa"/><use transform="matrix(0.06172839506172839,0,0,0.06172839506172839,14.814814814814813,0)" xlink:href="#ab"/><use transform="matrix(0.06172839506172839,0,0,0.06172839506172839,22.160493827160494,0)" xlink:href="#ac"/><use transform="matrix(0.06172839506172839,0,0,0.06172839506172839,34.50617283950617,0)" xlink:href="#ad"/><use transform="matrix(0.06172839506172839,0,0,0.06172839506172839,46.85185185185185,0)" xlink:href="#ab"/><use transform="matrix(0.06172839506172839,0,0,0.06172839506172839,54.197530864197525,0)" xlink:href="#ae"/><use transform="matrix(0.06172839506172839,0,0,0.06172839506172839,66.5432098765432,0)" xlink:href="#af"/><use transform="matrix(0.06172839506172839,0,0,0.06172839506172839,84.99999999999999,0)" xlink:href="#ag"/><use transform="matrix(0.06172839506172839,0,0,0.06172839506172839,97.34567901234567,0)" xlink:href="#ao"/><use transform="matrix(0.06172839506172839,0,0,0.06172839506172839,113.33333333333333,0)" xlink:href="#ak"/><use transform="matrix(0.06172839506172839,0,0,0.06172839506172839,125.67901234567901,0)" xlink:href="#aj"/><use transform="matrix(0.06172839506172839,0,0,0.06172839506172839,138.02469135802468,0)" xlink:href="#ae"/><use transform="matrix(0.06172839506172839,0,0,0.06172839506172839,150.37037037037035,0)" xlink:href="#ab"/><use transform="matrix(0.06172839506172839,0,0,0.06172839506172839,157.71604938271602,0)" xlink:href="#au"/><use transform="matrix(0.06172839506172839,0,0,0.06172839506172839,163.88888888888886,0)" xlink:href="#af"/><use transform="matrix(0.06172839506172839,0,0,0.06172839506172839,182.34567901234564,0)" xlink:href="#ak"/><use transform="matrix(0.06172839506172839,0,0,0.06172839506172839,194.6913580246913,0)" xlink:href="#av"/><use transform="matrix(0.06172839506172839,0,0,0.06172839506172839,207.03703703703698,0)" xlink:href="#au"/><use transform="matrix(0.06172839506172839,0,0,0.06172839506172839,213.20987654320982,0)" xlink:href="#al"/></g><g id="t"><use transform="matrix(0.06172839506172839,0,0,0.06172839506172839,0,0)" xlink:href="#ao"/><use transform="matrix(0.06172839506172839,0,0,0.06172839506172839,15.987654320987653,0)" xlink:href="#ak"/><use transform="matrix(0.06172839506172839,0,0,0.06172839506172839,28.333333333333332,0)" xlink:href="#aj"/><use transform="matrix(0.06172839506172839,0,0,0.06172839506172839,40.67901234567901,0)" xlink:href="#ae"/><use transform="matrix(0.06172839506172839,0,0,0.06172839506172839,53.02469135802469,0)" xlink:href="#ab"/><use transform="matrix(0.06172839506172839,0,0,0.06172839506172839,60.37037037037037,0)" xlink:href="#au"/><use transform="matrix(0.06172839506172839,0,0,0.06172839506172839,66.5432098765432,0)" xlink:href="#af"/><use transform="matrix(0.06172839506172839,0,0,0.06172839506172839,84.99999999999999,0)" xlink:href="#ak"/><use transform="matrix(0.06172839506172839,0,0,0.06172839506172839,97.34567901234567,0)" xlink:href="#av"/><use transform="matrix(0.06172839506172839,0,0,0.06172839506172839,109.69135802469135,0)" xlink:href="#au"/><use transform="matrix(0.06172839506172839,0,0,0.06172839506172839,115.86419753086419,0)" xlink:href="#an"/><use transform="matrix(0.06172839506172839,0,0,0.06172839506172839,122.03703703703702,0)" xlink:href="#ao"/></g><g id="u"><use transform="matrix(0.06172839506172839,0,0,0.06172839506172839,0,0)" xlink:href="#ao"/><use transform="matrix(0.06172839506172839,0,0,0.06172839506172839,15.987654320987653,0)" xlink:href="#ak"/><use transform="matrix(0.06172839506172839,0,0,0.06172839506172839,28.333333333333332,0)" xlink:href="#aj"/><use transform="matrix(0.06172839506172839,0,0,0.06172839506172839,40.67901234567901,0)" xlink:href="#ae"/><use transform="matrix(0.06172839506172839,0,0,0.06172839506172839,53.02469135802469,0)" xlink:href="#ab"/><use transform="matrix(0.06172839506172839,0,0,0.06172839506172839,60.37037037037037,0)" xlink:href="#au"/><use transform="matrix(0.06172839506172839,0,0,0.06172839506172839,66.5432098765432,0)" xlink:href="#af"/><use transform="matrix(0.06172839506172839,0,0,0.06172839506172839,84.99999999999999,0)" xlink:href="#ak"/><use transform="matrix(0.06172839506172839,0,0,0.06172839506172839,97.34567901234567,0)" xlink:href="#av"/><use transform="matrix(0.06172839506172839,0,0,0.06172839506172839,109.69135802469135,0)" xlink:href="#au"/></g><g id="v"><use transform="matrix(0.06172839506172839,0,0,0.06172839506172839,0,0)" xlink:href="#ar"/><use transform="matrix(0.06172839506172839,0,0,0.06172839506172839,13.518518518518517,0)" xlink:href="#am"/></g><path d="M233-177c-1 41-23 64-60 70L243 0h-38l-65-103H63V0H30v-248c88 3 205-21 203 71zM63-129c60-2 137 13 137-47 0-61-80-42-137-45v92" id="aA"/><g id="w"><use transform="matrix(0.06172839506172839,0,0,0.06172839506172839,0,0)" xlink:href="#aA"/><use transform="matrix(0.06172839506172839,0,0,0.06172839506172839,15.987654320987653,0)" xlink:href="#ac"/><use transform="matrix(0.06172839506172839,0,0,0.06172839506172839,28.333333333333332,0)" xlink:href="#ac"/><use transform="matrix(0.06172839506172839,0,0,0.06172839506172839,40.67901234567901,0)" xlink:href="#af"/><use transform="matrix(0.06172839506172839,0,0,0.06172839506172839,59.1358024691358,0)" xlink:href="#an"/><use transform="matrix(0.06172839506172839,0,0,0.06172839506172839,65.30864197530863,0)" xlink:href="#ao"/></g><path d="M106-169C34-169 62-67 57 0H25v-261h32l-1 103c12-21 28-36 61-36 89 0 53 116 60 194h-32v-121c2-32-8-49-39-48" id="aB"/><g id="x"><use transform="matrix(0.06172839506172839,0,0,0.06172839506172839,0,0)" xlink:href="#az"/><use transform="matrix(0.06172839506172839,0,0,0.06172839506172839,15.987654320987653,0)" xlink:href="#aB"/><use transform="matrix(0.06172839506172839,0,0,0.06172839506172839,28.333333333333332,0)" xlink:href="#ae"/><use transform="matrix(0.06172839506172839,0,0,0.06172839506172839,40.67901234567901,0)" xlink:href="#at"/><use transform="matrix(0.06172839506172839,0,0,0.06172839506172839,45.55555555555556,0)" xlink:href="#ab"/><use transform="matrix(0.06172839506172839,0,0,0.06172839506172839,52.901234567901234,0)" xlink:href="#an"/><use transform="matrix(0.06172839506172839,0,0,0.06172839506172839,59.074074074074076,0)" xlink:href="#ao"/></g><path d="M87 75C49 33 22-17 22-94c0-76 28-126 65-167h31c-38 41-64 92-64 168S80 34 118 75H87" id="aC"/><path d="M232-93c-1 65-40 97-104 97C67 4 28-28 28-90v-158h33c8 89-33 224 67 224 102 0 64-133 71-224h33v155" id="aD"/><path d="M33-261c38 41 65 92 65 168S71 34 33 75H2C39 34 66-17 66-93S39-220 2-261h31" id="aE"/><g id="y"><use transform="matrix(0.06172839506172839,0,0,0.06172839506172839,0,0)" xlink:href="#aC"/><use transform="matrix(0.06172839506172839,0,0,0.06172839506172839,7.345679012345679,0)" xlink:href="#aD"/><use transform="matrix(0.06172839506172839,0,0,0.06172839506172839,23.333333333333332,0)" xlink:href="#an"/><use transform="matrix(0.06172839506172839,0,0,0.06172839506172839,29.50617283950617,0)" xlink:href="#ao"/><use transform="matrix(0.06172839506172839,0,0,0.06172839506172839,45.49382716049382,0)" xlink:href="#aE"/></g><path d="M84 4C-5 8 30-112 23-190h32v120c0 31 7 50 39 49 72-2 45-101 50-169h31l1 190h-30c-1-10 1-25-2-33-11 22-28 36-60 37" id="aF"/><g id="z"><use transform="matrix(0.06172839506172839,0,0,0.06172839506172839,0,0)" xlink:href="#aa"/><use transform="matrix(0.06172839506172839,0,0,0.06172839506172839,14.814814814814813,0)" xlink:href="#aB"/><use transform="matrix(0.06172839506172839,0,0,0.06172839506172839,27.160493827160494,0)" xlink:href="#ac"/><use transform="matrix(0.06172839506172839,0,0,0.06172839506172839,39.50617283950617,0)" xlink:href="#av"/><use transform="matrix(0.06172839506172839,0,0,0.06172839506172839,51.85185185185185,0)" xlink:href="#ak"/><use transform="matrix(0.06172839506172839,0,0,0.06172839506172839,64.19753086419753,0)" xlink:href="#ap"/><use transform="matrix(0.06172839506172839,0,0,0.06172839506172839,80.18518518518519,0)" xlink:href="#aF"/><use transform="matrix(0.06172839506172839,0,0,0.06172839506172839,92.53086419753087,0)" xlink:href="#af"/></g><path d="M185-189c-5-48-123-54-124 2 14 75 158 14 163 119 3 78-121 87-175 55-17-10-28-26-33-46l33-7c5 56 141 63 141-1 0-78-155-14-162-118-5-82 145-84 179-34 5 7 8 16 11 25" id="aG"/><g id="A"><use transform="matrix(0.06172839506172839,0,0,0.06172839506172839,0,0)" xlink:href="#aG"/><use transform="matrix(0.06172839506172839,0,0,0.06172839506172839,14.814814814814813,0)" xlink:href="#as"/><use transform="matrix(0.06172839506172839,0,0,0.06172839506172839,25.925925925925924,0)" xlink:href="#aB"/><use transform="matrix(0.06172839506172839,0,0,0.06172839506172839,38.2716049382716,0)" xlink:href="#ac"/><use transform="matrix(0.06172839506172839,0,0,0.06172839506172839,50.61728395061728,0)" xlink:href="#ac"/><use transform="matrix(0.06172839506172839,0,0,0.06172839506172839,62.962962962962955,0)" xlink:href="#ay"/><use transform="matrix(0.06172839506172839,0,0,0.06172839506172839,67.83950617283949,0)" xlink:href="#ag"/><use transform="matrix(0.06172839506172839,0,0,0.06172839506172839,80.18518518518518,0)" xlink:href="#ao"/><use transform="matrix(0.06172839506172839,0,0,0.06172839506172839,96.17283950617283,0)" xlink:href="#ak"/><use transform="matrix(0.06172839506172839,0,0,0.06172839506172839,108.51851851851852,0)" xlink:href="#aj"/><use transform="matrix(0.06172839506172839,0,0,0.06172839506172839,120.8641975308642,0)" xlink:href="#ae"/><use transform="matrix(0.06172839506172839,0,0,0.06172839506172839,133.20987654320987,0)" xlink:href="#ab"/><use transform="matrix(0.06172839506172839,0,0,0.06172839506172839,140.55555555555554,0)" xlink:href="#au"/><use transform="matrix(0.06172839506172839,0,0,0.06172839506172839,146.72839506172838,0)" xlink:href="#af"/><use transform="matrix(0.06172839506172839,0,0,0.06172839506172839,165.18518518518516,0)" xlink:href="#ak"/><use transform="matrix(0.06172839506172839,0,0,0.06172839506172839,177.53086419753083,0)" xlink:href="#av"/><use transform="matrix(0.06172839506172839,0,0,0.06172839506172839,189.8765432098765,0)" xlink:href="#au"/><use transform="matrix(0.06172839506172839,0,0,0.06172839506172839,196.04938271604934,0)" xlink:href="#al"/></g><g id="B"><use transform="matrix(0.06172839506172839,0,0,0.06172839506172839,0,0)" xlink:href="#aG"/><use transform="matrix(0.06172839506172839,0,0,0.06172839506172839,14.814814814814813,0)" xlink:href="#as"/><use transform="matrix(0.06172839506172839,0,0,0.06172839506172839,25.925925925925924,0)" xlink:href="#aB"/><use transform="matrix(0.06172839506172839,0,0,0.06172839506172839,38.2716049382716,0)" xlink:href="#ac"/><use transform="matrix(0.06172839506172839,0,0,0.06172839506172839,50.61728395061728,0)" xlink:href="#ac"/><use transform="matrix(0.06172839506172839,0,0,0.06172839506172839,62.962962962962955,0)" xlink:href="#ay"/><use transform="matrix(0.06172839506172839,0,0,0.06172839506172839,67.83950617283949,0)" xlink:href="#an"/><use transform="matrix(0.06172839506172839,0,0,0.06172839506172839,74.01234567901233,0)" xlink:href="#ao"/></g><g id="C"><use transform="matrix(0.06172839506172839,0,0,0.06172839506172839,0,0)" xlink:href="#aG"/><use transform="matrix(0.06172839506172839,0,0,0.06172839506172839,14.814814814814813,0)" xlink:href="#as"/><use transform="matrix(0.06172839506172839,0,0,0.06172839506172839,25.925925925925924,0)" xlink:href="#aB"/><use transform="matrix(0.06172839506172839,0,0,0.06172839506172839,38.2716049382716,0)" xlink:href="#ac"/><use transform="matrix(0.06172839506172839,0,0,0.06172839506172839,50.61728395061728,0)" xlink:href="#ac"/><use transform="matrix(0.06172839506172839,0,0,0.06172839506172839,62.962962962962955,0)" xlink:href="#ay"/></g><path d="M85-194c31 0 48 13 60 33l-1-100h32l1 261h-30c-2-10 0-23-3-31C134-8 116 4 85 4 32 4 16-35 15-94c0-66 23-100 70-100zm9 24c-40 0-46 34-46 75 0 40 6 74 45 74 42 0 51-32 51-76 0-42-9-74-50-73" id="aH"/><g id="D"><use transform="matrix(0.06172839506172839,0,0,0.06172839506172839,0,0)" xlink:href="#aG"/><use transform="matrix(0.06172839506172839,0,0,0.06172839506172839,14.814814814814813,0)" xlink:href="#au"/><use transform="matrix(0.06172839506172839,0,0,0.06172839506172839,20.98765432098765,0)" xlink:href="#aF"/><use transform="matrix(0.06172839506172839,0,0,0.06172839506172839,33.33333333333333,0)" xlink:href="#aH"/><use transform="matrix(0.06172839506172839,0,0,0.06172839506172839,45.679012345679006,0)" xlink:href="#ak"/><use transform="matrix(0.06172839506172839,0,0,0.06172839506172839,58.02469135802468,0)" xlink:href="#av"/><use transform="matrix(0.06172839506172839,0,0,0.06172839506172839,70.37037037037037,0)" xlink:href="#au"/><use transform="matrix(0.06172839506172839,0,0,0.06172839506172839,76.5432098765432,0)" xlink:href="#ag"/><use transform="matrix(0.06172839506172839,0,0,0.06172839506172839,88.88888888888889,0)" xlink:href="#aa"/><use transform="matrix(0.06172839506172839,0,0,0.06172839506172839,103.7037037037037,0)" xlink:href="#ab"/><use transform="matrix(0.06172839506172839,0,0,0.06172839506172839,111.04938271604938,0)" xlink:href="#ac"/><use transform="matrix(0.06172839506172839,0,0,0.06172839506172839,123.39506172839506,0)" xlink:href="#ad"/><use transform="matrix(0.06172839506172839,0,0,0.06172839506172839,135.74074074074073,0)" xlink:href="#ab"/><use transform="matrix(0.06172839506172839,0,0,0.06172839506172839,143.0864197530864,0)" xlink:href="#ae"/><use transform="matrix(0.06172839506172839,0,0,0.06172839506172839,155.43209876543207,0)" xlink:href="#af"/></g><g id="E"><use transform="matrix(0.06172839506172839,0,0,0.06172839506172839,0,0)" xlink:href="#aD"/><use transform="matrix(0.06172839506172839,0,0,0.06172839506172839,15.987654320987653,0)" xlink:href="#an"/><use transform="matrix(0.06172839506172839,0,0,0.06172839506172839,22.160493827160494,0)" xlink:href="#ao"/></g><g id="F"><use transform="matrix(0.06172839506172839,0,0,0.06172839506172839,0,0)" xlink:href="#aD"/><use transform="matrix(0.06172839506172839,0,0,0.06172839506172839,15.987654320987653,0)" xlink:href="#al"/><use transform="matrix(0.06172839506172839,0,0,0.06172839506172839,27.098765432098766,0)" xlink:href="#ak"/><use transform="matrix(0.06172839506172839,0,0,0.06172839506172839,39.44444444444444,0)" xlink:href="#ab"/><use transform="matrix(0.06172839506172839,0,0,0.06172839506172839,46.79012345679012,0)" xlink:href="#ag"/><use transform="matrix(0.06172839506172839,0,0,0.06172839506172839,59.1358024691358,0)" xlink:href="#aG"/><use transform="matrix(0.06172839506172839,0,0,0.06172839506172839,73.9506172839506,0)" xlink:href="#au"/><use transform="matrix(0.06172839506172839,0,0,0.06172839506172839,80.12345679012344,0)" xlink:href="#aF"/><use transform="matrix(0.06172839506172839,0,0,0.06172839506172839,92.46913580246913,0)" xlink:href="#aH"/><use transform="matrix(0.06172839506172839,0,0,0.06172839506172839,104.81481481481481,0)" xlink:href="#ak"/><use transform="matrix(0.06172839506172839,0,0,0.06172839506172839,117.1604938271605,0)" xlink:href="#av"/><use transform="matrix(0.06172839506172839,0,0,0.06172839506172839,129.50617283950618,0)" xlink:href="#au"/></g><g id="G"><use transform="matrix(0.06172839506172839,0,0,0.06172839506172839,0,0)" xlink:href="#aD"/><use transform="matrix(0.06172839506172839,0,0,0.06172839506172839,15.987654320987653,0)" xlink:href="#al"/><use transform="matrix(0.06172839506172839,0,0,0.06172839506172839,27.098765432098766,0)" xlink:href="#ak"/><use transform="matrix(0.06172839506172839,0,0,0.06172839506172839,39.44444444444444,0)" xlink:href="#ab"/><use transform="matrix(0.06172839506172839,0,0,0.06172839506172839,46.79012345679012,0)" xlink:href="#ah"/><use transform="matrix(0.06172839506172839,0,0,0.06172839506172839,59.07407407407407,0)" xlink:href="#ai"/><use transform="matrix(0.06172839506172839,0,0,0.06172839506172839,70.18518518518518,0)" xlink:href="#aj"/><use transform="matrix(0.06172839506172839,0,0,0.06172839506172839,82.53086419753086,0)" xlink:href="#ak"/></g><path d="M145-31C134-9 116 4 85 4 32 4 16-35 15-94c0-59 17-99 70-100 32-1 48 14 60 33 0-11-1-24 2-32h30l-1 268h-32zM93-21c41 0 51-33 51-76s-8-73-50-73c-40 0-46 35-46 75s5 74 45 74" id="aI"/><path d="M240 0l2-218c-23 76-54 145-80 218h-23L58-218 59 0H30v-248h44l77 211c21-75 51-140 76-211h43V0h-30" id="aJ"/><path d="M143 4C61 4 22-44 18-125c-5-107 100-154 193-111 17 8 29 25 37 43l-32 9c-13-25-37-40-76-40-61 0-88 39-88 99 0 61 29 100 91 101 35 0 62-11 79-27v-45h-74v-28h105v86C228-13 192 4 143 4" id="aK"/><g id="H"><use transform="matrix(0.06172839506172839,0,0,0.06172839506172839,0,0)" xlink:href="#aA"/><use transform="matrix(0.06172839506172839,0,0,0.06172839506172839,15.987654320987653,0)" xlink:href="#ak"/><use transform="matrix(0.06172839506172839,0,0,0.06172839506172839,28.333333333333332,0)" xlink:href="#aI"/><use transform="matrix(0.06172839506172839,0,0,0.06172839506172839,40.67901234567901,0)" xlink:href="#aJ"/><use transform="matrix(0.06172839506172839,0,0,0.06172839506172839,59.1358024691358,0)" xlink:href="#ae"/><use transform="matrix(0.06172839506172839,0,0,0.06172839506172839,71.48148148148148,0)" xlink:href="#al"/><use transform="matrix(0.06172839506172839,0,0,0.06172839506172839,82.5925925925926,0)" xlink:href="#au"/><use transform="matrix(0.06172839506172839,0,0,0.06172839506172839,88.76543209876543,0)" xlink:href="#ak"/><use transform="matrix(0.06172839506172839,0,0,0.06172839506172839,101.11111111111111,0)" xlink:href="#ab"/><use transform="matrix(0.06172839506172839,0,0,0.06172839506172839,108.4567901234568,0)" xlink:href="#ag"/><use transform="matrix(0.06172839506172839,0,0,0.06172839506172839,120.80246913580248,0)" xlink:href="#aA"/><use transform="matrix(0.06172839506172839,0,0,0.06172839506172839,136.79012345679013,0)" xlink:href="#ak"/><use transform="matrix(0.06172839506172839,0,0,0.06172839506172839,149.1358024691358,0)" xlink:href="#aI"/><use transform="matrix(0.06172839506172839,0,0,0.06172839506172839,161.48148148148147,0)" xlink:href="#aK"/><use transform="matrix(0.06172839506172839,0,0,0.06172839506172839,178.76543209876542,0)" xlink:href="#ab"/><use transform="matrix(0.06172839506172839,0,0,0.06172839506172839,186.1111111111111,0)" xlink:href="#ac"/><use transform="matrix(0.06172839506172839,0,0,0.06172839506172839,198.45679012345676,0)" xlink:href="#aF"/><use transform="matrix(0.06172839506172839,0,0,0.06172839506172839,210.80246913580243,0)" xlink:href="#aj"/></g><g id="I"><use transform="matrix(0.06172839506172839,0,0,0.06172839506172839,0,0)" xlink:href="#an"/><use transform="matrix(0.06172839506172839,0,0,0.06172839506172839,6.172839506172839,0)" xlink:href="#ao"/></g><g id="J"><use transform="matrix(0.06172839506172839,0,0,0.06172839506172839,0,0)" xlink:href="#aJ"/><use transform="matrix(0.06172839506172839,0,0,0.06172839506172839,18.456790123456788,0)" xlink:href="#ae"/><use transform="matrix(0.06172839506172839,0,0,0.06172839506172839,30.80246913580247,0)" xlink:href="#al"/><use transform="matrix(0.06172839506172839,0,0,0.06172839506172839,41.91358024691358,0)" xlink:href="#au"/><use transform="matrix(0.06172839506172839,0,0,0.06172839506172839,48.086419753086425,0)" xlink:href="#ak"/><use transform="matrix(0.06172839506172839,0,0,0.06172839506172839,60.4320987654321,0)" xlink:href="#ab"/><use transform="matrix(0.06172839506172839,0,0,0.06172839506172839,67.77777777777779,0)" xlink:href="#an"/><use transform="matrix(0.06172839506172839,0,0,0.06172839506172839,73.95061728395062,0)" xlink:href="#ao"/></g><g id="K"><use transform="matrix(0.06172839506172839,0,0,0.06172839506172839,0,0)" xlink:href="#aK"/><use transform="matrix(0.06172839506172839,0,0,0.06172839506172839,17.28395061728395,0)" xlink:href="#ab"/><use transform="matrix(0.06172839506172839,0,0,0.06172839506172839,24.629629629629626,0)" xlink:href="#ac"/><use transform="matrix(0.06172839506172839,0,0,0.06172839506172839,36.9753086419753,0)" xlink:href="#aF"/><use transform="matrix(0.06172839506172839,0,0,0.06172839506172839,49.32098765432098,0)" xlink:href="#aj"/><use transform="matrix(0.06172839506172839,0,0,0.06172839506172839,61.66666666666666,0)" xlink:href="#an"/><use transform="matrix(0.06172839506172839,0,0,0.06172839506172839,67.83950617283949,0)" xlink:href="#ao"/></g><g id="L"><use transform="matrix(0.06172839506172839,0,0,0.06172839506172839,0,0)" xlink:href="#aA"/><use transform="matrix(0.06172839506172839,0,0,0.06172839506172839,15.987654320987653,0)" xlink:href="#ak"/><use transform="matrix(0.06172839506172839,0,0,0.06172839506172839,28.333333333333332,0)" xlink:href="#aI"/><use transform="matrix(0.06172839506172839,0,0,0.06172839506172839,40.67901234567901,0)" xlink:href="#aK"/><use transform="matrix(0.06172839506172839,0,0,0.06172839506172839,57.96296296296296,0)" xlink:href="#ab"/><use transform="matrix(0.06172839506172839,0,0,0.06172839506172839,65.30864197530865,0)" xlink:href="#ac"/><use transform="matrix(0.06172839506172839,0,0,0.06172839506172839,77.65432098765433,0)" xlink:href="#aF"/><use transform="matrix(0.06172839506172839,0,0,0.06172839506172839,90.00000000000001,0)" xlink:href="#aj"/></g><g id="M"><use transform="matrix(0.06172839506172839,0,0,0.06172839506172839,0,0)" xlink:href="#aa"/><use transform="matrix(0.06172839506172839,0,0,0.06172839506172839,14.814814814814813,0)" xlink:href="#ab"/><use transform="matrix(0.06172839506172839,0,0,0.06172839506172839,22.160493827160494,0)" xlink:href="#at"/><use transform="matrix(0.06172839506172839,0,0,0.06172839506172839,27.037037037037038,0)" xlink:href="#ac"/><use transform="matrix(0.06172839506172839,0,0,0.06172839506172839,39.382716049382715,0)" xlink:href="#ab"/><use transform="matrix(0.06172839506172839,0,0,0.06172839506172839,46.72839506172839,0)" xlink:href="#at"/><use transform="matrix(0.06172839506172839,0,0,0.06172839506172839,51.60493827160494,0)" xlink:href="#au"/><use transform="matrix(0.06172839506172839,0,0,0.06172839506172839,57.77777777777778,0)" xlink:href="#ai"/></g><g id="N"><use transform="matrix(0.06172839506172839,0,0,0.06172839506172839,0,0)" xlink:href="#aJ"/><use transform="matrix(0.06172839506172839,0,0,0.06172839506172839,18.456790123456788,0)" xlink:href="#at"/><use transform="matrix(0.06172839506172839,0,0,0.06172839506172839,23.33333333333333,0)" xlink:href="#av"/><use transform="matrix(0.06172839506172839,0,0,0.06172839506172839,35.679012345679006,0)" xlink:href="#az"/><use transform="matrix(0.06172839506172839,0,0,0.06172839506172839,51.66666666666666,0)" xlink:href="#ab"/><use transform="matrix(0.06172839506172839,0,0,0.06172839506172839,59.012345679012334,0)" xlink:href="#ak"/><use transform="matrix(0.06172839506172839,0,0,0.06172839506172839,71.35802469135801,0)" xlink:href="#aH"/><use transform="matrix(0.06172839506172839,0,0,0.06172839506172839,83.7037037037037,0)" xlink:href="#at"/><use transform="matrix(0.06172839506172839,0,0,0.06172839506172839,88.58024691358024,0)" xlink:href="#au"/><use transform="matrix(0.06172839506172839,0,0,0.06172839506172839,94.75308641975307,0)" xlink:href="#al"/></g><g id="O"><use transform="matrix(0.06172839506172839,0,0,0.06172839506172839,0,0)" xlink:href="#aJ"/><use transform="matrix(0.06172839506172839,0,0,0.06172839506172839,18.456790123456788,0)" xlink:href="#at"/><use transform="matrix(0.06172839506172839,0,0,0.06172839506172839,23.33333333333333,0)" xlink:href="#av"/><use transform="matrix(0.06172839506172839,0,0,0.06172839506172839,35.679012345679006,0)" xlink:href="#az"/><use transform="matrix(0.06172839506172839,0,0,0.06172839506172839,51.66666666666666,0)" xlink:href="#ac"/><use transform="matrix(0.06172839506172839,0,0,0.06172839506172839,64.01234567901234,0)" xlink:href="#aF"/><use transform="matrix(0.06172839506172839,0,0,0.06172839506172839,76.35802469135803,0)" xlink:href="#ab"/><use transform="matrix(0.06172839506172839,0,0,0.06172839506172839,83.70370370370371,0)" xlink:href="#al"/><use transform="matrix(0.06172839506172839,0,0,0.06172839506172839,94.81481481481482,0)" xlink:href="#ak"/><use transform="matrix(0.06172839506172839,0,0,0.06172839506172839,107.16049382716051,0)" xlink:href="#al"/></g><g id="P"><use transform="matrix(0.06172839506172839,0,0,0.06172839506172839,0,0)" xlink:href="#aA"/><use transform="matrix(0.06172839506172839,0,0,0.06172839506172839,15.987654320987653,0)" xlink:href="#ak"/><use transform="matrix(0.06172839506172839,0,0,0.06172839506172839,28.333333333333332,0)" xlink:href="#aI"/><use transform="matrix(0.06172839506172839,0,0,0.06172839506172839,40.67901234567901,0)" xlink:href="#aF"/><use transform="matrix(0.06172839506172839,0,0,0.06172839506172839,53.02469135802469,0)" xlink:href="#at"/><use transform="matrix(0.06172839506172839,0,0,0.06172839506172839,57.901234567901234,0)" xlink:href="#ab"/><use transform="matrix(0.06172839506172839,0,0,0.06172839506172839,65.24691358024691,0)" xlink:href="#ak"/><use transform="matrix(0.06172839506172839,0,0,0.06172839506172839,77.5925925925926,0)" xlink:href="#af"/><use transform="matrix(0.06172839506172839,0,0,0.06172839506172839,96.04938271604938,0)" xlink:href="#ak"/><use transform="matrix(0.06172839506172839,0,0,0.06172839506172839,108.39506172839506,0)" xlink:href="#av"/><use transform="matrix(0.06172839506172839,0,0,0.06172839506172839,120.74074074074075,0)" xlink:href="#au"/></g><g id="Q"><use transform="matrix(0.06172839506172839,0,0,0.06172839506172839,0,0)" xlink:href="#aA"/><use transform="matrix(0.06172839506172839,0,0,0.06172839506172839,15.987654320987653,0)" xlink:href="#ak"/><use transform="matrix(0.06172839506172839,0,0,0.06172839506172839,28.333333333333332,0)" xlink:href="#aI"/><use transform="matrix(0.06172839506172839,0,0,0.06172839506172839,40.67901234567901,0)" xlink:href="#aF"/><use transform="matrix(0.06172839506172839,0,0,0.06172839506172839,53.02469135802469,0)" xlink:href="#at"/><use transform="matrix(0.06172839506172839,0,0,0.06172839506172839,57.901234567901234,0)" xlink:href="#ab"/><use transform="matrix(0.06172839506172839,0,0,0.06172839506172839,65.24691358024691,0)" xlink:href="#ak"/><use transform="matrix(0.06172839506172839,0,0,0.06172839506172839,77.5925925925926,0)" xlink:href="#af"/><use transform="matrix(0.06172839506172839,0,0,0.06172839506172839,96.04938271604938,0)" xlink:href="#ak"/><use transform="matrix(0.06172839506172839,0,0,0.06172839506172839,108.39506172839506,0)" xlink:href="#av"/><use transform="matrix(0.06172839506172839,0,0,0.06172839506172839,120.74074074074075,0)" xlink:href="#au"/><use transform="matrix(0.06172839506172839,0,0,0.06172839506172839,126.91358024691357,0)" xlink:href="#an"/><use transform="matrix(0.06172839506172839,0,0,0.06172839506172839,133.08641975308643,0)" xlink:href="#ao"/></g><g id="R"><use transform="matrix(0.06172839506172839,0,0,0.06172839506172839,0,0)" xlink:href="#az"/><use transform="matrix(0.06172839506172839,0,0,0.06172839506172839,15.987654320987653,0)" xlink:href="#ac"/><use transform="matrix(0.06172839506172839,0,0,0.06172839506172839,28.333333333333332,0)" xlink:href="#aF"/><use transform="matrix(0.06172839506172839,0,0,0.06172839506172839,40.67901234567901,0)" xlink:href="#ab"/><use transform="matrix(0.06172839506172839,0,0,0.06172839506172839,48.02469135802469,0)" xlink:href="#al"/><use transform="matrix(0.06172839506172839,0,0,0.06172839506172839,59.1358024691358,0)" xlink:href="#ak"/><use transform="matrix(0.06172839506172839,0,0,0.06172839506172839,71.48148148148148,0)" xlink:href="#an"/><use transform="matrix(0.06172839506172839,0,0,0.06172839506172839,77.65432098765432,0)" xlink:href="#ao"/></g><g id="S"><use transform="matrix(0.06172839506172839,0,0,0.06172839506172839,0,0)" xlink:href="#aJ"/><use transform="matrix(0.06172839506172839,0,0,0.06172839506172839,18.456790123456788,0)" xlink:href="#at"/><use transform="matrix(0.06172839506172839,0,0,0.06172839506172839,23.33333333333333,0)" xlink:href="#av"/><use transform="matrix(0.06172839506172839,0,0,0.06172839506172839,35.679012345679006,0)" xlink:href="#aK"/><use transform="matrix(0.06172839506172839,0,0,0.06172839506172839,52.962962962962955,0)" xlink:href="#ab"/><use transform="matrix(0.06172839506172839,0,0,0.06172839506172839,60.30864197530863,0)" xlink:href="#ae"/><use transform="matrix(0.06172839506172839,0,0,0.06172839506172839,72.65432098765432,0)" xlink:href="#aH"/><use transform="matrix(0.06172839506172839,0,0,0.06172839506172839,85,0)" xlink:href="#ak"/></g><g id="T"><use transform="matrix(0.06172839506172839,0,0,0.06172839506172839,0,0)" xlink:href="#aa"/><use transform="matrix(0.06172839506172839,0,0,0.06172839506172839,14.814814814814813,0)" xlink:href="#ab"/><use transform="matrix(0.06172839506172839,0,0,0.06172839506172839,22.160493827160494,0)" xlink:href="#ac"/><use transform="matrix(0.06172839506172839,0,0,0.06172839506172839,34.50617283950617,0)" xlink:href="#ad"/><use transform="matrix(0.06172839506172839,0,0,0.06172839506172839,46.85185185185185,0)" xlink:href="#ab"/><use transform="matrix(0.06172839506172839,0,0,0.06172839506172839,54.197530864197525,0)" xlink:href="#ae"/><use transform="matrix(0.06172839506172839,0,0,0.06172839506172839,66.5432098765432,0)" xlink:href="#af"/><use transform="matrix(0.06172839506172839,0,0,0.06172839506172839,84.99999999999999,0)" xlink:href="#ag"/><use transform="matrix(0.06172839506172839,0,0,0.06172839506172839,97.34567901234567,0)" xlink:href="#aA"/><use transform="matrix(0.06172839506172839,0,0,0.06172839506172839,113.33333333333333,0)" xlink:href="#ak"/><use transform="matrix(0.06172839506172839,0,0,0.06172839506172839,125.67901234567901,0)" xlink:href="#aI"/><use transform="matrix(0.06172839506172839,0,0,0.06172839506172839,138.02469135802468,0)" xlink:href="#aJ"/><use transform="matrix(0.06172839506172839,0,0,0.06172839506172839,156.48148148148147,0)" xlink:href="#ae"/><use transform="matrix(0.06172839506172839,0,0,0.06172839506172839,168.82716049382714,0)" xlink:href="#al"/><use transform="matrix(0.06172839506172839,0,0,0.06172839506172839,179.93827160493825,0)" xlink:href="#au"/><use transform="matrix(0.06172839506172839,0,0,0.06172839506172839,186.1111111111111,0)" xlink:href="#ak"/><use transform="matrix(0.06172839506172839,0,0,0.06172839506172839,198.45679012345676,0)" xlink:href="#ab"/></g><g id="U"><use transform="matrix(0.06172839506172839,0,0,0.06172839506172839,0,0)" xlink:href="#aA"/><use transform="matrix(0.06172839506172839,0,0,0.06172839506172839,15.987654320987653,0)" xlink:href="#ak"/><use transform="matrix(0.06172839506172839,0,0,0.06172839506172839,28.333333333333332,0)" xlink:href="#aI"/><use transform="matrix(0.06172839506172839,0,0,0.06172839506172839,40.67901234567901,0)" xlink:href="#aK"/><use transform="matrix(0.06172839506172839,0,0,0.06172839506172839,57.96296296296296,0)" xlink:href="#ab"/><use transform="matrix(0.06172839506172839,0,0,0.06172839506172839,65.30864197530865,0)" xlink:href="#ac"/><use transform="matrix(0.06172839506172839,0,0,0.06172839506172839,77.65432098765433,0)" xlink:href="#aF"/><use transform="matrix(0.06172839506172839,0,0,0.06172839506172839,90.00000000000001,0)" xlink:href="#aj"/><use transform="matrix(0.06172839506172839,0,0,0.06172839506172839,102.3456790123457,0)" xlink:href="#ag"/><use transform="matrix(0.06172839506172839,0,0,0.06172839506172839,114.69135802469138,0)" xlink:href="#aA"/><use transform="matrix(0.06172839506172839,0,0,0.06172839506172839,130.67901234567904,0)" xlink:href="#ak"/><use transform="matrix(0.06172839506172839,0,0,0.06172839506172839,143.0246913580247,0)" xlink:href="#aI"/><use transform="matrix(0.06172839506172839,0,0,0.06172839506172839,155.37037037037038,0)" xlink:href="#aF"/><use transform="matrix(0.06172839506172839,0,0,0.06172839506172839,167.71604938271605,0)" xlink:href="#at"/><use transform="matrix(0.06172839506172839,0,0,0.06172839506172839,172.59259259259258,0)" xlink:href="#ab"/><use transform="matrix(0.06172839506172839,0,0,0.06172839506172839,179.93827160493825,0)" xlink:href="#ak"/><use transform="matrix(0.06172839506172839,0,0,0.06172839506172839,192.28395061728392,0)" xlink:href="#af"/><use transform="matrix(0.06172839506172839,0,0,0.06172839506172839,210.7407407407407,0)" xlink:href="#ak"/><use transform="matrix(0.06172839506172839,0,0,0.06172839506172839,223.08641975308637,0)" xlink:href="#av"/><use transform="matrix(0.06172839506172839,0,0,0.06172839506172839,235.43209876543204,0)" xlink:href="#au"/></g></defs></g></svg>