<svg xmlns="http://www.w3.org/2000/svg" xmlns:xlink="http://www.w3.org/1999/xlink" xmlns:lucid="lucid" width="2234" height="1814"><g transform="translate(1433 -548)" lucid:page-tab-id="LVgfJh33pKnG"><path d="M-1500 500h2500v2000h-2500z" fill="#fff"/><path d="M-364.96 1155v59a6 6 0 0 1-6 6h-332.22a6 6 0 0 0-6 6v45.6" stroke="#000" stroke-width="3" fill="none"/><path d="M-365 1153.5l1.52-.03v1.57h-2.95v-1.64zM-707.7 1273.1h-2.95v-1.54h2.95z" stroke="#000" stroke-width=".05"/><path d="M-364.96 1077v-18" stroke="#000" stroke-width="3" fill="none"/><path d="M-363.48 1078.6l-1.44-.1-1.5.03v-1.57h2.94zM-363.48 1059.04h-2.95v-1.54h2.95z" stroke="#000" stroke-width=".05"/><path d="M106.8 1271.6v-47.1a6 6 0 0 0-6-6h-459.76a6 6 0 0 1-6-6V1155" stroke="#000" stroke-width="3" fill="none"/><path d="M108.27 1273.1h-2.95v-1.54h2.95zM-365 1153.5l1.52-.03v1.57h-2.95v-1.64z" stroke="#000" stroke-width=".05"/><path d="M382.07 1269.3v-44.8a6 6 0 0 0-6-6h-735.03a6 6 0 0 1-6-6V1155" stroke="#000" stroke-width="3" fill="none"/><path d="M383.55 1270.8h-2.95v-1.52h2.95zM-365 1153.5l1.52-.03v1.57h-2.95v-1.64z" stroke="#000" stroke-width=".05"/><path d="M640 1269.3v-47.08a6 6 0 0 0-6-6h-992.96a6 6 0 0 1-6-6V1155" stroke="#000" stroke-width="3" fill="none"/><path d="M641.48 1270.8h-2.96v-1.52h2.96zM-365 1153.5l1.52-.03v1.57h-2.95v-1.64z" stroke="#000" stroke-width=".05"/><path d="M-1050.13 1805.4v39a6 6 0 0 1-6 6h-164.25a6 6 0 0 0-6 6v47.07" stroke="#000" stroke-width="3" fill="none"/><path d="M-1050.17 1803.9l1.5-.04v1.57h-2.94v-1.63zM-1224.9 1904.97h-2.96v-1.54h2.95z" stroke="#000" stroke-width=".05"/><path d="M-1050.13 1805.4v39a6 6 0 0 0 6 6h159.25a6 6 0 0 1 6 6v47.07" stroke="#000" stroke-width="3" fill="none"/><path d="M-1050.17 1803.9l1.5-.04v1.57h-2.94v-1.63zM-877.4 1904.97h-2.96v-1.54h2.95z" stroke="#000" stroke-width=".05"/><path d="M-709.18 1389.6v29.71" stroke="#000" stroke-width="3" fill="none"/><path d="M-707.7 1389.64h-2.95v-1.54h2.95zM-707.7 1420.9l-1.44-.1-1.5.05v-1.58h2.94z" stroke="#000" stroke-width=".05"/><path d="M-709.72 1497.28v29.03a6 6 0 0 1-6 6h-329.3a6 6 0 0 0-6 6v33.4" stroke="#000" stroke-width="3" fill="none"/><path d="M-709.2 1495.82l.95-.03v1.52h-2.95v-1.64zM-1049.55 1573.2h-2.94v-1.53h2.95z" stroke="#000" stroke-width=".05"/><path d="M-709.18 1497.3v29a6 6 0 0 0 6 6h300a6 6 0 0 1 6 6v33.4" stroke="#000" stroke-width="3" fill="none"/><path d="M-709.2 1495.82l1.5-.04v1.57h-2.95v-1.63zM-395.7 1573.2h-2.95v-1.53h2.95z" stroke="#000" stroke-width=".05"/><path d="M-397.18 1797.3v39a6 6 0 0 1-6 6h-144a6 6 0 0 0-6 6v54.1" stroke="#000" stroke-width="3" fill="none"/><path d="M-397.2 1795.82l1.5-.04v1.57h-2.95v-1.63zM-551.7 1903.9h-2.95v-1.55h2.95z" stroke="#000" stroke-width=".05"/><path d="M-397.18 1797.3v39a6 6 0 0 0 6 6h131.84a6 6 0 0 1 6 6v54.1" stroke="#000" stroke-width="3" fill="none"/><path d="M-397.2 1795.82l1.5-.04v1.57h-2.95v-1.63zM-251.86 1903.9h-2.95v-1.55h2.94z" stroke="#000" stroke-width=".05"/><path d="M106.8 1658.5v16.15a6 6 0 0 1-6 6H-25.45a6 6 0 0 0-6 6v16.15" stroke="#000" stroke-width="3" fill="none"/><path d="M106.76 1657l1.5-.03v1.57h-2.94v-1.64zM-29.96 1704.3h-2.95v-1.54h2.94z" stroke="#000" stroke-width=".05"/><path d="M106.8 1463.6v116.9" stroke="#000" stroke-width="3" fill="none"/><path d="M108.27 1463.64h-2.95v-1.54h2.95zM108.27 1582.1l-1.44-.1-1.5.03v-1.57h2.94z" stroke="#000" stroke-width=".05"/><path d="M106.8 1658.5v16.15a6 6 0 0 0 6 6h129.75a6 6 0 0 1 6 6v16.15" stroke="#000" stroke-width="3" fill="none"/><path d="M106.76 1657l1.5-.03v1.57h-2.94v-1.64zM250.03 1704.3h-2.95v-1.54h2.95z" stroke="#000" stroke-width=".05"/><path d="M17.88 1819.8v72.46a.04.04 0 0 1-.04.04.04.04 0 0 0-.04.04v72.46" stroke="#000" fill="none"/><path d="M18.35 1819.8h-.95v-.5h.95zM18.28 1965.3h-.95v-.5h.95z" stroke="#000" stroke-width=".05"/><use xlink:href="#a" transform="matrix(1,0,0,1,25.878746842054312,1823.8860173203082) translate(0 14.222222222222223)"/><use xlink:href="#a" transform="matrix(1,0,0,1,25.804567350228012,1940.0069255595) translate(0 14.222222222222223)"/><path d="M178.66 1819.8v72.3a.2.2 0 0 0 .2.2.2.2 0 0 1 .2.2v72.3" stroke="#000" fill="none"/><path d="M179.14 1819.8h-.95v-.5h.94zM179.54 1965.3h-.95v-.5h.94z" stroke="#000" stroke-width=".05"/><use xlink:href="#b" transform="matrix(1,0,0,1,187.067306660288,1940.0333264921983) translate(0 14.222222222222223)"/><use xlink:href="#a" transform="matrix(1,0,0,1,186.66243957836434,1829.0481345526534) translate(0 14.222222222222223)"/><path d="M-361.18 1758.3c0 19.9-16.12 36-36 36s-36-16.1-36-36c0-19.87 16.12-36 36-36s36 16.13 36 36z" stroke="#000" stroke-width="3" fill="#fff"/><use xlink:href="#c" transform="matrix(1,0,0,1,-428.17875373248353,1727.313565594682) translate(23.006172839506174 37.15277777777778)"/><path d="M-1014.13 1766.4c0 19.88-16.12 36-36 36s-36-16.12-36-36c0-19.9 16.12-36 36-36s36 16.1 36 36z" stroke="#000" stroke-width="3" fill="#fff"/><use xlink:href="#c" transform="matrix(1,0,0,1,-1081.1311690354946,1735.3949187793223) translate(23.006172839506174 37.15277777777778)"/><path d="M-673.18 1458.3c0 19.9-16.12 36-36 36s-36-16.1-36-36c0-19.87 16.12-36 36-36s36 16.13 36 36z" stroke="#000" stroke-width="3" fill="#fff"/><use xlink:href="#c" transform="matrix(1,0,0,1,-740.1787537324833,1427.313565594682) translate(23.006172839506174 37.15277777777778)"/><path d="M-397.18 1719.3v-29.6" stroke="#000" stroke-width="3" fill="none"/><path d="M-395.7 1720.9l-1.44-.1-1.5.05v-1.57h2.94zM-395.7 1689.75h-2.95v-1.54h2.95z" stroke="#000" stroke-width=".05"/><path d="M-328.96 1116c0 19.88-16.12 36-36 36s-36-16.12-36-36 16.12-36 36-36 36 16.12 36 36z" stroke="#000" stroke-width="3" fill="#fff"/><use xlink:href="#c" transform="matrix(1,0,0,1,-395.9575301466275,1085) translate(23.006172839506174 37.15277777777778)"/><path d="M142.8 1619.5c0 19.88-16.13 36-36 36-19.9 0-36-16.12-36-36s16.1-36 36-36c19.88 0 36 16.12 36 36z" stroke="#000" stroke-width="3" fill="#fff"/><use xlink:href="#c" transform="matrix(1,0,0,1,75.79297973997973,1588.4983494236567) translate(23.006172839506174 37.15277777777778)"/><path d="M-263.96 1000h75.48a6 6 0 0 1 6 6v136.15a6 6 0 0 0 6 6H-101" stroke="#000" fill="none"/><path d="M-263.94 1000.46h-.52v-.95h.5zM-100.5 1148.62h-.5v-.95h.5z" stroke="#000" stroke-width=".05"/><use xlink:href="#a" transform="matrix(1,0,0,1,-164.899101455222,1152.1471736378053) translate(0 14.222222222222223)"/><use xlink:href="#a" transform="matrix(1,0,0,1,-233.1595251972294,1003.9894792284364) translate(0 14.222222222222223)"/><path d="M-465.96 1000h-76.5-.02v-.02H-619" stroke="#000" fill="none"/><path d="M-465.46 1000.47h-.5v-.95h.5zM-619 1000.46h-.5v-.95h.5z" stroke="#000" stroke-width=".05"/><use xlink:href="#a" transform="matrix(1,0,0,1,-604.9369288019133,1003.9817818867173) translate(0 14.222222222222223)"/><use xlink:href="#a" transform="matrix(1,0,0,1,-501.42350115181546,1003.9971132600549) translate(0 14.222222222222223)"/><path d="M-392.44 1162H-333M-392.68 1173h59M78.2 1660.24h59M80 1672.18h59M-1080.52 1811.4h59M-1078.74 1860.92h59M-739.66 1503.56h59M-737.88 1517.8h59M-427.57 1803.3h59M-426.68 1813.3h59" stroke="#000" stroke-width="2" stroke-linecap="round" fill="none"/><path d="M-820 947.5a6 6 0 0 1 6-6h188a6 6 0 0 1 6 6v176a6 6 0 0 1-6 6h-188a6 6 0 0 1-6-6z" fill="#fff"/><path d="M-820 1018.5v38h200v-38M-820 1092.5v31a6 6 0 0 0 6 6h188a6 6 0 0 0 6-6v-31" fill="#f2f3f5"/><path d="M-820 981.5v-34a6 6 0 0 1 6-6h188a6 6 0 0 1 6 6v34" fill="#ced4db"/><path d="M-820 947.5a6 6 0 0 1 6-6h188a6 6 0 0 1 6 6v176a6 6 0 0 1-6 6h-188a6 6 0 0 1-6-6zM-820 981.5h200M-736.1 981.5v148" stroke="#000" fill="none"/><use xlink:href="#d" transform="matrix(1,0,0,1,-810,941.5000001128747) translate(62.87037037037037 24.444444444444443)"/><use xlink:href="#e" transform="matrix(1,0,0,1,-815,984.0000001128747) translate(1.845679012345684 20.444444444444443)"/><use xlink:href="#f" transform="matrix(1,0,0,1,-815,984.0000001128747) translate(43.820987654320994 20.444444444444443)"/><use xlink:href="#g" transform="matrix(1,0,0,1,-731.0935804275659,984.0000001128747) translate(0 20.444444444444443)"/><use xlink:href="#h" transform="matrix(1,0,0,1,-815,1021.0000001128747) translate(22.185185185185187 20.444444444444443)"/><use xlink:href="#i" transform="matrix(1,0,0,1,-731.0935804275659,1021.0000001128747) translate(0 20.444444444444443)"/><use xlink:href="#h" transform="matrix(1,0,0,1,-815,1058.0000001128747) translate(22.185185185185187 20.444444444444443)"/><use xlink:href="#j" transform="matrix(1,0,0,1,-731.0935804275659,1058.0000001128747) translate(0 20.444444444444443)"/><use xlink:href="#k" transform="matrix(1,0,0,1,-731.0935804275659,1095.0000001128747) translate(0 20.444444444444443)"/><path d="M-464.96 986a6 6 0 0 1 6-6h188a6 6 0 0 1 6 6v65a6 6 0 0 1-6 6h-188a6 6 0 0 1-6-6z" fill="#fff"/><path d="M-464.96 1020v-34a6 6 0 0 1 6-6h188a6 6 0 0 1 6 6v34" fill="#ced4db"/><path d="M-464.96 986a6 6 0 0 1 6-6h188a6 6 0 0 1 6 6v65a6 6 0 0 1-6 6h-188a6 6 0 0 1-6-6zM-464.96 1020h200M-404.96 1020v37" stroke="#000" fill="none"/><use xlink:href="#l" transform="matrix(1,0,0,1,-454.9575301466275,980) translate(66.60493827160494 24.444444444444443)"/><use xlink:href="#h" transform="matrix(1,0,0,1,-459.9575301466275,1022.5) translate(10.185185185185187 20.444444444444443)"/><use xlink:href="#g" transform="matrix(1,0,0,1,-399.9575301466275,1022.5) translate(0 20.444444444444443)"/><path d="M-100 614.5a6 6 0 0 1 6-6h242.1a6 6 0 0 1 6 6v546a6 6 0 0 1-6 6H-94a6 6 0 0 1-6-6z" fill="#fff"/><path d="M-100 685.5v38h254.1v-38M-100 759.5v38h254.1v-38M-100 833.5v38h254.1v-38M-100 907.5v38h254.1v-38M-100 981.5v38h254.1v-38M-100 1055.5v38h254.1v-38M-100 1129.5v31a6 6 0 0 0 6 6h242.1a6 6 0 0 0 6-6v-31" fill="#f2f3f5"/><path d="M-100 648.5v-34a6 6 0 0 1 6-6h242.1a6 6 0 0 1 6 6v34" fill="#ced4db"/><path d="M-100 614.5a6 6 0 0 1 6-6h242.1a6 6 0 0 1 6 6v546a6 6 0 0 1-6 6H-94a6 6 0 0 1-6-6zM-100 648.5h254.1M-14.28 648.5v518" stroke="#000" fill="none"/><use xlink:href="#m" transform="matrix(1,0,0,1,-90,608.4999528029714) translate(15.18518518518519 24.444444444444443)"/><use xlink:href="#n" transform="matrix(1,0,0,1,-90,608.4999528029714) translate(108.88888888888889 24.444444444444443)"/><use xlink:href="#e" transform="matrix(1,0,0,1,-95,650.9999528029714) translate(2.845679012345684 20.444444444444443)"/><use xlink:href="#f" transform="matrix(1,0,0,1,-95,650.9999528029714) translate(44.820987654320994 20.444444444444443)"/><use xlink:href="#g" transform="matrix(1,0,0,1,-9.276300813507518,650.9999528029714) translate(0 20.444444444444443)"/><use xlink:href="#o" transform="matrix(1,0,0,1,-9.276300813507518,687.9999528029714) translate(0 20.444444444444443)"/><use xlink:href="#p" transform="matrix(1,0,0,1,-9.276300813507518,724.9999528029714) translate(0 20.444444444444443)"/><use xlink:href="#q" transform="matrix(1,0,0,1,-9.276300813507518,761.9999528029714) translate(0 20.444444444444443)"/><use xlink:href="#r" transform="matrix(1,0,0,1,-9.276300813507518,798.9999528029714) translate(0 20.444444444444443)"/><use xlink:href="#s" transform="matrix(1,0,0,1,-9.276300813507518,835.9999528029714) translate(0 20.444444444444443)"/><use xlink:href="#t" transform="matrix(1,0,0,1,-9.276300813507518,872.9999528029714) translate(0 20.444444444444443)"/><use xlink:href="#u" transform="matrix(1,0,0,1,-9.276300813507518,909.9999528029714) translate(0 20.444444444444443)"/><use xlink:href="#v" transform="matrix(1,0,0,1,-9.276300813507518,946.9999528029714) translate(0 20.444444444444443)"/><use xlink:href="#w" transform="matrix(1,0,0,1,-9.276300813507518,983.9999528029714) translate(0 20.444444444444443)"/><use xlink:href="#x" transform="matrix(1,0,0,1,-9.276300813507518,1020.9999528029714) translate(0 20.444444444444443)"/><use xlink:href="#y" transform="matrix(1,0,0,1,-9.276300813507518,1057.9999528029714) translate(0 20.444444444444443)"/><use xlink:href="#z" transform="matrix(1,0,0,1,-9.276300813507518,1094.9999528029714) translate(0 20.444444444444443)"/><use xlink:href="#A" transform="matrix(1,0,0,1,-9.276300813507518,1131.9999528029714) translate(0 20.444444444444443)"/><path d="M-3.1 1279.6a6 6 0 0 1 6-6h207.8a6 6 0 0 1 6 6v176a6 6 0 0 1-6 6H2.9a6 6 0 0 1-6-6z" fill="#fff"/><path d="M-3.1 1350.6v38h219.8v-38M-3.1 1424.6v31a6 6 0 0 0 6 6h207.8a6 6 0 0 0 6-6v-31" fill="#f2f3f5"/><path d="M-3.1 1313.6v-34a6 6 0 0 1 6-6h207.8a6 6 0 0 1 6 6v34" fill="#ced4db"/><path d="M-3.1 1279.6a6 6 0 0 1 6-6h207.8a6 6 0 0 1 6 6v176a6 6 0 0 1-6 6H2.9a6 6 0 0 1-6-6zM-3.1 1313.6h219.8M79.5 1313.6v148" stroke="#000" fill="none"/><use xlink:href="#B" transform="matrix(1,0,0,1,6.887714544964524,1273.5975225908485) translate(34.691358024691354 24.444444444444443)"/><use xlink:href="#e" transform="matrix(1,0,0,1,1.887714544964524,1316.0975225908485) translate(1.345679012345684 20.444444444444443)"/><use xlink:href="#f" transform="matrix(1,0,0,1,1.887714544964524,1316.0975225908485) translate(43.320987654320994 20.444444444444443)"/><use xlink:href="#g" transform="matrix(1,0,0,1,84.49363204022563,1316.0975225908485) translate(0 20.444444444444443)"/><use xlink:href="#C" transform="matrix(1,0,0,1,84.49363204022563,1353.0975225908485) translate(0 20.444444444444443)"/><use xlink:href="#D" transform="matrix(1,0,0,1,84.49363204022563,1390.0975225908485) translate(0 20.444444444444443)"/><use xlink:href="#E" transform="matrix(1,0,0,1,84.49363204022563,1427.0975225908485) translate(0 20.444444444444443)"/><path d="M-140 1710.8a6 6 0 0 1 6-6H71.13a6 6 0 0 1 6 6v102a6 6 0 0 1-6 6H-134a6 6 0 0 1-6-6z" fill="#fff"/><path d="M-140 1781.8v31a6 6 0 0 0 6 6H71.13a6 6 0 0 0 6-6v-31" fill="#f2f3f5"/><path d="M-140 1744.8v-34a6 6 0 0 1 6-6H71.13a6 6 0 0 1 6 6v34" fill="#ced4db"/><path d="M-140 1710.8a6 6 0 0 1 6-6H71.13a6 6 0 0 1 6 6v102a6 6 0 0 1-6 6H-134a6 6 0 0 1-6-6zM-140 1744.8H77.13M-55.6 1744.8v74" stroke="#000" fill="none"/><use xlink:href="#F" transform="matrix(1,0,0,1,-130,1704.79814439235) translate(12.549382716049394 24.444444444444443)"/><use xlink:href="#G" transform="matrix(1,0,0,1,-130,1704.79814439235) translate(59.40123456790125 24.444444444444443)"/><use xlink:href="#H" transform="matrix(1,0,0,1,-130,1704.79814439235) translate(113.96913580246914 24.444444444444443)"/><use xlink:href="#e" transform="matrix(1,0,0,1,-135,1747.29814439235) translate(2.345679012345684 20.444444444444443)"/><use xlink:href="#f" transform="matrix(1,0,0,1,-135,1747.29814439235) translate(44.320987654320994 20.444444444444443)"/><use xlink:href="#g" transform="matrix(1,0,0,1,-50.61436726607053,1747.29814439235) translate(0 20.444444444444443)"/><use xlink:href="#I" transform="matrix(1,0,0,1,-50.61436726607053,1784.29814439235) translate(0 20.444444444444443)"/><path d="M140 1710.8a6 6 0 0 1 6-6H351.1a6 6 0 0 1 6 6v102a6 6 0 0 1-6 6H146a6 6 0 0 1-6-6z" fill="#fff"/><path d="M140 1781.8v31a6 6 0 0 0 6 6H351.1a6 6 0 0 0 6-6v-31" fill="#f2f3f5"/><path d="M140 1744.8v-34a6 6 0 0 1 6-6H351.1a6 6 0 0 1 6 6v34" fill="#ced4db"/><path d="M140 1710.8a6 6 0 0 1 6-6H351.1a6 6 0 0 1 6 6v102a6 6 0 0 1-6 6H146a6 6 0 0 1-6-6zM140 1744.8H357.1M221.44 1744.8v74" stroke="#000" fill="none"/><use xlink:href="#J" transform="matrix(1,0,0,1,149.98846971132502,1704.79814439235) translate(15.080246913580254 24.444444444444443)"/><use xlink:href="#G" transform="matrix(1,0,0,1,149.98846971132502,1704.79814439235) translate(56.87037037037038 24.444444444444443)"/><use xlink:href="#H" transform="matrix(1,0,0,1,149.98846971132502,1704.79814439235) translate(111.43827160493828 24.444444444444443)"/><use xlink:href="#e" transform="matrix(1,0,0,1,144.98846971132502,1747.29814439235) translate(0.8456790123456841 20.444444444444443)"/><use xlink:href="#f" transform="matrix(1,0,0,1,144.98846971132502,1747.29814439235) translate(42.820987654320994 20.444444444444443)"/><use xlink:href="#g" transform="matrix(1,0,0,1,226.44173397999634,1747.29814439235) translate(0 20.444444444444443)"/><use xlink:href="#I" transform="matrix(1,0,0,1,226.44173397999634,1784.29814439235) translate(0 20.444444444444443)"/><path d="M-39.85 1971.8a6 6 0 0 1 6-6H226.6a6 6 0 0 1 6 6v324a6 6 0 0 1-6 6H-33.84a6 6 0 0 1-6-6z" fill="#fff"/><path d="M-39.85 2042.8v38H232.6v-38M-39.85 2116.8v38H232.6v-38M-39.85 2190.8v38H232.6v-38M-39.85 2264.8v31a6 6 0 0 0 6 6H226.6a6 6 0 0 0 6-6v-31" fill="#f2f3f5"/><path d="M-39.85 2005.8v-34a6 6 0 0 1 6-6H226.6a6 6 0 0 1 6 6v34" fill="#ced4db"/><path d="M-39.85 1971.8a6 6 0 0 1 6-6H226.6a6 6 0 0 1 6 6v324a6 6 0 0 1-6 6H-33.84a6 6 0 0 1-6-6zM-39.85 2005.8H232.6M42.2 2005.8v296" stroke="#000" fill="none"/><use xlink:href="#K" transform="matrix(1,0,0,1,-29.849628004145416,1965.800390284021) translate(50.66666666666666 24.444444444444443)"/><use xlink:href="#L" transform="matrix(1,0,0,1,-29.849628004145416,1965.800390284021) translate(128.32098765432096 24.444444444444443)"/><use xlink:href="#h" transform="matrix(1,0,0,1,-34.849628004145416,2008.300390284021) translate(21.685185185185187 20.444444444444443)"/><use xlink:href="#M" transform="matrix(1,0,0,1,47.19234145077917,2008.300390284021) translate(0 20.444444444444443)"/><use xlink:href="#e" transform="matrix(1,0,0,1,-34.849628004145416,2045.300390284021) translate(1.345679012345684 20.444444444444443)"/><use xlink:href="#f" transform="matrix(1,0,0,1,-34.849628004145416,2045.300390284021) translate(43.320987654320994 20.444444444444443)"/><use xlink:href="#N" transform="matrix(1,0,0,1,47.19234145077917,2045.300390284021) translate(0 20.444444444444443)"/><use xlink:href="#e" transform="matrix(1,0,0,1,-34.849628004145416,2082.300390284021) translate(1.345679012345684 20.444444444444443)"/><use xlink:href="#f" transform="matrix(1,0,0,1,-34.849628004145416,2082.300390284021) translate(43.320987654320994 20.444444444444443)"/><use xlink:href="#O" transform="matrix(1,0,0,1,47.19234145077917,2082.300390284021) translate(0 20.444444444444443)"/><use xlink:href="#P" transform="matrix(1,0,0,1,-34.849628004145416,2119.300390284021) translate(22.333333333333336 20.444444444444443)"/><use xlink:href="#Q" transform="matrix(1,0,0,1,47.19234145077917,2119.300390284021) translate(0 20.444444444444443)"/><use xlink:href="#P" transform="matrix(1,0,0,1,-34.849628004145416,2156.300390284021) translate(22.333333333333336 20.444444444444443)"/><use xlink:href="#R" transform="matrix(1,0,0,1,47.19234145077917,2156.300390284021) translate(0 20.444444444444443)"/><use xlink:href="#P" transform="matrix(1,0,0,1,-34.849628004145416,2193.300390284021) translate(22.333333333333336 20.444444444444443)"/><use xlink:href="#S" transform="matrix(1,0,0,1,47.19234145077917,2193.300390284021) translate(0 20.444444444444443)"/><use xlink:href="#T" transform="matrix(1,0,0,1,47.19234145077917,2230.300390284021) translate(0 20.444444444444443)"/><use xlink:href="#U" transform="matrix(1,0,0,1,47.19234145077917,2267.300390284021) translate(0 20.444444444444443)"/><path d="M262.07 1277.3a6 6 0 0 1 6-6h228a6 6 0 0 1 6 6v139a6 6 0 0 1-6 6h-228a6 6 0 0 1-6-6z" fill="#fff"/><path d="M262.07 1348.3v38h240v-38" fill="#f2f3f5"/><path d="M262.07 1311.3v-34a6 6 0 0 1 6-6h228a6 6 0 0 1 6 6v34" fill="#ced4db"/><path d="M262.07 1277.3a6 6 0 0 1 6-6h228a6 6 0 0 1 6 6v139a6 6 0 0 1-6 6h-228a6 6 0 0 1-6-6zM262.07 1311.3h240M343.3 1311.3v111" stroke="#000" fill="none"/><use xlink:href="#V" transform="matrix(1,0,0,1,272.0720821240237,1271.313565594682) translate(15.154320987654344 24.444444444444443)"/><use xlink:href="#e" transform="matrix(1,0,0,1,267.0720821240237,1313.813565594682) translate(0.8456790123456841 20.444444444444443)"/><use xlink:href="#f" transform="matrix(1,0,0,1,267.0720821240237,1313.813565594682) translate(42.820987654320994 20.444444444444443)"/><use xlink:href="#g" transform="matrix(1,0,0,1,348.2989395767735,1313.813565594682) translate(0 20.444444444444443)"/><use xlink:href="#C" transform="matrix(1,0,0,1,348.2989395767735,1350.813565594682) translate(0 20.444444444444443)"/><use xlink:href="#W" transform="matrix(1,0,0,1,348.2989395767735,1387.813565594682) translate(0 20.444444444444443)"/><path d="M540 1277.3a6 6 0 0 1 6-6h188a6 6 0 0 1 6 6v102a6 6 0 0 1-6 6H546a6 6 0 0 1-6-6z" fill="#fff"/><path d="M540 1348.3v31a6 6 0 0 0 6 6h188a6 6 0 0 0 6-6v-31" fill="#f2f3f5"/><path d="M540 1311.3v-34a6 6 0 0 1 6-6h188a6 6 0 0 1 6 6v34" fill="#ced4db"/><path d="M540 1277.3a6 6 0 0 1 6-6h188a6 6 0 0 1 6 6v102a6 6 0 0 1-6 6H546a6 6 0 0 1-6-6zM540 1311.3h200M623.3 1311.3v74" stroke="#000" fill="none"/><use xlink:href="#X" transform="matrix(1,0,0,1,550,1271.313565594682) translate(3.117283950617292 24.444444444444443)"/><use xlink:href="#e" transform="matrix(1,0,0,1,545,1313.813565594682) translate(1.845679012345684 20.444444444444443)"/><use xlink:href="#f" transform="matrix(1,0,0,1,545,1313.813565594682) translate(43.820987654320994 20.444444444444443)"/><use xlink:href="#g" transform="matrix(1,0,0,1,628.3042486123368,1313.813565594682) translate(0 20.444444444444443)"/><use xlink:href="#C" transform="matrix(1,0,0,1,628.3042486123368,1350.813565594682) translate(0 20.444444444444443)"/><path d="M-673.18 1910.4a6 6 0 0 1 6-6h228a6 6 0 0 1 6 6v102a6 6 0 0 1-6 6h-228a6 6 0 0 1-6-6z" fill="#fff"/><path d="M-673.18 1981.4v31a6 6 0 0 0 6 6h228a6 6 0 0 0 6-6v-31" fill="#f2f3f5"/><path d="M-673.18 1944.4v-34a6 6 0 0 1 6-6h228a6 6 0 0 1 6 6v34" fill="#ced4db"/><path d="M-673.18 1910.4a6 6 0 0 1 6-6h228a6 6 0 0 1 6 6v102a6 6 0 0 1-6 6h-228a6 6 0 0 1-6-6zM-673.18 1944.4h240M-592.73 1944.4v74" stroke="#000" fill="none"/><use xlink:href="#Y" transform="matrix(1,0,0,1,-663.1787537324834,1904.3893224109675) translate(13.024691358024725 24.444444444444443)"/><use xlink:href="#e" transform="matrix(1,0,0,1,-668.1787537324834,1946.8893224109675) translate(0.3456790123456841 20.444444444444443)"/><use xlink:href="#f" transform="matrix(1,0,0,1,-668.1787537324834,1946.8893224109675) translate(42.320987654320994 20.444444444444443)"/><use xlink:href="#g" transform="matrix(1,0,0,1,-587.7332402614339,1946.8893224109675) translate(0 20.444444444444443)"/><use xlink:href="#I" transform="matrix(1,0,0,1,-587.7332402614339,1983.8893224109675) translate(0 20.444444444444443)"/><path d="M-366.68 1910.4a6 6 0 0 1 6-6H-146a6 6 0 0 1 6 6v102a6 6 0 0 1-6 6h-214.68a6 6 0 0 1-6-6z" fill="#fff"/><path d="M-366.68 1981.4v31a6 6 0 0 0 6 6H-146a6 6 0 0 0 6-6v-31" fill="#f2f3f5"/><path d="M-366.68 1944.4v-34a6 6 0 0 1 6-6H-146a6 6 0 0 1 6 6v34" fill="#ced4db"/><path d="M-366.68 1910.4a6 6 0 0 1 6-6H-146a6 6 0 0 1 6 6v102a6 6 0 0 1-6 6h-214.68a6 6 0 0 1-6-6zM-366.68 1944.4H-140M-284.36 1944.4v74" stroke="#000" fill="none"/><use xlink:href="#Z" transform="matrix(1,0,0,1,-356.67875373248353,1904.3893224109675) translate(15.228395061728406 24.444444444444443)"/><use xlink:href="#e" transform="matrix(1,0,0,1,-361.67875373248353,1946.8893224109675) translate(1.345679012345684 20.444444444444443)"/><use xlink:href="#f" transform="matrix(1,0,0,1,-361.67875373248353,1946.8893224109675) translate(43.320987654320994 20.444444444444443)"/><use xlink:href="#g" transform="matrix(1,0,0,1,-279.3574698888333,1946.8893224109675) translate(0 20.444444444444443)"/><use xlink:href="#I" transform="matrix(1,0,0,1,-279.3574698888333,1983.8893224109675) translate(0 20.444444444444443)"/><path d="M-509.15 1579.7a6 6 0 0 1 6-6h211.94a6 6 0 0 1 6 6v102a6 6 0 0 1-6 6h-211.95a6 6 0 0 1-6-6z" fill="#fff"/><path d="M-509.15 1650.7v31a6 6 0 0 0 6 6h211.94a6 6 0 0 0 6-6v-31" fill="#f2f3f5"/><path d="M-509.15 1613.7v-34a6 6 0 0 1 6-6h211.94a6 6 0 0 1 6 6v34" fill="#ced4db"/><path d="M-509.15 1579.7a6 6 0 0 1 6-6h211.94a6 6 0 0 1 6 6v102a6 6 0 0 1-6 6h-211.95a6 6 0 0 1-6-6zM-509.15 1613.7h223.94M-427.43 1613.7v74" stroke="#000" fill="none"/><use xlink:href="#aa" transform="matrix(1,0,0,1,-499.1524432038567,1573.7103308594994) translate(11.290123456790141 24.444444444444443)"/><use xlink:href="#e" transform="matrix(1,0,0,1,-504.1524432038567,1616.2103308594994) translate(0.8456790123456841 20.444444444444443)"/><use xlink:href="#f" transform="matrix(1,0,0,1,-504.1524432038567,1616.2103308594994) translate(42.820987654320994 20.444444444444443)"/><use xlink:href="#ab" transform="matrix(1,0,0,1,-422.4293582241629,1616.2103308594994) translate(0 20.444444444444443)"/><use xlink:href="#ac" transform="matrix(1,0,0,1,-422.4293582241629,1653.2103308594994) translate(0 20.444444444444443)"/><path d="M-1176.07 1579.7a6 6 0 0 1 6-6h238.1a6 6 0 0 1 6 6v102a6 6 0 0 1-6 6h-238.1a6 6 0 0 1-6-6z" fill="#fff"/><path d="M-1176.07 1650.7v31a6 6 0 0 0 6 6h238.1a6 6 0 0 0 6-6v-31" fill="#f2f3f5"/><path d="M-1176.07 1613.7v-34a6 6 0 0 1 6-6h238.1a6 6 0 0 1 6 6v34" fill="#ced4db"/><path d="M-1176.07 1579.7a6 6 0 0 1 6-6h238.1a6 6 0 0 1 6 6v102a6 6 0 0 1-6 6h-238.1a6 6 0 0 1-6-6zM-1176.07 1613.7h250.1M-1092.64 1613.7v74" stroke="#000" fill="none"/><use xlink:href="#ad" transform="matrix(1,0,0,1,-1166.0743234843799,1573.7103308594994) translate(-2.925925925925881 24.444444444444443)"/><use xlink:href="#e" transform="matrix(1,0,0,1,-1171.0743234843799,1616.2103308594994) translate(1.845679012345684 20.444444444444443)"/><use xlink:href="#f" transform="matrix(1,0,0,1,-1171.0743234843799,1616.2103308594994) translate(43.820987654320994 20.444444444444443)"/><use xlink:href="#g" transform="matrix(1,0,0,1,-1087.641445034044,1616.2103308594994) translate(0 20.444444444444443)"/><use xlink:href="#ac" transform="matrix(1,0,0,1,-1087.641445034044,1653.2103308594994) translate(0 20.444444444444443)"/><path d="M-1018.88 1911.47a6 6 0 0 1 6-6h268a6 6 0 0 1 6 6v102a6 6 0 0 1-6 6h-268a6 6 0 0 1-6-6z" fill="#fff"/><path d="M-1018.88 1982.47v31a6 6 0 0 0 6 6h268a6 6 0 0 0 6-6v-31" fill="#f2f3f5"/><path d="M-1018.88 1945.47v-34a6 6 0 0 1 6-6h268a6 6 0 0 1 6 6v34" fill="#ced4db"/><path d="M-1018.88 1911.47a6 6 0 0 1 6-6h268a6 6 0 0 1 6 6v102a6 6 0 0 1-6 6h-268a6 6 0 0 1-6-6zM-1018.88 1945.47h280M-934.46 1945.47v74" stroke="#000" fill="none"/><use xlink:href="#ae" transform="matrix(1,0,0,1,-1008.8842803819452,1905.4706755956072) translate(7.839506172839563 24.444444444444443)"/><use xlink:href="#e" transform="matrix(1,0,0,1,-1013.8842803819452,1947.9706755956072) translate(2.345679012345684 20.444444444444443)"/><use xlink:href="#f" transform="matrix(1,0,0,1,-1013.8842803819452,1947.9706755956072) translate(44.320987654320994 20.444444444444443)"/><use xlink:href="#g" transform="matrix(1,0,0,1,-929.4576265389828,1947.9706755956072) translate(0 20.444444444444443)"/><use xlink:href="#I" transform="matrix(1,0,0,1,-929.4576265389828,1984.9706755956072) translate(0 20.444444444444443)"/><path d="M-1372.88 1911.47a6 6 0 0 1 6-6h281a6 6 0 0 1 6 6v102a6 6 0 0 1-6 6h-281a6 6 0 0 1-6-6z" fill="#fff"/><path d="M-1372.88 1982.47v31a6 6 0 0 0 6 6h281a6 6 0 0 0 6-6v-31" fill="#f2f3f5"/><path d="M-1372.88 1945.47v-34a6 6 0 0 1 6-6h281a6 6 0 0 1 6 6v34" fill="#ced4db"/><path d="M-1372.88 1911.47a6 6 0 0 1 6-6h281a6 6 0 0 1 6 6v102a6 6 0 0 1-6 6h-281a6 6 0 0 1-6-6zM-1372.88 1945.47h293M-1288.18 1945.47v74" stroke="#000" fill="none"/><g><use xlink:href="#af" transform="matrix(1,0,0,1,-1362.8842803819452,1905.4655604771) translate(11.808641975308689 24.444444444444443)"/></g><g><use xlink:href="#e" transform="matrix(1,0,0,1,-1367.8842803819452,1947.9655604771) translate(2.345679012345684 20.444444444444443)"/><use xlink:href="#f" transform="matrix(1,0,0,1,-1367.8842803819452,1947.9655604771) translate(44.320987654320994 20.444444444444443)"/></g><g><use xlink:href="#g" transform="matrix(1,0,0,1,-1283.1802508635774,1947.9655604771) translate(0 20.444444444444443)"/></g><g><use xlink:href="#I" transform="matrix(1,0,0,1,-1283.1802508635774,1984.9655604771) translate(0 20.444444444444443)"/></g><path d="M-809.18 1279.6a6 6 0 0 1 6-6h188a6 6 0 0 1 6 6v102a6 6 0 0 1-6 6h-188a6 6 0 0 1-6-6z" fill="#fff"/><path d="M-809.18 1350.6v31a6 6 0 0 0 6 6h188a6 6 0 0 0 6-6v-31" fill="#f2f3f5"/><path d="M-809.18 1313.6v-34a6 6 0 0 1 6-6h188a6 6 0 0 1 6 6v34" fill="#ced4db"/><path d="M-809.18 1279.6a6 6 0 0 1 6-6h188a6 6 0 0 1 6 6v102a6 6 0 0 1-6 6h-188a6 6 0 0 1-6-6zM-809.18 1313.6h200M-749.18 1313.6v74" stroke="#000" fill="none"/><g><use xlink:href="#ag" transform="matrix(1,0,0,1,-799.1787537324831,1273.5975225908485) translate(22.160493827160494 24.444444444444443)"/></g><g><use xlink:href="#h" transform="matrix(1,0,0,1,-804.1787537324831,1316.0975225908485) translate(10.185185185185187 20.444444444444443)"/></g><g><use xlink:href="#g" transform="matrix(1,0,0,1,-744.1787537324831,1316.0975225908485) translate(0 20.444444444444443)"/></g><g><use xlink:href="#C" transform="matrix(1,0,0,1,-744.1787537324831,1353.0975225908485) translate(0 20.444444444444443)"/></g><path d="M-1050.13 1727.4v-18.74a.1.1 0 0 1 .1-.1.1.1 0 0 0 .12-.12v-18.73" stroke="#000" stroke-width="3" fill="none"/><path d="M-1048.66 1729l-1.43-.1-1.5.03v-1.57h2.94zM-1048.44 1689.75h-2.95v-1.54h2.96z" stroke="#000" stroke-width=".05"/><defs><path d="M23 0v-37h61v-169l-59 37v-38l62-41h46v211h57V0H23" id="ah"/><path d="M24 0v-54h51V0H24" id="ai"/><g id="a"><use transform="matrix(0.04938271604938272,0,0,0.04938271604938272,0,0)" xlink:href="#ah"/><use transform="matrix(0.04938271604938272,0,0,0.04938271604938272,9.876543209876544,0)" xlink:href="#ai"/><use transform="matrix(0.04938271604938272,0,0,0.04938271604938272,14.814814814814817,0)" xlink:href="#ai"/><use transform="matrix(0.04938271604938272,0,0,0.04938271604938272,19.75308641975309,0)" xlink:href="#ah"/></g><path d="M101-251c68 0 84 54 84 127C185-50 166 4 99 4S15-52 14-124c-1-75 17-127 87-127zm-1 216c37-5 36-46 36-89s4-89-36-89c-39 0-36 45-36 89 0 43-3 85 36 89" id="aj"/><path d="M128-127c34 4 56 21 59 58 7 91-148 94-172 28-4-9-6-17-7-26l51-5c1 24 16 35 40 36 23 0 39-12 38-36-1-31-31-36-65-34v-40c32 2 59-3 59-33 0-20-13-33-34-33s-33 13-35 32l-50-3c6-44 37-68 86-68 50 0 83 20 83 66 0 35-22 52-53 58" id="ak"/><g id="b"><use transform="matrix(0.04938271604938272,0,0,0.04938271604938272,0,0)" xlink:href="#aj"/><use transform="matrix(0.04938271604938272,0,0,0.04938271604938272,9.876543209876544,0)" xlink:href="#ai"/><use transform="matrix(0.04938271604938272,0,0,0.04938271604938272,14.814814814814817,0)" xlink:href="#ai"/><use transform="matrix(0.04938271604938272,0,0,0.04938271604938272,19.75308641975309,0)" xlink:href="#ak"/></g><path d="M30-248c118-7 216 8 213 122C240-48 200 0 122 0H30v-248zM63-27c89 8 146-16 146-99s-60-101-146-95v194" id="al"/><use transform="matrix(0.06172839506172839,0,0,0.06172839506172839,0,0)" xlink:href="#al" id="c"/><path d="M30 0v-248h33v221h125V0H30" id="am"/><path d="M100-194c62-1 85 37 85 99 1 63-27 99-86 99S16-35 15-95c0-66 28-99 85-99zM99-20c44 1 53-31 53-75 0-43-8-75-51-75s-53 32-53 75 10 74 51 75" id="an"/><path d="M177-190C167-65 218 103 67 71c-23-6-38-20-44-43l32-5c15 47 100 32 89-28v-30C133-14 115 1 83 1 29 1 15-40 15-95c0-56 16-97 71-98 29-1 48 16 59 35 1-10 0-23 2-32h30zM94-22c36 0 50-32 50-73 0-42-14-75-50-75-39 0-46 34-46 75s6 73 46 73" id="ao"/><path d="M24-231v-30h32v30H24zM24 0v-190h32V0H24" id="ap"/><path d="M117-194c89-4 53 116 60 194h-32v-121c0-31-8-49-39-48C34-167 62-67 57 0H25l-1-190h30c1 10-1 24 2 32 11-22 29-35 61-36" id="aq"/><g id="d"><use transform="matrix(0.06172839506172839,0,0,0.06172839506172839,0,0)" xlink:href="#am"/><use transform="matrix(0.06172839506172839,0,0,0.06172839506172839,12.345679012345679,0)" xlink:href="#an"/><use transform="matrix(0.06172839506172839,0,0,0.06172839506172839,24.691358024691358,0)" xlink:href="#ao"/><use transform="matrix(0.06172839506172839,0,0,0.06172839506172839,37.03703703703704,0)" xlink:href="#ap"/><use transform="matrix(0.06172839506172839,0,0,0.06172839506172839,41.91358024691358,0)" xlink:href="#aq"/></g><path d="M30-248c87 1 191-15 191 75 0 78-77 80-158 76V0H30v-248zm33 125c57 0 124 11 124-50 0-59-68-47-124-48v98" id="ar"/><path d="M194 0L95-120 63-95V0H30v-248h33v124l119-124h40L117-140 236 0h-42" id="as"/><path d="M68-38c1 34 0 65-14 84H32c9-13 17-26 17-46H33v-38h35" id="at"/><g id="e"><use transform="matrix(0.06172839506172839,0,0,0.06172839506172839,0,0)" xlink:href="#ar"/><use transform="matrix(0.06172839506172839,0,0,0.06172839506172839,14.814814814814813,0)" xlink:href="#as"/><use transform="matrix(0.06172839506172839,0,0,0.06172839506172839,29.629629629629626,0)" xlink:href="#at"/></g><path d="M63-220v92h138v28H63V0H30v-248h175v28H63" id="au"/><g id="f"><use transform="matrix(0.06172839506172839,0,0,0.06172839506172839,0,0)" xlink:href="#au"/><use transform="matrix(0.06172839506172839,0,0,0.06172839506172839,13.518518518518517,0)" xlink:href="#as"/></g><path d="M232-93c-1 65-40 97-104 97C67 4 28-28 28-90v-158h33c8 89-33 224 67 224 102 0 64-133 71-224h33v155" id="av"/><path d="M33 0v-248h34V0H33" id="aw"/><g id="g"><use transform="matrix(0.06172839506172839,0,0,0.06172839506172839,0,0)" xlink:href="#av"/><use transform="matrix(0.06172839506172839,0,0,0.06172839506172839,15.987654320987653,0)" xlink:href="#aw"/><use transform="matrix(0.06172839506172839,0,0,0.06172839506172839,22.160493827160494,0)" xlink:href="#al"/></g><g id="h"><use transform="matrix(0.06172839506172839,0,0,0.06172839506172839,0,0)" xlink:href="#ar"/><use transform="matrix(0.06172839506172839,0,0,0.06172839506172839,14.814814814814813,0)" xlink:href="#as"/></g><path d="M84 4C-5 8 30-112 23-190h32v120c0 31 7 50 39 49 72-2 45-101 50-169h31l1 190h-30c-1-10 1-25-2-33-11 22-28 36-60 37" id="ax"/><path d="M135-143c-3-34-86-38-87 0 15 53 115 12 119 90S17 21 10-45l28-5c4 36 97 45 98 0-10-56-113-15-118-90-4-57 82-63 122-42 12 7 21 19 24 35" id="ay"/><path d="M100-194c63 0 86 42 84 106H49c0 40 14 67 53 68 26 1 43-12 49-29l28 8c-11 28-37 45-77 45C44 4 14-33 15-96c1-61 26-98 85-98zm52 81c6-60-76-77-97-28-3 7-6 17-6 28h103" id="az"/><path d="M114-163C36-179 61-72 57 0H25l-1-190h30c1 12-1 29 2 39 6-27 23-49 58-41v29" id="aA"/><path d="M141-36C126-15 110 5 73 4 37 3 15-17 15-53c-1-64 63-63 125-63 3-35-9-54-41-54-24 1-41 7-42 31l-33-3c5-37 33-52 76-52 45 0 72 20 72 64v82c-1 20 7 32 28 27v20c-31 9-61-2-59-35zM48-53c0 20 12 33 32 33 41-3 63-29 60-74-43 2-92-5-92 41" id="aB"/><path d="M210-169c-67 3-38 105-44 169h-31v-121c0-29-5-50-35-48C34-165 62-65 56 0H25l-1-190h30c1 10-1 24 2 32 10-44 99-50 107 0 11-21 27-35 58-36 85-2 47 119 55 194h-31v-121c0-29-5-49-35-48" id="aC"/><g id="i"><use transform="matrix(0.06172839506172839,0,0,0.06172839506172839,0,0)" xlink:href="#ax"/><use transform="matrix(0.06172839506172839,0,0,0.06172839506172839,12.345679012345679,0)" xlink:href="#ay"/><use transform="matrix(0.06172839506172839,0,0,0.06172839506172839,23.45679012345679,0)" xlink:href="#az"/><use transform="matrix(0.06172839506172839,0,0,0.06172839506172839,35.80246913580247,0)" xlink:href="#aA"/><use transform="matrix(0.06172839506172839,0,0,0.06172839506172839,43.148148148148145,0)" xlink:href="#aq"/><use transform="matrix(0.06172839506172839,0,0,0.06172839506172839,55.49382716049382,0)" xlink:href="#aB"/><use transform="matrix(0.06172839506172839,0,0,0.06172839506172839,67.8395061728395,0)" xlink:href="#aC"/><use transform="matrix(0.06172839506172839,0,0,0.06172839506172839,86.29629629629629,0)" xlink:href="#az"/></g><path d="M30 0v-248h187v28H63v79h144v27H63v87h162V0H30" id="aD"/><path d="M24 0v-261h32V0H24" id="aE"/><g id="j"><use transform="matrix(0.06172839506172839,0,0,0.06172839506172839,0,0)" xlink:href="#aD"/><use transform="matrix(0.06172839506172839,0,0,0.06172839506172839,14.814814814814813,0)" xlink:href="#aC"/><use transform="matrix(0.06172839506172839,0,0,0.06172839506172839,33.2716049382716,0)" xlink:href="#aB"/><use transform="matrix(0.06172839506172839,0,0,0.06172839506172839,45.61728395061728,0)" xlink:href="#ap"/><use transform="matrix(0.06172839506172839,0,0,0.06172839506172839,50.49382716049382,0)" xlink:href="#aE"/></g><path d="M206 0h-36l-40-164L89 0H53L-1-190h32L70-26l43-164h34l41 164 42-164h31" id="aF"/><path d="M85-194c31 0 48 13 60 33l-1-100h32l1 261h-30c-2-10 0-23-3-31C134-8 116 4 85 4 32 4 16-35 15-94c0-66 23-100 70-100zm9 24c-40 0-46 34-46 75 0 40 6 74 45 74 42 0 51-32 51-76 0-42-9-74-50-73" id="aG"/><g id="k"><use transform="matrix(0.06172839506172839,0,0,0.06172839506172839,0,0)" xlink:href="#ar"/><use transform="matrix(0.06172839506172839,0,0,0.06172839506172839,14.814814814814813,0)" xlink:href="#aB"/><use transform="matrix(0.06172839506172839,0,0,0.06172839506172839,27.160493827160494,0)" xlink:href="#ay"/><use transform="matrix(0.06172839506172839,0,0,0.06172839506172839,38.27160493827161,0)" xlink:href="#ay"/><use transform="matrix(0.06172839506172839,0,0,0.06172839506172839,49.38271604938272,0)" xlink:href="#aF"/><use transform="matrix(0.06172839506172839,0,0,0.06172839506172839,65.37037037037038,0)" xlink:href="#an"/><use transform="matrix(0.06172839506172839,0,0,0.06172839506172839,77.71604938271606,0)" xlink:href="#aA"/><use transform="matrix(0.06172839506172839,0,0,0.06172839506172839,85.06172839506175,0)" xlink:href="#aG"/></g><g id="l"><use transform="matrix(0.06172839506172839,0,0,0.06172839506172839,0,0)" xlink:href="#av"/><use transform="matrix(0.06172839506172839,0,0,0.06172839506172839,15.987654320987653,0)" xlink:href="#ay"/><use transform="matrix(0.06172839506172839,0,0,0.06172839506172839,27.098765432098766,0)" xlink:href="#az"/><use transform="matrix(0.06172839506172839,0,0,0.06172839506172839,39.44444444444444,0)" xlink:href="#aA"/></g><g id="m"><use transform="matrix(0.06172839506172839,0,0,0.06172839506172839,0,0)" xlink:href="#ar"/><use transform="matrix(0.06172839506172839,0,0,0.06172839506172839,14.814814814814813,0)" xlink:href="#az"/><use transform="matrix(0.06172839506172839,0,0,0.06172839506172839,27.160493827160494,0)" xlink:href="#aA"/><use transform="matrix(0.06172839506172839,0,0,0.06172839506172839,34.50617283950617,0)" xlink:href="#ay"/><use transform="matrix(0.06172839506172839,0,0,0.06172839506172839,45.61728395061728,0)" xlink:href="#an"/><use transform="matrix(0.06172839506172839,0,0,0.06172839506172839,57.962962962962955,0)" xlink:href="#aq"/><use transform="matrix(0.06172839506172839,0,0,0.06172839506172839,70.30864197530863,0)" xlink:href="#aB"/><use transform="matrix(0.06172839506172839,0,0,0.06172839506172839,82.65432098765432,0)" xlink:href="#aE"/></g><path d="M101-234c-31-9-42 10-38 44h38v23H63V0H32v-167H5v-23h27c-7-52 17-82 69-68v24" id="aH"/><path d="M59-47c-2 24 18 29 38 22v24C64 9 27 4 27-40v-127H5v-23h24l9-43h21v43h35v23H59v120" id="aI"/><g id="n"><use transform="matrix(0.06172839506172839,0,0,0.06172839506172839,0,0)" xlink:href="#aw"/><use transform="matrix(0.06172839506172839,0,0,0.06172839506172839,6.172839506172839,0)" xlink:href="#aq"/><use transform="matrix(0.06172839506172839,0,0,0.06172839506172839,18.51851851851852,0)" xlink:href="#aH"/><use transform="matrix(0.06172839506172839,0,0,0.06172839506172839,24.691358024691358,0)" xlink:href="#an"/><use transform="matrix(0.06172839506172839,0,0,0.06172839506172839,37.03703703703704,0)" xlink:href="#aA"/><use transform="matrix(0.06172839506172839,0,0,0.06172839506172839,44.382716049382715,0)" xlink:href="#aC"/><use transform="matrix(0.06172839506172839,0,0,0.06172839506172839,62.839506172839506,0)" xlink:href="#aB"/><use transform="matrix(0.06172839506172839,0,0,0.06172839506172839,75.18518518518519,0)" xlink:href="#aI"/><use transform="matrix(0.06172839506172839,0,0,0.06172839506172839,81.35802469135803,0)" xlink:href="#ap"/><use transform="matrix(0.06172839506172839,0,0,0.06172839506172839,86.23456790123457,0)" xlink:href="#an"/><use transform="matrix(0.06172839506172839,0,0,0.06172839506172839,98.58024691358025,0)" xlink:href="#aq"/></g><path d="M185-189c-5-48-123-54-124 2 14 75 158 14 163 119 3 78-121 87-175 55-17-10-28-26-33-46l33-7c5 56 141 63 141-1 0-78-155-14-162-118-5-82 145-84 179-34 5 7 8 16 11 25" id="aJ"/><path d="M190 0L58-211 59 0H30v-248h39L202-35l-2-213h31V0h-41" id="aK"/><g id="o"><use transform="matrix(0.06172839506172839,0,0,0.06172839506172839,0,0)" xlink:href="#aJ"/><use transform="matrix(0.06172839506172839,0,0,0.06172839506172839,14.814814814814813,0)" xlink:href="#aJ"/><use transform="matrix(0.06172839506172839,0,0,0.06172839506172839,29.629629629629626,0)" xlink:href="#aK"/></g><g id="p"><use transform="matrix(0.06172839506172839,0,0,0.06172839506172839,0,0)" xlink:href="#au"/><use transform="matrix(0.06172839506172839,0,0,0.06172839506172839,13.518518518518517,0)" xlink:href="#ap"/><use transform="matrix(0.06172839506172839,0,0,0.06172839506172839,18.39506172839506,0)" xlink:href="#aA"/><use transform="matrix(0.06172839506172839,0,0,0.06172839506172839,25.74074074074074,0)" xlink:href="#ay"/><use transform="matrix(0.06172839506172839,0,0,0.06172839506172839,36.85185185185185,0)" xlink:href="#aI"/><use transform="matrix(0.06172839506172839,0,0,0.06172839506172839,43.02469135802469,0)" xlink:href="#aK"/><use transform="matrix(0.06172839506172839,0,0,0.06172839506172839,59.01234567901234,0)" xlink:href="#aB"/><use transform="matrix(0.06172839506172839,0,0,0.06172839506172839,71.35802469135803,0)" xlink:href="#aC"/><use transform="matrix(0.06172839506172839,0,0,0.06172839506172839,89.81481481481481,0)" xlink:href="#az"/></g><g id="q"><use transform="matrix(0.06172839506172839,0,0,0.06172839506172839,0,0)" xlink:href="#am"/><use transform="matrix(0.06172839506172839,0,0,0.06172839506172839,12.345679012345679,0)" xlink:href="#aB"/><use transform="matrix(0.06172839506172839,0,0,0.06172839506172839,24.691358024691358,0)" xlink:href="#ay"/><use transform="matrix(0.06172839506172839,0,0,0.06172839506172839,35.80246913580247,0)" xlink:href="#aI"/><use transform="matrix(0.06172839506172839,0,0,0.06172839506172839,41.97530864197531,0)" xlink:href="#aK"/><use transform="matrix(0.06172839506172839,0,0,0.06172839506172839,57.96296296296296,0)" xlink:href="#aB"/><use transform="matrix(0.06172839506172839,0,0,0.06172839506172839,70.30864197530865,0)" xlink:href="#aC"/><use transform="matrix(0.06172839506172839,0,0,0.06172839506172839,88.76543209876543,0)" xlink:href="#az"/></g><path d="M106-169C34-169 62-67 57 0H25v-261h32l-1 103c12-21 28-36 61-36 89 0 53 116 60 194h-32v-121c2-32-8-49-39-48" id="aL"/><g id="r"><use transform="matrix(0.06172839506172839,0,0,0.06172839506172839,0,0)" xlink:href="#ar"/><use transform="matrix(0.06172839506172839,0,0,0.06172839506172839,14.814814814814813,0)" xlink:href="#aL"/><use transform="matrix(0.06172839506172839,0,0,0.06172839506172839,27.160493827160494,0)" xlink:href="#an"/><use transform="matrix(0.06172839506172839,0,0,0.06172839506172839,39.50617283950617,0)" xlink:href="#aq"/><use transform="matrix(0.06172839506172839,0,0,0.06172839506172839,51.85185185185185,0)" xlink:href="#az"/><use transform="matrix(0.06172839506172839,0,0,0.06172839506172839,64.19753086419753,0)" xlink:href="#aK"/><use transform="matrix(0.06172839506172839,0,0,0.06172839506172839,80.18518518518519,0)" xlink:href="#ax"/><use transform="matrix(0.06172839506172839,0,0,0.06172839506172839,92.53086419753087,0)" xlink:href="#aC"/></g><path d="M143 4C61 4 22-44 18-125c-5-107 100-154 193-111 17 8 29 25 37 43l-32 9c-13-25-37-40-76-40-61 0-88 39-88 99 0 61 29 100 91 101 35 0 62-11 79-27v-45h-74v-28h105v86C228-13 192 4 143 4" id="aM"/><g id="s"><use transform="matrix(0.06172839506172839,0,0,0.06172839506172839,0,0)" xlink:href="#aM"/><use transform="matrix(0.06172839506172839,0,0,0.06172839506172839,17.28395061728395,0)" xlink:href="#az"/><use transform="matrix(0.06172839506172839,0,0,0.06172839506172839,29.629629629629626,0)" xlink:href="#aq"/><use transform="matrix(0.06172839506172839,0,0,0.06172839506172839,41.9753086419753,0)" xlink:href="#aG"/><use transform="matrix(0.06172839506172839,0,0,0.06172839506172839,54.32098765432098,0)" xlink:href="#az"/><use transform="matrix(0.06172839506172839,0,0,0.06172839506172839,66.66666666666666,0)" xlink:href="#aA"/></g><path d="M197 0v-115H63V0H30v-248h33v105h134v-105h34V0h-34" id="aN"/><path d="M96-169c-40 0-48 33-48 73s9 75 48 75c24 0 41-14 43-38l32 2c-6 37-31 61-74 61-59 0-76-41-82-99-10-93 101-131 147-64 4 7 5 14 7 22l-32 3c-4-21-16-35-41-35" id="aO"/><g id="t"><use transform="matrix(0.06172839506172839,0,0,0.06172839506172839,0,0)" xlink:href="#aN"/><use transform="matrix(0.06172839506172839,0,0,0.06172839506172839,15.987654320987653,0)" xlink:href="#an"/><use transform="matrix(0.06172839506172839,0,0,0.06172839506172839,28.333333333333332,0)" xlink:href="#aq"/><use transform="matrix(0.06172839506172839,0,0,0.06172839506172839,40.67901234567901,0)" xlink:href="#an"/><use transform="matrix(0.06172839506172839,0,0,0.06172839506172839,53.02469135802469,0)" xlink:href="#aA"/><use transform="matrix(0.06172839506172839,0,0,0.06172839506172839,60.37037037037037,0)" xlink:href="#ap"/><use transform="matrix(0.06172839506172839,0,0,0.06172839506172839,65.24691358024691,0)" xlink:href="#aH"/><use transform="matrix(0.06172839506172839,0,0,0.06172839506172839,71.41975308641975,0)" xlink:href="#ap"/><use transform="matrix(0.06172839506172839,0,0,0.06172839506172839,76.29629629629629,0)" xlink:href="#aO"/></g><path d="M160-131c35 5 61 23 61 61C221 17 115-2 30 0v-248c76 3 177-17 177 60 0 33-19 50-47 57zm-97-11c50-1 110 9 110-42 0-47-63-36-110-37v79zm0 115c55-2 124 14 124-45 0-56-70-42-124-44v89" id="aP"/><g id="u"><use transform="matrix(0.06172839506172839,0,0,0.06172839506172839,0,0)" xlink:href="#aP"/><use transform="matrix(0.06172839506172839,0,0,0.06172839506172839,14.814814814814813,0)" xlink:href="#ap"/><use transform="matrix(0.06172839506172839,0,0,0.06172839506172839,19.691358024691354,0)" xlink:href="#aA"/><use transform="matrix(0.06172839506172839,0,0,0.06172839506172839,27.03703703703703,0)" xlink:href="#aI"/><use transform="matrix(0.06172839506172839,0,0,0.06172839506172839,33.20987654320987,0)" xlink:href="#aL"/><use transform="matrix(0.06172839506172839,0,0,0.06172839506172839,45.55555555555555,0)" xlink:href="#al"/><use transform="matrix(0.06172839506172839,0,0,0.06172839506172839,61.5432098765432,0)" xlink:href="#aB"/><use transform="matrix(0.06172839506172839,0,0,0.06172839506172839,73.88888888888889,0)" xlink:href="#aI"/><use transform="matrix(0.06172839506172839,0,0,0.06172839506172839,80.06172839506172,0)" xlink:href="#az"/></g><path d="M205 0l-28-72H64L36 0H1l101-248h38L239 0h-34zm-38-99l-47-123c-12 45-31 82-46 123h93" id="aQ"/><g id="v"><use transform="matrix(0.06172839506172839,0,0,0.06172839506172839,0,0)" xlink:href="#aQ"/><use transform="matrix(0.06172839506172839,0,0,0.06172839506172839,14.814814814814813,0)" xlink:href="#aG"/><use transform="matrix(0.06172839506172839,0,0,0.06172839506172839,27.160493827160494,0)" xlink:href="#aG"/><use transform="matrix(0.06172839506172839,0,0,0.06172839506172839,39.50617283950617,0)" xlink:href="#aA"/><use transform="matrix(0.06172839506172839,0,0,0.06172839506172839,46.85185185185185,0)" xlink:href="#aN"/><use transform="matrix(0.06172839506172839,0,0,0.06172839506172839,62.8395061728395,0)" xlink:href="#an"/><use transform="matrix(0.06172839506172839,0,0,0.06172839506172839,75.18518518518518,0)" xlink:href="#ax"/><use transform="matrix(0.06172839506172839,0,0,0.06172839506172839,87.53086419753086,0)" xlink:href="#ay"/><use transform="matrix(0.06172839506172839,0,0,0.06172839506172839,98.64197530864197,0)" xlink:href="#az"/><use transform="matrix(0.06172839506172839,0,0,0.06172839506172839,110.98765432098766,0)" xlink:href="#aK"/><use transform="matrix(0.06172839506172839,0,0,0.06172839506172839,126.97530864197533,0)" xlink:href="#ax"/><use transform="matrix(0.06172839506172839,0,0,0.06172839506172839,139.320987654321,0)" xlink:href="#aC"/></g><g id="w"><use transform="matrix(0.06172839506172839,0,0,0.06172839506172839,0,0)" xlink:href="#aQ"/><use transform="matrix(0.06172839506172839,0,0,0.06172839506172839,14.814814814814813,0)" xlink:href="#aG"/><use transform="matrix(0.06172839506172839,0,0,0.06172839506172839,27.160493827160494,0)" xlink:href="#aG"/><use transform="matrix(0.06172839506172839,0,0,0.06172839506172839,39.50617283950617,0)" xlink:href="#aA"/><use transform="matrix(0.06172839506172839,0,0,0.06172839506172839,46.85185185185185,0)" xlink:href="#aJ"/><use transform="matrix(0.06172839506172839,0,0,0.06172839506172839,61.66666666666666,0)" xlink:href="#aI"/><use transform="matrix(0.06172839506172839,0,0,0.06172839506172839,67.83950617283949,0)" xlink:href="#aA"/><use transform="matrix(0.06172839506172839,0,0,0.06172839506172839,75.18518518518518,0)" xlink:href="#az"/><use transform="matrix(0.06172839506172839,0,0,0.06172839506172839,87.53086419753086,0)" xlink:href="#az"/><use transform="matrix(0.06172839506172839,0,0,0.06172839506172839,99.87654320987654,0)" xlink:href="#aI"/></g><path d="M212-179c-10-28-35-45-73-45-59 0-87 40-87 99 0 60 29 101 89 101 43 0 62-24 78-52l27 14C228-24 195 4 139 4 59 4 22-46 18-125c-6-104 99-153 187-111 19 9 31 26 39 46" id="aR"/><path d="M179-190L93 31C79 59 56 82 12 73V49c39 6 53-20 64-50L1-190h34L92-34l54-156h33" id="aS"/><g id="x"><use transform="matrix(0.06172839506172839,0,0,0.06172839506172839,0,0)" xlink:href="#aQ"/><use transform="matrix(0.06172839506172839,0,0,0.06172839506172839,14.814814814814813,0)" xlink:href="#aG"/><use transform="matrix(0.06172839506172839,0,0,0.06172839506172839,27.160493827160494,0)" xlink:href="#aG"/><use transform="matrix(0.06172839506172839,0,0,0.06172839506172839,39.50617283950617,0)" xlink:href="#aA"/><use transform="matrix(0.06172839506172839,0,0,0.06172839506172839,46.85185185185185,0)" xlink:href="#aR"/><use transform="matrix(0.06172839506172839,0,0,0.06172839506172839,62.8395061728395,0)" xlink:href="#ap"/><use transform="matrix(0.06172839506172839,0,0,0.06172839506172839,67.71604938271604,0)" xlink:href="#aI"/><use transform="matrix(0.06172839506172839,0,0,0.06172839506172839,73.88888888888887,0)" xlink:href="#aS"/></g><g id="y"><use transform="matrix(0.06172839506172839,0,0,0.06172839506172839,0,0)" xlink:href="#aQ"/><use transform="matrix(0.06172839506172839,0,0,0.06172839506172839,14.814814814814813,0)" xlink:href="#aG"/><use transform="matrix(0.06172839506172839,0,0,0.06172839506172839,27.160493827160494,0)" xlink:href="#aG"/><use transform="matrix(0.06172839506172839,0,0,0.06172839506172839,39.50617283950617,0)" xlink:href="#aA"/><use transform="matrix(0.06172839506172839,0,0,0.06172839506172839,46.85185185185185,0)" xlink:href="#aJ"/><use transform="matrix(0.06172839506172839,0,0,0.06172839506172839,61.66666666666666,0)" xlink:href="#aI"/><use transform="matrix(0.06172839506172839,0,0,0.06172839506172839,67.83950617283949,0)" xlink:href="#aB"/><use transform="matrix(0.06172839506172839,0,0,0.06172839506172839,80.18518518518518,0)" xlink:href="#aI"/><use transform="matrix(0.06172839506172839,0,0,0.06172839506172839,86.35802469135801,0)" xlink:href="#az"/></g><g id="z"><use transform="matrix(0.06172839506172839,0,0,0.06172839506172839,0,0)" xlink:href="#aQ"/><use transform="matrix(0.06172839506172839,0,0,0.06172839506172839,14.814814814814813,0)" xlink:href="#aG"/><use transform="matrix(0.06172839506172839,0,0,0.06172839506172839,27.160493827160494,0)" xlink:href="#aG"/><use transform="matrix(0.06172839506172839,0,0,0.06172839506172839,39.50617283950617,0)" xlink:href="#aA"/><use transform="matrix(0.06172839506172839,0,0,0.06172839506172839,46.85185185185185,0)" xlink:href="#aR"/><use transform="matrix(0.06172839506172839,0,0,0.06172839506172839,62.8395061728395,0)" xlink:href="#an"/><use transform="matrix(0.06172839506172839,0,0,0.06172839506172839,75.18518518518518,0)" xlink:href="#ax"/><use transform="matrix(0.06172839506172839,0,0,0.06172839506172839,87.53086419753086,0)" xlink:href="#aq"/><use transform="matrix(0.06172839506172839,0,0,0.06172839506172839,99.87654320987654,0)" xlink:href="#aI"/><use transform="matrix(0.06172839506172839,0,0,0.06172839506172839,106.04938271604938,0)" xlink:href="#aA"/><use transform="matrix(0.06172839506172839,0,0,0.06172839506172839,113.39506172839506,0)" xlink:href="#aS"/></g><path d="M209 0H11v-25l151-195H24v-28h176v25L50-27h159V0" id="aT"/><path d="M115-194c55 1 70 41 70 98S169 2 115 4C84 4 66-9 55-30l1 105H24l-1-265h31l2 30c10-21 28-34 59-34zm-8 174c40 0 45-34 45-75s-6-73-45-74c-42 0-51 32-51 76 0 43 10 73 51 73" id="aU"/><g id="A"><use transform="matrix(0.06172839506172839,0,0,0.06172839506172839,0,0)" xlink:href="#aT"/><use transform="matrix(0.06172839506172839,0,0,0.06172839506172839,13.518518518518517,0)" xlink:href="#ap"/><use transform="matrix(0.06172839506172839,0,0,0.06172839506172839,18.39506172839506,0)" xlink:href="#aU"/><use transform="matrix(0.06172839506172839,0,0,0.06172839506172839,30.74074074074074,0)" xlink:href="#aR"/><use transform="matrix(0.06172839506172839,0,0,0.06172839506172839,46.72839506172839,0)" xlink:href="#an"/><use transform="matrix(0.06172839506172839,0,0,0.06172839506172839,59.07407407407407,0)" xlink:href="#aG"/><use transform="matrix(0.06172839506172839,0,0,0.06172839506172839,71.41975308641975,0)" xlink:href="#az"/></g><path d="M-5 72V49h209v23H-5" id="aV"/><g id="B"><use transform="matrix(0.06172839506172839,0,0,0.06172839506172839,0,0)" xlink:href="#av"/><use transform="matrix(0.06172839506172839,0,0,0.06172839506172839,15.987654320987653,0)" xlink:href="#ay"/><use transform="matrix(0.06172839506172839,0,0,0.06172839506172839,27.098765432098766,0)" xlink:href="#az"/><use transform="matrix(0.06172839506172839,0,0,0.06172839506172839,39.44444444444444,0)" xlink:href="#aA"/><use transform="matrix(0.06172839506172839,0,0,0.06172839506172839,46.79012345679012,0)" xlink:href="#aV"/><use transform="matrix(0.06172839506172839,0,0,0.06172839506172839,59.1358024691358,0)" xlink:href="#au"/><use transform="matrix(0.06172839506172839,0,0,0.06172839506172839,72.65432098765432,0)" xlink:href="#aB"/><use transform="matrix(0.06172839506172839,0,0,0.06172839506172839,85,0)" xlink:href="#aO"/><use transform="matrix(0.06172839506172839,0,0,0.06172839506172839,96.11111111111111,0)" xlink:href="#ax"/><use transform="matrix(0.06172839506172839,0,0,0.06172839506172839,108.4567901234568,0)" xlink:href="#aE"/><use transform="matrix(0.06172839506172839,0,0,0.06172839506172839,113.33333333333334,0)" xlink:href="#aI"/><use transform="matrix(0.06172839506172839,0,0,0.06172839506172839,119.50617283950618,0)" xlink:href="#aS"/></g><path d="M127-220V0H93v-220H8v-28h204v28h-85" id="aW"/><g id="C"><use transform="matrix(0.06172839506172839,0,0,0.06172839506172839,0,0)" xlink:href="#av"/><use transform="matrix(0.06172839506172839,0,0,0.06172839506172839,15.987654320987653,0)" xlink:href="#ay"/><use transform="matrix(0.06172839506172839,0,0,0.06172839506172839,27.098765432098766,0)" xlink:href="#az"/><use transform="matrix(0.06172839506172839,0,0,0.06172839506172839,39.44444444444444,0)" xlink:href="#aA"/><use transform="matrix(0.06172839506172839,0,0,0.06172839506172839,46.79012345679012,0)" xlink:href="#aW"/><use transform="matrix(0.06172839506172839,0,0,0.06172839506172839,59.07407407407407,0)" xlink:href="#aS"/><use transform="matrix(0.06172839506172839,0,0,0.06172839506172839,70.18518518518518,0)" xlink:href="#aU"/><use transform="matrix(0.06172839506172839,0,0,0.06172839506172839,82.53086419753086,0)" xlink:href="#az"/></g><path d="M233-177c-1 41-23 64-60 70L243 0h-38l-65-103H63V0H30v-248c88 3 205-21 203 71zM63-129c60-2 137 13 137-47 0-61-80-42-137-45v92" id="aX"/><path d="M143 0L79-87 56-68V0H24v-261h32v163l83-92h37l-77 82L181 0h-38" id="aY"/><g id="D"><use transform="matrix(0.06172839506172839,0,0,0.06172839506172839,0,0)" xlink:href="#aX"/><use transform="matrix(0.06172839506172839,0,0,0.06172839506172839,15.987654320987653,0)" xlink:href="#aB"/><use transform="matrix(0.06172839506172839,0,0,0.06172839506172839,28.333333333333332,0)" xlink:href="#aq"/><use transform="matrix(0.06172839506172839,0,0,0.06172839506172839,40.67901234567901,0)" xlink:href="#aY"/></g><g id="E"><use transform="matrix(0.06172839506172839,0,0,0.06172839506172839,0,0)" xlink:href="#aJ"/><use transform="matrix(0.06172839506172839,0,0,0.06172839506172839,14.814814814814813,0)" xlink:href="#aU"/><use transform="matrix(0.06172839506172839,0,0,0.06172839506172839,27.160493827160494,0)" xlink:href="#az"/><use transform="matrix(0.06172839506172839,0,0,0.06172839506172839,39.50617283950617,0)" xlink:href="#aO"/><use transform="matrix(0.06172839506172839,0,0,0.06172839506172839,50.61728395061728,0)" xlink:href="#ap"/><use transform="matrix(0.06172839506172839,0,0,0.06172839506172839,55.49382716049382,0)" xlink:href="#aB"/><use transform="matrix(0.06172839506172839,0,0,0.06172839506172839,67.8395061728395,0)" xlink:href="#aE"/><use transform="matrix(0.06172839506172839,0,0,0.06172839506172839,72.71604938271605,0)" xlink:href="#aI"/><use transform="matrix(0.06172839506172839,0,0,0.06172839506172839,78.88888888888889,0)" xlink:href="#aS"/></g><g id="F"><use transform="matrix(0.06172839506172839,0,0,0.06172839506172839,0,0)" xlink:href="#ar"/><use transform="matrix(0.06172839506172839,0,0,0.06172839506172839,14.814814814814813,0)" xlink:href="#aB"/><use transform="matrix(0.06172839506172839,0,0,0.06172839506172839,27.160493827160494,0)" xlink:href="#aA"/><use transform="matrix(0.06172839506172839,0,0,0.06172839506172839,34.50617283950617,0)" xlink:href="#aI"/></g><g id="G"><use transform="matrix(0.06172839506172839,0,0,0.06172839506172839,0,0)" xlink:href="#aW"/><use transform="matrix(0.06172839506172839,0,0,0.06172839506172839,12.716049382716047,0)" xlink:href="#ap"/><use transform="matrix(0.06172839506172839,0,0,0.06172839506172839,17.592592592592588,0)" xlink:href="#aC"/><use transform="matrix(0.06172839506172839,0,0,0.06172839506172839,36.04938271604938,0)" xlink:href="#az"/></g><g id="H"><use transform="matrix(0.06172839506172839,0,0,0.06172839506172839,0,0)" xlink:href="#au"/><use transform="matrix(0.06172839506172839,0,0,0.06172839506172839,13.518518518518517,0)" xlink:href="#aB"/><use transform="matrix(0.06172839506172839,0,0,0.06172839506172839,25.864197530864196,0)" xlink:href="#aO"/><use transform="matrix(0.06172839506172839,0,0,0.06172839506172839,36.9753086419753,0)" xlink:href="#ax"/><use transform="matrix(0.06172839506172839,0,0,0.06172839506172839,49.32098765432098,0)" xlink:href="#aE"/><use transform="matrix(0.06172839506172839,0,0,0.06172839506172839,54.197530864197525,0)" xlink:href="#aI"/><use transform="matrix(0.06172839506172839,0,0,0.06172839506172839,60.37037037037037,0)" xlink:href="#aS"/></g><g id="I"><use transform="matrix(0.06172839506172839,0,0,0.06172839506172839,0,0)" xlink:href="#aW"/><use transform="matrix(0.06172839506172839,0,0,0.06172839506172839,12.716049382716047,0)" xlink:href="#ap"/><use transform="matrix(0.06172839506172839,0,0,0.06172839506172839,17.592592592592588,0)" xlink:href="#aC"/><use transform="matrix(0.06172839506172839,0,0,0.06172839506172839,36.04938271604938,0)" xlink:href="#az"/></g><g id="J"><use transform="matrix(0.06172839506172839,0,0,0.06172839506172839,0,0)" xlink:href="#au"/><use transform="matrix(0.06172839506172839,0,0,0.06172839506172839,13.518518518518517,0)" xlink:href="#ax"/><use transform="matrix(0.06172839506172839,0,0,0.06172839506172839,25.864197530864196,0)" xlink:href="#aE"/><use transform="matrix(0.06172839506172839,0,0,0.06172839506172839,30.74074074074074,0)" xlink:href="#aE"/></g><g id="K"><use transform="matrix(0.06172839506172839,0,0,0.06172839506172839,0,0)" xlink:href="#aR"/><use transform="matrix(0.06172839506172839,0,0,0.06172839506172839,15.987654320987653,0)" xlink:href="#an"/><use transform="matrix(0.06172839506172839,0,0,0.06172839506172839,28.333333333333332,0)" xlink:href="#ax"/><use transform="matrix(0.06172839506172839,0,0,0.06172839506172839,40.67901234567901,0)" xlink:href="#aA"/><use transform="matrix(0.06172839506172839,0,0,0.06172839506172839,48.02469135802469,0)" xlink:href="#ay"/><use transform="matrix(0.06172839506172839,0,0,0.06172839506172839,59.1358024691358,0)" xlink:href="#az"/></g><g id="L"><use transform="matrix(0.06172839506172839,0,0,0.06172839506172839,0,0)" xlink:href="#aJ"/><use transform="matrix(0.06172839506172839,0,0,0.06172839506172839,14.814814814814813,0)" xlink:href="#az"/><use transform="matrix(0.06172839506172839,0,0,0.06172839506172839,27.160493827160494,0)" xlink:href="#aO"/><use transform="matrix(0.06172839506172839,0,0,0.06172839506172839,38.27160493827161,0)" xlink:href="#aI"/><use transform="matrix(0.06172839506172839,0,0,0.06172839506172839,44.44444444444445,0)" xlink:href="#ap"/><use transform="matrix(0.06172839506172839,0,0,0.06172839506172839,49.320987654320994,0)" xlink:href="#an"/><use transform="matrix(0.06172839506172839,0,0,0.06172839506172839,61.66666666666667,0)" xlink:href="#aq"/></g><g id="M"><use transform="matrix(0.06172839506172839,0,0,0.06172839506172839,0,0)" xlink:href="#aR"/><use transform="matrix(0.06172839506172839,0,0,0.06172839506172839,15.987654320987653,0)" xlink:href="#aX"/><use transform="matrix(0.06172839506172839,0,0,0.06172839506172839,31.975308641975307,0)" xlink:href="#aK"/></g><g id="N"><use transform="matrix(0.06172839506172839,0,0,0.06172839506172839,0,0)" xlink:href="#aR"/><use transform="matrix(0.06172839506172839,0,0,0.06172839506172839,15.987654320987653,0)" xlink:href="#an"/><use transform="matrix(0.06172839506172839,0,0,0.06172839506172839,28.333333333333332,0)" xlink:href="#ax"/><use transform="matrix(0.06172839506172839,0,0,0.06172839506172839,40.67901234567901,0)" xlink:href="#aA"/><use transform="matrix(0.06172839506172839,0,0,0.06172839506172839,48.02469135802469,0)" xlink:href="#ay"/><use transform="matrix(0.06172839506172839,0,0,0.06172839506172839,59.1358024691358,0)" xlink:href="#az"/><use transform="matrix(0.06172839506172839,0,0,0.06172839506172839,71.48148148148148,0)" xlink:href="#aw"/><use transform="matrix(0.06172839506172839,0,0,0.06172839506172839,77.65432098765432,0)" xlink:href="#al"/></g><g id="O"><use transform="matrix(0.06172839506172839,0,0,0.06172839506172839,0,0)" xlink:href="#aJ"/><use transform="matrix(0.06172839506172839,0,0,0.06172839506172839,14.814814814814813,0)" xlink:href="#az"/><use transform="matrix(0.06172839506172839,0,0,0.06172839506172839,27.160493827160494,0)" xlink:href="#aO"/><use transform="matrix(0.06172839506172839,0,0,0.06172839506172839,38.27160493827161,0)" xlink:href="#aI"/><use transform="matrix(0.06172839506172839,0,0,0.06172839506172839,44.44444444444445,0)" xlink:href="#ap"/><use transform="matrix(0.06172839506172839,0,0,0.06172839506172839,49.320987654320994,0)" xlink:href="#an"/><use transform="matrix(0.06172839506172839,0,0,0.06172839506172839,61.66666666666667,0)" xlink:href="#aq"/><use transform="matrix(0.06172839506172839,0,0,0.06172839506172839,74.01234567901236,0)" xlink:href="#aw"/><use transform="matrix(0.06172839506172839,0,0,0.06172839506172839,80.18518518518519,0)" xlink:href="#al"/></g><g id="P"><use transform="matrix(0.06172839506172839,0,0,0.06172839506172839,0,0)" xlink:href="#au"/><use transform="matrix(0.06172839506172839,0,0,0.06172839506172839,13.518518518518517,0)" xlink:href="#as"/></g><g id="Q"><use transform="matrix(0.06172839506172839,0,0,0.06172839506172839,0,0)" xlink:href="#au"/><use transform="matrix(0.06172839506172839,0,0,0.06172839506172839,13.518518518518517,0)" xlink:href="#aB"/><use transform="matrix(0.06172839506172839,0,0,0.06172839506172839,25.864197530864196,0)" xlink:href="#aO"/><use transform="matrix(0.06172839506172839,0,0,0.06172839506172839,36.9753086419753,0)" xlink:href="#ax"/><use transform="matrix(0.06172839506172839,0,0,0.06172839506172839,49.32098765432098,0)" xlink:href="#aE"/><use transform="matrix(0.06172839506172839,0,0,0.06172839506172839,54.197530864197525,0)" xlink:href="#aI"/><use transform="matrix(0.06172839506172839,0,0,0.06172839506172839,60.37037037037037,0)" xlink:href="#aS"/><use transform="matrix(0.06172839506172839,0,0,0.06172839506172839,71.48148148148148,0)" xlink:href="#aw"/><use transform="matrix(0.06172839506172839,0,0,0.06172839506172839,77.65432098765432,0)" xlink:href="#al"/></g><g id="R"><use transform="matrix(0.06172839506172839,0,0,0.06172839506172839,0,0)" xlink:href="#aX"/><use transform="matrix(0.06172839506172839,0,0,0.06172839506172839,15.987654320987653,0)" xlink:href="#an"/><use transform="matrix(0.06172839506172839,0,0,0.06172839506172839,28.333333333333332,0)" xlink:href="#an"/><use transform="matrix(0.06172839506172839,0,0,0.06172839506172839,40.67901234567901,0)" xlink:href="#aC"/><use transform="matrix(0.06172839506172839,0,0,0.06172839506172839,59.1358024691358,0)" xlink:href="#aw"/><use transform="matrix(0.06172839506172839,0,0,0.06172839506172839,65.30864197530863,0)" xlink:href="#al"/></g><g id="S"><use transform="matrix(0.06172839506172839,0,0,0.06172839506172839,0,0)" xlink:href="#aJ"/><use transform="matrix(0.06172839506172839,0,0,0.06172839506172839,14.814814814814813,0)" xlink:href="#az"/><use transform="matrix(0.06172839506172839,0,0,0.06172839506172839,27.160493827160494,0)" xlink:href="#aC"/><use transform="matrix(0.06172839506172839,0,0,0.06172839506172839,45.61728395061728,0)" xlink:href="#az"/><use transform="matrix(0.06172839506172839,0,0,0.06172839506172839,57.962962962962955,0)" xlink:href="#ay"/><use transform="matrix(0.06172839506172839,0,0,0.06172839506172839,69.07407407407406,0)" xlink:href="#aI"/><use transform="matrix(0.06172839506172839,0,0,0.06172839506172839,75.2469135802469,0)" xlink:href="#az"/><use transform="matrix(0.06172839506172839,0,0,0.06172839506172839,87.59259259259258,0)" xlink:href="#aA"/><use transform="matrix(0.06172839506172839,0,0,0.06172839506172839,94.93827160493827,0)" xlink:href="#aw"/><use transform="matrix(0.06172839506172839,0,0,0.06172839506172839,101.1111111111111,0)" xlink:href="#al"/></g><path d="M240 0l2-218c-23 76-54 145-80 218h-23L58-218 59 0H30v-248h44l77 211c21-75 51-140 76-211h43V0h-30" id="aZ"/><g id="T"><use transform="matrix(0.06172839506172839,0,0,0.06172839506172839,0,0)" xlink:href="#aJ"/><use transform="matrix(0.06172839506172839,0,0,0.06172839506172839,14.814814814814813,0)" xlink:href="#az"/><use transform="matrix(0.06172839506172839,0,0,0.06172839506172839,27.160493827160494,0)" xlink:href="#aB"/><use transform="matrix(0.06172839506172839,0,0,0.06172839506172839,39.50617283950617,0)" xlink:href="#aI"/><use transform="matrix(0.06172839506172839,0,0,0.06172839506172839,45.67901234567901,0)" xlink:href="#ay"/><use transform="matrix(0.06172839506172839,0,0,0.06172839506172839,56.79012345679013,0)" xlink:href="#aV"/><use transform="matrix(0.06172839506172839,0,0,0.06172839506172839,69.13580246913581,0)" xlink:href="#aZ"/><use transform="matrix(0.06172839506172839,0,0,0.06172839506172839,87.5925925925926,0)" xlink:href="#ap"/><use transform="matrix(0.06172839506172839,0,0,0.06172839506172839,92.46913580246914,0)" xlink:href="#aq"/><use transform="matrix(0.06172839506172839,0,0,0.06172839506172839,104.81481481481482,0)" xlink:href="#ap"/><use transform="matrix(0.06172839506172839,0,0,0.06172839506172839,109.69135802469137,0)" xlink:href="#aC"/><use transform="matrix(0.06172839506172839,0,0,0.06172839506172839,128.14814814814815,0)" xlink:href="#ax"/><use transform="matrix(0.06172839506172839,0,0,0.06172839506172839,140.49382716049382,0)" xlink:href="#aC"/></g><g id="U"><use transform="matrix(0.06172839506172839,0,0,0.06172839506172839,0,0)" xlink:href="#aJ"/><use transform="matrix(0.06172839506172839,0,0,0.06172839506172839,14.814814814814813,0)" xlink:href="#az"/><use transform="matrix(0.06172839506172839,0,0,0.06172839506172839,27.160493827160494,0)" xlink:href="#aB"/><use transform="matrix(0.06172839506172839,0,0,0.06172839506172839,39.50617283950617,0)" xlink:href="#aI"/><use transform="matrix(0.06172839506172839,0,0,0.06172839506172839,45.67901234567901,0)" xlink:href="#ay"/><use transform="matrix(0.06172839506172839,0,0,0.06172839506172839,56.79012345679013,0)" xlink:href="#aV"/><use transform="matrix(0.06172839506172839,0,0,0.06172839506172839,69.13580246913581,0)" xlink:href="#aR"/><use transform="matrix(0.06172839506172839,0,0,0.06172839506172839,85.12345679012347,0)" xlink:href="#aB"/><use transform="matrix(0.06172839506172839,0,0,0.06172839506172839,97.46913580246915,0)" xlink:href="#aU"/><use transform="matrix(0.06172839506172839,0,0,0.06172839506172839,109.81481481481484,0)" xlink:href="#aB"/><use transform="matrix(0.06172839506172839,0,0,0.06172839506172839,122.16049382716052,0)" xlink:href="#aO"/><use transform="matrix(0.06172839506172839,0,0,0.06172839506172839,133.27160493827162,0)" xlink:href="#ap"/><use transform="matrix(0.06172839506172839,0,0,0.06172839506172839,138.14814814814815,0)" xlink:href="#aI"/><use transform="matrix(0.06172839506172839,0,0,0.06172839506172839,144.320987654321,0)" xlink:href="#aS"/></g><g id="V"><use transform="matrix(0.06172839506172839,0,0,0.06172839506172839,0,0)" xlink:href="#av"/><use transform="matrix(0.06172839506172839,0,0,0.06172839506172839,15.987654320987653,0)" xlink:href="#ay"/><use transform="matrix(0.06172839506172839,0,0,0.06172839506172839,27.098765432098766,0)" xlink:href="#az"/><use transform="matrix(0.06172839506172839,0,0,0.06172839506172839,39.44444444444444,0)" xlink:href="#aA"/><use transform="matrix(0.06172839506172839,0,0,0.06172839506172839,46.79012345679012,0)" xlink:href="#aV"/><use transform="matrix(0.06172839506172839,0,0,0.06172839506172839,59.1358024691358,0)" xlink:href="#aQ"/><use transform="matrix(0.06172839506172839,0,0,0.06172839506172839,73.9506172839506,0)" xlink:href="#aG"/><use transform="matrix(0.06172839506172839,0,0,0.06172839506172839,86.29629629629629,0)" xlink:href="#aC"/><use transform="matrix(0.06172839506172839,0,0,0.06172839506172839,104.75308641975307,0)" xlink:href="#ap"/><use transform="matrix(0.06172839506172839,0,0,0.06172839506172839,109.62962962962962,0)" xlink:href="#aq"/><use transform="matrix(0.06172839506172839,0,0,0.06172839506172839,121.9753086419753,0)" xlink:href="#ap"/><use transform="matrix(0.06172839506172839,0,0,0.06172839506172839,126.85185185185185,0)" xlink:href="#ay"/><use transform="matrix(0.06172839506172839,0,0,0.06172839506172839,137.96296296296296,0)" xlink:href="#aI"/><use transform="matrix(0.06172839506172839,0,0,0.06172839506172839,144.1358024691358,0)" xlink:href="#aA"/><use transform="matrix(0.06172839506172839,0,0,0.06172839506172839,151.48148148148147,0)" xlink:href="#aB"/><use transform="matrix(0.06172839506172839,0,0,0.06172839506172839,163.82716049382714,0)" xlink:href="#aI"/><use transform="matrix(0.06172839506172839,0,0,0.06172839506172839,169.99999999999997,0)" xlink:href="#an"/><use transform="matrix(0.06172839506172839,0,0,0.06172839506172839,182.34567901234564,0)" xlink:href="#aA"/></g><path d="M108 0H70L1-190h34L89-25l56-165h34" id="ba"/><g id="W"><use transform="matrix(0.06172839506172839,0,0,0.06172839506172839,0,0)" xlink:href="#ar"/><use transform="matrix(0.06172839506172839,0,0,0.06172839506172839,14.814814814814813,0)" xlink:href="#aA"/><use transform="matrix(0.06172839506172839,0,0,0.06172839506172839,22.160493827160494,0)" xlink:href="#ap"/><use transform="matrix(0.06172839506172839,0,0,0.06172839506172839,27.037037037037038,0)" xlink:href="#an"/><use transform="matrix(0.06172839506172839,0,0,0.06172839506172839,39.382716049382715,0)" xlink:href="#aA"/><use transform="matrix(0.06172839506172839,0,0,0.06172839506172839,46.72839506172839,0)" xlink:href="#ap"/><use transform="matrix(0.06172839506172839,0,0,0.06172839506172839,51.60493827160494,0)" xlink:href="#aI"/><use transform="matrix(0.06172839506172839,0,0,0.06172839506172839,57.77777777777778,0)" xlink:href="#aS"/><use transform="matrix(0.06172839506172839,0,0,0.06172839506172839,68.88888888888889,0)" xlink:href="#am"/><use transform="matrix(0.06172839506172839,0,0,0.06172839506172839,81.23456790123457,0)" xlink:href="#az"/><use transform="matrix(0.06172839506172839,0,0,0.06172839506172839,93.58024691358025,0)" xlink:href="#ba"/><use transform="matrix(0.06172839506172839,0,0,0.06172839506172839,104.69135802469137,0)" xlink:href="#az"/><use transform="matrix(0.06172839506172839,0,0,0.06172839506172839,117.03703703703705,0)" xlink:href="#aE"/></g><g id="X"><use transform="matrix(0.06172839506172839,0,0,0.06172839506172839,0,0)" xlink:href="#av"/><use transform="matrix(0.06172839506172839,0,0,0.06172839506172839,15.987654320987653,0)" xlink:href="#ay"/><use transform="matrix(0.06172839506172839,0,0,0.06172839506172839,27.098765432098766,0)" xlink:href="#az"/><use transform="matrix(0.06172839506172839,0,0,0.06172839506172839,39.44444444444444,0)" xlink:href="#aA"/><use transform="matrix(0.06172839506172839,0,0,0.06172839506172839,46.79012345679012,0)" xlink:href="#aV"/><use transform="matrix(0.06172839506172839,0,0,0.06172839506172839,59.1358024691358,0)" xlink:href="#aX"/><use transform="matrix(0.06172839506172839,0,0,0.06172839506172839,75.12345679012346,0)" xlink:href="#az"/><use transform="matrix(0.06172839506172839,0,0,0.06172839506172839,87.46913580246914,0)" xlink:href="#ay"/><use transform="matrix(0.06172839506172839,0,0,0.06172839506172839,98.58024691358025,0)" xlink:href="#az"/><use transform="matrix(0.06172839506172839,0,0,0.06172839506172839,110.92592592592594,0)" xlink:href="#aB"/><use transform="matrix(0.06172839506172839,0,0,0.06172839506172839,123.27160493827162,0)" xlink:href="#aA"/><use transform="matrix(0.06172839506172839,0,0,0.06172839506172839,130.6172839506173,0)" xlink:href="#aO"/><use transform="matrix(0.06172839506172839,0,0,0.06172839506172839,141.7283950617284,0)" xlink:href="#aL"/><use transform="matrix(0.06172839506172839,0,0,0.06172839506172839,154.07407407407408,0)" xlink:href="#az"/><use transform="matrix(0.06172839506172839,0,0,0.06172839506172839,166.41975308641975,0)" xlink:href="#aA"/></g><g id="Y"><use transform="matrix(0.06172839506172839,0,0,0.06172839506172839,0,0)" xlink:href="#aM"/><use transform="matrix(0.06172839506172839,0,0,0.06172839506172839,17.28395061728395,0)" xlink:href="#aA"/><use transform="matrix(0.06172839506172839,0,0,0.06172839506172839,24.629629629629626,0)" xlink:href="#aB"/><use transform="matrix(0.06172839506172839,0,0,0.06172839506172839,36.9753086419753,0)" xlink:href="#aG"/><use transform="matrix(0.06172839506172839,0,0,0.06172839506172839,49.32098765432098,0)" xlink:href="#ax"/><use transform="matrix(0.06172839506172839,0,0,0.06172839506172839,61.66666666666666,0)" xlink:href="#aB"/><use transform="matrix(0.06172839506172839,0,0,0.06172839506172839,74.01234567901234,0)" xlink:href="#aI"/><use transform="matrix(0.06172839506172839,0,0,0.06172839506172839,80.18518518518518,0)" xlink:href="#az"/><use transform="matrix(0.06172839506172839,0,0,0.06172839506172839,92.53086419753086,0)" xlink:href="#aV"/><use transform="matrix(0.06172839506172839,0,0,0.06172839506172839,104.87654320987654,0)" xlink:href="#ar"/><use transform="matrix(0.06172839506172839,0,0,0.06172839506172839,119.69135802469135,0)" xlink:href="#aB"/><use transform="matrix(0.06172839506172839,0,0,0.06172839506172839,132.03703703703704,0)" xlink:href="#aA"/><use transform="matrix(0.06172839506172839,0,0,0.06172839506172839,139.3827160493827,0)" xlink:href="#aI"/><use transform="matrix(0.06172839506172839,0,0,0.06172839506172839,145.55555555555554,0)" xlink:href="#aW"/><use transform="matrix(0.06172839506172839,0,0,0.06172839506172839,158.27160493827157,0)" xlink:href="#ap"/><use transform="matrix(0.06172839506172839,0,0,0.06172839506172839,163.1481481481481,0)" xlink:href="#aC"/><use transform="matrix(0.06172839506172839,0,0,0.06172839506172839,181.60493827160488,0)" xlink:href="#az"/></g><g id="Z"><use transform="matrix(0.06172839506172839,0,0,0.06172839506172839,0,0)" xlink:href="#aM"/><use transform="matrix(0.06172839506172839,0,0,0.06172839506172839,17.28395061728395,0)" xlink:href="#aA"/><use transform="matrix(0.06172839506172839,0,0,0.06172839506172839,24.629629629629626,0)" xlink:href="#aB"/><use transform="matrix(0.06172839506172839,0,0,0.06172839506172839,36.9753086419753,0)" xlink:href="#aG"/><use transform="matrix(0.06172839506172839,0,0,0.06172839506172839,49.32098765432098,0)" xlink:href="#ax"/><use transform="matrix(0.06172839506172839,0,0,0.06172839506172839,61.66666666666666,0)" xlink:href="#aB"/><use transform="matrix(0.06172839506172839,0,0,0.06172839506172839,74.01234567901234,0)" xlink:href="#aI"/><use transform="matrix(0.06172839506172839,0,0,0.06172839506172839,80.18518518518518,0)" xlink:href="#az"/><use transform="matrix(0.06172839506172839,0,0,0.06172839506172839,92.53086419753086,0)" xlink:href="#au"/><use transform="matrix(0.06172839506172839,0,0,0.06172839506172839,106.04938271604938,0)" xlink:href="#ax"/><use transform="matrix(0.06172839506172839,0,0,0.06172839506172839,118.39506172839506,0)" xlink:href="#aE"/><use transform="matrix(0.06172839506172839,0,0,0.06172839506172839,123.27160493827161,0)" xlink:href="#aE"/><use transform="matrix(0.06172839506172839,0,0,0.06172839506172839,128.14814814814815,0)" xlink:href="#aW"/><use transform="matrix(0.06172839506172839,0,0,0.06172839506172839,140.8641975308642,0)" xlink:href="#ap"/><use transform="matrix(0.06172839506172839,0,0,0.06172839506172839,145.74074074074073,0)" xlink:href="#aC"/><use transform="matrix(0.06172839506172839,0,0,0.06172839506172839,164.19753086419752,0)" xlink:href="#az"/></g><g id="aa"><use transform="matrix(0.06172839506172839,0,0,0.06172839506172839,0,0)" xlink:href="#aJ"/><use transform="matrix(0.06172839506172839,0,0,0.06172839506172839,14.814814814814813,0)" xlink:href="#aI"/><use transform="matrix(0.06172839506172839,0,0,0.06172839506172839,20.98765432098765,0)" xlink:href="#ax"/><use transform="matrix(0.06172839506172839,0,0,0.06172839506172839,33.33333333333333,0)" xlink:href="#aG"/><use transform="matrix(0.06172839506172839,0,0,0.06172839506172839,45.679012345679006,0)" xlink:href="#az"/><use transform="matrix(0.06172839506172839,0,0,0.06172839506172839,58.02469135802468,0)" xlink:href="#aq"/><use transform="matrix(0.06172839506172839,0,0,0.06172839506172839,70.37037037037037,0)" xlink:href="#aI"/><use transform="matrix(0.06172839506172839,0,0,0.06172839506172839,76.5432098765432,0)" xlink:href="#aV"/><use transform="matrix(0.06172839506172839,0,0,0.06172839506172839,88.88888888888889,0)" xlink:href="#aM"/><use transform="matrix(0.06172839506172839,0,0,0.06172839506172839,106.17283950617283,0)" xlink:href="#aA"/><use transform="matrix(0.06172839506172839,0,0,0.06172839506172839,113.51851851851852,0)" xlink:href="#aB"/><use transform="matrix(0.06172839506172839,0,0,0.06172839506172839,125.8641975308642,0)" xlink:href="#aG"/><use transform="matrix(0.06172839506172839,0,0,0.06172839506172839,138.20987654320987,0)" xlink:href="#ax"/><use transform="matrix(0.06172839506172839,0,0,0.06172839506172839,150.55555555555554,0)" xlink:href="#aB"/><use transform="matrix(0.06172839506172839,0,0,0.06172839506172839,162.9012345679012,0)" xlink:href="#aI"/><use transform="matrix(0.06172839506172839,0,0,0.06172839506172839,169.07407407407405,0)" xlink:href="#az"/></g><g id="ab"><use transform="matrix(0.06172839506172839,0,0,0.06172839506172839,0,0)" xlink:href="#aM"/><use transform="matrix(0.06172839506172839,0,0,0.06172839506172839,17.28395061728395,0)" xlink:href="#aJ"/><use transform="matrix(0.06172839506172839,0,0,0.06172839506172839,32.09876543209876,0)" xlink:href="#aw"/><use transform="matrix(0.06172839506172839,0,0,0.06172839506172839,38.2716049382716,0)" xlink:href="#al"/></g><g id="ac"><use transform="matrix(0.06172839506172839,0,0,0.06172839506172839,0,0)" xlink:href="#aJ"/><use transform="matrix(0.06172839506172839,0,0,0.06172839506172839,14.814814814814813,0)" xlink:href="#aI"/><use transform="matrix(0.06172839506172839,0,0,0.06172839506172839,20.98765432098765,0)" xlink:href="#ax"/><use transform="matrix(0.06172839506172839,0,0,0.06172839506172839,33.33333333333333,0)" xlink:href="#aG"/><use transform="matrix(0.06172839506172839,0,0,0.06172839506172839,45.679012345679006,0)" xlink:href="#az"/><use transform="matrix(0.06172839506172839,0,0,0.06172839506172839,58.02469135802468,0)" xlink:href="#aq"/><use transform="matrix(0.06172839506172839,0,0,0.06172839506172839,70.37037037037037,0)" xlink:href="#aI"/><use transform="matrix(0.06172839506172839,0,0,0.06172839506172839,76.5432098765432,0)" xlink:href="#aW"/><use transform="matrix(0.06172839506172839,0,0,0.06172839506172839,88.82716049382715,0)" xlink:href="#aS"/><use transform="matrix(0.06172839506172839,0,0,0.06172839506172839,99.93827160493827,0)" xlink:href="#aU"/><use transform="matrix(0.06172839506172839,0,0,0.06172839506172839,112.28395061728395,0)" xlink:href="#az"/></g><g id="ad"><use transform="matrix(0.06172839506172839,0,0,0.06172839506172839,0,0)" xlink:href="#aJ"/><use transform="matrix(0.06172839506172839,0,0,0.06172839506172839,14.814814814814813,0)" xlink:href="#aI"/><use transform="matrix(0.06172839506172839,0,0,0.06172839506172839,20.98765432098765,0)" xlink:href="#ax"/><use transform="matrix(0.06172839506172839,0,0,0.06172839506172839,33.33333333333333,0)" xlink:href="#aG"/><use transform="matrix(0.06172839506172839,0,0,0.06172839506172839,45.679012345679006,0)" xlink:href="#az"/><use transform="matrix(0.06172839506172839,0,0,0.06172839506172839,58.02469135802468,0)" xlink:href="#aq"/><use transform="matrix(0.06172839506172839,0,0,0.06172839506172839,70.37037037037037,0)" xlink:href="#aI"/><use transform="matrix(0.06172839506172839,0,0,0.06172839506172839,76.5432098765432,0)" xlink:href="#aV"/><use transform="matrix(0.06172839506172839,0,0,0.06172839506172839,88.88888888888889,0)" xlink:href="#av"/><use transform="matrix(0.06172839506172839,0,0,0.06172839506172839,104.87654320987654,0)" xlink:href="#aq"/><use transform="matrix(0.06172839506172839,0,0,0.06172839506172839,117.22222222222223,0)" xlink:href="#aG"/><use transform="matrix(0.06172839506172839,0,0,0.06172839506172839,129.5679012345679,0)" xlink:href="#az"/><use transform="matrix(0.06172839506172839,0,0,0.06172839506172839,141.91358024691357,0)" xlink:href="#aA"/><use transform="matrix(0.06172839506172839,0,0,0.06172839506172839,149.25925925925924,0)" xlink:href="#ao"/><use transform="matrix(0.06172839506172839,0,0,0.06172839506172839,161.6049382716049,0)" xlink:href="#aA"/><use transform="matrix(0.06172839506172839,0,0,0.06172839506172839,168.95061728395058,0)" xlink:href="#aB"/><use transform="matrix(0.06172839506172839,0,0,0.06172839506172839,181.29629629629625,0)" xlink:href="#aG"/><use transform="matrix(0.06172839506172839,0,0,0.06172839506172839,193.64197530864192,0)" xlink:href="#ax"/><use transform="matrix(0.06172839506172839,0,0,0.06172839506172839,205.9876543209876,0)" xlink:href="#aB"/><use transform="matrix(0.06172839506172839,0,0,0.06172839506172839,218.33333333333326,0)" xlink:href="#aI"/><use transform="matrix(0.06172839506172839,0,0,0.06172839506172839,224.5061728395061,0)" xlink:href="#az"/></g><g id="ae"><use transform="matrix(0.06172839506172839,0,0,0.06172839506172839,0,0)" xlink:href="#av"/><use transform="matrix(0.06172839506172839,0,0,0.06172839506172839,15.987654320987653,0)" xlink:href="#aq"/><use transform="matrix(0.06172839506172839,0,0,0.06172839506172839,28.333333333333332,0)" xlink:href="#aG"/><use transform="matrix(0.06172839506172839,0,0,0.06172839506172839,40.67901234567901,0)" xlink:href="#az"/><use transform="matrix(0.06172839506172839,0,0,0.06172839506172839,53.02469135802469,0)" xlink:href="#aA"/><use transform="matrix(0.06172839506172839,0,0,0.06172839506172839,60.37037037037037,0)" xlink:href="#ao"/><use transform="matrix(0.06172839506172839,0,0,0.06172839506172839,72.71604938271605,0)" xlink:href="#aA"/><use transform="matrix(0.06172839506172839,0,0,0.06172839506172839,80.06172839506173,0)" xlink:href="#aB"/><use transform="matrix(0.06172839506172839,0,0,0.06172839506172839,92.40740740740742,0)" xlink:href="#aG"/><use transform="matrix(0.06172839506172839,0,0,0.06172839506172839,104.7530864197531,0)" xlink:href="#ax"/><use transform="matrix(0.06172839506172839,0,0,0.06172839506172839,117.09876543209879,0)" xlink:href="#aB"/><use transform="matrix(0.06172839506172839,0,0,0.06172839506172839,129.44444444444446,0)" xlink:href="#aI"/><use transform="matrix(0.06172839506172839,0,0,0.06172839506172839,135.6172839506173,0)" xlink:href="#az"/><use transform="matrix(0.06172839506172839,0,0,0.06172839506172839,147.96296296296296,0)" xlink:href="#aV"/><use transform="matrix(0.06172839506172839,0,0,0.06172839506172839,160.30864197530863,0)" xlink:href="#au"/><use transform="matrix(0.06172839506172839,0,0,0.06172839506172839,173.82716049382714,0)" xlink:href="#ax"/><use transform="matrix(0.06172839506172839,0,0,0.06172839506172839,186.1728395061728,0)" xlink:href="#aE"/><use transform="matrix(0.06172839506172839,0,0,0.06172839506172839,191.04938271604934,0)" xlink:href="#aE"/><use transform="matrix(0.06172839506172839,0,0,0.06172839506172839,195.92592592592587,0)" xlink:href="#aW"/><use transform="matrix(0.06172839506172839,0,0,0.06172839506172839,208.6419753086419,0)" xlink:href="#ap"/><use transform="matrix(0.06172839506172839,0,0,0.06172839506172839,213.51851851851842,0)" xlink:href="#aC"/><use transform="matrix(0.06172839506172839,0,0,0.06172839506172839,231.9753086419752,0)" xlink:href="#az"/></g><g id="af"><use transform="matrix(0.06172839506172839,0,0,0.06172839506172839,0,0)" xlink:href="#av"/><use transform="matrix(0.06172839506172839,0,0,0.06172839506172839,15.987654320987653,0)" xlink:href="#aq"/><use transform="matrix(0.06172839506172839,0,0,0.06172839506172839,28.333333333333332,0)" xlink:href="#aG"/><use transform="matrix(0.06172839506172839,0,0,0.06172839506172839,40.67901234567901,0)" xlink:href="#az"/><use transform="matrix(0.06172839506172839,0,0,0.06172839506172839,53.02469135802469,0)" xlink:href="#aA"/><use transform="matrix(0.06172839506172839,0,0,0.06172839506172839,60.37037037037037,0)" xlink:href="#ao"/><use transform="matrix(0.06172839506172839,0,0,0.06172839506172839,72.71604938271605,0)" xlink:href="#aA"/><use transform="matrix(0.06172839506172839,0,0,0.06172839506172839,80.06172839506173,0)" xlink:href="#aB"/><use transform="matrix(0.06172839506172839,0,0,0.06172839506172839,92.40740740740742,0)" xlink:href="#aG"/><use transform="matrix(0.06172839506172839,0,0,0.06172839506172839,104.7530864197531,0)" xlink:href="#ax"/><use transform="matrix(0.06172839506172839,0,0,0.06172839506172839,117.09876543209879,0)" xlink:href="#aB"/><use transform="matrix(0.06172839506172839,0,0,0.06172839506172839,129.44444444444446,0)" xlink:href="#aI"/><use transform="matrix(0.06172839506172839,0,0,0.06172839506172839,135.6172839506173,0)" xlink:href="#az"/><use transform="matrix(0.06172839506172839,0,0,0.06172839506172839,147.96296296296296,0)" xlink:href="#aV"/><use transform="matrix(0.06172839506172839,0,0,0.06172839506172839,160.30864197530863,0)" xlink:href="#ar"/><use transform="matrix(0.06172839506172839,0,0,0.06172839506172839,175.12345679012344,0)" xlink:href="#aB"/><use transform="matrix(0.06172839506172839,0,0,0.06172839506172839,187.4691358024691,0)" xlink:href="#aA"/><use transform="matrix(0.06172839506172839,0,0,0.06172839506172839,194.81481481481478,0)" xlink:href="#aI"/><use transform="matrix(0.06172839506172839,0,0,0.06172839506172839,200.98765432098762,0)" xlink:href="#aW"/><use transform="matrix(0.06172839506172839,0,0,0.06172839506172839,213.70370370370364,0)" xlink:href="#ap"/><use transform="matrix(0.06172839506172839,0,0,0.06172839506172839,218.58024691358017,0)" xlink:href="#aC"/><use transform="matrix(0.06172839506172839,0,0,0.06172839506172839,237.03703703703695,0)" xlink:href="#az"/></g><g id="ag"><use transform="matrix(0.06172839506172839,0,0,0.06172839506172839,0,0)" xlink:href="#av"/><use transform="matrix(0.06172839506172839,0,0,0.06172839506172839,15.987654320987653,0)" xlink:href="#ay"/><use transform="matrix(0.06172839506172839,0,0,0.06172839506172839,27.098765432098766,0)" xlink:href="#az"/><use transform="matrix(0.06172839506172839,0,0,0.06172839506172839,39.44444444444444,0)" xlink:href="#aA"/><use transform="matrix(0.06172839506172839,0,0,0.06172839506172839,46.79012345679012,0)" xlink:href="#aV"/><use transform="matrix(0.06172839506172839,0,0,0.06172839506172839,59.1358024691358,0)" xlink:href="#aJ"/><use transform="matrix(0.06172839506172839,0,0,0.06172839506172839,73.9506172839506,0)" xlink:href="#aI"/><use transform="matrix(0.06172839506172839,0,0,0.06172839506172839,80.12345679012344,0)" xlink:href="#ax"/><use transform="matrix(0.06172839506172839,0,0,0.06172839506172839,92.46913580246913,0)" xlink:href="#aG"/><use transform="matrix(0.06172839506172839,0,0,0.06172839506172839,104.81481481481481,0)" xlink:href="#az"/><use transform="matrix(0.06172839506172839,0,0,0.06172839506172839,117.1604938271605,0)" xlink:href="#aq"/><use transform="matrix(0.06172839506172839,0,0,0.06172839506172839,129.50617283950618,0)" xlink:href="#aI"/></g></defs></g></svg>