<svg xmlns="http://www.w3.org/2000/svg" xmlns:xlink="http://www.w3.org/1999/xlink" xmlns:lucid="lucid" width="4903" height="3852"><g transform="translate(1421 370)" lucid:page-tab-id="JEOYeJIbTu.9"><path d="M-1500-1000h5000v4500h-5000z" fill="#fff"/><path d="M-920-272.33a6 6 0 0 1 6-6h148a6 6 0 0 1 6 6v108a6 6 0 0 1-6 6h-148a6 6 0 0 1-6-6z" stroke="#1071e5" stroke-width="3" fill="#fff"/><use xlink:href="#a" transform="matrix(1,0,0,1,-908,-266.3332799999998) translate(13.494999999999997 38.77777777777778)"/><use xlink:href="#b" transform="matrix(1,0,0,1,-908,-266.3332799999998) translate(121.505 38.77777777777778)"/><use xlink:href="#c" transform="matrix(1,0,0,1,-908,-266.3332799999998) translate(72.48648148148149 65.44444444444446)"/><path d="M262.4-273.8a6 6 0 0 1 6-6h148a6 6 0 0 1 6 6v108a6 6 0 0 1-6 6h-148a6 6 0 0 1-6-6z" stroke="#1071e5" stroke-width="3" fill="#fff"/><use xlink:href="#d" transform="matrix(1,0,0,1,274.41193142620796,-267.7965357148723) translate(13.494999999999997 38.77777777777778)"/><use xlink:href="#b" transform="matrix(1,0,0,1,274.41193142620796,-267.7965357148723) translate(121.505 38.77777777777778)"/><use xlink:href="#c" transform="matrix(1,0,0,1,274.41193142620796,-267.7965357148723) translate(72.48648148148149 65.44444444444446)"/><path d="M1705.18-272.33a6 6 0 0 1 6-6h148a6 6 0 0 1 6 6v108a6 6 0 0 1-6 6h-148a6 6 0 0 1-6-6z" stroke="#1071e5" stroke-width="3" fill="#fff"/><use xlink:href="#e" transform="matrix(1,0,0,1,1717.176137147584,-266.3332799999998) translate(13.494999999999997 38.77777777777778)"/><use xlink:href="#b" transform="matrix(1,0,0,1,1717.176137147584,-266.3332799999998) translate(121.505 38.77777777777778)"/><use xlink:href="#c" transform="matrix(1,0,0,1,1717.176137147584,-266.3332799999998) translate(72.48648148148149 65.44444444444446)"/><path d="M-700 196.53a6 6 0 0 1 6-6h148a6 6 0 0 1 6 6v108a6 6 0 0 1-6 6h-148a6 6 0 0 1-6-6z" stroke="#1071e5" stroke-width="3" fill="#fff"/><use xlink:href="#f" transform="matrix(1,0,0,1,-688,202.52682186723825) translate(13.494999999999997 38.77777777777778)"/><use xlink:href="#b" transform="matrix(1,0,0,1,-688,202.52682186723825) translate(121.505 38.77777777777778)"/><use xlink:href="#g" transform="matrix(1,0,0,1,-688,202.52682186723825) translate(72.48648148148149 65.44444444444446)"/><path d="M-340-274a6 6 0 0 1 6-6h148a6 6 0 0 1 6 6v108a6 6 0 0 1-6 6h-148a6 6 0 0 1-6-6z" stroke="#1071e5" stroke-width="3" fill="#fff"/><use xlink:href="#h" transform="matrix(1,0,0,1,-328,-268) translate(13.494999999999997 38.77777777777778)"/><use xlink:href="#b" transform="matrix(1,0,0,1,-328,-268) translate(121.505 38.77777777777778)"/><use xlink:href="#c" transform="matrix(1,0,0,1,-328,-268) translate(72.48648148148149 65.44444444444446)"/><path d="M-1100 196.53a6 6 0 0 1 6-6h148a6 6 0 0 1 6 6v108a6 6 0 0 1-6 6h-148a6 6 0 0 1-6-6z" stroke="#1071e5" stroke-width="3" fill="#fff"/><use xlink:href="#i" transform="matrix(1,0,0,1,-1088,202.52682186723825) translate(13.494999999999997 38.77777777777778)"/><use xlink:href="#b" transform="matrix(1,0,0,1,-1088,202.52682186723825) translate(121.505 38.77777777777778)"/><use xlink:href="#g" transform="matrix(1,0,0,1,-1088,202.52682186723825) translate(72.48648148148149 65.44444444444446)"/><path d="M-1360 914.2a6 6 0 0 1 6-6h148a6 6 0 0 1 6 6v108a6 6 0 0 1-6 6h-148a6 6 0 0 1-6-6z" stroke="#1071e5" stroke-width="3" fill="#fff"/><use xlink:href="#j" transform="matrix(1,0,0,1,-1348,920.2133867030172) translate(13.494999999999997 38.77777777777778)"/><use xlink:href="#b" transform="matrix(1,0,0,1,-1348,920.2133867030172) translate(121.505 38.77777777777778)"/><use xlink:href="#k" transform="matrix(1,0,0,1,-1348,920.2133867030172) translate(72.48648148148149 65.44444444444446)"/><path d="M2282.4-272.33a6 6 0 0 1 6-6h148a6 6 0 0 1 6 6v108a6 6 0 0 1-6 6h-148a6 6 0 0 1-6-6z" stroke="#1071e5" stroke-width="3" fill="#fff"/><use xlink:href="#l" transform="matrix(1,0,0,1,2294.411931426208,-266.3332799999998) translate(13.494999999999997 38.77777777777778)"/><use xlink:href="#b" transform="matrix(1,0,0,1,2294.411931426208,-266.3332799999998) translate(121.505 38.77777777777778)"/><use xlink:href="#c" transform="matrix(1,0,0,1,2294.411931426208,-266.3332799999998) translate(72.48648148148149 65.44444444444446)"/><path d="M1180-274a6 6 0 0 1 6-6h148a6 6 0 0 1 6 6v108a6 6 0 0 1-6 6h-148a6 6 0 0 1-6-6z" stroke="#1071e5" stroke-width="3" fill="#fff"/><use xlink:href="#m" transform="matrix(1,0,0,1,1192,-268) translate(13.494999999999997 38.77777777777778)"/><use xlink:href="#b" transform="matrix(1,0,0,1,1192,-268) translate(121.505 38.77777777777778)"/><use xlink:href="#c" transform="matrix(1,0,0,1,1192,-268) translate(72.48648148148149 65.44444444444446)"/><path d="M-900-92.54a6 6 0 0 1 6-6h108a6 6 0 0 1 6 6v48.84a6 6 0 0 1-6 6h-108a6 6 0 0 1-6-6z" stroke="#3a414a" fill="#fff"/><use xlink:href="#n" transform="matrix(1,0,0,1,-895,-93.53674428512747) translate(31.60493827160494 30.52777777777778)"/><path d="M-840-156.33v40.9" stroke="#3a414a" fill="none"/><path d="M-839.52-156.32h-.96v-.5h.96z" stroke="#3a414a" stroke-width=".05" fill="#3a414a"/><path d="M-840-100.66l-4.63-14.26h9.26z" stroke="#3a414a" fill="#3a414a"/><path d="M-840.3-36.8l-169.5 213" stroke="#3a414a" fill="none"/><path d="M-839.95-36.5l-.74-.6.1-.1h1.2z" stroke="#3a414a" stroke-width=".05" fill="#3a414a"/><path d="M-1019 187.76l5.26-14.05 7.26 5.78z" stroke="#3a414a" fill="#3a414a"/><path d="M-839.65-36.84l208.23 214.12" stroke="#3a414a" fill="none"/><path d="M-839.3-37.17l-.68.66-.68-.7h1.32z" stroke="#3a414a" stroke-width=".05" fill="#3a414a"/><path d="M-621.13 187.87l-13.27-7 6.65-6.46z" stroke="#3a414a" fill="#3a414a"/><path d="M-780 1606a6 6 0 0 1 6-6h148a6 6 0 0 1 6 6v108a6 6 0 0 1-6 6h-148a6 6 0 0 1-6-6z" stroke="#1071e5" stroke-width="3" fill="#fff"/><use xlink:href="#o" transform="matrix(1,0,0,1,-768,1612) translate(13.494999999999997 38.77777777777778)"/><use xlink:href="#b" transform="matrix(1,0,0,1,-768,1612) translate(121.505 38.77777777777778)"/><use xlink:href="#p" transform="matrix(1,0,0,1,-768,1612) translate(72.48648148148149 65.44444444444446)"/><path d="M422.4 906a6 6 0 0 1 6-6h148a6 6 0 0 1 6 6v108a6 6 0 0 1-6 6h-148a6 6 0 0 1-6-6z" stroke="#000" stroke-width="3" fill="#fff"/><use xlink:href="#q" transform="matrix(1,0,0,1,434.41193142620796,912) translate(13.494999999999997 38.77777777777778)"/><use xlink:href="#b" transform="matrix(1,0,0,1,434.41193142620796,912) translate(121.505 38.77777777777778)"/><use xlink:href="#r" transform="matrix(1,0,0,1,434.41193142620796,912) translate(72.48648148148149 65.44444444444446)"/><path d="M282.4-94a6 6 0 0 1 6-6h108a6 6 0 0 1 6 6v48.83a6 6 0 0 1-6 6h-108a6 6 0 0 1-6-6z" stroke="#3a414a" fill="#fff"/><use xlink:href="#n" transform="matrix(1,0,0,1,287.41193142620796,-94.99999999999991) translate(31.60493827160494 30.52777777777778)"/><path d="M342.4-157.8v40.92" stroke="#3a414a" fill="none"/><path d="M342.9-157.78h-.96v-.52h.95z" stroke="#3a414a" stroke-width=".05" fill="#3a414a"/><path d="M342.4-102.12l-4.62-14.26h9.27z" stroke="#3a414a" fill="#3a414a"/><path d="M341.93-38.55l-946 223.8" stroke="#3a414a" fill="none"/><path d="M342.02-38.1l-.13-.57h2.58z" stroke="#3a414a" stroke-width=".05" fill="#3a414a"/><path d="M-618.42 188.65l12.8-7.8 2.14 9.03z" stroke="#3a414a" fill="#3a414a"/><path d="M342.14-38.24L-691.2 1584.68" stroke="#3a414a" fill="none"/><path d="M342.54-37.98l-.8-.5.1-.2H343z" stroke="#3a414a" stroke-width=".05" fill="#3a414a"/><path d="M-699.13 1597.13l3.75-14.52 7.82 5z" stroke="#3a414a" fill="#3a414a"/><path d="M342.5-38.17l157.15 920.52" stroke="#3a414a" fill="none"/><path d="M342.97-38.24l-.94.16-.1-.6h.96z" stroke="#3a414a" stroke-width=".05" fill="#3a414a"/><path d="M502.14 896.9l-6.97-13.28 9.14-1.56z" stroke="#3a414a" fill="#3a414a"/><path d="M-1279.64 1030.06l567.94 556.97" stroke="#3a414a" fill="none"/><path d="M-1279.3 1029.73l-.67.68-.7-.7h1.35z" stroke="#3a414a" stroke-width=".05" fill="#3a414a"/><path d="M-701.15 1597.37l-13.44-6.68 6.5-6.63z" stroke="#3a414a" fill="#3a414a"/><path d="M1784.77-38.17l-1269.13 927" stroke="#3a414a" fill="none"/><path d="M1785.04-37.78l-.5-.68h1.44z" stroke="#3a414a" stroke-width=".05" fill="#3a414a"/><path d="M503.72 897.55l8.78-12.16 5.47 7.47z" stroke="#3a414a" fill="#3a414a"/><path d="M1725.18-93.8a6 6 0 0 1 6-6h108a6 6 0 0 1 6 6v48.84a6 6 0 0 1-6 6h-108a6 6 0 0 1-6-6z" stroke="#3a414a" fill="#fff"/><use xlink:href="#n" transform="matrix(1,0,0,1,1730.176137147584,-94.79653571487228) translate(31.60493827160494 30.52777777777778)"/><path d="M1785.18-156.33v39.65" stroke="#3a414a" fill="none"/><path d="M1785.65-156.32h-.95v-.5h.95z" stroke="#3a414a" stroke-width=".05" fill="#3a414a"/><path d="M1785.18-101.92l-4.64-14.26h9.27z" stroke="#3a414a" fill="#3a414a"/><path d="M1940 185.8a6 6 0 0 1 6-6h148a6 6 0 0 1 6 6v108a6 6 0 0 1-6 6h-148a6 6 0 0 1-6-6z" stroke="#000" stroke-width="3" fill="#fff"/><use xlink:href="#s" transform="matrix(1,0,0,1,1952,191.79653571487233) translate(13.494999999999997 38.77777777777778)"/><use xlink:href="#b" transform="matrix(1,0,0,1,1952,191.79653571487233) translate(121.505 38.77777777777778)"/><use xlink:href="#t" transform="matrix(1,0,0,1,1952,191.79653571487233) translate(72.48648148148149 65.44444444444446)"/><path d="M1885.74 4.22a6.05 6.05 0 0 1 8.52 0l41.48 41.14a5.95 5.95 0 0 1 0 8.45l-41.48 41.14a6.05 6.05 0 0 1-8.52 0l-41.48-41.13a5.95 5.95 0 0 1 0-8.44z" stroke="#3a414a" fill="#fff"/><use xlink:href="#u" transform="matrix(1,0,0,1,1845,5) translate(28.3691975308642 48.71527777777778)"/><path d="M1785.64-38.28l89.07 34.35" stroke="#3a414a" fill="none"/><path d="M1785.48-37.84l-1.62-.62h1.87z" stroke="#3a414a" stroke-width=".05" fill="#3a414a"/><path d="M1888.5 1.4l-15-.82 3.35-8.65z" stroke="#3a414a" fill="#3a414a"/><path d="M1890.42 97.46l115.68 72.17" stroke="#3a414a" fill="none"/><path d="M1888.98 97.12l1.02.08.63-.05-.45.72-1.2-.76z" stroke="#3a414a" stroke-width=".05" fill="#3a414a"/><path d="M2018.63 177.44l-14.56-3.62 4.9-7.86z" stroke="#3a414a" fill="#3a414a"/><path d="M1889.8 97.65L1526.8 890.5" stroke="#3a414a" fill="none"/><path d="M1890.22 97.86l-.87-.4.15-.3.5.04.54-.05z" stroke="#3a414a" stroke-width=".05" fill="#3a414a"/><path d="M1520.67 903.94l1.73-14.9 8.43 3.86z" stroke="#3a414a" fill="#3a414a"/><path d="M-100 185.8a6 6 0 0 1 6-6H54a6 6 0 0 1 6 6v108a6 6 0 0 1-6 6H-94a6 6 0 0 1-6-6z" stroke="#000" stroke-width="3" fill="#fff"/><use xlink:href="#v" transform="matrix(1,0,0,1,-88,191.79653571487233) translate(13.494999999999997 38.77777777777778)"/><use xlink:href="#b" transform="matrix(1,0,0,1,-88,191.79653571487233) translate(121.505 38.77777777777778)"/><use xlink:href="#t" transform="matrix(1,0,0,1,-88,191.79653571487233) translate(72.48648148148149 65.44444444444446)"/><path d="M-323.2-94a6 6 0 0 1 6-6h108a6 6 0 0 1 6 6v48.83a6 6 0 0 1-6 6h-108a6 6 0 0 1-6-6z" stroke="#3a414a" fill="#fff"/><use xlink:href="#n" transform="matrix(1,0,0,1,-318.20000000000005,-94.99999999999997) translate(31.60493827160494 30.52777777777778)"/><path d="M-260-158v41.12" stroke="#3a414a" fill="none"/><path d="M-259.52-158h-.96v-.5h.96z" stroke="#3a414a" stroke-width=".05" fill="#3a414a"/><path d="M-260-102.12l-4.63-14.26h9.27z" stroke="#3a414a" fill="#3a414a"/><path d="M-262.83-38.33l230.6 205.72" stroke="#3a414a" fill="none"/><path d="M-263.13-37.97l-.78-.7h1.4z" stroke="#3a414a" stroke-width=".05" fill="#3a414a"/><path d="M-21.2 177.22l-13.74-6.04 6.17-6.92z" stroke="#3a414a" fill="#3a414a"/><path d="M-263.33-38.18L-698.5 1582.68" stroke="#3a414a" fill="none"/><path d="M-262.87-38.05l-.92-.25.1-.37h1z" stroke="#3a414a" stroke-width=".05" fill="#3a414a"/><path d="M-702.34 1596.94l-.78-14.98 8.96 2.4z" stroke="#3a414a" fill="#3a414a"/><path d="M2282.4 185.8a6 6 0 0 1 6-6h148a6 6 0 0 1 6 6v108a6 6 0 0 1-6 6h-148a6 6 0 0 1-6-6z" stroke="#1071e5" stroke-width="3" fill="#fff"/><use xlink:href="#w" transform="matrix(1,0,0,1,2294.411931426208,191.79653571487233) translate(13.494999999999997 38.77777777777778)"/><use xlink:href="#b" transform="matrix(1,0,0,1,2294.411931426208,191.79653571487233) translate(121.505 38.77777777777778)"/><use xlink:href="#t" transform="matrix(1,0,0,1,2294.411931426208,191.79653571487233) translate(72.48648148148149 65.44444444444446)"/><path d="M2362.4-156.33V161.9" stroke="#3a414a" fill="none"/><path d="M2362.9-156.32h-.96v-.5h.95z" stroke="#3a414a" stroke-width=".05" fill="#3a414a"/><path d="M2362.4 176.68l-4.62-14.27h9.27z" stroke="#3a414a" fill="#3a414a"/><path d="M1200-93.8a6 6 0 0 1 6-6h108a6 6 0 0 1 6 6v48.84a6 6 0 0 1-6 6h-108a6 6 0 0 1-6-6z" stroke="#3a414a" fill="#fff"/><use xlink:href="#n" transform="matrix(1,0,0,1,1205,-94.79653571487228) translate(31.60493827160494 30.52777777777778)"/><path d="M1260-158v41.32" stroke="#3a414a" fill="none"/><path d="M1260.47-158h-.94v-.5h.94z" stroke="#3a414a" stroke-width=".05" fill="#3a414a"/><path d="M1260-101.92l-4.63-14.26h9.27z" stroke="#3a414a" fill="#3a414a"/><path d="M1260.48-38.33l743.76 212.13" stroke="#3a414a" fill="none"/><path d="M1260.36-37.87l-2.1-.6h2.27z" stroke="#3a414a" stroke-width=".05" fill="#3a414a"/><path d="M2018.44 177.85l-15 .55 2.56-8.92z" stroke="#3a414a" fill="#3a414a"/><path d="M1259.62-38.14L-687.42 1588" stroke="#3a414a" fill="none"/><path d="M1259.9-37.77l-.57-.7h1.4z" stroke="#3a414a" stroke-width=".05" fill="#3a414a"/><path d="M-698.76 1597.46l7.98-12.7 5.94 7.12z" stroke="#3a414a" fill="#3a414a"/><path d="M2113.64 2335.67a6 6 0 0 1 6-6h148a6 6 0 0 1 6 6v108a6 6 0 0 1-6 6h-148a6 6 0 0 1-6-6z" stroke="#000" stroke-width="3" fill="#fff"/><use xlink:href="#x" transform="matrix(1,0,0,1,2125.635807450757,2341.673373833448) translate(13.494999999999997 38.77777777777778)"/><use xlink:href="#b" transform="matrix(1,0,0,1,2125.635807450757,2341.673373833448) translate(121.505 38.77777777777778)"/><use xlink:href="#y" transform="matrix(1,0,0,1,2125.635807450757,2341.673373833448) translate(72.48648148148149 65.44444444444446)"/><path d="M2457.85 2335.67a6 6 0 0 1 6-6h148a6 6 0 0 1 6 6v108a6 6 0 0 1-6 6h-148a6 6 0 0 1-6-6z" stroke="#000" stroke-width="3" fill="#fff"/><use xlink:href="#z" transform="matrix(1,0,0,1,2469.847732290899,2341.6733738334483) translate(13.494999999999997 38.77777777777778)"/><use xlink:href="#b" transform="matrix(1,0,0,1,2469.847732290899,2341.6733738334483) translate(121.505 38.77777777777778)"/><use xlink:href="#y" transform="matrix(1,0,0,1,2469.847732290899,2341.6733738334483) translate(72.48648148148149 65.44444444444446)"/><path d="M2300 2086a6 6 0 0 1 6-6h108a6 6 0 0 1 6 6v48.83a6 6 0 0 1-6 6h-108a6 6 0 0 1-6-6z" stroke="#3a414a" fill="#fff"/><use xlink:href="#n" transform="matrix(1,0,0,1,2305,2085) translate(31.60493827160494 30.52777777777778)"/><path d="M2362.4 301.8v1761.32" stroke="#3a414a" fill="none"/><path d="M2362.9 301.8h-.96v-.5h.95z" stroke="#3a414a" stroke-width=".05" fill="#3a414a"/><path d="M2362.4 2077.88l-4.62-14.26h9.27z" stroke="#3a414a" fill="#3a414a"/><path d="M2359.67 2141.7l-155.14 174.24" stroke="#3a414a" fill="none"/><path d="M2360 2142.03l-.7-.63.06-.07h1.28z" stroke="#3a414a" stroke-width=".05" fill="#3a414a"/><path d="M2194.7 2326.97l6.04-13.74 6.92 6.16z" stroke="#3a414a" fill="#3a414a"/><path d="M2360.34 2141.7l166.2 174.6" stroke="#3a414a" fill="none"/><path d="M2360.7 2141.38l-.7.65-.66-.7h1.32z" stroke="#3a414a" stroke-width=".05" fill="#3a414a"/><path d="M2536.73 2327l-13.2-7.14 6.72-6.4z" stroke="#3a414a" fill="#3a414a"/><path d="M2116.05 2732.77a6 6 0 0 1 6-6h148a6 6 0 0 1 6 6v108a6 6 0 0 1-6 6h-148a6 6 0 0 1-6-6z" stroke="#000" stroke-width="3" fill="#fff"/><use xlink:href="#A" transform="matrix(1,0,0,1,2128.047738876965,2738.7690568270536) translate(13.494999999999997 38.77777777777778)"/><use xlink:href="#b" transform="matrix(1,0,0,1,2128.047738876965,2738.7690568270536) translate(121.505 38.77777777777778)"/><use xlink:href="#B" transform="matrix(1,0,0,1,2128.047738876965,2738.7690568270536) translate(72.48648148148149 65.44444444444446)"/><path d="M2193.64 2451.67v257.22" stroke="#3a414a" fill="none"/><path d="M2194.1 2451.7h-.94v-.53h.95z" stroke="#3a414a" stroke-width=".05" fill="#3a414a"/><path d="M2193.63 2723.65l-4.63-14.26h9.27z" stroke="#3a414a" fill="#3a414a"/><path d="M2116.05 3043.48a6 6 0 0 1 6-6h148a6 6 0 0 1 6 6v108a6 6 0 0 1-6 6h-148a6 6 0 0 1-6-6z" fill="#fff"/><path d="M2171.38 3037.48h49.33m24.68 0h24.67l.94.07.9.22.87.36.8.5.72.6.6.72.5.8.35.88.22.9.08.95v36m0 36v36l-.08.94-.22.9-.36.88-.5.8-.6.72-.73.6-.8.5-.87.37-.9.2-.95.08h-24.67m-24.67 0h-49.32m-24.67 0h-24.65l-.94-.07-.9-.2-.88-.37-.8-.5-.72-.6-.6-.72-.5-.8-.36-.86-.22-.92-.07-.94v-36m0-36v-36l.07-.94.22-.9.36-.88.5-.8.6-.72.72-.6.8-.5.87-.37.9-.22.95-.07h24.66" stroke="#000" stroke-width="3" fill="none"/><use xlink:href="#C" transform="matrix(1,0,0,1,2128.047738876965,3049.4804171405103) translate(13.494999999999997 38.77777777777778)"/><use xlink:href="#b" transform="matrix(1,0,0,1,2128.047738876965,3049.4804171405103) translate(121.505 38.77777777777778)"/><use xlink:href="#D" transform="matrix(1,0,0,1,2128.047738876965,3049.4804171405103) translate(72.48648148148149 65.44444444444446)"/><path d="M1440 3306a6 6 0 0 1 6-6h148a6 6 0 0 1 6 6v108a6 6 0 0 1-6 6h-148a6 6 0 0 1-6-6z" fill="#fff"/><path d="M1495.33 3300h49.34m24.66 0H1594l.94.07.9.22.88.35.8.5.72.6.6.72.5.8.37.88.23.9.07.95v36m0 36v36l-.07.94-.22.9-.35.88-.5.8-.6.72-.72.6-.8.5-.88.37-.9.23-.95.07h-24.67m-24.66 0h-49.34m-24.66 0H1446l-.94-.07-.9-.22-.88-.35-.8-.5-.72-.6-.6-.72-.5-.8-.37-.88-.23-.9-.07-.95v-36m0-36v-36l.07-.94.22-.9.35-.88.5-.8.6-.72.72-.6.8-.5.88-.37.9-.23.95-.07h24.67" stroke="#000" stroke-width="3" fill="none"/><use xlink:href="#E" transform="matrix(1,0,0,1,1452,3312) translate(13.494999999999997 38.77777777777778)"/><use xlink:href="#F" transform="matrix(1,0,0,1,1452,3312) translate(121.505 38.77777777777778)"/><use xlink:href="#G" transform="matrix(1,0,0,1,1452,3312) translate(72.48648148148149 65.44444444444446)"/><path d="M2196.05 2848.77v170.83" stroke="#3a414a" fill="none"/><path d="M2196.52 2848.78h-.95v-.5h.95z" stroke="#3a414a" stroke-width=".05" fill="#3a414a"/><path d="M2196.05 3034.36l-4.64-14.26h9.28z" stroke="#3a414a" fill="#3a414a"/><path d="M2195.56 3159.08l-10 2.06m-10 2.07l-19.97 4.13m-10 2.06l-20 4.12m-9.98 2.06l-20 4.12m-9.98 2.07l-20 4.12m-9.98 2.05l-19.98 4.13m-10 2.06l-19.98 4.12m-10 2.07l-19.98 4.12m-10 2.06l-19.98 4.14m-10 2.06l-19.97 4.12m-10 2.07l-19.98 4.1m-10 2.07l-20 4.13m-9.98 2.06l-20 4.12m-9.98 2.07l-20 4.12m-9.98 2.06l-19.98 4.13m-10 2.06l-19.98 4.12m-10 2.07l-19.98 4.13m-10 2.06l-19.98 4.12m-10 2.06l-19.98 4.12m-10 2.07l-19.97 4.12m-10 2.05l-20 4.13m-9.98 2.06l-20 4.12m-9.98 2.07l-10 2.06" stroke="#3a414a" fill="none"/><path d="M2195.64 3159.55l-.12-.57h2.88z" stroke="#3a414a" stroke-width=".05" fill="#3a414a"/><path d="M1521.6 3298.17l13.02-7.42 1.87 9.08z" stroke="#3a414a" fill="#3a414a"/><path d="M2631.64 2732.77a6 6 0 0 1 6-6h148a6 6 0 0 1 6 6v108a6 6 0 0 1-6 6h-148a6 6 0 0 1-6-6z" fill="#fff"/><path d="M2686.97 2726.77h49.34m24.67 0h24.67l.94.07.92.22.87.36.8.5.7.6.63.72.5.8.35.88.22.9.07.95v36m0 36v36l-.07.94-.22.92-.36.87-.5.8-.62.7-.7.62-.8.5-.88.36-.92.22-.94.07h-24.66m-24.67 0h-49.33m-24.66 0h-24.66l-.94-.07-.9-.22-.88-.37-.8-.48-.72-.6-.6-.72-.5-.8-.37-.88-.2-.9-.1-.95v-36m0-36v-36l.1-.94.2-.9.37-.88.5-.8.6-.72.7-.62.82-.48.87-.36.9-.22.94-.07h24.67" stroke="#000" stroke-width="3" fill="none"/><use xlink:href="#H" transform="matrix(1,0,0,1,2643.641766577795,2738.769056827054) translate(13.494999999999997 38.77777777777778)"/><use xlink:href="#b" transform="matrix(1,0,0,1,2643.641766577795,2738.769056827054) translate(121.505 38.77777777777778)"/><use xlink:href="#I" transform="matrix(1,0,0,1,2643.641766577795,2738.769056827054) translate(72.48648148148149 65.44444444444446)"/><path d="M2365.44 2723.48a6 6 0 0 1 6-6h148a6 6 0 0 1 6 6v108a6 6 0 0 1-6 6h-148a6 6 0 0 1-6-6z" fill="#fff"/><path d="M2420.77 2717.48h49.33m24.67 0h24.67l.93.07.92.22.86.36.8.5.72.6.6.72.5.8.36.88.22.9.08.95v36m0 36v36l-.08.94-.22.9-.36.88-.5.8-.6.72-.72.6-.8.5-.87.37-.93.2-.93.08h-24.67m-24.67 0h-49.33m-24.67 0h-24.66l-.94-.07-.92-.2-.87-.37-.8-.5-.7-.6-.62-.72-.5-.8-.35-.86-.22-.92-.06-.94v-36m0-36v-36l.07-.94.23-.9.36-.88.48-.8.6-.72.73-.6.8-.5.88-.37.92-.22.94-.07h24.66" stroke="#000" stroke-width="3" fill="none"/><use xlink:href="#J" transform="matrix(1,0,0,1,2377.4358008646905,2729.480417140511) translate(13.494999999999997 38.77777777777778)"/><use xlink:href="#b" transform="matrix(1,0,0,1,2377.4358008646905,2729.480417140511) translate(121.505 38.77777777777778)"/><use xlink:href="#I" transform="matrix(1,0,0,1,2377.4358008646905,2729.480417140511) translate(72.48648148148149 65.44444444444446)"/><path d="M2533.6 2523.7a6.05 6.05 0 0 1 8.5 0l41.5 41.14a5.95 5.95 0 0 1 0 8.45l-41.5 41.12a6.05 6.05 0 0 1-8.5 0l-41.5-41.13a5.95 5.95 0 0 1 0-8.46z" stroke="#3a414a" fill="#fff"/><use xlink:href="#u" transform="matrix(1,0,0,1,2492.847732290899,2524.482352541926) translate(28.3691975308642 48.71527777777778)"/><path d="M2537.85 2451.67v53.4" stroke="#3a414a" fill="none"/><path d="M2538.32 2451.7h-.95v-.53h.95z" stroke="#3a414a" stroke-width=".05" fill="#3a414a"/><path d="M2537.85 2519.83l-4.64-14.26h9.28z" stroke="#3a414a" fill="#3a414a"/><path d="M2537.5 2617.05l-80.9 86.94" stroke="#3a414a" fill="none"/><path d="M2537.85 2617.38l-.7-.65.1-.1.6.05.7-.05z" stroke="#3a414a" stroke-width=".05" fill="#3a414a"/><path d="M2446.54 2714.8l6.32-13.6 6.8 6.3z" stroke="#3a414a" fill="#3a414a"/><path d="M2538.27 2616.95l159.48 99.64" stroke="#3a414a" fill="none"/><path d="M2536.83 2616.6l1.02.08.63-.05-.45.72-1.2-.75z" stroke="#3a414a" stroke-width=".05" fill="#3a414a"/><path d="M2710.27 2724.4l-14.55-3.62 4.9-7.86z" stroke="#3a414a" fill="#3a414a"/><path d="M2445.04 2839.3l-7.87 6.2m-7.87 6.23l-15.74 12.43m-7.87 6.22l-15.76 12.43m-7.87 6.23l-15.74 12.44m-7.87 6.22l-15.74 12.42m-7.88 6.22l-15.74 12.43m-7.87 6.22l-15.74 12.43m-7.88 6.22l-15.74 12.43m-7.88 6.22l-15.74 12.44m-7.87 6.2l-15.75 12.45m-7.87 6.2l-7.88 6.22" stroke="#3a414a" fill="none"/><path d="M2445.33 2839.67l-.55-.7h1.42z" stroke="#3a414a" stroke-width=".05" fill="#3a414a"/><path d="M2197.32 3034.98l8.32-12.48 5.75 7.27z" stroke="#3a414a" fill="#3a414a"/><path d="M2711.17 2848.44l-9.25 3.37m-9.26 3.38l-18.5 6.74m-9.26 3.37l-18.5 6.72m-9.26 3.37l-18.5 6.73m-9.26 3.37l-18.5 6.74m-9.27 3.37l-18.5 6.75m-9.25 3.37l-18.5 6.73m-9.26 3.37l-18.52 6.74m-9.26 3.37l-18.5 6.74m-9.26 3.37l-18.5 6.74m-9.26 3.37l-18.5 6.73m-9.26 3.37l-18.5 6.74m-9.27 3.36l-18.5 6.74m-9.26 3.37l-18.5 6.74m-9.25 3.38l-18.5 6.74m-9.26 3.36l-18.52 6.74m-9.26 3.37l-18.5 6.73m-9.26 3.37l-18.5 6.74m-9.26 3.37l-9.26 3.38" stroke="#3a414a" fill="none"/><path d="M2711.32 2848.9l-.22-.63h1.93z" stroke="#3a414a" stroke-width=".05" fill="#3a414a"/><path d="M2197.57 3035.43l11.82-9.24 3.16 8.7z" stroke="#3a414a" fill="#3a414a"/><path d="M3260 1607.46a6 6 0 0 1 6-6h148a6 6 0 0 1 6 6v108a6 6 0 0 1-6 6h-148a6 6 0 0 1-6-6z" stroke="#000" stroke-width="3" fill="#fff"/><use xlink:href="#K" transform="matrix(1,0,0,1,3272,1613.4632557148727) translate(13.494999999999997 38.77777777777778)"/><use xlink:href="#b" transform="matrix(1,0,0,1,3272,1613.4632557148727) translate(121.505 38.77777777777778)"/><use xlink:href="#p" transform="matrix(1,0,0,1,3272,1613.4632557148727) translate(72.48648148148149 65.44444444444446)"/><path d="M2980 1606a6 6 0 0 1 6-6h148a6 6 0 0 1 6 6v108a6 6 0 0 1-6 6h-148a6 6 0 0 1-6-6z" fill="#fff"/><path d="M3035.33 1600h49.34m24.66 0H3134l.94.07.9.22.88.35.8.5.72.6.6.72.5.8.37.88.23.9.07.95v36m0 36v36l-.07.94-.22.9-.35.88-.5.8-.6.72-.72.6-.8.5-.88.37-.9.23-.95.07h-24.67m-24.66 0h-49.34m-24.66 0H2986l-.94-.07-.9-.22-.88-.35-.8-.5-.72-.6-.6-.72-.5-.8-.37-.88-.23-.9-.07-.95v-36m0-36v-36l.07-.94.22-.9.35-.88.5-.8.6-.72.72-.6.8-.5.88-.37.9-.23.95-.07h24.67" stroke="#000" stroke-width="3" fill="none"/><use xlink:href="#L" transform="matrix(1,0,0,1,2992,1612) translate(13.494999999999997 38.77777777777778)"/><use xlink:href="#b" transform="matrix(1,0,0,1,2992,1612) translate(121.505 38.77777777777778)"/><use xlink:href="#p" transform="matrix(1,0,0,1,2992,1612) translate(72.48648148148149 65.44444444444446)"/><path d="M3205.74 1344.22a6.05 6.05 0 0 1 8.52 0l41.48 41.14a5.95 5.95 0 0 1 0 8.45l-41.48 41.14a6.05 6.05 0 0 1-8.52 0l-41.48-41.13a5.95 5.95 0 0 1 0-8.44z" stroke="#3a414a" fill="#fff"/><use xlink:href="#u" transform="matrix(1,0,0,1,3165,1345) translate(28.3691975308642 48.71527777777778)"/><path d="M2020.38 301.63l1177.3 1029.55" stroke="#3a414a" fill="none"/><path d="M2020.07 302l-.8-.7h1.4z" stroke="#3a414a" stroke-width=".05" fill="#3a414a"/><path d="M3208.78 1340.9l-13.8-5.9 6.1-6.98z" stroke="#3a414a" fill="#3a414a"/><path d="M3210.3 1437.6l119.47 149.56" stroke="#3a414a" fill="none"/><path d="M3210 1437.2l.57-.05.12.15-.75.6-.6-.75z" stroke="#3a414a" stroke-width=".05" fill="#3a414a"/><path d="M3339 1598.7l-12.53-8.26 7.24-5.78z" stroke="#3a414a" fill="#3a414a"/><path d="M3209.66 1437.56l-138.5 148.94" stroke="#3a414a" fill="none"/><path d="M3210 1437.9l-.7-.65.1-.1.6.05.7-.06z" stroke="#3a414a" stroke-width=".05" fill="#3a414a"/><path d="M3061.1 1597.32l6.32-13.6 6.8 6.3z" stroke="#3a414a" fill="#3a414a"/><path d="M3059.73 1721.92l-512.93 785.8" stroke="#3a414a" fill="none"/><path d="M3060.12 1722.2l-.8-.53.1-.17h1.15z" stroke="#3a414a" stroke-width=".05" fill="#3a414a"/><path d="M2538.73 2520.1l3.92-14.48 7.76 5.06z" stroke="#3a414a" fill="#3a414a"/><path d="M3339.73 1723.4l-619.4 988" stroke="#3a414a" fill="none"/><path d="M3340.13 1723.65l-.8-.5.1-.2h1.13z" stroke="#3a414a" stroke-width=".05" fill="#3a414a"/><path d="M2712.5 2723.9l3.65-14.55 7.86 4.92z" stroke="#3a414a" fill="#3a414a"/><path d="M-194.26 1324.22a6.05 6.05 0 0 1 8.52 0l41.48 41.14a5.95 5.95 0 0 1 0 8.45l-41.48 41.14a6.05 6.05 0 0 1-8.52 0l-41.48-41.13a5.95 5.95 0 0 1 0-8.44z" stroke="#3a414a" fill="#fff"/><use xlink:href="#u" transform="matrix(1,0,0,1,-235,1325) translate(28.3691975308642 48.71527777777778)"/><path d="M501.94 1021.67l-246.6 92.1" stroke="#3a414a" fill="none"/><path d="M502.1 1022.12l-.24-.62h1.9z" stroke="#3a414a" stroke-width=".05" fill="#3a414a"/><path d="M241.52 1118.93l11.74-9.33 3.24 8.7z" stroke="#3a414a" fill="#3a414a"/><path d="M-190.47 1417.37L-684.57 1593" stroke="#3a414a" fill="none"/><path d="M-187 1416.64l-3.32 1.18-.24-.67.56.05 1.02-.08 1-.24.92-.38z" stroke="#3a414a" stroke-width=".05" fill="#3a414a"/><path d="M-698.48 1597.96l11.9-9.15 3.1 8.75z" stroke="#3a414a" fill="#3a414a"/><path d="M60 1606a6 6 0 0 1 6-6h148a6 6 0 0 1 6 6v108a6 6 0 0 1-6 6H66a6 6 0 0 1-6-6z" fill="#fff"/><path d="M115.33 1600h49.34m24.66 0H214l.94.07.9.22.88.35.8.5.72.6.6.72.5.8.37.88.23.9.07.95v36m0 36v36l-.07.94-.22.9-.35.88-.5.8-.6.72-.72.6-.8.5-.88.37-.9.23-.95.07h-24.67m-24.66 0h-49.34m-24.66 0H66l-.94-.07-.9-.22-.88-.35-.8-.5-.72-.6-.6-.72-.5-.8-.37-.88-.23-.9-.07-.95v-36m0-36v-36l.07-.94.22-.9.35-.88.5-.8.6-.72.72-.6.8-.5.88-.37.9-.23.95-.07h24.67" stroke="#000" stroke-width="3" fill="none"/><use xlink:href="#M" transform="matrix(1,0,0,1,72,1612) translate(13.494999999999997 38.77777777777778)"/><use xlink:href="#b" transform="matrix(1,0,0,1,72,1612) translate(121.505 38.77777777777778)"/><use xlink:href="#p" transform="matrix(1,0,0,1,72,1612) translate(72.48648148148149 65.44444444444446)"/><path d="M-189.57 1417.45l301.44 172.9" stroke="#3a414a" fill="none"/><path d="M-191.02 1417.12l1.02.08.62-.05-.4.7-1.37-.76z" stroke="#3a414a" stroke-width=".05" fill="#3a414a"/><path d="M124.68 1597.7l-14.68-3.08 4.6-8.04z" stroke="#3a414a" fill="#3a414a"/><path d="M-19.6 301.6l2366.48 1768.1" stroke="#3a414a" fill="none"/><path d="M-19.87 301.98l-.92-.68h1.44z" stroke="#3a414a" stroke-width=".05" fill="#3a414a"/><path d="M2358.7 2078.53l-14.2-4.82 5.55-7.42z" stroke="#3a414a" fill="#3a414a"/><path d="M-1020 312.53v199.83" stroke="#3a414a" fill="none"/><path d="M-1019.52 312.54h-.96v-.5h.96z" stroke="#3a414a" stroke-width=".05" fill="#3a414a"/><path d="M-1020 527.12l-4.63-14.26h9.27z" stroke="#3a414a" fill="#3a414a"/><path d="M-680 386.2a6 6 0 0 1 6-6h108a6 6 0 0 1 6 6v48.84a6 6 0 0 1-6 6h-108a6 6 0 0 1-6-6z" stroke="#3a414a" fill="#fff"/><use xlink:href="#n" transform="matrix(1,0,0,1,-675,385.20346428512767) translate(31.60493827160494 30.52777777777778)"/><path d="M-620 312.53v50.8" stroke="#3a414a" fill="none"/><path d="M-619.52 312.54h-.96v-.5h.96z" stroke="#3a414a" stroke-width=".05" fill="#3a414a"/><path d="M-620 378.08l-4.63-14.26h9.26z" stroke="#3a414a" fill="#3a414a"/><path d="M205.74 704.23a6.05 6.05 0 0 1 8.52 0l41.48 41.13a5.95 5.95 0 0 1 0 8.45l-41.48 41.14a6.05 6.05 0 0 1-8.52 0l-41.48-41.13a5.95 5.95 0 0 1 0-8.44z" stroke="#3a414a" fill="#fff"/><use xlink:href="#u" transform="matrix(1,0,0,1,165,705) translate(28.3691975308642 48.71527777777778)"/><path d="M-619.52 441.7l813.9 255.36" stroke="#3a414a" fill="none"/><path d="M-619.65 442.14l-1.94-.6h2.14z" stroke="#3a414a" stroke-width=".05" fill="#3a414a"/><path d="M208.46 701.5l-15 .14 2.77-8.85z" stroke="#3a414a" fill="#3a414a"/><path d="M210.47 797.36l276.46 95.78" stroke="#3a414a" fill="none"/><path d="M208 796.88l.98.24 1.02.08.56-.05-.23.66-3.32-1.14.07-.16z" stroke="#3a414a" stroke-width=".05" fill="#3a414a"/><path d="M500.88 897.97l-15-.3 3.04-8.75z" stroke="#3a414a" fill="#3a414a"/><path d="M-180 906a6 6 0 0 1 6-6h148a6 6 0 0 1 6 6v108a6 6 0 0 1-6 6h-148a6 6 0 0 1-6-6z" stroke="#000" stroke-width="3" fill="#fff"/><use xlink:href="#N" transform="matrix(1,0,0,1,-168,912) translate(13.494999999999997 38.77777777777778)"/><use xlink:href="#b" transform="matrix(1,0,0,1,-168,912) translate(121.505 38.77777777777778)"/><use xlink:href="#r" transform="matrix(1,0,0,1,-168,912) translate(72.48648148148149 65.44444444444446)"/><path d="M209.53 797.36l-287.67 95.96" stroke="#3a414a" fill="none"/><path d="M213 796.7l-3.34 1.1-.22-.65.56.05 1.02-.08 1-.24.9-.38z" stroke="#3a414a" stroke-width=".05" fill="#3a414a"/><path d="M-92.14 898l12.06-8.92 2.94 8.8z" stroke="#3a414a" fill="#3a414a"/><path d="M1905.18 904.7a6 6 0 0 1 6-6h148a6 6 0 0 1 6 6v108a6 6 0 0 1-6 6h-148a6 6 0 0 1-6-6z" stroke="#000" stroke-width="3" fill="#fff"/><use xlink:href="#s" transform="matrix(1,0,0,1,1917.176137147584,910.69575522485) translate(13.494999999999997 38.77777777777778)"/><use xlink:href="#b" transform="matrix(1,0,0,1,1917.176137147584,910.69575522485) translate(121.505 38.77777777777778)"/><use xlink:href="#r" transform="matrix(1,0,0,1,1917.176137147584,910.69575522485) translate(72.48648148148149 65.44444444444446)"/><path d="M1765.74 667.03a6.05 6.05 0 0 1 8.52 0l41.48 41.13a5.95 5.95 0 0 1 0 8.45l-41.48 41.14a6.05 6.05 0 0 1-8.52 0l-41.48-41.13a5.95 5.95 0 0 1 0-8.44z" stroke="#3a414a" fill="#fff"/><use xlink:href="#u" transform="matrix(1,0,0,1,1725,667.8024485763588) translate(28.3691975308642 48.71527777777778)"/><path d="M-619.5 441.58l2373.2 221.67" stroke="#3a414a" fill="none"/><path d="M-619.53 442.06l-3.5-.33.02-.2h3.5z" stroke="#3a414a" stroke-width=".05" fill="#3a414a"/><path d="M1768.4 664.62l-14.65 3.3.87-9.24z" stroke="#3a414a" fill="#3a414a"/><path d="M1770.4 760.28l189.54 127.76" stroke="#3a414a" fill="none"/><path d="M1770 760l.65-.05-.5.73-1.1-.75z" stroke="#3a414a" stroke-width=".05" fill="#3a414a"/><path d="M1972.2 896.3l-14.43-4.14 5.18-7.7z" stroke="#3a414a" fill="#3a414a"/><path d="M1440 912.9a6 6 0 0 1 6-6h148a6 6 0 0 1 6 6v108a6 6 0 0 1-6 6h-148a6 6 0 0 1-6-6z" fill="#fff"/><path d="M1495.33 906.9h49.34m24.66 0H1594l.94.08.9.22.88.36.8.5.72.6.6.72.5.8.37.88.23.9.07.95v36m0 36v36l-.07.95-.22.9-.35.88-.5.8-.6.72-.72.6-.8.5-.88.37-.9.22-.95.07h-24.67m-24.66 0h-49.34m-24.66 0H1446l-.94-.07-.9-.2-.88-.38-.8-.5-.72-.6-.6-.7-.5-.82-.37-.87-.23-.9-.07-.95v-36m0-36v-36l.07-.93.22-.92.35-.87.5-.8.6-.7.72-.63.8-.5.88-.35.9-.22.95-.07h24.67" stroke="#1071e5" stroke-width="3" fill="none"/><use xlink:href="#O" transform="matrix(1,0,0,1,1452,918.9091419278673) translate(13.494999999999997 38.77777777777778)"/><use xlink:href="#b" transform="matrix(1,0,0,1,1452,918.9091419278673) translate(121.505 38.77777777777778)"/><use xlink:href="#r" transform="matrix(1,0,0,1,1452,918.9091419278673) translate(72.48648148148149 65.44444444444446)"/><path d="M1769.57 760.25l-235.4 136.92" stroke="#3a414a" fill="none"/><path d="M1769.8 760.67l-.42-.72.62.05 1.02-.08.1-.02z" stroke="#3a414a" stroke-width=".05" fill="#3a414a"/><path d="M1521.4 904.6l10-11.18 4.66 8z" stroke="#3a414a" fill="#3a414a"/><path d="M180 1126a6 6 0 0 1 6-6h108a6 6 0 0 1 6 6v48.83a6 6 0 0 1-6 6H186a6 6 0 0 1-6-6z" stroke="#3a414a" fill="#fff"/><use xlink:href="#n" transform="matrix(1,0,0,1,185,1125) translate(31.60493827160494 30.52777777777778)"/><path d="M-99.52 1021.64l323.78 93.32" stroke="#3a414a" fill="none"/><path d="M-99.64 1022.1l-2.08-.6h2.25z" stroke="#3a414a" stroke-width=".05" fill="#3a414a"/><path d="M238.44 1119.05l-15 .5 2.58-8.9z" stroke="#3a414a" fill="#3a414a"/><path d="M240.43 1181.6L2179.5 2319.87" stroke="#3a414a" fill="none"/><path d="M240.2 1182l-1.14-.67h1.53z" stroke="#3a414a" stroke-width=".05" fill="#3a414a"/><path d="M2192.24 2327.35l-14.65-3.22 4.68-8z" stroke="#3a414a" fill="#3a414a"/><path d="M239.53 1181.5l-413.96 135.38" stroke="#3a414a" fill="none"/><path d="M239.66 1181.94l-.2-.6h2.07z" stroke="#3a414a" stroke-width=".05" fill="#3a414a"/><path d="M-188.46 1321.47l12.12-8.84 2.88 8.8z" stroke="#3a414a" fill="#3a414a"/><path d="M-699.5 1721.56l3043.23 356.04" stroke="#3a414a" fill="none"/><path d="M-699.55 1722.03l-3.5-.4.03-.13h3.54z" stroke="#3a414a" stroke-width=".05" fill="#3a414a"/><path d="M2358.4 2079.3l-14.72 2.96 1.08-9.2z" stroke="#3a414a" fill="#3a414a"/><path d="M1000 2335.67a6 6 0 0 1 6-6h148a6 6 0 0 1 6 6v108a6 6 0 0 1-6 6h-148a6 6 0 0 1-6-6z" stroke="#000" stroke-width="3" fill="#fff"/><g><use xlink:href="#A" transform="matrix(1,0,0,1,1012,2341.673373833448) translate(13.494999999999997 38.77777777777778)"/><use xlink:href="#b" transform="matrix(1,0,0,1,1012,2341.673373833448) translate(121.505 38.77777777777778)"/><use xlink:href="#y" transform="matrix(1,0,0,1,1012,2341.673373833448) translate(72.48648148148149 65.44444444444446)"/></g><path d="M140.42 1721.77l925.8 597.52" stroke="#3a414a" fill="none"/><path d="M140.17 1722.18l-1.05-.68h1.5z" stroke="#3a414a" stroke-width=".05" fill="#3a414a"/><path d="M1078.64 2327.3l-14.5-3.85 5.03-7.78z" stroke="#3a414a" fill="#3a414a"/><path d="M1080.44 2451.4l1101.1 576.98" stroke="#3a414a" fill="none"/><path d="M1080.23 2451.83l-1.25-.66h1.6z" stroke="#3a414a" stroke-width=".05" fill="#3a414a"/><path d="M2194.6 3035.23l-14.77-2.52 4.3-8.2z" stroke="#3a414a" fill="#3a414a"/><path d="M1985.66 1020.32l1208.5 317.5" stroke="#3a414a" fill="none"/><path d="M1985.55 1020.8l-2.24-.6h2.4z" stroke="#3a414a" stroke-width=".05" fill="#3a414a"/><path d="M3208.43 1341.56l-14.97.86 2.36-8.97z" stroke="#3a414a" fill="#3a414a"/><path d="M1520 1028.9v10.02m0 10.02v20.03m0 10v20.04m0 10.02v20.03m0 10.02v20.02m0 10v20.04m0 10v20.04m0 10v20.04m0 10.02v20.03m0 10v20.04m0 10.02v20.03m0 10.02v20.02m0 10v20.04m0 10v20.04m0 10v20.04m0 10.02v20.03m0 10v20.04m0 10.02v20.03m0 10v20.04m0 10v20.04m0 10v20.04m0 10v20.04m0 10.02v20.02m0 10.02v20.03m0 10.02v20.03m0 10V1790m0 10v20.04m0 10v20.04m0 10v20.04m0 10.02v20.02m0 10.02v20.03m0 10.02v20.03m0 10v20.04m0 10v20.03m0 10.02v20.03m0 10v20.04m0 10v20.04m0 10.02v20.03m0 10.02v20.03m0 10v20.04m0 10v20.03m0 10.02v20.03m0 10v20.04m0 10v20.04m0 10.02v20.02m0 10.02v20.03m0 10v20.04m0 10v20.03m0 10.02v20.03m0 10v20.04m0 10v20.04m0 10.02v20.02m0 10.02v20.03m0 10v20.04m0 10v20.03m0 10.02v20.03m0 10v20.04m0 10v20.04m0 10v20.04m0 10.02v20.03m0 10v20.04m0 10v20.03m0 10.02v20.02m0 10.02v20.02m0 10v20.04m0 10v20.04m0 10.02v20.03m0 10v20.04m0 10v20.03m0 10v20.04m0 10.02v20.02m0 10v20.04m0 10V3202m0 10.02v20.03m0 10v20.04m0 10v10.02" stroke="#3a414a" fill="none"/><path d="M1520.47 1028.92h-.94v-.5h.94z" stroke="#3a414a" stroke-width=".05" fill="#3a414a"/><path d="M1520 3296.88l-4.63-14.26h9.27z" stroke="#3a414a" fill="#3a414a"/><path d="M766.8-274a6 6 0 0 1 6-6h148a6 6 0 0 1 6 6v108a6 6 0 0 1-6 6h-148a6 6 0 0 1-6-6z" stroke="#000" stroke-width="3" fill="#fff"/><g><use xlink:href="#P" transform="matrix(1,0,0,1,778.8000000000002,-268) translate(13.494999999999997 38.77777777777778)"/><use xlink:href="#b" transform="matrix(1,0,0,1,778.8000000000002,-268) translate(121.505 38.77777777777778)"/><use xlink:href="#Q" transform="matrix(1,0,0,1,778.8000000000002,-268) translate(72.48648148148149 65.44444444444446)"/></g><path d="M790-93.8a6 6 0 0 1 6-6h108a6 6 0 0 1 6 6v48.84a6 6 0 0 1-6 6H796a6 6 0 0 1-6-6z" stroke="#3a414a" fill="#fff"/><g><use xlink:href="#n" transform="matrix(1,0,0,1,795,-94.79653571487228) translate(31.60493827160494 30.52777777777778)"/></g><path d="M848.12-158l.88 41.32" stroke="#3a414a" fill="none"/><path d="M848.6-158l-.96.02v-.52h.94z" stroke="#3a414a" stroke-width=".05" fill="#3a414a"/><path d="M849.3-101.9l-4.93-14.18 9.27-.2z" stroke="#3a414a" fill="#3a414a"/><path d="M849.64-38.1L-88.34 887" stroke="#3a414a" fill="none"/><path d="M849.97-37.77l-.67-.67.02-.02h1.36z" stroke="#3a414a" stroke-width=".05" fill="#3a414a"/><path d="M-98.85 897.36l6.9-13.3 6.5 6.6z" stroke="#3a414a" fill="#3a414a"/><path d="M1040 185.8a6 6 0 0 1 6-6h148a6 6 0 0 1 6 6v108a6 6 0 0 1-6 6h-148a6 6 0 0 1-6-6z" stroke="#000" stroke-width="3" fill="#fff"/><g><use xlink:href="#R" transform="matrix(1,0,0,1,1052,191.79653571487233) translate(13.494999999999997 38.77777777777778)"/><use xlink:href="#b" transform="matrix(1,0,0,1,1052,191.79653571487233) translate(121.505 38.77777777777778)"/><use xlink:href="#t" transform="matrix(1,0,0,1,1052,191.79653571487233) translate(72.48648148148149 65.44444444444446)"/></g><path d="M850.35-38.1l204.37 204.8" stroke="#3a414a" fill="none"/><path d="M850.7-38.44l-.67.67-.7-.7h1.34z" stroke="#3a414a" stroke-width=".05" fill="#3a414a"/><path d="M1065.15 177.15l-13.36-6.82 6.56-6.55z" stroke="#3a414a" fill="#3a414a"/><path d="M1119.64 301.64L514.2 887.1" stroke="#3a414a" fill="none"/><path d="M1119.96 302l-.66-.7H1120.68z" stroke="#3a414a" stroke-width=".05" fill="#3a414a"/><path d="M503.57 897.38l7.04-13.25 6.45 6.66z" stroke="#3a414a" fill="#3a414a"/><path d="M-770 914.2a6 6 0 0 1 6-6h148a6 6 0 0 1 6 6v108a6 6 0 0 1-6 6h-148a6 6 0 0 1-6-6z" stroke="#000" stroke-width="3" fill="#fff"/><g><use xlink:href="#S" transform="matrix(1,0,0,1,-758,920.2133867030172) translate(26.672839506172842 53.77777777777778)"/></g><path d="M-1024.26 531a6.05 6.05 0 0 1 8.52 0l41.48 41.13a5.95 5.95 0 0 1 0 8.45l-41.48 41.13a6.05 6.05 0 0 1-8.52 0l-41.48-41.12a5.95 5.95 0 0 1 0-8.45z" stroke="#3a414a" fill="#fff"/><g><use xlink:href="#u" transform="matrix(1,0,0,1,-1065,531.771692412293) translate(28.3691975308642 48.71527777777778)"/></g><path d="M-1020.34 624.34l-248.57 270.3" stroke="#3a414a" fill="none"/><path d="M-1020 624.67l-.7-.64.1-.1.6.04.7-.06z" stroke="#3a414a" stroke-width=".05" fill="#3a414a"/><path d="M-1278.9 905.52l6.24-13.64 6.82 6.28z" stroke="#3a414a" fill="#3a414a"/><path d="M-1019.62 624.3l317.18 271.75" stroke="#3a414a" fill="none"/><path d="M-1020 623.97l.67-.05.03.02-.62.72-.88-.75z" stroke="#3a414a" stroke-width=".05" fill="#3a414a"/><path d="M-691.23 905.66l-13.85-5.76 6.03-7.04z" stroke="#3a414a" fill="#3a414a"/><path d="M-689.54 1029.9l3212.2 1292.16" stroke="#3a414a" fill="none"/><path d="M-689.7 1030.35l-1.57-.64h1.82z" stroke="#3a414a" stroke-width=".05" fill="#3a414a"/><path d="M2536.35 2327.57l-14.97-1.02 3.46-8.6z" stroke="#3a414a" fill="#3a414a"/><path d="M2980-274a6 6 0 0 1 6-6h148a6 6 0 0 1 6 6v108a6 6 0 0 1-6 6h-148a6 6 0 0 1-6-6z" stroke="#1071e5" stroke-width="3" fill="#fff"/><g><use xlink:href="#T" transform="matrix(1,0,0,1,2992,-268) translate(26.672839506172842 53.77777777777778)"/></g><path d="M3061-158v1740.12M3059-158v1740.12" stroke="#3a414a" fill="none"/><path d="M3061.47-158h-.94v-.5h.94zM3059.47-158h-.94v-.5h.94z" stroke="#3a414a" stroke-width=".05" fill="#3a414a"/><path d="M3060 1596.88l-4.64-14.26h9.28z" stroke="#3a414a" fill="#3a414a"/><defs><path fill="#3a414a" d="M212-179c-10-28-35-45-73-45-59 0-87 40-87 99 0 60 29 101 89 101 43 0 62-24 78-52l27 14C228-24 195 4 139 4 59 4 22-46 18-125c-6-104 99-153 187-111 19 9 31 26 39 46" id="U"/><path fill="#3a414a" d="M185-189c-5-48-123-54-124 2 14 75 158 14 163 119 3 78-121 87-175 55-17-10-28-26-33-46l33-7c5 56 141 63 141-1 0-78-155-14-162-118-5-82 145-84 179-34 5 7 8 16 11 25" id="V"/><path fill="#3a414a" d="M54-142c48-35 137-8 131 61C196 18 31 33 14-55l32-4c7 23 22 37 52 37 35-1 51-22 54-58 4-55-73-65-99-34H22l8-134h141v27H59" id="W"/><path fill="#3a414a" d="M64 0c3-98 48-159 88-221H18v-27h164v26C143-157 98-101 97 0H64" id="X"/><path fill="#3a414a" d="M126-127c33 6 58 20 58 59 0 88-139 92-164 29-3-8-5-16-6-25l32-3c6 27 21 44 54 44 32 0 52-15 52-46 0-38-36-46-79-43v-28c39 1 72-4 72-42 0-27-17-43-46-43-28 0-47 15-49 41l-32-3c6-42 35-63 81-64 48-1 79 21 79 65 0 36-21 52-52 59" id="Y"/><path fill="#3a414a" d="M101-251c68 0 85 55 85 127S166 4 100 4C33 4 14-52 14-124c0-73 17-127 87-127zm-1 229c47 0 54-49 54-102s-4-102-53-102c-51 0-55 48-55 102 0 53 5 102 54 102" id="Z"/><g id="a"><use transform="matrix(0.06172839506172839,0,0,0.06172839506172839,0,0)" xlink:href="#U"/><use transform="matrix(0.06172839506172839,0,0,0.06172839506172839,15.987654320987653,0)" xlink:href="#V"/><use transform="matrix(0.06172839506172839,0,0,0.06172839506172839,30.80246913580247,0)" xlink:href="#W"/><use transform="matrix(0.06172839506172839,0,0,0.06172839506172839,43.148148148148145,0)" xlink:href="#X"/><use transform="matrix(0.06172839506172839,0,0,0.06172839506172839,55.49382716049382,0)" xlink:href="#Y"/><use transform="matrix(0.06172839506172839,0,0,0.06172839506172839,67.8395061728395,0)" xlink:href="#Z"/></g><path fill="#1071e5" d="M87 75C49 33 22-17 22-94c0-76 28-126 65-167h31c-38 41-64 92-64 168S80 34 118 75H87" id="aa"/><path fill="#1071e5" d="M134-131c28 9 52 24 51 62-1 50-34 73-85 73S17-19 16-69c0-36 21-54 49-61-75-25-45-126 34-121 46 3 78 18 79 63 0 33-17 51-44 57zm-34-11c31 1 46-15 46-44 0-28-17-43-47-42-29 0-46 13-45 42 1 28 16 44 46 44zm1 122c35 0 51-18 51-52 0-30-18-46-53-46-33 0-51 17-51 47 0 34 19 51 53 51" id="ab"/><path fill="#1071e5" d="M33-261c38 41 65 92 65 168S71 34 33 75H2C39 34 66-17 66-93S39-220 2-261h31" id="ac"/><g id="c"><use transform="matrix(0.06172839506172839,0,0,0.06172839506172839,0,0)" xlink:href="#aa"/><use transform="matrix(0.06172839506172839,0,0,0.06172839506172839,7.345679012345679,0)" xlink:href="#ab"/><use transform="matrix(0.06172839506172839,0,0,0.06172839506172839,19.691358024691358,0)" xlink:href="#ac"/></g><path fill="#3a414a" d="M101-251c82-7 93 87 43 132L82-64C71-53 59-42 53-27h129V0H18c2-99 128-94 128-182 0-28-16-43-45-43s-46 15-49 41l-32-3c6-41 34-60 81-64" id="ad"/><g id="d"><use transform="matrix(0.06172839506172839,0,0,0.06172839506172839,0,0)" xlink:href="#U"/><use transform="matrix(0.06172839506172839,0,0,0.06172839506172839,15.987654320987653,0)" xlink:href="#V"/><use transform="matrix(0.06172839506172839,0,0,0.06172839506172839,30.80246913580247,0)" xlink:href="#W"/><use transform="matrix(0.06172839506172839,0,0,0.06172839506172839,43.148148148148145,0)" xlink:href="#X"/><use transform="matrix(0.06172839506172839,0,0,0.06172839506172839,55.49382716049382,0)" xlink:href="#ad"/><use transform="matrix(0.06172839506172839,0,0,0.06172839506172839,67.8395061728395,0)" xlink:href="#Z"/></g><path fill="#3a414a" d="M134-131c28 9 52 24 51 62-1 50-34 73-85 73S17-19 16-69c0-36 21-54 49-61-75-25-45-126 34-121 46 3 78 18 79 63 0 33-17 51-44 57zm-34-11c31 1 46-15 46-44 0-28-17-43-47-42-29 0-46 13-45 42 1 28 16 44 46 44zm1 122c35 0 51-18 51-52 0-30-18-46-53-46-33 0-51 17-51 47 0 34 19 51 53 51" id="ae"/><path fill="#3a414a" d="M27 0v-27h64v-190l-56 39v-29l58-41h29v221h61V0H27" id="af"/><g id="e"><use transform="matrix(0.06172839506172839,0,0,0.06172839506172839,0,0)" xlink:href="#U"/><use transform="matrix(0.06172839506172839,0,0,0.06172839506172839,15.987654320987653,0)" xlink:href="#V"/><use transform="matrix(0.06172839506172839,0,0,0.06172839506172839,30.80246913580247,0)" xlink:href="#W"/><use transform="matrix(0.06172839506172839,0,0,0.06172839506172839,43.148148148148145,0)" xlink:href="#ae"/><use transform="matrix(0.06172839506172839,0,0,0.06172839506172839,55.49382716049382,0)" xlink:href="#af"/><use transform="matrix(0.06172839506172839,0,0,0.06172839506172839,67.8395061728395,0)" xlink:href="#Z"/></g><g id="f"><use transform="matrix(0.06172839506172839,0,0,0.06172839506172839,0,0)" xlink:href="#U"/><use transform="matrix(0.06172839506172839,0,0,0.06172839506172839,15.987654320987653,0)" xlink:href="#V"/><use transform="matrix(0.06172839506172839,0,0,0.06172839506172839,30.80246913580247,0)" xlink:href="#W"/><use transform="matrix(0.06172839506172839,0,0,0.06172839506172839,43.148148148148145,0)" xlink:href="#X"/><use transform="matrix(0.06172839506172839,0,0,0.06172839506172839,55.49382716049382,0)" xlink:href="#af"/><use transform="matrix(0.06172839506172839,0,0,0.06172839506172839,67.8395061728395,0)" xlink:href="#Z"/></g><path fill="#1071e5" d="M64 0c3-98 48-159 88-221H18v-27h164v26C143-157 98-101 97 0H64" id="ag"/><g id="g"><use transform="matrix(0.06172839506172839,0,0,0.06172839506172839,0,0)" xlink:href="#aa"/><use transform="matrix(0.06172839506172839,0,0,0.06172839506172839,7.345679012345679,0)" xlink:href="#ag"/><use transform="matrix(0.06172839506172839,0,0,0.06172839506172839,19.691358024691358,0)" xlink:href="#ac"/></g><path fill="#3a414a" d="M110-160c48 1 74 30 74 79 0 53-28 85-80 85-65 0-83-55-86-122-5-90 50-162 133-122 14 7 22 21 27 39l-31 6c-5-40-67-38-82-6-9 19-15 44-15 74 11-20 30-34 60-33zm-7 138c34 0 49-23 49-58s-16-56-50-56c-29 0-50 16-49 49 1 36 15 65 50 65" id="ah"/><g id="h"><use transform="matrix(0.06172839506172839,0,0,0.06172839506172839,0,0)" xlink:href="#U"/><use transform="matrix(0.06172839506172839,0,0,0.06172839506172839,15.987654320987653,0)" xlink:href="#V"/><use transform="matrix(0.06172839506172839,0,0,0.06172839506172839,30.80246913580247,0)" xlink:href="#W"/><use transform="matrix(0.06172839506172839,0,0,0.06172839506172839,43.148148148148145,0)" xlink:href="#ah"/><use transform="matrix(0.06172839506172839,0,0,0.06172839506172839,55.49382716049382,0)" xlink:href="#af"/><use transform="matrix(0.06172839506172839,0,0,0.06172839506172839,67.8395061728395,0)" xlink:href="#Z"/></g><path fill="#3a414a" d="M155-56V0h-30v-56H8v-25l114-167h33v167h35v25h-35zm-30-156c-27 46-58 90-88 131h88v-131" id="ai"/><g id="i"><use transform="matrix(0.06172839506172839,0,0,0.06172839506172839,0,0)" xlink:href="#U"/><use transform="matrix(0.06172839506172839,0,0,0.06172839506172839,15.987654320987653,0)" xlink:href="#V"/><use transform="matrix(0.06172839506172839,0,0,0.06172839506172839,30.80246913580247,0)" xlink:href="#ai"/><use transform="matrix(0.06172839506172839,0,0,0.06172839506172839,43.148148148148145,0)" xlink:href="#X"/><use transform="matrix(0.06172839506172839,0,0,0.06172839506172839,55.49382716049382,0)" xlink:href="#af"/><use transform="matrix(0.06172839506172839,0,0,0.06172839506172839,67.8395061728395,0)" xlink:href="#Z"/></g><g id="j"><use transform="matrix(0.06172839506172839,0,0,0.06172839506172839,0,0)" xlink:href="#U"/><use transform="matrix(0.06172839506172839,0,0,0.06172839506172839,15.987654320987653,0)" xlink:href="#V"/><use transform="matrix(0.06172839506172839,0,0,0.06172839506172839,30.80246913580247,0)" xlink:href="#ai"/><use transform="matrix(0.06172839506172839,0,0,0.06172839506172839,43.148148148148145,0)" xlink:href="#X"/><use transform="matrix(0.06172839506172839,0,0,0.06172839506172839,55.49382716049382,0)" xlink:href="#Z"/><use transform="matrix(0.06172839506172839,0,0,0.06172839506172839,67.8395061728395,0)" xlink:href="#W"/></g><path fill="#1071e5" d="M110-160c48 1 74 30 74 79 0 53-28 85-80 85-65 0-83-55-86-122-5-90 50-162 133-122 14 7 22 21 27 39l-31 6c-5-40-67-38-82-6-9 19-15 44-15 74 11-20 30-34 60-33zm-7 138c34 0 49-23 49-58s-16-56-50-56c-29 0-50 16-49 49 1 36 15 65 50 65" id="aj"/><g id="k"><use transform="matrix(0.06172839506172839,0,0,0.06172839506172839,0,0)" xlink:href="#aa"/><use transform="matrix(0.06172839506172839,0,0,0.06172839506172839,7.345679012345679,0)" xlink:href="#aj"/><use transform="matrix(0.06172839506172839,0,0,0.06172839506172839,19.691358024691358,0)" xlink:href="#ac"/></g><g id="l"><use transform="matrix(0.06172839506172839,0,0,0.06172839506172839,0,0)" xlink:href="#U"/><use transform="matrix(0.06172839506172839,0,0,0.06172839506172839,15.987654320987653,0)" xlink:href="#V"/><use transform="matrix(0.06172839506172839,0,0,0.06172839506172839,30.80246913580247,0)" xlink:href="#ai"/><use transform="matrix(0.06172839506172839,0,0,0.06172839506172839,43.148148148148145,0)" xlink:href="#ah"/><use transform="matrix(0.06172839506172839,0,0,0.06172839506172839,55.49382716049382,0)" xlink:href="#af"/><use transform="matrix(0.06172839506172839,0,0,0.06172839506172839,67.8395061728395,0)" xlink:href="#Z"/></g><g id="m"><use transform="matrix(0.06172839506172839,0,0,0.06172839506172839,0,0)" xlink:href="#U"/><use transform="matrix(0.06172839506172839,0,0,0.06172839506172839,15.987654320987653,0)" xlink:href="#V"/><use transform="matrix(0.06172839506172839,0,0,0.06172839506172839,30.80246913580247,0)" xlink:href="#ai"/><use transform="matrix(0.06172839506172839,0,0,0.06172839506172839,43.148148148148145,0)" xlink:href="#ai"/><use transform="matrix(0.06172839506172839,0,0,0.06172839506172839,55.49382716049382,0)" xlink:href="#Z"/><use transform="matrix(0.06172839506172839,0,0,0.06172839506172839,67.8395061728395,0)" xlink:href="#Z"/></g><path d="M205 0l-28-72H64L36 0H1l101-248h38L239 0h-34zm-38-99l-47-123c-12 45-31 82-46 123h93" id="ak"/><path d="M190 0L58-211 59 0H30v-248h39L202-35l-2-213h31V0h-41" id="al"/><path d="M30-248c118-7 216 8 213 122C240-48 200 0 122 0H30v-248zM63-27c89 8 146-16 146-99s-60-101-146-95v194" id="am"/><g id="n"><use transform="matrix(0.06172839506172839,0,0,0.06172839506172839,0,0)" xlink:href="#ak"/><use transform="matrix(0.06172839506172839,0,0,0.06172839506172839,14.814814814814813,0)" xlink:href="#al"/><use transform="matrix(0.06172839506172839,0,0,0.06172839506172839,30.80246913580247,0)" xlink:href="#am"/></g><g id="o"><use transform="matrix(0.06172839506172839,0,0,0.06172839506172839,0,0)" xlink:href="#U"/><use transform="matrix(0.06172839506172839,0,0,0.06172839506172839,15.987654320987653,0)" xlink:href="#V"/><use transform="matrix(0.06172839506172839,0,0,0.06172839506172839,30.80246913580247,0)" xlink:href="#Y"/><use transform="matrix(0.06172839506172839,0,0,0.06172839506172839,43.148148148148145,0)" xlink:href="#ae"/><use transform="matrix(0.06172839506172839,0,0,0.06172839506172839,55.49382716049382,0)" xlink:href="#af"/><use transform="matrix(0.06172839506172839,0,0,0.06172839506172839,67.8395061728395,0)" xlink:href="#Z"/></g><path fill="#008a0e" d="M87 75C49 33 22-17 22-94c0-76 28-126 65-167h31c-38 41-64 92-64 168S80 34 118 75H87" id="an"/><path fill="#008a0e" d="M54-142c48-35 137-8 131 61C196 18 31 33 14-55l32-4c7 23 22 37 52 37 35-1 51-22 54-58 4-55-73-65-99-34H22l8-134h141v27H59" id="ao"/><path fill="#008a0e" d="M33-261c38 41 65 92 65 168S71 34 33 75H2C39 34 66-17 66-93S39-220 2-261h31" id="ap"/><g id="p"><use transform="matrix(0.06172839506172839,0,0,0.06172839506172839,0,0)" xlink:href="#an"/><use transform="matrix(0.06172839506172839,0,0,0.06172839506172839,7.345679012345679,0)" xlink:href="#ao"/><use transform="matrix(0.06172839506172839,0,0,0.06172839506172839,19.691358024691358,0)" xlink:href="#ap"/></g><g id="q"><use transform="matrix(0.06172839506172839,0,0,0.06172839506172839,0,0)" xlink:href="#U"/><use transform="matrix(0.06172839506172839,0,0,0.06172839506172839,15.987654320987653,0)" xlink:href="#V"/><use transform="matrix(0.06172839506172839,0,0,0.06172839506172839,30.80246913580247,0)" xlink:href="#ai"/><use transform="matrix(0.06172839506172839,0,0,0.06172839506172839,43.148148148148145,0)" xlink:href="#W"/><use transform="matrix(0.06172839506172839,0,0,0.06172839506172839,55.49382716049382,0)" xlink:href="#W"/><use transform="matrix(0.06172839506172839,0,0,0.06172839506172839,67.8395061728395,0)" xlink:href="#Z"/></g><path fill="#008a0e" d="M110-160c48 1 74 30 74 79 0 53-28 85-80 85-65 0-83-55-86-122-5-90 50-162 133-122 14 7 22 21 27 39l-31 6c-5-40-67-38-82-6-9 19-15 44-15 74 11-20 30-34 60-33zm-7 138c34 0 49-23 49-58s-16-56-50-56c-29 0-50 16-49 49 1 36 15 65 50 65" id="aq"/><g id="r"><use transform="matrix(0.06172839506172839,0,0,0.06172839506172839,0,0)" xlink:href="#an"/><use transform="matrix(0.06172839506172839,0,0,0.06172839506172839,7.345679012345679,0)" xlink:href="#aq"/><use transform="matrix(0.06172839506172839,0,0,0.06172839506172839,19.691358024691358,0)" xlink:href="#ap"/></g><path fill="#3a414a" d="M240 0l2-218c-23 76-54 145-80 218h-23L58-218 59 0H30v-248h44l77 211c21-75 51-140 76-211h43V0h-30" id="ar"/><path fill="#3a414a" d="M205 0l-28-72H64L36 0H1l101-248h38L239 0h-34zm-38-99l-47-123c-12 45-31 82-46 123h93" id="as"/><g id="s"><use transform="matrix(0.06172839506172839,0,0,0.06172839506172839,0,0)" xlink:href="#ar"/><use transform="matrix(0.06172839506172839,0,0,0.06172839506172839,18.456790123456788,0)" xlink:href="#as"/><use transform="matrix(0.06172839506172839,0,0,0.06172839506172839,33.2716049382716,0)" xlink:href="#Y"/><use transform="matrix(0.06172839506172839,0,0,0.06172839506172839,45.61728395061728,0)" xlink:href="#ad"/><use transform="matrix(0.06172839506172839,0,0,0.06172839506172839,57.962962962962955,0)" xlink:href="#af"/><use transform="matrix(0.06172839506172839,0,0,0.06172839506172839,70.30864197530863,0)" xlink:href="#Z"/></g><path fill="#008a0e" d="M64 0c3-98 48-159 88-221H18v-27h164v26C143-157 98-101 97 0H64" id="at"/><g id="t"><use transform="matrix(0.06172839506172839,0,0,0.06172839506172839,0,0)" xlink:href="#an"/><use transform="matrix(0.06172839506172839,0,0,0.06172839506172839,7.345679012345679,0)" xlink:href="#at"/><use transform="matrix(0.06172839506172839,0,0,0.06172839506172839,19.691358024691358,0)" xlink:href="#ap"/></g><path d="M140-251c81 0 123 46 123 126C263-46 219 4 140 4 59 4 17-45 17-125s42-126 123-126zm0 227c63 0 89-41 89-101s-29-99-89-99c-61 0-89 39-89 99S79-25 140-24" id="au"/><path d="M233-177c-1 41-23 64-60 70L243 0h-38l-65-103H63V0H30v-248c88 3 205-21 203 71zM63-129c60-2 137 13 137-47 0-61-80-42-137-45v92" id="av"/><g id="u"><use transform="matrix(0.06172839506172839,0,0,0.06172839506172839,0,0)" xlink:href="#au"/><use transform="matrix(0.06172839506172839,0,0,0.06172839506172839,17.28395061728395,0)" xlink:href="#av"/></g><g id="v"><use transform="matrix(0.06172839506172839,0,0,0.06172839506172839,0,0)" xlink:href="#U"/><use transform="matrix(0.06172839506172839,0,0,0.06172839506172839,15.987654320987653,0)" xlink:href="#V"/><use transform="matrix(0.06172839506172839,0,0,0.06172839506172839,30.80246913580247,0)" xlink:href="#Y"/><use transform="matrix(0.06172839506172839,0,0,0.06172839506172839,43.148148148148145,0)" xlink:href="#ah"/><use transform="matrix(0.06172839506172839,0,0,0.06172839506172839,55.49382716049382,0)" xlink:href="#ad"/><use transform="matrix(0.06172839506172839,0,0,0.06172839506172839,67.8395061728395,0)" xlink:href="#Z"/></g><path fill="#3a414a" d="M99-251c64 0 84 50 84 122C183-37 130 33 47-8c-14-7-20-23-25-40l30-5c6 39 69 39 84 7 9-19 16-44 16-74-10 22-31 35-62 35-49 0-73-33-73-83 0-54 28-83 82-83zm-1 141c31-1 51-18 51-49 0-36-14-67-51-67-34 0-49 23-49 58 0 34 15 58 49 58" id="aw"/><g id="w"><use transform="matrix(0.06172839506172839,0,0,0.06172839506172839,0,0)" xlink:href="#U"/><use transform="matrix(0.06172839506172839,0,0,0.06172839506172839,15.987654320987653,0)" xlink:href="#V"/><use transform="matrix(0.06172839506172839,0,0,0.06172839506172839,30.80246913580247,0)" xlink:href="#Y"/><use transform="matrix(0.06172839506172839,0,0,0.06172839506172839,43.148148148148145,0)" xlink:href="#aw"/><use transform="matrix(0.06172839506172839,0,0,0.06172839506172839,55.49382716049382,0)" xlink:href="#af"/><use transform="matrix(0.06172839506172839,0,0,0.06172839506172839,66.17283950617283,0)" xlink:href="#af"/></g><g id="x"><use transform="matrix(0.06172839506172839,0,0,0.06172839506172839,0,0)" xlink:href="#U"/><use transform="matrix(0.06172839506172839,0,0,0.06172839506172839,15.987654320987653,0)" xlink:href="#V"/><use transform="matrix(0.06172839506172839,0,0,0.06172839506172839,30.80246913580247,0)" xlink:href="#ad"/><use transform="matrix(0.06172839506172839,0,0,0.06172839506172839,43.148148148148145,0)" xlink:href="#W"/><use transform="matrix(0.06172839506172839,0,0,0.06172839506172839,55.49382716049382,0)" xlink:href="#af"/><use transform="matrix(0.06172839506172839,0,0,0.06172839506172839,66.17283950617283,0)" xlink:href="#af"/></g><path fill="#008a0e" d="M155-56V0h-30v-56H8v-25l114-167h33v167h35v25h-35zm-30-156c-27 46-58 90-88 131h88v-131" id="ax"/><g id="y"><use transform="matrix(0.06172839506172839,0,0,0.06172839506172839,0,0)" xlink:href="#an"/><use transform="matrix(0.06172839506172839,0,0,0.06172839506172839,7.345679012345679,0)" xlink:href="#ax"/><use transform="matrix(0.06172839506172839,0,0,0.06172839506172839,19.691358024691358,0)" xlink:href="#ap"/></g><g id="z"><use transform="matrix(0.06172839506172839,0,0,0.06172839506172839,0,0)" xlink:href="#ar"/><use transform="matrix(0.06172839506172839,0,0,0.06172839506172839,18.456790123456788,0)" xlink:href="#as"/><use transform="matrix(0.06172839506172839,0,0,0.06172839506172839,33.2716049382716,0)" xlink:href="#Y"/><use transform="matrix(0.06172839506172839,0,0,0.06172839506172839,45.61728395061728,0)" xlink:href="#Z"/><use transform="matrix(0.06172839506172839,0,0,0.06172839506172839,57.962962962962955,0)" xlink:href="#Y"/><use transform="matrix(0.06172839506172839,0,0,0.06172839506172839,70.30864197530863,0)" xlink:href="#Z"/></g><g id="A"><use transform="matrix(0.06172839506172839,0,0,0.06172839506172839,0,0)" xlink:href="#U"/><use transform="matrix(0.06172839506172839,0,0,0.06172839506172839,15.987654320987653,0)" xlink:href="#V"/><use transform="matrix(0.06172839506172839,0,0,0.06172839506172839,30.80246913580247,0)" xlink:href="#ad"/><use transform="matrix(0.06172839506172839,0,0,0.06172839506172839,43.148148148148145,0)" xlink:href="#W"/><use transform="matrix(0.06172839506172839,0,0,0.06172839506172839,55.49382716049382,0)" xlink:href="#af"/><use transform="matrix(0.06172839506172839,0,0,0.06172839506172839,67.8395061728395,0)" xlink:href="#Z"/></g><path fill="#3a414a" d="M87 75C49 33 22-17 22-94c0-76 28-126 65-167h31c-38 41-64 92-64 168S80 34 118 75H87" id="ay"/><path fill="#008a0e" d="M126-127c33 6 58 20 58 59 0 88-139 92-164 29-3-8-5-16-6-25l32-3c6 27 21 44 54 44 32 0 52-15 52-46 0-38-36-46-79-43v-28c39 1 72-4 72-42 0-27-17-43-46-43-28 0-47 15-49 41l-32-3c6-42 35-63 81-64 48-1 79 21 79 65 0 36-21 52-52 59" id="az"/><g id="B"><use transform="matrix(0.06172839506172839,0,0,0.06172839506172839,0,0)" xlink:href="#ay"/><use transform="matrix(0.06172839506172839,0,0,0.06172839506172839,7.345679012345679,0)" xlink:href="#az"/><use transform="matrix(0.06172839506172839,0,0,0.06172839506172839,19.691358024691358,0)" xlink:href="#ap"/></g><g id="C"><use transform="matrix(0.06172839506172839,0,0,0.06172839506172839,0,0)" xlink:href="#ar"/><use transform="matrix(0.06172839506172839,0,0,0.06172839506172839,18.456790123456788,0)" xlink:href="#as"/><use transform="matrix(0.06172839506172839,0,0,0.06172839506172839,33.2716049382716,0)" xlink:href="#af"/><use transform="matrix(0.06172839506172839,0,0,0.06172839506172839,45.61728395061728,0)" xlink:href="#Z"/><use transform="matrix(0.06172839506172839,0,0,0.06172839506172839,57.962962962962955,0)" xlink:href="#ad"/><use transform="matrix(0.06172839506172839,0,0,0.06172839506172839,70.30864197530863,0)" xlink:href="#Z"/></g><path fill="#008a0e" d="M101-251c82-7 93 87 43 132L82-64C71-53 59-42 53-27h129V0H18c2-99 128-94 128-182 0-28-16-43-45-43s-46 15-49 41l-32-3c6-41 34-60 81-64" id="aA"/><g id="D"><use transform="matrix(0.06172839506172839,0,0,0.06172839506172839,0,0)" xlink:href="#an"/><use transform="matrix(0.06172839506172839,0,0,0.06172839506172839,7.345679012345679,0)" xlink:href="#aA"/><use transform="matrix(0.06172839506172839,0,0,0.06172839506172839,19.691358024691358,0)" xlink:href="#ap"/></g><path fill="#e81313" d="M240 0l2-218c-23 76-54 145-80 218h-23L58-218 59 0H30v-248h44l77 211c21-75 51-140 76-211h43V0h-30" id="aB"/><path fill="#e81313" d="M205 0l-28-72H64L36 0H1l101-248h38L239 0h-34zm-38-99l-47-123c-12 45-31 82-46 123h93" id="aC"/><path fill="#e81313" d="M27 0v-27h64v-190l-56 39v-29l58-41h29v221h61V0H27" id="aD"/><path fill="#e81313" d="M101-251c68 0 85 55 85 127S166 4 100 4C33 4 14-52 14-124c0-73 17-127 87-127zm-1 229c47 0 54-49 54-102s-4-102-53-102c-51 0-55 48-55 102 0 53 5 102 54 102" id="aE"/><g id="E"><use transform="matrix(0.06172839506172839,0,0,0.06172839506172839,0,0)" xlink:href="#aB"/><use transform="matrix(0.06172839506172839,0,0,0.06172839506172839,18.456790123456788,0)" xlink:href="#aC"/><use transform="matrix(0.06172839506172839,0,0,0.06172839506172839,33.2716049382716,0)" xlink:href="#aD"/><use transform="matrix(0.06172839506172839,0,0,0.06172839506172839,45.61728395061728,0)" xlink:href="#aE"/><use transform="matrix(0.06172839506172839,0,0,0.06172839506172839,57.962962962962955,0)" xlink:href="#aD"/><use transform="matrix(0.06172839506172839,0,0,0.06172839506172839,70.30864197530863,0)" xlink:href="#aE"/></g><path fill="#e81313" d="M87 75C49 33 22-17 22-94c0-76 28-126 65-167h31c-38 41-64 92-64 168S80 34 118 75H87" id="aF"/><path fill="#e81313" d="M33-261c38 41 65 92 65 168S71 34 33 75H2C39 34 66-17 66-93S39-220 2-261h31" id="aG"/><g id="G"><use transform="matrix(0.06172839506172839,0,0,0.06172839506172839,0,0)" xlink:href="#aF"/><use transform="matrix(0.06172839506172839,0,0,0.06172839506172839,7.345679012345679,0)" xlink:href="#aD"/><use transform="matrix(0.06172839506172839,0,0,0.06172839506172839,19.691358024691358,0)" xlink:href="#aG"/></g><g id="H"><use transform="matrix(0.06172839506172839,0,0,0.06172839506172839,0,0)" xlink:href="#ar"/><use transform="matrix(0.06172839506172839,0,0,0.06172839506172839,18.456790123456788,0)" xlink:href="#as"/><use transform="matrix(0.06172839506172839,0,0,0.06172839506172839,33.2716049382716,0)" xlink:href="#ad"/><use transform="matrix(0.06172839506172839,0,0,0.06172839506172839,45.61728395061728,0)" xlink:href="#Z"/><use transform="matrix(0.06172839506172839,0,0,0.06172839506172839,57.962962962962955,0)" xlink:href="#aw"/><use transform="matrix(0.06172839506172839,0,0,0.06172839506172839,70.30864197530863,0)" xlink:href="#Z"/></g><g id="I"><use transform="matrix(0.06172839506172839,0,0,0.06172839506172839,0,0)" xlink:href="#an"/><use transform="matrix(0.06172839506172839,0,0,0.06172839506172839,7.345679012345679,0)" xlink:href="#az"/><use transform="matrix(0.06172839506172839,0,0,0.06172839506172839,19.691358024691358,0)" xlink:href="#ap"/></g><g id="J"><use transform="matrix(0.06172839506172839,0,0,0.06172839506172839,0,0)" xlink:href="#ar"/><use transform="matrix(0.06172839506172839,0,0,0.06172839506172839,18.456790123456788,0)" xlink:href="#as"/><use transform="matrix(0.06172839506172839,0,0,0.06172839506172839,33.2716049382716,0)" xlink:href="#ad"/><use transform="matrix(0.06172839506172839,0,0,0.06172839506172839,45.61728395061728,0)" xlink:href="#Z"/><use transform="matrix(0.06172839506172839,0,0,0.06172839506172839,57.962962962962955,0)" xlink:href="#ae"/><use transform="matrix(0.06172839506172839,0,0,0.06172839506172839,70.30864197530863,0)" xlink:href="#Z"/></g><g id="K"><use transform="matrix(0.06172839506172839,0,0,0.06172839506172839,0,0)" xlink:href="#ar"/><use transform="matrix(0.06172839506172839,0,0,0.06172839506172839,18.456790123456788,0)" xlink:href="#as"/><use transform="matrix(0.06172839506172839,0,0,0.06172839506172839,33.2716049382716,0)" xlink:href="#ad"/><use transform="matrix(0.06172839506172839,0,0,0.06172839506172839,45.61728395061728,0)" xlink:href="#Y"/><use transform="matrix(0.06172839506172839,0,0,0.06172839506172839,57.962962962962955,0)" xlink:href="#af"/><use transform="matrix(0.06172839506172839,0,0,0.06172839506172839,70.30864197530863,0)" xlink:href="#Z"/></g><g id="L"><use transform="matrix(0.06172839506172839,0,0,0.06172839506172839,0,0)" xlink:href="#ar"/><use transform="matrix(0.06172839506172839,0,0,0.06172839506172839,18.456790123456788,0)" xlink:href="#as"/><use transform="matrix(0.06172839506172839,0,0,0.06172839506172839,33.2716049382716,0)" xlink:href="#ad"/><use transform="matrix(0.06172839506172839,0,0,0.06172839506172839,45.61728395061728,0)" xlink:href="#Y"/><use transform="matrix(0.06172839506172839,0,0,0.06172839506172839,57.962962962962955,0)" xlink:href="#Z"/><use transform="matrix(0.06172839506172839,0,0,0.06172839506172839,70.30864197530863,0)" xlink:href="#Z"/></g><g id="M"><use transform="matrix(0.06172839506172839,0,0,0.06172839506172839,0,0)" xlink:href="#U"/><use transform="matrix(0.06172839506172839,0,0,0.06172839506172839,15.987654320987653,0)" xlink:href="#V"/><use transform="matrix(0.06172839506172839,0,0,0.06172839506172839,30.80246913580247,0)" xlink:href="#Y"/><use transform="matrix(0.06172839506172839,0,0,0.06172839506172839,43.148148148148145,0)" xlink:href="#ah"/><use transform="matrix(0.06172839506172839,0,0,0.06172839506172839,55.49382716049382,0)" xlink:href="#af"/><use transform="matrix(0.06172839506172839,0,0,0.06172839506172839,66.17283950617283,0)" xlink:href="#af"/></g><g id="N"><use transform="matrix(0.06172839506172839,0,0,0.06172839506172839,0,0)" xlink:href="#U"/><use transform="matrix(0.06172839506172839,0,0,0.06172839506172839,15.987654320987653,0)" xlink:href="#V"/><use transform="matrix(0.06172839506172839,0,0,0.06172839506172839,30.80246913580247,0)" xlink:href="#ai"/><use transform="matrix(0.06172839506172839,0,0,0.06172839506172839,43.148148148148145,0)" xlink:href="#W"/><use transform="matrix(0.06172839506172839,0,0,0.06172839506172839,55.49382716049382,0)" xlink:href="#Z"/><use transform="matrix(0.06172839506172839,0,0,0.06172839506172839,67.8395061728395,0)" xlink:href="#af"/></g><g id="O"><use transform="matrix(0.06172839506172839,0,0,0.06172839506172839,0,0)" xlink:href="#ar"/><use transform="matrix(0.06172839506172839,0,0,0.06172839506172839,18.456790123456788,0)" xlink:href="#as"/><use transform="matrix(0.06172839506172839,0,0,0.06172839506172839,33.2716049382716,0)" xlink:href="#ad"/><use transform="matrix(0.06172839506172839,0,0,0.06172839506172839,45.61728395061728,0)" xlink:href="#Z"/><use transform="matrix(0.06172839506172839,0,0,0.06172839506172839,57.962962962962955,0)" xlink:href="#Z"/><use transform="matrix(0.06172839506172839,0,0,0.06172839506172839,70.30864197530863,0)" xlink:href="#Z"/></g><g id="P"><use transform="matrix(0.06172839506172839,0,0,0.06172839506172839,0,0)" xlink:href="#U"/><use transform="matrix(0.06172839506172839,0,0,0.06172839506172839,15.987654320987653,0)" xlink:href="#V"/><use transform="matrix(0.06172839506172839,0,0,0.06172839506172839,30.80246913580247,0)" xlink:href="#W"/><use transform="matrix(0.06172839506172839,0,0,0.06172839506172839,43.148148148148145,0)" xlink:href="#aw"/><use transform="matrix(0.06172839506172839,0,0,0.06172839506172839,55.49382716049382,0)" xlink:href="#af"/><use transform="matrix(0.06172839506172839,0,0,0.06172839506172839,67.8395061728395,0)" xlink:href="#Z"/></g><path fill="#008a0e" d="M134-131c28 9 52 24 51 62-1 50-34 73-85 73S17-19 16-69c0-36 21-54 49-61-75-25-45-126 34-121 46 3 78 18 79 63 0 33-17 51-44 57zm-34-11c31 1 46-15 46-44 0-28-17-43-47-42-29 0-46 13-45 42 1 28 16 44 46 44zm1 122c35 0 51-18 51-52 0-30-18-46-53-46-33 0-51 17-51 47 0 34 19 51 53 51" id="aH"/><g id="Q"><use transform="matrix(0.06172839506172839,0,0,0.06172839506172839,0,0)" xlink:href="#an"/><use transform="matrix(0.06172839506172839,0,0,0.06172839506172839,7.345679012345679,0)" xlink:href="#aH"/><use transform="matrix(0.06172839506172839,0,0,0.06172839506172839,19.691358024691358,0)" xlink:href="#ap"/></g><g id="R"><use transform="matrix(0.06172839506172839,0,0,0.06172839506172839,0,0)" xlink:href="#U"/><use transform="matrix(0.06172839506172839,0,0,0.06172839506172839,15.987654320987653,0)" xlink:href="#V"/><use transform="matrix(0.06172839506172839,0,0,0.06172839506172839,30.80246913580247,0)" xlink:href="#ai"/><use transform="matrix(0.06172839506172839,0,0,0.06172839506172839,43.148148148148145,0)" xlink:href="#X"/><use transform="matrix(0.06172839506172839,0,0,0.06172839506172839,55.49382716049382,0)" xlink:href="#ad"/><use transform="matrix(0.06172839506172839,0,0,0.06172839506172839,67.8395061728395,0)" xlink:href="#Z"/></g><g id="S"><use transform="matrix(0.06172839506172839,0,0,0.06172839506172839,0,0)" xlink:href="#ar"/><use transform="matrix(0.06172839506172839,0,0,0.06172839506172839,18.456790123456788,0)" xlink:href="#as"/><use transform="matrix(0.06172839506172839,0,0,0.06172839506172839,33.2716049382716,0)" xlink:href="#ai"/><use transform="matrix(0.06172839506172839,0,0,0.06172839506172839,45.61728395061728,0)" xlink:href="#af"/><use transform="matrix(0.06172839506172839,0,0,0.06172839506172839,57.962962962962955,0)" xlink:href="#Z"/><use transform="matrix(0.06172839506172839,0,0,0.06172839506172839,70.30864197530863,0)" xlink:href="#Z"/></g><g id="T"><use transform="matrix(0.06172839506172839,0,0,0.06172839506172839,0,0)" xlink:href="#ar"/><use transform="matrix(0.06172839506172839,0,0,0.06172839506172839,18.456790123456788,0)" xlink:href="#as"/><use transform="matrix(0.06172839506172839,0,0,0.06172839506172839,33.2716049382716,0)" xlink:href="#Y"/><use transform="matrix(0.06172839506172839,0,0,0.06172839506172839,45.61728395061728,0)" xlink:href="#af"/><use transform="matrix(0.06172839506172839,0,0,0.06172839506172839,57.962962962962955,0)" xlink:href="#ah"/><use transform="matrix(0.06172839506172839,0,0,0.06172839506172839,70.30864197530863,0)" xlink:href="#Z"/></g></defs></g></svg>