<svg xmlns="http://www.w3.org/2000/svg" xmlns:xlink="http://www.w3.org/1999/xlink" xmlns:lucid="lucid" width="3591" height="2130"><g transform="translate(1049 1041)" lucid:page-tab-id="8Do3f8YJM-sq"><path d="M-1696-1296h5152v2656h-5152z" fill="#fff"/><path d="M187.05-946.3a6 6 0 0 1 6-6h148a6 6 0 0 1 6 6v108a6 6 0 0 1-6 6h-148a6 6 0 0 1-6-6z" stroke="#1071e5" stroke-width="3" fill="#fff"/><use xlink:href="#a" transform="matrix(1,0,0,1,199.0497811704995,-940.301175008519) translate(13.494999999999997 38.77777777777778)"/><use xlink:href="#b" transform="matrix(1,0,0,1,199.0497811704995,-940.301175008519) translate(121.505 38.77777777777778)"/><use xlink:href="#c" transform="matrix(1,0,0,1,199.0497811704995,-940.301175008519) translate(72.48648148148149 65.44444444444446)"/><path d="M841.73-942.44a6 6 0 0 1 6-6h148a6 6 0 0 1 6 6v108a6 6 0 0 1-6 6h-148a6 6 0 0 1-6-6z" stroke="#1071e5" stroke-width="3" fill="#fff"/><use xlink:href="#d" transform="matrix(1,0,0,1,853.7302674657562,-936.4379192936467) translate(13.494999999999997 38.77777777777778)"/><use xlink:href="#b" transform="matrix(1,0,0,1,853.7302674657562,-936.4379192936467) translate(121.505 38.77777777777778)"/><use xlink:href="#c" transform="matrix(1,0,0,1,853.7302674657562,-936.4379192936467) translate(72.48648148148149 65.44444444444446)"/><path d="M1041.73-946.3a6 6 0 0 1 6-6h148a6 6 0 0 1 6 6v108a6 6 0 0 1-6 6h-148a6 6 0 0 1-6-6z" stroke="#1071e5" stroke-width="3" fill="#fff"/><use xlink:href="#e" transform="matrix(1,0,0,1,1053.7302674657558,-940.301175008519) translate(13.494999999999997 38.77777777777778)"/><use xlink:href="#b" transform="matrix(1,0,0,1,1053.7302674657558,-940.301175008519) translate(121.505 38.77777777777778)"/><use xlink:href="#c" transform="matrix(1,0,0,1,1053.7302674657558,-940.301175008519) translate(72.48648148148149 65.44444444444446)"/><path d="M-420-946.3a6 6 0 0 1 6-6h148a6 6 0 0 1 6 6v108a6 6 0 0 1-6 6h-148a6 6 0 0 1-6-6z" stroke="#1071e5" stroke-width="3" fill="#fff"/><use xlink:href="#f" transform="matrix(1,0,0,1,-408,-940.301175008519) translate(13.494999999999997 38.77777777777778)"/><use xlink:href="#g" transform="matrix(1,0,0,1,-408,-940.301175008519) translate(121.505 38.77777777777778)"/><use xlink:href="#h" transform="matrix(1,0,0,1,-408,-940.301175008519) translate(72.48648148148149 65.44444444444446)"/><path d="M-12.95-946.3a6 6 0 0 1 6-6h148a6 6 0 0 1 6 6v108a6 6 0 0 1-6 6h-148a6 6 0 0 1-6-6z" stroke="#000" stroke-width="3" fill="#fff"/><use xlink:href="#i" transform="matrix(1,0,0,1,-0.9502188294998177,-940.301175008519) translate(13.494999999999997 38.77777777777778)"/><use xlink:href="#b" transform="matrix(1,0,0,1,-0.9502188294998177,-940.301175008519) translate(121.505 38.77777777777778)"/><use xlink:href="#c" transform="matrix(1,0,0,1,-0.9502188294998177,-940.301175008519) translate(72.48648148148149 65.44444444444446)"/><path d="M-988-946.3a6 6 0 0 1 6-6h148a6 6 0 0 1 6 6v108a6 6 0 0 1-6 6h-148a6 6 0 0 1-6-6z" stroke="#000" stroke-width="3" fill="#fff"/><use xlink:href="#j" transform="matrix(1,0,0,1,-976,-940.301175008519) translate(13.494999999999997 38.77777777777778)"/><use xlink:href="#g" transform="matrix(1,0,0,1,-976,-940.301175008519) translate(121.505 38.77777777777778)"/><use xlink:href="#h" transform="matrix(1,0,0,1,-976,-940.301175008519) translate(72.48648148148149 65.44444444444446)"/><path d="M-206-944.37a6 6 0 0 1 6-6h148a6 6 0 0 1 6 6v108a6 6 0 0 1-6 6h-148a6 6 0 0 1-6-6z" stroke="#000" stroke-width="3" fill="#fff"/><use xlink:href="#k" transform="matrix(1,0,0,1,-193.99999999999932,-938.3695471510828) translate(13.494999999999997 38.77777777777778)"/><use xlink:href="#b" transform="matrix(1,0,0,1,-193.99999999999932,-938.3695471510828) translate(121.505 38.77777777777778)"/><use xlink:href="#c" transform="matrix(1,0,0,1,-193.99999999999932,-938.3695471510828) translate(72.48648148148149 65.44444444444446)"/><path d="M1826.54-318.04a6 6 0 0 1 6-6h148a6 6 0 0 1 6 6v108a6 6 0 0 1-6 6h-148a6 6 0 0 1-6-6z" stroke="#000" stroke-width="3" fill="#fff"/><use xlink:href="#l" transform="matrix(1,0,0,1,1838.5394650684875,-312.04133024544103) translate(13.494999999999997 38.77777777777778)"/><use xlink:href="#b" transform="matrix(1,0,0,1,1838.5394650684875,-312.04133024544103) translate(121.505 38.77777777777778)"/><use xlink:href="#c" transform="matrix(1,0,0,1,1838.5394650684875,-312.04133024544103) translate(72.48648148148149 65.44444444444446)"/><path d="M841.73-323.84a6 6 0 0 1 6-6h148a6 6 0 0 1 6 6v108a6 6 0 0 1-6 6h-148a6 6 0 0 1-6-6z" stroke="#000" stroke-width="3" fill="#fff"/><use xlink:href="#m" transform="matrix(1,0,0,1,853.7302674657562,-317.83621381774947) translate(13.494999999999997 38.77777777777778)"/><use xlink:href="#g" transform="matrix(1,0,0,1,853.7302674657562,-317.83621381774947) translate(121.505 38.77777777777778)"/><use xlink:href="#n" transform="matrix(1,0,0,1,853.7302674657562,-317.83621381774947) translate(72.48648148148149 65.44444444444446)"/><path d="M-604-946.3a6 6 0 0 1 6-6h148a6 6 0 0 1 6 6v108a6 6 0 0 1-6 6h-148a6 6 0 0 1-6-6z" stroke="#000" stroke-width="3" fill="#fff"/><use xlink:href="#o" transform="matrix(1,0,0,1,-592,-940.301175008519) translate(13.494999999999997 38.77777777777778)"/><use xlink:href="#g" transform="matrix(1,0,0,1,-592,-940.301175008519) translate(121.505 38.77777777777778)"/><use xlink:href="#h" transform="matrix(1,0,0,1,-592,-940.301175008519) translate(72.48648148148149 65.44444444444446)"/><path d="M1041.73-324.37a6 6 0 0 1 6-6h148a6 6 0 0 1 6 6v108a6 6 0 0 1-6 6h-148a6 6 0 0 1-6-6z" stroke="#000" stroke-width="3" fill="#fff"/><use xlink:href="#p" transform="matrix(1,0,0,1,1053.7302674657558,-318.36954715108277) translate(13.494999999999997 38.77777777777778)"/><use xlink:href="#g" transform="matrix(1,0,0,1,1053.7302674657558,-318.36954715108277) translate(121.505 38.77777777777778)"/><use xlink:href="#h" transform="matrix(1,0,0,1,1053.7302674657558,-318.36954715108277) translate(72.48648148148149 65.44444444444446)"/><path d="M-788-946.3a6 6 0 0 1 6-6h148a6 6 0 0 1 6 6v108a6 6 0 0 1-6 6h-148a6 6 0 0 1-6-6z" stroke="#000" stroke-width="3" fill="#fff"/><use xlink:href="#q" transform="matrix(1,0,0,1,-776,-940.301175008519) translate(13.494999999999997 38.77777777777778)"/><use xlink:href="#g" transform="matrix(1,0,0,1,-776,-940.301175008519) translate(121.505 38.77777777777778)"/><use xlink:href="#h" transform="matrix(1,0,0,1,-776,-940.301175008519) translate(72.48648148148149 65.44444444444446)"/><path d="M2014.8-940.5a6 6 0 0 1 6-6h148a6 6 0 0 1 6 6v108a6 6 0 0 1-6 6h-148a6 6 0 0 1-6-6z" stroke="#000" stroke-width="3" fill="#fff"/><use xlink:href="#r" transform="matrix(1,0,0,1,2026.8091976027313,-934.5062914362105) translate(13.494999999999997 38.77777777777778)"/><use xlink:href="#b" transform="matrix(1,0,0,1,2026.8091976027313,-934.5062914362105) translate(121.505 38.77777777777778)"/><use xlink:href="#c" transform="matrix(1,0,0,1,2026.8091976027313,-934.5062914362105) translate(72.48648148148149 65.44444444444446)"/><path d="M2014.8 206a6 6 0 0 1 6-6h148a6 6 0 0 1 6 6v108a6 6 0 0 1-6 6h-148a6 6 0 0 1-6-6z" stroke="#000" stroke-width="3" fill="#fff"/><use xlink:href="#s" transform="matrix(1,0,0,1,2026.8091976027313,212) translate(13.494999999999997 38.77777777777778)"/><use xlink:href="#b" transform="matrix(1,0,0,1,2026.8091976027313,212) translate(121.505 38.77777777777778)"/><use xlink:href="#t" transform="matrix(1,0,0,1,2026.8091976027313,212) translate(72.48648148148149 65.44444444444446)"/><path d="M2228.27-940.5a6 6 0 0 1 6-6h148a6 6 0 0 1 6 6v108a6 6 0 0 1-6 6h-148a6 6 0 0 1-6-6z" stroke="#000" stroke-width="3" fill="#fff"/><use xlink:href="#u" transform="matrix(1,0,0,1,2240.2697325342438,-934.5062914362105) translate(13.494999999999997 38.77777777777778)"/><use xlink:href="#b" transform="matrix(1,0,0,1,2240.2697325342438,-934.5062914362105) translate(121.505 38.77777777777778)"/><use xlink:href="#c" transform="matrix(1,0,0,1,2240.2697325342438,-934.5062914362105) translate(72.48648148148149 65.44444444444446)"/><path d="M67.05 206a6 6 0 0 1 6-6h148a6 6 0 0 1 6 6v108a6 6 0 0 1-6 6h-148a6 6 0 0 1-6-6z" stroke="#000" stroke-width="3" fill="#fff"/><use xlink:href="#v" transform="matrix(1,0,0,1,79.04978117049973,212) translate(13.494999999999997 38.77777777777778)"/><use xlink:href="#b" transform="matrix(1,0,0,1,79.04978117049973,212) translate(121.505 38.77777777777778)"/><use xlink:href="#w" transform="matrix(1,0,0,1,79.04978117049973,212) translate(72.48648148148149 65.44444444444446)"/><path d="M-420-343.84a6 6 0 0 1 6-6h148a6 6 0 0 1 6 6v108a6 6 0 0 1-6 6h-148a6 6 0 0 1-6-6z" stroke="#000" stroke-width="3" fill="#fff"/><use xlink:href="#x" transform="matrix(1,0,0,1,-408,-337.83621381774947) translate(13.494999999999997 38.77777777777778)"/><use xlink:href="#g" transform="matrix(1,0,0,1,-408,-337.83621381774947) translate(121.505 38.77777777777778)"/><use xlink:href="#n" transform="matrix(1,0,0,1,-408,-337.83621381774947) translate(72.48648148148149 65.44444444444446)"/><path d="M87.05-687.76a6 6 0 0 1 6-6h108a6 6 0 0 1 6 6v48.83a6 6 0 0 1-6 6h-108a6 6 0 0 1-6-6z" stroke="#3a414a" fill="#fff"/><use xlink:href="#y" transform="matrix(1,0,0,1,92.04978117049973,-688.7644307233913) translate(31.60493827160494 30.52777777777778)"/><path d="M266.72-830.43L157.87-706.57" stroke="#3a414a" fill="none"/><path d="M267.07-830.1l-.72-.63.07-.07h1.26z" stroke="#3a414a" stroke-width=".05" fill="#3a414a"/><path d="M148.12-695.48l5.93-13.77 6.97 6.12z" stroke="#3a414a" fill="#3a414a"/><path d="M147.05-631.93v814.05" stroke="#3a414a" fill="none"/><path d="M147.53-631.92h-.96v-.5h.96z" stroke="#3a414a" stroke-width=".05" fill="#3a414a"/><path d="M147.05 196.88l-4.64-14.26h9.28z" stroke="#3a414a" fill="#3a414a"/><path d="M147.52-632.25l758.94 294.98" stroke="#3a414a" fill="none"/><path d="M147.36-631.8l-1.62-.63h1.86z" stroke="#3a414a" stroke-width=".05" fill="#3a414a"/><path d="M920.22-331.92l-14.97-.85 3.36-8.64z" stroke="#3a414a" fill="#3a414a"/><path d="M921.73-826.44v478.72" stroke="#3a414a" fill="none"/><path d="M922.2-826.42h-.95v-.52h.96z" stroke="#3a414a" stroke-width=".05" fill="#3a414a"/><path d="M921.73-332.95l-4.63-14.27h9.27z" stroke="#3a414a" fill="#3a414a"/><path d="M1121.54-830.34l-193.72 483.8" stroke="#3a414a" fill="none"/><path d="M1121.98-830.15l-.88-.35.12-.3h1.02z" stroke="#3a414a" stroke-width=".05" fill="#3a414a"/><path d="M922.33-332.84l1-14.97 8.6 3.44z" stroke="#3a414a" fill="#3a414a"/><path d="M-20-524.37a6 6 0 0 1 6-6H94a6 6 0 0 1 6 6v48.83a6 6 0 0 1-6 6H-14a6 6 0 0 1-6-6z" stroke="#3a414a" fill="#fff"/><use xlink:href="#y" transform="matrix(1,0,0,1,-15,-525.369547151083) translate(31.60493827160494 30.52777777777778)"/><path d="M40.08-468.54l104.38 650.86" stroke="#3a414a" fill="none"/><path d="M40.55-468.6l-.94.15-.08-.6h.96z" stroke="#3a414a" stroke-width=".05" fill="#3a414a"/><path d="M146.8 196.9l-6.84-13.35 9.15-1.47z" stroke="#3a414a" fill="#3a414a"/><path d="M-156-343.84a6 6 0 0 1 6-6H-2a6 6 0 0 1 6 6v108a6 6 0 0 1-6 6h-148a6 6 0 0 1-6-6z" fill="#fff"/><path d="M-100.67-349.84h49.34m24.66 0H-2l.94.08.9.22.88.36.8.5.72.6.6.72.5.8.37.87.23.93.07.93v36m0 36v36l-.07.94-.22.92-.35.87-.5.8-.6.7-.72.62-.8.5-.88.35-.9.22-.95.06h-24.67m-24.66 0h-49.34m-24.66 0H-150l-.94-.07-.9-.23-.88-.36-.8-.48-.72-.6-.6-.73-.5-.8-.37-.88-.23-.92-.07-.94v-36m0-36v-36l.07-.94.22-.9.35-.88.5-.8.6-.72.72-.6.8-.5.88-.36.9-.22.95-.08h24.67" stroke="#000" stroke-width="3" fill="none"/><use xlink:href="#z" transform="matrix(1,0,0,1,-143.99999999999955,-337.83621381774947) translate(13.494999999999997 38.77777777777778)"/><use xlink:href="#b" transform="matrix(1,0,0,1,-143.99999999999955,-337.83621381774947) translate(121.505 38.77777777777778)"/><use xlink:href="#t" transform="matrix(1,0,0,1,-143.99999999999955,-337.83621381774947) translate(72.48648148148149 65.44444444444446)"/><path d="M39.66-468.67L-58.8-363.3" stroke="#3a414a" fill="none"/><path d="M40-468.34l-.7-.65.05-.04h1.3z" stroke="#3a414a" stroke-width=".05" fill="#3a414a"/><path d="M-68.9-352.52l6.36-13.6 6.77 6.34z" stroke="#3a414a" fill="#3a414a"/><path d="M-130.26-725.5a6.05 6.05 0 0 1 8.52 0l41.48 41.14a5.95 5.95 0 0 1 0 8.45l-41.48 41.13a6.05 6.05 0 0 1-8.52 0l-41.48-41.14a5.95 5.95 0 0 1 0-8.46z" stroke="#3a414a" fill="#fff"/><use xlink:href="#A" transform="matrix(1,0,0,1,-170.99999999999932,-724.7161495326219) translate(28.3691975308642 48.71527777777778)"/><path d="M-126-828.37v84.24" stroke="#3a414a" fill="none"/><path d="M-125.53-828.36h-.94v-.5h.94z" stroke="#3a414a" stroke-width=".05" fill="#3a414a"/><path d="M-126-729.37l-4.63-14.26h9.27z" stroke="#3a414a" fill="#3a414a"/><path d="M-125.57-632.26l151.6 92.84" stroke="#3a414a" fill="none"/><path d="M-127.02-632.6l1.02.08.63-.05-.44.72-1.25-.76z" stroke="#3a414a" stroke-width=".05" fill="#3a414a"/><path d="M38.62-531.7l-14.6-3.5 4.86-7.92z" stroke="#3a414a" fill="#3a414a"/><path d="M-126.3-632.12l-203.78 267.75" stroke="#3a414a" fill="none"/><path d="M-125.93-631.82l-.76-.58.14-.16.56.04.64-.05z" stroke="#3a414a" stroke-width=".05" fill="#3a414a"/><path d="M-339.02-352.62l4.95-14.16 7.38 5.6z" stroke="#3a414a" fill="#3a414a"/><path d="M1846.54-34a6 6 0 0 1 6-6h108a6 6 0 0 1 6 6v48.83a6 6 0 0 1-6 6h-108a6 6 0 0 1-6-6z" stroke="#3a414a" fill="#fff"/><use xlink:href="#y" transform="matrix(1,0,0,1,1851.5394650684875,-35) translate(31.60493827160494 30.52777777777778)"/><path d="M1906.54-202.04v145.16" stroke="#3a414a" fill="none"/><path d="M1907-202.03h-.94v-.5h.95z" stroke="#3a414a" stroke-width=".05" fill="#3a414a"/><path d="M1906.54-42.12l-4.64-14.26h9.27z" stroke="#3a414a" fill="#3a414a"/><path d="M1906.04 21.38L163.34 196.86" stroke="#3a414a" fill="none"/><path d="M1909.57 21.5l-3.5.36-.05-.53h3.54z" stroke="#3a414a" stroke-width=".05" fill="#3a414a"/><path d="M148.66 198.34l13.73-6.04.92 9.22z" stroke="#3a414a" fill="#3a414a"/><path d="M1906.9 21.68l175.98 165.6" stroke="#3a414a" fill="none"/><path d="M1907.24 21.34l-.65.7-.75-.7h1.38z" stroke="#3a414a" stroke-width=".05" fill="#3a414a"/><path d="M2093.63 197.4l-13.57-6.4 6.36-6.76z" stroke="#3a414a" fill="#3a414a"/><path d="M67.3-830.37l71.47 121.97" stroke="#3a414a" fill="none"/><path d="M67.72-830.6l-.82.48-.4-.68h1.1z" stroke="#3a414a" stroke-width=".05" fill="#3a414a"/><path d="M146.23-695.66l-11.2-9.97 8-4.68z" stroke="#3a414a" fill="#3a414a"/><path d="M2094.8-824.5V182.1" stroke="#3a414a" fill="none"/><path d="M2095.28-824.5h-.95v-.5h.95z" stroke="#3a414a" stroke-width=".05" fill="#3a414a"/><path d="M2094.8 196.88l-4.63-14.26h9.27z" stroke="#3a414a" fill="#3a414a"/><path d="M2140-324.55a6 6 0 0 1 6-6h148a6 6 0 0 1 6 6v108a6 6 0 0 1-6 6h-148a6 6 0 0 1-6-6z" fill="#fff"/><path d="M2195.33-330.55h49.34m24.66 0H2294l.94.08.9.22.88.36.8.5.72.6.6.73.5.8.37.87.23.9.07.95v36m0 36v36l-.07.94-.22.9-.35.88-.5.8-.6.72-.72.6-.8.5-.88.36-.9.22-.95.07h-24.67m-24.66 0h-49.34m-24.66 0H2146l-.94-.07-.9-.22-.88-.36-.8-.5-.72-.6-.6-.72-.5-.8-.37-.87-.23-.9-.07-.95v-36m0-36v-36l.07-.94.22-.9.35-.87.5-.8.6-.72.72-.6.8-.5.88-.35.9-.22.95-.08h24.67" stroke="#000" stroke-width="3" fill="none"/><use xlink:href="#B" transform="matrix(1,0,0,1,2152,-318.54762168165155) translate(13.494999999999997 38.77777777777778)"/><use xlink:href="#b" transform="matrix(1,0,0,1,2152,-318.54762168165155) translate(121.505 38.77777777777778)"/><use xlink:href="#t" transform="matrix(1,0,0,1,2152,-318.54762168165155) translate(72.48648148148149 65.44444444444446)"/><path d="M2320-324.55a6 6 0 0 1 6-6h148a6 6 0 0 1 6 6v108a6 6 0 0 1-6 6h-148a6 6 0 0 1-6-6z" fill="#fff"/><path d="M2375.33-330.55h49.34m24.66 0H2474l.94.08.9.22.88.36.8.5.72.6.6.73.5.8.37.87.23.9.07.95v36m0 36v36l-.07.94-.22.9-.35.88-.5.8-.6.72-.72.6-.8.5-.88.36-.9.22-.95.07h-24.67m-24.66 0h-49.34m-24.66 0H2326l-.94-.07-.9-.22-.88-.36-.8-.5-.72-.6-.6-.72-.5-.8-.37-.87-.23-.9-.07-.95v-36m0-36v-36l.07-.94.22-.9.35-.87.5-.8.6-.72.72-.6.8-.5.88-.35.9-.22.95-.08h24.67" stroke="#000" stroke-width="3" fill="none"/><use xlink:href="#C" transform="matrix(1,0,0,1,2332,-318.54762168165155) translate(13.494999999999997 38.77777777777778)"/><use xlink:href="#b" transform="matrix(1,0,0,1,2332,-318.54762168165155) translate(121.505 38.77777777777778)"/><use xlink:href="#t" transform="matrix(1,0,0,1,2332,-318.54762168165155) translate(72.48648148148149 65.44444444444446)"/><path d="M2304-661.8a6.05 6.05 0 0 1 8.53 0L2354-620.7a5.95 5.95 0 0 1 0 8.45l-41.47 41.13a6.05 6.05 0 0 1-8.52 0l-41.47-41.13a5.95 5.95 0 0 1 0-8.45z" stroke="#3a414a" fill="#fff"/><use xlink:href="#A" transform="matrix(1,0,0,1,2263.2697325342438,-661.0379192936467) translate(28.3691975308642 48.71527777777778)"/><path d="M2308.27-824.5v144.05" stroke="#3a414a" fill="none"/><path d="M2308.74-824.5h-.94v-.5h.94z" stroke="#3a414a" stroke-width=".05" fill="#3a414a"/><path d="M2308.27-665.7l-4.64-14.25h9.28z" stroke="#3a414a" fill="#3a414a"/><path d="M2308.1-568.37L2225.7-347.4" stroke="#3a414a" fill="none"/><path d="M2308.54-568.2l-.9-.33.14-.35.5.04.5-.04z" stroke="#3a414a" stroke-width=".05" fill="#3a414a"/><path d="M2220.57-333.56l.63-15 8.7 3.25z" stroke="#3a414a" fill="#3a414a"/><path d="M2308.45-568.37l85.63 221.05" stroke="#3a414a" fill="none"/><path d="M2308.27-568.84l.5-.04.13.35-.9.34-.26-.68z" stroke="#3a414a" stroke-width=".05" fill="#3a414a"/><path d="M2399.42-333.56l-9.48-11.63 8.64-3.33z" stroke="#3a414a" fill="#3a414a"/><path d="M2228.27 597.56a6 6 0 0 1 6-6h148a6 6 0 0 1 6 6v108a6 6 0 0 1-6 6h-148a6 6 0 0 1-6-6z" fill="#fff"/><path d="M2283.6 591.56h49.34m24.66 0h24.67l.94.08.92.22.87.36.8.5.7.6.62.7.5.82.36.87.22.92.07.94v36m0 36v36l-.07.94-.22.92-.36.87-.5.8-.6.7-.72.62-.8.5-.88.35-.9.22-.95.06h-24.67m-24.66 0h-49.34m-24.66 0h-24.67l-.94-.07-.9-.23-.88-.36-.8-.48-.72-.62-.6-.7-.5-.8-.37-.88-.22-.92-.07-.94v-36m0-36v-36l.07-.94.22-.9.36-.88.5-.8.6-.72.72-.6.8-.5.88-.36.9-.22.95-.08h24.67" stroke="#000" stroke-width="3" fill="none"/><use xlink:href="#D" transform="matrix(1,0,0,1,2240.2697325342438,603.5620807063534) translate(13.494999999999997 38.77777777777778)"/><use xlink:href="#b" transform="matrix(1,0,0,1,2240.2697325342438,603.5620807063534) translate(121.505 38.77777777777778)"/><use xlink:href="#w" transform="matrix(1,0,0,1,2240.2697325342438,603.5620807063534) translate(72.48648148148149 65.44444444444446)"/><path d="M1140 913.28a6 6 0 0 1 6-6h148a6 6 0 0 1 6 6v108a6 6 0 0 1-6 6h-148a6 6 0 0 1-6-6z" fill="#fff"/><path d="M1195.33 907.28h49.34m24.66 0H1294l.94.07.9.22.88.36.8.5.72.6.6.72.5.8.37.87.23.92.07.94v36m0 36v36l-.07.94-.22.9-.35.88-.5.8-.6.72-.72.6-.8.5-.88.36-.9.22-.95.08h-24.67m-24.66 0h-49.34m-24.66 0H1146l-.94-.08-.9-.22-.88-.36-.8-.5-.72-.6-.6-.7-.5-.82-.37-.87-.23-.9-.07-.95v-36m0-36v-36l.07-.94.22-.92.35-.87.5-.8.6-.7.72-.63.8-.5.88-.35.9-.22.95-.07h24.67" stroke="#000" stroke-width="3" fill="none"/><use xlink:href="#E" transform="matrix(1,0,0,1,1152,919.2781432019265) translate(13.494999999999997 38.77777777777778)"/><use xlink:href="#g" transform="matrix(1,0,0,1,1152,919.2781432019265) translate(121.505 38.77777777777778)"/><use xlink:href="#F" transform="matrix(1,0,0,1,1152,919.2781432019265) translate(72.48648148148149 65.44444444444446)"/><path d="M2399.94-208.55l-89.8 782.34" stroke="#3a414a" fill="none"/><path d="M2400.4-208.48l-.93-.1.05-.47h.96z" stroke="#3a414a" stroke-width=".05" fill="#3a414a"/><path d="M2308.45 588.46l-2.97-14.7 9.2 1.05z" stroke="#3a414a" fill="#3a414a"/><path d="M2220.05-208.55l86.42 782.33" stroke="#3a414a" fill="none"/><path d="M2220.53-208.6l-.95.1-.06-.55h.96z" stroke="#3a414a" stroke-width=".05" fill="#3a414a"/><path d="M2308.1 588.45l-6.18-13.67 9.2-1z" stroke="#3a414a" fill="#3a414a"/><path d="M2307.78 713.15L1236.13 902.92" stroke="#3a414a" fill="none"/><path d="M2307.85 713.62l-.1-.56h3.24z" stroke="#3a414a" stroke-width=".05" fill="#3a414a"/><path d="M1221.6 905.5l13.23-7.06 1.62 9.13z" stroke="#3a414a" fill="#3a414a"/><path d="M-75.77-227.9L139.46 184" stroke="#3a414a" fill="none"/><path d="M-75.34-228.1l-.84.44-.36-.68h1.08z" stroke="#3a414a" stroke-width=".05" fill="#3a414a"/><path d="M146.3 197.07l-10.72-10.5 8.22-4.3z" stroke="#3a414a" fill="#3a414a"/><path d="M2095.12 321.9l202.95 255.34" stroke="#3a414a" fill="none"/><path d="M2095.5 321.6l-.74.6-.56-.7h1.22z" stroke="#3a414a" stroke-width=".05" fill="#3a414a"/><path d="M2307.26 588.8l-12.5-8.3 7.25-5.76z" stroke="#3a414a" fill="#3a414a"/><path d="M147.5 321.74l1058.1 576.2" stroke="#3a414a" fill="none"/><path d="M147.27 322.16l-1.2-.66h1.56z" stroke="#3a414a" stroke-width=".05" fill="#3a414a"/><path d="M1218.58 905l-14.75-2.75 4.44-8.14z" stroke="#3a414a" fill="#3a414a"/><path d="M1826.54-940.5a6 6 0 0 1 6-6h148a6 6 0 0 1 6 6v108a6 6 0 0 1-6 6h-148a6 6 0 0 1-6-6z" stroke="#000" stroke-width="3" fill="#fff"/><use xlink:href="#G" transform="matrix(1,0,0,1,1838.5394650684875,-934.5062914362105) translate(27.907407407407405 53.77777777777778)"/><path d="M1606.54-679.8a6 6 0 0 1 6-6h108a6 6 0 0 1 6 6v48.84a6 6 0 0 1-6 6h-108a6 6 0 0 1-6-6z" stroke="#3a414a" fill="#fff"/><use xlink:href="#y" transform="matrix(1,0,0,1,1611.5394650684875,-680.7962781032261) translate(31.60493827160494 30.52777777777778)"/><path d="M1906.6-823.9l-225.38 130.27M1905.6-825.62l-225.38 130.26" stroke="#3a414a" fill="none"/><path d="M1906.83-823.47l-.47-.82 1.23-.7h1.9z" stroke="#3a414a" stroke-width=".05" fill="#3a414a"/><path stroke="#3a414a" stroke-width=".05" fill="#3a414a"/><path d="M1667.94-687.1l10.03-11.16 4.64 8.03z" stroke="#3a414a" fill="#3a414a"/><path d="M1666.57-623.35l-529.93 284.6M1665.63-625.1L1135.7-340.5" stroke="#3a414a" fill="none"/><path d="M1666.8-622.92l-.46-.84 1.3-.7h2.02z" stroke="#3a414a" stroke-width=".05" fill="#3a414a"/><path stroke="#3a414a" stroke-width=".05" fill="#3a414a"/><path d="M1123.16-332.63l10.37-10.84 4.4 8.17z" stroke="#3a414a" fill="#3a414a"/><path d="M1667.63-624.7l229.43 285.76M1666.07-623.45L1895.5-337.7" stroke="#3a414a" fill="none"/><path d="M1667.27-624.4l-.06-.06h.16zM1666.45-623.73l-.74.6-1.05-1.33h1.22z" stroke="#3a414a" stroke-width=".05" fill="#3a414a"/><path d="M1905.53-326.8l-12.55-8.22 7.23-5.8z" stroke="#3a414a" fill="#3a414a"/><path d="M1666.44-623.35L937.34-336.4M1665.7-625.2L936.6-338.28" stroke="#3a414a" fill="none"/><path d="M1669.87-624.2l-3.27 1.3-.34-.9 1.7-.66h1.8z" stroke="#3a414a" stroke-width=".05" fill="#3a414a"/><path stroke="#3a414a" stroke-width=".05" fill="#3a414a"/><path d="M923.24-331.93l11.57-9.54 3.4 8.63z" stroke="#3a414a" fill="#3a414a"/><path d="M1509.67-785.53l-377.3 441.2" stroke="#3a414a" fill="none"/><path d="M1510.03-785.2l-.72-.63.08-.08h1.24z" stroke="#3a414a" stroke-width=".05" fill="#3a414a"/><path d="M1122.78-333.1l5.75-13.85 7.05 6.02z" stroke="#3a414a" fill="#3a414a"/><path d="M569.82-942.44a6 6 0 0 1 6-6h148a6 6 0 0 1 6 6v108a6 6 0 0 1-6 6h-148a6 6 0 0 1-6-6z" stroke="#000" stroke-width="3" fill="#fff"/><g><use xlink:href="#H" transform="matrix(1,0,0,1,581.8156103337014,-936.4379192936467) translate(13.494999999999997 38.77777777777778)"/><use xlink:href="#b" transform="matrix(1,0,0,1,581.8156103337014,-936.4379192936467) translate(121.505 38.77777777777778)"/><use xlink:href="#c" transform="matrix(1,0,0,1,581.8156103337014,-936.4379192936467) translate(72.48648148148149 65.44444444444446)"/></g><path d="M589.82-718.74a6 6 0 0 1 6-6h108a6 6 0 0 1 6 6v48.84a6 6 0 0 1-6 6h-108a6 6 0 0 1-6-6z" stroke="#3a414a" fill="#fff"/><g><use xlink:href="#y" transform="matrix(1,0,0,1,594.8156103337014,-719.7346205025915) translate(31.60493827160494 30.52777777777778)"/></g><path d="M649.82-826.44v84.82" stroke="#3a414a" fill="none"/><path d="M650.3-826.42h-.96v-.52h.95z" stroke="#3a414a" stroke-width=".05" fill="#3a414a"/><path d="M649.82-726.85l-4.64-14.27h9.27z" stroke="#3a414a" fill="#3a414a"/><path d="M650.23-663.1l458.1 321.8" stroke="#3a414a" fill="none"/><path d="M649.96-662.72l-.97-.68h1.44z" stroke="#3a414a" stroke-width=".05" fill="#3a414a"/><path d="M1120.4-332.8l-14.33-4.4 5.33-7.6z" stroke="#3a414a" fill="#3a414a"/><path d="M440-323.77a6 6 0 0 1 6-6h148a6 6 0 0 1 6 6v108a6 6 0 0 1-6 6H446a6 6 0 0 1-6-6z" stroke="#000" stroke-width="3" fill="#fff"/><g><use xlink:href="#I" transform="matrix(1,0,0,1,452,-317.7736986800867) translate(13.494999999999997 38.77777777777778)"/><use xlink:href="#g" transform="matrix(1,0,0,1,452,-317.7736986800867) translate(121.505 38.77777777777778)"/><use xlink:href="#n" transform="matrix(1,0,0,1,452,-317.7736986800867) translate(72.48648148148149 65.44444444444446)"/></g><path d="M660-323.77a6 6 0 0 1 6-6h148a6 6 0 0 1 6 6v108a6 6 0 0 1-6 6H666a6 6 0 0 1-6-6z" stroke="#000" stroke-width="3" fill="#fff"/><g><use xlink:href="#J" transform="matrix(1,0,0,1,672.0000000000002,-317.7736986800867) translate(13.494999999999997 38.77777777777778)"/><use xlink:href="#g" transform="matrix(1,0,0,1,672.0000000000002,-317.7736986800867) translate(121.505 38.77777777777778)"/><use xlink:href="#n" transform="matrix(1,0,0,1,672.0000000000002,-317.7736986800867) translate(72.48648148148149 65.44444444444446)"/></g><path d="M649.63-662.94l-123.67 316.4" stroke="#3a414a" fill="none"/><path d="M650.07-662.75l-.88-.35.1-.3h1.03z" stroke="#3a414a" stroke-width=".05" fill="#3a414a"/><path d="M520.6-332.78l.87-14.98 8.63 3.38z" stroke="#3a414a" fill="#3a414a"/><path d="M649.95-662.92L735.7-347.1" stroke="#3a414a" fill="none"/><path d="M650.4-663.03l-.9.25-.18-.62h1z" stroke="#3a414a" stroke-width=".05" fill="#3a414a"/><path d="M739.58-332.83l-8.22-12.56 8.95-2.42z" stroke="#3a414a" fill="#3a414a"/><path d="M367.05-946.3a6 6 0 0 1 6-6h148a6 6 0 0 1 6 6v108a6 6 0 0 1-6 6h-148a6 6 0 0 1-6-6z" stroke="#000" stroke-width="3" fill="#fff"/><g><use xlink:href="#K" transform="matrix(1,0,0,1,379.04978117049995,-940.301175008519) translate(13.494999999999997 38.77777777777778)"/><use xlink:href="#b" transform="matrix(1,0,0,1,379.04978117049995,-940.301175008519) translate(121.505 38.77777777777778)"/><use xlink:href="#c" transform="matrix(1,0,0,1,379.04978117049995,-940.301175008519) translate(72.48648148148149 65.44444444444446)"/></g><path d="M387.05-722.6a6 6 0 0 1 6-6h108a6 6 0 0 1 6 6v48.84a6 6 0 0 1-6 6h-108a6 6 0 0 1-6-6z" stroke="#3a414a" fill="#fff"/><g><use xlink:href="#y" transform="matrix(1,0,0,1,392.04978117049995,-723.5978762174635) translate(31.60493827160494 30.52777777777778)"/></g><path d="M447.05-830.3v84.82" stroke="#3a414a" fill="none"/><path d="M447.52-830.3h-.94v-.5h.94z" stroke="#3a414a" stroke-width=".05" fill="#3a414a"/><path d="M447.05-730.72l-4.64-14.26h9.3z" stroke="#3a414a" fill="#3a414a"/><path d="M447.5-667.04l659.56 327.88" stroke="#3a414a" fill="none"/><path d="M447.3-666.6l-1.32-.66h1.64z" stroke="#3a414a" stroke-width=".05" fill="#3a414a"/><path d="M1120.28-332.6l-14.84-2.2 4.13-8.3z" stroke="#3a414a" fill="#3a414a"/><path d="M446.9-666.8L152.4 183.03" stroke="#3a414a" fill="none"/><path d="M447.33-666.62l-.9-.32.12-.32h1z" stroke="#3a414a" stroke-width=".05" fill="#3a414a"/><path d="M147.58 196.97l.3-15 8.75 3.04z" stroke="#3a414a" fill="#3a414a"/><path d="M1248.78-945.1a6 6 0 0 1 6-6h148a6 6 0 0 1 6 6v108a6 6 0 0 1-6 6h-148a6 6 0 0 1-6-6z" stroke="#000" stroke-width="3" fill="#fff"/><g><use xlink:href="#L" transform="matrix(1,0,0,1,1260.7800486362562,-939.1098963731658) translate(13.494999999999997 38.77777777777778)"/><use xlink:href="#b" transform="matrix(1,0,0,1,1260.7800486362562,-939.1098963731658) translate(121.505 38.77777777777778)"/><use xlink:href="#c" transform="matrix(1,0,0,1,1260.7800486362562,-939.1098963731658) translate(72.48648148148149 65.44444444444446)"/></g><path d="M1448.78-945.1a6 6 0 0 1 6-6h148a6 6 0 0 1 6 6v108a6 6 0 0 1-6 6h-148a6 6 0 0 1-6-6z" stroke="#000" stroke-width="3" fill="#fff"/><g><use xlink:href="#M" transform="matrix(1,0,0,1,1460.7800486362562,-939.1098963731658) translate(13.494999999999997 38.77777777777778)"/><use xlink:href="#b" transform="matrix(1,0,0,1,1460.7800486362562,-939.1098963731658) translate(121.505 38.77777777777778)"/><use xlink:href="#c" transform="matrix(1,0,0,1,1460.7800486362562,-939.1098963731658) translate(72.48648148148149 65.44444444444446)"/></g><path d="M1628.78-945.1a6 6 0 0 1 6-6h148a6 6 0 0 1 6 6v108a6 6 0 0 1-6 6h-148a6 6 0 0 1-6-6z" stroke="#000" stroke-width="3" fill="#fff"/><g><use xlink:href="#N" transform="matrix(1,0,0,1,1640.7800486362562,-939.1098963731658) translate(13.494999999999997 38.77777777777778)"/><use xlink:href="#b" transform="matrix(1,0,0,1,1640.7800486362562,-939.1098963731658) translate(121.505 38.77777777777778)"/><use xlink:href="#c" transform="matrix(1,0,0,1,1640.7800486362562,-939.1098963731658) translate(72.48648148148149 65.44444444444446)"/></g><path d="M1220-974a6 6 0 0 1 6-6h568a6 6 0 0 1 6 6v180.6a6 6 0 0 1-6 6h-568a6 6 0 0 1-6-6z" stroke="#3a414a" stroke-width="3" fill-opacity="0"/><defs><path fill="#3a414a" d="M160-131c35 5 61 23 61 61C221 17 115-2 30 0v-248c76 3 177-17 177 60 0 33-19 50-47 57zm-97-11c50-1 110 9 110-42 0-47-63-36-110-37v79zm0 115c55-2 124 14 124-45 0-56-70-42-124-44v89" id="O"/><path fill="#3a414a" d="M232-93c-1 65-40 97-104 97C67 4 28-28 28-90v-158h33c8 89-33 224 67 224 102 0 64-133 71-224h33v155" id="P"/><path fill="#3a414a" d="M54-142c48-35 137-8 131 61C196 18 31 33 14-55l32-4c7 23 22 37 52 37 35-1 51-22 54-58 4-55-73-65-99-34H22l8-134h141v27H59" id="Q"/><path fill="#3a414a" d="M27 0v-27h64v-190l-56 39v-29l58-41h29v221h61V0H27" id="R"/><path fill="#3a414a" d="M99-251c64 0 84 50 84 122C183-37 130 33 47-8c-14-7-20-23-25-40l30-5c6 39 69 39 84 7 9-19 16-44 16-74-10 22-31 35-62 35-49 0-73-33-73-83 0-54 28-83 82-83zm-1 141c31-1 51-18 51-49 0-36-14-67-51-67-34 0-49 23-49 58 0 34 15 58 49 58" id="S"/><g id="a"><use transform="matrix(0.06172839506172839,0,0,0.06172839506172839,0,0)" xlink:href="#O"/><use transform="matrix(0.06172839506172839,0,0,0.06172839506172839,14.814814814814813,0)" xlink:href="#P"/><use transform="matrix(0.06172839506172839,0,0,0.06172839506172839,30.80246913580247,0)" xlink:href="#Q"/><use transform="matrix(0.06172839506172839,0,0,0.06172839506172839,43.148148148148145,0)" xlink:href="#R"/><use transform="matrix(0.06172839506172839,0,0,0.06172839506172839,55.49382716049382,0)" xlink:href="#S"/><use transform="matrix(0.06172839506172839,0,0,0.06172839506172839,67.8395061728395,0)" xlink:href="#Q"/></g><path fill="#008a0e" d="M87 75C49 33 22-17 22-94c0-76 28-126 65-167h31c-38 41-64 92-64 168S80 34 118 75H87" id="T"/><path fill="#008a0e" d="M134-131c28 9 52 24 51 62-1 50-34 73-85 73S17-19 16-69c0-36 21-54 49-61-75-25-45-126 34-121 46 3 78 18 79 63 0 33-17 51-44 57zm-34-11c31 1 46-15 46-44 0-28-17-43-47-42-29 0-46 13-45 42 1 28 16 44 46 44zm1 122c35 0 51-18 51-52 0-30-18-46-53-46-33 0-51 17-51 47 0 34 19 51 53 51" id="U"/><path fill="#008a0e" d="M33-261c38 41 65 92 65 168S71 34 33 75H2C39 34 66-17 66-93S39-220 2-261h31" id="V"/><g id="c"><use transform="matrix(0.06172839506172839,0,0,0.06172839506172839,0,0)" xlink:href="#T"/><use transform="matrix(0.06172839506172839,0,0,0.06172839506172839,7.345679012345679,0)" xlink:href="#U"/><use transform="matrix(0.06172839506172839,0,0,0.06172839506172839,19.691358024691358,0)" xlink:href="#V"/></g><path fill="#3a414a" d="M101-251c82-7 93 87 43 132L82-64C71-53 59-42 53-27h129V0H18c2-99 128-94 128-182 0-28-16-43-45-43s-46 15-49 41l-32-3c6-41 34-60 81-64" id="W"/><g id="d"><use transform="matrix(0.06172839506172839,0,0,0.06172839506172839,0,0)" xlink:href="#O"/><use transform="matrix(0.06172839506172839,0,0,0.06172839506172839,14.814814814814813,0)" xlink:href="#P"/><use transform="matrix(0.06172839506172839,0,0,0.06172839506172839,30.80246913580247,0)" xlink:href="#Q"/><use transform="matrix(0.06172839506172839,0,0,0.06172839506172839,43.148148148148145,0)" xlink:href="#R"/><use transform="matrix(0.06172839506172839,0,0,0.06172839506172839,55.49382716049382,0)" xlink:href="#W"/><use transform="matrix(0.06172839506172839,0,0,0.06172839506172839,67.8395061728395,0)" xlink:href="#Q"/></g><path fill="#3a414a" d="M155-56V0h-30v-56H8v-25l114-167h33v167h35v25h-35zm-30-156c-27 46-58 90-88 131h88v-131" id="X"/><path fill="#3a414a" d="M126-127c33 6 58 20 58 59 0 88-139 92-164 29-3-8-5-16-6-25l32-3c6 27 21 44 54 44 32 0 52-15 52-46 0-38-36-46-79-43v-28c39 1 72-4 72-42 0-27-17-43-46-43-28 0-47 15-49 41l-32-3c6-42 35-63 81-64 48-1 79 21 79 65 0 36-21 52-52 59" id="Y"/><path fill="#3a414a" d="M101-251c68 0 85 55 85 127S166 4 100 4C33 4 14-52 14-124c0-73 17-127 87-127zm-1 229c47 0 54-49 54-102s-4-102-53-102c-51 0-55 48-55 102 0 53 5 102 54 102" id="Z"/><g id="e"><use transform="matrix(0.06172839506172839,0,0,0.06172839506172839,0,0)" xlink:href="#O"/><use transform="matrix(0.06172839506172839,0,0,0.06172839506172839,14.814814814814813,0)" xlink:href="#P"/><use transform="matrix(0.06172839506172839,0,0,0.06172839506172839,30.80246913580247,0)" xlink:href="#X"/><use transform="matrix(0.06172839506172839,0,0,0.06172839506172839,43.148148148148145,0)" xlink:href="#R"/><use transform="matrix(0.06172839506172839,0,0,0.06172839506172839,55.49382716049382,0)" xlink:href="#Y"/><use transform="matrix(0.06172839506172839,0,0,0.06172839506172839,67.8395061728395,0)" xlink:href="#Z"/></g><path fill="#e81313" d="M160-131c35 5 61 23 61 61C221 17 115-2 30 0v-248c76 3 177-17 177 60 0 33-19 50-47 57zm-97-11c50-1 110 9 110-42 0-47-63-36-110-37v79zm0 115c55-2 124 14 124-45 0-56-70-42-124-44v89" id="aa"/><path fill="#e81313" d="M232-93c-1 65-40 97-104 97C67 4 28-28 28-90v-158h33c8 89-33 224 67 224 102 0 64-133 71-224h33v155" id="ab"/><path fill="#e81313" d="M155-56V0h-30v-56H8v-25l114-167h33v167h35v25h-35zm-30-156c-27 46-58 90-88 131h88v-131" id="ac"/><path fill="#e81313" d="M101-251c68 0 85 55 85 127S166 4 100 4C33 4 14-52 14-124c0-73 17-127 87-127zm-1 229c47 0 54-49 54-102s-4-102-53-102c-51 0-55 48-55 102 0 53 5 102 54 102" id="ad"/><path fill="#e81313" d="M126-127c33 6 58 20 58 59 0 88-139 92-164 29-3-8-5-16-6-25l32-3c6 27 21 44 54 44 32 0 52-15 52-46 0-38-36-46-79-43v-28c39 1 72-4 72-42 0-27-17-43-46-43-28 0-47 15-49 41l-32-3c6-42 35-63 81-64 48-1 79 21 79 65 0 36-21 52-52 59" id="ae"/><path fill="#e81313" d="M54-142c48-35 137-8 131 61C196 18 31 33 14-55l32-4c7 23 22 37 52 37 35-1 51-22 54-58 4-55-73-65-99-34H22l8-134h141v27H59" id="af"/><g id="f"><use transform="matrix(0.06172839506172839,0,0,0.06172839506172839,0,0)" xlink:href="#aa"/><use transform="matrix(0.06172839506172839,0,0,0.06172839506172839,14.814814814814813,0)" xlink:href="#ab"/><use transform="matrix(0.06172839506172839,0,0,0.06172839506172839,30.80246913580247,0)" xlink:href="#ac"/><use transform="matrix(0.06172839506172839,0,0,0.06172839506172839,43.148148148148145,0)" xlink:href="#ad"/><use transform="matrix(0.06172839506172839,0,0,0.06172839506172839,55.49382716049382,0)" xlink:href="#ae"/><use transform="matrix(0.06172839506172839,0,0,0.06172839506172839,67.8395061728395,0)" xlink:href="#af"/></g><path fill="#e81313" d="M87 75C49 33 22-17 22-94c0-76 28-126 65-167h31c-38 41-64 92-64 168S80 34 118 75H87" id="ag"/><path fill="#e81313" d="M134-131c28 9 52 24 51 62-1 50-34 73-85 73S17-19 16-69c0-36 21-54 49-61-75-25-45-126 34-121 46 3 78 18 79 63 0 33-17 51-44 57zm-34-11c31 1 46-15 46-44 0-28-17-43-47-42-29 0-46 13-45 42 1 28 16 44 46 44zm1 122c35 0 51-18 51-52 0-30-18-46-53-46-33 0-51 17-51 47 0 34 19 51 53 51" id="ah"/><path fill="#e81313" d="M33-261c38 41 65 92 65 168S71 34 33 75H2C39 34 66-17 66-93S39-220 2-261h31" id="ai"/><g id="h"><use transform="matrix(0.06172839506172839,0,0,0.06172839506172839,0,0)" xlink:href="#ag"/><use transform="matrix(0.06172839506172839,0,0,0.06172839506172839,7.345679012345679,0)" xlink:href="#ah"/><use transform="matrix(0.06172839506172839,0,0,0.06172839506172839,19.691358024691358,0)" xlink:href="#ai"/></g><path fill="#3a414a" d="M64 0c3-98 48-159 88-221H18v-27h164v26C143-157 98-101 97 0H64" id="aj"/><g id="i"><use transform="matrix(0.06172839506172839,0,0,0.06172839506172839,0,0)" xlink:href="#O"/><use transform="matrix(0.06172839506172839,0,0,0.06172839506172839,14.814814814814813,0)" xlink:href="#P"/><use transform="matrix(0.06172839506172839,0,0,0.06172839506172839,30.80246913580247,0)" xlink:href="#Q"/><use transform="matrix(0.06172839506172839,0,0,0.06172839506172839,43.148148148148145,0)" xlink:href="#R"/><use transform="matrix(0.06172839506172839,0,0,0.06172839506172839,55.49382716049382,0)" xlink:href="#aj"/><use transform="matrix(0.06172839506172839,0,0,0.06172839506172839,67.8395061728395,0)" xlink:href="#R"/></g><path fill="#e81313" d="M27 0v-27h64v-190l-56 39v-29l58-41h29v221h61V0H27" id="ak"/><path fill="#e81313" d="M101-251c82-7 93 87 43 132L82-64C71-53 59-42 53-27h129V0H18c2-99 128-94 128-182 0-28-16-43-45-43s-46 15-49 41l-32-3c6-41 34-60 81-64" id="al"/><g id="j"><use transform="matrix(0.06172839506172839,0,0,0.06172839506172839,0,0)" xlink:href="#aa"/><use transform="matrix(0.06172839506172839,0,0,0.06172839506172839,14.814814814814813,0)" xlink:href="#ab"/><use transform="matrix(0.06172839506172839,0,0,0.06172839506172839,30.80246913580247,0)" xlink:href="#ac"/><use transform="matrix(0.06172839506172839,0,0,0.06172839506172839,43.148148148148145,0)" xlink:href="#ak"/><use transform="matrix(0.06172839506172839,0,0,0.06172839506172839,55.49382716049382,0)" xlink:href="#al"/><use transform="matrix(0.06172839506172839,0,0,0.06172839506172839,67.8395061728395,0)" xlink:href="#ad"/></g><g id="k"><use transform="matrix(0.06172839506172839,0,0,0.06172839506172839,0,0)" xlink:href="#O"/><use transform="matrix(0.06172839506172839,0,0,0.06172839506172839,14.814814814814813,0)" xlink:href="#P"/><use transform="matrix(0.06172839506172839,0,0,0.06172839506172839,30.80246913580247,0)" xlink:href="#Q"/><use transform="matrix(0.06172839506172839,0,0,0.06172839506172839,43.148148148148145,0)" xlink:href="#R"/><use transform="matrix(0.06172839506172839,0,0,0.06172839506172839,53.82716049382716,0)" xlink:href="#R"/><use transform="matrix(0.06172839506172839,0,0,0.06172839506172839,66.17283950617283,0)" xlink:href="#Q"/></g><path fill="#3a414a" d="M110-160c48 1 74 30 74 79 0 53-28 85-80 85-65 0-83-55-86-122-5-90 50-162 133-122 14 7 22 21 27 39l-31 6c-5-40-67-38-82-6-9 19-15 44-15 74 11-20 30-34 60-33zm-7 138c34 0 49-23 49-58s-16-56-50-56c-29 0-50 16-49 49 1 36 15 65 50 65" id="am"/><g id="l"><use transform="matrix(0.06172839506172839,0,0,0.06172839506172839,0,0)" xlink:href="#O"/><use transform="matrix(0.06172839506172839,0,0,0.06172839506172839,14.814814814814813,0)" xlink:href="#P"/><use transform="matrix(0.06172839506172839,0,0,0.06172839506172839,30.80246913580247,0)" xlink:href="#X"/><use transform="matrix(0.06172839506172839,0,0,0.06172839506172839,43.148148148148145,0)" xlink:href="#aj"/><use transform="matrix(0.06172839506172839,0,0,0.06172839506172839,55.49382716049382,0)" xlink:href="#am"/><use transform="matrix(0.06172839506172839,0,0,0.06172839506172839,67.8395061728395,0)" xlink:href="#W"/></g><g id="m"><use transform="matrix(0.06172839506172839,0,0,0.06172839506172839,0,0)" xlink:href="#aa"/><use transform="matrix(0.06172839506172839,0,0,0.06172839506172839,14.814814814814813,0)" xlink:href="#ab"/><use transform="matrix(0.06172839506172839,0,0,0.06172839506172839,30.80246913580247,0)" xlink:href="#ac"/><use transform="matrix(0.06172839506172839,0,0,0.06172839506172839,43.148148148148145,0)" xlink:href="#ak"/><use transform="matrix(0.06172839506172839,0,0,0.06172839506172839,53.82716049382716,0)" xlink:href="#ak"/><use transform="matrix(0.06172839506172839,0,0,0.06172839506172839,66.17283950617283,0)" xlink:href="#ad"/></g><path fill="#e81313" d="M64 0c3-98 48-159 88-221H18v-27h164v26C143-157 98-101 97 0H64" id="an"/><g id="n"><use transform="matrix(0.06172839506172839,0,0,0.06172839506172839,0,0)" xlink:href="#ag"/><use transform="matrix(0.06172839506172839,0,0,0.06172839506172839,7.345679012345679,0)" xlink:href="#an"/><use transform="matrix(0.06172839506172839,0,0,0.06172839506172839,19.691358024691358,0)" xlink:href="#ai"/></g><path fill="#e81313" d="M99-251c64 0 84 50 84 122C183-37 130 33 47-8c-14-7-20-23-25-40l30-5c6 39 69 39 84 7 9-19 16-44 16-74-10 22-31 35-62 35-49 0-73-33-73-83 0-54 28-83 82-83zm-1 141c31-1 51-18 51-49 0-36-14-67-51-67-34 0-49 23-49 58 0 34 15 58 49 58" id="ao"/><g id="o"><use transform="matrix(0.06172839506172839,0,0,0.06172839506172839,0,0)" xlink:href="#aa"/><use transform="matrix(0.06172839506172839,0,0,0.06172839506172839,14.814814814814813,0)" xlink:href="#ab"/><use transform="matrix(0.06172839506172839,0,0,0.06172839506172839,30.80246913580247,0)" xlink:href="#ae"/><use transform="matrix(0.06172839506172839,0,0,0.06172839506172839,43.148148148148145,0)" xlink:href="#ao"/><use transform="matrix(0.06172839506172839,0,0,0.06172839506172839,55.49382716049382,0)" xlink:href="#ad"/><use transform="matrix(0.06172839506172839,0,0,0.06172839506172839,67.8395061728395,0)" xlink:href="#af"/></g><g id="p"><use transform="matrix(0.06172839506172839,0,0,0.06172839506172839,0,0)" xlink:href="#aa"/><use transform="matrix(0.06172839506172839,0,0,0.06172839506172839,14.814814814814813,0)" xlink:href="#ab"/><use transform="matrix(0.06172839506172839,0,0,0.06172839506172839,30.80246913580247,0)" xlink:href="#ae"/><use transform="matrix(0.06172839506172839,0,0,0.06172839506172839,43.148148148148145,0)" xlink:href="#ah"/><use transform="matrix(0.06172839506172839,0,0,0.06172839506172839,55.49382716049382,0)" xlink:href="#ad"/><use transform="matrix(0.06172839506172839,0,0,0.06172839506172839,67.8395061728395,0)" xlink:href="#ad"/></g><path fill="#e81313" d="M110-160c48 1 74 30 74 79 0 53-28 85-80 85-65 0-83-55-86-122-5-90 50-162 133-122 14 7 22 21 27 39l-31 6c-5-40-67-38-82-6-9 19-15 44-15 74 11-20 30-34 60-33zm-7 138c34 0 49-23 49-58s-16-56-50-56c-29 0-50 16-49 49 1 36 15 65 50 65" id="ap"/><g id="q"><use transform="matrix(0.06172839506172839,0,0,0.06172839506172839,0,0)" xlink:href="#aa"/><use transform="matrix(0.06172839506172839,0,0,0.06172839506172839,14.814814814814813,0)" xlink:href="#ab"/><use transform="matrix(0.06172839506172839,0,0,0.06172839506172839,30.80246913580247,0)" xlink:href="#ae"/><use transform="matrix(0.06172839506172839,0,0,0.06172839506172839,43.148148148148145,0)" xlink:href="#ap"/><use transform="matrix(0.06172839506172839,0,0,0.06172839506172839,55.49382716049382,0)" xlink:href="#ad"/><use transform="matrix(0.06172839506172839,0,0,0.06172839506172839,67.8395061728395,0)" xlink:href="#ad"/></g><g id="r"><use transform="matrix(0.06172839506172839,0,0,0.06172839506172839,0,0)" xlink:href="#O"/><use transform="matrix(0.06172839506172839,0,0,0.06172839506172839,14.814814814814813,0)" xlink:href="#P"/><use transform="matrix(0.06172839506172839,0,0,0.06172839506172839,30.80246913580247,0)" xlink:href="#Y"/><use transform="matrix(0.06172839506172839,0,0,0.06172839506172839,43.148148148148145,0)" xlink:href="#Q"/><use transform="matrix(0.06172839506172839,0,0,0.06172839506172839,55.49382716049382,0)" xlink:href="#R"/><use transform="matrix(0.06172839506172839,0,0,0.06172839506172839,66.17283950617283,0)" xlink:href="#R"/></g><g id="s"><use transform="matrix(0.06172839506172839,0,0,0.06172839506172839,0,0)" xlink:href="#O"/><use transform="matrix(0.06172839506172839,0,0,0.06172839506172839,14.814814814814813,0)" xlink:href="#P"/><use transform="matrix(0.06172839506172839,0,0,0.06172839506172839,30.80246913580247,0)" xlink:href="#Y"/><use transform="matrix(0.06172839506172839,0,0,0.06172839506172839,43.148148148148145,0)" xlink:href="#Q"/><use transform="matrix(0.06172839506172839,0,0,0.06172839506172839,55.49382716049382,0)" xlink:href="#Z"/><use transform="matrix(0.06172839506172839,0,0,0.06172839506172839,67.8395061728395,0)" xlink:href="#W"/></g><path fill="#008a0e" d="M64 0c3-98 48-159 88-221H18v-27h164v26C143-157 98-101 97 0H64" id="aq"/><g id="t"><use transform="matrix(0.06172839506172839,0,0,0.06172839506172839,0,0)" xlink:href="#T"/><use transform="matrix(0.06172839506172839,0,0,0.06172839506172839,7.345679012345679,0)" xlink:href="#aq"/><use transform="matrix(0.06172839506172839,0,0,0.06172839506172839,19.691358024691358,0)" xlink:href="#V"/></g><path fill="#3a414a" d="M240 0l2-218c-23 76-54 145-80 218h-23L58-218 59 0H30v-248h44l77 211c21-75 51-140 76-211h43V0h-30" id="ar"/><path fill="#3a414a" d="M205 0l-28-72H64L36 0H1l101-248h38L239 0h-34zm-38-99l-47-123c-12 45-31 82-46 123h93" id="as"/><g id="u"><use transform="matrix(0.06172839506172839,0,0,0.06172839506172839,0,0)" xlink:href="#ar"/><use transform="matrix(0.06172839506172839,0,0,0.06172839506172839,18.456790123456788,0)" xlink:href="#as"/><use transform="matrix(0.06172839506172839,0,0,0.06172839506172839,33.2716049382716,0)" xlink:href="#W"/><use transform="matrix(0.06172839506172839,0,0,0.06172839506172839,45.61728395061728,0)" xlink:href="#Y"/><use transform="matrix(0.06172839506172839,0,0,0.06172839506172839,57.962962962962955,0)" xlink:href="#Z"/><use transform="matrix(0.06172839506172839,0,0,0.06172839506172839,70.30864197530863,0)" xlink:href="#Z"/></g><g id="v"><use transform="matrix(0.06172839506172839,0,0,0.06172839506172839,0,0)" xlink:href="#ar"/><use transform="matrix(0.06172839506172839,0,0,0.06172839506172839,18.456790123456788,0)" xlink:href="#as"/><use transform="matrix(0.06172839506172839,0,0,0.06172839506172839,33.2716049382716,0)" xlink:href="#W"/><use transform="matrix(0.06172839506172839,0,0,0.06172839506172839,45.61728395061728,0)" xlink:href="#Z"/><use transform="matrix(0.06172839506172839,0,0,0.06172839506172839,57.962962962962955,0)" xlink:href="#Z"/><use transform="matrix(0.06172839506172839,0,0,0.06172839506172839,70.30864197530863,0)" xlink:href="#Z"/></g><path fill="#008a0e" d="M110-160c48 1 74 30 74 79 0 53-28 85-80 85-65 0-83-55-86-122-5-90 50-162 133-122 14 7 22 21 27 39l-31 6c-5-40-67-38-82-6-9 19-15 44-15 74 11-20 30-34 60-33zm-7 138c34 0 49-23 49-58s-16-56-50-56c-29 0-50 16-49 49 1 36 15 65 50 65" id="at"/><g id="w"><use transform="matrix(0.06172839506172839,0,0,0.06172839506172839,0,0)" xlink:href="#T"/><use transform="matrix(0.06172839506172839,0,0,0.06172839506172839,7.345679012345679,0)" xlink:href="#at"/><use transform="matrix(0.06172839506172839,0,0,0.06172839506172839,19.691358024691358,0)" xlink:href="#V"/></g><g id="x"><use transform="matrix(0.06172839506172839,0,0,0.06172839506172839,0,0)" xlink:href="#aa"/><use transform="matrix(0.06172839506172839,0,0,0.06172839506172839,14.814814814814813,0)" xlink:href="#ab"/><use transform="matrix(0.06172839506172839,0,0,0.06172839506172839,30.80246913580247,0)" xlink:href="#ae"/><use transform="matrix(0.06172839506172839,0,0,0.06172839506172839,43.148148148148145,0)" xlink:href="#ad"/><use transform="matrix(0.06172839506172839,0,0,0.06172839506172839,55.49382716049382,0)" xlink:href="#ak"/><use transform="matrix(0.06172839506172839,0,0,0.06172839506172839,67.8395061728395,0)" xlink:href="#ad"/></g><path d="M205 0l-28-72H64L36 0H1l101-248h38L239 0h-34zm-38-99l-47-123c-12 45-31 82-46 123h93" id="au"/><path d="M190 0L58-211 59 0H30v-248h39L202-35l-2-213h31V0h-41" id="av"/><path d="M30-248c118-7 216 8 213 122C240-48 200 0 122 0H30v-248zM63-27c89 8 146-16 146-99s-60-101-146-95v194" id="aw"/><g id="y"><use transform="matrix(0.06172839506172839,0,0,0.06172839506172839,0,0)" xlink:href="#au"/><use transform="matrix(0.06172839506172839,0,0,0.06172839506172839,14.814814814814813,0)" xlink:href="#av"/><use transform="matrix(0.06172839506172839,0,0,0.06172839506172839,30.80246913580247,0)" xlink:href="#aw"/></g><g id="z"><use transform="matrix(0.06172839506172839,0,0,0.06172839506172839,0,0)" xlink:href="#O"/><use transform="matrix(0.06172839506172839,0,0,0.06172839506172839,14.814814814814813,0)" xlink:href="#P"/><use transform="matrix(0.06172839506172839,0,0,0.06172839506172839,30.80246913580247,0)" xlink:href="#Y"/><use transform="matrix(0.06172839506172839,0,0,0.06172839506172839,43.148148148148145,0)" xlink:href="#Z"/><use transform="matrix(0.06172839506172839,0,0,0.06172839506172839,55.49382716049382,0)" xlink:href="#aj"/><use transform="matrix(0.06172839506172839,0,0,0.06172839506172839,67.8395061728395,0)" xlink:href="#R"/></g><path d="M140-251c81 0 123 46 123 126C263-46 219 4 140 4 59 4 17-45 17-125s42-126 123-126zm0 227c63 0 89-41 89-101s-29-99-89-99c-61 0-89 39-89 99S79-25 140-24" id="ax"/><path d="M233-177c-1 41-23 64-60 70L243 0h-38l-65-103H63V0H30v-248c88 3 205-21 203 71zM63-129c60-2 137 13 137-47 0-61-80-42-137-45v92" id="ay"/><g id="A"><use transform="matrix(0.06172839506172839,0,0,0.06172839506172839,0,0)" xlink:href="#ax"/><use transform="matrix(0.06172839506172839,0,0,0.06172839506172839,17.28395061728395,0)" xlink:href="#ay"/></g><path fill="#3a414a" d="M134-131c28 9 52 24 51 62-1 50-34 73-85 73S17-19 16-69c0-36 21-54 49-61-75-25-45-126 34-121 46 3 78 18 79 63 0 33-17 51-44 57zm-34-11c31 1 46-15 46-44 0-28-17-43-47-42-29 0-46 13-45 42 1 28 16 44 46 44zm1 122c35 0 51-18 51-52 0-30-18-46-53-46-33 0-51 17-51 47 0 34 19 51 53 51" id="az"/><g id="B"><use transform="matrix(0.06172839506172839,0,0,0.06172839506172839,0,0)" xlink:href="#ar"/><use transform="matrix(0.06172839506172839,0,0,0.06172839506172839,18.456790123456788,0)" xlink:href="#as"/><use transform="matrix(0.06172839506172839,0,0,0.06172839506172839,33.2716049382716,0)" xlink:href="#W"/><use transform="matrix(0.06172839506172839,0,0,0.06172839506172839,45.61728395061728,0)" xlink:href="#Z"/><use transform="matrix(0.06172839506172839,0,0,0.06172839506172839,57.962962962962955,0)" xlink:href="#az"/><use transform="matrix(0.06172839506172839,0,0,0.06172839506172839,70.30864197530863,0)" xlink:href="#Z"/></g><g id="C"><use transform="matrix(0.06172839506172839,0,0,0.06172839506172839,0,0)" xlink:href="#ar"/><use transform="matrix(0.06172839506172839,0,0,0.06172839506172839,18.456790123456788,0)" xlink:href="#as"/><use transform="matrix(0.06172839506172839,0,0,0.06172839506172839,33.2716049382716,0)" xlink:href="#W"/><use transform="matrix(0.06172839506172839,0,0,0.06172839506172839,45.61728395061728,0)" xlink:href="#Z"/><use transform="matrix(0.06172839506172839,0,0,0.06172839506172839,57.962962962962955,0)" xlink:href="#S"/><use transform="matrix(0.06172839506172839,0,0,0.06172839506172839,70.30864197530863,0)" xlink:href="#Z"/></g><g id="D"><use transform="matrix(0.06172839506172839,0,0,0.06172839506172839,0,0)" xlink:href="#ar"/><use transform="matrix(0.06172839506172839,0,0,0.06172839506172839,18.456790123456788,0)" xlink:href="#as"/><use transform="matrix(0.06172839506172839,0,0,0.06172839506172839,33.2716049382716,0)" xlink:href="#R"/><use transform="matrix(0.06172839506172839,0,0,0.06172839506172839,45.61728395061728,0)" xlink:href="#Z"/><use transform="matrix(0.06172839506172839,0,0,0.06172839506172839,57.962962962962955,0)" xlink:href="#W"/><use transform="matrix(0.06172839506172839,0,0,0.06172839506172839,70.30864197530863,0)" xlink:href="#Z"/></g><path fill="#e81313" d="M240 0l2-218c-23 76-54 145-80 218h-23L58-218 59 0H30v-248h44l77 211c21-75 51-140 76-211h43V0h-30" id="aA"/><path fill="#e81313" d="M205 0l-28-72H64L36 0H1l101-248h38L239 0h-34zm-38-99l-47-123c-12 45-31 82-46 123h93" id="aB"/><g id="E"><use transform="matrix(0.06172839506172839,0,0,0.06172839506172839,0,0)" xlink:href="#aA"/><use transform="matrix(0.06172839506172839,0,0,0.06172839506172839,18.456790123456788,0)" xlink:href="#aB"/><use transform="matrix(0.06172839506172839,0,0,0.06172839506172839,33.2716049382716,0)" xlink:href="#ak"/><use transform="matrix(0.06172839506172839,0,0,0.06172839506172839,45.61728395061728,0)" xlink:href="#ad"/><use transform="matrix(0.06172839506172839,0,0,0.06172839506172839,57.962962962962955,0)" xlink:href="#ak"/><use transform="matrix(0.06172839506172839,0,0,0.06172839506172839,70.30864197530863,0)" xlink:href="#ad"/></g><g id="F"><use transform="matrix(0.06172839506172839,0,0,0.06172839506172839,0,0)" xlink:href="#ag"/><use transform="matrix(0.06172839506172839,0,0,0.06172839506172839,7.345679012345679,0)" xlink:href="#af"/><use transform="matrix(0.06172839506172839,0,0,0.06172839506172839,19.691358024691358,0)" xlink:href="#ai"/></g><g id="G"><use transform="matrix(0.06172839506172839,0,0,0.06172839506172839,0,0)" xlink:href="#O"/><use transform="matrix(0.06172839506172839,0,0,0.06172839506172839,14.814814814814813,0)" xlink:href="#P"/><use transform="matrix(0.06172839506172839,0,0,0.06172839506172839,30.80246913580247,0)" xlink:href="#Q"/><use transform="matrix(0.06172839506172839,0,0,0.06172839506172839,43.148148148148145,0)" xlink:href="#R"/><use transform="matrix(0.06172839506172839,0,0,0.06172839506172839,55.49382716049382,0)" xlink:href="#S"/><use transform="matrix(0.06172839506172839,0,0,0.06172839506172839,67.8395061728395,0)" xlink:href="#Z"/></g><g id="H"><use transform="matrix(0.06172839506172839,0,0,0.06172839506172839,0,0)" xlink:href="#O"/><use transform="matrix(0.06172839506172839,0,0,0.06172839506172839,14.814814814814813,0)" xlink:href="#P"/><use transform="matrix(0.06172839506172839,0,0,0.06172839506172839,30.80246913580247,0)" xlink:href="#Q"/><use transform="matrix(0.06172839506172839,0,0,0.06172839506172839,43.148148148148145,0)" xlink:href="#az"/><use transform="matrix(0.06172839506172839,0,0,0.06172839506172839,55.49382716049382,0)" xlink:href="#W"/><use transform="matrix(0.06172839506172839,0,0,0.06172839506172839,67.8395061728395,0)" xlink:href="#Z"/></g><path fill="#e81313" d="M30-248c87 1 191-15 191 75 0 78-77 80-158 76V0H30v-248zm33 125c57 0 124 11 124-50 0-59-68-47-124-48v98" id="aC"/><path fill="#e81313" d="M30 0v-248h187v28H63v79h144v27H63v87h162V0H30" id="aD"/><g id="I"><use transform="matrix(0.06172839506172839,0,0,0.06172839506172839,0,0)" xlink:href="#aC"/><use transform="matrix(0.06172839506172839,0,0,0.06172839506172839,14.814814814814813,0)" xlink:href="#aD"/><use transform="matrix(0.06172839506172839,0,0,0.06172839506172839,29.629629629629626,0)" xlink:href="#al"/><use transform="matrix(0.06172839506172839,0,0,0.06172839506172839,41.9753086419753,0)" xlink:href="#ac"/><use transform="matrix(0.06172839506172839,0,0,0.06172839506172839,54.32098765432098,0)" xlink:href="#al"/><use transform="matrix(0.06172839506172839,0,0,0.06172839506172839,66.66666666666666,0)" xlink:href="#ad"/></g><g id="J"><use transform="matrix(0.06172839506172839,0,0,0.06172839506172839,0,0)" xlink:href="#aC"/><use transform="matrix(0.06172839506172839,0,0,0.06172839506172839,14.814814814814813,0)" xlink:href="#aD"/><use transform="matrix(0.06172839506172839,0,0,0.06172839506172839,29.629629629629626,0)" xlink:href="#al"/><use transform="matrix(0.06172839506172839,0,0,0.06172839506172839,41.9753086419753,0)" xlink:href="#ac"/><use transform="matrix(0.06172839506172839,0,0,0.06172839506172839,54.32098765432098,0)" xlink:href="#ae"/><use transform="matrix(0.06172839506172839,0,0,0.06172839506172839,66.66666666666666,0)" xlink:href="#ad"/></g><g id="K"><use transform="matrix(0.06172839506172839,0,0,0.06172839506172839,0,0)" xlink:href="#O"/><use transform="matrix(0.06172839506172839,0,0,0.06172839506172839,14.814814814814813,0)" xlink:href="#P"/><use transform="matrix(0.06172839506172839,0,0,0.06172839506172839,30.80246913580247,0)" xlink:href="#Q"/><use transform="matrix(0.06172839506172839,0,0,0.06172839506172839,43.148148148148145,0)" xlink:href="#az"/><use transform="matrix(0.06172839506172839,0,0,0.06172839506172839,55.49382716049382,0)" xlink:href="#Z"/><use transform="matrix(0.06172839506172839,0,0,0.06172839506172839,67.8395061728395,0)" xlink:href="#Z"/></g><g id="L"><use transform="matrix(0.06172839506172839,0,0,0.06172839506172839,0,0)" xlink:href="#O"/><use transform="matrix(0.06172839506172839,0,0,0.06172839506172839,14.814814814814813,0)" xlink:href="#P"/><use transform="matrix(0.06172839506172839,0,0,0.06172839506172839,30.80246913580247,0)" xlink:href="#Q"/><use transform="matrix(0.06172839506172839,0,0,0.06172839506172839,43.148148148148145,0)" xlink:href="#az"/><use transform="matrix(0.06172839506172839,0,0,0.06172839506172839,55.49382716049382,0)" xlink:href="#az"/><use transform="matrix(0.06172839506172839,0,0,0.06172839506172839,67.8395061728395,0)" xlink:href="#Z"/></g><g id="M"><use transform="matrix(0.06172839506172839,0,0,0.06172839506172839,0,0)" xlink:href="#O"/><use transform="matrix(0.06172839506172839,0,0,0.06172839506172839,14.814814814814813,0)" xlink:href="#P"/><use transform="matrix(0.06172839506172839,0,0,0.06172839506172839,30.80246913580247,0)" xlink:href="#Q"/><use transform="matrix(0.06172839506172839,0,0,0.06172839506172839,43.148148148148145,0)" xlink:href="#az"/><use transform="matrix(0.06172839506172839,0,0,0.06172839506172839,55.49382716049382,0)" xlink:href="#X"/><use transform="matrix(0.06172839506172839,0,0,0.06172839506172839,67.8395061728395,0)" xlink:href="#R"/></g><g id="N"><use transform="matrix(0.06172839506172839,0,0,0.06172839506172839,0,0)" xlink:href="#O"/><use transform="matrix(0.06172839506172839,0,0,0.06172839506172839,14.814814814814813,0)" xlink:href="#P"/><use transform="matrix(0.06172839506172839,0,0,0.06172839506172839,30.80246913580247,0)" xlink:href="#Q"/><use transform="matrix(0.06172839506172839,0,0,0.06172839506172839,43.148148148148145,0)" xlink:href="#az"/><use transform="matrix(0.06172839506172839,0,0,0.06172839506172839,55.49382716049382,0)" xlink:href="#Q"/><use transform="matrix(0.06172839506172839,0,0,0.06172839506172839,67.8395061728395,0)" xlink:href="#R"/></g></defs></g></svg>